<svg width="286" height="102" viewBox="0 0 286 102" fill="none" xmlns="http://www.w3.org/2000/svg">
<path d="M40.9201 74H32.9201V66.2778H27.4201V73.2222H2.64236V51.7222H10.4201V55.8889H19.5868V51.7222H27.4201V58.3333H32.9201V51.2222H40.9201V74ZM19.5868 62.3333H10.4201V66.6111H19.5868V62.3333ZM40.9201 75.5V93.8889H4.64236V75.5H12.5312V78.1111H33.0313V75.5H40.9201ZM33.0313 84.5H12.5312V87.3333H33.0313V84.5ZM76.9143 51.2222H84.9143V75.1111H76.9143V65H71.4698V57.8333H76.9143V51.2222ZM60.0809 67.6111C58.4143 69.6481 56.3772 71.2963 53.9698 72.5556C51.5995 73.7778 49.0254 74.4259 46.2476 74.5V67.1111C48.7291 66.963 50.8032 66.0741 52.4698 64.4444C54.1735 62.8148 55.2661 60.9074 55.7476 58.7222H46.7476V51.7222H72.6365V58.7222H63.8587C63.7476 59.6481 63.5624 60.5185 63.3032 61.3333L74.1365 67.8333L70.3032 74.0556L60.0809 67.6111ZM66.7476 75.7222C72.3772 75.7222 76.8772 76.463 80.2476 77.9444C83.618 79.4259 85.3032 81.7963 85.3032 85.0556C85.3032 88.3148 83.618 90.6852 80.2476 92.1667C76.8772 93.6481 72.3772 94.3889 66.7476 94.3889C61.118 94.3889 56.618 93.6481 53.2476 92.1667C49.9143 90.6852 48.2476 88.3148 48.2476 85.0556C48.2476 81.7963 49.9143 79.4259 53.2476 77.9444C56.618 76.463 61.118 75.7222 66.7476 75.7222ZM66.7476 87.7778C69.7106 87.7778 72.0995 87.5556 73.9143 87.1111C75.7661 86.6667 76.6921 85.9815 76.6921 85.0556C76.6921 84.1667 75.7661 83.5 73.9143 83.0556C72.0624 82.5741 69.6735 82.3333 66.7476 82.3333C63.8587 82.3333 61.4884 82.5741 59.6365 83.0556C57.8217 83.5 56.9143 84.1667 56.9143 85.0556C56.9143 85.9815 57.8217 86.6667 59.6365 87.1111C61.4513 87.5556 63.8217 87.7778 66.7476 87.7778ZM131.784 93.8889V51.2222H139.784V93.8889H131.784ZM114.561 51.5C117.043 51.5 119.265 52.0741 121.228 53.2222C123.191 54.3704 124.71 56 125.784 58.1111C126.895 60.1852 127.45 62.5926 127.45 65.3333C127.45 68.0741 126.895 70.5 125.784 72.6111C124.71 74.7222 123.191 76.3519 121.228 77.5C119.265 78.6481 117.043 79.2222 114.561 79.2222C112.043 79.2222 109.802 78.6481 107.839 77.5C105.876 76.3519 104.339 74.7222 103.228 72.6111C102.117 70.5 101.561 68.0741 101.561 65.3333C101.561 62.5926 102.117 60.1852 103.228 58.1111C104.339 56 105.876 54.3704 107.839 53.2222C109.802 52.0741 112.043 51.5 114.561 51.5ZM114.561 59.0556C112.969 59.0556 111.691 59.6481 110.728 60.8333C109.802 62.0185 109.339 63.5185 109.339 65.3333C109.339 67.2222 109.802 68.7593 110.728 69.9444C111.691 71.0926 112.969 71.6667 114.561 71.6667C116.117 71.6667 117.376 71.0741 118.339 69.8889C119.302 68.7037 119.784 67.1852 119.784 65.3333C119.784 63.5185 119.302 62.0185 118.339 60.8333C117.376 59.6481 116.117 59.0556 114.561 59.0556ZM129.45 90.1111C128.228 90.7037 126.635 91.1481 124.673 91.4444C122.747 91.7407 120.728 91.8889 118.617 91.8889H100.45V84H118.95C120.95 84 122.895 83.8704 124.784 83.6111C126.673 83.3148 128.228 82.8889 129.45 82.3333V90.1111ZM146.833 73.9444V51.7222H183.167V73.9444H146.833ZM154.778 59.4444V66.2778H175.167V59.4444H154.778ZM169.111 85.3333V94.8889H160.889V85.3333H144.444V77.5H185.5V85.3333H169.111ZM201.536 59.9444V52.2222H238.314V80.3333H230.147V59.9444H201.536ZM240.48 92.3889H199.425V84.6667H205.647V69.8333H213.758V84.6667H217.98V69.8333H226.036V84.6667H240.48V92.3889ZM263.975 69.2222C258.345 69.2222 253.826 68.4444 250.419 66.8889C247.049 65.2963 245.363 62.9444 245.363 59.8333C245.363 56.7222 247.049 54.3889 250.419 52.8333C253.826 51.2778 258.345 50.5 263.975 50.5C269.604 50.5 274.104 51.2778 277.475 52.8333C280.882 54.3889 282.586 56.7222 282.586 59.8333C282.586 62.9444 280.882 65.2963 277.475 66.8889C274.104 68.4444 269.604 69.2222 263.975 69.2222ZM263.975 56.9444C260.901 56.9444 258.438 57.2037 256.586 57.7222C254.771 58.2407 253.863 58.9444 253.863 59.8333C253.863 60.7963 254.771 61.537 256.586 62.0556C258.401 62.537 260.863 62.7778 263.975 62.7778C267.086 62.7778 269.53 62.537 271.308 62.0556C273.123 61.537 274.03 60.7963 274.03 59.8333C274.03 58.9444 273.123 58.2407 271.308 57.7222C269.493 57.2037 267.049 56.9444 263.975 56.9444ZM275.586 80.6111H282.141V94.3889H273.975V87.2778H245.641V80.6111H252.363V77.3889H243.419V70.7222H284.475V77.3889H275.586V80.6111ZM260.252 77.3889V80.6111H267.641V77.3889H260.252Z" fill="#01A69F"/>
<path d="M43.9536 4.06667V6.2H40.7536V28.4333H43.9536V30.6H38.0869V4.06667H43.9536ZM68.3872 19.8H65.3538V4.53333H68.3872V19.8ZM54.2538 13.8333C53.3872 15.3222 52.2538 16.5222 50.8538 17.4333C49.4761 18.3444 47.9094 18.9 46.1538 19.1V16.2C48.1538 15.9111 49.7538 15.0222 50.9538 13.5333C52.1761 12.0444 52.865 10.1556 53.0205 7.86667H46.4538V5.13333H62.2205V7.86667H56.0538C56.0316 8.91111 55.8427 10.0556 55.4872 11.3L62.9872 16.5333L61.3872 18.9L54.2538 13.8333ZM68.3872 21.1667V30.1667H65.3205V23.9H47.4205V21.1667H68.3872ZM73.617 17.7333V5.23333H94.617V17.7333H73.617ZM76.617 8.13333V14.8333H91.617V8.13333H76.617ZM85.6503 23.7333V30.7333H82.5837V23.7333H71.9503V20.7333H96.2837V23.7333H85.6503ZM114.513 14.8667V12.1667H118.38V9.16667H114.513V6.46667H118.38V4.53333H121.347V17.4H118.38V14.8667H114.513ZM99.3468 16.4667V4.96667H102.247V8H110.347V4.96667H113.28V16.4667H99.3468ZM110.347 10.4667H102.247V13.9333H110.347V10.4667ZM121.88 29.8333H100.58V23.2333H118.38V21.0333H100.547V18.7667H121.347V25.3333H103.58V27.5667H121.88V29.8333ZM151.235 30.1333V4.53333H154.202V30.1333H151.235ZM139.702 5.03333C141.146 5.03333 142.435 5.37778 143.568 6.06667C144.724 6.73333 145.624 7.68889 146.268 8.93333C146.913 10.1556 147.235 11.5444 147.235 13.1C147.235 14.6778 146.913 16.0889 146.268 17.3333C145.624 18.5556 144.724 19.5111 143.568 20.2C142.435 20.8667 141.146 21.2 139.702 21.2C138.257 21.2 136.957 20.8667 135.802 20.2C134.646 19.5111 133.746 18.5556 133.102 17.3333C132.457 16.0889 132.135 14.6778 132.135 13.1C132.135 11.5444 132.457 10.1556 133.102 8.93333C133.746 7.68889 134.646 6.73333 135.802 6.06667C136.957 5.37778 138.257 5.03333 139.702 5.03333ZM139.702 7.86667C138.324 7.86667 137.202 8.36667 136.335 9.36667C135.491 10.3444 135.068 11.5889 135.068 13.1C135.068 14.6111 135.491 15.8667 136.335 16.8667C137.202 17.8444 138.324 18.3333 139.702 18.3333C141.08 18.3333 142.191 17.8444 143.035 16.8667C143.902 15.8667 144.335 14.6111 144.335 13.1C144.335 11.5889 143.902 10.3444 143.035 9.36667C142.191 8.36667 141.08 7.86667 139.702 7.86667ZM149.235 27.4333C148.413 27.8111 147.302 28.1111 145.902 28.3333C144.502 28.5333 142.946 28.6333 141.235 28.6333H131.335V25.6667H141.402C143.068 25.6667 144.591 25.5667 145.968 25.3667C147.346 25.1667 148.435 24.8778 149.235 24.5V27.4333ZM159.398 17.7333V5.23333H180.398V17.7333H159.398ZM162.398 8.13333V14.8333H177.398V8.13333H162.398ZM171.432 23.7333V30.7333H168.365V23.7333H157.732V20.7333H182.065V23.7333H171.432ZM192.153 8.3V5.4H213.52V22.3H210.453V8.3H192.153ZM215.053 28.9333H190.72V26.0333H195.353V15.8667H198.387V26.0333H202.953V15.8667H205.987V26.0333H215.053V28.9333ZM229.283 15.0333C226.105 15.0333 223.505 14.5889 221.483 13.7C219.461 12.7889 218.45 11.4444 218.45 9.66667C218.45 7.91111 219.461 6.58889 221.483 5.7C223.505 4.78889 226.105 4.33333 229.283 4.33333C232.461 4.33333 235.061 4.78889 237.083 5.7C239.105 6.58889 240.116 7.91111 240.116 9.66667C240.116 11.4444 239.105 12.7889 237.083 13.7C235.061 14.5889 232.461 15.0333 229.283 15.0333ZM229.283 6.83333C227.083 6.83333 225.25 7.08889 223.783 7.6C222.339 8.08889 221.616 8.77778 221.616 9.66667C221.616 10.6 222.339 11.3111 223.783 11.8C225.25 12.2889 227.083 12.5333 229.283 12.5333C231.483 12.5333 233.305 12.2889 234.75 11.8C236.194 11.3111 236.916 10.6 236.916 9.66667C236.916 8.77778 236.194 8.08889 234.75 7.6C233.305 7.08889 231.483 6.83333 229.283 6.83333ZM235.383 22.5667H239.783V30.1667H236.75V25.1667H218.583V22.5667H223.216V19.5H217.116V16.9H241.45V19.5H235.383V22.5667ZM226.183 19.5V22.5667H232.383V19.5H226.183ZM243.046 28.4333H246.213V6.2H243.046V4.06667H248.879V30.6H243.046V28.4333Z" fill="#333333"/>
</svg>
