<svg width="184" height="45" viewBox="0 0 184 45" fill="none" xmlns="http://www.w3.org/2000/svg">
<path d="M38.7408 26.6111H30.6852V1.22222H38.7408V26.6111ZM14.2408 18.8333C12.5741 20.9444 10.5371 22.6481 8.12967 23.9444C5.7593 25.2407 3.1667 25.9259 0.351888 26V18.3889C3.01855 18.2037 5.22226 17.2037 6.963 15.3889C8.70374 13.537 9.7593 11.3519 10.1297 8.83333H0.962999V1.72222H27.1852V8.83333H18.2963C18.2223 9.79629 17.9815 10.963 17.5741 12.3333L28.7408 19.5L24.5741 25.6667L14.2408 18.8333ZM38.7408 28.1111V44.3889H30.5741V35.3333H2.24078V28.1111H38.7408ZM45.846 23.9444V1.72222H82.1794V23.9444H45.846ZM53.7905 9.44444V16.2778H74.1794V9.44444H53.7905ZM68.1238 35.3333V44.8889H59.9016V35.3333H43.4571V27.5H84.5127V35.3333H68.1238ZM100.549 9.94444V2.22222H137.326V30.3333H129.16V9.94444H100.549ZM139.493 42.3889H98.4376V34.6667H104.66V19.8333H112.771V34.6667H116.993V19.8333H125.049V34.6667H139.493V42.3889ZM162.987 19.2222C157.358 19.2222 152.839 18.4444 149.432 16.8889C146.061 15.2963 144.376 12.9444 144.376 9.83333C144.376 6.72222 146.061 4.38889 149.432 2.83333C152.839 1.27778 157.358 0.499998 162.987 0.499998C168.617 0.499998 173.117 1.27778 176.487 2.83333C179.895 4.38889 181.598 6.72222 181.598 9.83333C181.598 12.9444 179.895 15.2963 176.487 16.8889C173.117 18.4444 168.617 19.2222 162.987 19.2222ZM162.987 6.94444C159.913 6.94444 157.45 7.2037 155.598 7.72222C153.784 8.24074 152.876 8.94444 152.876 9.83333C152.876 10.7963 153.784 11.537 155.598 12.0556C157.413 12.537 159.876 12.7778 162.987 12.7778C166.098 12.7778 168.543 12.537 170.321 12.0556C172.135 11.537 173.043 10.7963 173.043 9.83333C173.043 8.94444 172.135 8.24074 170.321 7.72222C168.506 7.2037 166.061 6.94444 162.987 6.94444ZM174.598 30.6111H181.154V44.3889H172.987V37.2778H144.654V30.6111H151.376V27.3889H142.432V20.7222H183.487V27.3889H174.598V30.6111ZM159.265 27.3889V30.6111H166.654V27.3889H159.265Z" fill="#01A69F"/>
</svg>
