<svg width="185" height="45" viewBox="0 0 185 45" fill="none" xmlns="http://www.w3.org/2000/svg">
<path d="M20.7408 17.2222C18.3704 20.5185 15.4815 23.1111 12.0741 25C8.70374 26.8519 5.11115 27.7778 1.29633 27.7778V19.7778C3.963 19.7778 6.51855 19 8.963 17.4444C11.4074 15.8519 13.463 13.6481 15.1297 10.8333C16.7963 7.98148 17.8704 4.72222 18.3519 1.05555L26.5186 2.38889C26.1111 5.46296 25.4074 8.18519 24.4074 10.5556L41.5186 21.0556L37.3519 27.9444L20.7408 17.2222ZM41.5186 34.5V42.3889H0.462999V34.5H16.963V25.0556H25.0741V34.5H41.5186ZM82.5683 13.8333H87.346V20.8889H82.5683V24.7222H74.5683V1.22222H82.5683V3.83333H87.346V10.8889H82.5683V13.8333ZM57.1238 23.7778C54.5683 23.7778 52.2905 23.3148 50.2905 22.3889C48.3275 21.463 46.809 20.1481 45.7349 18.4444C44.6608 16.7407 44.1238 14.7593 44.1238 12.5C44.1238 10.2778 44.6608 8.31481 45.7349 6.61111C46.846 4.90741 48.3831 3.59259 50.346 2.66667C52.309 1.74074 54.5683 1.27778 57.1238 1.27778C59.6794 1.27778 61.9386 1.74074 63.9016 2.66667C65.8645 3.59259 67.3831 4.90741 68.4571 6.61111C69.5683 8.31481 70.1238 10.2778 70.1238 12.5C70.1238 14.7593 69.5868 16.7407 68.5127 18.4444C67.4386 20.1481 65.9016 21.463 63.9016 22.3889C61.9386 23.3148 59.6794 23.7778 57.1238 23.7778ZM57.1238 8.11111C55.5683 8.11111 54.3275 8.51852 53.4016 9.33333C52.5127 10.1111 52.0683 11.1667 52.0683 12.5C52.0683 13.8704 52.5127 14.9444 53.4016 15.7222C54.3275 16.5 55.5683 16.8889 57.1238 16.8889C58.6794 16.8889 59.9016 16.5 60.7905 15.7222C61.7164 14.9444 62.1794 13.8704 62.1794 12.5C62.1794 11.1667 61.7164 10.1111 60.7905 9.33333C59.8645 8.51852 58.6423 8.11111 57.1238 8.11111ZM64.9016 25.3333C70.3831 25.3333 74.7534 26.0926 78.0127 27.6111C81.309 29.0926 82.9571 31.5 82.9571 34.8333C82.9571 38.1667 81.309 40.5926 78.0127 42.1111C74.7534 43.6296 70.3831 44.3889 64.9016 44.3889C59.4201 44.3889 55.0312 43.6296 51.7349 42.1111C48.4757 40.5926 46.846 38.1667 46.846 34.8333C46.846 31.5 48.4757 29.0926 51.7349 27.6111C55.0312 26.0926 59.4201 25.3333 64.9016 25.3333ZM64.9016 37.6667C67.7164 37.6667 69.9757 37.4444 71.6794 37C73.4201 36.5185 74.2905 35.7963 74.2905 34.8333C74.2905 33.8704 73.4201 33.1667 71.6794 32.7222C69.9757 32.2778 67.7164 32.0556 64.9016 32.0556C62.0868 32.0556 59.809 32.2778 58.0683 32.7222C56.3645 33.1667 55.5127 33.8704 55.5127 34.8333C55.5127 35.7963 56.3645 36.5185 58.0683 37C59.809 37.4444 62.0868 37.6667 64.9016 37.6667ZM101.549 9.94444V2.22222H138.326V30.3333H130.16V9.94444H101.549ZM140.493 42.3889H99.4376V34.6667H105.66V19.8333H113.771V34.6667H117.993V19.8333H126.049V34.6667H140.493V42.3889ZM163.987 19.2222C158.358 19.2222 153.839 18.4444 150.432 16.8889C147.061 15.2963 145.376 12.9444 145.376 9.83333C145.376 6.72222 147.061 4.38889 150.432 2.83333C153.839 1.27778 158.358 0.499998 163.987 0.499998C169.617 0.499998 174.117 1.27778 177.487 2.83333C180.895 4.38889 182.598 6.72222 182.598 9.83333C182.598 12.9444 180.895 15.2963 177.487 16.8889C174.117 18.4444 169.617 19.2222 163.987 19.2222ZM163.987 6.94444C160.913 6.94444 158.45 7.2037 156.598 7.72222C154.784 8.24074 153.876 8.94444 153.876 9.83333C153.876 10.7963 154.784 11.537 156.598 12.0556C158.413 12.537 160.876 12.7778 163.987 12.7778C167.098 12.7778 169.543 12.537 171.321 12.0556C173.135 11.537 174.043 10.7963 174.043 9.83333C174.043 8.94444 173.135 8.24074 171.321 7.72222C169.506 7.2037 167.061 6.94444 163.987 6.94444ZM175.598 30.6111H182.154V44.3889H173.987V37.2778H145.654V30.6111H152.376V27.3889H143.432V20.7222H184.487V27.3889H175.598V30.6111ZM160.265 27.3889V30.6111H167.654V27.3889H160.265Z" fill="#01A69F"/>
</svg>
