<svg width="282" height="45" viewBox="0 0 282 45" fill="none" xmlns="http://www.w3.org/2000/svg">
<path d="M29.6979 43.8889V1.22222H37.7535V43.8889H29.6979ZM23.4757 13.7778C23.4757 19.4815 22.5127 24.463 20.5868 28.7222C18.6609 32.9444 15.9387 36.2037 12.4201 38.5C8.90162 40.7593 4.79051 41.8889 0.0868056 41.8889V33.8889C4.93866 33.8519 8.66088 32.0556 11.2535 28.5C13.8831 24.9444 15.1979 20.037 15.1979 13.7778V9.88889H0.0868056V2.22222H23.4757V13.7778ZM81.9143 23.3333H73.9143V16.1111H67.6921C66.8772 18.3333 65.3772 20.0926 63.1921 21.3889C61.0439 22.6481 58.4328 23.2778 55.3587 23.2778C52.8032 23.2778 50.5254 22.8333 48.5254 21.9444C46.5624 21.0185 45.0254 19.7222 43.9143 18.0556C42.8402 16.3889 42.3032 14.463 42.3032 12.2778C42.3032 10.0926 42.8402 8.16667 43.9143 6.5C45.0254 4.83333 46.5624 3.55556 48.5254 2.66667C50.5254 1.74074 52.8032 1.27778 55.3587 1.27778C58.3958 1.27778 60.9884 1.88889 63.1365 3.11111C65.2846 4.33333 66.7846 6.03704 67.6365 8.22222H73.9143V1.22222H81.9143V23.3333ZM55.3587 16.4444C56.9143 16.4444 58.1365 16.0741 59.0254 15.3333C59.9143 14.5926 60.3587 13.5741 60.3587 12.2778C60.3587 10.9815 59.9143 9.96296 59.0254 9.22222C58.1365 8.44444 56.9143 8.05555 55.3587 8.05555C53.8402 8.05555 52.618 8.44444 51.6921 9.22222C50.8032 9.96296 50.3587 10.9815 50.3587 12.2778C50.3587 13.537 50.8032 14.5556 51.6921 15.3333C52.618 16.0741 53.8402 16.4444 55.3587 16.4444ZM81.9143 24.8333V43.8889H46.1365V24.8333H53.9698V27.6111H74.0254V24.8333H81.9143ZM74.0254 34.1667H53.9698V37.2222H74.0254V34.1667ZM96.5059 9.88889V3.77778H103.617V0.555555H111.561V3.77778H118.284V9.88889H96.5059ZM119.95 26.0556V1.38889H127.228V9.88889H130.506V1.22222H137.839V27.5556H130.506V17.3889H127.228V26.0556H119.95ZM117.728 18.8889C117.728 21.2963 116.765 23.2407 114.839 24.7222C112.95 26.1667 110.58 26.8889 107.728 26.8889C104.839 26.8889 102.432 26.1667 100.506 24.7222C98.617 23.2407 97.6725 21.2963 97.6725 18.8889C97.6725 16.4815 98.617 14.5556 100.506 13.1111C102.432 11.6296 104.839 10.8889 107.728 10.8889C110.58 10.8889 112.95 11.6296 114.839 13.1111C116.765 14.5556 117.728 16.4815 117.728 18.8889ZM104.673 18.8889C104.673 19.5556 104.95 20.0926 105.506 20.5C106.098 20.9074 106.839 21.1111 107.728 21.1111C108.58 21.1111 109.284 20.9074 109.839 20.5C110.432 20.0926 110.728 19.5556 110.728 18.8889C110.728 18.2222 110.432 17.7037 109.839 17.3333C109.284 16.9259 108.58 16.7222 107.728 16.7222C106.839 16.7222 106.098 16.9259 105.506 17.3333C104.95 17.7037 104.673 18.2222 104.673 18.8889ZM118.95 27.6111C124.802 27.6111 129.45 28.2778 132.895 29.6111C136.376 30.9444 138.117 33.0741 138.117 36C138.117 38.963 136.376 41.0926 132.895 42.3889C129.45 43.7222 124.802 44.3889 118.95 44.3889C113.098 44.3889 108.432 43.7222 104.95 42.3889C101.506 41.0926 99.7836 38.963 99.7836 36C99.7836 33.0741 101.506 30.9444 104.95 29.6111C108.432 28.2778 113.098 27.6111 118.95 27.6111ZM118.95 38.1111C122.061 38.1111 124.617 37.9444 126.617 37.6111C128.617 37.2407 129.617 36.7037 129.617 36C129.617 35.2963 128.617 34.7778 126.617 34.4444C124.617 34.0741 122.061 33.8889 118.95 33.8889C115.839 33.8889 113.265 34.0741 111.228 34.4444C109.228 34.7778 108.228 35.2963 108.228 36C108.228 36.7037 109.228 37.2407 111.228 37.6111C113.265 37.9444 115.839 38.1111 118.95 38.1111ZM179.556 25V43.8889H171.556V1.22222H179.556V16.8333H184.333V25H179.556ZM160.5 2.33333C160.5 8.66667 159.981 14.4259 158.944 19.6111L170.722 37L164.111 41.8333L156.056 29.3889C154.389 33.3889 152.296 36.463 149.778 38.6111C147.296 40.7593 144.519 41.8519 141.444 41.8889V33.2222C143.593 32.963 145.481 31.4815 147.111 28.7778C148.741 26.0741 150.019 22.4259 150.944 17.8333C151.87 13.2037 152.333 7.94444 152.333 2.05555L160.5 2.33333ZM236.814 43.8889H229.314V24.8889H225.925V43.1667H218.536V1.38889H225.925V16.8889H229.314V1.22222H236.814V43.8889ZM207.203 34.5C208.869 34.5 210.555 34.3704 212.258 34.1111C213.999 33.8519 215.462 33.5 216.647 33.0556V40.3333C215.499 40.8519 213.98 41.2407 212.092 41.5C210.203 41.7593 208.332 41.8889 206.48 41.8889H197.203V2.22222H214.869V9.61111H204.869V34.5H207.203ZM239.475 9.88889V3.77778H246.586V0.555555H254.53V3.77778H261.252V9.88889H239.475ZM262.919 26.0556V1.38889H270.197V9.88889H273.475V1.22222H280.808V27.5556H273.475V17.3889H270.197V26.0556H262.919ZM260.697 18.8889C260.697 21.2963 259.734 23.2407 257.808 24.7222C255.919 26.1667 253.549 26.8889 250.697 26.8889C247.808 26.8889 245.401 26.1667 243.475 24.7222C241.586 23.2407 240.641 21.2963 240.641 18.8889C240.641 16.4815 241.586 14.5556 243.475 13.1111C245.401 11.6296 247.808 10.8889 250.697 10.8889C253.549 10.8889 255.919 11.6296 257.808 13.1111C259.734 14.5556 260.697 16.4815 260.697 18.8889ZM247.641 18.8889C247.641 19.5556 247.919 20.0926 248.475 20.5C249.067 20.9074 249.808 21.1111 250.697 21.1111C251.549 21.1111 252.252 20.9074 252.808 20.5C253.401 20.0926 253.697 19.5556 253.697 18.8889C253.697 18.2222 253.401 17.7037 252.808 17.3333C252.252 16.9259 251.549 16.7222 250.697 16.7222C249.808 16.7222 249.067 16.9259 248.475 17.3333C247.919 17.7037 247.641 18.2222 247.641 18.8889ZM261.919 27.6111C267.771 27.6111 272.419 28.2778 275.863 29.6111C279.345 30.9444 281.086 33.0741 281.086 36C281.086 38.963 279.345 41.0926 275.863 42.3889C272.419 43.7222 267.771 44.3889 261.919 44.3889C256.067 44.3889 251.401 43.7222 247.919 42.3889C244.475 41.0926 242.752 38.963 242.752 36C242.752 33.0741 244.475 30.9444 247.919 29.6111C251.401 28.2778 256.067 27.6111 261.919 27.6111ZM261.919 38.1111C265.03 38.1111 267.586 37.9444 269.586 37.6111C271.586 37.2407 272.586 36.7037 272.586 36C272.586 35.2963 271.586 34.7778 269.586 34.4444C267.586 34.0741 265.03 33.8889 261.919 33.8889C258.808 33.8889 256.234 34.0741 254.197 34.4444C252.197 34.7778 251.197 35.2963 251.197 36C251.197 36.7037 252.197 37.2407 254.197 37.6111C256.234 37.9444 258.808 38.1111 261.919 38.1111Z" fill="#01A69F"/>
</svg>
