<svg width="1002" height="368" viewBox="0 0 1002 368" fill="none" xmlns="http://www.w3.org/2000/svg">
<g filter="url(#filter0_d_25_3149)">
<path d="M214.42 2H18.56C9.96645 2 3 8.96645 3 17.56V38.52C3 47.1136 9.96645 54.08 18.56 54.08H214.42C223.014 54.08 229.98 47.1136 229.98 38.52V17.56C229.98 8.96645 223.014 2 214.42 2Z" fill="white"/>
</g>
<path d="M81.1196 32.1399V35.5899H79.2496V32.1399H71.5596V30.8399L78.6396 21.7899H80.6896L73.8996 30.5499H79.2896V27.5099H81.1196V30.5499H83.7396V32.1499H81.1196V32.1399Z" fill="#138981"/>
<path d="M89.6494 33.57C90.2494 33.47 90.7594 33.33 91.1994 33.15V34.79C90.7694 34.97 90.2294 35.12 89.5894 35.22C88.9494 35.33 88.2994 35.38 87.6494 35.38H84.3594V21.65H90.5894V23.31H86.0694V33.73H87.8494C88.4494 33.73 89.0594 33.68 89.6494 33.58V33.57ZM97.8194 36.26H96.1194V28.92H93.8694V36H92.2094V21.19H93.8694V27.17H96.1194V21.11H97.8194V36.26Z" fill="#138981"/>
<path d="M113.94 30.4H99.54V28.88H105.85V27.3H100.37V25.82H102.87V22.74H100.52V21.26H112.97V22.74H110.6V25.82H113.1V27.3H107.62V28.88H113.93V30.4H113.94ZM112.95 31.82V36.28H111.16V33.34H100.41V31.82H112.96H112.95ZM108.83 25.82V22.74H104.67V25.82H108.83Z" fill="#138981"/>
<path d="M121.71 22.95H115.71V21.47H123.46V26.42H117.5V28.47H120.71C121.64 28.47 122.51 28.42 123.3 28.33C124.1 28.24 124.7 28.11 125.12 27.96V29.38C124.71 29.56 124.1 29.71 123.3 29.81C122.49 29.92 121.59 29.97 120.59 29.97H115.74V25H121.7V22.95H121.71ZM128.77 31.39V36.28H126.96V32.97H116.33V31.39H128.78H128.77ZM128.77 30.58H127.01V27.66H124.45V26.06H127.01V24.44H124.45V22.84H127.01V21.1H128.77V30.57V30.58Z" fill="#138981"/>
<path d="M141.24 21.19V36H139.6V31.92H137.35C137.13 33.16 136.76 34.07 136.25 34.67C135.74 35.27 135.08 35.57 134.28 35.57C133.18 35.57 132.35 35 131.79 33.86C131.24 32.72 130.96 30.94 130.96 28.5C130.96 26.06 131.24 24.28 131.79 23.14C132.34 22 133.17 21.43 134.28 21.43C135.79 21.43 136.79 22.47 137.26 24.55H139.61V21.18H141.25L141.24 21.19ZM135.56 32.57C135.84 31.7 135.97 30.35 135.97 28.51C135.97 26.67 135.83 25.31 135.56 24.45C135.28 23.58 134.86 23.15 134.28 23.15C133.7 23.15 133.3 23.59 133.03 24.46C132.76 25.33 132.63 26.69 132.63 28.51C132.63 30.33 132.76 31.69 133.03 32.56C133.3 33.43 133.72 33.87 134.28 33.87C134.84 33.87 135.29 33.44 135.56 32.57ZM139.6 26.28H137.51C137.59 26.92 137.63 27.67 137.63 28.51C137.63 29.1 137.61 29.67 137.57 30.21H139.6V26.28ZM144.69 36.26H143.01V21.11H144.69V36.26Z" fill="#138981"/>
<path d="M146.899 28.88V21.36H148.639V23.47H153.609V21.36H155.349V28.88H146.909H146.899ZM158.009 30.92C159.139 31.41 159.709 32.19 159.709 33.24C159.709 34.29 159.139 35.06 158.009 35.55C156.879 36.04 155.379 36.28 153.509 36.28C151.639 36.28 150.139 36.04 149.009 35.55C147.879 35.06 147.309 34.29 147.309 33.24C147.309 32.19 147.879 31.42 149.009 30.92C150.139 30.42 151.639 30.18 153.509 30.18C155.379 30.18 156.879 30.43 158.009 30.92ZM153.609 25H148.639V27.33H153.609V25ZM156.609 34.38C157.409 34.12 157.809 33.75 157.809 33.25C157.809 32.75 157.409 32.36 156.619 32.11C155.819 31.86 154.789 31.74 153.509 31.74C152.229 31.74 151.179 31.86 150.379 32.11C149.579 32.36 149.189 32.74 149.189 33.25C149.189 33.76 149.589 34.13 150.389 34.38C151.189 34.64 152.229 34.76 153.509 34.76C154.789 34.76 155.799 34.63 156.609 34.38ZM161.499 26.04H159.509V29.73H157.729V21.11H159.509V24.25H161.499V26.04Z" fill="#138981"/>
<g filter="url(#filter1_d_25_3149)">
<path d="M470.63 2H274.77C266.176 2 259.21 8.96645 259.21 17.56V38.52C259.21 47.1136 266.176 54.08 274.77 54.08H470.63C479.224 54.08 486.19 47.1136 486.19 38.52V17.56C486.19 8.96645 479.224 2 470.63 2Z" fill="#138981"/>
</g>
<path d="M313.4 35.55H299V33.79H304.31V27.1H306.14V33.79H313.4V35.55ZM299.87 23.36V21.62H312.45V31.62H310.62V23.35H299.87V23.36Z" fill="white"/>
<path d="M325.21 29.93V31.65C324.22 32.03 322.68 32.22 320.57 32.22H320.43V36.26H318.65V32.22H314.61V30.52H320.57C322.73 30.52 324.27 30.32 325.21 29.93ZM317.35 28.67C316.7 28.34 316.19 27.88 315.83 27.29C315.47 26.7 315.29 26.02 315.29 25.26C315.29 24.5 315.47 23.84 315.83 23.25C316.19 22.66 316.7 22.19 317.35 21.86C318 21.53 318.74 21.36 319.57 21.36C320.4 21.36 321.13 21.53 321.78 21.86C322.42 22.2 322.93 22.66 323.29 23.25C323.65 23.84 323.83 24.51 323.83 25.26C323.83 26.01 323.65 26.7 323.29 27.29C322.93 27.88 322.43 28.34 321.78 28.67C321.14 29 320.4 29.16 319.57 29.16C318.74 29.16 318 29 317.35 28.67ZM317.72 23.56C317.25 24.01 317.01 24.57 317.01 25.26C317.01 25.95 317.25 26.51 317.72 26.96C318.19 27.41 318.81 27.63 319.57 27.63C320.33 27.63 320.95 27.41 321.42 26.96C321.89 26.51 322.13 25.95 322.13 25.26C322.13 24.57 321.89 24.01 321.42 23.56C320.95 23.11 320.33 22.89 319.57 22.89C318.81 22.89 318.19 23.11 317.72 23.56ZM328.15 36.26H326.39V21.11H328.15V36.26Z" fill="white"/>
<path d="M333.39 28.74C332.57 29.28 331.64 29.61 330.6 29.73V28.01C331.78 27.84 332.73 27.31 333.45 26.43C334.17 25.55 334.57 24.43 334.66 23.08H330.77V21.46H340.1V23.08H336.45C336.44 23.7 336.33 24.38 336.11 25.11L340.55 28.21L339.6 29.61L335.38 26.61C334.87 27.49 334.2 28.2 333.38 28.74H333.39ZM343.75 30.95V36.28H341.94V32.57H331.35V30.95H343.76H343.75ZM343.75 30.14H341.96V21.11H343.75V30.14Z" fill="white"/>
<path d="M358.81 32.1399V35.5899H356.94V32.1399H349.25V30.8399L356.33 21.7899H358.38L351.59 30.5499H356.98V27.5099H358.81V30.5499H361.43V32.1499H358.81V32.1399Z" fill="white"/>
<path d="M367.34 33.57C367.94 33.47 368.45 33.33 368.89 33.15V34.79C368.46 34.97 367.92 35.12 367.28 35.22C366.64 35.33 365.99 35.38 365.34 35.38H362.05V21.65H368.28V23.31H363.76V33.73H365.54C366.14 33.73 366.75 33.68 367.34 33.58V33.57ZM375.51 36.26H373.81V28.92H371.56V36H369.9V21.19H371.56V27.17H373.81V21.11H375.51V36.26Z" fill="white"/>
<path d="M395.53 30.4H381.13V28.88H387.44V27.3H381.96V25.82H384.47V22.74H382.12V21.26H394.57V22.74H392.2V25.82H394.71V27.3H389.23V28.88H395.54V30.4H395.53ZM394.55 31.82V36.28H392.76V33.34H382.01V31.82H394.56H394.55ZM390.42 25.82V22.74H386.26V25.82H390.42Z" fill="white"/>
<path d="M403.31 22.95H397.31V21.47H405.06V26.42H399.1V28.47H402.32C403.25 28.47 404.12 28.42 404.91 28.33C405.71 28.24 406.31 28.11 406.73 27.96V29.38C406.32 29.56 405.71 29.71 404.91 29.81C404.1 29.92 403.2 29.97 402.2 29.97H397.35V25H403.31V22.95ZM410.37 31.39V36.28H408.56V32.97H397.93V31.39H410.38H410.37ZM410.37 30.58H408.61V27.66H406.05V26.06H408.61V24.44H406.05V22.84H408.61V21.1H410.37V30.57V30.58Z" fill="white"/>
<path d="M426.74 21.19V36H425.1V31.92H422.85C422.63 33.16 422.26 34.07 421.75 34.67C421.24 35.27 420.58 35.57 419.78 35.57C418.68 35.57 417.85 35 417.29 33.86C416.74 32.72 416.46 30.94 416.46 28.5C416.46 26.06 416.74 24.28 417.29 23.14C417.84 22 418.67 21.43 419.78 21.43C421.29 21.43 422.28 22.47 422.76 24.55H425.11V21.18H426.75L426.74 21.19ZM421.06 32.57C421.34 31.7 421.47 30.35 421.47 28.51C421.47 26.67 421.33 25.31 421.06 24.45C420.78 23.58 420.36 23.15 419.78 23.15C419.2 23.15 418.8 23.59 418.53 24.46C418.26 25.33 418.13 26.69 418.13 28.51C418.13 30.33 418.26 31.69 418.53 32.56C418.8 33.43 419.22 33.87 419.78 33.87C420.34 33.87 420.79 33.44 421.06 32.57ZM425.1 26.28H423.01C423.09 26.92 423.13 27.67 423.13 28.51C423.13 29.1 423.11 29.67 423.07 30.21H425.1V26.28ZM430.19 36.26H428.51V21.11H430.19V36.26Z" fill="white"/>
<path d="M432.4 28.88V21.36H434.14V23.47H439.11V21.36H440.85V28.88H432.41H432.4ZM443.51 30.92C444.64 31.41 445.21 32.19 445.21 33.24C445.21 34.29 444.64 35.06 443.51 35.55C442.38 36.04 440.88 36.28 439.01 36.28C437.14 36.28 435.64 36.04 434.51 35.55C433.38 35.06 432.81 34.29 432.81 33.24C432.81 32.19 433.37 31.42 434.51 30.92C435.64 30.43 437.14 30.18 439.01 30.18C440.88 30.18 442.38 30.43 443.51 30.92ZM439.11 25H434.14V27.33H439.11V25ZM442.11 34.38C442.91 34.12 443.31 33.75 443.31 33.25C443.31 32.75 442.91 32.36 442.12 32.11C441.32 31.86 440.29 31.74 439.01 31.74C437.73 31.74 436.68 31.86 435.88 32.11C435.08 32.36 434.69 32.74 434.69 33.25C434.69 33.76 435.09 34.13 435.89 34.38C436.69 34.64 437.73 34.76 439.01 34.76C440.29 34.76 441.3 34.63 442.11 34.38ZM447 26.04H445.01V29.73H443.23V21.11H445.01V24.25H447V26.04Z" fill="white"/>
<g filter="url(#filter2_d_25_3149)">
<path d="M726.84 2H530.98C522.386 2 515.42 8.96645 515.42 17.56V38.52C515.42 47.1136 522.386 54.08 530.98 54.08H726.84C735.433 54.08 742.4 47.1136 742.4 38.52V17.56C742.4 8.96645 735.433 2 726.84 2Z" fill="white"/>
</g>
<path d="M580.48 28.87C579.68 29.39 578.8 29.7 577.83 29.81V28.19C578.88 28.02 579.75 27.56 580.42 26.81C581.1 26.06 581.51 25.14 581.67 24.05H577.96V22.49H581.73V20.83H583.52V22.49H587.23V24.05H583.5C583.39 24.71 583.29 25.17 583.18 25.45L587.48 28.31L586.65 29.69L582.41 26.87C581.91 27.69 581.26 28.35 580.47 28.87H580.48ZM589.59 31.26C590.73 31.71 591.31 32.44 591.31 33.44C591.31 34.44 590.74 35.16 589.59 35.61C588.45 36.06 586.92 36.28 585.01 36.28C583.1 36.28 581.58 36.06 580.44 35.61C579.3 35.16 578.73 34.44 578.73 33.44C578.73 32.44 579.3 31.71 580.44 31.26C581.58 30.81 583.1 30.58 585.01 30.58C586.92 30.58 588.44 30.81 589.59 31.26ZM588.21 34.47C589.01 34.25 589.41 33.91 589.41 33.43C589.41 32.95 589.01 32.61 588.21 32.38C587.41 32.16 586.34 32.05 585.01 32.05C583.68 32.05 582.64 32.16 581.83 32.38C581.03 32.6 580.63 32.95 580.63 33.43C580.63 33.91 581.03 34.23 581.83 34.46C582.63 34.68 583.69 34.8 585.01 34.8C586.33 34.8 587.4 34.69 588.21 34.47ZM589.37 21.11H591.15V30.12H589.37V26.37H586.69V24.69H589.37V21.1V21.11Z" fill="#138981"/>
<path d="M599.71 22.93H593.71V21.47H601.46V26.14H595.5V27.97H598.72C599.67 27.97 600.53 27.93 601.32 27.84C602.11 27.75 602.71 27.63 603.13 27.47V28.87C602.72 29.04 602.11 29.18 601.3 29.28C600.48 29.39 599.58 29.44 598.6 29.44H593.75V24.75H599.71V22.92V22.93ZM606.73 30.78V36.09H594.44V30.78H606.73ZM604.95 34.56V32.29H596.21V34.56H604.95ZM606.77 29.97H605.01V27.31H602.45V25.75H605.01V24.21H602.45V22.65H605.01V21.11H606.77V29.97Z" fill="#138981"/>
<path d="M615.05 20.3199L609.19 37.0499H607.69L613.55 20.3199H615.05Z" fill="#138981"/>
<path d="M627.02 32.45V36.61H625.21V32.45H618.92V30.73H633.32V32.45H627.03H627.02ZM619.9 29.16V21.37H621.66V23.42H630.58V21.37H632.34V29.16H619.91H619.9ZM630.58 25.08H621.66V27.51H630.58V25.08Z" fill="#138981"/>
<path d="M642.51 33.02V34.68C641.6 35.14 640.1 35.37 637.99 35.37H634.46V33.71H635.7V23.29H634.56V21.63H641.98V23.29H640.84V33.51C641.44 33.43 642 33.27 642.52 33.02H642.51ZM639.22 33.68V23.3H637.31V33.72H637.7C638.13 33.72 638.64 33.71 639.22 33.68ZM648.45 36.26H646.79V28.92H644.76V36H643.12V21.19H644.76V27.17H646.79V21.11H648.45V36.26Z" fill="#138981"/>
<path d="M650.66 28.88V21.36H652.4V23.47H657.37V21.36H659.11V28.88H650.67H650.66ZM661.76 30.92C662.89 31.41 663.46 32.19 663.46 33.24C663.46 34.29 662.89 35.06 661.76 35.55C660.63 36.04 659.13 36.28 657.26 36.28C655.39 36.28 653.89 36.04 652.76 35.55C651.63 35.06 651.06 34.29 651.06 33.24C651.06 32.19 651.62 31.42 652.76 30.92C653.89 30.43 655.39 30.18 657.26 30.18C659.13 30.18 660.63 30.43 661.76 30.92ZM657.36 25H652.39V27.33H657.36V25ZM660.36 34.38C661.16 34.12 661.56 33.75 661.56 33.25C661.56 32.75 661.16 32.36 660.37 32.11C659.57 31.86 658.54 31.74 657.26 31.74C655.98 31.74 654.93 31.86 654.13 32.11C653.33 32.36 652.94 32.74 652.94 33.25C652.94 33.76 653.34 34.13 654.14 34.38C654.94 34.64 655.98 34.76 657.26 34.76C658.54 34.76 659.55 34.63 660.36 34.38ZM665.25 26.04H663.26V29.73H661.48V21.11H663.26V24.25H665.25V26.04Z" fill="#138981"/>
<path d="M671.57 28.07L676.23 34.15L674.83 35.25L671 30.16C670.5 31.73 669.83 32.95 669 33.84C668.16 34.73 667.21 35.24 666.13 35.37V33.5C666.95 33.34 667.66 32.82 668.27 31.92C668.88 31.03 669.35 29.84 669.69 28.36C670.03 26.88 670.21 25.21 670.23 23.36H666.46V21.64H675.65V23.36H672C671.97 25.14 671.83 26.71 671.57 28.07ZM679.3 36.26H677.51V21.11H679.3V36.26Z" fill="#138981"/>
<g filter="url(#filter3_d_25_3149)">
<path d="M983.05 2H787.19C778.596 2 771.63 8.96645 771.63 17.56V38.52C771.63 47.1136 778.596 54.08 787.19 54.08H983.05C991.643 54.08 998.61 47.1136 998.61 38.52V17.56C998.61 8.96645 991.643 2 983.05 2Z" fill="#138981"/>
</g>
<path d="M823.92 28.98H809.52V27.44H814.87V24.54H816.67V27.44H823.93V28.98H823.92ZM821.3 31.06C822.48 31.54 823.07 32.29 823.07 33.3C823.07 34.31 822.48 35.06 821.31 35.55C820.14 36.04 818.61 36.28 816.71 36.28C814.81 36.28 813.3 36.04 812.12 35.55C810.94 35.06 810.35 34.31 810.35 33.3C810.35 32.29 810.94 31.52 812.11 31.05C813.28 30.58 814.81 30.34 816.71 30.34C818.61 30.34 820.12 30.58 821.3 31.06ZM810.46 22.83V21.27H822.89V26.4H821.09V22.83H810.46ZM819.9 34.42C820.76 34.16 821.19 33.79 821.19 33.31C821.19 32.83 820.76 32.47 819.89 32.22C819.02 31.96 817.96 31.84 816.71 31.84C815.46 31.84 814.37 31.96 813.51 32.2C812.66 32.44 812.23 32.82 812.23 33.31C812.23 33.8 812.66 34.17 813.52 34.42C814.38 34.67 815.44 34.8 816.71 34.8C817.98 34.8 819.03 34.67 819.9 34.42Z" fill="white"/>
<path d="M828.29 28.74C827.47 29.28 826.54 29.61 825.5 29.73V28.01C826.68 27.84 827.63 27.31 828.35 26.43C829.07 25.55 829.47 24.43 829.56 23.08H825.67V21.46H835V23.08H831.35C831.34 23.7 831.23 24.38 831.01 25.11L835.45 28.21L834.5 29.61L830.28 26.61C829.77 27.49 829.1 28.2 828.28 28.74H828.29ZM838.65 30.95V36.28H836.84V32.57H826.25V30.95H838.66H838.65ZM838.65 30.14H836.86V21.11H838.65V30.14Z" fill="white"/>
<path d="M846.329 28.09L850.909 34.15L849.509 35.25L845.759 30.2C845.249 31.75 844.579 32.97 843.769 33.85C842.949 34.73 842.009 35.24 840.949 35.37V33.5C841.769 33.34 842.469 32.82 843.059 31.92C843.649 31.03 844.109 29.84 844.439 28.37C844.769 26.9 844.949 25.23 844.969 23.36H841.279V21.64H850.329V23.36H846.759C846.719 25.16 846.579 26.74 846.329 28.09ZM853.859 28.98V36.26H852.079V21.11H853.859V27.19H855.849V28.99H853.859V28.98Z" fill="white"/>
<path d="M868.469 23.22C869.249 24.4 869.639 26.17 869.639 28.51C869.639 30.85 869.249 32.61 868.469 33.8C867.689 34.98 866.629 35.58 865.279 35.58C863.929 35.58 862.869 34.99 862.079 33.8C861.289 32.61 860.899 30.85 860.899 28.51C860.899 26.17 861.289 24.41 862.079 23.22C862.869 22.03 863.929 21.44 865.279 21.44C866.629 21.44 867.679 22.03 868.469 23.22ZM863.369 24.47C862.899 25.35 862.659 26.69 862.659 28.5C862.659 30.31 862.899 31.66 863.369 32.53C863.839 33.41 864.479 33.84 865.279 33.84C866.079 33.84 866.679 33.4 867.149 32.52C867.619 31.64 867.859 30.3 867.859 28.5C867.859 26.7 867.619 25.36 867.149 24.48C866.679 23.6 866.049 23.16 865.279 23.16C864.509 23.16 863.839 23.6 863.369 24.47ZM872.009 36.26V21.11H873.799V36.26H872.009Z" fill="white"/>
<path d="M883.29 23.4199V25.0999H875.6V23.4199H878.56V21.0699H880.34V23.4199H883.3H883.29ZM881.27 26.7799C881.78 27.1399 882.17 27.6699 882.46 28.3699C882.75 29.0699 882.89 29.9099 882.89 30.8899C882.89 31.8699 882.75 32.7199 882.46 33.4099C882.17 34.1099 881.77 34.6399 881.27 34.9999C880.76 35.3599 880.18 35.5399 879.52 35.5399C878.52 35.5399 877.71 35.1399 877.09 34.3299C876.47 33.5199 876.16 32.3699 876.16 30.8899C876.16 29.4099 876.47 28.2599 877.09 27.4499C877.71 26.6399 878.52 26.2399 879.52 26.2399C880.18 26.2399 880.76 26.4199 881.27 26.7799ZM880.78 33.1099C881.1 32.5799 881.26 31.8399 881.26 30.8899C881.26 29.9399 881.1 29.1999 880.78 28.6599C880.46 28.1199 880.04 27.8499 879.53 27.8499C879.02 27.8499 878.6 28.1199 878.28 28.6599C877.96 29.1999 877.8 29.9399 877.8 30.8899C877.8 31.8399 877.96 32.5799 878.28 33.1099C878.6 33.6399 879.02 33.9099 879.53 33.9099C880.04 33.9099 880.46 33.6399 880.78 33.1099ZM889.82 36.2599H888.16V28.9199H885.95V35.9999H884.31V21.1899H885.95V27.1699H888.16V21.1099H889.82V36.2599Z" fill="white"/>
<path d="M907.51 31.85C908.51 32.26 909.01 32.89 909.01 33.71C909.01 34.63 908.43 35.29 907.27 35.69C906.11 36.09 904.57 36.29 902.63 36.29C900.69 36.29 899.17 36.09 898 35.69C896.84 35.29 896.25 34.63 896.25 33.71C896.25 32.88 896.75 32.26 897.76 31.85C898.77 31.44 900.09 31.2 901.73 31.15V29.75H895.42V28.27H909.82V29.75H903.53V31.15C905.17 31.2 906.5 31.44 907.49 31.85H907.51ZM899.46 26.78C898.36 27.1 897.21 27.28 896.02 27.3V25.84C897.28 25.81 898.47 25.59 899.59 25.16C900.71 24.73 901.43 24.14 901.76 23.39H896.3V21.95H901.76V20.49H903.55V21.95H908.99V23.39H903.7C903.65 23.68 903.53 23.96 903.35 24.24L909.33 25.92L908.92 27.34L902.19 25.43C901.47 26.01 900.56 26.46 899.46 26.78ZM905.88 32.84C905.03 32.66 903.95 32.57 902.65 32.57C901.35 32.57 900.27 32.66 899.41 32.84C898.56 33.02 898.13 33.31 898.13 33.72C898.13 34.13 898.56 34.42 899.41 34.61C900.26 34.79 901.34 34.89 902.65 34.89C903.96 34.89 905.03 34.8 905.88 34.61C906.73 34.43 907.16 34.13 907.16 33.72C907.16 33.31 906.73 33.02 905.88 32.84Z" fill="white"/>
<path d="M925.46 28.92H911.06V27.5H917.39V26.14H912.08V21.27H924.45V22.69H913.86V24.72H924.61V26.14H919.15V27.5H925.46V28.92ZM924.74 34.8V36.08H912.06V32.49H922.77V31.33H912.02V30.07H924.51V33.62H913.8V34.8H924.75H924.74Z" fill="white"/>
<path d="M931.09 28.88V21.36H932.83V23.47H937.8V21.36H939.54V28.88H931.1H931.09ZM942.19 30.92C943.32 31.41 943.89 32.19 943.89 33.24C943.89 34.29 943.32 35.06 942.19 35.55C941.06 36.04 939.56 36.28 937.69 36.28C935.82 36.28 934.32 36.04 933.19 35.55C932.06 35.06 931.49 34.29 931.49 33.24C931.49 32.19 932.05 31.42 933.19 30.92C934.32 30.43 935.82 30.18 937.69 30.18C939.56 30.18 941.06 30.43 942.19 30.92ZM937.79 25H932.82V27.33H937.79V25ZM940.79 34.38C941.59 34.12 941.99 33.75 941.99 33.25C941.99 32.75 941.59 32.36 940.8 32.11C940 31.86 938.97 31.74 937.69 31.74C936.41 31.74 935.36 31.86 934.56 32.11C933.76 32.36 933.37 32.74 933.37 33.25C933.37 33.76 933.77 34.13 934.57 34.38C935.37 34.64 936.41 34.76 937.69 34.76C938.97 34.76 939.98 34.63 940.79 34.38ZM945.68 26.04H943.69V29.73H941.91V21.11H943.69V24.25H945.68V26.04Z" fill="white"/>
<path d="M952 28.07L956.66 34.15L955.26 35.25L951.43 30.16C950.93 31.73 950.26 32.95 949.43 33.84C948.59 34.73 947.64 35.24 946.56 35.37V33.5C947.38 33.34 948.09 32.82 948.7 31.92C949.31 31.03 949.78 29.84 950.12 28.36C950.46 26.88 950.64 25.21 950.66 23.36H946.89V21.64H956.08V23.36H952.43C952.4 25.14 952.26 26.71 952 28.07ZM959.73 36.26H957.94V21.11H959.73V36.26Z" fill="white"/>
<g filter="url(#filter4_d_25_3149)">
<path d="M214.42 104.84H18.56C9.96645 104.84 3 111.806 3 120.4V141.36C3 149.954 9.96645 156.92 18.56 156.92H214.42C223.014 156.92 229.98 149.954 229.98 141.36V120.4C229.98 111.806 223.014 104.84 214.42 104.84Z" fill="#138981"/>
</g>
<path d="M34.2802 131.59C33.4602 132.13 32.5302 132.46 31.4902 132.58V130.86C32.6702 130.69 33.6202 130.16 34.3402 129.28C35.0602 128.4 35.4602 127.28 35.5502 125.93H31.6602V124.31H40.9902V125.93H37.3402C37.3302 126.55 37.2102 127.23 37.0002 127.96L41.4402 131.06L40.4902 132.46L36.2702 129.46C35.7602 130.34 35.0902 131.05 34.2702 131.59H34.2802ZM44.6402 133.8V139.13H42.8302V135.42H32.2402V133.8H44.6502H44.6402ZM44.6402 132.99H42.8502V123.96H44.6402V132.99Z" fill="white"/>
<path d="M49.7702 131.05C48.9402 131.59 48.0002 131.91 46.9502 132.02V130.36C48.0802 130.2 49.0002 129.72 49.7102 128.91C50.4202 128.1 50.8302 127.1 50.9302 125.9H47.1402V124.3H56.3302V125.9H52.7202C52.7102 126.44 52.6202 126.98 52.4602 127.52L56.7802 130.3L55.9102 131.7L51.7702 128.94C51.2602 129.81 50.5902 130.51 49.7602 131.05H49.7702ZM58.3502 133.56C59.4802 134.07 60.0502 134.87 60.0502 135.95C60.0502 137.03 59.4802 137.84 58.3502 138.36C57.2202 138.87 55.7202 139.13 53.8502 139.13C51.9802 139.13 50.4802 138.87 49.3502 138.36C48.2202 137.85 47.6502 137.05 47.6502 135.95C47.6502 134.85 48.2202 134.08 49.3502 133.56C50.4802 133.05 51.9802 132.79 53.8502 132.79C55.7202 132.79 57.2202 133.05 58.3502 133.56ZM56.9502 137.17C57.7502 136.89 58.1502 136.49 58.1502 135.95C58.1502 135.41 57.7502 135.01 56.9602 134.74C56.1602 134.47 55.1302 134.34 53.8502 134.34C52.5702 134.34 51.5402 134.48 50.7402 134.74C49.9402 135.01 49.5502 135.41 49.5502 135.95C49.5502 136.49 49.9502 136.9 50.7402 137.17C51.5402 137.45 52.5702 137.58 53.8502 137.58C55.1302 137.58 56.1402 137.44 56.9502 137.17ZM61.8502 128.57H59.8602V132.32H58.0802V123.96H59.8602V126.8H61.8502V128.58V128.57Z" fill="white"/>
<path d="M72.0107 136.39C72.6107 136.29 73.1207 136.15 73.5607 135.97V137.63C73.1407 137.83 72.6107 137.98 71.9707 138.07C71.3307 138.17 70.6807 138.22 70.0107 138.22H66.7207V124.45H68.4607V136.54H70.2207C70.8207 136.54 71.4307 136.49 72.0207 136.39H72.0107ZM80.1907 139.1H78.4907V131.76H76.2407V138.84H74.5807V124.03H76.2407V130.01H78.4907V123.95H80.1907V139.1Z" fill="white"/>
<path d="M88.8298 131.05C87.9998 131.59 87.0598 131.91 86.0098 132.02V130.36C87.1398 130.2 88.0598 129.72 88.7698 128.91C89.4798 128.1 89.8898 127.1 89.9898 125.9H86.1998V124.3H95.3898V125.9H91.7798C91.7698 126.44 91.6798 126.98 91.5198 127.52L95.8398 130.3L94.9698 131.7L90.8298 128.94C90.3198 129.81 89.6498 130.51 88.8198 131.05H88.8298ZM97.4098 133.56C98.5398 134.07 99.1098 134.87 99.1098 135.95C99.1098 137.03 98.5398 137.84 97.4098 138.36C96.2798 138.87 94.7798 139.13 92.9098 139.13C91.0398 139.13 89.5398 138.87 88.4098 138.36C87.2798 137.85 86.7098 137.05 86.7098 135.95C86.7098 134.85 87.2798 134.08 88.4098 133.56C89.5398 133.05 91.0398 132.79 92.9098 132.79C94.7798 132.79 96.2798 133.05 97.4098 133.56ZM96.0098 137.17C96.8098 136.89 97.2098 136.49 97.2098 135.95C97.2098 135.41 96.8098 135.01 96.0198 134.74C95.2198 134.47 94.1898 134.34 92.9098 134.34C91.6298 134.34 90.5998 134.48 89.7998 134.74C88.9998 135.01 88.6098 135.41 88.6098 135.95C88.6098 136.49 89.0098 136.9 89.7998 137.17C90.5998 137.45 91.6298 137.58 92.9098 137.58C94.1898 137.58 95.1998 137.44 96.0098 137.17ZM100.9 128.57H98.9098V132.32H97.1298V123.96H98.9098V126.8H100.9V128.58V128.57Z" fill="white"/>
<path d="M107.49 125.99C108.06 127.13 108.34 128.91 108.34 131.35C108.34 133.79 108.06 135.57 107.49 136.71C106.92 137.85 106.08 138.42 104.97 138.42C103.86 138.42 103.03 137.85 102.46 136.7C101.89 135.55 101.61 133.77 101.61 131.35C101.61 128.93 101.89 127.15 102.46 126C103.03 124.85 103.86 124.28 104.97 124.28C106.08 124.28 106.93 124.85 107.49 125.99ZM106.25 135.4C106.53 134.53 106.66 133.17 106.66 131.35C106.66 129.53 106.52 128.17 106.25 127.3C105.97 126.43 105.55 125.99 104.97 125.99C104.39 125.99 103.98 126.43 103.71 127.3C103.43 128.17 103.3 129.53 103.3 131.35C103.3 133.17 103.44 134.53 103.71 135.4C103.99 136.27 104.41 136.71 104.97 136.71C105.53 136.71 105.98 136.27 106.25 135.4ZM115.34 139.1H113.64V131.76H111.39V138.84H109.73V124.03H111.39V130.01H113.64V123.95H115.34V139.1Z" fill="white"/>
<path d="M124.17 124.65C124.86 125.02 125.39 125.55 125.77 126.22C126.14 126.89 126.33 127.65 126.33 128.51C126.33 129.37 126.14 130.13 125.77 130.8C125.39 131.47 124.86 131.99 124.17 132.37C123.48 132.75 122.67 132.93 121.75 132.93C120.83 132.93 120.02 132.74 119.33 132.37C118.64 132 118.11 131.47 117.73 130.8C117.36 130.13 117.17 129.37 117.17 128.51C117.17 127.65 117.36 126.89 117.73 126.22C118.11 125.55 118.64 125.03 119.33 124.65C120.02 124.27 120.83 124.09 121.75 124.09C122.67 124.09 123.48 124.28 124.17 124.65ZM130.92 137.23V138.93H118.43V133.94H120.24V137.23H130.91H130.92ZM119.73 126.44C119.22 126.95 118.97 127.64 118.97 128.51C118.97 129.38 119.22 130.07 119.73 130.58C120.24 131.09 120.91 131.35 121.75 131.35C122.59 131.35 123.27 131.09 123.78 130.58C124.29 130.07 124.55 129.38 124.55 128.51C124.55 127.64 124.29 126.95 123.78 126.44C123.27 125.93 122.59 125.67 121.75 125.67C120.91 125.67 120.23 125.93 119.73 126.44ZM128.77 135.2V123.96H130.57V135.2H128.77Z" fill="white"/>
<path d="M143.7 124.65C144.39 125.02 144.92 125.55 145.3 126.22C145.67 126.89 145.86 127.65 145.86 128.51C145.86 129.37 145.67 130.13 145.3 130.8C144.92 131.47 144.39 131.99 143.7 132.37C143.01 132.75 142.2 132.93 141.28 132.93C140.36 132.93 139.55 132.74 138.86 132.37C138.17 132 137.64 131.47 137.26 130.8C136.89 130.13 136.7 129.37 136.7 128.51C136.7 127.65 136.89 126.89 137.26 126.22C137.64 125.55 138.17 125.03 138.86 124.65C139.55 124.27 140.36 124.09 141.28 124.09C142.2 124.09 143.01 124.28 143.7 124.65ZM150.45 137.23V138.93H137.96V133.94H139.77V137.23H150.44H150.45ZM139.26 126.44C138.75 126.95 138.5 127.64 138.5 128.51C138.5 129.38 138.75 130.07 139.26 130.58C139.77 131.09 140.44 131.35 141.28 131.35C142.12 131.35 142.8 131.09 143.31 130.58C143.82 130.07 144.08 129.38 144.08 128.51C144.08 127.64 143.82 126.95 143.31 126.44C142.8 125.93 142.12 125.67 141.28 125.67C140.44 125.67 139.76 125.93 139.26 126.44ZM148.3 135.2V123.96H150.1V135.2H148.3Z" fill="white"/>
<path d="M155.191 131.48C154.361 132.08 153.441 132.44 152.431 132.57V130.83C153.311 130.67 154.081 130.27 154.751 129.63C155.411 128.99 155.931 128.18 156.291 127.21C156.651 126.24 156.841 125.2 156.851 124.06L158.651 124.18C158.651 125.43 158.441 126.61 158.021 127.71L162.561 130.98L161.551 132.34L157.271 129.18C156.721 130.1 156.031 130.86 155.201 131.46L155.191 131.48ZM165.721 133.8V139.13H163.911V135.42H153.321V133.8H165.731H165.721ZM165.721 132.99H163.921V123.96H165.721V132.99Z" fill="white"/>
<path d="M178.09 124.48V128.58C178.09 130.51 177.83 132.2 177.32 133.65C176.81 135.1 176.1 136.21 175.19 136.99C174.28 137.77 173.24 138.16 172.07 138.16V136.4C172.94 136.37 173.7 136.04 174.35 135.4C175 134.76 175.5 133.86 175.85 132.71C176.2 131.55 176.37 130.2 176.37 128.67V126.17H172.07V124.47H178.09V124.48ZM185.64 139.1H183.92V131.76H181.57V138.84H179.87V124.03H181.57V130.01H183.92V123.95H185.64V139.1Z" fill="white"/>
<path d="M190.11 131.96C189.3 132.58 188.4 132.96 187.4 133.1V131.34C188.25 131.18 189 130.76 189.65 130.07C190.29 129.38 190.79 128.51 191.13 127.46C191.47 126.41 191.65 125.28 191.66 124.07L193.45 124.19C193.45 125.57 193.25 126.83 192.84 127.96L197.28 131.71L196.16 133.01L192.16 129.56C191.61 130.55 190.93 131.35 190.12 131.97L190.11 131.96ZM201.26 138.92H188.64V134.05H190.45V137.23H201.26V138.93V138.92ZM195.8 128.45V126.75H199.19V123.95H200.97V135.21H199.19V128.44H195.8V128.45Z" fill="white"/>
<g filter="url(#filter5_d_25_3149)">
<path d="M470.63 104.84H274.77C266.176 104.84 259.21 111.806 259.21 120.4V141.36C259.21 149.954 266.176 156.92 274.77 156.92H470.63C479.224 156.92 486.19 149.954 486.19 141.36V120.4C486.19 111.806 479.224 104.84 470.63 104.84Z" fill="white"/>
</g>
<path d="M335.27 131.05C334.44 131.59 333.5 131.91 332.45 132.02V130.36C333.58 130.2 334.5 129.72 335.21 128.91C335.92 128.1 336.33 127.1 336.43 125.9H332.64V124.3H341.83V125.9H338.22C338.21 126.44 338.12 126.98 337.96 127.52L342.28 130.3L341.41 131.7L337.27 128.94C336.76 129.81 336.09 130.51 335.26 131.05H335.27ZM343.85 133.56C344.98 134.07 345.55 134.87 345.55 135.95C345.55 137.03 344.98 137.84 343.85 138.36C342.72 138.87 341.22 139.13 339.35 139.13C337.48 139.13 335.98 138.87 334.85 138.36C333.72 137.85 333.15 137.05 333.15 135.95C333.15 134.85 333.71 134.08 334.85 133.56C335.98 133.05 337.48 132.79 339.35 132.79C341.22 132.79 342.72 133.05 343.85 133.56ZM342.45 137.17C343.25 136.89 343.65 136.49 343.65 135.95C343.65 135.41 343.25 135.01 342.46 134.74C341.66 134.47 340.63 134.34 339.35 134.34C338.07 134.34 337.04 134.48 336.24 134.74C335.44 135.01 335.05 135.41 335.05 135.95C335.05 136.49 335.45 136.9 336.24 137.17C337.04 137.45 338.07 137.58 339.35 137.58C340.63 137.58 341.64 137.44 342.45 137.17ZM347.34 128.57H345.35V132.32H343.57V123.96H345.35V126.8H347.34V128.58V128.57Z" fill="#138981"/>
<path d="M353.93 125.99C354.49 127.13 354.78 128.91 354.78 131.35C354.78 133.79 354.5 135.57 353.93 136.71C353.36 137.85 352.52 138.42 351.41 138.42C350.3 138.42 349.47 137.85 348.9 136.7C348.33 135.55 348.05 133.77 348.05 131.35C348.05 128.93 348.33 127.15 348.9 126C349.47 124.85 350.3 124.28 351.41 124.28C352.52 124.28 353.37 124.85 353.93 125.99ZM352.69 135.4C352.97 134.53 353.1 133.17 353.1 131.35C353.1 129.53 352.96 128.17 352.69 127.3C352.41 126.43 351.99 125.99 351.41 125.99C350.83 125.99 350.42 126.43 350.15 127.3C349.87 128.17 349.74 129.53 349.74 131.35C349.74 133.17 349.88 134.53 350.15 135.4C350.43 136.27 350.85 136.71 351.41 136.71C351.97 136.71 352.42 136.27 352.69 135.4ZM361.78 139.1H360.08V131.76H357.83V138.84H356.17V124.03H357.83V130.01H360.08V123.95H361.78V139.1Z" fill="#138981"/>
<path d="M370.61 124.65C371.3 125.02 371.83 125.55 372.21 126.22C372.59 126.89 372.77 127.65 372.77 128.51C372.77 129.37 372.58 130.13 372.21 130.8C371.84 131.47 371.3 131.99 370.61 132.37C369.92 132.75 369.11 132.93 368.19 132.93C367.27 132.93 366.46 132.74 365.77 132.37C365.08 132 364.55 131.47 364.17 130.8C363.8 130.13 363.61 129.37 363.61 128.51C363.61 127.65 363.8 126.89 364.17 126.22C364.55 125.55 365.08 125.03 365.77 124.65C366.46 124.27 367.27 124.09 368.19 124.09C369.11 124.09 369.92 124.28 370.61 124.65ZM377.37 137.23V138.93H364.88V133.94H366.69V137.23H377.36H377.37ZM366.17 126.44C365.66 126.95 365.41 127.64 365.41 128.51C365.41 129.38 365.66 130.07 366.17 130.58C366.68 131.09 367.35 131.35 368.19 131.35C369.03 131.35 369.71 131.09 370.22 130.58C370.73 130.07 370.99 129.38 370.99 128.51C370.99 127.64 370.73 126.95 370.22 126.44C369.71 125.93 369.03 125.67 368.19 125.67C367.35 125.67 366.67 125.93 366.17 126.44ZM375.22 135.2V123.96H377.01V135.2H375.22Z" fill="#138981"/>
<path d="M390.141 124.65C390.831 125.02 391.361 125.55 391.741 126.22C392.121 126.89 392.301 127.65 392.301 128.51C392.301 129.37 392.111 130.13 391.741 130.8C391.371 131.47 390.831 131.99 390.141 132.37C389.451 132.75 388.641 132.93 387.721 132.93C386.801 132.93 385.991 132.74 385.301 132.37C384.611 132 384.081 131.47 383.701 130.8C383.331 130.13 383.141 129.37 383.141 128.51C383.141 127.65 383.331 126.89 383.701 126.22C384.081 125.55 384.611 125.03 385.301 124.65C385.991 124.27 386.801 124.09 387.721 124.09C388.641 124.09 389.451 124.28 390.141 124.65ZM396.891 137.23V138.93H384.401V133.94H386.211V137.23H396.881H396.891ZM385.701 126.44C385.191 126.95 384.941 127.64 384.941 128.51C384.941 129.38 385.191 130.07 385.701 130.58C386.211 131.09 386.881 131.35 387.721 131.35C388.561 131.35 389.241 131.09 389.751 130.58C390.261 130.07 390.521 129.38 390.521 128.51C390.521 127.64 390.261 126.95 389.751 126.44C389.241 125.93 388.561 125.67 387.721 125.67C386.881 125.67 386.201 125.93 385.701 126.44ZM394.751 135.2V123.96H396.541V135.2H394.751Z" fill="#138981"/>
<path d="M398.65 131.53V129.95H404.69C406.9 129.95 408.44 129.76 409.31 129.38V130.94C408.88 131.14 408.24 131.29 407.4 131.38C406.56 131.48 405.61 131.53 404.56 131.53H404.34V134.71H402.56V131.53H398.65ZM399.7 125.79V124.23H407.81V129.04H406.03V125.79H399.7ZM412.52 138.92H399.88V133.83H401.66V137.3H412.53V138.92H412.52ZM410.49 123.95H412.27V135.77H410.49V134.55H406.19V133.03H410.49V123.96V123.95Z" fill="#138981"/>
<g filter="url(#filter6_d_25_3149)">
<path d="M726.84 104.84H530.98C522.386 104.84 515.42 111.806 515.42 120.4V141.36C515.42 149.954 522.386 156.92 530.98 156.92H726.84C735.433 156.92 742.4 149.954 742.4 141.36V120.4C742.4 111.806 735.433 104.84 726.84 104.84Z" fill="#138981"/>
</g>
<path d="M548.52 131.05C547.69 131.59 546.75 131.91 545.7 132.02V130.36C546.83 130.2 547.75 129.72 548.46 128.91C549.17 128.1 549.58 127.1 549.68 125.9H545.89V124.3H555.08V125.9H551.47C551.46 126.44 551.37 126.98 551.21 127.52L555.53 130.3L554.66 131.7L550.52 128.94C550.01 129.81 549.34 130.51 548.51 131.05H548.52ZM557.1 133.56C558.23 134.07 558.8 134.87 558.8 135.95C558.8 137.03 558.23 137.84 557.1 138.36C555.97 138.87 554.47 139.13 552.6 139.13C550.73 139.13 549.23 138.87 548.1 138.36C546.97 137.85 546.4 137.05 546.4 135.95C546.4 134.85 546.96 134.08 548.1 133.56C549.23 133.05 550.73 132.79 552.6 132.79C554.47 132.79 555.97 133.05 557.1 133.56ZM555.7 137.17C556.5 136.89 556.9 136.49 556.9 135.95C556.9 135.41 556.5 135.01 555.71 134.74C554.91 134.47 553.88 134.34 552.6 134.34C551.32 134.34 550.29 134.48 549.49 134.74C548.69 135.01 548.3 135.41 548.3 135.95C548.3 136.49 548.7 136.9 549.49 137.17C550.29 137.45 551.32 137.58 552.6 137.58C553.88 137.58 554.89 137.44 555.7 137.17ZM560.59 128.57H558.6V132.32H556.82V123.96H558.6V126.8H560.59V128.58V128.57Z" fill="white"/>
<path d="M567.18 125.99C567.74 127.13 568.03 128.91 568.03 131.35C568.03 133.79 567.75 135.57 567.18 136.71C566.61 137.85 565.77 138.42 564.66 138.42C563.55 138.42 562.72 137.85 562.15 136.7C561.58 135.55 561.3 133.77 561.3 131.35C561.3 128.93 561.58 127.15 562.15 126C562.72 124.85 563.55 124.28 564.66 124.28C565.77 124.28 566.62 124.85 567.18 125.99ZM565.94 135.4C566.22 134.53 566.35 133.17 566.35 131.35C566.35 129.53 566.21 128.17 565.94 127.3C565.66 126.43 565.24 125.99 564.66 125.99C564.08 125.99 563.67 126.43 563.4 127.3C563.12 128.17 562.99 129.53 562.99 131.35C562.99 133.17 563.13 134.53 563.4 135.4C563.68 136.27 564.1 136.71 564.66 136.71C565.22 136.71 565.67 136.27 565.94 135.4ZM575.03 139.1H573.33V131.76H571.08V138.84H569.42V124.03H571.08V130.01H573.33V123.95H575.03V139.1Z" fill="white"/>
<path d="M583.86 124.65C584.55 125.02 585.08 125.55 585.46 126.22C585.84 126.89 586.02 127.65 586.02 128.51C586.02 129.37 585.83 130.13 585.46 130.8C585.09 131.47 584.55 131.99 583.86 132.37C583.17 132.75 582.36 132.93 581.44 132.93C580.52 132.93 579.71 132.74 579.02 132.37C578.33 132 577.8 131.47 577.42 130.8C577.05 130.13 576.86 129.37 576.86 128.51C576.86 127.65 577.05 126.89 577.42 126.22C577.8 125.55 578.33 125.03 579.02 124.65C579.71 124.27 580.52 124.09 581.44 124.09C582.36 124.09 583.17 124.28 583.86 124.65ZM590.61 137.23V138.93H578.12V133.94H579.93V137.23H590.6H590.61ZM579.42 126.44C578.91 126.95 578.66 127.64 578.66 128.51C578.66 129.38 578.91 130.07 579.42 130.58C579.93 131.09 580.6 131.35 581.44 131.35C582.28 131.35 582.96 131.09 583.47 130.58C583.98 130.07 584.24 129.38 584.24 128.51C584.24 127.64 583.98 126.95 583.47 126.44C582.96 125.93 582.28 125.67 581.44 125.67C580.6 125.67 579.92 125.93 579.42 126.44ZM588.46 135.2V123.96H590.25V135.2H588.46Z" fill="white"/>
<path d="M596.231 126.77V125.29H600.191V123.67H602.001V125.29H606.001V126.77H596.221H596.231ZM598.061 132.64C597.251 132.11 596.851 131.39 596.851 130.48C596.851 129.89 597.041 129.37 597.411 128.92C597.791 128.47 598.301 128.13 598.951 127.89C599.601 127.65 600.331 127.54 601.131 127.54C601.931 127.54 602.641 127.66 603.291 127.89C603.941 128.12 604.461 128.47 604.841 128.92C605.221 129.37 605.411 129.89 605.411 130.48C605.411 131.07 605.221 131.61 604.851 132.06C604.481 132.51 603.961 132.85 603.311 133.09C602.661 133.33 601.931 133.44 601.131 133.44C599.891 133.44 598.871 133.17 598.061 132.64ZM609.371 134.41V139.12H607.561V135.98H597.121V134.4H609.371V134.41ZM599.251 129.39C598.781 129.67 598.541 130.04 598.541 130.48C598.541 130.92 598.781 131.3 599.251 131.59C599.721 131.89 600.351 132.03 601.121 132.03C601.891 132.03 602.501 131.88 602.971 131.59C603.441 131.29 603.681 130.92 603.681 130.48C603.681 130.04 603.451 129.67 602.981 129.39C602.511 129.11 601.891 128.97 601.121 128.97C600.351 128.97 599.721 129.11 599.251 129.39ZM609.371 129.55V133.61H607.591V123.94H609.371V127.73H611.361V129.54H609.371V129.55Z" fill="white"/>
<path d="M617.63 136.41C618.23 136.31 618.74 136.17 619.18 135.99V137.63C618.75 137.81 618.21 137.96 617.57 138.06C616.93 138.17 616.28 138.22 615.63 138.22H612.34V124.49H618.57V126.15H614.05V136.57H615.83C616.43 136.57 617.04 136.52 617.63 136.42V136.41ZM625.8 139.1H624.1V131.76H621.85V138.84H620.19V124.03H621.85V130.01H624.1V123.95H625.8V139.1Z" fill="white"/>
<path d="M634.401 131.79C633.571 132.41 632.651 132.79 631.641 132.92V131.16C632.521 131 633.291 130.58 633.961 129.91C634.621 129.23 635.131 128.38 635.491 127.37C635.851 126.35 636.031 125.25 636.041 124.07L637.831 124.19C637.831 125.48 637.631 126.7 637.221 127.86L641.801 131.41L640.731 132.77L636.491 129.38C635.921 130.37 635.231 131.17 634.401 131.8V131.79ZM645.291 138.92H632.651V134.05H634.441V137.23H645.291V138.93V138.92ZM643.141 135.2V123.96H644.931V135.2H643.141Z" fill="white"/>
<path d="M661.45 138.39H647.05V136.63H652.36V129.94H654.19V136.63H661.45V138.39ZM647.91 126.2V124.46H660.49V134.46H658.66V126.19H647.91V126.2Z" fill="white"/>
<path d="M675.19 138.03C674.36 138.15 673.44 138.22 672.43 138.22H666.57V136.46H672.53C673.52 136.46 674.42 136.4 675.23 136.28C676.05 136.16 676.69 135.99 677.16 135.77V137.51C676.67 137.73 676.02 137.91 675.19 138.03ZM673.82 124.85C674.5 125.25 675.03 125.82 675.41 126.55C675.79 127.28 675.98 128.11 675.98 129.03C675.98 129.95 675.79 130.8 675.41 131.53C675.03 132.26 674.5 132.83 673.82 133.23C673.14 133.63 672.38 133.83 671.52 133.83C670.66 133.83 669.9 133.63 669.21 133.23C668.53 132.83 667.99 132.26 667.61 131.53C667.23 130.8 667.04 129.97 667.04 129.03C667.04 128.09 667.23 127.28 667.61 126.55C667.99 125.82 668.52 125.25 669.21 124.85C669.89 124.45 670.66 124.25 671.52 124.25C672.38 124.25 673.14 124.45 673.82 124.85ZM669.54 126.8C669.03 127.39 668.78 128.13 668.78 129.02C668.78 129.91 669.03 130.65 669.54 131.24C670.05 131.83 670.71 132.12 671.52 132.12C672.33 132.12 673 131.83 673.5 131.24C674 130.65 674.26 129.92 674.26 129.02C674.26 128.12 674.01 127.39 673.5 126.8C672.99 126.22 672.33 125.92 671.52 125.92C670.71 125.92 670.04 126.21 669.54 126.8ZM678.35 139.1V123.95H680.11V139.1H678.35Z" fill="white"/>
<path d="M690.31 135.31V139.45H688.5V135.31H682.21V133.53H696.61V135.31H690.32H690.31ZM683.18 131.76V124.36H695.61V131.76H683.18ZM684.96 126.08V130.04H693.84V126.08H684.96Z" fill="white"/>
<path d="M703.38 130.94L707.96 137L706.56 138.1L702.81 133.05C702.3 134.6 701.63 135.82 700.82 136.7C700 137.58 699.06 138.09 698 138.22V136.35C698.82 136.19 699.52 135.67 700.11 134.77C700.7 133.88 701.16 132.69 701.49 131.22C701.82 129.75 702 128.08 702.02 126.21H698.33V124.49H707.38V126.21H703.81C703.77 128.01 703.63 129.59 703.38 130.94ZM710.92 131.82V139.1H709.14V123.95H710.92V130.03H712.91V131.83H710.92V131.82Z" fill="white"/>
<g filter="url(#filter7_d_25_3149)">
<path d="M983.05 104.84H787.19C778.596 104.84 771.63 111.806 771.63 120.4V141.36C771.63 149.954 778.596 156.92 787.19 156.92H983.05C991.643 156.92 998.61 149.954 998.61 141.36V120.4C998.61 111.806 991.643 104.84 983.05 104.84Z" fill="white"/>
</g>
<path d="M806.339 131.82H791.939V130.28H797.289V127.38H799.089V130.28H806.349V131.82H806.339ZM803.729 133.9C804.909 134.38 805.499 135.13 805.499 136.14C805.499 137.15 804.91 137.9 803.74 138.39C802.57 138.88 801.039 139.12 799.139 139.12C797.239 139.12 795.729 138.88 794.549 138.39C793.369 137.9 792.779 137.15 792.779 136.14C792.779 135.13 793.369 134.36 794.539 133.89C795.709 133.42 797.239 133.18 799.139 133.18C801.039 133.18 802.549 133.42 803.729 133.9ZM792.889 125.67V124.11H805.319V129.24H803.519V125.67H792.889ZM802.329 137.26C803.189 137 803.62 136.63 803.62 136.15C803.62 135.67 803.189 135.31 802.319 135.06C801.449 134.8 800.389 134.68 799.139 134.68C797.889 134.68 796.799 134.8 795.939 135.04C795.089 135.28 794.659 135.66 794.659 136.15C794.659 136.64 795.089 137.01 795.949 137.26C796.809 137.51 797.869 137.64 799.139 137.64C800.409 137.64 801.459 137.51 802.329 137.26Z" fill="#138981"/>
<path d="M810.71 131.59C809.89 132.13 808.96 132.46 807.92 132.58V130.86C809.1 130.69 810.05 130.16 810.77 129.28C811.49 128.4 811.89 127.28 811.98 125.93H808.09V124.31H817.42V125.93H813.77C813.76 126.55 813.65 127.23 813.43 127.96L817.87 131.06L816.92 132.46L812.7 129.46C812.19 130.34 811.52 131.05 810.7 131.59H810.71ZM821.08 133.8V139.13H819.27V135.42H808.68V133.8H821.09H821.08ZM821.08 132.99H819.29V123.96H821.08V132.99Z" fill="#138981"/>
<path d="M828.749 130.94L833.329 137L831.929 138.1L828.179 133.05C827.669 134.6 826.999 135.82 826.189 136.7C825.369 137.58 824.429 138.09 823.369 138.22V136.35C824.189 136.19 824.889 135.67 825.479 134.77C826.069 133.88 826.529 132.69 826.859 131.22C827.189 129.75 827.369 128.08 827.389 126.21H823.699V124.49H832.749V126.21H829.179C829.139 128.01 828.999 129.59 828.749 130.94ZM836.289 131.82V139.1H834.509V123.95H836.289V130.03H838.279V131.83H836.289V131.82Z" fill="#138981"/>
<path d="M848.449 136.41C849.049 136.31 849.559 136.17 849.999 135.99V137.63C849.569 137.81 849.029 137.96 848.389 138.06C847.749 138.17 847.099 138.22 846.449 138.22H843.159V124.49H849.389V126.15H844.869V136.57H846.649C847.249 136.57 847.859 136.52 848.449 136.42V136.41ZM856.619 139.1H854.919V131.76H852.669V138.84H851.009V124.03H852.669V130.01H854.919V123.95H856.619V139.1Z" fill="#138981"/>
<path d="M861.2 130.96C860.37 131.53 859.43 131.89 858.38 132.04V130.34C859.26 130.18 860.02 129.81 860.67 129.23C861.31 128.65 861.81 127.91 862.15 127.01C862.49 126.12 862.67 125.14 862.68 124.07L864.47 124.19C864.47 125.27 864.3 126.3 863.96 127.29L868.38 130.31L867.47 131.67L863.25 128.75C862.71 129.66 862.03 130.4 861.2 130.97V130.96ZM869.94 133.56C871.07 134.07 871.64 134.87 871.64 135.95C871.64 137.03 871.07 137.84 869.94 138.36C868.81 138.87 867.31 139.13 865.44 139.13C863.57 139.13 862.07 138.87 860.94 138.36C859.81 137.85 859.24 137.05 859.24 135.95C859.24 134.85 859.8 134.08 860.94 133.56C862.07 133.05 863.57 132.79 865.44 132.79C867.31 132.79 868.81 133.05 869.94 133.56ZM868.54 137.17C869.34 136.89 869.74 136.49 869.74 135.95C869.74 135.41 869.34 135.01 868.55 134.74C867.75 134.47 866.72 134.34 865.44 134.34C864.16 134.34 863.13 134.48 862.33 134.74C861.53 135.01 861.14 135.41 861.14 135.95C861.14 136.49 861.54 136.9 862.33 137.17C863.13 137.45 864.16 137.58 865.44 137.58C866.72 137.58 867.73 137.44 868.54 137.17ZM873.43 128.57H871.44V132.32H869.66V123.96H871.44V126.8H873.43V128.58V128.57Z" fill="#138981"/>
<path d="M879.989 131.99C879.309 131.63 878.789 131.13 878.419 130.48C878.049 129.84 877.869 129.11 877.869 128.31C877.869 127.51 878.049 126.78 878.419 126.14C878.789 125.5 879.309 124.99 879.989 124.63C880.669 124.27 881.449 124.09 882.349 124.09C883.249 124.09 884.029 124.27 884.709 124.63C885.389 124.99 885.909 125.49 886.279 126.14C886.649 126.79 886.829 127.51 886.829 128.31C886.829 129.11 886.649 129.84 886.279 130.48C885.909 131.12 885.389 131.63 884.709 131.99C884.029 132.35 883.249 132.53 882.349 132.53C881.449 132.53 880.669 132.35 879.989 131.99ZM890.969 133.8V139.13H889.159V135.42H878.899V133.8H890.969ZM880.389 126.37C879.889 126.85 879.639 127.5 879.639 128.31C879.639 129.12 879.889 129.77 880.389 130.25C880.889 130.73 881.539 130.97 882.339 130.97C883.139 130.97 883.789 130.73 884.289 130.25C884.789 129.77 885.039 129.12 885.039 128.31C885.039 127.5 884.789 126.85 884.289 126.37C883.789 125.89 883.139 125.65 882.339 125.65C881.539 125.65 880.889 125.89 880.389 126.37ZM890.969 129.02V132.98H889.189V123.95H890.969V127.24H892.959V129.02H890.969Z" fill="#138981"/>
<path d="M896.289 131.11C895.469 131.68 894.549 132.03 893.529 132.18V130.48C894.399 130.31 895.149 129.92 895.789 129.32C896.429 128.72 896.919 127.96 897.259 127.05C897.599 126.14 897.779 125.15 897.789 124.07L899.579 124.19C899.579 125.37 899.399 126.46 899.049 127.44L903.389 130.56L902.379 131.86L898.319 128.92C897.779 129.81 897.099 130.54 896.289 131.11ZM905.499 133.68C906.639 134.18 907.219 134.96 907.219 136.03C907.219 137.1 906.649 137.88 905.499 138.38C904.349 138.88 902.839 139.13 900.939 139.13C899.039 139.13 897.549 138.88 896.409 138.38C895.269 137.88 894.699 137.1 894.699 136.03C894.699 134.96 895.269 134.18 896.409 133.68C897.549 133.18 899.059 132.93 900.939 132.93C902.819 132.93 904.349 133.18 905.499 133.68ZM904.099 137.2C904.909 136.93 905.319 136.54 905.319 136.03C905.319 135.52 904.909 135.13 904.099 134.86C903.279 134.59 902.229 134.46 900.939 134.46C899.649 134.46 898.609 134.59 897.799 134.86C896.999 135.13 896.599 135.52 896.599 136.03C896.599 136.54 896.999 136.93 897.799 137.2C898.599 137.47 899.649 137.6 900.939 137.6C902.229 137.6 903.279 137.47 904.099 137.2ZM901.929 128V126.32H905.319V123.95H907.099V132.45H905.319V127.99H901.929V128Z" fill="#138981"/>
<path d="M913.67 132.51V124.3H922.27V132.51H913.67ZM926.88 137.23V138.93H914.24V133.98H916.03V137.23H926.88ZM920.51 125.91H915.44V130.9H920.51V125.91ZM924.73 135.2V123.96H926.52V135.2H924.73Z" fill="#138981"/>
<path d="M928.64 132.41V130.91H934.68C936.88 130.91 938.41 130.71 939.3 130.3V131.82C938.45 132.21 936.8 132.41 934.37 132.41V135.11H932.59V132.41H928.64ZM930.67 129.11C929.88 128.59 929.49 127.86 929.49 126.91C929.49 125.96 929.88 125.25 930.67 124.73C931.46 124.21 932.5 123.95 933.79 123.95C935.08 123.95 936.11 124.21 936.89 124.73C937.67 125.25 938.05 125.98 938.05 126.91C938.05 127.84 937.66 128.59 936.89 129.11C936.11 129.63 935.08 129.89 933.79 129.89C932.5 129.89 931.46 129.63 930.67 129.11ZM942.61 138.92H929.95V134.28H931.74V137.32H942.61V138.92ZM931.93 125.79C931.46 126.05 931.23 126.43 931.23 126.91C931.23 127.39 931.46 127.79 931.93 128.05C932.4 128.31 933.02 128.44 933.79 128.44C934.56 128.44 935.16 128.31 935.62 128.05C936.08 127.79 936.31 127.41 936.31 126.91C936.31 126.41 936.08 126.05 935.62 125.79C935.16 125.53 934.55 125.4 933.79 125.4C933.03 125.4 932.39 125.53 931.93 125.79ZM940.48 123.95H942.26V135.79H940.48V134.84H936.16V133.46H940.48V123.95Z" fill="#138981"/>
<path d="M948.17 132.36V130.86H962.57V132.36H948.17ZM959.94 124.56C961.11 125.05 961.7 125.78 961.7 126.77C961.7 127.76 961.11 128.49 959.94 128.98C958.77 129.47 957.24 129.71 955.36 129.71C953.48 129.71 951.95 129.47 950.77 128.98C949.59 128.49 949 127.76 949 126.77C949 125.78 949.59 125.05 950.77 124.56C951.95 124.07 953.48 123.83 955.36 123.83C957.24 123.83 958.77 124.07 959.94 124.56ZM959.99 134.26C961.14 134.69 961.72 135.39 961.72 136.36C961.72 137.33 961.14 138.06 959.98 138.49C958.82 138.92 957.28 139.14 955.36 139.14C953.44 139.14 951.92 138.92 950.75 138.49C949.59 138.06 949 137.35 949 136.36C949 135.37 949.58 134.69 950.74 134.26C951.9 133.83 953.44 133.62 955.36 133.62C957.28 133.62 958.83 133.83 959.99 134.26ZM952.15 135.37C951.31 135.57 950.89 135.9 950.89 136.36C950.89 136.82 951.31 137.16 952.15 137.37C952.99 137.58 954.06 137.69 955.37 137.69C956.68 137.69 957.74 137.59 958.58 137.37C959.41 137.16 959.83 136.82 959.83 136.36C959.83 135.9 959.41 135.57 958.58 135.37C957.74 135.17 956.68 135.07 955.37 135.07C954.06 135.07 953 135.17 952.15 135.37ZM952.16 125.67C951.32 125.92 950.91 126.29 950.91 126.77C950.91 127.25 951.32 127.62 952.15 127.87C952.98 128.12 954.05 128.23 955.37 128.23C956.69 128.23 957.76 128.11 958.59 127.87C959.42 127.63 959.83 127.26 959.83 126.77C959.83 126.28 959.41 125.92 958.58 125.67C957.74 125.42 956.68 125.3 955.37 125.3C954.06 125.3 953 125.42 952.16 125.67Z" fill="#138981"/>
<path d="M969.519 136.41C970.119 136.31 970.629 136.17 971.069 135.99V137.63C970.639 137.81 970.099 137.96 969.459 138.06C968.819 138.17 968.169 138.22 967.519 138.22H964.229V124.49H970.459V126.15H965.939V136.57H967.719C968.319 136.57 968.929 136.52 969.519 136.42V136.41ZM977.699 139.1H975.999V131.76H973.749V138.84H972.089V124.03H973.749V130.01H975.999V123.95H977.699V139.1Z" fill="#138981"/>
<g filter="url(#filter8_d_25_3149)">
<path d="M214.42 207.68H18.56C9.96645 207.68 3 214.647 3 223.24V244.2C3 252.794 9.96645 259.76 18.56 259.76H214.42C223.014 259.76 229.98 252.794 229.98 244.2V223.24C229.98 214.647 223.014 207.68 214.42 207.68Z" fill="white"/>
</g>
<path d="M50.7498 228.9C51.5198 230.08 51.8998 231.85 51.8998 234.19C51.8998 236.53 51.5198 238.29 50.7498 239.48C49.9798 240.66 48.9298 241.26 47.5998 241.26C46.2698 241.26 45.2398 240.67 44.4598 239.48C43.6798 238.3 43.2998 236.53 43.2998 234.19C43.2998 231.85 43.6898 230.09 44.4598 228.9C45.2398 227.72 46.2798 227.12 47.5998 227.12C48.9198 227.12 49.9798 227.71 50.7498 228.9ZM49.4398 238.22C49.8998 237.35 50.1298 236 50.1298 234.19C50.1298 232.38 49.8998 231.03 49.4398 230.16C48.9798 229.29 48.3698 228.85 47.6098 228.85C46.8498 228.85 46.2198 229.29 45.7598 230.16C45.2998 231.04 45.0698 232.38 45.0698 234.19C45.0698 236 45.2998 237.35 45.7598 238.22C46.2198 239.1 46.8398 239.53 47.6098 239.53C48.3798 239.53 48.9798 239.09 49.4398 238.22ZM55.9498 234.66V241.94H54.1698V226.79H55.9498V232.87H57.9398V234.67H55.9498V234.66Z" fill="#138981"/>
<path d="M72.8697 235.22H58.4697V233.72H64.7797V232.22H59.4897V226.95H71.8597V228.45H61.2697V230.72H72.0197V232.22H66.5597V233.72H72.8697V235.22ZM70.2997 237.07C71.4597 237.5 72.0497 238.21 72.0497 239.2C72.0497 240.19 71.4697 240.9 70.2997 241.34C69.1297 241.78 67.5897 242 65.6697 242C63.7497 242 62.2097 241.78 61.0397 241.34C59.8797 240.9 59.2897 240.19 59.2897 239.2C59.2897 238.21 59.8697 237.5 61.0397 237.07C62.1997 236.64 63.7497 236.42 65.6697 236.42C67.5897 236.42 69.1297 236.64 70.2997 237.07ZM68.8997 240.23C69.7497 240.02 70.1697 239.68 70.1697 239.2C70.1697 238.72 69.7397 238.4 68.8897 238.19C68.0297 237.98 66.9597 237.87 65.6697 237.87C64.3797 237.87 63.3097 237.98 62.4497 238.19C61.5997 238.4 61.1697 238.74 61.1697 239.2C61.1697 239.66 61.5897 240.02 62.4397 240.23C63.2897 240.44 64.3597 240.55 65.6697 240.55C66.9797 240.55 68.0497 240.45 68.8997 240.23Z" fill="#138981"/>
<path d="M74.0598 229.61V228.13H78.0198V226.51H79.8298V228.13H83.8298V229.61H74.0498H74.0598ZM75.8798 235.48C75.0698 234.95 74.6698 234.23 74.6698 233.32C74.6698 232.73 74.8598 232.21 75.2298 231.76C75.5998 231.31 76.1198 230.97 76.7698 230.73C77.4198 230.49 78.1498 230.38 78.9498 230.38C79.7498 230.38 80.4598 230.5 81.1098 230.73C81.7598 230.96 82.2798 231.31 82.6598 231.76C83.0398 232.21 83.2298 232.73 83.2298 233.32C83.2298 233.91 83.0398 234.45 82.6698 234.9C82.2898 235.35 81.7798 235.69 81.1298 235.93C80.4798 236.17 79.7498 236.28 78.9498 236.28C77.7098 236.28 76.6898 236.01 75.8798 235.48ZM87.1898 237.25V241.96H85.3798V238.82H74.9398V237.24H87.1898V237.25ZM77.0698 232.23C76.5998 232.51 76.3598 232.88 76.3598 233.32C76.3598 233.76 76.5998 234.14 77.0698 234.43C77.5398 234.73 78.1698 234.87 78.9398 234.87C79.7098 234.87 80.3198 234.72 80.7898 234.43C81.2598 234.13 81.4998 233.76 81.4998 233.32C81.4998 232.88 81.2698 232.51 80.7998 232.23C80.3298 231.95 79.7098 231.81 78.9398 231.81C78.1698 231.81 77.5398 231.95 77.0698 232.23ZM87.1898 232.4V236.46H85.4098V226.79H87.1898V230.58H89.1798V232.39H87.1898V232.4Z" fill="#138981"/>
<path d="M95.4502 239.25C96.0502 239.15 96.5602 239.01 97.0002 238.83V240.47C96.5702 240.65 96.0302 240.8 95.3902 240.9C94.7502 241.01 94.1002 241.06 93.4502 241.06H90.1602V227.33H96.3902V228.99H91.8702V239.41H93.6502C94.2502 239.41 94.8602 239.36 95.4502 239.26V239.25ZM103.62 241.94H101.92V234.6H99.6702V241.68H98.0102V226.87H99.6702V232.85H101.92V226.79H103.62V241.94Z" fill="#138981"/>
<path d="M112.22 234.64C111.39 235.26 110.47 235.64 109.46 235.77V234.01C110.34 233.85 111.11 233.43 111.78 232.76C112.45 232.09 112.95 231.23 113.31 230.22C113.67 229.21 113.85 228.1 113.86 226.92L115.66 227.04C115.66 228.33 115.46 229.55 115.05 230.71L119.63 234.26L118.56 235.62L114.32 232.23C113.75 233.22 113.06 234.02 112.23 234.65L112.22 234.64ZM123.11 241.77H110.47V236.9H112.26V240.08H123.11V241.78V241.77ZM120.96 238.04V226.8H122.75V238.04H120.96Z" fill="#138981"/>
<path d="M139.27 241.23H124.87V239.47H130.18V232.78H132.01V239.47H139.27V241.23ZM125.74 229.04V227.3H138.32V237.3H136.49V229.03H125.74V229.04Z" fill="#138981"/>
<path d="M153.019 240.87C152.189 240.99 151.269 241.06 150.259 241.06H144.399V239.3H150.359C151.349 239.3 152.249 239.24 153.059 239.12C153.879 239 154.519 238.83 154.989 238.61V240.35C154.499 240.57 153.849 240.75 153.019 240.87ZM151.649 227.69C152.329 228.09 152.859 228.66 153.239 229.39C153.619 230.12 153.809 230.95 153.809 231.87C153.809 232.79 153.619 233.64 153.239 234.37C152.859 235.1 152.329 235.67 151.649 236.07C150.969 236.47 150.209 236.67 149.349 236.67C148.489 236.67 147.729 236.47 147.039 236.07C146.359 235.67 145.819 235.1 145.439 234.37C145.059 233.64 144.869 232.81 144.869 231.87C144.869 230.93 145.059 230.12 145.439 229.39C145.819 228.66 146.349 228.09 147.039 227.69C147.719 227.29 148.489 227.09 149.349 227.09C150.209 227.09 150.969 227.29 151.649 227.69ZM147.359 229.64C146.849 230.23 146.599 230.97 146.599 231.86C146.599 232.75 146.849 233.49 147.359 234.08C147.869 234.67 148.529 234.96 149.339 234.96C150.149 234.96 150.819 234.67 151.319 234.08C151.819 233.49 152.079 232.76 152.079 231.86C152.079 230.96 151.829 230.23 151.319 229.64C150.809 229.06 150.149 228.76 149.339 228.76C148.529 228.76 147.859 229.05 147.359 229.64ZM156.169 241.94V226.79H157.929V241.94H156.169Z" fill="#138981"/>
<path d="M168.13 238.16V242.3H166.32V238.16H160.03V236.38H174.43V238.16H168.14H168.13ZM161 234.61V227.21H173.43V234.61H161ZM162.78 228.92V232.88H171.66V228.92H162.78Z" fill="#138981"/>
<path d="M181.199 233.78L185.779 239.84L184.379 240.94L180.629 235.89C180.119 237.44 179.449 238.66 178.639 239.54C177.819 240.42 176.879 240.93 175.819 241.06V239.19C176.639 239.03 177.339 238.51 177.929 237.61C178.519 236.72 178.979 235.53 179.309 234.06C179.639 232.59 179.819 230.92 179.839 229.05H176.149V227.33H185.199V229.05H181.629C181.589 230.85 181.449 232.43 181.199 233.78ZM188.739 234.66V241.94H186.959V226.79H188.739V232.87H190.729V234.67H188.739V234.66Z" fill="#138981"/>
<g filter="url(#filter9_d_25_3149)">
<path d="M470.63 207.68H274.77C266.176 207.68 259.21 214.647 259.21 223.24V244.2C259.21 252.794 266.176 259.76 274.77 259.76H470.63C479.224 259.76 486.19 252.794 486.19 244.2V223.24C486.19 214.647 479.224 207.68 470.63 207.68Z" fill="#138981"/>
</g>
<path d="M306.99 232.8C306.28 233.77 305.29 234.49 304.01 234.97C302.73 235.45 301.26 235.69 299.57 235.69V234.01C301.62 234 303.25 233.6 304.45 232.82C305.65 232.04 306.26 230.92 306.26 229.48V228.79H299.57V227.15H308.05V229.22C308.05 230.64 307.7 231.83 306.99 232.8ZM312.92 240.07V241.77H300.28V236.9H302.07V240.08H312.92V240.07ZM310.77 238.04V226.8H312.56V238.04H310.77Z" fill="white"/>
<path d="M329.081 234.25H314.681V232.69H329.081V234.25ZM315.661 228.53V226.95H328.051V231.82H326.241V228.53H315.671H315.661ZM328.091 235.35V241.76H315.661V235.35H317.421V237.07H326.361V235.35H328.101H328.091ZM326.361 238.47H317.421V240.34H326.361V238.47Z" fill="white"/>
<path d="M344.701 236.16H330.301V234.62H336.611V233.1H331.321V226.87H333.081V228.55H341.941V226.87H343.701V233.1H338.391V234.62H344.701V236.16ZM343.711 237.52V241.96H341.921V239.04H331.171V237.52H343.721H343.711ZM341.941 231.67V229.95H333.081V231.67H341.941Z" fill="white"/>
<path d="M351.701 233.76L356.361 239.84L354.961 240.94L351.131 235.85C350.631 237.42 349.961 238.64 349.131 239.53C348.291 240.42 347.341 240.93 346.261 241.06V239.19C347.081 239.03 347.791 238.51 348.401 237.61C349.011 236.72 349.481 235.53 349.821 234.05C350.161 232.57 350.341 230.9 350.361 229.05H346.591V227.33H355.781V229.05H352.131C352.101 230.83 351.961 232.4 351.701 233.76ZM359.441 241.94H357.651V226.79H359.441V241.94Z" fill="white"/>
<path d="M368.43 234.64C367.6 235.26 366.68 235.64 365.67 235.77V234.01C366.55 233.85 367.32 233.43 367.99 232.76C368.65 232.08 369.16 231.23 369.52 230.22C369.88 229.2 370.06 228.1 370.07 226.92L371.86 227.04C371.86 228.33 371.66 229.55 371.25 230.71L375.83 234.26L374.76 235.62L370.52 232.23C369.95 233.22 369.26 234.02 368.43 234.65V234.64ZM379.32 241.77H366.68V236.9H368.47V240.08H379.32V241.78V241.77ZM377.17 238.04V226.8H378.96V238.04H377.17Z" fill="white"/>
<path d="M395.47 241.23H381.07V239.47H386.38V232.78H388.21V239.47H395.47V241.23ZM381.94 229.04V227.3H394.52V237.3H392.69V229.03H381.94V229.04Z" fill="white"/>
<path d="M409.221 240.87C408.391 240.99 407.471 241.06 406.461 241.06H400.601V239.3H406.561C407.551 239.3 408.451 239.24 409.261 239.12C410.081 239 410.721 238.83 411.191 238.61V240.35C410.701 240.57 410.051 240.75 409.221 240.87ZM407.851 227.69C408.531 228.09 409.061 228.66 409.441 229.39C409.821 230.12 410.011 230.95 410.011 231.87C410.011 232.79 409.821 233.64 409.441 234.37C409.061 235.1 408.531 235.67 407.851 236.07C407.171 236.47 406.411 236.67 405.551 236.67C404.691 236.67 403.931 236.47 403.241 236.07C402.561 235.67 402.021 235.1 401.641 234.37C401.261 233.64 401.071 232.81 401.071 231.87C401.071 230.93 401.261 230.12 401.641 229.39C402.021 228.66 402.551 228.09 403.241 227.69C403.921 227.29 404.691 227.09 405.551 227.09C406.411 227.09 407.171 227.29 407.851 227.69ZM403.571 229.64C403.061 230.23 402.811 230.97 402.811 231.86C402.811 232.75 403.061 233.49 403.571 234.08C404.081 234.67 404.741 234.96 405.551 234.96C406.361 234.96 407.031 234.67 407.531 234.08C408.031 233.49 408.291 232.76 408.291 231.86C408.291 230.96 408.041 230.23 407.531 229.64C407.021 229.06 406.361 228.76 405.551 228.76C404.741 228.76 404.071 229.05 403.571 229.64ZM412.381 241.94V226.79H414.141V241.94H412.381Z" fill="white"/>
<path d="M424.33 238.16V242.3H422.52V238.16H416.23V236.38H430.63V238.16H424.34H424.33ZM417.21 234.61V227.21H429.64V234.61H417.21ZM418.99 228.92V232.88H427.87V228.92H418.99Z" fill="white"/>
<path d="M437.41 233.78L441.99 239.84L440.59 240.94L436.84 235.89C436.33 237.44 435.66 238.66 434.85 239.54C434.03 240.42 433.09 240.93 432.03 241.06V239.19C432.85 239.03 433.55 238.51 434.14 237.61C434.73 236.72 435.19 235.53 435.52 234.06C435.85 232.59 436.03 230.92 436.05 229.05H432.36V227.33H441.41V229.05H437.84C437.8 230.85 437.66 232.43 437.41 233.78ZM444.95 234.66V241.94H443.17V226.79H444.95V232.87H446.94V234.67H444.95V234.66Z" fill="white"/>
<g filter="url(#filter10_d_25_3149)">
<path d="M726.84 207.68H530.98C522.386 207.68 515.42 214.647 515.42 223.24V244.2C515.42 252.794 522.386 259.76 530.98 259.76H726.84C735.433 259.76 742.4 252.794 742.4 244.2V223.24C742.4 214.647 735.433 207.68 726.84 207.68Z" fill="white"/>
</g>
<path d="M571.62 241.23H557.22V239.47H563.53V235.64H558.16V227.12H559.97V233.87H570.74V235.64H565.32V239.47H571.61V241.23H571.62Z" fill="#138981"/>
<path d="M579.949 227.49C580.639 227.86 581.169 228.39 581.549 229.06C581.929 229.73 582.109 230.49 582.109 231.35C582.109 232.21 581.919 232.97 581.549 233.64C581.179 234.31 580.639 234.83 579.949 235.21C579.259 235.59 578.449 235.77 577.529 235.77C576.609 235.77 575.799 235.58 575.109 235.21C574.419 234.84 573.889 234.31 573.509 233.64C573.139 232.97 572.949 232.21 572.949 231.35C572.949 230.49 573.139 229.73 573.509 229.06C573.889 228.39 574.419 227.87 575.109 227.49C575.799 227.11 576.609 226.93 577.529 226.93C578.449 226.93 579.259 227.12 579.949 227.49ZM586.709 240.07V241.77H574.219V236.78H576.029V240.07H586.699H586.709ZM575.509 229.28C574.999 229.79 574.749 230.48 574.749 231.35C574.749 232.22 574.999 232.91 575.509 233.42C576.019 233.93 576.689 234.19 577.529 234.19C578.369 234.19 579.049 233.93 579.559 233.42C580.069 232.91 580.329 232.22 580.329 231.35C580.329 230.48 580.069 229.79 579.559 229.28C579.049 228.77 578.369 228.51 577.529 228.51C576.689 228.51 576.009 228.77 575.509 229.28ZM584.559 238.04V226.8H586.349V238.04H584.559Z" fill="#138981"/>
<path d="M588.42 229.61V228.13H592.38V226.51H594.19V228.13H598.19V229.61H588.41H588.42ZM590.25 235.48C589.44 234.95 589.04 234.23 589.04 233.32C589.04 232.73 589.23 232.21 589.6 231.76C589.98 231.31 590.49 230.97 591.14 230.73C591.79 230.49 592.52 230.38 593.32 230.38C594.12 230.38 594.83 230.5 595.48 230.73C596.13 230.96 596.65 231.31 597.03 231.76C597.41 232.21 597.6 232.73 597.6 233.32C597.6 233.91 597.41 234.45 597.04 234.9C596.67 235.35 596.15 235.69 595.5 235.93C594.85 236.17 594.12 236.28 593.32 236.28C592.08 236.28 591.06 236.01 590.25 235.48ZM601.56 237.25V241.96H599.75V238.82H589.31V237.24H601.56V237.25ZM591.44 232.23C590.97 232.51 590.73 232.88 590.73 233.32C590.73 233.76 590.97 234.14 591.44 234.43C591.91 234.73 592.54 234.87 593.31 234.87C594.08 234.87 594.69 234.72 595.16 234.43C595.63 234.13 595.87 233.76 595.87 233.32C595.87 232.88 595.64 232.51 595.17 232.23C594.7 231.95 594.08 231.81 593.31 231.81C592.54 231.81 591.91 231.95 591.44 232.23ZM601.56 232.4V236.46H599.78V226.79H601.56V230.58H603.55V232.39H601.56V232.4Z" fill="#138981"/>
<path d="M609.81 239.25C610.41 239.15 610.92 239.01 611.36 238.83V240.47C610.93 240.65 610.39 240.8 609.75 240.9C609.11 241.01 608.46 241.06 607.81 241.06H604.52V227.33H610.75V228.99H606.23V239.41H608.01C608.61 239.41 609.22 239.36 609.81 239.26V239.25ZM617.99 241.94H616.29V234.6H614.04V241.68H612.38V226.87H614.04V232.85H616.29V226.79H617.99V241.94Z" fill="#138981"/>
<path d="M626.59 234.64C625.76 235.26 624.84 235.64 623.83 235.77V234.01C624.71 233.85 625.48 233.43 626.15 232.76C626.81 232.08 627.32 231.23 627.68 230.22C628.04 229.2 628.22 228.1 628.23 226.92L630.02 227.04C630.02 228.33 629.82 229.55 629.41 230.71L633.99 234.26L632.92 235.62L628.68 232.23C628.11 233.22 627.42 234.02 626.59 234.65V234.64ZM637.48 241.77H624.84V236.9H626.63V240.08H637.48V241.78V241.77ZM635.33 238.04V226.8H637.12V238.04H635.33Z" fill="#138981"/>
<path d="M653.629 241.23H639.229V239.47H644.539V232.78H646.37V239.47H653.629V241.23ZM640.099 229.04V227.3H652.68V237.3H650.849V229.03H640.099V229.04Z" fill="#138981"/>
<path d="M663.479 240.87C662.649 240.99 661.729 241.06 660.719 241.06H654.859V239.3H660.819C661.809 239.3 662.709 239.24 663.519 239.12C664.339 239 664.979 238.83 665.449 238.61V240.35C664.959 240.57 664.309 240.75 663.479 240.87ZM662.109 227.69C662.789 228.09 663.319 228.66 663.699 229.39C664.079 230.12 664.269 230.95 664.269 231.87C664.269 232.79 664.079 233.64 663.699 234.37C663.319 235.1 662.789 235.67 662.109 236.07C661.429 236.47 660.669 236.67 659.809 236.67C658.949 236.67 658.189 236.47 657.499 236.07C656.819 235.67 656.279 235.1 655.899 234.37C655.519 233.64 655.329 232.81 655.329 231.87C655.329 230.93 655.519 230.12 655.899 229.39C656.279 228.66 656.809 228.09 657.499 227.69C658.179 227.29 658.949 227.09 659.809 227.09C660.669 227.09 661.429 227.29 662.109 227.69ZM657.829 229.64C657.319 230.23 657.069 230.97 657.069 231.86C657.069 232.75 657.319 233.49 657.829 234.08C658.339 234.67 658.999 234.96 659.809 234.96C660.619 234.96 661.289 234.67 661.789 234.08C662.289 233.49 662.549 232.76 662.549 231.86C662.549 230.96 662.299 230.23 661.789 229.64C661.279 229.06 660.619 228.76 659.809 228.76C658.999 228.76 658.329 229.05 657.829 229.64ZM666.629 241.94V226.79H668.389V241.94H666.629Z" fill="#138981"/>
<path d="M678.59 238.16V242.3H676.78V238.16H670.49V236.38H684.89V238.16H678.6H678.59ZM671.47 234.61V227.21H683.9V234.61H671.47ZM673.24 228.92V232.88H682.12V228.92H673.24Z" fill="#138981"/>
<path d="M691.67 233.78L696.25 239.84L694.85 240.94L691.1 235.89C690.59 237.44 689.92 238.66 689.11 239.54C688.29 240.42 687.35 240.93 686.29 241.06V239.19C687.11 239.03 687.81 238.51 688.4 237.61C688.99 236.72 689.45 235.53 689.78 234.06C690.11 232.59 690.29 230.92 690.31 229.05H686.62V227.33H695.67V229.05H692.1C692.06 230.85 691.92 232.43 691.67 233.78ZM699.2 234.66V241.94H697.42V226.79H699.2V232.87H701.19V234.67H699.2V234.66Z" fill="#138981"/>
<g filter="url(#filter11_d_25_3149)">
<path d="M983.05 207.68H787.19C778.596 207.68 771.63 214.647 771.63 223.24V244.2C771.63 252.794 778.596 259.76 787.19 259.76H983.05C991.643 259.76 998.61 252.794 998.61 244.2V223.24C998.61 214.647 991.643 207.68 983.05 207.68Z" fill="#138981"/>
</g>
<path d="M852.85 234.45V232.85C854.91 232.84 856.52 232.53 857.65 231.92C858.79 231.32 859.36 230.39 859.36 229.14V228.73H852.85V227.15H861.17V228.83C861.17 232.58 858.4 234.45 852.85 234.45ZM865.58 235.32V241.77H853.45V235.32H855.24V236.9H863.8V235.32H865.58ZM863.8 238.41H855.24V240.22H863.8V238.41ZM865.58 231.49V234.67H863.8V226.8H865.58V229.72H867.57V231.5H865.58V231.49Z" fill="white"/>
<path d="M871.2 233.21C870.38 233.66 869.47 233.95 868.46 234.07V232.47C869.59 232.31 870.51 231.9 871.21 231.23C871.91 230.56 872.34 229.71 872.48 228.69H868.63V227.15H877.96V228.69H874.29C874.25 229.16 874.15 229.64 873.97 230.13L878.41 232.5L877.66 233.9L873.18 231.47C872.67 232.18 872 232.76 871.19 233.22L871.2 233.21ZM881.95 241.77H869.33V237.81H879.84V236.47H869.31V235.05H881.62V239.03H871.11V240.35H881.96V241.77H881.95ZM879.82 234.23V226.79H881.61V234.23H879.82Z" fill="white"/>
<path d="M898.09 226.87V241.68H896.45V237.6H894.2C893.98 238.84 893.61 239.75 893.1 240.35C892.59 240.95 891.93 241.25 891.13 241.25C890.03 241.25 889.2 240.68 888.64 239.54C888.09 238.4 887.81 236.62 887.81 234.18C887.81 231.74 888.09 229.96 888.64 228.82C889.19 227.68 890.02 227.11 891.13 227.11C892.64 227.11 893.63 228.15 894.11 230.23H896.46V226.86H898.1L898.09 226.87ZM892.4 238.25C892.68 237.38 892.81 236.03 892.81 234.19C892.81 232.35 892.67 230.99 892.4 230.13C892.12 229.26 891.7 228.83 891.12 228.83C890.54 228.83 890.14 229.27 889.87 230.14C889.6 231.01 889.47 232.37 889.47 234.19C889.47 236.01 889.6 237.37 889.87 238.24C890.14 239.11 890.56 239.55 891.12 239.55C891.68 239.55 892.13 239.12 892.4 238.25ZM896.45 231.96H894.36C894.44 232.6 894.48 233.35 894.48 234.19C894.48 234.78 894.46 235.35 894.42 235.89H896.45V231.96ZM901.54 241.94H899.86V226.79H901.54V241.94Z" fill="white"/>
<path d="M903.75 234.57V227.05H905.49V229.16H910.46V227.05H912.2V234.57H903.76H903.75ZM914.85 236.61C915.98 237.1 916.55 237.88 916.55 238.93C916.55 239.98 915.98 240.75 914.85 241.24C913.72 241.73 912.22 241.97 910.35 241.97C908.48 241.97 906.98 241.73 905.85 241.24C904.72 240.75 904.15 239.98 904.15 238.93C904.15 237.88 904.71 237.11 905.85 236.61C906.98 236.12 908.48 235.87 910.35 235.87C912.22 235.87 913.72 236.12 914.85 236.61ZM910.45 230.68H905.48V233.01H910.45V230.68ZM913.45 240.06C914.25 239.8 914.65 239.43 914.65 238.93C914.65 238.43 914.25 238.04 913.46 237.79C912.66 237.54 911.63 237.42 910.35 237.42C909.07 237.42 908.02 237.54 907.22 237.79C906.42 238.04 906.03 238.42 906.03 238.93C906.03 239.44 906.43 239.81 907.23 240.06C908.03 240.32 909.07 240.44 910.35 240.44C911.63 240.44 912.64 240.31 913.45 240.06ZM918.34 231.73H916.35V235.42H914.57V226.8H916.35V229.94H918.34V231.73Z" fill="white"/>
<g filter="url(#filter12_d_25_3149)">
<path d="M214.42 310.53H18.56C9.96645 310.53 3 317.496 3 326.09V347.05C3 355.644 9.96645 362.61 18.56 362.61H214.42C223.014 362.61 229.98 355.644 229.98 347.05V326.09C229.98 317.496 223.014 310.53 214.42 310.53Z" fill="#138981"/>
</g>
<path d="M91.3702 336.62L95.9502 342.68L94.5502 343.78L90.8002 338.73C90.2902 340.28 89.6202 341.5 88.8102 342.38C87.9902 343.26 87.0502 343.77 85.9902 343.9V342.03C86.8002 341.87 87.5102 341.35 88.1002 340.45C88.6902 339.56 89.1502 338.37 89.4802 336.9C89.8102 335.43 89.9902 333.76 90.0102 331.89H86.3202V330.17H95.3702V331.89H91.8002C91.7602 333.69 91.6202 335.27 91.3702 336.62ZM98.9102 337.51V344.79H97.1302V329.64H98.9102V335.72H100.9V337.52H98.9102V337.51Z" fill="white"/>
<path d="M104.231 335.97C103.401 336.47 102.481 336.79 101.471 336.92V335.26C102.351 335.1 103.111 334.76 103.761 334.24C104.401 333.72 104.901 333.07 105.251 332.3C105.601 331.52 105.781 330.68 105.791 329.76L107.571 329.88C107.571 330.87 107.401 331.79 107.061 332.66L111.521 335.28L110.651 336.68L106.271 334.06C105.741 334.84 105.071 335.47 104.241 335.97H104.231ZM114.871 343.23V344.61H102.421V340.63H112.761V339.27H102.381V337.89H114.531V341.87H104.211V343.23H114.861H114.871ZM116.521 333.74H114.531V337.07H112.751V329.63H114.531V332.02H116.521V333.74Z" fill="white"/>
<path d="M127.51 329.72V344.53H125.87V340.45H123.62C123.4 341.69 123.03 342.6 122.52 343.2C122.01 343.8 121.35 344.1 120.55 344.1C119.45 344.1 118.62 343.53 118.06 342.39C117.51 341.25 117.23 339.47 117.23 337.03C117.23 334.59 117.51 332.81 118.06 331.67C118.61 330.53 119.44 329.96 120.55 329.96C122.06 329.96 123.06 331 123.53 333.08H125.88V329.71H127.52L127.51 329.72ZM121.83 341.1C122.11 340.23 122.24 338.88 122.24 337.04C122.24 335.2 122.1 333.84 121.83 332.98C121.55 332.11 121.13 331.68 120.55 331.68C119.97 331.68 119.57 332.12 119.3 332.99C119.03 333.86 118.9 335.22 118.9 337.04C118.9 338.86 119.03 340.22 119.3 341.09C119.57 341.96 119.99 342.4 120.55 342.4C121.11 342.4 121.56 341.97 121.83 341.1ZM125.87 334.81H123.78C123.86 335.45 123.9 336.2 123.9 337.04C123.9 337.63 123.88 338.2 123.84 338.74H125.87V334.81ZM130.96 344.79H129.28V329.64H130.96V344.79Z" fill="white"/>
<path d="M133.17 337.41V329.89H134.91V332H139.88V329.89H141.62V337.41H133.18H133.17ZM144.28 339.45C145.41 339.94 145.98 340.72 145.98 341.77C145.98 342.82 145.41 343.59 144.28 344.08C143.15 344.57 141.65 344.81 139.78 344.81C137.91 344.81 136.41 344.57 135.28 344.08C134.15 343.59 133.58 342.82 133.58 341.77C133.58 340.72 134.15 339.95 135.28 339.45C136.41 338.95 137.91 338.71 139.78 338.71C141.65 338.71 143.15 338.96 144.28 339.45ZM139.88 333.52H134.91V335.85H139.88V333.52ZM142.88 342.9C143.68 342.64 144.08 342.27 144.08 341.77C144.08 341.27 143.68 340.88 142.89 340.63C142.09 340.38 141.06 340.26 139.78 340.26C138.5 340.26 137.45 340.38 136.65 340.63C135.85 340.88 135.46 341.26 135.46 341.77C135.46 342.28 135.86 342.65 136.66 342.9C137.46 343.16 138.5 343.28 139.78 343.28C141.06 343.28 142.07 343.15 142.88 342.9ZM147.77 334.57H145.78V338.26H144V329.64H145.78V332.78H147.77V334.57Z" fill="white"/>
<g filter="url(#filter13_d_25_3149)">
<path d="M470.63 310.53H274.77C266.176 310.53 259.21 317.496 259.21 326.09V347.05C259.21 355.644 266.176 362.61 274.77 362.61H470.63C479.224 362.61 486.19 355.644 486.19 347.05V326.09C486.19 317.496 479.224 310.53 470.63 310.53Z" fill="white"/>
</g>
<path d="M307.59 330.34C308.28 330.71 308.81 331.24 309.19 331.91C309.57 332.58 309.75 333.34 309.75 334.2C309.75 335.06 309.56 335.82 309.19 336.49C308.82 337.16 308.28 337.68 307.59 338.06C306.9 338.44 306.09 338.62 305.17 338.62C304.25 338.62 303.44 338.43 302.75 338.06C302.06 337.69 301.53 337.16 301.15 336.49C300.78 335.82 300.59 335.06 300.59 334.2C300.59 333.34 300.78 332.58 301.15 331.91C301.53 331.24 302.06 330.72 302.75 330.34C303.44 329.96 304.25 329.78 305.17 329.78C306.09 329.78 306.9 329.97 307.59 330.34ZM314.34 342.91V344.61H301.85V339.62H303.66V342.91H314.33H314.34ZM303.15 332.12C302.64 332.63 302.39 333.32 302.39 334.19C302.39 335.06 302.64 335.75 303.15 336.26C303.66 336.77 304.33 337.03 305.17 337.03C306.01 337.03 306.69 336.77 307.2 336.26C307.71 335.75 307.97 335.06 307.97 334.19C307.97 333.32 307.71 332.63 307.2 332.12C306.69 331.61 306.01 331.35 305.17 331.35C304.33 331.35 303.65 331.61 303.15 332.12ZM312.19 340.88V329.64H313.98V340.88H312.19Z" fill="#138981"/>
<path d="M316.1 337.21V335.63H322.14C324.35 335.63 325.89 335.44 326.76 335.06V336.62C326.33 336.82 325.69 336.97 324.85 337.06C324.01 337.16 323.06 337.21 322.01 337.21H321.79V340.39H320.01V337.21H316.1ZM317.14 331.47V329.91H325.25V334.72H323.47V331.47H317.14ZM329.97 344.61H317.33V339.52H319.11V342.99H329.98V344.61H329.97ZM327.93 329.64H329.71V341.46H327.93V340.24H323.63V338.72H327.93V329.65V329.64Z" fill="#138981"/>
<path d="M338.24 336.1C336.79 337.07 334.76 337.55 332.17 337.55V335.93C334.19 335.92 335.77 335.58 336.9 334.91C338.03 334.24 338.6 333.28 338.6 332V331.57H332.17V329.99H340.42V331.67C340.42 333.66 339.69 335.13 338.24 336.1ZM343.78 339.23C344.94 339.74 345.53 340.54 345.53 341.63C345.53 342.72 344.95 343.52 343.79 344.04C342.63 344.55 341.11 344.81 339.21 344.81C337.31 344.81 335.81 344.55 334.65 344.04C333.49 343.53 332.91 342.73 332.91 341.63C332.91 340.53 333.49 339.74 334.65 339.23C335.81 338.72 337.33 338.47 339.21 338.47C341.09 338.47 342.61 338.72 343.78 339.23ZM342.39 342.85C343.22 342.57 343.63 342.17 343.63 341.63C343.63 341.09 343.22 340.69 342.4 340.42C341.58 340.15 340.52 340.02 339.21 340.02C337.9 340.02 336.87 340.16 336.04 340.42C335.22 340.69 334.81 341.09 334.81 341.63C334.81 342.17 335.22 342.58 336.05 342.85C336.88 343.13 337.93 343.26 339.21 343.26C340.49 343.26 341.56 343.12 342.39 342.85ZM340.56 336.4V334.76H343.56V332.85H341.11V331.21H343.56V329.63H345.34V337.99H343.56V336.39H340.56V336.4Z" fill="#138981"/>
<path d="M355.82 335.66C355.46 336.25 354.94 336.7 354.27 337.02C353.6 337.34 352.82 337.5 351.92 337.5C351.02 337.5 350.24 337.34 349.57 337.02C348.9 336.7 348.38 336.24 348.01 335.66C347.64 335.08 347.46 334.4 347.46 333.64C347.46 332.88 347.64 332.2 348.01 331.62C348.38 331.03 348.9 330.58 349.57 330.26C350.24 329.94 351.02 329.78 351.92 329.78C352.82 329.78 353.6 329.94 354.27 330.26C354.94 330.58 355.46 331.04 355.82 331.62C356.18 332.2 356.36 332.88 356.36 333.64C356.36 334.4 356.18 335.08 355.82 335.66ZM359.38 339.24C360.51 339.75 361.08 340.55 361.08 341.63C361.08 342.71 360.51 343.51 359.38 344.03C358.25 344.55 356.76 344.81 354.9 344.81C353.04 344.81 351.55 344.55 350.42 344.03C349.29 343.51 348.72 342.71 348.72 341.63C348.72 340.55 349.29 339.76 350.42 339.24C351.55 338.73 353.04 338.47 354.9 338.47C356.76 338.47 358.25 338.73 359.38 339.24ZM349.98 335.34C350.46 335.75 351.11 335.95 351.92 335.95C352.73 335.95 353.39 335.75 353.87 335.34C354.35 334.93 354.6 334.37 354.6 333.64C354.6 332.91 354.36 332.35 353.87 331.94C353.38 331.53 352.73 331.33 351.92 331.33C351.11 331.33 350.46 331.53 349.98 331.94C349.5 332.35 349.26 332.91 349.26 333.64C349.26 334.37 349.5 334.93 349.98 335.34ZM357.99 342.85C358.79 342.57 359.18 342.17 359.18 341.63C359.18 341.09 358.78 340.69 357.99 340.42C357.19 340.15 356.17 340.02 354.9 340.02C353.63 340.02 352.61 340.16 351.81 340.42C351.01 340.69 350.62 341.09 350.62 341.63C350.62 342.17 351.02 342.58 351.81 342.85C352.61 343.13 353.63 343.26 354.9 343.26C356.17 343.26 357.19 343.12 357.99 342.85ZM359.2 332.54H356.85L356.75 330.92H359.2V329.64H360.96V338H359.2V336.3H356.75L356.85 334.68H359.2V332.53V332.54Z" fill="#138981"/>
<path d="M364.47 341.51C364.13 340.17 363.96 338.74 363.96 337.21C363.96 335.68 364.13 334.23 364.48 332.88C364.83 331.53 365.32 330.36 365.95 329.36H367.47C366.8 330.52 366.31 331.74 365.99 333.03C365.67 334.32 365.52 335.71 365.52 337.21C365.52 338.71 365.68 340.08 365.99 341.37C366.31 342.66 366.8 343.89 367.47 345.06H365.95C365.31 344.03 364.81 342.85 364.47 341.51Z" fill="#138981"/>
<path d="M378.93 344.12H369.42V330.31H378.67V331.89H371.25V336.33H377.86V337.89H371.25V342.53H378.92V344.13L378.93 344.12Z" fill="#138981"/>
<path d="M382.349 343.79C381.439 343.47 380.719 343.04 380.189 342.52L380.859 341.08C381.369 341.55 382.019 341.94 382.789 342.24C383.569 342.54 384.369 342.69 385.199 342.69C386.279 342.69 387.089 342.49 387.639 342.08C388.189 341.67 388.459 341.14 388.459 340.48C388.459 339.99 388.309 339.6 388.009 339.29C387.709 338.98 387.329 338.74 386.889 338.58C386.439 338.42 385.829 338.23 385.059 338.04C384.089 337.79 383.299 337.54 382.699 337.29C382.099 337.04 381.589 336.66 381.159 336.15C380.729 335.64 380.519 334.95 380.519 334.08C380.519 333.36 380.699 332.7 381.069 332.1C381.439 331.5 381.999 331.03 382.749 330.68C383.499 330.33 384.419 330.16 385.509 330.16C386.299 330.16 387.069 330.27 387.809 330.49C388.549 330.71 389.189 331.01 389.729 331.41L389.139 332.89C388.569 332.51 387.979 332.22 387.349 332.03C386.729 331.84 386.109 331.74 385.509 331.74C384.459 331.74 383.669 331.95 383.129 332.37C382.589 332.79 382.329 333.34 382.329 334.01C382.329 334.5 382.479 334.89 382.779 335.2C383.079 335.51 383.459 335.75 383.909 335.92C384.359 336.09 384.979 336.27 385.749 336.47C386.739 336.72 387.529 336.97 388.119 337.21C388.709 337.45 389.219 337.83 389.639 338.33C390.059 338.84 390.269 339.52 390.269 340.37C390.269 341.09 390.079 341.75 389.709 342.34C389.339 342.93 388.769 343.4 387.999 343.75C387.239 344.1 386.299 344.27 385.199 344.27C384.209 344.27 383.259 344.11 382.349 343.79Z" fill="#138981"/>
<path d="M403.29 337.15V342.5C402.65 343.08 401.89 343.52 401.03 343.82C400.17 344.12 399.27 344.27 398.34 344.27C397.01 344.27 395.82 343.96 394.76 343.35C393.7 342.74 392.87 341.9 392.26 340.83C391.66 339.76 391.35 338.55 391.35 337.21C391.35 335.87 391.65 334.66 392.26 333.58C392.86 332.5 393.7 331.66 394.76 331.06C395.83 330.46 397.03 330.15 398.37 330.15C399.41 330.15 400.36 330.33 401.23 330.68C402.1 331.03 402.83 331.55 403.42 332.24L402.26 333.42C401.26 332.34 399.99 331.8 398.45 331.8C397.45 331.8 396.55 332.03 395.75 332.5C394.95 332.97 394.32 333.61 393.88 334.43C393.44 335.25 393.21 336.18 393.21 337.2C393.21 338.22 393.43 339.15 393.88 339.96C394.33 340.78 394.95 341.42 395.74 341.88C396.54 342.35 397.43 342.58 398.43 342.58C399.68 342.58 400.73 342.25 401.59 341.57V337.13H403.29V337.15Z" fill="#138981"/>
<path d="M415.66 336.1C414.21 337.07 412.18 337.55 409.59 337.55V335.93C411.61 335.92 413.19 335.58 414.32 334.91C415.45 334.24 416.02 333.28 416.02 332V331.57H409.59V329.99H417.84V331.67C417.84 333.66 417.11 335.13 415.66 336.1ZM421.21 339.23C422.37 339.74 422.96 340.54 422.96 341.63C422.96 342.72 422.38 343.52 421.22 344.04C420.06 344.55 418.54 344.81 416.64 344.81C414.74 344.81 413.24 344.55 412.08 344.04C410.92 343.53 410.34 342.73 410.34 341.63C410.34 340.53 410.92 339.74 412.08 339.23C413.24 338.72 414.76 338.47 416.64 338.47C418.52 338.47 420.04 338.72 421.21 339.23ZM419.82 342.85C420.65 342.57 421.06 342.17 421.06 341.63C421.06 341.09 420.65 340.69 419.83 340.42C419.01 340.15 417.95 340.02 416.64 340.02C415.33 340.02 414.3 340.16 413.47 340.42C412.65 340.69 412.24 341.09 412.24 341.63C412.24 342.17 412.65 342.58 413.48 342.85C414.31 343.13 415.36 343.26 416.64 343.26C417.92 343.26 418.99 343.12 419.82 342.85ZM417.98 336.4V334.76H420.98V332.85H418.53V331.21H420.98V329.63H422.76V337.99H420.98V336.39H417.98V336.4Z" fill="#138981"/>
<path d="M433.24 335.66C432.88 336.25 432.36 336.7 431.69 337.02C431.02 337.34 430.24 337.5 429.34 337.5C428.44 337.5 427.66 337.34 426.99 337.02C426.32 336.7 425.8 336.24 425.43 335.66C425.06 335.08 424.88 334.4 424.88 333.64C424.88 332.88 425.06 332.2 425.43 331.62C425.8 331.03 426.32 330.58 426.99 330.26C427.66 329.94 428.44 329.78 429.34 329.78C430.24 329.78 431.02 329.94 431.69 330.26C432.36 330.58 432.88 331.04 433.24 331.62C433.6 332.2 433.78 332.88 433.78 333.64C433.78 334.4 433.6 335.08 433.24 335.66ZM436.8 339.24C437.93 339.75 438.5 340.55 438.5 341.63C438.5 342.71 437.93 343.51 436.8 344.03C435.67 344.55 434.18 344.81 432.32 344.81C430.46 344.81 428.97 344.55 427.84 344.03C426.71 343.51 426.14 342.71 426.14 341.63C426.14 340.55 426.71 339.76 427.84 339.24C428.97 338.73 430.46 338.47 432.32 338.47C434.18 338.47 435.67 338.73 436.8 339.24ZM427.4 335.34C427.88 335.75 428.53 335.95 429.34 335.95C430.15 335.95 430.81 335.75 431.29 335.34C431.77 334.93 432.02 334.37 432.02 333.64C432.02 332.91 431.78 332.35 431.29 331.94C430.8 331.53 430.15 331.33 429.34 331.33C428.53 331.33 427.88 331.53 427.4 331.94C426.92 332.35 426.68 332.91 426.68 333.64C426.68 334.37 426.92 334.93 427.4 335.34ZM435.41 342.85C436.21 342.57 436.6 342.17 436.6 341.63C436.6 341.09 436.2 340.69 435.41 340.42C434.61 340.15 433.59 340.02 432.32 340.02C431.05 340.02 430.03 340.16 429.23 340.42C428.43 340.69 428.04 341.09 428.04 341.63C428.04 342.17 428.44 342.58 429.23 342.85C430.03 343.13 431.05 343.26 432.32 343.26C433.59 343.26 434.61 343.12 435.41 342.85ZM436.62 332.54H434.27L434.17 330.92H436.62V329.64H438.38V338H436.62V336.3H434.17L434.27 334.68H436.62V332.53V332.54Z" fill="#138981"/>
<path d="M441.8 341.39C442.11 340.1 442.26 338.71 442.26 337.21C442.26 335.71 442.11 334.32 441.8 333.03C441.49 331.74 441 330.52 440.33 329.36H441.83C442.47 330.36 442.97 331.53 443.31 332.88C443.65 334.23 443.82 335.67 443.82 337.21C443.82 338.75 443.65 340.17 443.31 341.51C442.97 342.85 442.48 344.03 441.83 345.06H440.33C441 343.9 441.49 342.68 441.8 341.39Z" fill="#138981"/>
<g filter="url(#filter14_d_25_3149)">
<path d="M726.84 310.53H530.98C522.386 310.53 515.42 317.496 515.42 326.09V347.05C515.42 355.644 522.386 362.61 530.98 362.61H726.84C735.433 362.61 742.4 355.644 742.4 347.05V326.09C742.4 317.496 735.433 310.53 726.84 310.53Z" fill="#138981"/>
</g>
<path d="M601.3 336.78C600.48 337.29 599.56 337.61 598.52 337.73V336.05C599.66 335.89 600.59 335.42 601.29 334.62C601.99 333.82 602.4 332.82 602.5 331.59H598.69V329.99H607.88V331.59H604.29C604.25 332.23 604.14 332.8 603.97 333.29L608.37 336.19L607.48 337.59L603.28 334.75C602.77 335.59 602.1 336.27 601.29 336.78H601.3ZM610.24 339.36C611.38 339.86 611.96 340.64 611.96 341.71C611.96 342.78 611.39 343.56 610.24 344.06C609.09 344.56 607.58 344.81 605.68 344.81C603.78 344.81 602.29 344.56 601.15 344.06C600.01 343.56 599.44 342.78 599.44 341.71C599.44 340.64 600.01 339.86 601.15 339.36C602.29 338.86 603.8 338.61 605.68 338.61C607.56 338.61 609.09 338.86 610.24 339.36ZM608.84 342.88C609.65 342.61 610.06 342.22 610.06 341.71C610.06 341.2 609.65 340.81 608.84 340.54C608.02 340.27 606.97 340.14 605.68 340.14C604.39 340.14 603.35 340.27 602.54 340.54C601.74 340.81 601.34 341.2 601.34 341.71C601.34 342.22 601.74 342.61 602.54 342.88C603.34 343.15 604.39 343.28 605.68 343.28C606.97 343.28 608.02 343.15 608.84 342.88ZM610.06 329.64H611.84V338.14H610.06V334.06H607.34V332.44H610.06V329.64Z" fill="white"/>
<path d="M628.25 344.08H613.85V342.32H620.14V339.01H614.79V330.07H616.55V332.71H625.55V330.07H627.31V339.01H621.94V342.32H628.25V344.08ZM625.55 337.33V334.39H616.55V337.33H625.55Z" fill="white"/>
<path d="M643.87 344.08H629.47V342.32H635.76V339.01H630.41V330.07H632.17V332.71H641.17V330.07H642.93V339.01H637.56V342.32H643.87V344.08ZM641.17 337.33V334.39H632.17V337.33H641.17Z" fill="white"/>
<path d="M653.54 336.48C653.17 337.15 652.65 337.67 651.96 338.05C651.28 338.43 650.48 338.61 649.57 338.61C648.66 338.61 647.87 338.42 647.18 338.05C646.5 337.68 645.97 337.15 645.6 336.48C645.23 335.81 645.05 335.05 645.05 334.19C645.05 333.33 645.23 332.57 645.6 331.9C645.97 331.23 646.49 330.71 647.18 330.33C647.86 329.95 648.66 329.77 649.57 329.77C650.48 329.77 651.27 329.96 651.96 330.33C652.64 330.7 653.17 331.23 653.54 331.9C653.91 332.57 654.09 333.33 654.09 334.19C654.09 335.05 653.91 335.81 653.54 336.48ZM658.57 342.91V344.61H646.24V339.62H648.04V342.91H658.57ZM647.59 336.26C648.08 336.77 648.74 337.03 649.57 337.03C650.4 337.03 651.06 336.77 651.56 336.26C652.06 335.75 652.31 335.06 652.31 334.19C652.31 333.32 652.06 332.63 651.56 332.12C651.06 331.61 650.4 331.35 649.57 331.35C648.74 331.35 648.08 331.61 647.59 332.12C647.1 332.63 646.85 333.32 646.85 334.19C646.85 335.06 647.1 335.75 647.59 336.26ZM660.18 334.98H658.19V340.88H656.41V329.64H658.19V333.19H660.18V334.99V334.98Z" fill="white"/>
<g filter="url(#filter15_d_25_3149)">
<path d="M983.05 310.53H787.19C778.596 310.53 771.63 317.496 771.63 326.09V347.05C771.63 355.644 778.596 362.61 787.19 362.61H983.05C991.643 362.61 998.61 355.644 998.61 347.05V326.09C998.61 317.496 991.643 310.53 983.05 310.53Z" fill="white"/>
</g>
<path d="M862.819 330.17V333.86C862.819 335.87 862.5 337.63 861.87 339.14C861.24 340.65 860.329 341.81 859.149 342.63C857.969 343.45 856.569 343.86 854.949 343.86V342.08C856.229 342.08 857.319 341.75 858.229 341.08C859.139 340.41 859.84 339.47 860.31 338.24C860.78 337.01 861.019 335.56 861.019 333.89V331.86H854.939V330.16H862.81L862.819 330.17ZM867.529 337.51V344.79H865.749V329.64H867.529V335.72H869.519V337.52H867.529V337.51Z" fill="#138981"/>
<path d="M873.13 336.78C872.31 337.29 871.39 337.61 870.35 337.73V336.05C871.49 335.89 872.42 335.42 873.12 334.62C873.82 333.82 874.23 332.82 874.33 331.59H870.52V329.99H879.71V331.59H876.12C876.08 332.23 875.97 332.8 875.8 333.29L880.2 336.19L879.31 337.59L875.11 334.75C874.6 335.59 873.93 336.27 873.12 336.78H873.13ZM882.07 339.36C883.21 339.86 883.79 340.64 883.79 341.71C883.79 342.78 883.22 343.56 882.07 344.06C880.92 344.56 879.41 344.81 877.51 344.81C875.61 344.81 874.12 344.56 872.98 344.06C871.84 343.56 871.27 342.78 871.27 341.71C871.27 340.64 871.84 339.86 872.98 339.36C874.12 338.86 875.63 338.61 877.51 338.61C879.39 338.61 880.92 338.86 882.07 339.36ZM880.67 342.88C881.48 342.61 881.89 342.22 881.89 341.71C881.89 341.2 881.48 340.81 880.67 340.54C879.85 340.27 878.8 340.14 877.51 340.14C876.22 340.14 875.18 340.27 874.37 340.54C873.57 340.81 873.17 341.2 873.17 341.71C873.17 342.22 873.57 342.61 874.37 342.88C875.17 343.15 876.22 343.28 877.51 343.28C878.8 343.28 879.85 343.15 880.67 342.88ZM881.89 329.64H883.67V338.14H881.89V334.06H879.17V332.44H881.89V329.64Z" fill="#138981"/>
<path d="M900.08 338.93H885.68V337.41H891.99V335.83H886.51V334.35H889.02V331.27H886.67V329.79H899.12V331.27H896.75V334.35H899.26V335.83H893.78V337.41H900.09V338.93H900.08ZM899.09 340.35V344.81H897.3V341.87H886.55V340.35H899.1H899.09ZM894.97 334.35V331.27H890.81V334.35H894.97Z" fill="#138981"/>
<path d="M907.85 331.47H901.85V329.99H909.6V334.94H903.64V336.99H906.86C907.79 336.99 908.66 336.94 909.45 336.85C910.25 336.76 910.85 336.63 911.27 336.48V337.9C910.86 338.08 910.25 338.23 909.45 338.33C908.64 338.44 907.74 338.49 906.74 338.49H901.89V333.52H907.85V331.47ZM914.91 339.91V344.8H913.1V341.49H902.47V339.91H914.92H914.91ZM914.91 339.11H913.15V336.19H910.59V334.59H913.15V332.97H910.59V331.37H913.15V329.63H914.91V339.1V339.11Z" fill="#138981"/>
<defs>
<filter id="filter0_d_25_3149" x="0" y="0.5" width="232.98" height="58.08" filterUnits="userSpaceOnUse" color-interpolation-filters="sRGB">
<feFlood flood-opacity="0" result="BackgroundImageFix"/>
<feColorMatrix in="SourceAlpha" type="matrix" values="0 0 0 0 0 0 0 0 0 0 0 0 0 0 0 0 0 0 127 0" result="hardAlpha"/>
<feOffset dy="1.5"/>
<feGaussianBlur stdDeviation="1.5"/>
<feColorMatrix type="matrix" values="0 0 0 0 0 0 0 0 0 0.262745 0 0 0 0 0.235294 0 0 0 0.3 0"/>
<feBlend mode="normal" in2="BackgroundImageFix" result="effect1_dropShadow_25_3149"/>
<feBlend mode="normal" in="SourceGraphic" in2="effect1_dropShadow_25_3149" result="shape"/>
</filter>
<filter id="filter1_d_25_3149" x="256.21" y="0.5" width="232.98" height="58.08" filterUnits="userSpaceOnUse" color-interpolation-filters="sRGB">
<feFlood flood-opacity="0" result="BackgroundImageFix"/>
<feColorMatrix in="SourceAlpha" type="matrix" values="0 0 0 0 0 0 0 0 0 0 0 0 0 0 0 0 0 0 127 0" result="hardAlpha"/>
<feOffset dy="1.5"/>
<feGaussianBlur stdDeviation="1.5"/>
<feColorMatrix type="matrix" values="0 0 0 0 0 0 0 0 0 0.262745 0 0 0 0 0.235294 0 0 0 0.3 0"/>
<feBlend mode="normal" in2="BackgroundImageFix" result="effect1_dropShadow_25_3149"/>
<feBlend mode="normal" in="SourceGraphic" in2="effect1_dropShadow_25_3149" result="shape"/>
</filter>
<filter id="filter2_d_25_3149" x="512.42" y="0.5" width="232.98" height="58.08" filterUnits="userSpaceOnUse" color-interpolation-filters="sRGB">
<feFlood flood-opacity="0" result="BackgroundImageFix"/>
<feColorMatrix in="SourceAlpha" type="matrix" values="0 0 0 0 0 0 0 0 0 0 0 0 0 0 0 0 0 0 127 0" result="hardAlpha"/>
<feOffset dy="1.5"/>
<feGaussianBlur stdDeviation="1.5"/>
<feColorMatrix type="matrix" values="0 0 0 0 0 0 0 0 0 0.262745 0 0 0 0 0.235294 0 0 0 0.3 0"/>
<feBlend mode="normal" in2="BackgroundImageFix" result="effect1_dropShadow_25_3149"/>
<feBlend mode="normal" in="SourceGraphic" in2="effect1_dropShadow_25_3149" result="shape"/>
</filter>
<filter id="filter3_d_25_3149" x="768.63" y="0.5" width="232.98" height="58.08" filterUnits="userSpaceOnUse" color-interpolation-filters="sRGB">
<feFlood flood-opacity="0" result="BackgroundImageFix"/>
<feColorMatrix in="SourceAlpha" type="matrix" values="0 0 0 0 0 0 0 0 0 0 0 0 0 0 0 0 0 0 127 0" result="hardAlpha"/>
<feOffset dy="1.5"/>
<feGaussianBlur stdDeviation="1.5"/>
<feColorMatrix type="matrix" values="0 0 0 0 0 0 0 0 0 0.262745 0 0 0 0 0.235294 0 0 0 0.3 0"/>
<feBlend mode="normal" in2="BackgroundImageFix" result="effect1_dropShadow_25_3149"/>
<feBlend mode="normal" in="SourceGraphic" in2="effect1_dropShadow_25_3149" result="shape"/>
</filter>
<filter id="filter4_d_25_3149" x="0" y="103.34" width="232.98" height="58.08" filterUnits="userSpaceOnUse" color-interpolation-filters="sRGB">
<feFlood flood-opacity="0" result="BackgroundImageFix"/>
<feColorMatrix in="SourceAlpha" type="matrix" values="0 0 0 0 0 0 0 0 0 0 0 0 0 0 0 0 0 0 127 0" result="hardAlpha"/>
<feOffset dy="1.5"/>
<feGaussianBlur stdDeviation="1.5"/>
<feColorMatrix type="matrix" values="0 0 0 0 0 0 0 0 0 0.262745 0 0 0 0 0.235294 0 0 0 0.3 0"/>
<feBlend mode="normal" in2="BackgroundImageFix" result="effect1_dropShadow_25_3149"/>
<feBlend mode="normal" in="SourceGraphic" in2="effect1_dropShadow_25_3149" result="shape"/>
</filter>
<filter id="filter5_d_25_3149" x="256.21" y="103.34" width="232.98" height="58.08" filterUnits="userSpaceOnUse" color-interpolation-filters="sRGB">
<feFlood flood-opacity="0" result="BackgroundImageFix"/>
<feColorMatrix in="SourceAlpha" type="matrix" values="0 0 0 0 0 0 0 0 0 0 0 0 0 0 0 0 0 0 127 0" result="hardAlpha"/>
<feOffset dy="1.5"/>
<feGaussianBlur stdDeviation="1.5"/>
<feColorMatrix type="matrix" values="0 0 0 0 0 0 0 0 0 0.262745 0 0 0 0 0.235294 0 0 0 0.3 0"/>
<feBlend mode="normal" in2="BackgroundImageFix" result="effect1_dropShadow_25_3149"/>
<feBlend mode="normal" in="SourceGraphic" in2="effect1_dropShadow_25_3149" result="shape"/>
</filter>
<filter id="filter6_d_25_3149" x="512.42" y="103.34" width="232.98" height="58.08" filterUnits="userSpaceOnUse" color-interpolation-filters="sRGB">
<feFlood flood-opacity="0" result="BackgroundImageFix"/>
<feColorMatrix in="SourceAlpha" type="matrix" values="0 0 0 0 0 0 0 0 0 0 0 0 0 0 0 0 0 0 127 0" result="hardAlpha"/>
<feOffset dy="1.5"/>
<feGaussianBlur stdDeviation="1.5"/>
<feColorMatrix type="matrix" values="0 0 0 0 0 0 0 0 0 0.262745 0 0 0 0 0.235294 0 0 0 0.3 0"/>
<feBlend mode="normal" in2="BackgroundImageFix" result="effect1_dropShadow_25_3149"/>
<feBlend mode="normal" in="SourceGraphic" in2="effect1_dropShadow_25_3149" result="shape"/>
</filter>
<filter id="filter7_d_25_3149" x="768.63" y="103.34" width="232.98" height="58.08" filterUnits="userSpaceOnUse" color-interpolation-filters="sRGB">
<feFlood flood-opacity="0" result="BackgroundImageFix"/>
<feColorMatrix in="SourceAlpha" type="matrix" values="0 0 0 0 0 0 0 0 0 0 0 0 0 0 0 0 0 0 127 0" result="hardAlpha"/>
<feOffset dy="1.5"/>
<feGaussianBlur stdDeviation="1.5"/>
<feColorMatrix type="matrix" values="0 0 0 0 0 0 0 0 0 0.262745 0 0 0 0 0.235294 0 0 0 0.3 0"/>
<feBlend mode="normal" in2="BackgroundImageFix" result="effect1_dropShadow_25_3149"/>
<feBlend mode="normal" in="SourceGraphic" in2="effect1_dropShadow_25_3149" result="shape"/>
</filter>
<filter id="filter8_d_25_3149" x="0" y="206.18" width="232.98" height="58.08" filterUnits="userSpaceOnUse" color-interpolation-filters="sRGB">
<feFlood flood-opacity="0" result="BackgroundImageFix"/>
<feColorMatrix in="SourceAlpha" type="matrix" values="0 0 0 0 0 0 0 0 0 0 0 0 0 0 0 0 0 0 127 0" result="hardAlpha"/>
<feOffset dy="1.5"/>
<feGaussianBlur stdDeviation="1.5"/>
<feColorMatrix type="matrix" values="0 0 0 0 0 0 0 0 0 0.262745 0 0 0 0 0.235294 0 0 0 0.3 0"/>
<feBlend mode="normal" in2="BackgroundImageFix" result="effect1_dropShadow_25_3149"/>
<feBlend mode="normal" in="SourceGraphic" in2="effect1_dropShadow_25_3149" result="shape"/>
</filter>
<filter id="filter9_d_25_3149" x="256.21" y="206.18" width="232.98" height="58.08" filterUnits="userSpaceOnUse" color-interpolation-filters="sRGB">
<feFlood flood-opacity="0" result="BackgroundImageFix"/>
<feColorMatrix in="SourceAlpha" type="matrix" values="0 0 0 0 0 0 0 0 0 0 0 0 0 0 0 0 0 0 127 0" result="hardAlpha"/>
<feOffset dy="1.5"/>
<feGaussianBlur stdDeviation="1.5"/>
<feColorMatrix type="matrix" values="0 0 0 0 0 0 0 0 0 0.262745 0 0 0 0 0.235294 0 0 0 0.3 0"/>
<feBlend mode="normal" in2="BackgroundImageFix" result="effect1_dropShadow_25_3149"/>
<feBlend mode="normal" in="SourceGraphic" in2="effect1_dropShadow_25_3149" result="shape"/>
</filter>
<filter id="filter10_d_25_3149" x="512.42" y="206.18" width="232.98" height="58.08" filterUnits="userSpaceOnUse" color-interpolation-filters="sRGB">
<feFlood flood-opacity="0" result="BackgroundImageFix"/>
<feColorMatrix in="SourceAlpha" type="matrix" values="0 0 0 0 0 0 0 0 0 0 0 0 0 0 0 0 0 0 127 0" result="hardAlpha"/>
<feOffset dy="1.5"/>
<feGaussianBlur stdDeviation="1.5"/>
<feColorMatrix type="matrix" values="0 0 0 0 0 0 0 0 0 0.262745 0 0 0 0 0.235294 0 0 0 0.3 0"/>
<feBlend mode="normal" in2="BackgroundImageFix" result="effect1_dropShadow_25_3149"/>
<feBlend mode="normal" in="SourceGraphic" in2="effect1_dropShadow_25_3149" result="shape"/>
</filter>
<filter id="filter11_d_25_3149" x="768.63" y="206.18" width="232.98" height="58.08" filterUnits="userSpaceOnUse" color-interpolation-filters="sRGB">
<feFlood flood-opacity="0" result="BackgroundImageFix"/>
<feColorMatrix in="SourceAlpha" type="matrix" values="0 0 0 0 0 0 0 0 0 0 0 0 0 0 0 0 0 0 127 0" result="hardAlpha"/>
<feOffset dy="1.5"/>
<feGaussianBlur stdDeviation="1.5"/>
<feColorMatrix type="matrix" values="0 0 0 0 0 0 0 0 0 0.262745 0 0 0 0 0.235294 0 0 0 0.3 0"/>
<feBlend mode="normal" in2="BackgroundImageFix" result="effect1_dropShadow_25_3149"/>
<feBlend mode="normal" in="SourceGraphic" in2="effect1_dropShadow_25_3149" result="shape"/>
</filter>
<filter id="filter12_d_25_3149" x="0" y="309.03" width="232.98" height="58.08" filterUnits="userSpaceOnUse" color-interpolation-filters="sRGB">
<feFlood flood-opacity="0" result="BackgroundImageFix"/>
<feColorMatrix in="SourceAlpha" type="matrix" values="0 0 0 0 0 0 0 0 0 0 0 0 0 0 0 0 0 0 127 0" result="hardAlpha"/>
<feOffset dy="1.5"/>
<feGaussianBlur stdDeviation="1.5"/>
<feColorMatrix type="matrix" values="0 0 0 0 0 0 0 0 0 0.262745 0 0 0 0 0.235294 0 0 0 0.3 0"/>
<feBlend mode="normal" in2="BackgroundImageFix" result="effect1_dropShadow_25_3149"/>
<feBlend mode="normal" in="SourceGraphic" in2="effect1_dropShadow_25_3149" result="shape"/>
</filter>
<filter id="filter13_d_25_3149" x="256.21" y="309.03" width="232.98" height="58.08" filterUnits="userSpaceOnUse" color-interpolation-filters="sRGB">
<feFlood flood-opacity="0" result="BackgroundImageFix"/>
<feColorMatrix in="SourceAlpha" type="matrix" values="0 0 0 0 0 0 0 0 0 0 0 0 0 0 0 0 0 0 127 0" result="hardAlpha"/>
<feOffset dy="1.5"/>
<feGaussianBlur stdDeviation="1.5"/>
<feColorMatrix type="matrix" values="0 0 0 0 0 0 0 0 0 0.262745 0 0 0 0 0.235294 0 0 0 0.3 0"/>
<feBlend mode="normal" in2="BackgroundImageFix" result="effect1_dropShadow_25_3149"/>
<feBlend mode="normal" in="SourceGraphic" in2="effect1_dropShadow_25_3149" result="shape"/>
</filter>
<filter id="filter14_d_25_3149" x="512.42" y="309.03" width="232.98" height="58.08" filterUnits="userSpaceOnUse" color-interpolation-filters="sRGB">
<feFlood flood-opacity="0" result="BackgroundImageFix"/>
<feColorMatrix in="SourceAlpha" type="matrix" values="0 0 0 0 0 0 0 0 0 0 0 0 0 0 0 0 0 0 127 0" result="hardAlpha"/>
<feOffset dy="1.5"/>
<feGaussianBlur stdDeviation="1.5"/>
<feColorMatrix type="matrix" values="0 0 0 0 0 0 0 0 0 0.262745 0 0 0 0 0.235294 0 0 0 0.3 0"/>
<feBlend mode="normal" in2="BackgroundImageFix" result="effect1_dropShadow_25_3149"/>
<feBlend mode="normal" in="SourceGraphic" in2="effect1_dropShadow_25_3149" result="shape"/>
</filter>
<filter id="filter15_d_25_3149" x="768.63" y="309.03" width="232.98" height="58.08" filterUnits="userSpaceOnUse" color-interpolation-filters="sRGB">
<feFlood flood-opacity="0" result="BackgroundImageFix"/>
<feColorMatrix in="SourceAlpha" type="matrix" values="0 0 0 0 0 0 0 0 0 0 0 0 0 0 0 0 0 0 127 0" result="hardAlpha"/>
<feOffset dy="1.5"/>
<feGaussianBlur stdDeviation="1.5"/>
<feColorMatrix type="matrix" values="0 0 0 0 0 0 0 0 0 0.262745 0 0 0 0 0.235294 0 0 0 0.3 0"/>
<feBlend mode="normal" in2="BackgroundImageFix" result="effect1_dropShadow_25_3149"/>
<feBlend mode="normal" in="SourceGraphic" in2="effect1_dropShadow_25_3149" result="shape"/>
</filter>
</defs>
</svg>
