<svg width="286" height="102" viewBox="0 0 286 102" fill="none" xmlns="http://www.w3.org/2000/svg">
<path d="M57.1518 4.06667V6.2H53.9518V28.4333H57.1518V30.6H51.2852V4.06667H57.1518ZM78.5521 17.4V4.53333H81.5854V17.4H78.5521ZM76.8521 15.3333C76.1188 15.6889 75.0632 15.9667 73.6854 16.1667C72.3299 16.3667 70.8188 16.4667 69.1521 16.4667H59.0521V13.9667H62.1188V7.63333H59.1521V5.13333H75.8188V7.63333H72.8187V13.8C74.4188 13.6444 75.7632 13.3111 76.8521 12.8V15.3333ZM67.6188 13.9667C68.6854 13.9667 69.4632 13.9556 69.9521 13.9333V7.63333H64.9854V13.9667H67.6188ZM82.1521 29.8333H60.8188V23.2667H78.5854V21.0667H60.7854V18.7667H81.5854V25.3H63.8187V27.5333H82.1521V29.8333ZM97.0152 11.8C95.6597 13.7333 93.9708 15.2667 91.9486 16.4C89.9486 17.5333 87.8708 18.1111 85.7152 18.1333V15.1333C87.4263 15.1333 89.0708 14.6556 90.6486 13.7C92.2486 12.7444 93.6041 11.4444 94.7152 9.8C95.8263 8.13333 96.5486 6.3 96.8819 4.3L99.9819 4.83333C99.7152 6.3 99.2152 7.81111 98.4819 9.36667L108.949 15.4667L107.515 18.1L97.0152 11.8ZM98.8486 23.7V30.7333H95.7819V23.7H85.1486V20.7667H109.482V23.7H98.8486ZM119.737 7.43333V4.8H140.737V13.4667H137.704V7.43333H119.737ZM142.47 17.8333H118.137V15.2333H127.17V10.3333H130.204V15.2333H142.47V17.8333ZM130.304 20.1333C133.481 20.1333 136.059 20.5444 138.037 21.3667C140.037 22.1667 141.037 23.4222 141.037 25.1333C141.037 26.8444 140.048 28.1111 138.07 28.9333C136.092 29.7556 133.504 30.1667 130.304 30.1667C127.126 30.1667 124.537 29.7556 122.537 28.9333C120.559 28.1111 119.57 26.8444 119.57 25.1333C119.57 23.4 120.559 22.1333 122.537 21.3333C124.515 20.5333 127.104 20.1333 130.304 20.1333ZM130.304 27.6667C132.437 27.6667 134.226 27.4556 135.67 27.0333C137.137 26.5889 137.87 25.9556 137.87 25.1333C137.87 24.3333 137.137 23.7222 135.67 23.3C134.204 22.8556 132.415 22.6333 130.304 22.6333C128.148 22.6333 126.348 22.8444 124.904 23.2667C123.459 23.6667 122.737 24.2889 122.737 25.1333C122.737 25.9556 123.459 26.5889 124.904 27.0333C126.37 27.4556 128.17 27.6667 130.304 27.6667ZM168.867 20.0333H144.533V17.6H155.2V15.4333H146.3V4.8H167.3V6.93333H149.267V9.13333H166.867V11.1H149.267V13.3333H167.5V15.4333H158.2V17.6H168.867V20.0333ZM156.7 21.7C159.9 21.7 162.489 22.0444 164.467 22.7333C166.444 23.4222 167.433 24.5 167.433 25.9667C167.433 27.4333 166.444 28.5111 164.467 29.2C162.489 29.8889 159.9 30.2333 156.7 30.2333C153.522 30.2333 150.933 29.8889 148.933 29.2C146.956 28.5111 145.967 27.4333 145.967 25.9667C145.967 24.5 146.956 23.4222 148.933 22.7333C150.933 22.0444 153.522 21.7 156.7 21.7ZM156.7 27.9C158.856 27.9 160.656 27.7444 162.1 27.4333C163.544 27.1 164.267 26.6111 164.267 25.9667C164.267 25.3 163.533 24.8111 162.067 24.5C160.622 24.1667 158.833 24 156.7 24C154.544 24 152.733 24.1667 151.267 24.5C149.822 24.8111 149.1 25.3 149.1 25.9667C149.1 26.6111 149.822 27.1 151.267 27.4333C152.733 27.7444 154.544 27.9 156.7 27.9ZM178.955 8.3V5.4H200.322V22.3H197.255V8.3H178.955ZM201.855 28.9333H177.522V26.0333H182.155V15.8667H185.188V26.0333H189.755V15.8667H192.788V26.0333H201.855V28.9333ZM216.085 15.0333C212.907 15.0333 210.307 14.5889 208.285 13.7C206.263 12.7889 205.251 11.4444 205.251 9.66667C205.251 7.91111 206.263 6.58889 208.285 5.7C210.307 4.78889 212.907 4.33333 216.085 4.33333C219.263 4.33333 221.863 4.78889 223.885 5.7C225.907 6.58889 226.918 7.91111 226.918 9.66667C226.918 11.4444 225.907 12.7889 223.885 13.7C221.863 14.5889 219.263 15.0333 216.085 15.0333ZM216.085 6.83333C213.885 6.83333 212.051 7.08889 210.585 7.6C209.14 8.08889 208.418 8.77778 208.418 9.66667C208.418 10.6 209.14 11.3111 210.585 11.8C212.051 12.2889 213.885 12.5333 216.085 12.5333C218.285 12.5333 220.107 12.2889 221.551 11.8C222.996 11.3111 223.718 10.6 223.718 9.66667C223.718 8.77778 222.996 8.08889 221.551 7.6C220.107 7.08889 218.285 6.83333 216.085 6.83333ZM222.185 22.5667H226.585V30.1667H223.551V25.1667H205.385V22.5667H210.018V19.5H203.918V16.9H228.251V19.5H222.185V22.5667ZM212.985 19.5V22.5667H219.185V19.5H212.985ZM229.848 28.4333H233.015V6.2H229.848V4.06667H235.681V30.6H229.848V28.4333Z" fill="#333333"/>
<path d="M32.6979 72.6111V51.2222H40.7535V72.6111H32.6979ZM30.8646 70.2222C29.8275 70.6667 28.3461 71.037 26.4201 71.3333C24.4942 71.5926 22.5312 71.7222 20.5312 71.7222H1.97569V65.3333H5.80903V58.1667H2.30903V51.7222H29.5868V58.1667H25.9757V65.0556C27.8646 64.8333 29.4942 64.4444 30.8646 63.8889V70.2222ZM18.4201 65.3333V58.1667H13.3646V65.3333H15.5868H18.4201ZM41.1979 93.8889H4.47569V81.5H32.809V79.8333H4.42014V74.1111H40.7535V86.5H12.4201V88.1667H41.1979V93.8889ZM65.7476 65C63.3772 67.9259 60.4884 70.2222 57.0809 71.8889C53.7106 73.5185 50.155 74.3333 46.4143 74.3333V66.3333C49.0809 66.3333 51.6365 65.6667 54.0809 64.3333C56.5254 63 58.5809 61.1296 60.2476 58.7222C61.9143 56.3148 62.9513 53.5926 63.3587 50.5556L71.5254 51.8333C71.1921 54.0926 70.5439 56.3519 69.5809 58.6111L86.4143 67.2778L82.6365 74.3333L65.7476 65ZM70.1365 85.3333V94.8889H61.9143V85.3333H45.4698V77.5H86.5254V85.3333H70.1365ZM102.839 58.0556V51.2222H138.95V65.5556H130.895V58.0556H102.839ZM141.506 74.3333H100.45V67.5556H113.895V61.2222H121.95V67.5556H141.506V74.3333ZM121.006 76.5C126.784 76.5 131.302 77.2222 134.561 78.6667C137.858 80.1111 139.506 82.3704 139.506 85.4444C139.506 88.5185 137.858 90.7778 134.561 92.2222C131.302 93.6667 126.784 94.3889 121.006 94.3889C115.228 94.3889 110.691 93.6667 107.395 92.2222C104.098 90.7778 102.45 88.5185 102.45 85.4444C102.45 82.3704 104.098 80.1111 107.395 78.6667C110.691 77.2222 115.228 76.5 121.006 76.5ZM121.006 88C124.08 88 126.506 87.7963 128.284 87.3889C130.061 86.9444 130.95 86.2963 130.95 85.4444C130.95 84.6296 130.043 84 128.228 83.5556C126.413 83.1111 124.006 82.8889 121.006 82.8889C117.969 82.8889 115.543 83.1111 113.728 83.5556C111.913 84 111.006 84.6296 111.006 85.4444C111.006 86.2963 111.895 86.9444 113.673 87.3889C115.45 87.7963 117.895 88 121.006 88ZM185.5 78H144.444V71.8333H161V70H147V51.2222H183.056V56.4444H154.889V58.2778H182.333V63.0556H154.889V64.8333H183.5V70H169V71.8333H185.5V78ZM165 79.2222C170.778 79.2222 175.315 79.8519 178.611 81.1111C181.907 82.3333 183.556 84.2407 183.556 86.8333C183.556 89.463 181.907 91.3889 178.611 92.6111C175.315 93.8704 170.778 94.5 165 94.5C159.222 94.5 154.667 93.8704 151.333 92.6111C148.037 91.3889 146.389 89.463 146.389 86.8333C146.389 84.2407 148.037 82.3333 151.333 81.1111C154.667 79.8519 159.222 79.2222 165 79.2222ZM165 88.6667C171.704 88.6667 175.056 88.0556 175.056 86.8333C175.056 86.2407 174.148 85.7963 172.333 85.5C170.519 85.2037 168.074 85.0556 165 85.0556C161.889 85.0556 159.426 85.2037 157.611 85.5C155.796 85.7963 154.889 86.2407 154.889 86.8333C154.889 88.0556 158.259 88.6667 165 88.6667ZM201.536 59.9444V52.2222H238.314V80.3333H230.147V59.9444H201.536ZM240.48 92.3889H199.425V84.6667H205.647V69.8333H213.758V84.6667H217.98V69.8333H226.036V84.6667H240.48V92.3889ZM263.975 69.2222C258.345 69.2222 253.826 68.4444 250.419 66.8889C247.049 65.2963 245.363 62.9444 245.363 59.8333C245.363 56.7222 247.049 54.3889 250.419 52.8333C253.826 51.2778 258.345 50.5 263.975 50.5C269.604 50.5 274.104 51.2778 277.475 52.8333C280.882 54.3889 282.586 56.7222 282.586 59.8333C282.586 62.9444 280.882 65.2963 277.475 66.8889C274.104 68.4444 269.604 69.2222 263.975 69.2222ZM263.975 56.9444C260.901 56.9444 258.438 57.2037 256.586 57.7222C254.771 58.2407 253.863 58.9444 253.863 59.8333C253.863 60.7963 254.771 61.537 256.586 62.0556C258.401 62.537 260.863 62.7778 263.975 62.7778C267.086 62.7778 269.53 62.537 271.308 62.0556C273.123 61.537 274.03 60.7963 274.03 59.8333C274.03 58.9444 273.123 58.2407 271.308 57.7222C269.493 57.2037 267.049 56.9444 263.975 56.9444ZM275.586 80.6111H282.141V94.3889H273.975V87.2778H245.641V80.6111H252.363V77.3889H243.419V70.7222H284.475V77.3889H275.586V80.6111ZM260.252 77.3889V80.6111H267.641V77.3889H260.252Z" fill="#01A69F"/>
</svg>
