<svg width="792" height="499" viewBox="0 0 792 499" fill="none" xmlns="http://www.w3.org/2000/svg">
<rect width="587" height="36" transform="translate(103 461)" fill="#EBEBEB"/>
<path d="M152.684 474.8H150.595L150.418 472.2H152.684V470.689H155.44V483.356H152.684V479.4H150.418L150.595 476.8H152.684V474.8ZM150.106 475.822C150.106 476.83 149.892 477.719 149.462 478.489C149.032 479.244 148.425 479.837 147.64 480.267C146.869 480.681 145.966 480.889 144.929 480.889C143.906 480.889 143.003 480.681 142.218 480.267C141.447 479.837 140.847 479.244 140.418 478.489C139.988 477.719 139.773 476.83 139.773 475.822C139.773 474.83 139.988 473.948 140.418 473.178C140.847 472.407 141.447 471.815 142.218 471.4C143.003 470.97 143.906 470.756 144.929 470.756C145.966 470.756 146.869 470.97 147.64 471.4C148.425 471.815 149.032 472.407 149.462 473.178C149.892 473.948 150.106 474.83 150.106 475.822ZM142.551 475.822C142.551 476.637 142.766 477.274 143.195 477.733C143.625 478.193 144.203 478.422 144.929 478.422C145.655 478.422 146.232 478.193 146.662 477.733C147.092 477.274 147.306 476.637 147.306 475.822C147.306 475.007 147.092 474.37 146.662 473.911C146.232 473.452 145.655 473.222 144.929 473.222C144.203 473.222 143.625 473.452 143.195 473.911C142.766 474.37 142.551 475.007 142.551 475.822ZM155.706 487.689H141.329V481.822H144.173V485.044H155.706V487.689ZM174.504 477.133H172.482V483.333H169.682V470.689H172.482V474.289H174.504V477.133ZM167.326 473.556C167.326 475.156 166.919 476.504 166.104 477.6C165.289 478.696 164.163 479.519 162.726 480.067C161.289 480.6 159.63 480.867 157.749 480.867V478.244C159.097 478.23 160.274 478.059 161.282 477.733C162.289 477.393 163.067 476.911 163.615 476.289C164.178 475.652 164.46 474.896 164.46 474.022V473.511H157.749V470.956H167.326V473.556ZM172.793 485.044V487.689H158.371V481.933H161.237V485.044H172.793ZM180.407 479.867V470.911H183.163V472.711H192.007V470.911H194.763V479.867H180.407ZM192.007 475.289H183.163V477.244H192.007V475.289ZM189.03 484.044V488.156H186.141V484.044H179.407V481.333H195.763V484.044H189.03ZM212.072 476.578V479.933H209.272V470.689H212.072V473.733H214.094V476.578H212.072ZM208.383 478.667C207.938 478.859 207.331 479.015 206.561 479.133C205.79 479.252 204.968 479.311 204.094 479.311H197.427V470.956H207.383V473.4H200.227V476.867H204.227C205.072 476.867 205.857 476.815 206.583 476.711C207.324 476.607 207.924 476.459 208.383 476.267V478.667ZM212.072 480.644V487.689H197.961V480.644H212.072ZM209.272 485.244V483.089H200.783V485.244H209.272ZM227.047 476.422V473.2H215.603V470.756H229.892V476.422H227.047ZM214.603 479.622V477.2H230.958V479.622H214.603ZM215.603 487.689V480.867H229.958V487.689H215.603ZM227.158 483.2H218.38V485.378H227.158V483.2ZM247.217 475.978V477.333H237.528V475.978H247.217ZM247.217 481.111V482.467H237.528V481.111H247.217ZM262.182 473.467V474.978H253.538V473.467H257.049V470.644H258.649V473.467H262.182ZM269.382 487.756H267.871V479.267H265.005V487.467H263.493V470.778H265.005V477.689H267.871V470.689H269.382V487.756ZM257.938 476.467C258.664 476.467 259.308 476.674 259.871 477.089C260.449 477.489 260.893 478.081 261.205 478.867C261.531 479.637 261.693 480.57 261.693 481.667C261.693 482.763 261.531 483.704 261.205 484.489C260.893 485.274 260.449 485.874 259.871 486.289C259.308 486.689 258.664 486.889 257.938 486.889C256.827 486.889 255.931 486.43 255.249 485.511C254.568 484.593 254.227 483.311 254.227 481.667C254.227 480.022 254.568 478.748 255.249 477.844C255.931 476.926 256.827 476.467 257.938 476.467ZM257.938 485.4C258.605 485.4 259.145 485.067 259.56 484.4C259.975 483.733 260.182 482.822 260.182 481.667C260.182 480.511 259.975 479.6 259.56 478.933C259.145 478.267 258.605 477.933 257.938 477.933C257.271 477.933 256.731 478.267 256.316 478.933C255.916 479.585 255.716 480.496 255.716 481.667C255.716 482.837 255.916 483.756 256.316 484.422C256.731 485.074 257.271 485.4 257.938 485.4ZM288.424 475.933H286.069V480.133H284.469V470.689H286.069V474.311H288.424V475.933ZM283.18 478.289C282.662 478.541 281.921 478.733 280.958 478.867C279.995 479 278.906 479.067 277.691 479.067H272.091V471.156H281.98V472.6H273.691V477.644H277.78C278.965 477.644 280.024 477.578 280.958 477.444C281.906 477.296 282.647 477.096 283.18 476.844V478.289ZM279.447 480.756C281.506 480.756 283.165 481.044 284.424 481.622C285.684 482.185 286.313 483.059 286.313 484.244C286.313 485.43 285.684 486.304 284.424 486.867C283.165 487.43 281.506 487.711 279.447 487.711C277.387 487.711 275.728 487.43 274.469 486.867C273.21 486.304 272.58 485.43 272.58 484.244C272.58 483.059 273.21 482.185 274.469 481.622C275.728 481.044 277.387 480.756 279.447 480.756ZM279.447 486.311C280.973 486.311 282.217 486.133 283.18 485.778C284.143 485.422 284.624 484.911 284.624 484.244C284.624 483.563 284.143 483.044 283.18 482.689C282.217 482.333 280.973 482.156 279.447 482.156C277.921 482.156 276.676 482.333 275.713 482.689C274.75 483.044 274.269 483.563 274.269 484.244C274.269 484.911 274.75 485.422 275.713 485.778C276.676 486.133 277.921 486.311 279.447 486.311ZM299.061 476.667C297.624 476.667 296.476 476.4 295.617 475.867C294.772 475.333 294.35 474.615 294.35 473.711C294.35 472.807 294.772 472.089 295.617 471.556C296.476 471.022 297.624 470.756 299.061 470.756C300.483 470.756 301.617 471.022 302.461 471.556C303.32 472.089 303.75 472.807 303.75 473.711C303.75 474.615 303.32 475.333 302.461 475.867C301.617 476.4 300.483 476.667 299.061 476.667ZM304.639 474.578V473.067H307.039V470.689H308.639V479.956H307.039V474.578H304.639ZM299.061 472.044C298.113 472.044 297.35 472.2 296.772 472.511C296.209 472.807 295.928 473.207 295.928 473.711C295.928 474.23 296.209 474.644 296.772 474.956C297.35 475.252 298.113 475.4 299.061 475.4C300.009 475.4 300.765 475.252 301.328 474.956C301.906 474.644 302.194 474.23 302.194 473.711C302.194 473.207 301.906 472.807 301.328 472.511C300.75 472.2 299.994 472.044 299.061 472.044ZM309.083 487.489H295.017V483.667H307.039V482.156H294.972V480.956H298.128V479.222H293.483V477.911H300.039C302.661 477.911 304.506 477.681 305.572 477.222V478.533C305.069 478.756 304.328 478.926 303.35 479.044C302.372 479.163 301.246 479.222 299.972 479.222H299.728V480.956H308.639V484.756H296.594V486.289H309.083V487.489ZM316.476 472.911V471.333H330.498V482.6H328.853V472.911H316.476ZM331.631 486.889H315.453V485.311H321.653V477.489H323.298V485.311H331.631V486.889ZM349.229 480.178H333.051V478.8H336.718V476.511C335.873 476.259 335.214 475.911 334.74 475.467C334.266 475.022 334.029 474.481 334.029 473.844C334.029 472.763 334.695 471.956 336.029 471.422C337.362 470.874 339.066 470.6 341.14 470.6C343.214 470.6 344.91 470.874 346.229 471.422C347.562 471.956 348.229 472.763 348.229 473.844C348.229 474.481 347.992 475.022 347.518 475.467C347.044 475.911 346.384 476.259 345.54 476.511V478.8H349.229V480.178ZM341.14 471.978C339.569 471.978 338.266 472.133 337.229 472.444C336.207 472.756 335.695 473.222 335.695 473.844C335.695 474.467 336.207 474.933 337.229 475.244C338.251 475.556 339.555 475.711 341.14 475.711C342.71 475.711 344.007 475.556 345.029 475.244C346.051 474.933 346.562 474.467 346.562 473.844C346.562 473.222 346.044 472.756 345.007 472.444C343.984 472.133 342.695 471.978 341.14 471.978ZM343.94 478.8V476.867C343.14 477.015 342.207 477.089 341.14 477.089C340.088 477.089 339.147 477.015 338.318 476.867V478.8H343.94ZM341.14 481.667C343.244 481.667 344.947 481.904 346.251 482.378C347.555 482.837 348.207 483.607 348.207 484.689C348.207 485.77 347.555 486.548 346.251 487.022C344.947 487.511 343.244 487.756 341.14 487.756C339.036 487.756 337.325 487.511 336.007 487.022C334.703 486.548 334.051 485.77 334.051 484.689C334.051 483.607 334.703 482.837 336.007 482.378C337.325 481.904 339.036 481.667 341.14 481.667ZM341.14 486.4C342.681 486.4 343.962 486.267 344.984 486C346.007 485.733 346.518 485.296 346.518 484.689C346.518 484.096 346.007 483.674 344.984 483.422C343.962 483.156 342.681 483.022 341.14 483.022C339.599 483.022 338.31 483.156 337.273 483.422C336.251 483.674 335.74 484.096 335.74 484.689C335.74 485.296 336.251 485.733 337.273 486C338.31 486.267 339.599 486.4 341.14 486.4ZM364.16 487.756V470.689H365.738V487.756H364.16ZM356.226 471.089C357.175 471.089 358.026 471.319 358.782 471.778C359.538 472.222 360.123 472.852 360.538 473.667C360.967 474.481 361.182 475.407 361.182 476.444C361.182 477.467 360.967 478.385 360.538 479.2C360.108 480.015 359.515 480.652 358.76 481.111C358.019 481.556 357.175 481.778 356.226 481.778C355.263 481.778 354.404 481.556 353.649 481.111C352.893 480.652 352.3 480.022 351.871 479.222C351.441 478.407 351.226 477.481 351.226 476.444C351.226 475.407 351.441 474.481 351.871 473.667C352.3 472.852 352.893 472.222 353.649 471.778C354.404 471.319 355.263 471.089 356.226 471.089ZM356.226 472.622C355.204 472.622 354.375 472.985 353.737 473.711C353.115 474.422 352.804 475.333 352.804 476.444C352.804 477.541 353.115 478.452 353.737 479.178C354.375 479.889 355.204 480.244 356.226 480.244C357.234 480.244 358.049 479.889 358.671 479.178C359.308 478.452 359.626 477.541 359.626 476.444C359.626 475.348 359.308 474.437 358.671 473.711C358.049 472.985 357.234 472.622 356.226 472.622ZM362.693 485.867C362.16 486.133 361.397 486.341 360.404 486.489C359.412 486.622 358.286 486.689 357.026 486.689H350.649V485.111H357.138C358.352 485.111 359.441 485.044 360.404 484.911C361.382 484.763 362.145 484.556 362.693 484.289V485.867ZM369.424 479.4V471.267H383.246V479.4H369.424ZM371.024 472.8V477.844H381.646V472.8H371.024ZM377.157 483.2V488.156H375.513V483.2H368.246V481.6H384.424V483.2H377.157ZM403.683 487.756V470.689H405.305V487.756H403.683ZM391.216 486.689V471.356H400.35V486.689H391.216ZM398.727 472.933H392.816V485.111H398.727V472.933ZM424.792 475.444H422.436V479.089H420.836V470.689H422.436V473.889H424.792V475.444ZM419.547 477.578C419.029 477.83 418.288 478.022 417.325 478.156C416.362 478.289 415.273 478.356 414.058 478.356H408.458V471.156H418.347V472.6H410.058V476.933H414.147C415.332 476.933 416.392 476.867 417.325 476.733C418.273 476.585 419.014 476.385 419.547 476.133V477.578ZM422.881 486.2V487.489H409.014V483.2H420.836V481.378H408.969V480.089H422.436V484.4H410.658V486.2H422.881ZM438.878 483.378V470.689H440.5V483.378H438.878ZM430.745 470.889C431.782 470.889 432.686 471.104 433.456 471.533C434.226 471.948 434.812 472.533 435.212 473.289C435.626 474.03 435.834 474.874 435.834 475.822C435.834 476.77 435.626 477.622 435.212 478.378C434.812 479.119 434.226 479.704 433.456 480.133C432.686 480.548 431.782 480.756 430.745 480.756C429.708 480.756 428.804 480.548 428.034 480.133C427.263 479.704 426.671 479.119 426.256 478.378C425.841 477.622 425.634 476.77 425.634 475.822C425.634 474.874 425.841 474.03 426.256 473.289C426.671 472.533 427.263 471.948 428.034 471.533C428.804 471.104 429.708 470.889 430.745 470.889ZM430.745 472.311C429.693 472.311 428.849 472.63 428.212 473.267C427.575 473.904 427.256 474.756 427.256 475.822C427.256 476.889 427.575 477.741 428.212 478.378C428.849 479 429.693 479.311 430.745 479.311C431.797 479.311 432.641 479 433.278 478.378C433.915 477.741 434.234 476.889 434.234 475.822C434.234 474.756 433.915 473.904 433.278 473.267C432.641 472.63 431.797 472.311 430.745 472.311ZM440.967 485.956V487.489H427.056V481.978H428.678V485.956H440.967ZM456.609 470.689H458.209V484.067H456.609V482.8H451.52V481.511H456.609V470.689ZM448.831 477.356C447.394 477.356 446.239 477.067 445.365 476.489C444.491 475.896 444.054 475.081 444.054 474.044C444.054 473.022 444.491 472.222 445.365 471.644C446.254 471.052 447.409 470.756 448.831 470.756C450.254 470.756 451.402 471.052 452.276 471.644C453.15 472.222 453.587 473.022 453.587 474.044C453.587 475.096 453.15 475.911 452.276 476.489C451.417 477.067 450.268 477.356 448.831 477.356ZM448.831 472.111C447.868 472.111 447.091 472.281 446.498 472.622C445.92 472.948 445.631 473.422 445.631 474.044C445.631 474.681 445.92 475.17 446.498 475.511C447.091 475.852 447.868 476.022 448.831 476.022C449.78 476.022 450.543 475.852 451.12 475.511C451.713 475.17 452.009 474.681 452.009 474.044C452.009 473.422 451.713 472.948 451.12 472.622C450.543 472.281 449.78 472.111 448.831 472.111ZM443.054 480.089V478.689H449.609C452.32 478.689 454.165 478.459 455.143 478V479.4C454.165 479.859 452.202 480.089 449.254 480.089V483.289H447.654V480.089H443.054ZM458.676 487.489H444.565V482.356H446.187V486.022H458.676V487.489ZM470.913 480.2L466.179 487H464.335L469.957 479L464.69 471.444H466.535L470.957 477.756L475.357 471.444H477.135L471.868 478.956L477.535 487H475.646L470.913 480.2ZM483.819 479.711V471.022H485.396V473.6H496.063V471.022H497.641V479.711H483.819ZM496.063 475.089H485.396V478.2H496.063V475.089ZM491.552 483.2V488.156H489.907V483.2H482.641V481.644H498.819V483.2H491.552ZM514.838 475.933V479.978H513.238V470.689H514.838V474.311H517.194V475.933H514.838ZM511.95 478.289C511.431 478.541 510.69 478.733 509.727 478.867C508.764 479 507.675 479.067 506.461 479.067H500.861V471.156H510.75V472.6H502.461V477.622H506.55C507.735 477.622 508.794 477.556 509.727 477.422C510.675 477.289 511.416 477.096 511.95 476.844V478.289ZM514.838 480.978V487.489H501.394V480.978H514.838ZM513.238 486.044V482.422H503.016V486.044H513.238ZM531.281 487.756V470.689H532.903V487.756H531.281ZM527.569 475.356C527.569 477.622 527.206 479.607 526.481 481.311C525.755 483 524.718 484.311 523.369 485.244C522.036 486.178 520.458 486.644 518.636 486.644V485.044C520.132 485.044 521.429 484.652 522.525 483.867C523.621 483.081 524.458 481.97 525.036 480.533C525.629 479.081 525.925 477.378 525.925 475.422V472.889H518.636V471.356H527.569V475.356ZM543.212 477.533C542.471 478.689 541.463 479.607 540.189 480.289C538.93 480.97 537.5 481.378 535.9 481.511V479.956C537.678 479.793 539.182 479.2 540.412 478.178C541.656 477.156 542.412 475.859 542.678 474.289H536.323V472.733H542.656V470.467H544.278V472.733H550.723V474.289H544.412C544.293 475.059 544.123 475.704 543.9 476.222L551.078 480.2L550.367 481.578L543.212 477.533ZM551.612 486.889H535.434V485.333H542.7V481.2H544.3V485.333H551.612V486.889ZM568.543 481.222H567.009V476.311H564.076V481.044H562.565V470.778H564.076V474.733H567.009V470.689H568.543V481.222ZM557.054 480.733C555.868 480.733 554.95 480.289 554.298 479.4C553.661 478.511 553.343 477.304 553.343 475.778C553.343 474.267 553.661 473.067 554.298 472.178C554.95 471.289 555.868 470.844 557.054 470.844C558.239 470.844 559.15 471.289 559.787 472.178C560.439 473.067 560.765 474.267 560.765 475.778C560.765 477.304 560.439 478.511 559.787 479.4C559.15 480.289 558.239 480.733 557.054 480.733ZM557.054 472.267C556.357 472.267 555.817 472.57 555.431 473.178C555.046 473.785 554.854 474.652 554.854 475.778C554.854 476.904 555.046 477.77 555.431 478.378C555.817 478.985 556.357 479.289 557.054 479.289C557.75 479.289 558.291 478.985 558.676 478.378C559.061 477.77 559.254 476.904 559.254 475.778C559.254 474.652 559.061 473.785 558.676 473.178C558.291 472.57 557.75 472.267 557.054 472.267ZM568.543 482.222V487.711H566.943V483.689H554.543V482.222H568.543ZM580.913 480.2L576.179 487H574.335L579.957 479L574.69 471.444H576.535L580.957 477.756L585.357 471.444H587.135L581.868 478.956L587.535 487H585.646L580.913 480.2ZM600.107 487H598.419V472.867H594.774V471.444H600.107V487ZM617.425 487H606.492V485.867L612.936 479.511C613.751 478.711 614.299 478.022 614.581 477.444C614.862 476.867 615.003 476.274 615.003 475.667C615.003 474.763 614.692 474.052 614.07 473.533C613.447 473.015 612.558 472.756 611.403 472.756C609.581 472.756 608.188 473.348 607.225 474.533L606.003 473.644C606.595 472.889 607.358 472.311 608.292 471.911C609.24 471.496 610.321 471.289 611.536 471.289C613.107 471.289 614.358 471.674 615.292 472.444C616.24 473.2 616.714 474.23 616.714 475.533C616.714 476.333 616.529 477.104 616.158 477.844C615.803 478.57 615.136 479.407 614.158 480.356L608.936 485.556H617.425V487ZM634.832 487.756H633.276V479.267H630.209V487.467H628.676V470.778H630.209V477.689H633.276V470.689H634.832V487.756ZM626.409 471.356V475.844C626.409 477.978 626.128 479.859 625.565 481.489C625.017 483.119 624.239 484.385 623.232 485.289C622.224 486.193 621.061 486.644 619.743 486.644V485.067C620.78 485.052 621.683 484.659 622.454 483.889C623.224 483.119 623.817 482.052 624.232 480.689C624.661 479.311 624.876 477.726 624.876 475.933V472.889H619.743V471.356H626.409ZM642.518 476.667C641.081 476.667 639.933 476.4 639.074 475.867C638.229 475.333 637.807 474.615 637.807 473.711C637.807 472.807 638.229 472.089 639.074 471.556C639.933 471.022 641.081 470.756 642.518 470.756C643.94 470.756 645.074 471.022 645.918 471.556C646.777 472.089 647.207 472.807 647.207 473.711C647.207 474.615 646.777 475.333 645.918 475.867C645.074 476.4 643.94 476.667 642.518 476.667ZM648.096 474.578V473.067H650.496V470.689H652.096V479.956H650.496V474.578H648.096ZM642.518 472.044C641.57 472.044 640.807 472.2 640.229 472.511C639.666 472.807 639.385 473.207 639.385 473.711C639.385 474.23 639.666 474.644 640.229 474.956C640.807 475.252 641.57 475.4 642.518 475.4C643.466 475.4 644.222 475.252 644.785 474.956C645.363 474.644 645.651 474.23 645.651 473.711C645.651 473.207 645.363 472.807 644.785 472.511C644.207 472.2 643.451 472.044 642.518 472.044ZM652.54 487.489H638.474V483.667H650.496V482.156H638.429V480.956H641.585V479.222H636.94V477.911H643.496C646.118 477.911 647.963 477.681 649.029 477.222V478.533C648.526 478.756 647.785 478.926 646.807 479.044C645.829 479.163 644.703 479.222 643.429 479.222H643.185V480.956H652.096V484.756H640.051V486.289H652.54V487.489Z" fill="black"/>
<circle cx="192" cy="192" r="192" fill="#EBEBEB"/>
<path d="M274.06 213.764H273.981V128.921C273.981 128.799 273.981 128.677 273.955 128.557C273.955 128.537 273.955 128.515 273.955 128.495C273.929 128.414 273.929 128.312 273.904 128.232C273.904 128.192 273.878 128.13 273.852 128.09C273.827 128.03 273.827 127.969 273.801 127.908C273.775 127.847 273.748 127.787 273.722 127.725C273.696 127.685 273.696 127.645 273.671 127.605C273.645 127.543 273.593 127.482 273.568 127.422C273.542 127.38 273.514 127.34 273.489 127.3C273.437 127.24 273.412 127.178 273.36 127.138C273.334 127.098 273.309 127.057 273.281 127.017C273.23 126.976 273.204 126.915 273.153 126.875C273.101 126.835 273.075 126.793 273.022 126.753C272.971 126.713 272.945 126.673 272.894 126.632C272.842 126.591 272.789 126.53 272.737 126.49C272.712 126.45 272.66 126.428 272.609 126.408C272.556 126.368 272.479 126.308 272.427 126.268C272.401 126.246 272.35 126.226 272.297 126.186C272.22 126.146 272.142 126.105 272.091 126.065C272.038 126.044 271.986 126.023 271.961 126.003C271.884 125.963 271.804 125.923 271.753 125.903C271.676 125.883 271.625 125.841 271.545 125.821C271.494 125.801 271.417 125.781 271.366 125.761C271.261 125.72 271.158 125.7 271.053 125.679C271.028 125.679 271.002 125.659 270.95 125.659C270.82 125.618 270.666 125.598 270.535 125.578H270.51L248.874 122.033V87.1886C248.874 87.0665 248.874 86.946 248.848 86.8239C248.848 86.8038 248.848 86.7837 248.823 86.7419C248.797 86.6616 248.797 86.5596 248.771 86.4792C248.746 86.4189 248.746 86.3772 248.72 86.337C248.694 86.2767 248.694 86.2164 248.669 86.1747C248.643 86.1144 248.615 86.0541 248.589 85.9923C248.564 85.9521 248.564 85.912 248.538 85.8718C248.512 85.8099 248.461 85.7497 248.435 85.6693C248.41 85.6291 248.382 85.5874 248.356 85.5673C248.305 85.507 248.279 85.4467 248.228 85.3849C248.202 85.3447 248.176 85.3045 248.149 85.2844C248.097 85.2427 248.072 85.1824 248.02 85.1422C247.969 85.1021 247.943 85.0619 247.89 85.0201C247.838 84.98 247.813 84.9398 247.761 84.8996C247.71 84.8579 247.656 84.8177 247.605 84.7574C247.554 84.7172 247.528 84.6971 247.477 84.6755C247.423 84.6353 247.346 84.575 247.295 84.5348C247.243 84.5147 247.218 84.4946 247.164 84.4529C247.087 84.4127 247.036 84.3725 246.959 84.3323C246.905 84.3123 246.854 84.2906 246.802 84.2705C246.725 84.2303 246.672 84.2102 246.595 84.1701C246.518 84.15 246.466 84.1082 246.387 84.0881C246.336 84.0681 246.285 84.048 246.205 84.0279C246.103 83.9877 245.972 83.9676 245.869 83.9274C245.844 83.9274 245.818 83.9058 245.792 83.9058C245.636 83.8656 245.48 83.8455 245.326 83.8053L185.604 74.0402C185.474 74.0201 185.345 74 185.24 74C185.215 74 185.189 74 185.163 74C185.086 74 185.007 74 184.93 74C184.853 74 184.774 74 184.723 74C184.723 74 184.723 74 184.697 74C184.62 74 184.566 74 184.489 74C184.412 74 184.333 74 184.282 74C184.179 74 184.1 74.0201 183.997 74.0402C183.946 74.0402 183.894 74.0402 183.869 74.0603H183.841H183.815L134.665 81.5765C134.535 81.5966 134.432 81.6167 134.302 81.6368C134.276 81.6368 134.25 81.6368 134.224 81.6585C134.122 81.6786 134.017 81.7187 133.914 81.7388C133.888 81.7388 133.863 81.7589 133.809 81.7589C133.732 81.779 133.655 81.8192 133.604 81.8393C133.032 82.0634 132.54 82.3463 132.153 82.711C132.153 82.7311 132.125 82.7311 132.125 82.7512C132.099 82.7929 132.074 82.813 132.022 82.8532C131.738 83.1561 131.504 83.5008 131.348 83.8656C131.348 83.8857 131.323 83.9058 131.323 83.9058C131.297 83.9475 131.297 83.9877 131.271 84.0279C131.245 84.0881 131.22 84.1701 131.194 84.2303V84.2906C131.166 84.3926 131.141 84.473 131.141 84.575V84.6152C131.141 84.7172 131.115 84.8177 131.115 84.9197V111.742L113.988 114.376C113.86 114.396 113.729 114.416 113.601 114.456C113.575 114.456 113.575 114.456 113.55 114.476C113.419 114.496 113.316 114.538 113.186 114.578C113.16 114.578 113.134 114.598 113.109 114.598C113.03 114.618 112.953 114.659 112.875 114.679C112.358 114.881 111.891 115.166 111.502 115.49C111.476 115.51 111.45 115.55 111.399 115.571C111.373 115.591 111.345 115.631 111.32 115.673C110.984 116.016 110.725 116.421 110.569 116.847C110.543 116.928 110.517 116.988 110.492 117.07V117.11C110.466 117.212 110.44 117.312 110.44 117.414V117.435C110.414 117.535 110.414 117.657 110.414 117.759V213.784H110.335C107.9 213.784 105.931 215.324 105.931 217.228C105.931 219.132 107.9 220.671 110.335 220.671H274.086C276.521 220.671 278.49 219.132 278.49 217.228C278.464 215.304 276.495 213.764 274.06 213.764ZM183.22 118.224C183.556 118.326 183.946 118.387 184.307 118.407L265.172 131.676V143.183L164.073 126.591V115.084L183.22 118.224ZM265.172 161.092L164.073 144.5V132.385L265.172 148.977V161.092ZM265.172 166.886V178.878L164.073 162.408V150.294L265.172 166.886ZM164.073 168.201L265.172 184.693V196.807L164.073 180.337V168.201ZM265.172 202.602V213.764H164.073V186.11L265.172 202.602ZM189.075 112.147V81.6368L240.04 89.963V120.513L189.075 112.147ZM139.872 87.7559L180.267 81.5765V110.708L160.575 107.487C160.523 107.487 160.446 107.467 160.393 107.467C160.341 107.467 160.264 107.447 160.213 107.447C160.108 107.427 160.005 107.427 159.9 107.427C159.849 107.427 159.798 107.427 159.746 107.427C159.616 107.427 159.487 107.427 159.357 107.427C159.331 107.427 159.305 107.427 159.28 107.427C159.124 107.447 158.942 107.447 158.788 107.487L139.872 110.385V87.7559ZM119.197 120.574L135.675 118.042C136.116 118.022 136.557 117.962 136.944 117.839L155.263 115.023V126.571L125.596 131.373C123.627 131.696 122.384 133.195 122.773 134.714C123.135 136.051 124.637 136.983 126.321 136.983C126.555 136.983 126.814 136.963 127.047 136.923L155.237 132.365V144.479L125.57 149.28C123.601 149.605 122.358 151.104 122.747 152.623C123.109 153.96 124.611 154.892 126.296 154.892C126.529 154.892 126.788 154.872 127.021 154.832L155.212 150.274V162.408L125.544 167.209C123.576 167.534 122.332 169.033 122.722 170.552C123.083 171.889 124.586 172.821 126.27 172.821C126.503 172.821 126.762 172.801 126.995 172.761L155.186 168.201V180.317L125.519 185.118C123.55 185.443 122.307 186.942 122.694 188.461C123.058 189.798 124.56 190.73 126.244 190.73C126.478 190.73 126.736 190.71 126.97 190.668L155.263 186.11V213.764H119.197V120.574Z" fill="#01A69F"/>
<path d="M230.894 100.802L199.801 95.7976C197.832 95.4745 195.915 96.4668 195.527 98.0062C195.112 99.5457 196.381 101.045 198.35 101.349L229.443 106.352C229.702 106.393 229.935 106.414 230.168 106.414C231.852 106.414 233.355 105.482 233.718 104.145C234.131 102.625 232.862 101.127 230.894 100.802Z" fill="#01A69F"/>
<path d="M147.018 246.634C150.426 247.189 153.037 248.467 154.852 250.467C156.667 252.43 157.574 254.875 157.574 257.801C157.574 260.06 156.981 262.152 155.796 264.078C154.611 265.967 152.796 267.486 150.352 268.634C147.944 269.782 144.981 270.356 141.463 270.356C138.722 270.356 136.018 270.004 133.352 269.301C130.722 268.56 128.481 267.523 126.629 266.189L130.129 259.301C131.611 260.412 133.315 261.282 135.241 261.912C137.204 262.504 139.204 262.801 141.241 262.801C143.5 262.801 145.278 262.375 146.574 261.523C147.87 260.634 148.518 259.393 148.518 257.801C148.518 254.615 146.092 253.023 141.241 253.023H137.129V247.078L145.129 238.023H128.574V230.801H155.796V236.634L147.018 246.634ZM167.09 270.134C165.572 270.134 164.294 269.615 163.257 268.578C162.22 267.541 161.701 266.245 161.701 264.689C161.701 263.097 162.22 261.819 163.257 260.856C164.294 259.856 165.572 259.356 167.09 259.356C168.609 259.356 169.886 259.856 170.924 260.856C171.961 261.819 172.479 263.097 172.479 264.689C172.479 266.245 171.961 267.541 170.924 268.578C169.886 269.615 168.609 270.134 167.09 270.134ZM203.363 261.523V269.689H194.585V261.523H173.641V255.467L191.974 230.801H201.419L184.419 254.189H194.863V246.912H203.363V254.189H209.697V261.523H203.363ZM218.879 252.912C216.805 252.912 214.954 252.43 213.324 251.467C211.694 250.467 210.417 249.078 209.491 247.301C208.565 245.486 208.102 243.412 208.102 241.078C208.102 238.745 208.565 236.689 209.491 234.912C210.417 233.097 211.694 231.708 213.324 230.745C214.954 229.745 216.805 229.245 218.879 229.245C220.954 229.245 222.805 229.726 224.435 230.689C226.065 231.652 227.324 233.041 228.213 234.856C229.139 236.634 229.602 238.708 229.602 241.078C229.602 243.449 229.139 245.541 228.213 247.356C227.324 249.134 226.065 250.504 224.435 251.467C222.805 252.43 220.954 252.912 218.879 252.912ZM251.879 229.689L223.824 270.801H214.491L242.546 229.689H251.879ZM218.879 246.134C219.805 246.134 220.528 245.726 221.046 244.912C221.565 244.06 221.824 242.782 221.824 241.078C221.824 239.375 221.565 238.115 221.046 237.301C220.528 236.449 219.805 236.023 218.879 236.023C217.991 236.023 217.268 236.449 216.713 237.301C216.194 238.115 215.935 239.375 215.935 241.078C215.935 242.782 216.194 244.06 216.713 244.912C217.268 245.726 217.991 246.134 218.879 246.134ZM247.491 271.245C245.417 271.245 243.565 270.745 241.935 269.745C240.305 268.782 239.028 267.412 238.102 265.634C237.213 263.819 236.768 261.745 236.768 259.412C236.768 257.078 237.213 255.023 238.102 253.245C239.028 251.43 240.305 250.041 241.935 249.078C243.565 248.078 245.417 247.578 247.491 247.578C249.565 247.578 251.417 248.078 253.046 249.078C254.676 250.041 255.954 251.43 256.879 253.245C257.805 255.023 258.268 257.078 258.268 259.412C258.268 261.745 257.805 263.819 256.879 265.634C255.954 267.412 254.676 268.782 253.046 269.745C251.417 270.745 249.565 271.245 247.491 271.245ZM247.491 264.467C248.379 264.467 249.083 264.06 249.602 263.245C250.157 262.393 250.435 261.115 250.435 259.412C250.435 257.708 250.157 256.449 249.602 255.634C249.083 254.782 248.379 254.356 247.491 254.356C246.602 254.356 245.879 254.782 245.324 255.634C244.805 256.449 244.546 257.708 244.546 259.412C244.546 261.115 244.805 262.393 245.324 263.245C245.879 264.06 246.602 264.467 247.491 264.467Z" fill="#01A69F"/>
<path d="M137.231 311.262V309.795H151.031V315.595H149.409V311.262H137.231ZM144.964 321.062H151.075V326.595H149.453V322.507H137.098V321.062H143.364V318.107H136.075V316.64H152.253V318.107H144.964V321.062ZM168.273 318.218V326.618H166.673V309.551H168.273V316.618H170.629V318.218H168.273ZM163.051 310.218V314.218C163.051 316.469 162.703 318.447 162.006 320.151C161.31 321.855 160.303 323.173 158.984 324.107C157.666 325.04 156.103 325.507 154.295 325.507V323.907C155.792 323.907 157.073 323.514 158.14 322.729C159.221 321.944 160.043 320.825 160.606 319.373C161.169 317.921 161.451 316.225 161.451 314.284V311.751H154.295V310.218H163.051ZM189.11 318.884V309.551H190.732V318.884H189.11ZM176.465 317.418V310.018H186.021V317.418H176.465ZM178.065 311.44V315.995H184.443V311.44H178.065ZM183.643 323.84C182.902 324.625 181.925 325.24 180.71 325.684C179.495 326.129 178.213 326.351 176.865 326.351V324.907C177.813 324.907 178.732 324.773 179.621 324.507C180.525 324.225 181.295 323.832 181.932 323.329C182.569 322.825 182.984 322.247 183.176 321.595H176.976V320.173H183.154V318.395H184.799V320.173H190.999V321.595H184.865C184.821 321.995 184.702 322.351 184.51 322.662L191.354 325.195L190.865 326.595L183.643 323.84ZM212.724 326.618H211.102V309.551H212.724V326.618ZM204.457 311.773C204.443 313.818 204.272 315.707 203.946 317.44L209.346 324.395L208.08 325.395L203.435 319.307C202.902 321.144 202.176 322.603 201.257 323.684C200.339 324.751 199.272 325.373 198.057 325.551V323.884C199.035 323.677 199.88 323.032 200.591 321.951C201.302 320.855 201.85 319.432 202.235 317.684C202.62 315.921 202.828 313.951 202.857 311.773H198.413V310.218H208.769V311.773H204.457ZM229.855 318.218V326.618H228.255V309.551H229.855V316.618H232.211V318.218H229.855ZM221.788 311.773C221.759 313.921 221.596 315.818 221.3 317.462L226.611 324.418L225.344 325.395L220.788 319.373C220.255 321.195 219.537 322.64 218.633 323.707C217.729 324.758 216.677 325.373 215.477 325.551V323.884C216.44 323.677 217.27 323.032 217.966 321.951C218.663 320.855 219.196 319.432 219.566 317.684C219.951 315.936 220.159 313.966 220.188 311.773H215.833V310.218H226.033V311.773H221.788ZM237.786 313.729C237.771 315.092 237.69 316.403 237.542 317.662L241.497 324.595L240.231 325.373L237.119 319.84C236.764 321.529 236.238 322.855 235.542 323.818C234.845 324.781 233.986 325.358 232.964 325.551V323.951C234.031 323.669 234.831 322.632 235.364 320.84C235.912 319.047 236.201 316.677 236.231 313.729H233.119V312.218H236.231V309.507H237.786V312.218H240.853V313.729H237.786ZM248.364 326.618H246.831V309.551H248.364V326.618ZM244.119 309.64V326.329H242.608V318.129H240.231V316.551H242.608V309.64H244.119ZM159.179 331.24V329.795H173.023V335.595H171.423V331.24H159.179ZM174.245 338.307H158.068V336.884H164.312V333.395H165.934V336.884H174.245V338.307ZM166.156 340.04C168.216 340.04 169.905 340.314 171.223 340.862C172.556 341.395 173.223 342.21 173.223 343.307C173.223 344.418 172.556 345.247 171.223 345.795C169.905 346.329 168.216 346.595 166.156 346.595C164.097 346.595 162.401 346.329 161.068 345.795C159.734 345.247 159.068 344.418 159.068 343.307C159.068 342.166 159.727 341.336 161.045 340.818C162.364 340.299 164.068 340.04 166.156 340.04ZM166.156 345.218C167.638 345.218 168.905 345.055 169.956 344.729C171.008 344.403 171.534 343.929 171.534 343.307C171.534 342.699 171.001 342.232 169.934 341.907C168.882 341.581 167.623 341.418 166.156 341.418C164.645 341.418 163.364 341.573 162.312 341.884C161.275 342.195 160.756 342.669 160.756 343.307C160.756 343.929 161.282 344.403 162.334 344.729C163.401 345.055 164.675 345.218 166.156 345.218ZM176.776 331.24V329.795H190.621V335.595H189.021V331.24H176.776ZM191.843 338.307H175.665V336.884H181.91V333.395H183.532V336.884H191.843V338.307ZM183.754 340.04C185.813 340.04 187.502 340.314 188.821 340.862C190.154 341.395 190.821 342.21 190.821 343.307C190.821 344.418 190.154 345.247 188.821 345.795C187.502 346.329 185.813 346.595 183.754 346.595C181.695 346.595 179.999 346.329 178.665 345.795C177.332 345.247 176.665 344.418 176.665 343.307C176.665 342.166 177.325 341.336 178.643 340.818C179.962 340.299 181.665 340.04 183.754 340.04ZM183.754 345.218C185.236 345.218 186.502 345.055 187.554 344.729C188.606 344.403 189.132 343.929 189.132 343.307C189.132 342.699 188.599 342.232 187.532 341.907C186.48 341.581 185.221 341.418 183.754 341.418C182.243 341.418 180.962 341.573 179.91 341.884C178.873 342.195 178.354 342.669 178.354 343.307C178.354 343.929 178.88 344.403 179.932 344.729C180.999 345.055 182.273 345.218 183.754 345.218ZM206.707 346.618V329.551H208.33V346.618H206.707ZM202.996 334.218C202.996 336.484 202.633 338.469 201.907 340.173C201.181 341.862 200.144 343.173 198.796 344.107C197.463 345.04 195.885 345.507 194.063 345.507V343.907C195.559 343.907 196.855 343.514 197.952 342.729C199.048 341.944 199.885 340.832 200.463 339.395C201.055 337.944 201.352 336.24 201.352 334.284V331.751H194.063V330.218H202.996V334.218ZM227.816 335.929H225.505V342.529H223.883V329.551H225.505V334.351H227.816V335.929ZM211.683 331.351V329.862H220.772V336.484H219.172V331.351H211.683ZM222.438 338.929C221.475 339.388 219.609 339.618 216.838 339.618H210.861V338.151H214.238V333.907H215.838V338.151H216.905C219.572 338.151 221.416 337.921 222.438 337.462V338.929ZM225.994 344.884V346.351H212.061V341.418H213.661V344.884H225.994Z" fill="black"/>
<circle cx="600" cy="192" r="192" fill="#EBEBEB"/>
<path d="M555.018 246.634C558.426 247.19 561.037 248.467 562.852 250.467C564.667 252.43 565.574 254.875 565.574 257.801C565.574 260.06 564.981 262.153 563.796 264.078C562.611 265.967 560.796 267.486 558.352 268.634C555.944 269.782 552.981 270.356 549.463 270.356C546.722 270.356 544.018 270.004 541.352 269.301C538.722 268.56 536.481 267.523 534.629 266.19L538.129 259.301C539.611 260.412 541.315 261.282 543.241 261.912C545.204 262.504 547.204 262.801 549.241 262.801C551.5 262.801 553.278 262.375 554.574 261.523C555.87 260.634 556.518 259.393 556.518 257.801C556.518 254.616 554.092 253.023 549.241 253.023H545.129V247.078L553.129 238.023H536.574V230.801H563.796V236.634L555.018 246.634ZM575.09 270.134C573.572 270.134 572.294 269.616 571.257 268.578C570.22 267.541 569.701 266.245 569.701 264.69C569.701 263.097 570.22 261.819 571.257 260.856C572.294 259.856 573.572 259.356 575.09 259.356C576.609 259.356 577.886 259.856 578.924 260.856C579.961 261.819 580.479 263.097 580.479 264.69C580.479 266.245 579.961 267.541 578.924 268.578C577.886 269.616 576.609 270.134 575.09 270.134ZM605.308 269.69H596.308V238.023H588.53V230.801H605.308V269.69ZM626.879 252.912C624.805 252.912 622.954 252.43 621.324 251.467C619.694 250.467 618.417 249.078 617.491 247.301C616.565 245.486 616.102 243.412 616.102 241.078C616.102 238.745 616.565 236.69 617.491 234.912C618.417 233.097 619.694 231.708 621.324 230.745C622.954 229.745 624.805 229.245 626.879 229.245C628.954 229.245 630.805 229.727 632.435 230.69C634.065 231.653 635.324 233.041 636.213 234.856C637.139 236.634 637.602 238.708 637.602 241.078C637.602 243.449 637.139 245.541 636.213 247.356C635.324 249.134 634.065 250.504 632.435 251.467C630.805 252.43 628.954 252.912 626.879 252.912ZM659.879 229.69L631.824 270.801H622.491L650.546 229.69H659.879ZM626.879 246.134C627.805 246.134 628.528 245.727 629.046 244.912C629.565 244.06 629.824 242.782 629.824 241.078C629.824 239.375 629.565 238.116 629.046 237.301C628.528 236.449 627.805 236.023 626.879 236.023C625.991 236.023 625.268 236.449 624.713 237.301C624.194 238.116 623.935 239.375 623.935 241.078C623.935 242.782 624.194 244.06 624.713 244.912C625.268 245.727 625.991 246.134 626.879 246.134ZM655.491 271.245C653.417 271.245 651.565 270.745 649.935 269.745C648.305 268.782 647.028 267.412 646.102 265.634C645.213 263.819 644.768 261.745 644.768 259.412C644.768 257.078 645.213 255.023 646.102 253.245C647.028 251.43 648.305 250.041 649.935 249.078C651.565 248.078 653.417 247.578 655.491 247.578C657.565 247.578 659.417 248.078 661.046 249.078C662.676 250.041 663.954 251.43 664.879 253.245C665.805 255.023 666.268 257.078 666.268 259.412C666.268 261.745 665.805 263.819 664.879 265.634C663.954 267.412 662.676 268.782 661.046 269.745C659.417 270.745 657.565 271.245 655.491 271.245ZM655.491 264.467C656.379 264.467 657.083 264.06 657.602 263.245C658.157 262.393 658.435 261.116 658.435 259.412C658.435 257.708 658.157 256.449 657.602 255.634C657.083 254.782 656.379 254.356 655.491 254.356C654.602 254.356 653.879 254.782 653.324 255.634C652.805 256.449 652.546 257.708 652.546 259.412C652.546 261.116 652.805 262.393 653.324 263.245C653.879 264.06 654.602 264.467 655.491 264.467Z" fill="#01A69F"/>
<path d="M568.464 322.378V309.689H570.086V322.378H568.464ZM555.82 319.267V310.156H565.375V319.267H555.82ZM563.797 311.622H557.42V317.778H563.797V311.622ZM570.553 324.956V326.489H556.464V321.044H558.086V324.956H570.553ZM589.573 315.489H587.217V322.378H585.617V309.689H587.217V313.889H589.573V315.489ZM582.351 312.378C582.351 314.733 581.514 316.533 579.84 317.778C578.18 319.022 575.928 319.644 573.084 319.644V318.111C575.469 318.111 577.343 317.63 578.706 316.667C580.069 315.704 580.751 314.333 580.751 312.556V311.644H573.084V310.156H582.351V312.378ZM587.706 324.956V326.489H573.773V321.244H575.395V324.956H587.706ZM609.21 318.356V326.756H607.61V309.689H609.21V316.756H611.565V318.356H609.21ZM601.498 310.178C601.469 312.963 601.254 315.348 600.854 317.333L606.076 324.689L604.765 325.644L600.321 319.311C599.773 321.222 599.024 322.733 598.076 323.844C597.128 324.941 596.032 325.556 594.787 325.689V324.022C595.869 323.83 596.787 323.096 597.543 321.822C598.313 320.548 598.891 318.896 599.276 316.867C599.661 314.837 599.861 312.593 599.876 310.133L601.498 310.178ZM627.385 318.578H625.785V314.8H622.252C622.089 315.852 621.578 316.696 620.718 317.333C619.859 317.97 618.748 318.289 617.385 318.289C616.378 318.289 615.496 318.111 614.741 317.756C614 317.4 613.422 316.904 613.007 316.267C612.607 315.63 612.407 314.904 612.407 314.089C612.407 313.289 612.607 312.57 613.007 311.933C613.422 311.296 614 310.8 614.741 310.444C615.496 310.089 616.378 309.911 617.385 309.911C618.704 309.911 619.792 310.215 620.652 310.822C621.511 311.43 622.037 312.237 622.229 313.244H625.785V309.689H627.385V318.578ZM617.385 316.867C618.392 316.867 619.207 316.622 619.829 316.133C620.452 315.63 620.763 314.948 620.763 314.089C620.763 313.244 620.452 312.578 619.829 312.089C619.207 311.585 618.392 311.333 617.385 311.333C616.378 311.333 615.563 311.585 614.941 312.089C614.318 312.578 614.007 313.244 614.007 314.089C614.007 314.948 614.318 315.63 614.941 316.133C615.563 316.622 616.378 316.867 617.385 316.867ZM627.385 319.356V326.489H613.918V319.356H615.496V321.378H625.807V319.356H627.385ZM625.807 322.756H615.496V325.089H625.807V322.756ZM637.472 314.956C636.701 316.007 635.694 316.852 634.449 317.489C633.205 318.126 631.842 318.511 630.36 318.644V317.089C632.094 316.926 633.583 316.37 634.827 315.422C636.072 314.459 636.857 313.222 637.183 311.711H630.76V310.178H645.027V311.711H638.894C638.805 312.393 638.612 313.044 638.316 313.667L645.516 317.156L644.827 318.556L637.472 314.956ZM638.672 322.178V327.156H637.049V322.178H629.805V320.622H645.983V322.178H638.672Z" fill="black"/>
<path fill-rule="evenodd" clip-rule="evenodd" d="M647.687 217.68C647.687 219.513 646.2 221 644.366 221L612.838 221C611.004 221 609.517 219.513 609.517 217.68L609.517 179.674C609.517 177.84 611.004 176.353 612.838 176.353L644.366 176.353C646.2 176.353 647.687 177.84 647.687 179.674L647.687 217.68ZM641.046 214.359L641.046 182.994L616.158 182.994L616.158 214.359L641.046 214.359Z" fill="#01A69F"/>
<path fill-rule="evenodd" clip-rule="evenodd" d="M570.263 217.679C570.263 219.513 568.777 221 566.943 221L548.696 221C546.862 221 545.375 219.513 545.375 217.679L545.375 187.81C545.375 185.977 546.862 184.49 548.696 184.49L566.943 184.49C568.777 184.49 570.263 185.977 570.263 187.81L570.263 217.679ZM563.623 214.359L563.623 191.131L552.016 191.131L552.016 214.359L563.623 214.359Z" fill="#01A69F"/>
<path fill-rule="evenodd" clip-rule="evenodd" d="M674.206 217.679C674.206 219.513 672.72 221 670.886 221L586.318 221C584.485 221 582.998 219.513 582.998 217.679L582.998 54.3202C582.998 52.4865 584.485 50.9999 586.318 50.9999L670.886 50.9999C672.72 50.9999 674.206 52.4865 674.206 54.3202L674.206 217.679ZM667.565 214.359L667.565 57.6405L589.639 57.6405L589.639 214.359L667.565 214.359Z" fill="#01A69F"/>
<path fill-rule="evenodd" clip-rule="evenodd" d="M603.446 143.313C603.446 141.48 604.933 139.993 606.767 139.993H650.437C652.271 139.993 653.758 141.48 653.758 143.313V163.895C653.758 165.729 652.271 167.215 650.437 167.215H606.767C604.933 167.215 603.446 165.729 603.446 163.895V143.313ZM610.087 146.634V160.575H647.117V146.634H610.087Z" fill="#01A69F"/>
<path fill-rule="evenodd" clip-rule="evenodd" d="M603.446 107.858C603.446 106.024 604.933 104.537 606.767 104.537H650.437C652.271 104.537 653.758 106.024 653.758 107.858V128.439C653.758 130.273 652.271 131.76 650.437 131.76H606.767C604.933 131.76 603.446 130.273 603.446 128.439V107.858ZM610.087 111.178V125.119H647.117V111.178H610.087Z" fill="#01A69F"/>
<path fill-rule="evenodd" clip-rule="evenodd" d="M603.446 72.4014C603.446 70.5676 604.933 69.0811 606.767 69.0811H650.437C652.271 69.0811 653.758 70.5676 653.758 72.4014V92.983C653.758 94.8167 652.271 96.3033 650.437 96.3033H606.767C604.933 96.3033 603.446 94.8167 603.446 92.983V72.4014ZM610.087 75.7217V89.6627H647.117V75.7217H610.087Z" fill="#01A69F"/>
<path fill-rule="evenodd" clip-rule="evenodd" d="M589.639 217.679C589.639 219.513 588.152 221 586.318 221L529.32 221C527.487 221 526 219.513 526 217.679L526 92.9829C526 91.1491 527.487 89.6626 529.32 89.6626L586.318 89.6626C588.152 89.6626 589.639 91.1491 589.639 92.9829L589.639 217.679ZM582.998 214.359L582.998 96.3032L532.641 96.3032L532.641 214.359L582.998 214.359Z" fill="#01A69F"/>
<path fill-rule="evenodd" clip-rule="evenodd" d="M576.145 92.983C576.145 94.8168 574.658 96.3033 572.824 96.3033L542.814 96.3033C540.981 96.3033 539.494 94.8168 539.494 92.983L539.494 78.2053C539.494 76.3716 540.981 74.885 542.814 74.885L572.824 74.885C574.658 74.885 576.145 76.3716 576.145 78.2053L576.145 92.983ZM569.504 89.6627L569.504 81.5256L546.135 81.5256L546.135 89.6627L569.504 89.6627Z" fill="#01A69F"/>
<path fill-rule="evenodd" clip-rule="evenodd" d="M557.819 64.9523C559.653 64.9523 561.139 66.4388 561.139 68.2726V77.089C561.139 78.9228 559.653 80.4093 557.819 80.4093C555.985 80.4093 554.499 78.9228 554.499 77.089V68.2726C554.499 66.4388 555.985 64.9523 557.819 64.9523Z" fill="#01A69F"/>
<path fill-rule="evenodd" clip-rule="evenodd" d="M542.567 169.055C542.567 167.221 544.053 165.734 545.887 165.734H569.751C571.585 165.734 573.072 167.221 573.072 169.055C573.072 170.888 571.585 172.375 569.751 172.375H545.887C544.053 172.375 542.567 170.888 542.567 169.055Z" fill="#01A69F"/>
<path fill-rule="evenodd" clip-rule="evenodd" d="M542.567 149.42C542.567 147.586 544.053 146.1 545.887 146.1H569.751C571.585 146.1 573.072 147.586 573.072 149.42C573.072 151.254 571.585 152.74 569.751 152.74H545.887C544.053 152.74 542.567 151.254 542.567 149.42Z" fill="#01A69F"/>
<path fill-rule="evenodd" clip-rule="evenodd" d="M542.567 129.786C542.567 127.952 544.053 126.465 545.887 126.465H569.751C571.585 126.465 573.072 127.952 573.072 129.786C573.072 131.619 571.585 133.106 569.751 133.106H545.887C544.053 133.106 542.567 131.619 542.567 129.786Z" fill="#01A69F"/>
<path fill-rule="evenodd" clip-rule="evenodd" d="M542.567 110.151C542.567 108.317 544.053 106.831 545.887 106.831H569.751C571.585 106.831 573.072 108.317 573.072 110.151C573.072 111.985 571.585 113.471 569.751 113.471H545.887C544.053 113.471 542.567 111.985 542.567 110.151Z" fill="#01A69F"/>
</svg>
