<svg width="570" height="65" viewBox="0 0 570 65" fill="none" xmlns="http://www.w3.org/2000/svg">
<path d="M36.508 20.9389H31.6191L31.0691 12.75H36.508V9.14444H45.1858V43.9167H36.508V33.5889H31.0691L31.6191 25.4H36.508V20.9389ZM30.2747 23.2611C30.2747 26.0722 29.6636 28.537 28.4413 30.6556C27.2599 32.7741 25.5691 34.4241 23.3691 35.6056C21.2099 36.7463 18.7043 37.3167 15.8525 37.3167C13.0413 37.3167 10.5562 36.7463 8.3969 35.6056C6.23764 34.4241 4.5469 32.7741 3.32467 30.6556C2.14319 28.537 1.55245 26.0722 1.55245 23.2611C1.55245 20.45 2.14319 17.9852 3.32467 15.8667C4.5469 13.7481 6.23764 12.1185 8.3969 10.9778C10.5562 9.79629 13.0413 9.20555 15.8525 9.20555C18.7043 9.20555 21.2099 9.79629 23.3691 10.9778C25.5691 12.1185 27.2599 13.7481 28.4413 15.8667C29.6636 17.9852 30.2747 20.45 30.2747 23.2611ZM10.2302 23.2611C10.2302 25.2574 10.7395 26.8259 11.758 27.9667C12.8173 29.0667 14.1821 29.6167 15.8525 29.6167C17.5636 29.6167 18.9284 29.0667 19.9469 27.9667C20.9654 26.8259 21.4747 25.2574 21.4747 23.2611C21.4747 21.2648 20.9654 19.7167 19.9469 18.6167C18.9284 17.5167 17.5636 16.9667 15.8525 16.9667C14.1413 16.9667 12.7765 17.5167 11.758 18.6167C10.7395 19.7167 10.2302 21.2648 10.2302 23.2611ZM45.7969 56.0778H5.83023V39.6389H14.7525V47.7667H45.7969V56.0778ZM94.6182 56.0778H86.4293V9.14444H94.6182V56.0778ZM83.1293 9.32778V55.2833H75.0627V42.5111H66.7516C64.9997 46.1778 62.7386 48.9889 59.9682 50.9444C57.1979 52.8593 54.1627 53.837 50.8627 53.8778V45.2C54.2442 44.9148 56.9127 43.0204 58.8682 39.5167C60.8238 36.013 61.8016 31.0426 61.8016 24.6056V18.6167H50.8627V10.2444H70.2349V19.1056H75.0627V9.32778H83.1293ZM75.0627 27.7222H70.1127C69.9905 29.637 69.7664 31.6944 69.4405 33.8944H75.0627V27.7222ZM100.967 18.8611V10.2444H141.301V41.1667H132.073V18.8611H100.967ZM143.745 54.4278H98.584V45.75H113.128V27.4167H122.295V45.75H143.745V54.4278ZM192.139 36.7056H146.978V29.6167H155.289V25.2778C151.215 23.6481 149.178 21.1833 149.178 17.8833C149.178 14.6241 151.011 12.2204 154.678 10.6722C158.385 9.12407 163.355 8.35 169.589 8.35C175.822 8.35 180.772 9.12407 184.439 10.6722C188.105 12.2204 189.939 14.6241 189.939 17.8833C189.939 21.1426 187.922 23.6074 183.889 25.2778V29.6167H192.139V36.7056ZM169.589 15.3167C166.126 15.3167 163.416 15.5407 161.461 15.9889C159.546 16.3963 158.589 17.0278 158.589 17.8833C158.589 19.5944 162.255 20.45 169.589 20.45C176.881 20.45 180.528 19.5944 180.528 17.8833C180.528 17.0278 179.57 16.3963 177.655 15.9889C175.741 15.5407 173.052 15.3167 169.589 15.3167ZM175.089 29.6167V27.1722C173.622 27.3352 171.789 27.4167 169.589 27.4167C167.389 27.4167 165.555 27.3352 164.089 27.1722V29.6167H175.089ZM169.589 38.2944C183.155 38.2944 189.939 41.35 189.939 47.4611C189.939 53.5722 183.155 56.6278 169.589 56.6278C155.981 56.6278 149.178 53.5722 149.178 47.4611C149.178 41.35 155.981 38.2944 169.589 38.2944ZM169.589 49.7222C176.881 49.7222 180.528 48.9685 180.528 47.4611C180.528 45.9537 176.881 45.2 169.589 45.2C162.255 45.2 158.589 45.9537 158.589 47.4611C158.589 48.9685 162.255 49.7222 169.589 49.7222ZM210.084 34.5056V9.69444H218.762V13.9111H241.373V9.69444H250.051V34.5056H210.084ZM241.373 21.9778H218.762V26.3167H241.373V21.9778ZM234.589 46.6667V57.1778H225.545V46.6667H207.456V38.1722H252.617V46.6667H234.589ZM297.772 25.95V34.5667H288.972V9.14444H297.772V16.9667H303.027V25.95H297.772ZM286.894 31.45C285.753 31.9796 284.205 32.387 282.25 32.6722C280.335 32.9574 278.318 33.1 276.2 33.1H256.827V9.69444H284.327V17.3333H265.689V25.4611H276.566C278.603 25.4611 280.539 25.3389 282.372 25.0944C284.205 24.8093 285.713 24.4222 286.894 23.9333V31.45ZM297.772 36.2167V56.0778H258.355V36.2167H297.772ZM288.972 48.4389V43.8556H267.216V48.4389H288.972ZM337.671 24.7278V16.7833H306.871V9.14444H346.593V24.7278H337.671ZM304.243 34.0778V26.5H349.404V34.0778H304.243ZM306.871 56.0778V36.8889H346.838V56.0778H306.871ZM338.038 44.1611H315.61V48.8667H338.038V44.1611ZM406.644 25.95V34.5667H397.844V9.14444H406.644V16.9667H411.899V25.95H406.644ZM392.161 16.05C392.161 22.2019 389.757 26.7444 384.949 29.6778C380.183 32.5704 373.725 34.0167 365.577 34.0167V26.1944C370.914 26.113 375.172 25.3593 378.349 23.9333C381.527 22.4667 383.116 20.5111 383.116 18.0667V17.3944H365.577V9.69444H392.161V16.05ZM406.644 36.2167V56.0778H367.227V36.2167H406.644ZM397.844 48.4389V43.8556H376.088V48.4389H397.844ZM443.121 32.6111V24.4222H447.826V20.7556H443.121V12.5667H447.826V9.14444H456.504V43.9167H447.826V32.6111H443.121ZM414.399 36.4V9.69444H440.982V36.4H414.399ZM423.076 17.5167V28.5167H432.304V17.5167H423.076ZM457.115 56.0778H416.599V39.6389H425.582V47.7667H457.115V56.0778ZM508.183 9.14444H516.983V32.4278H508.183V22.9556H502.194V15.3778H508.183V9.14444ZM489.422 25.95C487.629 27.9463 485.429 29.5759 482.822 30.8389C480.255 32.1019 477.464 32.7741 474.449 32.8556V25.1556C477.097 24.9926 479.359 24.137 481.233 22.5889C483.107 21 484.329 19.1463 484.899 17.0278H474.999V9.69444H503.477V17.0278H493.76C493.679 17.5981 493.475 18.4537 493.149 19.5944L504.944 25.6444L501.277 32.3667L489.422 25.95ZM517.472 56.0778H477.077V42.3278H508.244V40.6167H477.016V34.0778H516.983V47.8278H485.877V49.5389H517.472V56.0778ZM542.337 23.3222C542.215 25.9704 541.91 28.8426 541.421 31.9389L553.948 47.8278L547.348 53.8778L538.304 41.7778C536.511 45.6481 534.23 48.6222 531.46 50.7C528.73 52.7778 525.695 53.837 522.354 53.8778V44.7722C525.532 44.4463 528.098 42.3481 530.054 38.4778C532.01 34.6074 533.13 29.5556 533.415 23.3222H523.332V14.7667H533.415V8.96111H542.46V14.7667H551.993V23.3222H542.337ZM563.91 35.3V56.0778H555.11V9.14444H563.91V26.3167H569.165V35.3H563.91Z" fill="#01A69F"/>
<path d="M0.208008 60.8444H568.798V63.5944H0.208008V60.8444Z" fill="#01A69F"/>
</svg>
