<svg width="996" height="274" viewBox="0 0 996 274" fill="none" xmlns="http://www.w3.org/2000/svg">
<rect width="996" height="274" rx="30" fill="#EBEBEB"/>
<path d="M165.806 105.325L193.378 140.374L208.381 127.463L182.935 94.4106L165.806 105.325Z" fill="#6289FA"/>
<path d="M107.591 105.304L77.3213 142.181L62.3186 129.271L90.4624 94.4106L107.591 105.304Z" fill="#6289FA"/>
<path d="M193.378 140.375L165.806 105.325H143.486L126.06 110.357L107.591 105.304L77.321 142.182L92.2808 162.341L90.6999 163.923C87.7493 166.873 87.7493 171.655 90.6999 174.605C93.2423 177.148 97.1452 177.497 100.065 175.656L100.052 176.009C97.1023 178.959 97.1023 183.741 100.052 186.692C102.99 189.63 107.745 189.64 110.698 186.726L110.695 186.755C107.744 189.705 107.744 194.487 110.695 197.438C113.644 200.388 118.427 200.388 121.377 197.438L122.824 195.991L122.817 196.126C119.867 199.076 119.867 203.859 122.817 206.809C125.767 209.759 130.55 209.759 133.5 206.809L137.023 203.285C137.409 202.9 137.9 202.214 138.456 201.312C138.091 202.025 137.615 202.693 137.023 203.285L137.003 203.305L139.879 205.621C142.829 208.572 147.611 208.572 150.562 205.621C153.512 202.671 153.512 197.888 150.562 194.939L150.573 194.928C153.522 197.878 158.305 197.878 161.255 194.928C164.205 191.978 164.205 187.195 161.255 184.245L161.266 184.234C164.216 187.184 168.999 187.184 171.949 184.234C174.898 181.285 174.898 176.502 171.949 173.552L171.959 173.541C174.91 176.491 179.692 176.491 182.642 173.541C185.592 170.591 185.592 165.809 182.642 162.858L193.378 140.375Z" fill="#FCC89D"/>
<path d="M210.742 125.648L185.297 92.5945C184.356 91.372 182.638 91.0704 181.335 91.8986L164.907 102.347H143.481C143.204 102.347 142.928 102.406 142.661 102.483L126.049 107.265L108.811 102.551L92.0616 91.8986C90.7811 91.0844 89.0947 91.3604 88.1425 92.5411L59.9987 127.402C58.9873 128.654 59.1543 130.483 60.3745 131.533L75.1255 144.228L88.3594 162.061C84.4889 166.185 84.5643 172.688 88.5913 176.716C90.3763 178.5 92.6462 179.508 94.9809 179.742C94.8998 180.271 94.858 180.808 94.858 181.353C94.858 184.167 95.9541 186.813 97.9432 188.802C99.9335 190.792 102.579 191.888 105.393 191.888C105.431 191.888 105.468 191.886 105.505 191.885C105.504 191.957 105.501 192.027 105.501 192.099C105.501 194.913 106.597 197.559 108.586 199.549C110.576 201.538 113.222 202.634 116.036 202.634C116.591 202.634 117.141 202.589 117.68 202.505C117.909 204.848 118.919 207.129 120.71 208.919C122.763 210.973 125.461 212 128.158 212C130.856 212 133.554 210.973 135.608 208.919L137.219 207.308L137.895 207.854C139.932 209.826 142.577 210.812 145.221 210.812C147.919 210.812 150.617 209.786 152.67 207.732C154.765 205.636 155.792 202.87 155.749 200.117C158.5 200.159 161.268 199.134 163.363 197.039C165.457 194.944 166.483 192.18 166.443 189.429C169.309 189.475 172.028 188.374 174.056 186.345C176.152 184.249 177.178 181.483 177.136 178.731C179.889 178.773 182.654 177.747 184.75 175.651C188.327 172.074 188.787 166.545 186.135 162.464L195.798 142.227L210.325 129.726C211.525 128.693 211.708 126.902 210.742 125.648ZM91.1082 98.3578L103.152 106.016L76.9522 137.935L66.4533 128.899L91.1082 98.3578ZM92.8074 166.033L96.4424 162.398C96.5526 162.288 96.6685 162.183 96.7868 162.086C97.4978 161.506 98.3584 161.16 99.2701 161.078C99.2956 161.076 99.3223 161.076 99.3478 161.074C99.4777 161.064 99.6076 161.057 99.7387 161.058C100.984 161.076 102.142 161.585 103 162.491C104.684 164.271 104.594 167.18 102.798 168.975L99.2736 172.5C97.4909 174.283 94.5901 174.283 92.8074 172.5C91.0247 170.716 91.0247 167.815 92.8074 166.033ZM102.159 184.586C101.295 183.723 100.82 182.575 100.82 181.353C100.82 180.132 101.295 178.984 102.159 178.12L109.208 171.071C110.558 169.721 112.68 169.351 114.406 170.173C116.185 171.021 117.186 172.952 116.925 174.895C116.786 175.932 116.304 176.909 115.564 177.65L108.627 184.586C107.763 185.45 106.614 185.925 105.393 185.925C104.172 185.925 103.023 185.45 102.159 184.586ZM112.802 195.332C111.938 194.469 111.462 193.321 111.462 192.099C111.462 190.878 111.938 189.73 112.802 188.866L119.849 181.817C121.293 180.374 123.61 180.063 125.377 181.092C126.992 182.032 127.837 183.876 127.56 185.713C127.408 186.723 126.928 187.673 126.205 188.396L119.269 195.332C118.405 196.196 117.257 196.671 116.036 196.671C114.814 196.671 113.666 196.196 112.802 195.332ZM124.925 204.703C123.142 202.921 123.142 200.02 124.925 198.237L128.56 194.602C128.67 194.492 128.785 194.389 128.903 194.291C128.907 194.289 128.909 194.287 128.911 194.284C129.503 193.804 130.198 193.483 130.939 193.343C130.956 193.34 130.973 193.338 130.991 193.336C131.118 193.312 131.248 193.294 131.378 193.282C131.43 193.278 131.483 193.278 131.536 193.274C131.643 193.268 131.748 193.261 131.856 193.263C133.101 193.28 134.259 193.788 135.118 194.695C135.223 194.806 135.322 194.922 135.412 195.042C136.783 196.834 136.599 199.496 134.897 201.198L131.391 204.705C129.608 206.487 126.708 206.486 124.925 204.703ZM180.534 171.435C178.751 173.219 175.85 173.218 174.068 171.435C174.003 171.37 173.934 171.31 173.865 171.253L154.697 151.884C153.538 150.713 151.651 150.704 150.481 151.863C149.311 153.02 149.301 154.907 150.459 156.078L169.834 175.655C169.837 175.657 169.839 175.66 169.841 175.662C171.624 177.445 171.624 180.346 169.841 182.129C168.977 182.993 167.829 183.469 166.608 183.469C165.385 183.469 164.237 182.993 163.374 182.129L150.413 169.033C149.255 167.863 147.368 167.854 146.198 169.011C145.027 170.17 145.018 172.057 146.176 173.227L158.939 186.123C159.004 186.204 159.073 186.281 159.147 186.356C160.93 188.138 160.93 191.04 159.147 192.823C157.364 194.606 154.462 194.605 152.679 192.822L145.605 185.674C144.446 184.503 142.559 184.493 141.389 185.652C140.219 186.809 140.209 188.696 141.367 189.867L148.244 196.814C148.309 196.895 148.378 196.974 148.454 197.048C150.236 198.831 150.236 201.733 148.454 203.516C146.671 205.3 143.77 205.298 141.987 203.516C141.782 203.31 141.541 203.153 141.311 202.976C141.116 202.828 141.065 202.725 141.163 202.488C141.261 202.248 141.409 202.031 141.507 201.79C141.616 201.521 141.704 201.244 141.79 200.965C142.247 199.492 142.382 197.908 142.176 196.379C141.782 193.446 140.169 190.799 137.724 189.124C136.403 188.221 134.874 187.628 133.29 187.405C134.057 184.019 133.135 180.346 130.737 177.812C128.763 175.727 126.096 174.557 123.228 174.517C123.124 174.516 123.019 174.516 122.914 174.517C122.977 171.78 121.982 169.06 120.095 167.066C118.12 164.981 115.453 163.81 112.586 163.771C111.734 163.759 110.873 163.85 110.043 164.041C109.688 161.572 108.443 159.287 106.559 157.653C104.685 156.031 102.33 155.131 99.821 155.097C97.18 155.058 94.5854 156.033 92.6241 157.804L81.101 142.277L108.668 108.692L117.454 111.095L105.98 131.343C104.593 133.791 104.242 136.633 104.993 139.345C105.743 142.057 107.504 144.315 109.952 145.702C110.105 145.789 110.26 145.871 110.416 145.95C110.428 145.956 110.439 145.962 110.452 145.967C110.864 146.173 111.287 146.349 111.716 146.497C113.715 147.19 115.873 147.265 117.955 146.69C120.667 145.939 122.924 144.178 124.311 141.73L131.768 128.572L145.082 129.516L180.535 164.968C182.317 166.752 182.317 169.653 180.534 171.435ZM181.769 157.771L148.51 124.514C148.448 124.45 148.382 124.389 148.313 124.333C147.834 123.934 147.24 123.692 146.614 123.648L130.312 122.492C129.185 122.414 128.065 123.014 127.508 123.996L119.124 138.791C118.522 139.854 117.542 140.618 116.365 140.944C115.189 141.27 113.955 141.117 112.891 140.515C111.829 139.913 111.065 138.933 110.739 137.756C110.413 136.578 110.565 135.344 111.168 134.282L122.359 114.531L126.894 113.226C126.924 113.217 126.953 113.205 126.984 113.196L143.909 108.308H164.36L189.89 140.763L181.769 157.771ZM193.796 136.084L170.186 106.055L182.235 98.3914L204.297 127.048L193.796 136.084Z" fill="black"/>
<path d="M151.438 96.749C152.201 96.749 152.964 96.4578 153.546 95.8756L173.909 75.5133C175.073 74.3488 175.073 72.4617 173.909 71.2972C172.744 70.1327 170.857 70.1327 169.693 71.2972L149.33 91.6595C148.166 92.824 148.166 94.7111 149.33 95.8756C149.913 96.4578 150.676 96.749 151.438 96.749Z" fill="black"/>
<path d="M117.153 95.8756C117.735 96.4578 118.498 96.749 119.261 96.749C120.023 96.749 120.787 96.4578 121.369 95.8756C122.533 94.7111 122.533 92.824 121.369 91.6595L101.006 71.2972C99.8419 70.1327 97.9549 70.1327 96.7904 71.2972C95.6259 72.4617 95.6259 74.3488 96.7904 75.5133L117.153 95.8756Z" fill="black"/>
<path d="M135.349 96.7491C136.995 96.7491 138.33 95.4142 138.33 93.7683V76.9169C138.33 75.271 136.995 73.936 135.349 73.936C133.704 73.936 132.369 75.271 132.369 76.9169V93.7683C132.369 95.4142 133.704 96.7491 135.349 96.7491Z" fill="black"/>
<path d="M132.598 66.1128C133.071 67.2599 134.251 68.0126 135.495 67.9477C136.725 67.8839 137.805 67.0534 138.185 65.8832C138.567 64.7036 138.151 63.3593 137.163 62.6077C136.155 61.8399 134.75 61.797 133.695 62.4941C132.519 63.2712 132.063 64.8184 132.598 66.1128Z" fill="black"/>
<path d="M318.667 92.5467C316.024 92.5467 313.671 91.8937 311.606 90.5878C309.54 89.2819 307.916 87.3989 306.731 84.9389C305.577 82.4485 305 79.4874 305 76.0556C305 72.6237 305.577 69.6778 306.731 67.2178C307.916 64.7274 309.54 62.8293 311.606 61.5233C313.671 60.2174 316.024 59.5644 318.667 59.5644C321.309 59.5644 323.663 60.2174 325.728 61.5233C327.793 62.8293 329.403 64.7274 330.557 67.2178C331.741 69.6778 332.333 72.6237 332.333 76.0556C332.333 79.4874 331.741 82.4485 330.557 84.9389C329.403 87.3989 327.793 89.2819 325.728 90.5878C323.663 91.8937 321.309 92.5467 318.667 92.5467ZM318.667 86.3056C320.61 86.3056 322.129 85.4704 323.222 83.8C324.346 82.1296 324.908 79.5481 324.908 76.0556C324.908 72.563 324.346 69.9815 323.222 68.3111C322.129 66.6407 320.61 65.8056 318.667 65.8056C316.753 65.8056 315.235 66.6407 314.111 68.3111C313.018 69.9815 312.471 72.563 312.471 76.0556C312.471 79.5481 313.018 82.1296 314.111 83.8C315.235 85.4704 316.753 86.3056 318.667 86.3056ZM351.161 92H343.781V66.0333H337.403V60.1111H351.161V92Z" fill="#01A69F"/>
<path d="M403.005 93.5489H396.901V58.5622H403.005V93.5489ZM394.441 58.6989V92.9567H388.428V83.4356H382.232C380.926 86.1689 379.241 88.2644 377.175 89.7222C375.11 91.1496 372.848 91.8785 370.388 91.9089V85.44C372.908 85.2274 374.898 83.8152 376.355 81.2033C377.813 78.5915 378.542 74.8863 378.542 70.0878V65.6233H370.388V59.3822H384.829V65.9878H388.428V58.6989H394.441ZM388.428 72.4111H384.738C384.647 73.8385 384.48 75.3722 384.237 77.0122H388.428V72.4111ZM437.213 69.7233H441.131V75.6H437.213V79.3811H430.653V58.5622H437.213V61.2956H441.131V67.1722H437.213V69.7233ZM416.303 78.6978C414.207 78.6978 412.34 78.2726 410.7 77.4222C409.09 76.5719 407.83 75.3874 406.918 73.8689C406.038 72.32 405.597 70.5737 405.597 68.63C405.597 66.6863 406.038 64.9552 406.918 63.4367C407.83 61.9181 409.09 60.7337 410.7 59.8833C412.34 59.033 414.207 58.6078 416.303 58.6078C418.398 58.6078 420.251 59.033 421.861 59.8833C423.501 60.7337 424.761 61.9181 425.642 63.4367C426.553 64.9552 427.008 66.6863 427.008 68.63C427.008 70.5737 426.553 72.32 425.642 73.8689C424.761 75.3874 423.501 76.5719 421.861 77.4222C420.251 78.2726 418.398 78.6978 416.303 78.6978ZM416.303 64.3022C415.027 64.3022 414.01 64.697 413.251 65.4867C412.491 66.2459 412.112 67.2937 412.112 68.63C412.112 69.9967 412.491 71.0748 413.251 71.8644C414.01 72.6237 415.027 73.0033 416.303 73.0033C417.548 73.0033 418.55 72.6085 419.31 71.8189C420.099 71.0293 420.494 69.9663 420.494 68.63C420.494 67.2937 420.099 66.2459 419.31 65.4867C418.55 64.697 417.548 64.3022 416.303 64.3022ZM437.213 80.6111V93.9589H430.516V86.5333H408.103V80.6111H437.213ZM462.662 68.7211C462.602 71.6367 462.45 73.9144 462.207 75.5544L469.632 88.4467L464.576 91.4989L460.339 83.9822C459.367 86.5333 458.092 88.477 456.512 89.8133C454.964 91.1496 453.141 91.8481 451.046 91.9089V85.3033C452.686 85.0907 453.977 83.5115 454.918 80.5656C455.859 77.6196 456.361 73.6715 456.421 68.7211H451.592V62.5256H456.421V58.4256H462.662V62.5256H467.491V68.7211H462.662ZM484.165 93.5489H478.015V58.5622H484.165V93.5489ZM475.737 58.6989V92.9567H469.632V78.3789H466.034V71.8644H469.632V58.6989H475.737ZM507.803 74.0967V68.4933H512.997V66.4433H509.124V60.84H512.997V58.5622H519.465V75.6911H512.997V74.0967H507.803ZM507.575 63.5278C507.575 67.81 505.799 70.9078 502.245 72.8211C498.722 74.7344 493.939 75.6911 487.895 75.6911V70.0878C491.813 70.027 494.957 69.5411 497.325 68.63C499.725 67.6885 500.924 66.4433 500.924 64.8944V64.53H487.895V58.9722H507.575V63.5278ZM519.83 93.5489H489.718V83.1167H512.951V81.7044H489.672V76.9211H519.465V87.3533H496.278V88.7656H519.83V93.5489Z" fill="black"/>
<path d="M326.467 126.967H322.033L321.867 124.7H326.467V121.533H328.833V140.6H326.467V133.867H321.867L322.033 131.6H326.467V126.967ZM321.233 129.233C321.233 130.656 320.933 131.933 320.333 133.067C319.733 134.178 318.867 135.056 317.733 135.7C316.622 136.322 315.3 136.633 313.767 136.633C312.256 136.633 310.933 136.322 309.8 135.7C308.667 135.056 307.8 134.178 307.2 133.067C306.6 131.933 306.3 130.656 306.3 129.233C306.3 127.811 306.6 126.544 307.2 125.433C307.8 124.3 308.667 123.422 309.8 122.8C310.933 122.156 312.256 121.833 313.767 121.833C315.3 121.833 316.622 122.156 317.733 122.8C318.867 123.422 319.733 124.3 320.333 125.433C320.933 126.544 321.233 127.811 321.233 129.233ZM308.7 129.233C308.7 130.833 309.156 132.111 310.067 133.067C311 134 312.233 134.467 313.767 134.467C315.322 134.467 316.556 134 317.467 133.067C318.378 132.111 318.833 130.833 318.833 129.233C318.833 127.633 318.378 126.356 317.467 125.4C316.556 124.444 315.322 123.967 313.767 123.967C312.233 123.967 311 124.444 310.067 125.4C309.156 126.356 308.7 127.633 308.7 129.233ZM329.4 146.733H308.633V138.467H311.067V144.433H329.4V146.733ZM355.73 147.133H353.43V121.533H355.73V147.133ZM349.796 121.667V146.7H347.53V138.567H341.463C340.619 140.744 339.474 142.444 338.03 143.667C336.608 144.867 334.963 145.467 333.096 145.467V143.1C334.63 143.078 335.963 142.489 337.096 141.333C338.252 140.178 339.13 138.578 339.73 136.533C340.352 134.467 340.663 132.089 340.663 129.4V124.833H333.096V122.533H343.03V128.133H347.53V121.667H349.796ZM347.53 130.5H342.996C342.885 132.589 342.619 134.5 342.196 136.233H347.53V130.5ZM360.393 124.867V122.5H381.426V139.4H378.96V124.867H360.393ZM383.126 145.833H358.86V143.467H368.16V131.733H370.626V143.467H383.126V145.833ZM409.523 135.767H385.256V133.7H390.756V130.267C389.489 129.889 388.501 129.367 387.789 128.7C387.078 128.033 386.723 127.222 386.723 126.267C386.723 124.644 387.723 123.433 389.723 122.633C391.723 121.811 394.278 121.4 397.389 121.4C400.501 121.4 403.045 121.811 405.023 122.633C407.023 123.433 408.023 124.644 408.023 126.267C408.023 127.222 407.667 128.033 406.956 128.7C406.245 129.367 405.256 129.889 403.989 130.267V133.7H409.523V135.767ZM397.389 123.467C395.034 123.467 393.078 123.7 391.523 124.167C389.989 124.633 389.223 125.333 389.223 126.267C389.223 127.2 389.989 127.9 391.523 128.367C393.056 128.833 395.012 129.067 397.389 129.067C399.745 129.067 401.689 128.833 403.223 128.367C404.756 127.9 405.523 127.2 405.523 126.267C405.523 125.333 404.745 124.633 403.189 124.167C401.656 123.7 399.723 123.467 397.389 123.467ZM401.589 133.7V130.8C400.389 131.022 398.989 131.133 397.389 131.133C395.812 131.133 394.401 131.022 393.156 130.8V133.7H401.589ZM397.389 138C400.545 138 403.101 138.356 405.056 139.067C407.012 139.756 407.989 140.911 407.989 142.533C407.989 144.156 407.012 145.322 405.056 146.033C403.101 146.767 400.545 147.133 397.389 147.133C394.234 147.133 391.667 146.767 389.689 146.033C387.734 145.322 386.756 144.156 386.756 142.533C386.756 140.911 387.734 139.756 389.689 139.067C391.667 138.356 394.234 138 397.389 138ZM397.389 145.1C399.701 145.1 401.623 144.9 403.156 144.5C404.689 144.1 405.456 143.444 405.456 142.533C405.456 141.644 404.689 141.011 403.156 140.633C401.623 140.233 399.701 140.033 397.389 140.033C395.078 140.033 393.145 140.233 391.589 140.633C390.056 141.011 389.289 141.644 389.289 142.533C389.289 143.444 390.056 144.1 391.589 144.5C393.145 144.9 395.078 145.1 397.389 145.1ZM441.511 147.133H439.211V121.533H441.511V147.133ZM435.578 121.667V146.7H433.311V138.567H427.244C426.4 140.744 425.256 142.444 423.811 143.667C422.389 144.867 420.744 145.467 418.878 145.467V143.1C420.411 143.078 421.744 142.489 422.878 141.333C424.033 140.178 424.911 138.578 425.511 136.533C426.133 134.467 426.444 132.089 426.444 129.4V124.833H418.878V122.533H428.811V128.133H433.311V121.667H435.578ZM433.311 130.5H428.778C428.667 132.589 428.4 134.5 427.978 136.233H433.311V130.5ZM466.541 131H470.074V133.2H466.541V136.833H464.141V121.533H466.541V124.633H470.074V126.867H466.541V131ZM452.241 135.967C450.73 135.967 449.408 135.667 448.274 135.067C447.141 134.444 446.263 133.6 445.641 132.533C445.041 131.444 444.741 130.233 444.741 128.9C444.741 127.567 445.041 126.367 445.641 125.3C446.263 124.211 447.141 123.367 448.274 122.767C449.408 122.144 450.73 121.833 452.241 121.833C453.752 121.833 455.063 122.144 456.174 122.767C457.308 123.367 458.174 124.2 458.774 125.267C459.396 126.333 459.708 127.544 459.708 128.9C459.708 130.256 459.396 131.467 458.774 132.533C458.174 133.6 457.308 134.444 456.174 135.067C455.063 135.667 453.752 135.967 452.241 135.967ZM452.241 123.967C450.73 123.967 449.508 124.411 448.574 125.3C447.641 126.189 447.174 127.389 447.174 128.9C447.174 130.411 447.641 131.611 448.574 132.5C449.508 133.389 450.73 133.833 452.241 133.833C453.752 133.833 454.974 133.389 455.908 132.5C456.841 131.589 457.308 130.389 457.308 128.9C457.308 127.411 456.841 126.222 455.908 125.333C454.974 124.422 453.752 123.967 452.241 123.967ZM466.541 138.333V147.067H464.108V140.567H446.441V138.333H466.541ZM493.804 147.133H491.404V133.367H484.904V131H491.404V121.533H493.804V147.133ZM481.037 122.267C480.993 125.889 480.748 129.1 480.304 131.9L488.037 144.2L486.071 145.6L479.571 135.067C478.771 138.222 477.671 140.711 476.271 142.533C474.871 144.333 473.215 145.333 471.304 145.533V143C472.882 142.711 474.215 141.611 475.304 139.7C476.393 137.789 477.204 135.322 477.737 132.3C478.293 129.256 478.582 125.889 478.604 122.2L481.037 122.267ZM525.926 129.567V136.833H523.526V121.533H525.926V127.167H529.459V129.567H525.926ZM512.326 130.4C511.526 131.978 510.448 133.256 509.092 134.233C507.737 135.189 506.17 135.778 504.392 136V133.667C506.503 133.333 508.181 132.367 509.426 130.767C510.67 129.144 511.359 127.044 511.492 124.467H504.692V122.267H520.226V124.467H513.892C513.826 125.867 513.626 127.156 513.292 128.333L520.892 133.9L519.626 135.8L512.326 130.4ZM525.926 138.333V147.067H523.492V140.567H505.526V138.333H525.926ZM544.622 128.267V126H550.789V121.533H553.189V135.933H550.789V128.267H544.622ZM538.489 129.633C537.644 131.167 536.544 132.433 535.189 133.433C533.833 134.433 532.278 135.067 530.522 135.333V133.033C532.055 132.722 533.378 132.033 534.489 130.967C535.622 129.878 536.478 128.544 537.055 126.967C537.655 125.367 537.967 123.644 537.989 121.8L540.389 121.933C540.389 123.978 540.089 125.856 539.489 127.567L547.055 133.033L545.722 134.833L538.489 129.633ZM542.989 136.867C546.122 136.867 548.633 137.289 550.522 138.133C552.433 138.956 553.389 140.233 553.389 141.967C553.389 143.7 552.433 144.989 550.522 145.833C548.633 146.656 546.122 147.067 542.989 147.067C539.855 147.067 537.344 146.656 535.455 145.833C533.567 144.989 532.622 143.7 532.622 141.967C532.622 140.233 533.567 138.956 535.455 138.133C537.344 137.289 539.855 136.867 542.989 136.867ZM542.989 144.967C545.322 144.967 547.211 144.711 548.655 144.2C550.122 143.689 550.855 142.944 550.855 141.967C550.855 140.989 550.122 140.244 548.655 139.733C547.189 139.222 545.3 138.967 542.989 138.967C540.678 138.967 538.789 139.222 537.322 139.733C535.878 140.244 535.155 140.989 535.155 141.967C535.155 142.944 535.878 143.689 537.322 144.2C538.789 144.711 540.678 144.967 542.989 144.967Z" fill="#333333"/>
<path d="M307.822 178.422C307.481 178.422 307.193 178.311 306.956 178.089C306.733 177.867 306.622 177.578 306.622 177.222C306.622 176.867 306.733 176.578 306.956 176.356C307.193 176.119 307.481 176 307.822 176C308.163 176 308.444 176.119 308.667 176.356C308.904 176.578 309.022 176.867 309.022 177.222C309.022 177.578 308.904 177.867 308.667 178.089C308.444 178.311 308.163 178.422 307.822 178.422ZM329.35 172.311H326.395L326.284 170.8H329.35V168.689H330.928V181.4H329.35V176.911H326.284L326.395 175.4H329.35V172.311ZM325.861 173.822C325.861 174.77 325.661 175.622 325.261 176.378C324.861 177.119 324.284 177.704 323.528 178.133C322.787 178.548 321.906 178.756 320.884 178.756C319.876 178.756 318.995 178.548 318.239 178.133C317.484 177.704 316.906 177.119 316.506 176.378C316.106 175.622 315.906 174.77 315.906 173.822C315.906 172.874 316.106 172.03 316.506 171.289C316.906 170.533 317.484 169.948 318.239 169.533C318.995 169.104 319.876 168.889 320.884 168.889C321.906 168.889 322.787 169.104 323.528 169.533C324.284 169.948 324.861 170.533 325.261 171.289C325.661 172.03 325.861 172.874 325.861 173.822ZM317.506 173.822C317.506 174.889 317.809 175.741 318.417 176.378C319.039 177 319.861 177.311 320.884 177.311C321.921 177.311 322.743 177 323.35 176.378C323.958 175.741 324.261 174.889 324.261 173.822C324.261 172.756 323.958 171.904 323.35 171.267C322.743 170.63 321.921 170.311 320.884 170.311C319.861 170.311 319.039 170.63 318.417 171.267C317.809 171.904 317.506 172.756 317.506 173.822ZM331.306 185.489H317.461V179.978H319.084V183.956H331.306V185.489ZM348.859 185.756H347.326V168.689H348.859V185.756ZM344.903 168.778V185.467H343.392V180.044H339.348C338.785 181.496 338.022 182.63 337.059 183.444C336.111 184.244 335.014 184.644 333.77 184.644V183.067C334.792 183.052 335.681 182.659 336.437 181.889C337.207 181.119 337.792 180.052 338.192 178.689C338.607 177.311 338.814 175.726 338.814 173.933V170.889H333.77V169.356H340.392V173.089H343.392V168.778H344.903ZM343.392 174.667H340.37C340.296 176.059 340.118 177.333 339.837 178.489H343.392V174.667ZM351.968 170.911V169.333H365.99V180.6H364.345V170.911H351.968ZM367.123 184.889H350.945V183.311H357.145V175.489H358.79V183.311H367.123V184.889ZM384.721 178.178H368.543V176.8H372.21V174.511C371.365 174.259 370.706 173.911 370.232 173.467C369.758 173.022 369.521 172.481 369.521 171.844C369.521 170.763 370.188 169.956 371.521 169.422C372.854 168.874 374.558 168.6 376.632 168.6C378.706 168.6 380.402 168.874 381.721 169.422C383.054 169.956 383.721 170.763 383.721 171.844C383.721 172.481 383.484 173.022 383.01 173.467C382.536 173.911 381.876 174.259 381.032 174.511V176.8H384.721V178.178ZM376.632 169.978C375.062 169.978 373.758 170.133 372.721 170.444C371.699 170.756 371.188 171.222 371.188 171.844C371.188 172.467 371.699 172.933 372.721 173.244C373.743 173.556 375.047 173.711 376.632 173.711C378.202 173.711 379.499 173.556 380.521 173.244C381.543 172.933 382.054 172.467 382.054 171.844C382.054 171.222 381.536 170.756 380.499 170.444C379.476 170.133 378.188 169.978 376.632 169.978ZM379.432 176.8V174.867C378.632 175.015 377.699 175.089 376.632 175.089C375.58 175.089 374.639 175.015 373.81 174.867V176.8H379.432ZM376.632 179.667C378.736 179.667 380.439 179.904 381.743 180.378C383.047 180.837 383.699 181.607 383.699 182.689C383.699 183.77 383.047 184.548 381.743 185.022C380.439 185.511 378.736 185.756 376.632 185.756C374.528 185.756 372.817 185.511 371.499 185.022C370.195 184.548 369.543 183.77 369.543 182.689C369.543 181.607 370.195 180.837 371.499 180.378C372.817 179.904 374.528 179.667 376.632 179.667ZM376.632 184.4C378.173 184.4 379.454 184.267 380.476 184C381.499 183.733 382.01 183.296 382.01 182.689C382.01 182.096 381.499 181.674 380.476 181.422C379.454 181.156 378.173 181.022 376.632 181.022C375.091 181.022 373.802 181.156 372.765 181.422C371.743 181.674 371.232 182.096 371.232 182.689C371.232 183.296 371.743 183.733 372.765 184C373.802 184.267 375.091 184.4 376.632 184.4ZM406.713 184.889H390.535V183.333H397.78V178.911H391.669V169.356H405.602V170.911H393.269V177.356H405.78V178.911H399.402V183.333H406.713V184.889ZM409.289 170.378V168.933H423.089V174.444H421.466V170.378H409.289ZM424.311 176.956H408.133V175.511H424.311V176.956ZM423.133 178.356V185.511H409.311V178.356H410.889V180.489H421.555V178.356H423.133ZM421.555 181.8H410.889V184.178H421.555V181.8ZM441.242 185.756H439.708V168.689H441.242V185.756ZM437.286 168.778V185.467H435.775V180.044H431.731C431.168 181.496 430.405 182.63 429.442 183.444C428.494 184.244 427.397 184.644 426.153 184.644V183.067C427.175 183.052 428.064 182.659 428.82 181.889C429.59 181.119 430.175 180.052 430.575 178.689C430.99 177.311 431.197 175.726 431.197 173.933V170.889H426.153V169.356H432.775V173.089H435.775V168.778H437.286ZM435.775 174.667H432.753C432.679 176.059 432.501 177.333 432.22 178.489H435.775V174.667ZM457.928 175H460.284V176.467H457.928V178.889H456.328V168.689H457.928V170.756H460.284V172.244H457.928V175ZM448.395 178.311C447.388 178.311 446.506 178.111 445.751 177.711C444.995 177.296 444.41 176.733 443.995 176.022C443.595 175.296 443.395 174.489 443.395 173.6C443.395 172.711 443.595 171.911 443.995 171.2C444.41 170.474 444.995 169.911 445.751 169.511C446.506 169.096 447.388 168.889 448.395 168.889C449.402 168.889 450.276 169.096 451.017 169.511C451.773 169.911 452.351 170.467 452.751 171.178C453.165 171.889 453.373 172.696 453.373 173.6C453.373 174.504 453.165 175.311 452.751 176.022C452.351 176.733 451.773 177.296 451.017 177.711C450.276 178.111 449.402 178.311 448.395 178.311ZM448.395 170.311C447.388 170.311 446.573 170.607 445.951 171.2C445.328 171.793 445.017 172.593 445.017 173.6C445.017 174.607 445.328 175.407 445.951 176C446.573 176.593 447.388 176.889 448.395 176.889C449.402 176.889 450.217 176.593 450.839 176C451.462 175.393 451.773 174.593 451.773 173.6C451.773 172.607 451.462 171.815 450.839 171.222C450.217 170.615 449.402 170.311 448.395 170.311ZM457.928 179.889V185.711H456.306V181.378H444.528V179.889H457.928ZM476.104 185.756H474.504V176.578H470.17V175H474.504V168.689H476.104V185.756ZM467.593 169.178C467.563 171.593 467.4 173.733 467.104 175.6L472.259 183.8L470.948 184.733L466.615 177.711C466.082 179.815 465.348 181.474 464.415 182.689C463.482 183.889 462.378 184.556 461.104 184.689V183C462.156 182.807 463.044 182.074 463.77 180.8C464.496 179.526 465.037 177.881 465.393 175.867C465.763 173.837 465.956 171.593 465.97 169.133L467.593 169.178ZM307.822 202.422C307.481 202.422 307.193 202.311 306.956 202.089C306.733 201.867 306.622 201.578 306.622 201.222C306.622 200.867 306.733 200.578 306.956 200.356C307.193 200.119 307.481 200 307.822 200C308.163 200 308.444 200.119 308.667 200.356C308.904 200.578 309.022 200.867 309.022 201.222C309.022 201.578 308.904 201.867 308.667 202.089C308.444 202.311 308.163 202.422 307.822 202.422ZM331.261 209.756H329.728V192.689H331.261V209.756ZM327.306 192.778V209.467H325.795V204.044H321.75C321.187 205.496 320.424 206.63 319.461 207.444C318.513 208.244 317.417 208.644 316.172 208.644V207.067C317.195 207.052 318.084 206.659 318.839 205.889C319.609 205.119 320.195 204.052 320.595 202.689C321.009 201.311 321.217 199.726 321.217 197.933V194.889H316.172V193.356H322.795V197.089H325.795V192.778H327.306ZM325.795 198.667H322.772C322.698 200.059 322.521 201.333 322.239 202.489H325.795V198.667ZM347.948 199H350.303V200.467H347.948V202.889H346.348V192.689H347.948V194.756H350.303V196.244H347.948V199ZM338.414 202.311C337.407 202.311 336.526 202.111 335.77 201.711C335.014 201.296 334.429 200.733 334.014 200.022C333.614 199.296 333.414 198.489 333.414 197.6C333.414 196.711 333.614 195.911 334.014 195.2C334.429 194.474 335.014 193.911 335.77 193.511C336.526 193.096 337.407 192.889 338.414 192.889C339.422 192.889 340.296 193.096 341.037 193.511C341.792 193.911 342.37 194.467 342.77 195.178C343.185 195.889 343.392 196.696 343.392 197.6C343.392 198.504 343.185 199.311 342.77 200.022C342.37 200.733 341.792 201.296 341.037 201.711C340.296 202.111 339.422 202.311 338.414 202.311ZM338.414 194.311C337.407 194.311 336.592 194.607 335.97 195.2C335.348 195.793 335.037 196.593 335.037 197.6C335.037 198.607 335.348 199.407 335.97 200C336.592 200.593 337.407 200.889 338.414 200.889C339.422 200.889 340.237 200.593 340.859 200C341.481 199.393 341.792 198.593 341.792 197.6C341.792 196.607 341.481 195.815 340.859 195.222C340.237 194.615 339.422 194.311 338.414 194.311ZM347.948 203.889V209.711H346.326V205.378H334.548V203.889H347.948ZM368.784 209.756V192.689H370.407V209.756H368.784ZM365.073 197.356C365.073 199.622 364.71 201.607 363.984 203.311C363.259 205 362.221 206.311 360.873 207.244C359.54 208.178 357.962 208.644 356.14 208.644V207.044C357.636 207.044 358.933 206.652 360.029 205.867C361.125 205.081 361.962 203.97 362.54 202.533C363.133 201.081 363.429 199.378 363.429 197.422V194.889H356.14V193.356H365.073V197.356ZM389.893 198.489H387.538V205.378H385.938V192.689H387.538V196.889H389.893V198.489ZM382.671 195.378C382.671 197.733 381.834 199.533 380.16 200.778C378.501 202.022 376.249 202.644 373.404 202.644V201.111C375.79 201.111 377.664 200.63 379.027 199.667C380.39 198.704 381.071 197.333 381.071 195.556V194.644H373.404V193.156H382.671V195.378ZM388.027 207.956V209.489H374.093V204.244H375.715V207.956H388.027ZM402.397 209H400.708V194.867H397.063V193.444H402.397V209ZM415.803 199.556V198.178H421.87V196.044H415.803V194.644H421.87V192.689H423.447V205.444H421.87V199.556H415.803ZM419.803 202.622C418.707 203.081 416.862 203.311 414.27 203.311H409.003V193.044H410.603V201.867H414.403C416.862 201.867 418.662 201.637 419.803 201.178V202.622ZM423.825 209.489H409.781V204.8H411.403V207.978H423.825V209.489ZM443.706 209.756V192.689H445.329V209.756H443.706ZM435.884 193.133C437.366 193.133 438.543 193.8 439.417 195.133C440.306 196.467 440.751 198.43 440.751 201.022C440.751 203.615 440.306 205.578 439.417 206.911C438.543 208.244 437.366 208.911 435.884 208.911C434.403 208.911 433.217 208.244 432.329 206.911C431.454 205.578 431.017 203.615 431.017 201.022C431.017 198.43 431.454 196.467 432.329 195.133C433.217 193.8 434.403 193.133 435.884 193.133ZM435.884 194.667C434.892 194.667 434.099 195.2 433.506 196.267C432.914 197.319 432.617 198.904 432.617 201.022C432.617 203.156 432.914 204.748 433.506 205.8C434.099 206.852 434.892 207.378 435.884 207.378C436.847 207.378 437.632 206.852 438.24 205.8C438.847 204.733 439.151 203.141 439.151 201.022C439.151 198.919 438.847 197.333 438.24 196.267C437.632 195.2 436.847 194.667 435.884 194.667ZM464.815 197.667H462.46V202.133H460.86V192.689H462.46V196.089H464.815V197.667ZM453.326 197.889C452.748 198.941 452 199.8 451.082 200.467C450.163 201.119 449.111 201.541 447.926 201.733V200.2C448.963 199.993 449.86 199.541 450.615 198.844C451.371 198.148 451.948 197.281 452.348 196.244C452.748 195.207 452.948 194.081 452.948 192.867L454.571 192.956C454.571 194.244 454.371 195.437 453.971 196.533L459.126 200.089L458.304 201.333L453.326 197.889ZM455.837 202.756C457.897 202.756 459.556 203.044 460.815 203.622C462.074 204.185 462.704 205.059 462.704 206.244C462.704 207.43 462.074 208.304 460.815 208.867C459.556 209.43 457.897 209.711 455.837 209.711C453.778 209.711 452.119 209.43 450.86 208.867C449.6 208.304 448.971 207.43 448.971 206.244C448.971 205.059 449.6 204.185 450.86 203.622C452.119 203.044 453.778 202.756 455.837 202.756ZM455.837 208.311C457.363 208.311 458.608 208.133 459.571 207.778C460.534 207.422 461.015 206.911 461.015 206.244C461.015 205.563 460.534 205.044 459.571 204.689C458.608 204.333 457.363 204.156 455.837 204.156C454.311 204.156 453.067 204.333 452.104 204.689C451.141 205.044 450.66 205.563 450.66 206.244C450.66 206.911 451.141 207.422 452.104 207.778C453.067 208.133 454.311 208.311 455.837 208.311ZM307.822 226.422C307.481 226.422 307.193 226.311 306.956 226.089C306.733 225.867 306.622 225.578 306.622 225.222C306.622 224.867 306.733 224.578 306.956 224.356C307.193 224.119 307.481 224 307.822 224C308.163 224 308.444 224.119 308.667 224.356C308.904 224.578 309.022 224.867 309.022 225.222C309.022 225.578 308.904 225.867 308.667 226.089C308.444 226.311 308.163 226.422 307.822 226.422ZM331.928 232.889H315.75V231.333H322.995V226.911H316.884V217.356H330.817V218.911H318.484V225.356H330.995V226.911H324.617V231.333H331.928V232.889ZM334.503 218.378V216.933H348.303V222.444H346.681V218.378H334.503ZM349.526 224.956H333.348V223.511H349.526V224.956ZM348.348 226.356V233.511H334.526V226.356H336.103V228.489H346.77V226.356H348.348ZM346.77 229.8H336.103V232.178H346.77V229.8ZM356.296 223.222V221.867H359.273V218.289H356.473V216.933H370.384V218.289H367.584V221.867H370.54V223.222H356.296ZM365.984 221.867V218.289H360.873V221.867H365.984ZM364.229 228.2H370.34V233.511H356.518V228.2H362.629V226.244H355.34V224.889H371.518V226.244H364.229V228.2ZM358.118 229.533V232.178H368.762V229.533H358.118ZM389.115 226.733H372.938V225.333H380.227V223.311H374.16V216.933H387.915V223.311H381.827V225.333H389.115V226.733ZM386.315 221.933V218.333H375.738V221.933H386.315ZM387.938 228.6V233.733H386.338V230H373.96V228.6H387.938ZM408.374 226.022V216.689H409.997V226.022H408.374ZM395.73 224.556V217.156H405.285V224.556H395.73ZM397.33 218.578V223.133H403.708V218.578H397.33ZM402.908 230.978C402.167 231.763 401.189 232.378 399.974 232.822C398.759 233.267 397.478 233.489 396.13 233.489V232.044C397.078 232.044 397.997 231.911 398.885 231.644C399.789 231.363 400.559 230.97 401.197 230.467C401.834 229.963 402.248 229.385 402.441 228.733H396.241V227.311H402.419V225.533H404.063V227.311H410.263V228.733H404.13C404.085 229.133 403.967 229.489 403.774 229.8L410.619 232.333L410.13 233.733L402.908 230.978ZM424.789 221.333C423.885 222.667 422.766 223.726 421.433 224.511C420.1 225.296 418.722 225.689 417.3 225.689V224.089C418.455 224.104 419.581 223.778 420.678 223.111C421.774 222.43 422.707 221.511 423.478 220.356C424.248 219.2 424.752 217.941 424.989 216.578L426.633 216.867C426.441 217.874 426.085 218.926 425.566 220.022L432.611 224.289L431.855 225.667L424.789 221.333ZM425.811 229.178V234.156H424.189V229.178H416.922V227.622H433.1V229.178H425.811ZM449.12 222.956H451.475V224.4H449.12V226.867H447.52V216.689H449.12V218.756H451.475V220.2H449.12V222.956ZM442.942 218.511H435.097V217.156H444.52V222.222H436.742V224.644H440.831C442.016 224.644 443.075 224.578 444.009 224.444C444.957 224.296 445.697 224.096 446.231 223.844V225.222C445.712 225.474 444.972 225.674 444.009 225.822C443.046 225.956 441.957 226.022 440.742 226.022H435.142V220.933H442.942V218.511ZM442.497 227.467C444.586 227.467 446.253 227.719 447.497 228.222C448.742 228.711 449.364 229.504 449.364 230.6C449.364 231.696 448.742 232.489 447.497 232.978C446.253 233.467 444.586 233.711 442.497 233.711C440.409 233.711 438.742 233.467 437.497 232.978C436.253 232.489 435.631 231.696 435.631 230.6C435.631 229.504 436.253 228.711 437.497 228.222C438.742 227.719 440.409 227.467 442.497 227.467ZM442.497 232.356C444.038 232.356 445.283 232.215 446.231 231.933C447.194 231.637 447.675 231.193 447.675 230.6C447.675 229.993 447.201 229.548 446.253 229.267C445.305 228.985 444.053 228.844 442.497 228.844C440.942 228.844 439.69 228.985 438.742 229.267C437.794 229.548 437.32 229.993 437.32 230.6C437.32 231.193 437.794 231.637 438.742 231.933C439.705 232.215 440.957 232.356 442.497 232.356ZM456.601 219.378V218.089H461.134V216.222H462.756V218.089H467.445V219.378H456.601ZM471.156 222.978V228.378H469.556V216.689H471.156V221.4H473.467V222.978H471.156ZM468.09 227.289C467.601 227.511 466.86 227.681 465.867 227.8C464.875 227.904 463.734 227.956 462.445 227.956H456.512V226.644H461.179V225.289C459.993 225.215 459.06 224.956 458.379 224.511C457.697 224.052 457.356 223.474 457.356 222.778C457.356 221.993 457.771 221.37 458.601 220.911C459.445 220.452 460.579 220.222 462.001 220.222C463.408 220.222 464.527 220.452 465.356 220.911C466.201 221.37 466.623 221.993 466.623 222.778C466.623 223.474 466.282 224.052 465.601 224.511C464.919 224.956 463.971 225.222 462.756 225.311V226.644C465.364 226.615 467.142 226.385 468.09 225.956V227.289ZM458.867 222.778C458.867 223.178 459.149 223.504 459.712 223.756C460.29 223.993 461.053 224.111 462.001 224.111C462.934 224.111 463.682 223.993 464.245 223.756C464.823 223.504 465.112 223.178 465.112 222.778C465.112 222.393 464.823 222.074 464.245 221.822C463.682 221.57 462.934 221.444 462.001 221.444C461.053 221.444 460.29 221.57 459.712 221.822C459.149 222.074 458.867 222.393 458.867 222.778ZM471.156 229.378V233.711H469.534V230.711H457.623V229.378H471.156ZM487.687 216.689H489.287V226.289H487.687V221.489H484.354V220.022H487.687V216.689ZM479.776 222.2C479.243 223.178 478.517 223.978 477.598 224.6C476.68 225.207 475.628 225.585 474.443 225.733V224.222C475.835 224 476.939 223.4 477.754 222.422C478.584 221.43 479.058 220.163 479.176 218.622H474.643V217.178H485.021V218.622H480.798C480.754 219.437 480.621 220.178 480.398 220.844L485.554 224.311L484.732 225.578L479.776 222.2ZM482.487 226.911C484.576 226.911 486.25 227.193 487.51 227.756C488.784 228.304 489.421 229.156 489.421 230.311C489.421 231.467 488.784 232.326 487.51 232.889C486.25 233.437 484.576 233.711 482.487 233.711C480.398 233.711 478.724 233.437 477.465 232.889C476.206 232.326 475.576 231.467 475.576 230.311C475.576 229.156 476.206 228.304 477.465 227.756C478.724 227.193 480.398 226.911 482.487 226.911ZM482.487 232.311C484.043 232.311 485.302 232.141 486.265 231.8C487.243 231.459 487.732 230.963 487.732 230.311C487.732 229.659 487.243 229.163 486.265 228.822C485.287 228.481 484.028 228.311 482.487 228.311C480.947 228.311 479.687 228.481 478.71 228.822C477.747 229.163 477.265 229.659 477.265 230.311C477.265 230.963 477.747 231.459 478.71 231.8C479.687 232.141 480.947 232.311 482.487 232.311Z" fill="#333333"/>
<path d="M723.301 168.908L722.94 169.529L721.134 168.474L721.149 170.511H720.456V168.489L718.664 169.529L718.318 168.908L720.094 167.897L718.318 166.886L718.664 166.279L720.456 167.319V165.282H721.149L721.134 167.319L722.94 166.279L723.301 166.886L721.51 167.897L723.301 168.908ZM736.783 176.491H735.743V171.118H733.576C733.538 172.707 733.239 173.91 732.681 174.729C732.122 175.538 731.385 175.942 730.471 175.942C729.517 175.942 728.757 175.509 728.188 174.642C727.63 173.776 727.351 172.5 727.351 170.814C727.351 169.129 727.63 167.853 728.188 166.987C728.757 166.12 729.517 165.687 730.471 165.687C731.347 165.687 732.06 166.057 732.608 166.799C733.157 167.54 733.475 168.638 733.562 170.092H735.743V165.398H736.783V176.491ZM730.471 174.946C731.097 174.946 731.597 174.604 731.973 173.92C732.348 173.236 732.536 172.201 732.536 170.814C732.536 169.437 732.348 168.407 731.973 167.723C731.597 167.03 731.097 166.683 730.471 166.683C729.845 166.683 729.339 167.03 728.954 167.723C728.578 168.407 728.391 169.437 728.391 170.814C728.391 172.201 728.578 173.236 728.954 173.92C729.339 174.604 729.845 174.946 730.471 174.946ZM743.614 169.384C742.256 169.384 741.148 169.221 740.291 168.893C739.434 168.566 739.006 168.06 739.006 167.377C739.006 166.693 739.429 166.192 740.277 165.874C741.134 165.547 742.246 165.383 743.614 165.383C744.981 165.383 746.088 165.547 746.936 165.874C747.783 166.192 748.207 166.693 748.207 167.377C748.207 168.06 747.778 168.566 746.921 168.893C746.074 169.221 744.971 169.384 743.614 169.384ZM743.614 166.236C742.593 166.236 741.75 166.332 741.086 166.524C740.421 166.707 740.089 166.991 740.089 167.377C740.089 167.762 740.417 168.051 741.071 168.243C741.736 168.426 742.583 168.518 743.614 168.518C744.634 168.518 745.472 168.426 746.127 168.243C746.791 168.051 747.124 167.762 747.124 167.377C747.124 166.991 746.791 166.707 746.127 166.524C745.472 166.332 744.634 166.236 743.614 166.236ZM744.134 172.042H748.12V174.527H740.132V175.538H748.308V176.332H739.121V173.819H747.095V172.837H739.092V172.042H743.094V170.93H738.356V170.078H748.871V170.93H744.134V172.042ZM758.533 171.898V165.398H759.588V171.898H758.533ZM751.354 168.994V170.569H754.142C754.912 170.569 755.601 170.526 756.208 170.439C756.824 170.343 757.301 170.213 757.638 170.049V170.944C757.301 171.108 756.819 171.238 756.193 171.334C755.567 171.421 754.864 171.464 754.084 171.464H750.314V168.157H755.471V166.582H750.285V165.701H756.511V168.994H751.354ZM750.733 176.318V172.548H759.588V176.318H750.733ZM758.548 173.458H751.759V175.408H758.548V173.458ZM771.315 176.491H770.318V165.398H771.315V176.491ZM768.773 165.456V176.303H767.776V171.147H766.259C766.231 172.774 766.014 173.983 765.609 174.772C765.205 175.552 764.613 175.942 763.833 175.942C763.033 175.942 762.427 175.528 762.013 174.7C761.608 173.862 761.406 172.567 761.406 170.814C761.406 167.396 762.215 165.687 763.833 165.687C765.345 165.687 766.149 167.155 766.245 170.092H767.776V165.456H768.773ZM763.833 174.946C764.314 174.946 764.671 174.609 764.902 173.934C765.142 173.251 765.263 172.211 765.263 170.814C765.263 169.418 765.142 168.383 764.902 167.709C764.671 167.025 764.314 166.683 763.833 166.683C763.351 166.683 762.99 167.025 762.749 167.709C762.518 168.383 762.403 169.418 762.403 170.814C762.403 172.211 762.518 173.251 762.749 173.934C762.99 174.609 763.351 174.946 763.833 174.946ZM782.537 176.491H781.497V170.526H778.68V169.5H781.497V165.398H782.537V176.491ZM777.005 165.716C776.985 167.285 776.879 168.677 776.687 169.89L780.038 175.22L779.186 175.827L776.369 171.262C776.022 172.63 775.546 173.708 774.939 174.498C774.332 175.278 773.615 175.711 772.787 175.798V174.7C773.47 174.575 774.048 174.098 774.52 173.27C774.992 172.442 775.343 171.373 775.575 170.063C775.815 168.744 775.94 167.285 775.95 165.687L777.005 165.716ZM793.961 168.706V169.659H784.904V165.412H785.944V168.706H793.961ZM784.11 171.97V171.031H794.625V171.97H784.11ZM794.062 175.379V176.332H784.875V173.053H785.93V175.379H794.062ZM808.487 176.491H807.49V170.988H805.583V176.303H804.601V165.456H805.583V169.948H807.49V165.398H808.487V176.491ZM803.229 165.831V175.798H798.766V165.831H803.229ZM802.232 174.801V166.828H799.748V174.801H802.232ZM814.812 168.171C814.311 168.614 813.652 168.951 812.833 169.182C812.024 169.413 811.172 169.539 810.276 169.558V168.72C811.259 168.691 812.169 168.523 813.006 168.214C813.844 167.897 814.374 167.444 814.595 166.857H810.493V166.019H814.581V164.95H815.635V166.019H819.709V166.857H815.736C815.708 167.03 815.63 167.237 815.505 167.478L819.94 168.749L819.665 169.572L814.812 168.171ZM815.621 172.244H819.608V174.613H811.62V175.567H819.795V176.332H810.609V173.934H818.596V172.996H810.58V172.244H814.581V171.176H809.843V170.323H820.359V171.176H815.621V172.244ZM831.364 176.491H830.367V165.398H831.364V176.491ZM828.822 165.456V176.303H827.825V171.147H826.308C826.279 172.774 826.063 173.983 825.658 174.772C825.254 175.552 824.662 175.942 823.882 175.942C823.082 175.942 822.476 175.528 822.062 174.7C821.657 173.862 821.455 172.567 821.455 170.814C821.455 167.396 822.264 165.687 823.882 165.687C825.393 165.687 826.197 167.155 826.294 170.092H827.825V165.456H828.822ZM823.882 174.946C824.363 174.946 824.719 174.609 824.95 173.934C825.191 173.251 825.312 172.211 825.312 170.814C825.312 169.418 825.191 168.383 824.95 167.709C824.719 167.025 824.363 166.683 823.882 166.683C823.4 166.683 823.039 167.025 822.798 167.709C822.567 168.383 822.452 169.418 822.452 170.814C822.452 172.211 822.567 173.251 822.798 173.934C823.039 174.609 823.4 174.946 823.882 174.946ZM845.124 171.031V176.491H844.113V165.398H845.124V169.991H846.598V171.031H845.124ZM837.584 174.801C837.854 174.801 838.133 174.782 838.422 174.743C838.721 174.695 838.976 174.628 839.188 174.541V175.523C838.947 175.61 838.658 175.677 838.321 175.726C837.984 175.774 837.652 175.798 837.324 175.798H835.966V165.831H839.13V166.828H836.992V174.801H837.584ZM841.325 174.801C842.048 174.801 842.654 174.671 843.145 174.411V175.437C842.606 175.677 841.942 175.798 841.152 175.798H839.65V165.831H842.871V166.828H840.661V174.801H841.325ZM856.505 171.031V176.491H855.465V165.398H856.505V169.991H858.036V171.031H856.505ZM851.724 174.801C852.225 174.801 852.725 174.753 853.226 174.657C853.727 174.56 854.136 174.435 854.454 174.281V175.263C854.146 175.437 853.741 175.571 853.241 175.668C852.74 175.754 852.229 175.798 851.709 175.798H847.535V170.237H852.302V166.828H847.506V165.831H853.342V171.219H848.575V174.801H851.724ZM729.483 188.633H727.952V191.537H726.912V185.398H727.952V187.608H729.483V188.633ZM722.117 188.879C721.77 189.534 721.293 190.073 720.687 190.497C720.09 190.911 719.401 191.171 718.621 191.277V190.28C719.517 190.145 720.234 189.755 720.773 189.11C721.313 188.455 721.616 187.637 721.683 186.654H718.751V185.716H725.482V186.654H722.738C722.709 187.165 722.632 187.622 722.507 188.027L725.814 190.208L725.294 191.031L722.117 188.879ZM723.648 191.941C724.986 191.941 726.065 192.129 726.883 192.504C727.702 192.87 728.111 193.439 728.111 194.209C728.111 194.979 727.702 195.547 726.883 195.913C726.065 196.279 724.986 196.462 723.648 196.462C722.309 196.462 721.231 196.279 720.412 195.913C719.594 195.547 719.184 194.979 719.184 194.209C719.184 193.439 719.594 192.87 720.412 192.504C721.231 192.129 722.309 191.941 723.648 191.941ZM723.648 195.552C724.64 195.552 725.449 195.437 726.074 195.206C726.7 194.974 727.013 194.642 727.013 194.209C727.013 193.766 726.7 193.429 726.074 193.198C725.449 192.967 724.64 192.851 723.648 192.851C722.656 192.851 721.847 192.967 721.221 193.198C720.595 193.429 720.282 193.766 720.282 194.209C720.282 194.642 720.595 194.974 721.221 195.206C721.847 195.437 722.656 195.552 723.648 195.552ZM739.983 196.491H738.986V190.988H737.08V196.303H736.097V185.456H737.08V189.948H738.986V185.398H739.983V196.491ZM732.501 185.687C733.31 185.687 733.916 186.106 734.321 186.943C734.725 187.781 734.927 189.071 734.927 190.814C734.927 192.567 734.725 193.862 734.321 194.7C733.916 195.528 733.31 195.942 732.501 195.942C731.701 195.942 731.095 195.528 730.681 194.7C730.276 193.862 730.074 192.567 730.074 190.814C730.074 187.396 730.883 185.687 732.501 185.687ZM732.501 194.946C732.982 194.946 733.338 194.609 733.57 193.934C733.81 193.251 733.931 192.211 733.931 190.814C733.931 189.418 733.81 188.383 733.57 187.709C733.338 187.025 732.982 186.683 732.501 186.683C732.019 186.683 731.658 187.025 731.417 187.709C731.186 188.383 731.071 189.418 731.071 190.814C731.071 192.211 731.186 193.251 731.417 193.934C731.658 194.609 732.019 194.946 732.501 194.946ZM753.686 191.031V196.491H752.646V185.398H753.686V189.991H755.217V191.031H753.686ZM748.673 185.716C748.654 187.526 748.515 189.076 748.255 190.367L751.649 195.148L750.797 195.769L747.908 191.652C747.552 192.894 747.065 193.877 746.449 194.599C745.833 195.311 745.12 195.711 744.311 195.798V194.714C745.014 194.589 745.611 194.113 746.102 193.284C746.603 192.456 746.979 191.383 747.229 190.063C747.479 188.744 747.609 187.285 747.619 185.687L748.673 185.716ZM764.46 185.398H765.5V194.093H764.46V193.27H761.152V192.432H764.46V185.398ZM759.404 189.731C758.47 189.731 757.719 189.543 757.151 189.168C756.583 188.783 756.299 188.253 756.299 187.579C756.299 186.914 756.583 186.394 757.151 186.019C757.729 185.634 758.48 185.441 759.404 185.441C760.329 185.441 761.075 185.634 761.643 186.019C762.211 186.394 762.495 186.914 762.495 187.579C762.495 188.263 762.211 188.792 761.643 189.168C761.084 189.543 760.338 189.731 759.404 189.731ZM759.404 186.322C758.778 186.322 758.273 186.433 757.887 186.654C757.512 186.866 757.324 187.174 757.324 187.579C757.324 187.993 757.512 188.311 757.887 188.532C758.273 188.754 758.778 188.864 759.404 188.864C760.02 188.864 760.516 188.754 760.892 188.532C761.277 188.311 761.47 187.993 761.47 187.579C761.47 187.174 761.277 186.866 760.892 186.654C760.516 186.433 760.02 186.322 759.404 186.322ZM755.649 191.508V190.598H759.91C761.672 190.598 762.871 190.449 763.506 190.15V191.06C762.871 191.359 761.595 191.508 759.679 191.508V193.588H758.639V191.508H755.649ZM765.803 196.318H756.631V192.981H757.685V195.364H765.803V196.318ZM772.33 185.383C773.698 185.383 774.805 185.547 775.653 185.874C776.5 186.192 776.924 186.693 776.924 187.377C776.924 188.06 776.5 188.561 775.653 188.879C774.805 189.197 773.698 189.356 772.33 189.356C770.963 189.356 769.851 189.197 768.994 188.879C768.146 188.561 767.723 188.06 767.723 187.377C767.723 186.693 768.146 186.192 768.994 185.874C769.851 185.547 770.963 185.383 772.33 185.383ZM772.33 186.236C771.3 186.236 770.453 186.332 769.788 186.524C769.133 186.707 768.806 186.991 768.806 187.377C768.806 187.762 769.133 188.046 769.788 188.229C770.443 188.412 771.29 188.503 772.33 188.503C773.361 188.503 774.203 188.412 774.858 188.229C775.513 188.046 775.84 187.762 775.84 187.377C775.84 186.991 775.508 186.707 774.844 186.524C774.189 186.332 773.351 186.236 772.33 186.236ZM767.073 191.017V190.15H777.588V191.017H767.073ZM768.849 194.512V195.523H777.025V196.332H767.838V193.819H775.811V192.837H767.809V192.042H776.837V194.512H768.849ZM786.279 189.327C785.807 189.933 785.181 190.424 784.401 190.8C783.621 191.166 782.725 191.387 781.714 191.464V190.453C782.86 190.357 783.813 190.034 784.574 189.486C785.335 188.937 785.816 188.253 786.019 187.434H781.989V186.438H786.062V185.123H787.116V186.438H791.262V187.434H787.174C787.097 187.849 786.986 188.2 786.842 188.489L791.522 190.41L791.161 191.363L786.279 189.327ZM787.145 193.631V196.751H786.091V193.631H781.367V192.62H791.883V193.631H787.145ZM802.296 191.031V196.491H801.256V185.398H802.296V189.991H803.827V191.031H802.296ZM798.902 185.831V188.431C798.902 189.895 798.675 191.18 798.223 192.288C797.77 193.395 797.115 194.252 796.258 194.859C795.401 195.466 794.385 195.769 793.21 195.769V194.729C794.183 194.729 795.016 194.474 795.709 193.963C796.412 193.453 796.947 192.726 797.313 191.782C797.679 190.839 797.862 189.736 797.862 188.474V186.828H793.21V185.831H798.902ZM807.765 186.842V185.817H816.88V193.14H815.811V186.842H807.765ZM817.616 195.928H807.101V194.902H811.131V189.818H812.2V194.902H817.616V195.928ZM829.055 191.566H818.539V190.67H820.923V189.182C820.374 189.019 819.945 188.792 819.637 188.503C819.329 188.214 819.175 187.863 819.175 187.449C819.175 186.746 819.608 186.221 820.475 185.874C821.342 185.518 822.449 185.34 823.797 185.34C825.145 185.34 826.248 185.518 827.105 185.874C827.972 186.221 828.405 186.746 828.405 187.449C828.405 187.863 828.251 188.214 827.943 188.503C827.635 188.792 827.206 189.019 826.657 189.182V190.67H829.055V191.566ZM823.797 186.236C822.776 186.236 821.929 186.337 821.255 186.539C820.59 186.741 820.258 187.044 820.258 187.449C820.258 187.853 820.59 188.157 821.255 188.359C821.919 188.561 822.767 188.662 823.797 188.662C824.818 188.662 825.66 188.561 826.325 188.359C826.989 188.157 827.322 187.853 827.322 187.449C827.322 187.044 826.985 186.741 826.31 186.539C825.646 186.337 824.808 186.236 823.797 186.236ZM825.617 190.67V189.413C825.097 189.51 824.49 189.558 823.797 189.558C823.113 189.558 822.502 189.51 821.963 189.413V190.67H825.617ZM823.797 192.533C825.165 192.533 826.272 192.687 827.119 192.996C827.967 193.294 828.39 193.795 828.39 194.498C828.39 195.201 827.967 195.706 827.119 196.014C826.272 196.332 825.165 196.491 823.797 196.491C822.43 196.491 821.318 196.332 820.46 196.014C819.613 195.706 819.189 195.201 819.189 194.498C819.189 193.795 819.613 193.294 820.46 192.996C821.318 192.687 822.43 192.533 823.797 192.533ZM823.797 195.61C824.799 195.61 825.632 195.523 826.296 195.35C826.96 195.177 827.293 194.893 827.293 194.498C827.293 194.113 826.96 193.838 826.296 193.674C825.632 193.501 824.799 193.414 823.797 193.414C822.796 193.414 821.958 193.501 821.284 193.674C820.619 193.838 820.287 194.113 820.287 194.498C820.287 194.893 820.619 195.177 821.284 195.35C821.958 195.523 822.796 195.61 823.797 195.61ZM837.07 187.203V188.2H830.223V187.203H833.112V185.369H834.167V187.203H837.07ZM839.468 191.031V196.491H838.428V185.398H839.468V189.991H840.999V191.031H839.468ZM833.647 189.182C834.196 189.182 834.692 189.322 835.135 189.601C835.577 189.88 835.924 190.275 836.175 190.786C836.425 191.296 836.55 191.883 836.55 192.548C836.55 193.212 836.425 193.804 836.175 194.324C835.924 194.835 835.577 195.23 835.135 195.509C834.692 195.788 834.196 195.928 833.647 195.928C833.088 195.928 832.587 195.788 832.145 195.509C831.702 195.23 831.355 194.835 831.105 194.324C830.854 193.804 830.729 193.212 830.729 192.548C830.729 191.883 830.854 191.296 831.105 190.786C831.355 190.275 831.702 189.88 832.145 189.601C832.587 189.322 833.088 189.182 833.647 189.182ZM833.647 194.96C833.993 194.96 834.306 194.864 834.586 194.671C834.875 194.469 835.101 194.185 835.265 193.819C835.438 193.453 835.525 193.029 835.525 192.548C835.525 192.066 835.438 191.643 835.265 191.277C835.101 190.911 834.875 190.631 834.586 190.439C834.306 190.237 833.993 190.136 833.647 190.136C833.29 190.136 832.968 190.237 832.679 190.439C832.4 190.631 832.173 190.911 832 191.277C831.836 191.643 831.755 192.066 831.755 192.548C831.755 193.029 831.836 193.453 832 193.819C832.173 194.185 832.4 194.469 832.679 194.671C832.968 194.864 833.29 194.96 833.647 194.96ZM850.155 196.491V185.398H851.21V196.491H850.155ZM847.743 188.431C847.743 189.904 847.507 191.195 847.035 192.302C846.563 193.4 845.889 194.252 845.013 194.859C844.146 195.466 843.121 195.769 841.936 195.769V194.729C842.909 194.729 843.752 194.474 844.464 193.963C845.177 193.453 845.721 192.731 846.096 191.797C846.482 190.853 846.674 189.746 846.674 188.474V186.828H841.936V185.831H847.743V188.431ZM865.866 196.491H864.912V190.988H863.323V196.303H862.385V185.456H863.323V189.948H864.912V185.398H865.866V196.491ZM857.055 194.873C857.7 194.873 858.186 194.806 858.513 194.671V195.567C858.148 195.721 857.584 195.798 856.823 195.798H855.971V185.831H858.47V186.756H856.91V194.873H857.055ZM860.117 194.873C860.473 194.873 860.791 194.854 861.07 194.816C861.359 194.777 861.609 194.705 861.821 194.599V195.509C861.398 195.701 860.772 195.798 859.943 195.798H858.947V185.831H861.605V186.756H859.886V194.873H860.117ZM867.944 189.933V185.557H876.885V189.933H867.944ZM868.984 186.467V189.023H875.845V186.467H868.984ZM877.665 192.1H872.928V194.093H871.888V192.1H867.15V191.161H877.665V192.1ZM877.116 195.379V196.332H867.93V193.111H868.984V195.379H877.116ZM888.67 196.491H887.674V185.398H888.67V196.491ZM886.128 185.456V196.303H885.132V191.147H883.615C883.586 192.774 883.369 193.983 882.965 194.772C882.56 195.552 881.968 195.942 881.188 195.942C880.389 195.942 879.782 195.528 879.368 194.7C878.964 193.862 878.762 192.567 878.762 190.814C878.762 187.396 879.57 185.687 881.188 185.687C882.7 185.687 883.504 187.155 883.6 190.092H885.132V185.456H886.128ZM881.188 194.946C881.67 194.946 882.026 194.609 882.257 193.934C882.498 193.251 882.618 192.211 882.618 190.814C882.618 189.418 882.498 188.383 882.257 187.709C882.026 187.025 881.67 186.683 881.188 186.683C880.707 186.683 880.346 187.025 880.105 187.709C879.874 188.383 879.758 189.418 879.758 190.814C879.758 192.211 879.874 193.251 880.105 193.934C880.346 194.609 880.707 194.946 881.188 194.946ZM727.288 205.398H728.328V213.66H727.288V209.052H725.121V208.084H727.288V205.398ZM722.16 209.413C721.813 210.155 721.341 210.752 720.744 211.204C720.147 211.657 719.459 211.931 718.679 212.028V211.017C719.594 210.872 720.321 210.415 720.86 209.644C721.409 208.874 721.712 207.882 721.77 206.669H718.809V205.716H725.554V206.669H722.81C722.781 207.362 722.69 207.964 722.536 208.474L725.829 211.132L725.237 211.941L722.16 209.413ZM728.573 216.318H719.444V212.866H720.499V215.321H728.573V216.318ZM733.107 208.113C733.098 208.999 733.045 209.851 732.948 210.67L735.52 215.177L734.696 215.682L732.674 212.086C732.443 213.183 732.101 214.045 731.648 214.671C731.196 215.297 730.637 215.673 729.973 215.798V214.758C730.666 214.575 731.186 213.901 731.533 212.736C731.889 211.57 732.077 210.03 732.096 208.113H730.074V207.131H732.096V205.369H733.107V207.131H735.101V208.113H733.107ZM739.983 216.491H738.986V205.398H739.983V216.491ZM737.224 205.456V216.303H736.242V210.973H734.696V209.948H736.242V205.456H737.224ZM751.19 212.158H750.15V208.966H747.998V208.012H750.15V205.398H751.19V212.158ZM745.008 209.327C744.661 210.02 744.19 210.583 743.593 211.017C743.005 211.44 742.326 211.7 741.556 211.797V210.786C742.48 210.641 743.212 210.208 743.751 209.486C744.291 208.754 744.589 207.815 744.647 206.669H741.686V205.716H748.431V206.669H745.687C745.658 207.256 745.567 207.839 745.413 208.417L748.72 210.887L748.157 211.71L745.008 209.327ZM751.19 212.808V216.462H750.136V213.776H742.22V212.808H751.19ZM761.517 213.646V205.398H762.571V213.646H761.517ZM756.23 205.528C756.904 205.528 757.491 205.667 757.992 205.947C758.493 206.216 758.873 206.597 759.133 207.088C759.403 207.569 759.538 208.118 759.538 208.734C759.538 209.351 759.403 209.904 759.133 210.396C758.873 210.877 758.493 211.257 757.992 211.537C757.491 211.806 756.904 211.941 756.23 211.941C755.556 211.941 754.968 211.806 754.468 211.537C753.967 211.257 753.582 210.877 753.312 210.396C753.042 209.904 752.908 209.351 752.908 208.734C752.908 208.118 753.042 207.569 753.312 207.088C753.582 206.597 753.967 206.216 754.468 205.947C754.968 205.667 755.556 205.528 756.23 205.528ZM756.23 206.452C755.546 206.452 754.997 206.659 754.583 207.073C754.169 207.487 753.962 208.041 753.962 208.734C753.962 209.428 754.169 209.981 754.583 210.396C754.997 210.8 755.546 211.002 756.23 211.002C756.914 211.002 757.462 210.8 757.877 210.396C758.291 209.981 758.498 209.428 758.498 208.734C758.498 208.041 758.291 207.487 757.877 207.073C757.462 206.659 756.914 206.452 756.23 206.452ZM762.874 215.321V216.318H753.832V212.736H754.887V215.321H762.874ZM776.938 216.491H775.898V211.017H772.966C772.61 212.509 771.964 213.674 771.03 214.512C770.096 215.35 768.936 215.769 767.549 215.769V214.729C768.512 214.729 769.34 214.474 770.034 213.963C770.737 213.453 771.271 212.726 771.637 211.782C772.003 210.839 772.186 209.736 772.186 208.474V206.828H767.549V205.831H773.24V208.431C773.24 208.951 773.202 209.471 773.125 209.991H775.898V205.398H776.938V216.491ZM788.593 216.491H787.597V210.988H785.69V216.303H784.708V205.456H785.69V209.948H787.597V205.398H788.593V216.491ZM780.692 214.844C781.385 214.844 781.987 214.801 782.498 214.714C783.008 214.618 783.465 214.474 783.87 214.281V215.278C783.148 215.624 782.088 215.798 780.692 215.798H778.872V210.251H782.093V206.784H778.872V205.831H783.075V211.204H779.854V214.844H780.692ZM793.528 206.712V205.687H802.542V210.728H801.458V206.712H793.528ZM800.678 212.692V216.751H799.638V212.692H796.489V216.751H795.435V212.692H792.806V211.681H803.322V212.692H800.678ZM814.76 215.928H804.244V214.902H808.968V212.042H804.981V205.831H814.023V212.042H810.022V214.902H814.76V215.928ZM812.983 211.031V206.857H806.007V211.031H812.983ZM817.503 207.94V208.908H825.577V209.659H816.492V207.247H824.422V206.308H816.477V205.557H825.418V207.94H817.503ZM815.683 211.392V210.569H826.198V211.392H815.683ZM817.445 214.642V215.581H825.635V216.332H816.448V213.949H824.436V213.039H816.42V212.302H825.447V214.642H817.445ZM830.036 207.146V206.308H832.982V205.094H834.037V206.308H837.085V207.146H830.036ZM839.497 209.486V212.996H838.457V205.398H839.497V208.46H840.999V209.486H839.497ZM837.503 212.288C837.186 212.432 836.704 212.543 836.059 212.62C835.414 212.687 834.672 212.721 833.835 212.721H829.978V211.869H833.011V210.988C832.241 210.94 831.634 210.771 831.191 210.482C830.748 210.184 830.527 209.808 830.527 209.356C830.527 208.845 830.796 208.441 831.336 208.142C831.885 207.844 832.621 207.694 833.546 207.694C834.46 207.694 835.187 207.844 835.727 208.142C836.276 208.441 836.55 208.845 836.55 209.356C836.55 209.808 836.329 210.184 835.886 210.482C835.443 210.771 834.826 210.944 834.037 211.002V211.869C835.732 211.85 836.887 211.7 837.503 211.421V212.288ZM831.509 209.356C831.509 209.616 831.692 209.827 832.058 209.991C832.433 210.145 832.929 210.222 833.546 210.222C834.152 210.222 834.639 210.145 835.005 209.991C835.38 209.827 835.568 209.616 835.568 209.356C835.568 209.105 835.38 208.898 835.005 208.734C834.639 208.571 834.152 208.489 833.546 208.489C832.929 208.489 832.433 208.571 832.058 208.734C831.692 208.898 831.509 209.105 831.509 209.356ZM839.497 213.646V216.462H838.442V214.512H830.7V213.646H839.497ZM852.437 208.633H850.906V211.537H849.866V205.398H850.906V207.608H852.437V208.633ZM845.071 208.879C844.724 209.534 844.247 210.073 843.641 210.497C843.044 210.911 842.355 211.171 841.575 211.277V210.28C842.471 210.145 843.188 209.755 843.727 209.11C844.267 208.455 844.57 207.637 844.637 206.654H841.705V205.716H848.436V206.654H845.692C845.663 207.165 845.586 207.622 845.461 208.027L848.769 210.208L848.249 211.031L845.071 208.879ZM846.602 211.941C847.94 211.941 849.019 212.129 849.837 212.504C850.656 212.87 851.065 213.439 851.065 214.209C851.065 214.979 850.656 215.547 849.837 215.913C849.019 216.279 847.94 216.462 846.602 216.462C845.263 216.462 844.185 216.279 843.366 215.913C842.548 215.547 842.139 214.979 842.139 214.209C842.139 213.439 842.548 212.87 843.366 212.504C844.185 212.129 845.263 211.941 846.602 211.941ZM846.602 215.552C847.594 215.552 848.403 215.437 849.029 215.206C849.654 214.974 849.967 214.642 849.967 214.209C849.967 213.766 849.654 213.429 849.029 213.198C848.403 212.967 847.594 212.851 846.602 212.851C845.61 212.851 844.801 212.967 844.175 213.198C843.549 213.429 843.236 213.766 843.236 214.209C843.236 214.642 843.549 214.974 844.175 215.206C844.801 215.437 845.61 215.552 846.602 215.552ZM859.947 207.203V208.2H853.1V207.203H855.989V205.369H857.044V207.203H859.947ZM862.345 211.031V216.491H861.305V205.398H862.345V209.991H863.876V211.031H862.345ZM856.524 209.182C857.073 209.182 857.569 209.322 858.011 209.601C858.454 209.88 858.801 210.275 859.051 210.786C859.302 211.296 859.427 211.883 859.427 212.548C859.427 213.212 859.302 213.804 859.051 214.324C858.801 214.835 858.454 215.23 858.011 215.509C857.569 215.788 857.073 215.928 856.524 215.928C855.965 215.928 855.464 215.788 855.021 215.509C854.579 215.23 854.232 214.835 853.981 214.324C853.731 213.804 853.606 213.212 853.606 212.548C853.606 211.883 853.731 211.296 853.981 210.786C854.232 210.275 854.579 209.88 855.021 209.601C855.464 209.322 855.965 209.182 856.524 209.182ZM856.524 214.96C856.87 214.96 857.183 214.864 857.463 214.671C857.751 214.469 857.978 214.185 858.141 213.819C858.315 213.453 858.401 213.029 858.401 212.548C858.401 212.066 858.315 211.643 858.141 211.277C857.978 210.911 857.751 210.631 857.463 210.439C857.183 210.237 856.87 210.136 856.524 210.136C856.167 210.136 855.845 210.237 855.556 210.439C855.277 210.631 855.05 210.911 854.877 211.277C854.713 211.643 854.631 212.066 854.631 212.548C854.631 213.029 854.713 213.453 854.877 213.819C855.05 214.185 855.277 214.469 855.556 214.671C855.845 214.864 856.167 214.96 856.524 214.96ZM874.144 208.706V209.659H865.088V205.412H866.128V208.706H874.144ZM864.293 211.97V211.031H874.809V211.97H864.293ZM874.245 215.379V216.332H865.059V213.053H866.113V215.379H874.245ZM884.539 209.211C884.116 210.097 883.422 210.761 882.459 211.204C881.506 211.647 880.336 211.869 878.949 211.869V210.858C880.509 210.858 881.727 210.55 882.604 209.933C883.49 209.317 883.933 208.421 883.933 207.247V206.669H878.949V205.701H884.987V207.117C884.987 207.502 884.944 207.868 884.857 208.214H887.414V205.398H888.454V213.01H887.414V209.211H884.539ZM883.947 214.166C883.417 214.83 882.748 215.355 881.939 215.74C881.14 216.116 880.312 216.308 879.455 216.318V215.292C880.129 215.283 880.779 215.138 881.405 214.859C882.04 214.57 882.584 214.17 883.037 213.66C883.49 213.15 883.788 212.562 883.933 211.898L884.987 212.086C884.872 212.577 884.717 213 884.525 213.357L888.93 215.509L888.497 216.462L883.947 214.166ZM898.766 216.491V205.398H899.82V216.491H898.766ZM893.681 205.687C894.644 205.687 895.41 206.12 895.978 206.987C896.556 207.853 896.844 209.129 896.844 210.814C896.844 212.5 896.556 213.776 895.978 214.642C895.41 215.509 894.644 215.942 893.681 215.942C892.718 215.942 891.948 215.509 891.37 214.642C890.802 213.776 890.518 212.5 890.518 210.814C890.518 209.129 890.802 207.853 891.37 206.987C891.948 206.12 892.718 205.687 893.681 205.687ZM893.681 206.683C893.036 206.683 892.521 207.03 892.136 207.723C891.75 208.407 891.558 209.437 891.558 210.814C891.558 212.201 891.75 213.236 892.136 213.92C892.521 214.604 893.036 214.946 893.681 214.946C894.307 214.946 894.817 214.604 895.212 213.92C895.607 213.227 895.804 212.191 895.804 210.814C895.804 209.447 895.607 208.417 895.212 207.723C894.817 207.03 894.307 206.683 893.681 206.683ZM909.363 208.113C908.862 208.576 908.207 208.937 907.398 209.197C906.599 209.447 905.761 209.582 904.885 209.601V208.691C905.52 208.672 906.146 208.576 906.763 208.402C907.389 208.219 907.923 207.964 908.366 207.637C908.809 207.3 909.083 206.905 909.189 206.452H905.073V205.557H914.086V206.452H910.316C910.268 206.809 910.172 207.107 910.027 207.348L914.375 208.778L914.086 209.644L909.363 208.113ZM910.099 212.548C911.313 212.577 912.295 212.75 913.046 213.068C913.797 213.376 914.173 213.853 914.173 214.498C914.173 215.201 913.749 215.706 912.902 216.014C912.054 216.332 910.947 216.491 909.579 216.491C908.212 216.491 907.1 216.332 906.243 216.014C905.395 215.706 904.972 215.201 904.972 214.498C904.972 213.853 905.347 213.376 906.098 213.068C906.859 212.75 907.846 212.577 909.059 212.548V211.378H904.322V210.482H914.837V211.378H910.099V212.548ZM913.075 214.498C913.075 214.113 912.743 213.838 912.078 213.674C911.414 213.501 910.581 213.414 909.579 213.414C908.578 213.414 907.74 213.501 907.066 213.674C906.402 213.838 906.069 214.113 906.069 214.498C906.069 214.893 906.402 215.177 907.066 215.35C907.74 215.523 908.578 215.61 909.579 215.61C910.581 215.61 911.414 215.523 912.078 215.35C912.743 215.177 913.075 214.893 913.075 214.498ZM926.276 215.928H915.76V214.917H918.259V211.753C917.633 211.474 917.152 211.099 916.815 210.627C916.477 210.145 916.309 209.591 916.309 208.966C916.309 208.291 916.502 207.704 916.887 207.203C917.272 206.703 917.821 206.317 918.533 206.048C919.246 205.769 920.074 205.629 921.018 205.629C921.962 205.629 922.79 205.769 923.502 206.048C924.215 206.317 924.764 206.703 925.149 207.203C925.534 207.704 925.727 208.291 925.727 208.966C925.727 209.591 925.558 210.145 925.221 210.627C924.884 211.099 924.403 211.474 923.777 211.753V214.917H926.276V215.928ZM921.018 206.626C920.296 206.626 919.66 206.722 919.111 206.914C918.562 207.107 918.139 207.381 917.84 207.738C917.542 208.094 917.392 208.503 917.392 208.966C917.392 209.428 917.542 209.837 917.84 210.193C918.139 210.55 918.562 210.824 919.111 211.017C919.66 211.209 920.296 211.306 921.018 211.306C921.74 211.306 922.376 211.209 922.925 211.017C923.473 210.824 923.897 210.55 924.196 210.193C924.494 209.837 924.643 209.428 924.643 208.966C924.643 208.503 924.494 208.094 924.196 207.738C923.897 207.381 923.473 207.107 922.925 206.914C922.376 206.722 921.74 206.626 921.018 206.626ZM922.737 214.917V212.114C922.188 212.24 921.615 212.302 921.018 212.302C920.373 212.302 919.8 212.24 919.299 212.114V214.917H922.737ZM927.184 207.247V206.38H930.232V205.196H931.286V206.38H934.334V207.247H927.184ZM936.689 208.821V211.724H935.649V205.398H936.689V207.81H938.22V208.821H936.689ZM930.766 211.768C929.871 211.768 929.134 211.59 928.556 211.233C927.979 210.877 927.69 210.405 927.69 209.818C927.69 209.23 927.979 208.759 928.556 208.402C929.134 208.046 929.871 207.868 930.766 207.868C931.344 207.868 931.864 207.95 932.326 208.113C932.798 208.267 933.164 208.494 933.424 208.792C933.694 209.081 933.829 209.423 933.829 209.818C933.829 210.213 933.694 210.559 933.424 210.858C933.164 211.147 932.798 211.373 932.326 211.537C931.864 211.691 931.344 211.768 930.766 211.768ZM930.766 208.691C930.14 208.691 929.635 208.797 929.25 209.009C928.874 209.221 928.686 209.49 928.686 209.818C928.686 210.145 928.874 210.415 929.25 210.627C929.635 210.839 930.14 210.944 930.766 210.944C931.392 210.944 931.893 210.839 932.269 210.627C932.644 210.415 932.832 210.145 932.832 209.818C932.832 209.49 932.644 209.221 932.269 209.009C931.893 208.797 931.392 208.691 930.766 208.691ZM936.689 212.216V216.318H927.95V212.216H928.975V213.342H935.663V212.216H936.689ZM935.663 214.18H928.975V215.451H935.663V214.18ZM947.376 216.506V205.398H948.43V216.491L947.376 216.506ZM943.591 214.787C944.092 214.787 944.588 214.739 945.079 214.642C945.58 214.536 945.994 214.401 946.321 214.238V215.249C946.004 215.422 945.594 215.557 945.094 215.653C944.603 215.75 944.102 215.798 943.591 215.798H939.273V205.759H940.341V214.787H943.591ZM959.566 211.031V216.491H958.526V205.398H959.566V209.991H961.097V211.031H959.566ZM954.784 214.801C955.285 214.801 955.786 214.753 956.287 214.657C956.787 214.551 957.197 214.416 957.514 214.252V215.263C957.206 215.427 956.797 215.557 956.287 215.653C955.776 215.75 955.261 215.798 954.741 215.798H950.61V205.831H956.691V206.828H951.664V214.801H954.784ZM962.597 216.072C962.376 216.072 962.188 216 962.034 215.856C961.89 215.701 961.817 215.509 961.817 215.278C961.817 215.056 961.89 214.873 962.034 214.729C962.188 214.575 962.376 214.498 962.597 214.498C962.819 214.498 963.002 214.575 963.146 214.729C963.3 214.873 963.377 215.056 963.377 215.278C963.377 215.509 963.3 215.701 963.146 215.856C963.002 216 962.819 216.072 962.597 216.072ZM720.701 236.693C720.239 235.942 719.883 235.08 719.632 234.108C719.382 233.126 719.257 232.071 719.257 230.944C719.257 229.818 719.382 228.763 719.632 227.781C719.883 226.789 720.239 225.927 720.701 225.196H721.568C721.086 226.033 720.73 226.924 720.499 227.868C720.268 228.811 720.152 229.837 720.152 230.944C720.152 232.052 720.268 233.077 720.499 234.021C720.73 234.965 721.086 235.856 721.568 236.693H720.701ZM733.533 228.633H732.002V231.537H730.962V225.398H732.002V227.608H733.533V228.633ZM726.166 228.879C725.82 229.534 725.343 230.073 724.736 230.497C724.139 230.911 723.451 231.171 722.671 231.277V230.28C723.566 230.145 724.284 229.755 724.823 229.11C725.362 228.455 725.666 227.637 725.733 226.654H722.801V225.716H729.532V226.654H726.788C726.759 227.165 726.682 227.622 726.556 228.027L729.864 230.208L729.344 231.031L726.166 228.879ZM727.698 231.941C729.036 231.941 730.115 232.129 730.933 232.504C731.752 232.87 732.161 233.439 732.161 234.209C732.161 234.979 731.752 235.547 730.933 235.913C730.115 236.279 729.036 236.462 727.698 236.462C726.359 236.462 725.281 236.279 724.462 235.913C723.644 235.547 723.234 234.979 723.234 234.209C723.234 233.439 723.644 232.87 724.462 232.504C725.281 232.129 726.359 231.941 727.698 231.941ZM727.698 235.552C728.689 235.552 729.498 235.437 730.124 235.206C730.75 234.974 731.063 234.642 731.063 234.209C731.063 233.766 730.75 233.429 730.124 233.198C729.498 232.967 728.689 232.851 727.698 232.851C726.706 232.851 725.897 232.967 725.271 233.198C724.645 233.429 724.332 233.766 724.332 234.209C724.332 234.642 724.645 234.974 725.271 235.206C725.897 235.437 726.706 235.552 727.698 235.552ZM744.033 236.491H743.036V230.988H741.129V236.303H740.147V225.456H741.129V229.948H743.036V225.398H744.033V236.491ZM736.551 225.687C737.359 225.687 737.966 226.106 738.371 226.943C738.775 227.781 738.977 229.071 738.977 230.814C738.977 232.567 738.775 233.862 738.371 234.7C737.966 235.528 737.359 235.942 736.551 235.942C735.751 235.942 735.145 235.528 734.731 234.7C734.326 233.862 734.124 232.567 734.124 230.814C734.124 227.396 734.933 225.687 736.551 225.687ZM736.551 234.946C737.032 234.946 737.388 234.609 737.619 233.934C737.86 233.251 737.981 232.211 737.981 230.814C737.981 229.418 737.86 228.383 737.619 227.709C737.388 227.025 737.032 226.683 736.551 226.683C736.069 226.683 735.708 227.025 735.467 227.709C735.236 228.383 735.121 229.418 735.121 230.814C735.121 232.211 735.236 233.251 735.467 233.934C735.708 234.609 736.069 234.946 736.551 234.946ZM754.128 233.646V225.398H755.182V233.646H754.128ZM748.841 225.528C749.515 225.528 750.103 225.667 750.603 225.947C751.104 226.216 751.485 226.597 751.745 227.088C752.014 227.569 752.149 228.118 752.149 228.734C752.149 229.351 752.014 229.904 751.745 230.396C751.485 230.877 751.104 231.257 750.603 231.537C750.103 231.806 749.515 231.941 748.841 231.941C748.167 231.941 747.58 231.806 747.079 231.537C746.578 231.257 746.193 230.877 745.923 230.396C745.654 229.904 745.519 229.351 745.519 228.734C745.519 228.118 745.654 227.569 745.923 227.088C746.193 226.597 746.578 226.216 747.079 225.947C747.58 225.667 748.167 225.528 748.841 225.528ZM748.841 226.452C748.157 226.452 747.609 226.659 747.195 227.073C746.78 227.487 746.573 228.041 746.573 228.734C746.573 229.428 746.78 229.981 747.195 230.396C747.609 230.8 748.157 231.002 748.841 231.002C749.525 231.002 750.074 230.8 750.488 230.396C750.902 229.981 751.109 229.428 751.109 228.734C751.109 228.041 750.902 227.487 750.488 227.073C750.074 226.659 749.525 226.452 748.841 226.452ZM755.486 235.321V236.318H746.443V232.736H747.498V235.321H755.486ZM764.595 229.327C764.123 229.933 763.497 230.424 762.717 230.8C761.937 231.166 761.042 231.387 760.031 231.464V230.453C761.176 230.357 762.13 230.034 762.891 229.486C763.651 228.937 764.133 228.253 764.335 227.434H760.305V226.438H764.378V225.123H765.433V226.438H769.578V227.434H765.491C765.414 227.849 765.303 228.2 765.158 228.489L769.838 230.41L769.477 231.363L764.595 229.327ZM765.462 233.631V236.751H764.407V233.631H759.684V232.62H770.199V233.631H765.462ZM780.612 231.031V236.491H779.572V225.398H780.612V229.991H782.143V231.031H780.612ZM777.218 225.831V228.431C777.218 229.895 776.992 231.18 776.539 232.288C776.086 233.395 775.432 234.252 774.575 234.859C773.718 235.466 772.702 235.769 771.527 235.769V234.729C772.499 234.729 773.332 234.474 774.026 233.963C774.729 233.453 775.263 232.726 775.629 231.782C775.995 230.839 776.178 229.736 776.178 228.474V226.828H771.527V225.831H777.218ZM786.082 226.842V225.817H795.196V233.14H794.127V226.842H786.082ZM795.933 235.928H785.417V234.902H789.447V229.818H790.516V234.902H795.933V235.928ZM807.371 231.566H796.856V230.67H799.239V229.182C798.69 229.019 798.262 228.792 797.954 228.503C797.645 228.214 797.491 227.863 797.491 227.449C797.491 226.746 797.925 226.221 798.791 225.874C799.658 225.518 800.765 225.34 802.114 225.34C803.462 225.34 804.564 225.518 805.421 225.874C806.288 226.221 806.721 226.746 806.721 227.449C806.721 227.863 806.567 228.214 806.259 228.503C805.951 228.792 805.522 229.019 804.974 229.182V230.67H807.371V231.566ZM802.114 226.236C801.093 226.236 800.245 226.337 799.571 226.539C798.907 226.741 798.575 227.044 798.575 227.449C798.575 227.853 798.907 228.157 799.571 228.359C800.236 228.561 801.083 228.662 802.114 228.662C803.134 228.662 803.977 228.561 804.641 228.359C805.306 228.157 805.638 227.853 805.638 227.449C805.638 227.044 805.301 226.741 804.627 226.539C803.962 226.337 803.125 226.236 802.114 226.236ZM803.934 230.67V229.413C803.414 229.51 802.807 229.558 802.114 229.558C801.43 229.558 800.818 229.51 800.279 229.413V230.67H803.934ZM802.114 232.533C803.481 232.533 804.588 232.687 805.436 232.996C806.283 233.294 806.707 233.795 806.707 234.498C806.707 235.201 806.283 235.706 805.436 236.014C804.588 236.332 803.481 236.491 802.114 236.491C800.746 236.491 799.634 236.332 798.777 236.014C797.929 235.706 797.506 235.201 797.506 234.498C797.506 233.795 797.929 233.294 798.777 232.996C799.634 232.687 800.746 232.533 802.114 232.533ZM802.114 235.61C803.115 235.61 803.948 235.523 804.612 235.35C805.277 235.177 805.609 234.893 805.609 234.498C805.609 234.113 805.277 233.838 804.612 233.674C803.948 233.501 803.115 233.414 802.114 233.414C801.112 233.414 800.274 233.501 799.6 233.674C798.936 233.838 798.604 234.113 798.604 234.498C798.604 234.893 798.936 235.177 799.6 235.35C800.274 235.523 801.112 235.61 802.114 235.61ZM820.944 236.491H819.89V225.398H820.944V236.491ZM815.802 225.716C815.783 227.468 815.633 229.004 815.354 230.323L818.835 235.133L817.997 235.769L815.022 231.594C814.646 232.856 814.146 233.853 813.52 234.584C812.903 235.307 812.186 235.711 811.367 235.798V234.714C812.08 234.589 812.687 234.113 813.187 233.284C813.688 232.447 814.068 231.368 814.328 230.049C814.588 228.73 814.723 227.276 814.733 225.687L815.802 225.716ZM834.936 228.807V231.436H833.896V225.398H834.936V227.752H836.467V228.807H834.936ZM831.772 226.842C831.772 228.296 831.243 229.37 830.183 230.063C829.134 230.747 827.656 231.089 825.749 231.089V230.121C827.338 230.111 828.566 229.856 829.432 229.356C830.299 228.845 830.732 228.06 830.732 227.001V226.64H825.749V225.701H831.772V226.842ZM834.936 232.086V236.318H826.197V232.086H834.936ZM833.896 235.379V233.024H827.251V235.379H833.896ZM843.875 230.511V229.529H845.724V227.694H843.875V226.712H845.724V225.398H846.75V233.66H845.724V230.511H843.875ZM837.375 231.623V225.701H843.225V231.623H837.375ZM838.386 226.654V230.67H842.185V226.654H838.386ZM846.995 236.318H837.866V232.779H838.921V235.321H846.995V236.318ZM858.405 232.244H857.408V229.052H855.501V232.129H854.519V225.456H855.501V228.027H857.408V225.398H858.405V232.244ZM850.937 231.927C850.167 231.927 849.57 231.638 849.146 231.06C848.732 230.482 848.525 229.697 848.525 228.706C848.525 227.723 848.732 226.943 849.146 226.366C849.57 225.788 850.167 225.499 850.937 225.499C851.707 225.499 852.3 225.788 852.714 226.366C853.137 226.943 853.349 227.723 853.349 228.706C853.349 229.697 853.137 230.482 852.714 231.06C852.3 231.638 851.707 231.927 850.937 231.927ZM850.937 226.423C850.484 226.423 850.133 226.621 849.883 227.016C849.632 227.41 849.507 227.974 849.507 228.706C849.507 229.437 849.632 230.001 849.883 230.396C850.133 230.79 850.484 230.988 850.937 230.988C851.39 230.988 851.741 230.79 851.991 230.396C852.242 230.001 852.367 229.437 852.367 228.706C852.367 227.974 852.242 227.41 851.991 227.016C851.741 226.621 851.39 226.423 850.937 226.423ZM858.405 232.894V236.462H857.365V233.848H849.305V232.894H858.405ZM862.675 227.146V226.308H865.622V225.094H866.676V226.308H869.724V227.146H862.675ZM872.136 229.486V232.996H871.096V225.398H872.136V228.46H873.639V229.486H872.136ZM870.143 232.288C869.825 232.432 869.344 232.543 868.699 232.62C868.053 232.687 867.312 232.721 866.474 232.721H862.617V231.869H865.651V230.988C864.88 230.94 864.274 230.771 863.831 230.482C863.388 230.184 863.166 229.808 863.166 229.356C863.166 228.845 863.436 228.441 863.975 228.142C864.524 227.844 865.261 227.694 866.185 227.694C867.1 227.694 867.827 227.844 868.366 228.142C868.915 228.441 869.19 228.845 869.19 229.356C869.19 229.808 868.968 230.184 868.525 230.482C868.082 230.771 867.466 230.944 866.676 231.002V231.869C868.371 231.85 869.527 231.7 870.143 231.421V232.288ZM864.149 229.356C864.149 229.616 864.332 229.827 864.697 229.991C865.073 230.145 865.569 230.222 866.185 230.222C866.792 230.222 867.278 230.145 867.644 229.991C868.02 229.827 868.207 229.616 868.207 229.356C868.207 229.105 868.02 228.898 867.644 228.734C867.278 228.571 866.792 228.489 866.185 228.489C865.569 228.489 865.073 228.571 864.697 228.734C864.332 228.898 864.149 229.105 864.149 229.356ZM872.136 233.646V236.462H871.082V234.512H863.34V233.646H872.136ZM884.138 236.491H883.142V230.973H881.235V236.303H880.253V225.456H881.235V229.948H883.142V225.398H884.138V236.491ZM876.959 234.816C877.412 234.816 877.855 234.777 878.288 234.7C878.722 234.623 879.097 234.517 879.415 234.382V235.35C879.097 235.494 878.712 235.605 878.259 235.682C877.807 235.759 877.33 235.798 876.829 235.798H874.417V225.831H878.967V226.813H875.428V234.816H876.959ZM885.523 236.693C886.005 235.856 886.356 234.965 886.578 234.021C886.809 233.077 886.924 232.052 886.924 230.944C886.924 229.837 886.809 228.811 886.578 227.868C886.356 226.924 886.005 226.033 885.523 225.196H886.376C886.838 225.927 887.189 226.784 887.43 227.767C887.68 228.749 887.806 229.808 887.806 230.944C887.806 232.071 887.68 233.126 887.43 234.108C887.189 235.08 886.838 235.942 886.376 236.693H885.523Z" fill="black"/>
</svg>
