<svg width="996" height="274" viewBox="0 0 996 274" fill="none" xmlns="http://www.w3.org/2000/svg">
<rect width="996" height="274" rx="30" fill="#EBEBEB"/>
<path d="M65.7646 99.54H175.497V191.946H65.7646V99.54Z" fill="#F9D53D"/>
<path d="M175.497 174.62V191.946H65.7646V99.54H85.9784V157.294C85.9784 161.889 87.8039 166.296 91.0531 169.545C94.3024 172.794 98.7094 174.62 103.305 174.62H175.497Z" fill="#F7B43E"/>
<path d="M100.417 209.272C109.986 209.272 117.743 201.515 117.743 191.946C117.743 182.377 109.986 174.62 100.417 174.62C90.8477 174.62 83.0906 182.377 83.0906 191.946C83.0906 201.515 90.8477 209.272 100.417 209.272Z" fill="#4D4D4D"/>
<path d="M115.664 200.205C114.28 202.756 112.278 204.92 109.841 206.496C107.404 208.073 104.609 209.012 101.714 209.226C98.8198 209.441 95.9174 208.926 93.274 207.727C90.6305 206.528 88.3307 204.684 86.5857 202.364C84.8407 200.044 83.7064 197.324 83.287 194.451C82.8676 191.579 83.1766 188.647 84.1855 185.926C85.1944 183.204 86.871 180.779 89.0612 178.875C91.2514 176.97 93.8851 175.646 96.7204 175.024C95.1386 177.942 94.4284 181.253 94.6742 184.564C94.92 187.874 96.1116 191.044 98.1071 193.696C100.103 196.349 102.818 198.373 105.931 199.526C109.043 200.68 112.421 200.915 115.664 200.205Z" fill="#333333"/>
<path d="M100.417 197.721C103.607 197.721 106.192 195.135 106.192 191.946C106.192 188.756 103.607 186.17 100.417 186.17C97.2273 186.17 94.6416 188.756 94.6416 191.946C94.6416 195.135 97.2273 197.721 100.417 197.721Z" fill="#F2E6C7"/>
<path d="M102.063 197.49C101.527 197.642 100.973 197.719 100.417 197.721C98.8851 197.721 97.4161 197.113 96.333 196.03C95.2499 194.947 94.6415 193.478 94.6415 191.946C94.629 190.837 94.951 189.75 95.5655 188.827C96.7501 192.335 99.0271 195.371 102.063 197.49Z" fill="#EFD59A"/>
<path d="M175.497 128.417V154.406V191.946H233.25V154.406L221.7 128.417H175.497Z" fill="#F2E6C7"/>
<path d="M233.25 180.395V191.946H175.497V128.417H198.598V165.957C198.598 169.786 200.119 173.458 202.827 176.166C205.535 178.874 209.207 180.395 213.036 180.395H233.25Z" fill="#EFD59A"/>
<path d="M204.373 209.272C213.942 209.272 221.7 201.515 221.7 191.946C221.7 182.377 213.942 174.62 204.373 174.62C194.805 174.62 187.047 182.377 187.047 191.946C187.047 201.515 194.805 209.272 204.373 209.272Z" fill="#4D4D4D"/>
<path d="M219.62 200.205C218.237 202.756 216.235 204.92 213.798 206.496C211.36 208.073 208.566 209.012 205.671 209.226C202.777 209.441 199.874 208.926 197.231 207.727C194.587 206.528 192.288 204.684 190.543 202.364C188.797 200.044 187.663 197.324 187.244 194.451C186.824 191.579 187.133 188.647 188.142 185.926C189.151 183.204 190.828 180.779 193.018 178.875C195.208 176.97 197.842 175.646 200.677 175.024C199.095 177.942 198.385 181.253 198.631 184.564C198.877 187.874 200.068 191.044 202.064 193.696C204.059 196.349 206.775 198.373 209.887 199.526C213 200.68 216.378 200.915 219.62 200.205Z" fill="#333333"/>
<path d="M204.374 197.721C207.563 197.721 210.149 195.135 210.149 191.946C210.149 188.756 207.563 186.17 204.374 186.17C201.184 186.17 198.598 188.756 198.598 191.946C198.598 195.135 201.184 197.721 204.374 197.721Z" fill="#F2E6C7"/>
<path d="M206.02 197.49C205.484 197.642 204.93 197.719 204.374 197.721C202.842 197.721 201.373 197.113 200.29 196.03C199.207 194.947 198.598 193.478 198.598 191.946C198.586 190.837 198.908 189.75 199.522 188.827C200.707 192.335 202.984 195.371 206.02 197.49Z" fill="#EFD59A"/>
<path d="M103.305 99.54V128.417L120.631 122.642L137.957 128.417V99.54H103.305Z" fill="#FBB03B"/>
<path d="M137.957 120.707V128.417L120.631 122.642L103.305 128.417V99.54H109.08V122.642L126.406 116.866L137.957 120.707Z" fill="#F7931E"/>
<path d="M77.3154 142.855H109.08V160.181H77.3154V142.855Z" fill="#F2E6C7"/>
<path d="M86.2384 160.181H77.3154V142.855H85.9785V157.294C85.9764 158.262 86.0634 159.229 86.2384 160.181Z" fill="#EFD59A"/>
<path d="M192.823 128.417V154.406H233.25L221.7 128.417H192.823Z" fill="#92D7EF"/>
<path d="M233.25 154.406H192.823V128.417H204.373V134.192C204.373 137.256 205.59 140.194 207.757 142.36C209.923 144.526 212.861 145.743 215.924 145.743H229.41L233.25 154.406Z" fill="#54C4E2"/>
<path d="M65.7646 165.957C66.5305 165.957 67.265 165.652 67.8065 165.111C68.3481 164.569 68.6523 163.835 68.6523 163.069V102.427H100.417V128.417C100.419 128.875 100.53 129.326 100.741 129.733C100.952 130.139 101.256 130.49 101.63 130.756C102 131.024 102.429 131.201 102.88 131.271C103.332 131.341 103.794 131.303 104.229 131.16L120.631 125.673L137.033 131.304C137.339 131.346 137.65 131.346 137.957 131.304C138.561 131.313 139.15 131.12 139.632 130.756C140.005 130.49 140.309 130.139 140.52 129.733C140.731 129.326 140.842 128.875 140.844 128.417V102.427H147.977C148.743 102.427 149.477 102.123 150.019 101.582C150.56 101.04 150.865 100.306 150.865 99.5398C150.865 98.7739 150.56 98.0394 150.019 97.4979C149.477 96.9563 148.743 96.6521 147.977 96.6521H65.7646C64.9988 96.6521 64.2643 96.9563 63.7227 97.4979C63.1812 98.0394 62.877 98.7739 62.877 99.5398V163.069C62.877 163.835 63.1812 164.569 63.7227 165.111C64.2643 165.652 64.9988 165.957 65.7646 165.957ZM135.069 102.427V124.403L121.555 119.898C120.955 119.696 120.306 119.696 119.707 119.898L106.192 124.403V102.427H135.069Z" fill="black"/>
<path d="M100.417 183.283C98.7033 183.283 97.0284 183.791 95.6038 184.743C94.1792 185.695 93.0688 187.048 92.4131 188.631C91.7574 190.214 91.5859 191.955 91.9201 193.636C92.2544 195.316 93.0795 196.86 94.291 198.071C95.5026 199.283 97.0462 200.108 98.7266 200.442C100.407 200.777 102.149 200.605 103.732 199.949C105.315 199.294 106.668 198.183 107.62 196.759C108.572 195.334 109.08 193.659 109.08 191.946C109.08 189.648 108.167 187.445 106.542 185.82C104.918 184.195 102.714 183.283 100.417 183.283ZM100.417 194.833C99.8456 194.833 99.2873 194.664 98.8124 194.347C98.3375 194.029 97.9674 193.578 97.7488 193.051C97.5303 192.523 97.4731 191.943 97.5845 191.382C97.6959 190.822 97.971 190.308 98.3748 189.904C98.7787 189.5 99.2932 189.225 99.8534 189.114C100.414 189.002 100.994 189.059 101.522 189.278C102.049 189.496 102.5 189.867 102.818 190.341C103.135 190.816 103.304 191.375 103.304 191.946C103.304 192.712 103 193.446 102.459 193.988C101.917 194.529 101.183 194.833 100.417 194.833Z" fill="black"/>
<path d="M236.138 154.406C236.144 154.037 236.065 153.671 235.907 153.337L224.356 127.348C224.144 126.816 223.778 126.358 223.305 126.034C222.832 125.71 222.273 125.534 221.7 125.529H175.497C174.731 125.529 173.996 125.833 173.455 126.375C172.913 126.916 172.609 127.651 172.609 128.417V189.058H120.4C119.671 184.28 117.255 179.922 113.589 176.773C109.923 173.623 105.25 171.892 100.417 171.892C95.5839 171.892 90.9109 173.623 87.2449 176.773C83.5789 179.922 81.1627 184.28 80.4341 189.058H68.6523V174.62C68.6523 173.854 68.3481 173.119 67.8065 172.578C67.265 172.036 66.5305 171.732 65.7646 171.732C64.9988 171.732 64.2643 172.036 63.7227 172.578C63.1812 173.119 62.877 173.854 62.877 174.62V191.946C62.877 192.712 63.1812 193.446 63.7227 193.988C64.2643 194.529 64.9988 194.833 65.7646 194.833H80.4341C81.1627 199.611 83.5789 203.97 87.2449 207.119C90.9109 210.268 95.5839 212 100.417 212C105.25 212 109.923 210.268 113.589 207.119C117.255 203.97 119.671 199.611 120.4 194.833H184.391C185.119 199.611 187.536 203.97 191.202 207.119C194.868 210.268 199.541 212 204.374 212C209.206 212 213.879 210.268 217.545 207.119C221.211 203.97 223.628 199.611 224.356 194.833H233.25C234.016 194.833 234.751 194.529 235.292 193.988C235.834 193.446 236.138 192.712 236.138 191.946V154.406ZM100.417 206.384C97.5612 206.384 94.7697 205.537 92.3953 203.951C90.0209 202.364 88.1703 200.109 87.0775 197.471C85.9847 194.833 85.6987 191.93 86.2559 189.129C86.813 186.328 88.1881 183.756 90.2073 181.736C92.2266 179.717 94.7993 178.342 97.6001 177.785C100.401 177.228 103.304 177.514 105.942 178.606C108.58 179.699 110.835 181.55 112.422 183.924C114.008 186.299 114.855 189.09 114.855 191.946C114.855 195.775 113.334 199.448 110.626 202.155C107.919 204.863 104.246 206.384 100.417 206.384ZM219.823 131.304L228.803 151.518H195.71V131.304H219.823ZM204.374 206.384C201.518 206.384 198.726 205.537 196.352 203.951C193.978 202.364 192.127 200.109 191.034 197.471C189.941 194.833 189.655 191.93 190.213 189.129C190.77 186.328 192.145 183.756 194.164 181.736C196.183 179.717 198.756 178.342 201.557 177.785C204.357 177.228 207.261 177.514 209.899 178.606C212.537 179.699 214.792 181.55 216.379 183.924C217.965 186.299 218.812 189.09 218.812 191.946C218.812 195.775 217.291 199.448 214.583 202.155C211.875 204.863 208.203 206.384 204.374 206.384ZM224.356 189.058C223.628 184.28 221.211 179.922 217.545 176.773C213.879 173.623 209.206 171.892 204.374 171.892C199.541 171.892 194.868 173.623 191.202 176.773C187.536 179.922 185.119 184.28 184.391 189.058H178.384V131.304H189.935V154.406C189.935 155.172 190.239 155.906 190.781 156.448C191.322 156.989 192.057 157.294 192.823 157.294H230.363V189.058H224.356Z" fill="black"/>
<path d="M204.374 183.283C202.66 183.283 200.985 183.791 199.561 184.743C198.136 185.695 197.026 187.048 196.37 188.631C195.714 190.214 195.543 191.955 195.877 193.636C196.211 195.316 197.036 196.86 198.248 198.071C199.459 199.283 201.003 200.108 202.683 200.442C204.364 200.777 206.106 200.605 207.689 199.949C209.272 199.294 210.625 198.183 211.577 196.759C212.528 195.334 213.037 193.659 213.037 191.946C213.037 189.648 212.124 187.445 210.499 185.82C208.875 184.195 206.671 183.283 204.374 183.283ZM204.374 194.833C203.802 194.833 203.244 194.664 202.769 194.347C202.294 194.029 201.924 193.578 201.706 193.051C201.487 192.523 201.43 191.943 201.541 191.382C201.653 190.822 201.928 190.308 202.332 189.904C202.735 189.5 203.25 189.225 203.81 189.114C204.37 189.002 204.951 189.059 205.479 189.278C206.006 189.496 206.457 189.867 206.775 190.341C207.092 190.816 207.261 191.375 207.261 191.946C207.261 192.712 206.957 193.446 206.415 193.988C205.874 194.529 205.139 194.833 204.374 194.833Z" fill="black"/>
<path d="M77.3152 139.967C76.5493 139.967 75.8148 140.272 75.2733 140.813C74.7317 141.355 74.4275 142.089 74.4275 142.855V160.181C74.4275 160.947 74.7317 161.681 75.2733 162.223C75.8148 162.765 76.5493 163.069 77.3152 163.069H109.08C109.846 163.069 110.58 162.765 111.122 162.223C111.663 161.681 111.967 160.947 111.967 160.181V142.855C111.967 142.089 111.663 141.355 111.122 140.813C110.58 140.272 109.846 139.967 109.08 139.967H77.3152ZM106.192 157.293H80.2029V145.743H106.192V157.293Z" fill="black"/>
<path d="M161.058 145.743H137.957C137.191 145.743 136.456 146.047 135.915 146.589C135.373 147.13 135.069 147.865 135.069 148.631C135.069 149.396 135.373 150.131 135.915 150.673C136.456 151.214 137.191 151.518 137.957 151.518H161.058C161.824 151.518 162.559 151.214 163.1 150.673C163.642 150.131 163.946 149.396 163.946 148.631C163.946 147.865 163.642 147.13 163.1 146.589C162.559 146.047 161.824 145.743 161.058 145.743Z" fill="black"/>
<path d="M161.058 157.293H137.957C137.191 157.293 136.456 157.598 135.915 158.139C135.373 158.681 135.069 159.415 135.069 160.181C135.069 160.947 135.373 161.681 135.915 162.223C136.456 162.765 137.191 163.069 137.957 163.069H161.058C161.824 163.069 162.559 162.765 163.1 162.223C163.642 161.681 163.946 160.947 163.946 160.181C163.946 159.415 163.642 158.681 163.1 158.139C162.559 157.598 161.824 157.293 161.058 157.293Z" fill="black"/>
<path d="M106.192 67.7754H137.957C138.723 67.7754 139.457 67.4711 139.999 66.9296C140.54 66.388 140.845 65.6535 140.845 64.8877C140.845 64.1218 140.54 63.3873 139.999 62.8458C139.457 62.3042 138.723 62 137.957 62H106.192C105.427 62 104.692 62.3042 104.15 62.8458C103.609 63.3873 103.305 64.1218 103.305 64.8877C103.305 65.6535 103.609 66.388 104.15 66.9296C104.692 67.4711 105.427 67.7754 106.192 67.7754Z" fill="black"/>
<path d="M83.0908 79.3262H111.968C112.734 79.3262 113.468 79.0219 114.01 78.4804C114.551 77.9388 114.855 77.2043 114.855 76.4385C114.855 75.6726 114.551 74.9381 114.01 74.3966C113.468 73.855 112.734 73.5508 111.968 73.5508H83.0908C82.3249 73.5508 81.5905 73.855 81.0489 74.3966C80.5074 74.9381 80.2031 75.6726 80.2031 76.4385C80.2031 77.2043 80.5074 77.9388 81.0489 78.4804C81.5905 79.0219 82.3249 79.3262 83.0908 79.3262Z" fill="black"/>
<path d="M94.6413 85.1016C93.8755 85.1016 93.141 85.4058 92.5994 85.9473C92.0579 86.4889 91.7537 87.2234 91.7537 87.9892C91.7537 88.7551 92.0579 89.4896 92.5994 90.0311C93.141 90.5727 93.8755 90.8769 94.6413 90.8769H129.294C130.059 90.8769 130.794 90.5727 131.335 90.0311C131.877 89.4896 132.181 88.7551 132.181 87.9892C132.181 87.2234 131.877 86.4889 131.335 85.9473C130.794 85.4058 130.059 85.1016 129.294 85.1016H94.6413Z" fill="black"/>
<path d="M318.667 76.5467C316.024 76.5467 313.671 75.8937 311.606 74.5878C309.54 73.2819 307.916 71.3989 306.731 68.9389C305.577 66.4485 305 63.4874 305 60.0556C305 56.6237 305.577 53.6778 306.731 51.2178C307.916 48.7274 309.54 46.8293 311.606 45.5233C313.671 44.2174 316.024 43.5644 318.667 43.5644C321.309 43.5644 323.663 44.2174 325.728 45.5233C327.793 46.8293 329.403 48.7274 330.557 51.2178C331.741 53.6778 332.333 56.6237 332.333 60.0556C332.333 63.4874 331.741 66.4485 330.557 68.9389C329.403 71.3989 327.793 73.2819 325.728 74.5878C323.663 75.8937 321.309 76.5467 318.667 76.5467ZM318.667 70.3056C320.61 70.3056 322.129 69.4704 323.222 67.8C324.346 66.1296 324.908 63.5481 324.908 60.0556C324.908 56.563 324.346 53.9815 323.222 52.3111C322.129 50.6407 320.61 49.8056 318.667 49.8056C316.753 49.8056 315.235 50.6407 314.111 52.3111C313.018 53.9815 312.471 56.563 312.471 60.0556C312.471 63.5481 313.018 66.1296 314.111 67.8C315.235 69.4704 316.753 70.3056 318.667 70.3056ZM358.177 76H334.078V71.2167L346.378 59.6C347.684 58.3548 348.564 57.2919 349.02 56.4111C349.476 55.5 349.703 54.6041 349.703 53.7233C349.703 52.4478 349.263 51.4759 348.382 50.8078C347.532 50.1093 346.271 49.76 344.601 49.76C343.204 49.76 341.944 50.0333 340.82 50.58C339.696 51.0963 338.755 51.8859 337.996 52.9489L332.62 49.4867C333.865 47.6341 335.581 46.1915 337.768 45.1589C339.954 44.0959 342.46 43.5644 345.284 43.5644C347.653 43.5644 349.719 43.9593 351.48 44.7489C353.272 45.5081 354.654 46.6015 355.626 48.0289C356.628 49.4259 357.129 51.0811 357.129 52.9944C357.129 54.7256 356.764 56.3504 356.036 57.8689C355.307 59.3874 353.894 61.1185 351.799 63.0622L344.464 69.9867H358.177V76Z" fill="#01A69F"/>
<path d="M405.055 53.7689H401.138V60.1011H394.578V42.5622H401.138V47.4822H405.055V53.7689ZM370.615 59.3722V42.9722H377.039V45.8422H384.555V42.9722H390.933V59.3722H370.615ZM384.555 51.0811H377.039V53.9967H384.555V51.0811ZM401.502 72.9478V77.5489H371.8V67.2989H394.714V65.9778H371.709V61.3311H401.138V71.5811H378.314V72.9478H401.502ZM422.453 55.8189C420.6 57.6107 418.338 59.0078 415.665 60.01C413.023 61.0122 410.214 61.5285 407.237 61.5589V55.2722C409.849 55.2115 412.264 54.6496 414.481 53.5867C416.728 52.4933 418.338 51.0356 419.31 49.2133H407.784V42.9722H437.805V49.2133H426.598C426.568 49.4563 426.401 49.9422 426.097 50.6711L439.172 55.8644L436.666 61.6044L422.453 55.8189ZM426.143 70.5333V78.3689H419.492V70.5333H405.962V64.11H439.627V70.5333H426.143ZM476.648 61.3767V42.5622H483.254V61.3767H476.648ZM452.139 59.3722V42.9722H472.776V59.3722H452.139ZM458.699 48.5756V53.7233H466.307V48.5756H458.699ZM467.992 73.9044C466.201 75.1496 464.014 76.0607 461.432 76.6378C458.881 77.2452 456.133 77.5489 453.187 77.5489V71.9C455.768 71.9 458.107 71.6267 460.202 71.08C462.298 70.5333 463.847 69.6981 464.849 68.5744H453.506V63.0167H464.986V60.6478H471.682V63.0167H483.254V68.5744H472.047C471.986 68.787 471.865 69.0756 471.682 69.44L484.392 72.4011L482.707 77.9589L467.992 73.9044ZM527.381 53.9511V60.2833H520.821V42.5622H527.381V47.3456H531.299V53.9511H527.381ZM519.272 58.37C518.422 58.7648 517.268 59.0685 515.81 59.2811C514.382 59.4937 512.879 59.6 511.3 59.6H496.859V42.7444H503.555V53.9056H511.573C513.092 53.9056 514.534 53.8144 515.901 53.6322C517.268 53.4196 518.391 53.1311 519.272 52.7667V58.37ZM527.381 61.5133V77.5489H497.998V61.5133H504.512V64.0189H520.958V61.5133H527.381ZM520.958 69.44H504.512V72.0367H520.958V69.44ZM533.936 56.5933V51.4H539.038V47.7556H534.301V42.5622H563.821V47.7556H559.037V51.4H564.139V56.5933H533.936ZM552.523 51.4V47.7556H545.598V51.4H552.523ZM552.341 65.2944H563.957V77.5489H534.164V65.2944H545.781V63.4722H532.205V58.2333H565.871V63.4722H552.341V65.2944ZM540.678 70.3967V72.4922H557.397V70.3967H540.678Z" fill="black"/>
<path d="M329.333 131.133H327.033V105.533H329.333V131.133ZM323.4 105.667V130.7H321.133V122.567H315.067C314.222 124.744 313.078 126.444 311.633 127.667C310.211 128.867 308.567 129.467 306.7 129.467V127.1C308.233 127.078 309.567 126.489 310.7 125.333C311.856 124.178 312.733 122.578 313.333 120.533C313.956 118.467 314.267 116.089 314.267 113.4V108.833H306.7V106.533H316.633V112.133H321.133V105.667H323.4ZM321.133 114.5H316.6C316.489 116.589 316.222 118.5 315.8 120.233H321.133V114.5ZM354.363 115H357.896V117.2H354.363V120.833H351.963V105.533H354.363V108.633H357.896V110.867H354.363V115ZM340.063 119.967C338.552 119.967 337.23 119.667 336.096 119.067C334.963 118.444 334.085 117.6 333.463 116.533C332.863 115.444 332.563 114.233 332.563 112.9C332.563 111.567 332.863 110.367 333.463 109.3C334.085 108.211 334.963 107.367 336.096 106.767C337.23 106.144 338.552 105.833 340.063 105.833C341.574 105.833 342.885 106.144 343.996 106.767C345.13 107.367 345.996 108.2 346.596 109.267C347.219 110.333 347.53 111.544 347.53 112.9C347.53 114.256 347.219 115.467 346.596 116.533C345.996 117.6 345.13 118.444 343.996 119.067C342.885 119.667 341.574 119.967 340.063 119.967ZM340.063 107.967C338.552 107.967 337.33 108.411 336.396 109.3C335.463 110.189 334.996 111.389 334.996 112.9C334.996 114.411 335.463 115.611 336.396 116.5C337.33 117.389 338.552 117.833 340.063 117.833C341.574 117.833 342.796 117.389 343.73 116.5C344.663 115.589 345.13 114.389 345.13 112.9C345.13 111.411 344.663 110.222 343.73 109.333C342.796 108.422 341.574 107.967 340.063 107.967ZM354.363 122.333V131.067H351.93V124.567H334.263V122.333H354.363ZM366.885 115.333V113.3H371.351V107.933H367.151V105.9H388.018V107.933H383.818V113.3H388.251V115.333H366.885ZM381.418 113.3V107.933H373.751V113.3H381.418ZM378.785 122.8H387.951V130.767H367.218V122.8H376.385V119.867H365.451V117.833H389.718V119.867H378.785V122.8ZM369.618 124.8V128.767H385.585V124.8H369.618ZM416.115 120.6H391.848V118.5H402.781V115.467H393.681V105.9H414.315V115.467H405.181V118.5H416.115V120.6ZM411.915 113.4V108H396.048V113.4H411.915ZM414.348 123.4V131.1H411.948V125.5H393.381V123.4H414.348ZM450.27 112.633H446.736V118.433H444.336V105.533H446.736V110.333H450.27V112.633ZM425.77 117.333V106.033H428.136V109.433H437.503V106.033H439.87V117.333H425.77ZM437.503 111.467H428.136V115.267H437.503V111.467ZM447.403 128.867V130.733H426.603V124.433H444.37V121.833H426.536V119.933H446.736V126.2H429.003V128.867H447.403ZM462.733 113.433C461.577 115.011 460.066 116.278 458.199 117.233C456.333 118.189 454.288 118.767 452.066 118.967V116.633C454.666 116.389 456.899 115.556 458.766 114.133C460.633 112.689 461.81 110.833 462.299 108.567H452.666V106.267H474.066V108.567H464.866C464.733 109.589 464.444 110.567 463.999 111.5L474.799 116.733L473.766 118.833L462.733 113.433ZM464.533 124.267V131.733H462.099V124.267H451.233V121.933H475.499V124.267H464.533ZM504.388 119.533V105.533H506.821V119.533H504.388ZM485.421 117.333V106.233H499.754V117.333H485.421ZM487.821 108.367V115.2H497.388V108.367H487.821ZM496.188 126.967C495.077 128.144 493.61 129.067 491.788 129.733C489.965 130.4 488.043 130.733 486.021 130.733V128.567C487.443 128.567 488.821 128.367 490.154 127.967C491.51 127.544 492.665 126.956 493.621 126.2C494.577 125.444 495.199 124.578 495.488 123.6H486.188V121.467H495.454V118.8H497.921V121.467H507.221V123.6H498.021C497.954 124.2 497.777 124.733 497.488 125.2L507.754 129L507.021 131.1L496.188 126.967ZM539.109 112.867V119.167H536.709V105.533H539.109V110.433H542.643V112.867H539.109ZM534.776 116.633C533.998 117.011 532.887 117.3 531.443 117.5C529.998 117.7 528.365 117.8 526.543 117.8H518.143V106.067H520.576V115.6H526.676C528.454 115.6 530.043 115.5 531.443 115.3C532.865 115.078 533.976 114.778 534.776 114.4V116.633ZM539.109 120.867V130.733H518.943V120.867H539.109ZM536.709 128.567V123.033H521.376V128.567H536.709ZM545.039 115.333V113.3H549.506V107.933H545.306V105.9H566.172V107.933H561.972V113.3H566.406V115.333H545.039ZM559.572 113.3V107.933H551.906V113.3H559.572ZM556.939 122.8H566.106V130.767H545.372V122.8H554.539V119.867H543.606V117.833H567.872V119.867H556.939V122.8ZM547.772 124.8V128.767H563.739V124.8H547.772Z" fill="#333333"/>
<path d="M310.644 152.378V153.511H308.533V168.933H310.644V170.067H307.133V152.378H310.644ZM312.768 154.911V153.333H326.791V164.6H325.146V154.911H312.768ZM327.924 168.889H311.746V167.311H317.946V159.489H319.591V167.311H327.924V168.889ZM344.855 163.222H343.299V158.267H340.277V163.044H338.744V152.778H340.277V156.689H343.299V152.689H344.855V163.222ZM336.677 155.933C336.677 157.311 336.374 158.496 335.766 159.489C335.174 160.481 334.351 161.244 333.299 161.778C332.262 162.296 331.085 162.563 329.766 162.578V161.089C330.818 161.074 331.744 160.867 332.544 160.467C333.359 160.067 333.988 159.489 334.433 158.733C334.892 157.963 335.122 157.052 335.122 156V154.6H329.766V153.156H336.677V155.933ZM344.855 164.222V169.711H343.255V165.689H330.677V164.222H344.855ZM361.542 161.356V169.756H359.942V152.689H361.542V159.756H363.897V161.356H361.542ZM353.83 153.178C353.801 155.963 353.586 158.348 353.186 160.333L358.408 167.689L357.097 168.644L352.653 162.311C352.105 164.222 351.356 165.733 350.408 166.844C349.46 167.941 348.364 168.556 347.119 168.689V167.022C348.201 166.83 349.119 166.096 349.875 164.822C350.645 163.548 351.223 161.896 351.608 159.867C351.993 157.837 352.193 155.593 352.208 153.133L353.83 153.178ZM376.667 157.311C375.897 158.156 374.889 158.807 373.645 159.267C372.415 159.726 371.134 159.97 369.8 160V158.556C370.778 158.526 371.749 158.348 372.712 158.022C373.675 157.681 374.497 157.2 375.178 156.578C375.875 155.956 376.297 155.222 376.445 154.378H370.089V152.933H383.956V154.378H378.134C378.045 155.015 377.867 155.593 377.6 156.111L384.378 158.733L383.867 160.089L376.667 157.311ZM385.112 163H377.823V166.067H376.223V163H368.934V161.556H385.112V163ZM384.245 168.044V169.511H370.112V164.689H371.734V168.044H384.245ZM401.576 169.756H399.976V152.689H401.576V169.756ZM396.643 153.222V168.689H387.509V153.222H389.109V159.289H395.043V153.222H396.643ZM395.043 160.822H389.109V167.133H395.043V160.822ZM423.701 169.756H422.101V160.578H417.768V159H422.101V152.689H423.701V169.756ZM415.19 153.178C415.161 155.593 414.998 157.733 414.701 159.6L419.857 167.8L418.546 168.733L414.212 161.711C413.679 163.815 412.946 165.474 412.013 166.689C411.079 167.889 409.975 168.556 408.701 168.689V167C409.753 166.807 410.642 166.074 411.368 164.8C412.094 163.526 412.635 161.881 412.99 159.867C413.361 157.837 413.553 155.593 413.568 153.133L415.19 153.178ZM427.299 154.689V153.267H441.143V158.356H428.899V160.711H441.41V162.133H427.321V157.022H439.566V154.689H427.299ZM438.166 165.844V170.156H436.566V165.844H431.832V170.156H430.232V165.844H426.121V164.333H442.299V165.844H438.166ZM443.408 168.933H445.519V153.511H443.408V152.378H446.897V170.067H443.408V168.933ZM318.425 193H316.736V178.867H313.092V177.444H318.425V193ZM325.965 193.111C325.624 193.111 325.335 193 325.098 192.778C324.876 192.541 324.765 192.244 324.765 191.889C324.765 191.548 324.876 191.267 325.098 191.044C325.335 190.807 325.624 190.689 325.965 190.689C326.306 190.689 326.587 190.807 326.81 191.044C327.047 191.267 327.165 191.548 327.165 191.889C327.165 192.244 327.047 192.541 326.81 192.778C326.587 193 326.306 193.111 325.965 193.111ZM336.889 185.711V177.022H338.467V179.6H349.133V177.022H350.711V185.711H336.889ZM349.133 181.089H338.467V184.2H349.133V181.089ZM344.622 189.2V194.156H342.978V189.2H335.711V187.644H351.889V189.2H344.622ZM367.909 181.933V185.978H366.309V176.689H367.909V180.311H370.264V181.933H367.909ZM365.02 184.289C364.501 184.541 363.761 184.733 362.798 184.867C361.835 185 360.746 185.067 359.531 185.067H353.931V177.156H363.82V178.6H355.531V183.622H359.62C360.805 183.622 361.864 183.556 362.798 183.422C363.746 183.289 364.487 183.096 365.02 182.844V184.289ZM367.909 186.978V193.489H354.464V186.978H367.909ZM366.309 192.044V188.422H356.087V192.044H366.309ZM384.24 182.667V178.378H372.04V176.933H385.862V182.667H384.24ZM370.906 185.2V183.778H387.084V185.2H370.906ZM372.084 193.511V187.111H385.906V193.511H372.084ZM384.329 188.511H373.684V192.111H384.329V188.511ZM407.499 181.933V185.978H405.899V176.689H407.499V180.311H409.854V181.933H407.499ZM402.632 178.911C402.632 181.148 401.817 182.8 400.188 183.867C398.573 184.919 396.299 185.444 393.365 185.444V183.956C395.81 183.941 397.699 183.548 399.032 182.778C400.365 181.993 401.032 180.785 401.032 179.156V178.6H393.365V177.156H402.632V178.911ZM407.499 186.978V193.489H394.054V186.978H407.499ZM405.899 192.044V188.422H395.676V192.044H405.899ZM421.252 184.556V183.044H424.096V180.222H421.252V178.711H424.096V176.689H425.674V189.4H424.096V184.556H421.252ZM411.252 186.267V177.156H420.252V186.267H411.252ZM412.807 178.622V184.8H418.652V178.622H412.807ZM426.052 193.489H412.007V188.044H413.63V191.956H426.052V193.489ZM445.933 189.378V176.689H447.555V189.378H445.933ZM438.155 182.578C437.548 183.704 436.785 184.637 435.866 185.378C434.948 186.104 433.911 186.556 432.755 186.733V185.156C433.792 184.948 434.696 184.444 435.466 183.644C436.251 182.844 436.851 181.852 437.266 180.667C437.681 179.481 437.888 178.215 437.888 176.867L439.488 176.956C439.488 178.481 439.259 179.881 438.8 181.156L444.111 185.333L443.133 186.578L438.155 182.578ZM448.022 193.489H433.933V188.178H435.555V191.956H448.022V193.489ZM455.575 182.889C455.042 183.852 454.331 184.644 453.442 185.267C452.553 185.889 451.545 186.274 450.419 186.422V184.956C451.694 184.719 452.731 184.141 453.531 183.222C454.345 182.289 454.834 181.141 454.997 179.778H450.597V178.356H455.042V176.378H456.664V178.356H461.019V179.778H456.642C456.568 180.519 456.442 181.119 456.264 181.578L461.286 185.022L460.508 186.289L455.575 182.889ZM463.664 176.689H465.264V186.867H463.664V182.511H460.375V181.022H463.664V176.689ZM458.486 187.467C460.59 187.467 462.279 187.719 463.553 188.222C464.827 188.711 465.464 189.504 465.464 190.6C465.464 191.681 464.827 192.474 463.553 192.978C462.294 193.467 460.605 193.711 458.486 193.711C456.382 193.711 454.694 193.467 453.419 192.978C452.16 192.474 451.531 191.681 451.531 190.6C451.531 189.504 452.16 188.711 453.419 188.222C454.694 187.719 456.382 187.467 458.486 187.467ZM458.486 192.356C460.071 192.356 461.345 192.215 462.308 191.933C463.286 191.637 463.775 191.193 463.775 190.6C463.775 189.993 463.286 189.548 462.308 189.267C461.345 188.985 460.071 188.844 458.486 188.844C456.916 188.844 455.642 188.993 454.664 189.289C453.701 189.57 453.219 190.007 453.219 190.6C453.219 191.193 453.708 191.637 454.686 191.933C455.664 192.215 456.931 192.356 458.486 192.356ZM482.862 193.756H481.262V184.578H476.928V183H481.262V176.689H482.862V193.756ZM474.35 177.178C474.321 179.593 474.158 181.733 473.862 183.6L479.017 191.8L477.706 192.733L473.373 185.711C472.839 187.815 472.106 189.474 471.173 190.689C470.239 191.889 469.136 192.556 467.862 192.689V191C468.913 190.807 469.802 190.074 470.528 188.8C471.254 187.526 471.795 185.881 472.15 183.867C472.521 181.837 472.713 179.593 472.728 177.133L474.35 177.178ZM322.403 217H311.47V215.867L317.914 209.511C318.729 208.711 319.277 208.022 319.559 207.444C319.84 206.867 319.981 206.274 319.981 205.667C319.981 204.763 319.67 204.052 319.047 203.533C318.425 203.015 317.536 202.756 316.381 202.756C314.559 202.756 313.166 203.348 312.203 204.533L310.981 203.644C311.573 202.889 312.336 202.311 313.27 201.911C314.218 201.496 315.299 201.289 316.514 201.289C318.084 201.289 319.336 201.674 320.27 202.444C321.218 203.2 321.692 204.23 321.692 205.533C321.692 206.333 321.507 207.104 321.136 207.844C320.781 208.57 320.114 209.407 319.136 210.356L313.914 215.556H322.403V217ZM325.965 217.111C325.624 217.111 325.335 217 325.098 216.778C324.876 216.541 324.765 216.244 324.765 215.889C324.765 215.548 324.876 215.267 325.098 215.044C325.335 214.807 325.624 214.689 325.965 214.689C326.306 214.689 326.587 214.807 326.81 215.044C327.047 215.267 327.165 215.548 327.165 215.889C327.165 216.244 327.047 216.541 326.81 216.778C326.587 217 326.306 217.111 325.965 217.111ZM349.311 204.311H346.356L346.244 202.8H349.311V200.689H350.889V213.4H349.311V208.911H346.244L346.356 207.4H349.311V204.311ZM345.822 205.822C345.822 206.77 345.622 207.622 345.222 208.378C344.822 209.119 344.244 209.704 343.489 210.133C342.748 210.548 341.867 210.756 340.844 210.756C339.837 210.756 338.956 210.548 338.2 210.133C337.444 209.704 336.867 209.119 336.467 208.378C336.067 207.622 335.867 206.77 335.867 205.822C335.867 204.874 336.067 204.03 336.467 203.289C336.867 202.533 337.444 201.948 338.2 201.533C338.956 201.104 339.837 200.889 340.844 200.889C341.867 200.889 342.748 201.104 343.489 201.533C344.244 201.948 344.822 202.533 345.222 203.289C345.622 204.03 345.822 204.874 345.822 205.822ZM337.467 205.822C337.467 206.889 337.77 207.741 338.378 208.378C339 209 339.822 209.311 340.844 209.311C341.881 209.311 342.704 209 343.311 208.378C343.919 207.741 344.222 206.889 344.222 205.822C344.222 204.756 343.919 203.904 343.311 203.267C342.704 202.63 341.881 202.311 340.844 202.311C339.822 202.311 339 202.63 338.378 203.267C337.77 203.904 337.467 204.756 337.467 205.822ZM351.267 217.489H337.422V211.978H339.044V215.956H351.267V217.489ZM368.82 217.756H367.287V200.689H368.82V217.756ZM364.864 200.778V217.467H363.353V212.044H359.309C358.746 213.496 357.983 214.63 357.02 215.444C356.072 216.244 354.975 216.644 353.731 216.644V215.067C354.753 215.052 355.642 214.659 356.398 213.889C357.168 213.119 357.753 212.052 358.153 210.689C358.568 209.311 358.775 207.726 358.775 205.933V202.889H353.731V201.356H360.353V205.089H363.353V200.778H364.864ZM363.353 206.667H360.331C360.257 208.059 360.079 209.333 359.798 210.489H363.353V206.667ZM371.929 202.911V201.333H385.951V212.6H384.306V202.911H371.929ZM387.084 216.889H370.906V215.311H377.106V207.489H378.751V215.311H387.084V216.889ZM404.682 210.178H388.504V208.8H392.171V206.511C391.326 206.259 390.667 205.911 390.193 205.467C389.719 205.022 389.482 204.481 389.482 203.844C389.482 202.763 390.149 201.956 391.482 201.422C392.815 200.874 394.519 200.6 396.593 200.6C398.667 200.6 400.363 200.874 401.682 201.422C403.015 201.956 403.682 202.763 403.682 203.844C403.682 204.481 403.445 205.022 402.971 205.467C402.497 205.911 401.837 206.259 400.993 206.511V208.8H404.682V210.178ZM396.593 201.978C395.023 201.978 393.719 202.133 392.682 202.444C391.66 202.756 391.149 203.222 391.149 203.844C391.149 204.467 391.66 204.933 392.682 205.244C393.704 205.556 395.008 205.711 396.593 205.711C398.163 205.711 399.46 205.556 400.482 205.244C401.504 204.933 402.015 204.467 402.015 203.844C402.015 203.222 401.497 202.756 400.46 202.444C399.437 202.133 398.149 201.978 396.593 201.978ZM399.393 208.8V206.867C398.593 207.015 397.66 207.089 396.593 207.089C395.541 207.089 394.6 207.015 393.771 206.867V208.8H399.393ZM396.593 211.667C398.697 211.667 400.4 211.904 401.704 212.378C403.008 212.837 403.66 213.607 403.66 214.689C403.66 215.77 403.008 216.548 401.704 217.022C400.4 217.511 398.697 217.756 396.593 217.756C394.489 217.756 392.778 217.511 391.46 217.022C390.156 216.548 389.504 215.77 389.504 214.689C389.504 213.607 390.156 212.837 391.46 212.378C392.778 211.904 394.489 211.667 396.593 211.667ZM396.593 216.4C398.134 216.4 399.415 216.267 400.437 216C401.46 215.733 401.971 215.296 401.971 214.689C401.971 214.096 401.46 213.674 400.437 213.422C399.415 213.156 398.134 213.022 396.593 213.022C395.052 213.022 393.763 213.156 392.726 213.422C391.704 213.674 391.193 214.096 391.193 214.689C391.193 215.296 391.704 215.733 392.726 216C393.763 216.267 395.052 216.4 396.593 216.4ZM426.007 217.756H424.474V200.689H426.007V217.756ZM422.052 200.778V217.467H420.541V212.044H416.496C415.933 213.496 415.17 214.63 414.207 215.444C413.259 216.244 412.163 216.644 410.918 216.644V215.067C411.941 215.052 412.83 214.659 413.585 213.889C414.356 213.119 414.941 212.052 415.341 210.689C415.756 209.311 415.963 207.726 415.963 205.933V202.889H410.918V201.356H417.541V205.089H420.541V200.778H422.052ZM420.541 206.667H417.518C417.444 208.059 417.267 209.333 416.985 210.489H420.541V206.667ZM442.694 207H445.049V208.467H442.694V210.889H441.094V200.689H442.694V202.756H445.049V204.244H442.694V207ZM433.161 210.311C432.153 210.311 431.272 210.111 430.516 209.711C429.761 209.296 429.175 208.733 428.761 208.022C428.361 207.296 428.161 206.489 428.161 205.6C428.161 204.711 428.361 203.911 428.761 203.2C429.175 202.474 429.761 201.911 430.516 201.511C431.272 201.096 432.153 200.889 433.161 200.889C434.168 200.889 435.042 201.096 435.783 201.511C436.538 201.911 437.116 202.467 437.516 203.178C437.931 203.889 438.138 204.696 438.138 205.6C438.138 206.504 437.931 207.311 437.516 208.022C437.116 208.733 436.538 209.296 435.783 209.711C435.042 210.111 434.168 210.311 433.161 210.311ZM433.161 202.311C432.153 202.311 431.338 202.607 430.716 203.2C430.094 203.793 429.783 204.593 429.783 205.6C429.783 206.607 430.094 207.407 430.716 208C431.338 208.593 432.153 208.889 433.161 208.889C434.168 208.889 434.983 208.593 435.605 208C436.227 207.393 436.538 206.593 436.538 205.6C436.538 204.607 436.227 203.815 435.605 203.222C434.983 202.615 434.168 202.311 433.161 202.311ZM442.694 211.889V217.711H441.072V213.378H429.294V211.889H442.694ZM460.869 217.756H459.269V208.578H454.936V207H459.269V200.689H460.869V217.756ZM452.358 201.178C452.329 203.593 452.166 205.733 451.869 207.6L457.025 215.8L455.714 216.733L451.38 209.711C450.847 211.815 450.114 213.474 449.18 214.689C448.247 215.889 447.143 216.556 445.869 216.689V215C446.921 214.807 447.81 214.074 448.536 212.8C449.262 211.526 449.803 209.881 450.158 207.867C450.529 205.837 450.721 203.593 450.736 201.133L452.358 201.178ZM471.128 218.067C470.417 216.911 469.869 215.585 469.484 214.089C469.099 212.578 468.906 210.956 468.906 209.222C468.906 207.489 469.099 205.867 469.484 204.356C469.869 202.83 470.417 201.504 471.128 200.378H472.462C471.721 201.667 471.173 203.037 470.817 204.489C470.462 205.941 470.284 207.519 470.284 209.222C470.284 210.926 470.462 212.504 470.817 213.956C471.173 215.407 471.721 216.778 472.462 218.067H471.128ZM487.359 217.756V200.689H488.981V217.756H487.359ZM483.648 205.356C483.648 207.622 483.285 209.607 482.559 211.311C481.833 213 480.796 214.311 479.448 215.244C478.114 216.178 476.536 216.644 474.714 216.644V215.044C476.211 215.044 477.507 214.652 478.603 213.867C479.699 213.081 480.536 211.97 481.114 210.533C481.707 209.081 482.003 207.378 482.003 205.422V202.889H474.714V201.356H483.648V205.356ZM507.69 211.689H491.512V210.244H498.801V208.067H492.734V200.822H494.312V203.044H504.89V200.822H506.49V208.067H500.401V210.244H507.69V211.689ZM504.89 206.711V204.356H494.312V206.711H504.89ZM506.823 216.067V217.511H492.69V213.022H494.312V216.067H506.823ZM524.621 217.756H523.087V200.689H524.621V217.756ZM520.665 200.778V217.467H519.154V212.044H515.11C514.547 213.496 513.784 214.63 512.821 215.444C511.873 216.244 510.776 216.644 509.532 216.644V215.067C510.554 215.052 511.443 214.659 512.198 213.889C512.969 213.119 513.554 212.052 513.954 210.689C514.369 209.311 514.576 207.726 514.576 205.933V202.889H509.532V201.356H516.154V205.089H519.154V200.778H520.665ZM519.154 206.667H516.132C516.058 208.059 515.88 209.333 515.598 210.489H519.154V206.667ZM541.307 207H543.663V208.467H541.307V210.889H539.707V200.689H541.307V202.756H543.663V204.244H541.307V207ZM531.774 210.311C530.766 210.311 529.885 210.111 529.129 209.711C528.374 209.296 527.789 208.733 527.374 208.022C526.974 207.296 526.774 206.489 526.774 205.6C526.774 204.711 526.974 203.911 527.374 203.2C527.789 202.474 528.374 201.911 529.129 201.511C529.885 201.096 530.766 200.889 531.774 200.889C532.781 200.889 533.655 201.096 534.396 201.511C535.152 201.911 535.729 202.467 536.129 203.178C536.544 203.889 536.752 204.696 536.752 205.6C536.752 206.504 536.544 207.311 536.129 208.022C535.729 208.733 535.152 209.296 534.396 209.711C533.655 210.111 532.781 210.311 531.774 210.311ZM531.774 202.311C530.766 202.311 529.952 202.607 529.329 203.2C528.707 203.793 528.396 204.593 528.396 205.6C528.396 206.607 528.707 207.407 529.329 208C529.952 208.593 530.766 208.889 531.774 208.889C532.781 208.889 533.596 208.593 534.218 208C534.841 207.393 535.152 206.593 535.152 205.6C535.152 204.607 534.841 203.815 534.218 203.222C533.596 202.615 532.781 202.311 531.774 202.311ZM541.307 211.889V217.711H539.685V213.378H527.907V211.889H541.307ZM559.483 217.756H557.883V208.578H553.549V207H557.883V200.689H559.483V217.756ZM550.972 201.178C550.942 203.593 550.779 205.733 550.483 207.6L555.638 215.8L554.327 216.733L549.994 209.711C549.46 211.815 548.727 213.474 547.794 214.689C546.86 215.889 545.757 216.556 544.483 216.689V215C545.534 214.807 546.423 214.074 547.149 212.8C547.875 211.526 548.416 209.881 548.772 207.867C549.142 205.837 549.334 203.593 549.349 201.133L550.972 201.178ZM568.636 199.8L562.036 218.644H560.68L567.28 199.8H568.636ZM583.241 207H585.596V208.467H583.241V210.889H581.641V200.689H583.241V202.756H585.596V204.244H583.241V207ZM573.707 210.311C572.7 210.311 571.819 210.111 571.063 209.711C570.307 209.296 569.722 208.733 569.307 208.022C568.907 207.296 568.707 206.489 568.707 205.6C568.707 204.711 568.907 203.911 569.307 203.2C569.722 202.474 570.307 201.911 571.063 201.511C571.819 201.096 572.7 200.889 573.707 200.889C574.715 200.889 575.589 201.096 576.33 201.511C577.085 201.911 577.663 202.467 578.063 203.178C578.478 203.889 578.685 204.696 578.685 205.6C578.685 206.504 578.478 207.311 578.063 208.022C577.663 208.733 577.085 209.296 576.33 209.711C575.589 210.111 574.715 210.311 573.707 210.311ZM573.707 202.311C572.7 202.311 571.885 202.607 571.263 203.2C570.641 203.793 570.33 204.593 570.33 205.6C570.33 206.607 570.641 207.407 571.263 208C571.885 208.593 572.7 208.889 573.707 208.889C574.715 208.889 575.53 208.593 576.152 208C576.774 207.393 577.085 206.593 577.085 205.6C577.085 204.607 576.774 203.815 576.152 203.222C575.53 202.615 574.715 202.311 573.707 202.311ZM583.241 211.889V217.711H581.619V213.378H569.841V211.889H583.241ZM599.816 200.689H601.416V210.289H599.816V205.489H596.483V204.022H599.816V200.689ZM591.905 206.2C591.372 207.178 590.646 207.978 589.727 208.6C588.809 209.207 587.757 209.585 586.572 209.733V208.222C587.964 208 589.068 207.4 589.883 206.422C590.713 205.43 591.187 204.163 591.305 202.622H586.772V201.178H597.15V202.622H592.927C592.883 203.437 592.75 204.178 592.527 204.844L597.683 208.311L596.861 209.578L591.905 206.2ZM594.616 210.911C596.705 210.911 598.379 211.193 599.638 211.756C600.913 212.304 601.55 213.156 601.55 214.311C601.55 215.467 600.913 216.326 599.638 216.889C598.379 217.437 596.705 217.711 594.616 217.711C592.527 217.711 590.853 217.437 589.594 216.889C588.335 216.326 587.705 215.467 587.705 214.311C587.705 213.156 588.335 212.304 589.594 211.756C590.853 211.193 592.527 210.911 594.616 210.911ZM594.616 216.311C596.172 216.311 597.431 216.141 598.394 215.8C599.372 215.459 599.861 214.963 599.861 214.311C599.861 213.659 599.372 213.163 598.394 212.822C597.416 212.481 596.157 212.311 594.616 212.311C593.075 212.311 591.816 212.481 590.838 212.822C589.875 213.163 589.394 213.659 589.394 214.311C589.394 214.963 589.875 215.459 590.838 215.8C591.816 216.141 593.075 216.311 594.616 216.311ZM619.014 217.756H617.414V208.578H613.081V207H617.414V200.689H619.014V217.756ZM610.503 201.178C610.473 203.593 610.31 205.733 610.014 207.6L615.169 215.8L613.858 216.733L609.525 209.711C608.992 211.815 608.258 213.474 607.325 214.689C606.392 215.889 605.288 216.556 604.014 216.689V215C605.066 214.807 605.955 214.074 606.681 212.8C607.406 211.526 607.947 209.881 608.303 207.867C608.673 205.837 608.866 203.593 608.881 201.133L610.503 201.178ZM621.478 218.067C622.219 216.778 622.76 215.407 623.1 213.956C623.456 212.504 623.634 210.926 623.634 209.222C623.634 207.519 623.456 205.941 623.1 204.489C622.76 203.037 622.219 201.667 621.478 200.378H622.789C623.5 201.504 624.041 202.822 624.412 204.333C624.797 205.844 624.989 207.474 624.989 209.222C624.989 210.956 624.797 212.578 624.412 214.089C624.041 215.585 623.5 216.911 622.789 218.067H621.478ZM317.07 232.133C318.699 232.207 319.944 232.644 320.803 233.444C321.662 234.23 322.092 235.259 322.092 236.533C322.092 237.422 321.877 238.215 321.447 238.911C321.018 239.607 320.381 240.156 319.536 240.556C318.692 240.956 317.662 241.156 316.447 241.156C315.322 241.156 314.255 240.978 313.247 240.622C312.255 240.252 311.462 239.763 310.87 239.156L311.603 237.889C312.122 238.422 312.803 238.859 313.647 239.2C314.507 239.526 315.425 239.689 316.403 239.689C317.692 239.689 318.677 239.407 319.359 238.844C320.055 238.281 320.403 237.511 320.403 236.533C320.403 235.556 320.055 234.793 319.359 234.244C318.677 233.696 317.633 233.422 316.225 233.422H315.114V232.289L319.403 226.867H311.47V225.444H321.47V226.578L317.07 232.133ZM325.965 241.111C325.624 241.111 325.335 241 325.098 240.778C324.876 240.541 324.765 240.244 324.765 239.889C324.765 239.548 324.876 239.267 325.098 239.044C325.335 238.807 325.624 238.689 325.965 238.689C326.306 238.689 326.587 238.807 326.81 239.044C327.047 239.267 327.165 239.548 327.165 239.889C327.165 240.244 327.047 240.541 326.81 240.778C326.587 241 326.306 241.111 325.965 241.111ZM349.289 224.689H350.889V234.289H349.289V229.489H345.956V228.022H349.289V224.689ZM341.378 230.2C340.844 231.178 340.119 231.978 339.2 232.6C338.281 233.207 337.23 233.585 336.044 233.733V232.222C337.437 232 338.541 231.4 339.356 230.422C340.185 229.43 340.659 228.163 340.778 226.622H336.244V225.178H346.622V226.622H342.4C342.356 227.437 342.222 228.178 342 228.844L347.156 232.311L346.333 233.578L341.378 230.2ZM344.089 234.911C346.178 234.911 347.852 235.193 349.111 235.756C350.385 236.304 351.022 237.156 351.022 238.311C351.022 239.467 350.385 240.326 349.111 240.889C347.852 241.437 346.178 241.711 344.089 241.711C342 241.711 340.326 241.437 339.067 240.889C337.807 240.326 337.178 239.467 337.178 238.311C337.178 237.156 337.807 236.304 339.067 235.756C340.326 235.193 342 234.911 344.089 234.911ZM344.089 240.311C345.644 240.311 346.904 240.141 347.867 239.8C348.844 239.459 349.333 238.963 349.333 238.311C349.333 237.659 348.844 237.163 347.867 236.822C346.889 236.481 345.63 236.311 344.089 236.311C342.548 236.311 341.289 236.481 340.311 236.822C339.348 237.163 338.867 237.659 338.867 238.311C338.867 238.963 339.348 239.459 340.311 239.8C341.289 240.141 342.548 240.311 344.089 240.311ZM370.264 230.311H367.909V237.378H366.309V224.689H367.909V228.689H370.264V230.311ZM358.687 230.6C358.109 231.726 357.368 232.652 356.464 233.378C355.561 234.104 354.531 234.556 353.375 234.733V233.156C354.398 232.948 355.287 232.444 356.042 231.644C356.812 230.844 357.398 229.852 357.798 228.667C358.198 227.481 358.398 226.215 358.398 224.867L360.02 224.956C360.02 226.481 359.798 227.881 359.353 229.156L364.575 233.356L363.598 234.578L358.687 230.6ZM368.398 239.956V241.489H354.464V236.178H356.087V239.956H368.398ZM383.057 228.867C382.286 229.578 381.279 230.133 380.034 230.533C378.805 230.919 377.516 231.126 376.168 231.156V229.756C377.145 229.726 378.108 229.578 379.057 229.311C380.019 229.03 380.842 228.637 381.523 228.133C382.205 227.615 382.627 227.007 382.79 226.311H376.457V224.933H390.323V226.311H384.523C384.449 226.859 384.301 227.319 384.079 227.689L390.768 229.889L390.323 231.222L383.057 228.867ZM391.479 234H375.301V232.6H391.479V234ZM383.39 235.667C385.494 235.667 387.197 235.904 388.501 236.378C389.805 236.837 390.457 237.607 390.457 238.689C390.457 239.77 389.805 240.548 388.501 241.022C387.197 241.511 385.494 241.756 383.39 241.756C381.286 241.756 379.575 241.511 378.257 241.022C376.953 240.548 376.301 239.77 376.301 238.689C376.301 237.607 376.953 236.837 378.257 236.378C379.575 235.904 381.286 235.667 383.39 235.667ZM383.39 240.4C384.931 240.4 386.212 240.267 387.234 240C388.257 239.733 388.768 239.296 388.768 238.689C388.768 238.096 388.257 237.674 387.234 237.422C386.212 237.156 384.931 237.022 383.39 237.022C381.849 237.022 380.56 237.156 379.523 237.422C378.501 237.674 377.99 238.096 377.99 238.689C377.99 239.296 378.501 239.733 379.523 240C380.56 240.267 381.849 240.4 383.39 240.4ZM406.343 234.444V224.689H407.965V234.444H406.343ZM393.699 233.356V225.022H395.276V227.622H401.699V225.022H403.254V233.356H393.699ZM401.699 229.022H395.276V231.956H401.699V229.022ZM401.232 235.022C403.321 235.022 405.002 235.296 406.276 235.844C407.565 236.393 408.21 237.237 408.21 238.378C408.21 239.519 407.565 240.363 406.276 240.911C405.002 241.444 403.321 241.711 401.232 241.711C399.143 241.711 397.462 241.444 396.188 240.911C394.913 240.363 394.276 239.519 394.276 238.378C394.276 237.237 394.913 236.393 396.188 235.844C397.462 235.296 399.143 235.022 401.232 235.022ZM401.232 240.311C402.788 240.311 404.054 240.148 405.032 239.822C406.025 239.496 406.521 239.015 406.521 238.378C406.521 237.741 406.025 237.259 405.032 236.933C404.054 236.593 402.788 236.422 401.232 236.422C399.676 236.422 398.41 236.593 397.432 236.933C396.454 237.259 395.965 237.741 395.965 238.378C395.965 239.015 396.454 239.496 397.432 239.822C398.41 240.148 399.676 240.311 401.232 240.311ZM425.674 241.756H424.074V232.578H419.741V231H424.074V224.689H425.674V241.756ZM417.163 225.178C417.133 227.593 416.97 229.733 416.674 231.6L421.83 239.8L420.518 240.733L416.185 233.711C415.652 235.815 414.918 237.474 413.985 238.689C413.052 239.889 411.948 240.556 410.674 240.689V239C411.726 238.807 412.615 238.074 413.341 236.8C414.067 235.526 414.607 233.881 414.963 231.867C415.333 229.837 415.526 227.593 415.541 225.133L417.163 225.178ZM429.272 226.689V225.267H443.116V230.356H430.872V232.711H443.383V234.133H429.294V229.022H441.538V226.689H429.272ZM440.138 237.844V242.156H438.538V237.844H433.805V242.156H432.205V237.844H428.094V236.333H444.272V237.844H440.138ZM453.531 242.067C452.819 240.911 452.271 239.585 451.886 238.089C451.501 236.578 451.308 234.956 451.308 233.222C451.308 231.489 451.501 229.867 451.886 228.356C452.271 226.83 452.819 225.504 453.531 224.378H454.864C454.123 225.667 453.575 227.037 453.219 228.489C452.864 229.941 452.686 231.519 452.686 233.222C452.686 234.926 452.864 236.504 453.219 237.956C453.575 239.407 454.123 240.778 454.864 242.067H453.531ZM471.828 241.756H470.272V224.689H471.828V241.756ZM467.761 224.778V241.467H466.228V232.244H463.494V230.667H466.228V224.778H467.761ZM461.628 225.178C461.598 228.007 461.472 230.356 461.25 232.222L465.205 239.711L463.894 240.467L460.805 234.6C460.405 236.378 459.857 237.763 459.161 238.756C458.48 239.748 457.591 240.393 456.494 240.689V238.978C457.798 238.519 458.717 237.126 459.25 234.8C459.783 232.459 460.057 229.237 460.072 225.133L461.628 225.178ZM487.248 230.667V226.378H475.048V224.933H488.87V230.667H487.248ZM473.914 233.2V231.778H490.092V233.2H473.914ZM475.092 241.511V235.111H488.914V241.511H475.092ZM487.336 236.511H476.692V240.111H487.336V236.511ZM507.023 241.756H505.49V224.689H507.023V241.756ZM503.067 224.778V241.467H501.556V236.044H497.512C496.949 237.496 496.186 238.63 495.223 239.444C494.275 240.244 493.179 240.644 491.934 240.644V239.067C492.956 239.052 493.845 238.659 494.601 237.889C495.371 237.119 495.956 236.052 496.356 234.689C496.771 233.311 496.979 231.726 496.979 229.933V226.889H491.934V225.356H498.556V229.089H501.556V224.778H503.067ZM501.556 230.667H498.534C498.46 232.059 498.282 233.333 498.001 234.489H501.556V230.667ZM526.065 230.311H523.71V237.378H522.11V224.689H523.71V228.689H526.065V230.311ZM514.487 230.6C513.91 231.726 513.169 232.652 512.265 233.378C511.361 234.104 510.332 234.556 509.176 234.733V233.156C510.198 232.948 511.087 232.444 511.843 231.644C512.613 230.844 513.198 229.852 513.598 228.667C513.998 227.481 514.198 226.215 514.198 224.867L515.821 224.956C515.821 226.481 515.598 227.881 515.154 229.156L520.376 233.356L519.398 234.578L514.487 230.6ZM524.198 239.956V241.489H510.265V236.178H511.887V239.956H524.198ZM541.885 241.756H540.285V232.578H535.952V231H540.285V224.689H541.885V241.756ZM533.374 225.178C533.344 227.593 533.181 229.733 532.885 231.6L538.041 239.8L536.729 240.733L532.396 233.711C531.863 235.815 531.129 237.474 530.196 238.689C529.263 239.889 528.159 240.556 526.885 240.689V239C527.937 238.807 528.826 238.074 529.552 236.8C530.278 235.526 530.818 233.881 531.174 231.867C531.544 229.837 531.737 227.593 531.752 225.133L533.374 225.178ZM551.038 223.8L544.438 242.644H543.083L549.683 223.8H551.038ZM566.11 241.756H564.488V224.689H566.11V241.756ZM557.843 226.911C557.828 228.956 557.658 230.844 557.332 232.578L562.732 239.533L561.465 240.533L556.821 234.444C556.288 236.281 555.562 237.741 554.643 238.822C553.725 239.889 552.658 240.511 551.443 240.689V239.022C552.421 238.815 553.265 238.17 553.976 237.089C554.688 235.993 555.236 234.57 555.621 232.822C556.006 231.059 556.214 229.089 556.243 226.911H551.799V225.356H562.154V226.911H557.843ZM569.796 226.378V224.933H583.596V230.444H581.974V226.378H569.796ZM584.819 232.956H568.641V231.511H584.819V232.956ZM583.641 234.356V241.511H569.819V234.356H571.396V236.489H582.063V234.356H583.641ZM582.063 237.8H571.396V240.178H582.063V237.8ZM586.327 227.378V226.089H590.861V224.222H592.483V226.089H597.172V227.378H586.327ZM600.883 230.978V236.378H599.283V224.689H600.883V229.4H603.194V230.978H600.883ZM597.816 235.289C597.327 235.511 596.587 235.681 595.594 235.8C594.601 235.904 593.461 235.956 592.172 235.956H586.238V234.644H590.905V233.289C589.72 233.215 588.787 232.956 588.105 232.511C587.424 232.052 587.083 231.474 587.083 230.778C587.083 229.993 587.498 229.37 588.327 228.911C589.172 228.452 590.305 228.222 591.727 228.222C593.135 228.222 594.253 228.452 595.083 228.911C595.927 229.37 596.35 229.993 596.35 230.778C596.35 231.474 596.009 232.052 595.327 232.511C594.646 232.956 593.698 233.222 592.483 233.311V234.644C595.09 234.615 596.868 234.385 597.816 233.956V235.289ZM588.594 230.778C588.594 231.178 588.875 231.504 589.438 231.756C590.016 231.993 590.779 232.111 591.727 232.111C592.661 232.111 593.409 231.993 593.972 231.756C594.55 231.504 594.838 231.178 594.838 230.778C594.838 230.393 594.55 230.074 593.972 229.822C593.409 229.57 592.661 229.444 591.727 229.444C590.779 229.444 590.016 229.57 589.438 229.822C588.875 230.074 588.594 230.393 588.594 230.778ZM600.883 237.378V241.711H599.261V238.711H587.35V237.378H600.883ZM617.281 237.378V224.689H618.903V237.378H617.281ZM609.147 224.889C610.184 224.889 611.088 225.104 611.858 225.533C612.629 225.948 613.214 226.533 613.614 227.289C614.029 228.03 614.236 228.874 614.236 229.822C614.236 230.77 614.029 231.622 613.614 232.378C613.214 233.119 612.629 233.704 611.858 234.133C611.088 234.548 610.184 234.756 609.147 234.756C608.11 234.756 607.206 234.548 606.436 234.133C605.666 233.704 605.073 233.119 604.658 232.378C604.244 231.622 604.036 230.77 604.036 229.822C604.036 228.874 604.244 228.03 604.658 227.289C605.073 226.533 605.666 225.948 606.436 225.533C607.206 225.104 608.11 224.889 609.147 224.889ZM609.147 226.311C608.095 226.311 607.251 226.63 606.614 227.267C605.977 227.904 605.658 228.756 605.658 229.822C605.658 230.889 605.977 231.741 606.614 232.378C607.251 233 608.095 233.311 609.147 233.311C610.199 233.311 611.044 233 611.681 232.378C612.318 231.741 612.636 230.889 612.636 229.822C612.636 228.756 612.318 227.904 611.681 227.267C611.044 226.63 610.199 226.311 609.147 226.311ZM619.369 239.956V241.489H605.458V235.978H607.081V239.956H619.369ZM629.189 228.867C628.419 229.578 627.412 230.133 626.167 230.533C624.937 230.919 623.649 231.126 622.3 231.156V229.756C623.278 229.726 624.241 229.578 625.189 229.311C626.152 229.03 626.975 228.637 627.656 228.133C628.337 227.615 628.76 227.007 628.923 226.311H622.589V224.933H636.456V226.311H630.656C630.582 226.859 630.434 227.319 630.212 227.689L636.9 229.889L636.456 231.222L629.189 228.867ZM637.612 234H621.434V232.6H637.612V234ZM629.523 235.667C631.626 235.667 633.33 235.904 634.634 236.378C635.937 236.837 636.589 237.607 636.589 238.689C636.589 239.77 635.937 240.548 634.634 241.022C633.33 241.511 631.626 241.756 629.523 241.756C627.419 241.756 625.708 241.511 624.389 241.022C623.086 240.548 622.434 239.77 622.434 238.689C622.434 237.607 623.086 236.837 624.389 236.378C625.708 235.904 627.419 235.667 629.523 235.667ZM629.523 240.4C631.063 240.4 632.345 240.267 633.367 240C634.389 239.733 634.9 239.296 634.9 238.689C634.9 238.096 634.389 237.674 633.367 237.422C632.345 237.156 631.063 237.022 629.523 237.022C627.982 237.022 626.693 237.156 625.656 237.422C624.634 237.674 624.123 238.096 624.123 238.689C624.123 239.296 624.634 239.733 625.656 240C626.693 240.267 627.982 240.4 629.523 240.4ZM639.076 242.067C639.817 240.778 640.357 239.407 640.698 237.956C641.054 236.504 641.231 234.926 641.231 233.222C641.231 231.519 641.054 229.941 640.698 228.489C640.357 227.037 639.817 225.667 639.076 224.378H640.387C641.098 225.504 641.639 226.822 642.009 228.333C642.394 229.844 642.587 231.474 642.587 233.222C642.587 234.956 642.394 236.578 642.009 238.089C641.639 239.585 641.098 240.911 640.387 242.067H639.076Z" fill="#333333"/>
</svg>
