<svg width="996" height="274" viewBox="0 0 996 274" fill="none" xmlns="http://www.w3.org/2000/svg">
<rect width="996" height="274" rx="30" fill="#EBEBEB"/>
<path d="M318.667 84.5467C316.024 84.5467 313.671 83.8937 311.606 82.5878C309.54 81.2819 307.916 79.3989 306.731 76.9389C305.577 74.4485 305 71.4874 305 68.0556C305 64.6237 305.577 61.6778 306.731 59.2178C307.916 56.7274 309.54 54.8293 311.606 53.5233C313.671 52.2174 316.024 51.5644 318.667 51.5644C321.309 51.5644 323.663 52.2174 325.728 53.5233C327.793 54.8293 329.403 56.7274 330.557 59.2178C331.741 61.6778 332.333 64.6237 332.333 68.0556C332.333 71.4874 331.741 74.4485 330.557 76.9389C329.403 79.3989 327.793 81.2819 325.728 82.5878C323.663 83.8937 321.309 84.5467 318.667 84.5467ZM318.667 78.3056C320.61 78.3056 322.129 77.4704 323.222 75.8C324.346 74.1296 324.908 71.5481 324.908 68.0556C324.908 64.563 324.346 61.9815 323.222 60.3111C322.129 58.6407 320.61 57.8056 318.667 57.8056C316.753 57.8056 315.235 58.6407 314.111 60.3111C313.018 61.9815 312.471 64.563 312.471 68.0556C312.471 71.5481 313.018 74.1296 314.111 75.8C315.235 77.4704 316.753 78.3056 318.667 78.3056ZM349.202 65.0944C351.996 65.55 354.137 66.5978 355.626 68.2378C357.114 69.8474 357.858 71.8519 357.858 74.2511C357.858 76.1037 357.372 77.8196 356.4 79.3989C355.428 80.9478 353.94 82.193 351.936 83.1344C349.961 84.0759 347.532 84.5467 344.647 84.5467C342.399 84.5467 340.182 84.2581 337.996 83.6811C335.839 83.0737 334.002 82.2233 332.483 81.13L335.353 75.4811C336.568 76.3922 337.965 77.1059 339.544 77.6222C341.154 78.1081 342.794 78.3511 344.464 78.3511C346.317 78.3511 347.775 78.0019 348.838 77.3033C349.901 76.5744 350.432 75.557 350.432 74.2511C350.432 71.6393 348.443 70.3333 344.464 70.3333H341.093V65.4589L347.653 58.0333H334.078V52.1111H356.4V56.8944L349.202 65.0944Z" fill="#01A69F"/>
<path d="M403.005 85.5489H396.855V69.9689H394.077V84.9567H388.018V50.6989H394.077V63.4089H396.855V50.5622H403.005V85.5489ZM378.724 77.85C380.091 77.85 381.473 77.7437 382.87 77.5311C384.297 77.3185 385.497 77.03 386.469 76.6656V82.6333C385.527 83.0585 384.282 83.3774 382.733 83.59C381.184 83.8026 379.651 83.9089 378.132 83.9089H370.524V51.3822H385.011V57.4411H376.811V77.85H378.724ZM430.881 62.1789V56.2567H407.921V50.5622H437.532V62.1789H430.881ZM405.962 69.1489V63.5H439.627V69.1489H405.962ZM407.921 85.5489V71.2444H437.714V85.5489H407.921ZM431.154 76.6656H414.435V80.1733H431.154V76.6656ZM483.254 85.5489H476.648V50.5622H483.254V85.5489ZM466.717 57.7144C466.626 61.1463 466.352 64.0619 465.897 66.4611L475.555 79.6722L470.361 83.7722L463.665 74.16C462.328 77.2881 460.628 79.6874 458.562 81.3578C456.497 83.0281 454.204 83.8785 451.684 83.9089V76.9389C453.293 76.7567 454.721 75.8607 455.966 74.2511C457.211 72.6111 458.198 70.3789 458.927 67.5544C459.656 64.6996 460.051 61.4196 460.111 57.7144H452.595V51.3822H473.869V57.7144H466.717ZM489.08 56.2111V50.5622H518.691V61.7233H511.994V56.2111H489.08ZM520.787 68.6022H487.121V63.0444H520.787V68.6022ZM518.873 70.3333V85.5489H489.08V70.3333H495.549V72.9756H512.404V70.3333H518.873ZM512.404 77.9411H495.549V80.4922H512.404V77.9411Z" fill="black"/>
<path d="M327.967 120.567V126.567H325.567V113.533H327.967V118.167H331.5V120.567H327.967ZM323.633 124.333C322.856 124.711 321.744 125 320.3 125.2C318.856 125.4 317.222 125.5 315.4 125.5H307V114.067H309.433V123.333H315.533C317.311 123.333 318.9 123.233 320.3 123.033C321.722 122.811 322.833 122.511 323.633 122.133V124.333ZM327.967 127.733V138.733H307.8V127.733H310.2V131H325.6V127.733H327.967ZM325.6 133.1H310.2V136.6H325.6V133.1ZM333.896 123.333V121.3H338.363V115.933H334.163V113.9H355.03V115.933H350.83V121.3H355.263V123.333H333.896ZM348.43 121.3V115.933H340.763V121.3H348.43ZM345.796 130.8H354.963V138.767H334.23V130.8H343.396V127.867H332.463V125.833H356.73V127.867H345.796V130.8ZM336.63 132.8V136.767H352.596V132.8H336.63ZM388.718 139.133H386.418V126.4H382.018V138.7H379.751V113.667H382.018V124.033H386.418V113.533H388.718V139.133ZM372.151 135.267C373.174 135.267 374.185 135.178 375.185 135C376.185 134.822 377.063 134.578 377.818 134.267V136.533C377.085 136.844 376.185 137.089 375.118 137.267C374.074 137.444 372.985 137.533 371.851 137.533H366.285V114.467H368.618V135.267H372.151ZM414.615 128.833H412.248V125.367H407.648L407.815 123.1H412.248V118.7H407.815L407.648 116.467H412.248V113.533H414.615V128.833ZM406.981 120.9C406.981 122.256 406.681 123.467 406.081 124.533C405.481 125.6 404.615 126.444 403.481 127.067C402.37 127.667 401.059 127.967 399.548 127.967C398.059 127.967 396.748 127.667 395.615 127.067C394.503 126.444 393.637 125.6 393.015 124.533C392.415 123.444 392.115 122.233 392.115 120.9C392.115 119.567 392.415 118.367 393.015 117.3C393.637 116.211 394.503 115.367 395.615 114.767C396.748 114.144 398.059 113.833 399.548 113.833C401.059 113.833 402.37 114.144 403.481 114.767C404.615 115.367 405.481 116.2 406.081 117.267C406.681 118.333 406.981 119.544 406.981 120.9ZM394.548 120.9C394.548 122.411 395.003 123.611 395.915 124.5C396.848 125.389 398.059 125.833 399.548 125.833C401.037 125.833 402.248 125.389 403.181 124.5C404.115 123.611 404.581 122.411 404.581 120.9C404.581 119.389 404.115 118.189 403.181 117.3C402.27 116.411 401.059 115.967 399.548 115.967C398.059 115.967 396.848 116.411 395.915 117.3C395.003 118.189 394.548 119.389 394.548 120.9ZM414.615 130.333V139.067H412.181V132.567H394.181V130.333H414.615ZM445.203 113.533H447.603V127.933H445.203V120.733H440.203V118.533H445.203V113.533ZM433.336 121.8C432.536 123.267 431.447 124.467 430.07 125.4C428.692 126.311 427.114 126.878 425.336 127.1V124.833C427.425 124.5 429.081 123.6 430.303 122.133C431.547 120.644 432.258 118.744 432.436 116.433H425.636V114.267H441.203V116.433H434.87C434.803 117.656 434.603 118.767 434.27 119.767L442.003 124.967L440.77 126.867L433.336 121.8ZM437.403 128.867C440.536 128.867 443.047 129.289 444.936 130.133C446.847 130.956 447.803 132.233 447.803 133.967C447.803 135.7 446.847 136.989 444.936 137.833C443.047 138.656 440.536 139.067 437.403 139.067C434.27 139.067 431.758 138.656 429.87 137.833C427.981 136.989 427.036 135.7 427.036 133.967C427.036 132.233 427.981 130.956 429.87 130.133C431.758 129.289 434.27 128.867 437.403 128.867ZM437.403 136.967C439.736 136.967 441.625 136.711 443.07 136.2C444.536 135.689 445.27 134.944 445.27 133.967C445.27 132.989 444.536 132.244 443.07 131.733C441.603 131.222 439.714 130.967 437.403 130.967C435.092 130.967 433.203 131.222 431.736 131.733C430.292 132.244 429.57 132.989 429.57 133.967C429.57 134.944 430.292 135.689 431.736 136.2C433.203 136.711 435.092 136.967 437.403 136.967ZM476.666 121.967H473.133V132.567H470.733V113.533H473.133V119.533H476.666V121.967ZM459.299 122.4C458.433 124.089 457.322 125.478 455.966 126.567C454.61 127.656 453.066 128.333 451.333 128.6V126.233C452.866 125.922 454.199 125.167 455.333 123.967C456.488 122.767 457.366 121.278 457.966 119.5C458.566 117.722 458.866 115.822 458.866 113.8L461.299 113.933C461.299 116.222 460.966 118.322 460.299 120.233L468.133 126.533L466.666 128.367L459.299 122.4ZM473.866 136.433V138.733H452.966V130.767H455.399V136.433H473.866ZM504.388 127.533V113.533H506.821V127.533H504.388ZM485.421 125.333V114.233H499.754V125.333H485.421ZM487.821 116.367V123.2H497.388V116.367H487.821ZM496.188 134.967C495.077 136.144 493.61 137.067 491.788 137.733C489.965 138.4 488.043 138.733 486.021 138.733V136.567C487.443 136.567 488.821 136.367 490.154 135.967C491.51 135.544 492.665 134.956 493.621 134.2C494.577 133.444 495.199 132.578 495.488 131.6H486.188V129.467H495.454V126.8H497.921V129.467H507.221V131.6H498.021C497.954 132.2 497.777 132.733 497.488 133.2L507.754 137L507.021 139.1L496.188 134.967ZM539.976 139.133H537.576V126.5H530.809C529.987 129.944 528.498 132.633 526.343 134.567C524.187 136.5 521.509 137.467 518.309 137.467V135.067C520.531 135.067 522.443 134.478 524.043 133.3C525.665 132.122 526.898 130.444 527.743 128.267C528.587 126.089 529.009 123.544 529.009 120.633V116.833H518.309V114.533H531.443V120.533C531.443 121.733 531.354 122.933 531.176 124.133H537.576V113.533H539.976V139.133ZM566.872 139.133H564.572V126.433H560.172V138.7H557.906V113.667H560.172V124.033H564.572V113.533H566.872V139.133ZM548.639 135.333C550.239 135.333 551.628 135.233 552.806 135.033C553.984 134.811 555.039 134.478 555.972 134.033V136.333C554.306 137.133 551.861 137.533 548.639 137.533H544.439V124.733H551.872V116.733H544.439V114.533H554.139V126.933H546.706V135.333H548.639ZM592.727 124.267V122H596.994V118.2H592.727V115.967H596.994V113.533H599.361V127.7H596.994V124.267H592.727ZM577.727 126.1V114.233H591.227V126.1H577.727ZM580.061 116.4V123.933H588.827V116.4H580.061ZM589.161 128.633C592.316 128.633 594.838 129.067 596.727 129.933C598.638 130.778 599.594 132.089 599.594 133.867C599.594 135.644 598.638 136.956 596.727 137.8C594.838 138.644 592.316 139.067 589.161 139.067C586.027 139.067 583.516 138.644 581.627 137.8C579.738 136.956 578.794 135.644 578.794 133.867C578.794 132.089 579.738 130.778 581.627 129.933C583.516 129.067 586.027 128.633 589.161 128.633ZM589.161 136.967C591.472 136.967 593.361 136.7 594.827 136.167C596.294 135.633 597.027 134.867 597.027 133.867C597.027 132.844 596.294 132.067 594.827 131.533C593.361 131 591.472 130.733 589.161 130.733C586.85 130.733 584.961 131 583.494 131.533C582.05 132.067 581.327 132.844 581.327 133.867C581.327 134.867 582.05 135.633 583.494 136.167C584.961 136.7 586.85 136.967 589.161 136.967ZM626.257 139.133H623.924V113.533H626.257V139.133ZM620.157 113.667V138.7H617.857V124.867H613.757V122.5H617.857V113.667H620.157ZM610.957 114.267C610.913 118.511 610.724 122.033 610.39 124.833L616.324 136.067L614.357 137.2L609.724 128.4C609.124 131.067 608.302 133.144 607.257 134.633C606.235 136.122 604.902 137.089 603.257 137.533V134.967C605.213 134.278 606.59 132.189 607.39 128.7C608.19 125.189 608.602 120.356 608.624 114.2L610.957 114.267ZM639.487 112.2L629.587 140.467H627.554L637.454 112.2H639.487ZM662.761 139.133H660.461V113.533H662.761V139.133ZM656.828 113.667V138.7H654.561V130.567H648.494C647.65 132.744 646.506 134.444 645.061 135.667C643.639 136.867 641.994 137.467 640.128 137.467V135.1C641.661 135.078 642.994 134.489 644.128 133.333C645.283 132.178 646.161 130.578 646.761 128.533C647.383 126.467 647.694 124.089 647.694 121.4V116.833H640.128V114.533H650.061V120.133H654.561V113.667H656.828ZM654.561 122.5H650.028C649.917 124.589 649.65 126.5 649.228 128.233H654.561V122.5ZM691.324 121.967H687.791V132.567H685.391V113.533H687.791V119.533H691.324V121.967ZM673.958 122.4C673.091 124.089 671.98 125.478 670.624 126.567C669.269 127.656 667.724 128.333 665.991 128.6V126.233C667.524 125.922 668.858 125.167 669.991 123.967C671.146 122.767 672.024 121.278 672.624 119.5C673.224 117.722 673.524 115.822 673.524 113.8L675.958 113.933C675.958 116.222 675.624 118.322 674.958 120.233L682.791 126.533L681.324 128.367L673.958 122.4ZM688.524 136.433V138.733H667.624V130.767H670.058V136.433H688.524ZM715.054 139.133H712.654V125.367H706.154V123H712.654V113.533H715.054V139.133ZM702.287 114.267C702.243 117.889 701.998 121.1 701.554 123.9L709.287 136.2L707.321 137.6L700.821 127.067C700.021 130.222 698.921 132.711 697.521 134.533C696.121 136.333 694.465 137.333 692.554 137.533V135C694.132 134.711 695.465 133.611 696.554 131.7C697.643 129.789 698.454 127.322 698.987 124.3C699.543 121.256 699.832 117.889 699.854 114.2L702.287 114.267ZM750.709 120.633H747.176V126.433H744.776V113.533H747.176V118.333H750.709V120.633ZM726.209 125.333V114.033H728.576V117.433H737.942V114.033H740.309V125.333H726.209ZM737.942 119.467H728.576V123.267H737.942V119.467ZM747.842 136.867V138.733H727.042V132.433H744.809V129.833H726.976V127.933H747.176V134.2H729.442V136.867H747.842ZM751.272 117.9V115.9H756.672V113.167H759.039V115.9H764.205V117.9H751.272ZM766.139 128.5V113.667H768.372V119.7H772.672V113.533H774.939V129.4H772.672V121.967H768.372V128.5H766.139ZM763.572 124.133C763.572 125.556 763.028 126.7 761.939 127.567C760.872 128.411 759.528 128.833 757.905 128.833C756.261 128.833 754.905 128.411 753.839 127.567C752.772 126.722 752.239 125.578 752.239 124.133C752.239 122.711 752.772 121.578 753.839 120.733C754.905 119.867 756.261 119.433 757.905 119.433C759.528 119.433 760.872 119.867 761.939 120.733C763.028 121.578 763.572 122.711 763.572 124.133ZM754.439 124.133C754.439 124.933 754.75 125.6 755.372 126.133C756.017 126.667 756.861 126.933 757.905 126.933C758.95 126.933 759.783 126.667 760.405 126.133C761.05 125.6 761.372 124.933 761.372 124.133C761.372 123.333 761.05 122.667 760.405 122.133C759.783 121.6 758.95 121.333 757.905 121.333C756.861 121.333 756.017 121.6 755.372 122.133C754.75 122.667 754.439 123.333 754.439 124.133ZM764.505 130C767.705 130 770.294 130.367 772.272 131.1C774.25 131.833 775.239 132.978 775.239 134.533C775.239 136.111 774.25 137.267 772.272 138C770.317 138.711 767.728 139.067 764.505 139.067C761.283 139.067 758.683 138.711 756.705 138C754.75 137.267 753.772 136.111 753.772 134.533C753.772 132.978 754.761 131.833 756.739 131.1C758.717 130.367 761.305 130 764.505 130ZM764.505 137.067C766.905 137.067 768.872 136.856 770.405 136.433C771.939 136.011 772.705 135.378 772.705 134.533C772.705 133.711 771.928 133.089 770.372 132.667C768.839 132.244 766.883 132.033 764.505 132.033C762.105 132.033 760.128 132.244 758.572 132.667C757.039 133.089 756.272 133.711 756.272 134.533C756.272 135.378 757.039 136.011 758.572 136.433C760.128 136.856 762.105 137.067 764.505 137.067Z" fill="#333333"/>
<path d="M320.001 170.933C319.526 170.933 319.126 170.77 318.801 170.444C318.475 170.104 318.312 169.696 318.312 169.222C318.312 168.733 318.475 168.326 318.801 168C319.126 167.674 319.526 167.511 320.001 167.511C320.46 167.511 320.852 167.674 321.178 168C321.519 168.326 321.689 168.733 321.689 169.222C321.689 169.696 321.519 170.104 321.178 170.444C320.852 170.77 320.46 170.933 320.001 170.933ZM351.222 177.756H349.689V160.689H351.222V177.756ZM347.267 160.778V177.467H345.756V172.044H341.711C341.148 173.496 340.385 174.63 339.422 175.444C338.474 176.244 337.378 176.644 336.133 176.644V175.067C337.156 175.052 338.044 174.659 338.8 173.889C339.57 173.119 340.156 172.052 340.556 170.689C340.97 169.311 341.178 167.726 341.178 165.933V162.889H336.133V161.356H342.756V165.089H345.756V160.778H347.267ZM345.756 166.667H342.733C342.659 168.059 342.481 169.333 342.2 170.489H345.756V166.667ZM367.909 167H370.264V168.467H367.909V170.889H366.309V160.689H367.909V162.756H370.264V164.244H367.909V167ZM358.375 170.311C357.368 170.311 356.487 170.111 355.731 169.711C354.975 169.296 354.39 168.733 353.975 168.022C353.575 167.296 353.375 166.489 353.375 165.6C353.375 164.711 353.575 163.911 353.975 163.2C354.39 162.474 354.975 161.911 355.731 161.511C356.487 161.096 357.368 160.889 358.375 160.889C359.383 160.889 360.257 161.096 360.998 161.511C361.753 161.911 362.331 162.467 362.731 163.178C363.146 163.889 363.353 164.696 363.353 165.6C363.353 166.504 363.146 167.311 362.731 168.022C362.331 168.733 361.753 169.296 360.998 169.711C360.257 170.111 359.383 170.311 358.375 170.311ZM358.375 162.311C357.368 162.311 356.553 162.607 355.931 163.2C355.309 163.793 354.998 164.593 354.998 165.6C354.998 166.607 355.309 167.407 355.931 168C356.553 168.593 357.368 168.889 358.375 168.889C359.383 168.889 360.198 168.593 360.82 168C361.442 167.393 361.753 166.593 361.753 165.6C361.753 164.607 361.442 163.815 360.82 163.222C360.198 162.615 359.383 162.311 358.375 162.311ZM367.909 171.889V177.711H366.287V173.378H354.509V171.889H367.909ZM384.395 173.689V160.689H385.995V173.689H384.395ZM382.951 170.844C381.973 171.304 380.106 171.533 377.351 171.533H370.906V170.111H375.751V167.622H371.906V161.067H381.284V162.444H373.506V166.244H381.484V167.622H377.351V170.111C380.062 170.111 381.929 169.881 382.951 169.422V170.844ZM386.462 177.489H372.373V172.956H373.995V176.022H386.462V177.489ZM407.965 177.756H406.343V160.689H407.965V177.756ZM399.699 162.911C399.684 164.956 399.513 166.844 399.187 168.578L404.588 175.533L403.321 176.533L398.676 170.444C398.143 172.281 397.417 173.741 396.499 174.822C395.58 175.889 394.513 176.511 393.299 176.689V175.022C394.276 174.815 395.121 174.17 395.832 173.089C396.543 171.993 397.091 170.57 397.476 168.822C397.862 167.059 398.069 165.089 398.099 162.911H393.654V161.356H404.01V162.911H399.699ZM411.652 162.378V160.933H425.452V166.444H423.83V162.378H411.652ZM426.674 168.956H410.496V167.511H426.674V168.956ZM425.496 170.356V177.511H411.674V170.356H413.252V172.489H423.918V170.356H425.496ZM423.918 173.8H413.252V176.178H423.918V173.8ZM445.933 169.089V160.689H447.555V169.089H445.933ZM437.844 160.889C438.851 160.889 439.733 161.059 440.488 161.4C441.244 161.741 441.822 162.207 442.222 162.8C442.622 163.393 442.822 164.074 442.822 164.844C442.822 165.6 442.622 166.281 442.222 166.889C441.822 167.481 441.244 167.948 440.488 168.289C439.733 168.615 438.851 168.778 437.844 168.778C436.822 168.778 435.933 168.615 435.177 168.289C434.437 167.948 433.866 167.481 433.466 166.889C433.066 166.296 432.866 165.615 432.866 164.844C432.866 164.074 433.066 163.393 433.466 162.8C433.866 162.207 434.437 161.741 435.177 161.4C435.933 161.059 436.822 160.889 437.844 160.889ZM437.844 162.267C436.822 162.267 436 162.496 435.377 162.956C434.755 163.4 434.444 164.03 434.444 164.844C434.444 165.659 434.755 166.289 435.377 166.733C436 167.178 436.822 167.4 437.844 167.4C438.866 167.4 439.688 167.178 440.311 166.733C440.933 166.289 441.244 165.659 441.244 164.844C441.244 164.03 440.933 163.4 440.311 162.956C439.688 162.496 438.866 162.267 437.844 162.267ZM435.733 174.4V176.2H448V177.489H434.133V173.2H445.955V171.378H434.088V170.089H447.555V174.4H435.733ZM463.664 160.689H465.264V170.289H463.664V165.489H460.331V164.022H463.664V160.689ZM455.753 166.2C455.219 167.178 454.494 167.978 453.575 168.6C452.656 169.207 451.605 169.585 450.419 169.733V168.222C451.812 168 452.916 167.4 453.731 166.422C454.56 165.43 455.034 164.163 455.153 162.622H450.619V161.178H460.997V162.622H456.775C456.731 163.437 456.597 164.178 456.375 164.844L461.531 168.311L460.708 169.578L455.753 166.2ZM458.464 170.911C460.553 170.911 462.227 171.193 463.486 171.756C464.76 172.304 465.397 173.156 465.397 174.311C465.397 175.467 464.76 176.326 463.486 176.889C462.227 177.437 460.553 177.711 458.464 177.711C456.375 177.711 454.701 177.437 453.442 176.889C452.182 176.326 451.553 175.467 451.553 174.311C451.553 173.156 452.182 172.304 453.442 171.756C454.701 171.193 456.375 170.911 458.464 170.911ZM458.464 176.311C460.019 176.311 461.279 176.141 462.242 175.8C463.219 175.459 463.708 174.963 463.708 174.311C463.708 173.659 463.219 173.163 462.242 172.822C461.264 172.481 460.005 172.311 458.464 172.311C456.923 172.311 455.664 172.481 454.686 172.822C453.723 173.163 453.242 173.659 453.242 174.311C453.242 174.963 453.723 175.459 454.686 175.8C455.664 176.141 456.923 176.311 458.464 176.311ZM483.195 177.756H481.662V160.689H483.195V177.756ZM479.284 160.778V177.467H477.75V169.533H475.417C475.373 172.037 475.039 173.896 474.417 175.111C473.795 176.311 472.884 176.911 471.684 176.911C470.454 176.911 469.521 176.274 468.884 175C468.262 173.711 467.95 171.719 467.95 169.022C467.95 163.763 469.195 161.133 471.684 161.133C474.01 161.133 475.247 163.393 475.395 167.911H477.75V160.778H479.284ZM471.684 175.378C472.425 175.378 472.973 174.859 473.328 173.822C473.699 172.77 473.884 171.17 473.884 169.022C473.884 166.874 473.699 165.281 473.328 164.244C472.973 163.193 472.425 162.667 471.684 162.667C470.943 162.667 470.387 163.193 470.017 164.244C469.662 165.281 469.484 166.874 469.484 169.022C469.484 171.17 469.662 172.77 470.017 173.822C470.387 174.859 470.943 175.378 471.684 175.378ZM504.365 169.356V177.756H502.809V160.689H504.365V167.756H506.632V169.356H504.365ZM492.765 175.156C493.18 175.156 493.609 175.126 494.054 175.067C494.513 174.993 494.906 174.889 495.232 174.756V176.267C494.861 176.4 494.417 176.504 493.898 176.578C493.38 176.652 492.869 176.689 492.365 176.689H490.276V161.356H495.143V162.889H491.854V175.156H492.765ZM498.52 175.156C499.632 175.156 500.565 174.956 501.32 174.556V176.133C500.491 176.504 499.469 176.689 498.254 176.689H495.943V161.356H500.898V162.889H497.498V175.156H498.52ZM521.874 169.356V177.756H520.274V160.689H521.874V167.756H524.229V169.356H521.874ZM514.518 175.156C515.288 175.156 516.059 175.081 516.829 174.933C517.6 174.785 518.229 174.593 518.718 174.356V175.867C518.244 176.133 517.622 176.341 516.851 176.489C516.081 176.622 515.296 176.689 514.496 176.689H508.074V168.133H515.407V162.889H508.029V161.356H517.007V169.644H509.674V175.156H514.518ZM544.31 177.756H542.71V160.689H544.31V177.756ZM539.377 161.222V176.689H530.244V161.222H531.844V167.289H537.777V161.222H539.377ZM537.777 168.822H531.844V175.133H537.777V168.822ZM563.041 170.178H546.863V168.8H550.53V166.511C549.686 166.259 549.026 165.911 548.552 165.467C548.078 165.022 547.841 164.481 547.841 163.844C547.841 162.763 548.508 161.956 549.841 161.422C551.175 160.874 552.878 160.6 554.952 160.6C557.026 160.6 558.723 160.874 560.041 161.422C561.375 161.956 562.041 162.763 562.041 163.844C562.041 164.481 561.804 165.022 561.33 165.467C560.856 165.911 560.197 166.259 559.352 166.511V168.8H563.041V170.178ZM554.952 161.978C553.382 161.978 552.078 162.133 551.041 162.444C550.019 162.756 549.508 163.222 549.508 163.844C549.508 164.467 550.019 164.933 551.041 165.244C552.063 165.556 553.367 165.711 554.952 165.711C556.523 165.711 557.819 165.556 558.841 165.244C559.863 164.933 560.375 164.467 560.375 163.844C560.375 163.222 559.856 162.756 558.819 162.444C557.797 162.133 556.508 161.978 554.952 161.978ZM557.752 168.8V166.867C556.952 167.015 556.019 167.089 554.952 167.089C553.9 167.089 552.96 167.015 552.13 166.867V168.8H557.752ZM554.952 171.667C557.056 171.667 558.76 171.904 560.063 172.378C561.367 172.837 562.019 173.607 562.019 174.689C562.019 175.77 561.367 176.548 560.063 177.022C558.76 177.511 557.056 177.756 554.952 177.756C552.849 177.756 551.138 177.511 549.819 177.022C548.515 176.548 547.863 175.77 547.863 174.689C547.863 173.607 548.515 172.837 549.819 172.378C551.138 171.904 552.849 171.667 554.952 171.667ZM554.952 176.4C556.493 176.4 557.775 176.267 558.797 176C559.819 175.733 560.33 175.296 560.33 174.689C560.33 174.096 559.819 173.674 558.797 173.422C557.775 173.156 556.493 173.022 554.952 173.022C553.412 173.022 552.123 173.156 551.086 173.422C550.063 173.674 549.552 174.096 549.552 174.689C549.552 175.296 550.063 175.733 551.086 176C552.123 176.267 553.412 176.4 554.952 176.4ZM583.922 177.756H582.3V160.689H583.922V177.756ZM575.656 162.911C575.641 164.956 575.47 166.844 575.145 168.578L580.545 175.533L579.278 176.533L574.633 170.444C574.1 172.281 573.374 173.741 572.456 174.822C571.537 175.889 570.47 176.511 569.256 176.689V175.022C570.233 174.815 571.078 174.17 571.789 173.089C572.5 171.993 573.048 170.57 573.433 168.822C573.819 167.059 574.026 165.089 574.056 162.911H569.611V161.356H579.967V162.911H575.656ZM587.609 162.378V160.933H601.409V166.444H599.787V162.378H587.609ZM602.631 168.956H586.453V167.511H602.631V168.956ZM601.453 170.356V177.511H587.631V170.356H589.209V172.489H599.876V170.356H601.453ZM599.876 173.8H589.209V176.178H599.876V173.8ZM320.001 194.933C319.526 194.933 319.126 194.77 318.801 194.444C318.475 194.104 318.312 193.696 318.312 193.222C318.312 192.733 318.475 192.326 318.801 192C319.126 191.674 319.526 191.511 320.001 191.511C320.46 191.511 320.852 191.674 321.178 192C321.519 192.326 321.689 192.733 321.689 193.222C321.689 193.696 321.519 194.104 321.178 194.444C320.852 194.77 320.46 194.933 320.001 194.933ZM351.222 201.756H349.689V184.689H351.222V201.756ZM347.267 184.778V201.467H345.756V196.044H341.711C341.148 197.496 340.385 198.63 339.422 199.444C338.474 200.244 337.378 200.644 336.133 200.644V199.067C337.156 199.052 338.044 198.659 338.8 197.889C339.57 197.119 340.156 196.052 340.556 194.689C340.97 193.311 341.178 191.726 341.178 189.933V186.889H336.133V185.356H342.756V189.089H345.756V184.778H347.267ZM345.756 190.667H342.733C342.659 192.059 342.481 193.333 342.2 194.489H345.756V190.667ZM367.909 191H370.264V192.467H367.909V194.889H366.309V184.689H367.909V186.756H370.264V188.244H367.909V191ZM358.375 194.311C357.368 194.311 356.487 194.111 355.731 193.711C354.975 193.296 354.39 192.733 353.975 192.022C353.575 191.296 353.375 190.489 353.375 189.6C353.375 188.711 353.575 187.911 353.975 187.2C354.39 186.474 354.975 185.911 355.731 185.511C356.487 185.096 357.368 184.889 358.375 184.889C359.383 184.889 360.257 185.096 360.998 185.511C361.753 185.911 362.331 186.467 362.731 187.178C363.146 187.889 363.353 188.696 363.353 189.6C363.353 190.504 363.146 191.311 362.731 192.022C362.331 192.733 361.753 193.296 360.998 193.711C360.257 194.111 359.383 194.311 358.375 194.311ZM358.375 186.311C357.368 186.311 356.553 186.607 355.931 187.2C355.309 187.793 354.998 188.593 354.998 189.6C354.998 190.607 355.309 191.407 355.931 192C356.553 192.593 357.368 192.889 358.375 192.889C359.383 192.889 360.198 192.593 360.82 192C361.442 191.393 361.753 190.593 361.753 189.6C361.753 188.607 361.442 187.815 360.82 187.222C360.198 186.615 359.383 186.311 358.375 186.311ZM367.909 195.889V201.711H366.287V197.378H354.509V195.889H367.909ZM390.39 201.756H388.79V184.689H390.39V201.756ZM381.79 199.111C384.397 199.111 386.249 198.867 387.345 198.378V199.956C386.205 200.444 384.36 200.689 381.812 200.689H375.301V199.111H380.057V195.378C378.812 195.215 377.805 194.667 377.034 193.733C376.264 192.785 375.879 191.63 375.879 190.267C375.879 189.274 376.094 188.385 376.523 187.6C376.953 186.815 377.545 186.2 378.301 185.756C379.057 185.311 379.916 185.089 380.879 185.089C381.827 185.089 382.671 185.311 383.412 185.756C384.168 186.2 384.76 186.815 385.19 187.6C385.619 188.385 385.834 189.274 385.834 190.267C385.834 191.17 385.657 191.993 385.301 192.733C384.945 193.474 384.449 194.074 383.812 194.533C383.19 194.993 382.471 195.274 381.657 195.378V199.111H381.79ZM380.879 186.622C379.857 186.622 379.027 186.97 378.39 187.667C377.768 188.348 377.457 189.215 377.457 190.267C377.457 191.333 377.768 192.215 378.39 192.911C379.027 193.607 379.857 193.956 380.879 193.956C381.886 193.956 382.701 193.607 383.323 192.911C383.96 192.215 384.279 191.333 384.279 190.267C384.279 189.215 383.96 188.348 383.323 187.667C382.701 186.97 381.886 186.622 380.879 186.622ZM398.249 191.222V189.867H401.226V186.289H398.426V184.933H412.338V186.289H409.538V189.867H412.493V191.222H398.249ZM407.938 189.867V186.289H402.826V189.867H407.938ZM406.182 196.2H412.293V201.511H398.471V196.2H404.582V194.244H397.293V192.889H413.471V194.244H406.182V196.2ZM400.071 197.533V200.178H410.715V197.533H400.071ZM431.069 194.733H414.891V193.333H422.18V191.311H416.113V184.933H429.869V191.311H423.78V193.333H431.069V194.733ZM428.269 189.933V186.333H417.691V189.933H428.269ZM429.891 196.6V201.733H428.291V198H415.913V196.6H429.891ZM437.861 194.911V185.356H444.372V186.911H439.461V193.356H444.372V194.911H437.861ZM445.394 194.911V185.356H451.95V186.911H446.994V193.356H452.083V194.911H445.394ZM453.061 200.889H436.883V199.333H444.172V195.822H445.772V199.333H453.061V200.889ZM469.636 189.778V191.244H455.703V184.711H457.303V189.778H469.636ZM454.481 194.8V193.356H470.658V194.8H454.481ZM469.792 200.044V201.511H455.658V196.467H457.281V200.044H469.792ZM491.073 189.378V193.378H489.473V184.689H491.073V187.778H493.428V189.378H491.073ZM488.184 191.889C487.665 192.141 486.925 192.333 485.962 192.467C484.999 192.6 483.91 192.667 482.695 192.667H477.095V185.044H478.717V191.222H482.784C483.969 191.222 485.028 191.156 485.962 191.022C486.91 190.874 487.651 190.674 488.184 190.422V191.889ZM491.073 194.156V201.489H477.628V194.156H479.228V196.333H489.495V194.156H491.073ZM489.495 197.733H479.228V200.067H489.495V197.733ZM495.026 191.222V189.867H498.004V186.289H495.204V184.933H509.115V186.289H506.315V189.867H509.27V191.222H495.026ZM504.715 189.867V186.289H499.604V189.867H504.715ZM502.959 196.2H509.07V201.511H495.248V196.2H501.359V194.244H494.07V192.889H510.248V194.244H502.959V196.2ZM496.848 197.533V200.178H507.493V197.533H496.848ZM523.929 189.333C523.026 190.667 521.907 191.726 520.574 192.511C519.24 193.296 517.863 193.689 516.44 193.689V192.089C517.596 192.104 518.722 191.778 519.818 191.111C520.915 190.43 521.848 189.511 522.618 188.356C523.389 187.2 523.892 185.941 524.129 184.578L525.774 184.867C525.581 185.874 525.226 186.926 524.707 188.022L531.752 192.289L530.996 193.667L523.929 189.333ZM524.952 197.178V202.156H523.329V197.178H516.063V195.622H532.24V197.178H524.952ZM548.26 190.956H550.616V192.4H548.26V194.867H546.66V184.689H548.26V186.756H550.616V188.2H548.26V190.956ZM542.083 186.511H534.238V185.156H543.66V190.222H535.883V192.644H539.971C541.157 192.644 542.216 192.578 543.149 192.444C544.097 192.296 544.838 192.096 545.371 191.844V193.222C544.853 193.474 544.112 193.674 543.149 193.822C542.186 193.956 541.097 194.022 539.883 194.022H534.283V188.933H542.083V186.511ZM541.638 195.467C543.727 195.467 545.394 195.719 546.638 196.222C547.883 196.711 548.505 197.504 548.505 198.6C548.505 199.696 547.883 200.489 546.638 200.978C545.394 201.467 543.727 201.711 541.638 201.711C539.549 201.711 537.883 201.467 536.638 200.978C535.394 200.489 534.771 199.696 534.771 198.6C534.771 197.504 535.394 196.711 536.638 196.222C537.883 195.719 539.549 195.467 541.638 195.467ZM541.638 200.356C543.179 200.356 544.423 200.215 545.371 199.933C546.334 199.637 546.816 199.193 546.816 198.6C546.816 197.993 546.342 197.548 545.394 197.267C544.446 196.985 543.194 196.844 541.638 196.844C540.083 196.844 538.831 196.985 537.883 197.267C536.934 197.548 536.46 197.993 536.46 198.6C536.46 199.193 536.934 199.637 537.883 199.933C538.846 200.215 540.097 200.356 541.638 200.356ZM563.453 190.889C562.638 192.133 561.593 193.119 560.319 193.844C559.045 194.556 557.653 194.97 556.141 195.089V193.533C557.949 193.356 559.49 192.696 560.764 191.556C562.053 190.4 562.897 188.852 563.297 186.911H556.519V185.378H570.897V186.911H564.986C564.823 187.919 564.564 188.793 564.208 189.533L571.408 193.844L570.63 195.222L563.453 190.889ZM571.83 200.889H555.653V199.311H562.919V194.756H564.519V199.311H571.83V200.889ZM586.828 184.689H588.428V194.289H586.828V189.489H583.495V188.022H586.828V184.689ZM578.917 190.2C578.384 191.178 577.658 191.978 576.739 192.6C575.821 193.207 574.769 193.585 573.584 193.733V192.222C574.976 192 576.08 191.4 576.895 190.422C577.724 189.43 578.198 188.163 578.317 186.622H573.784V185.178H584.161V186.622H579.939C579.895 187.437 579.761 188.178 579.539 188.844L584.695 192.311L583.872 193.578L578.917 190.2ZM581.628 194.911C583.717 194.911 585.391 195.193 586.65 195.756C587.924 196.304 588.561 197.156 588.561 198.311C588.561 199.467 587.924 200.326 586.65 200.889C585.391 201.437 583.717 201.711 581.628 201.711C579.539 201.711 577.865 201.437 576.606 200.889C575.346 200.326 574.717 199.467 574.717 198.311C574.717 197.156 575.346 196.304 576.606 195.756C577.865 195.193 579.539 194.911 581.628 194.911ZM581.628 200.311C583.184 200.311 584.443 200.141 585.406 199.8C586.384 199.459 586.872 198.963 586.872 198.311C586.872 197.659 586.384 197.163 585.406 196.822C584.428 196.481 583.169 196.311 581.628 196.311C580.087 196.311 578.828 196.481 577.85 196.822C576.887 197.163 576.406 197.659 576.406 198.311C576.406 198.963 576.887 199.459 577.85 199.8C578.828 200.141 580.087 200.311 581.628 200.311ZM604.292 201.756V184.689H605.914V201.756H604.292ZM596.47 185.133C597.952 185.133 599.129 185.8 600.003 187.133C600.892 188.467 601.337 190.43 601.337 193.022C601.337 195.615 600.892 197.578 600.003 198.911C599.129 200.244 597.952 200.911 596.47 200.911C594.989 200.911 593.803 200.244 592.914 198.911C592.04 197.578 591.603 195.615 591.603 193.022C591.603 190.43 592.04 188.467 592.914 187.133C593.803 185.8 594.989 185.133 596.47 185.133ZM596.47 186.667C595.477 186.667 594.685 187.2 594.092 188.267C593.5 189.319 593.203 190.904 593.203 193.022C593.203 195.156 593.5 196.748 594.092 197.8C594.685 198.852 595.477 199.378 596.47 199.378C597.433 199.378 598.218 198.852 598.826 197.8C599.433 196.733 599.737 195.141 599.737 193.022C599.737 190.919 599.433 189.333 598.826 188.267C598.218 187.2 597.433 186.667 596.47 186.667ZM626.284 193.289V184.689H627.907V193.289H626.284ZM625.018 191.756C624.499 192.007 623.766 192.207 622.818 192.356C621.884 192.489 620.796 192.556 619.551 192.556H613.04V191.2H615.262V186.511H613.084V185.156H624.284V186.511H622.084V191.089C623.314 190.956 624.292 190.711 625.018 190.356V191.756ZM618.862 191.2C619.633 191.2 620.196 191.185 620.551 191.156V186.511H616.796V191.2H618.862ZM628.351 201.489H614.284V197.311H626.307V195.578H614.262V194.289H627.907V198.467H615.884V200.222H628.351V201.489ZM646.615 200.889H630.438V199.333H634.282V194.467C633.319 194.037 632.578 193.459 632.06 192.733C631.541 191.993 631.282 191.141 631.282 190.178C631.282 189.141 631.578 188.237 632.171 187.467C632.764 186.696 633.608 186.104 634.704 185.689C635.801 185.259 637.075 185.044 638.527 185.044C639.978 185.044 641.252 185.259 642.349 185.689C643.445 186.104 644.29 186.696 644.882 187.467C645.475 188.237 645.771 189.141 645.771 190.178C645.771 191.141 645.512 191.993 644.993 192.733C644.475 193.459 643.734 194.037 642.771 194.467V199.333H646.615V200.889ZM638.527 186.578C637.415 186.578 636.438 186.726 635.593 187.022C634.749 187.319 634.097 187.741 633.638 188.289C633.178 188.837 632.949 189.467 632.949 190.178C632.949 190.889 633.178 191.519 633.638 192.067C634.097 192.615 634.749 193.037 635.593 193.333C636.438 193.63 637.415 193.778 638.527 193.778C639.638 193.778 640.615 193.63 641.46 193.333C642.304 193.037 642.956 192.615 643.415 192.067C643.875 191.519 644.104 190.889 644.104 190.178C644.104 189.467 643.875 188.837 643.415 188.289C642.956 187.741 642.304 187.319 641.46 187.022C640.615 186.726 639.638 186.578 638.527 186.578ZM641.171 199.333V195.022C640.327 195.215 639.445 195.311 638.527 195.311C637.534 195.311 636.652 195.215 635.882 195.022V199.333H641.171ZM648.013 187.8V186.4H652.702V184.378H654.324V186.4H659.013V187.8H648.013ZM664.991 191.111H662.635V197.489H661.035V184.689H662.635V189.511H664.991V191.111ZM653.524 195.844C652.132 195.844 650.983 195.533 650.08 194.911C649.191 194.289 648.746 193.437 648.746 192.356C648.746 191.274 649.191 190.422 650.08 189.8C650.983 189.178 652.132 188.867 653.524 188.867C654.917 188.867 656.058 189.178 656.946 189.8C657.835 190.422 658.28 191.274 658.28 192.356C658.28 193.437 657.835 194.289 656.946 194.911C656.058 195.533 654.917 195.844 653.524 195.844ZM653.524 190.178C652.546 190.178 651.761 190.385 651.169 190.8C650.591 191.2 650.302 191.719 650.302 192.356C650.302 192.993 650.591 193.519 651.169 193.933C651.761 194.333 652.546 194.533 653.524 194.533C654.487 194.533 655.258 194.333 655.835 193.933C656.428 193.519 656.724 192.993 656.724 192.356C656.724 191.719 656.428 191.2 655.835 190.8C655.258 190.385 654.487 190.178 653.524 190.178ZM663.124 200V201.489H649.191V196.933H650.813V200H663.124ZM679.939 192.111V190.622H683.628V188.111H680.561V186.622H683.628V184.689H685.205V194.133H683.628V192.111H679.939ZM679.761 186.911C679.761 189.148 678.961 190.815 677.361 191.911C675.761 192.993 673.502 193.533 670.583 193.533V192.044C672.998 192.03 674.865 191.622 676.183 190.822C677.502 190.007 678.161 188.785 678.161 187.156V186.6H670.583V185.156H679.761V186.911ZM678.472 194.756C680.546 194.756 682.228 195.037 683.516 195.6C684.805 196.163 685.45 197.044 685.45 198.244C685.45 199.444 684.805 200.326 683.516 200.889C682.228 201.437 680.546 201.711 678.472 201.711C676.398 201.711 674.709 201.437 673.405 200.889C672.116 200.326 671.472 199.444 671.472 198.244C671.472 197.044 672.116 196.163 673.405 195.6C674.694 195.037 676.383 194.756 678.472 194.756ZM678.472 200.311C680.013 200.311 681.279 200.141 682.272 199.8C683.279 199.444 683.783 198.926 683.783 198.244C683.783 197.548 683.279 197.03 682.272 196.689C681.279 196.333 680.013 196.156 678.472 196.156C676.931 196.156 675.657 196.333 674.65 196.689C673.657 197.03 673.161 197.548 673.161 198.244C673.161 198.926 673.657 199.444 674.65 199.8C675.657 200.141 676.931 200.311 678.472 200.311ZM695.714 193.911C694.277 193.911 693.018 193.733 691.936 193.378C690.855 193.022 690.018 192.504 689.425 191.822C688.833 191.141 688.536 190.333 688.536 189.4C688.536 188.467 688.833 187.659 689.425 186.978C690.018 186.296 690.855 185.778 691.936 185.422C693.018 185.067 694.277 184.889 695.714 184.889C697.151 184.889 698.403 185.067 699.47 185.422C700.551 185.778 701.388 186.296 701.981 186.978C702.573 187.659 702.87 188.467 702.87 189.4C702.87 190.333 702.573 191.141 701.981 191.822C701.388 192.504 700.551 193.022 699.47 193.378C698.403 193.733 697.151 193.911 695.714 193.911ZM695.714 186.422C694.055 186.422 692.721 186.681 691.714 187.2C690.721 187.719 690.225 188.452 690.225 189.4C690.225 190.333 690.721 191.067 691.714 191.6C692.721 192.119 694.055 192.378 695.714 192.378C697.359 192.378 698.684 192.119 699.692 191.6C700.699 191.067 701.203 190.333 701.203 189.4C701.203 188.452 700.699 187.719 699.692 187.2C698.699 186.681 697.373 186.422 695.714 186.422ZM696.514 197.178V202.156H694.892V197.178H687.625V195.622H703.803V197.178H696.514ZM351.073 214.556H353.428V216H351.073V218.133H349.473V208.689H351.073V210.444H353.428V211.911H351.073V214.556ZM341.562 217.511C340.554 217.511 339.673 217.333 338.917 216.978C338.177 216.607 337.599 216.096 337.184 215.444C336.784 214.793 336.584 214.044 336.584 213.2C336.584 212.356 336.784 211.607 337.184 210.956C337.599 210.304 338.177 209.8 338.917 209.444C339.673 209.074 340.554 208.889 341.562 208.889C342.569 208.889 343.443 209.074 344.184 209.444C344.939 209.8 345.517 210.304 345.917 210.956C346.317 211.607 346.517 212.356 346.517 213.2C346.517 214.044 346.317 214.793 345.917 215.444C345.517 216.096 344.939 216.607 344.184 216.978C343.443 217.333 342.569 217.511 341.562 217.511ZM341.562 210.289C340.539 210.289 339.717 210.548 339.095 211.067C338.488 211.585 338.184 212.296 338.184 213.2C338.184 214.104 338.488 214.815 339.095 215.333C339.717 215.852 340.539 216.111 341.562 216.111C342.569 216.111 343.377 215.852 343.984 215.333C344.606 214.815 344.917 214.104 344.917 213.2C344.917 212.296 344.606 211.585 343.984 211.067C343.377 210.548 342.569 210.289 341.562 210.289ZM344.539 218.756C346.569 218.756 348.206 219.044 349.451 219.622C350.695 220.2 351.317 221.074 351.317 222.244C351.317 223.415 350.695 224.289 349.451 224.867C348.206 225.43 346.569 225.711 344.539 225.711C342.525 225.711 340.888 225.43 339.628 224.867C338.384 224.289 337.762 223.415 337.762 222.244C337.762 221.074 338.384 220.2 339.628 219.622C340.888 219.044 342.525 218.756 344.539 218.756ZM344.539 224.311C346.036 224.311 347.258 224.133 348.206 223.778C349.154 223.422 349.628 222.911 349.628 222.244C349.628 221.563 349.154 221.044 348.206 220.689C347.258 220.333 346.036 220.156 344.539 220.156C343.043 220.156 341.821 220.333 340.873 220.689C339.925 221.044 339.451 221.563 339.451 222.244C339.451 222.911 339.925 223.422 340.873 223.778C341.821 224.133 343.043 224.311 344.539 224.311ZM368.67 217.356V225.756H367.07V208.689H368.67V215.756H371.026V217.356H368.67ZM360.959 209.178C360.93 211.963 360.715 214.348 360.315 216.333L365.537 223.689L364.226 224.644L359.782 218.311C359.233 220.222 358.485 221.733 357.537 222.844C356.589 223.941 355.493 224.556 354.248 224.689V223.022C355.33 222.83 356.248 222.096 357.004 220.822C357.774 219.548 358.352 217.896 358.737 215.867C359.122 213.837 359.322 211.593 359.337 209.133L360.959 209.178ZM393.018 214.489H390.663V221.378H389.063V208.689H390.663V212.889H393.018V214.489ZM385.796 211.378C385.796 213.733 384.959 215.533 383.285 216.778C381.626 218.022 379.374 218.644 376.529 218.644V217.111C378.915 217.111 380.789 216.63 382.152 215.667C383.515 214.704 384.196 213.333 384.196 211.556V210.644H376.529V209.156H385.796V211.378ZM391.152 223.956V225.489H377.218V220.244H378.84V223.956H391.152ZM398.033 211.533V210.2H402.722V208.378H404.344V210.2H409.033V211.533H398.033ZM412.655 213.956V218.422H411.055V208.689H412.655V212.4H415.01V213.956H412.655ZM403.544 218.489C402.166 218.489 401.033 218.215 400.144 217.667C399.255 217.119 398.81 216.393 398.81 215.489C398.81 214.585 399.255 213.859 400.144 213.311C401.033 212.763 402.166 212.489 403.544 212.489C404.433 212.489 405.233 212.615 405.944 212.867C406.67 213.104 407.233 213.452 407.633 213.911C408.047 214.356 408.255 214.881 408.255 215.489C408.255 216.096 408.047 216.63 407.633 217.089C407.233 217.533 406.67 217.881 405.944 218.133C405.233 218.37 404.433 218.489 403.544 218.489ZM403.544 213.756C402.581 213.756 401.803 213.919 401.21 214.244C400.633 214.57 400.344 214.985 400.344 215.489C400.344 215.993 400.633 216.407 401.21 216.733C401.803 217.059 402.581 217.222 403.544 217.222C404.507 217.222 405.277 217.059 405.855 216.733C406.433 216.407 406.722 215.993 406.722 215.489C406.722 214.985 406.433 214.57 405.855 214.244C405.277 213.919 404.507 213.756 403.544 213.756ZM412.655 219.178V225.489H399.21V219.178H400.788V220.911H411.077V219.178H412.655ZM411.077 222.2H400.788V224.156H411.077V222.2ZM429.164 225.756V208.689H430.741V225.756H429.164ZM421.23 209.089C422.178 209.089 423.03 209.319 423.786 209.778C424.541 210.222 425.127 210.852 425.541 211.667C425.971 212.481 426.186 213.407 426.186 214.444C426.186 215.467 425.971 216.385 425.541 217.2C425.112 218.015 424.519 218.652 423.764 219.111C423.023 219.556 422.178 219.778 421.23 219.778C420.267 219.778 419.408 219.556 418.653 219.111C417.897 218.652 417.304 218.022 416.875 217.222C416.445 216.407 416.23 215.481 416.23 214.444C416.23 213.407 416.445 212.481 416.875 211.667C417.304 210.852 417.897 210.222 418.653 209.778C419.408 209.319 420.267 209.089 421.23 209.089ZM421.23 210.622C420.208 210.622 419.378 210.985 418.741 211.711C418.119 212.422 417.808 213.333 417.808 214.444C417.808 215.541 418.119 216.452 418.741 217.178C419.378 217.889 420.208 218.244 421.23 218.244C422.238 218.244 423.053 217.889 423.675 217.178C424.312 216.452 424.63 215.541 424.63 214.444C424.63 213.348 424.312 212.437 423.675 211.711C423.053 210.985 422.238 210.622 421.23 210.622ZM427.697 223.867C427.164 224.133 426.401 224.341 425.408 224.489C424.415 224.622 423.29 224.689 422.03 224.689H415.653V223.111H422.141C423.356 223.111 424.445 223.044 425.408 222.911C426.386 222.763 427.149 222.556 427.697 222.289V223.867ZM448.556 211.467V213H438.022V211.467H442.467V208.644H444.089V211.467H448.556ZM452.245 217.356V225.756H450.645V208.689H452.245V215.756H454.6V217.356H452.245ZM443.289 214.511C444.134 214.511 444.897 214.726 445.578 215.156C446.26 215.585 446.793 216.193 447.178 216.978C447.563 217.763 447.756 218.667 447.756 219.689C447.756 220.711 447.563 221.622 447.178 222.422C446.793 223.207 446.26 223.815 445.578 224.244C444.897 224.674 444.134 224.889 443.289 224.889C442.43 224.889 441.66 224.674 440.978 224.244C440.297 223.815 439.763 223.207 439.378 222.422C438.993 221.622 438.8 220.711 438.8 219.689C438.8 218.667 438.993 217.763 439.378 216.978C439.763 216.193 440.297 215.585 440.978 215.156C441.66 214.726 442.43 214.511 443.289 214.511ZM443.289 223.4C443.822 223.4 444.304 223.252 444.734 222.956C445.178 222.644 445.526 222.207 445.778 221.644C446.045 221.081 446.178 220.43 446.178 219.689C446.178 218.948 446.045 218.296 445.778 217.733C445.526 217.17 445.178 216.741 444.734 216.444C444.304 216.133 443.822 215.978 443.289 215.978C442.741 215.978 442.245 216.133 441.8 216.444C441.371 216.741 441.022 217.17 440.756 217.733C440.504 218.296 440.378 218.948 440.378 219.689C440.378 220.43 440.504 221.081 440.756 221.644C441.022 222.207 441.371 222.644 441.8 222.956C442.245 223.252 442.741 223.4 443.289 223.4ZM470.392 216.644V215.133H473.237V212.244H470.392V210.756H473.237V208.689H474.815V221.378H473.237V216.644H470.392ZM460.37 218.533V209.022H461.926V212.111H467.97V209.022H469.526V218.533H460.37ZM467.97 213.556H461.926V217.089H467.97V213.556ZM475.192 225.489H461.148V220.133H462.77V223.956H475.192V225.489ZM487.146 216.111V214.622H490.835V212.111H487.768V210.622H490.835V208.689H492.412V218.133H490.835V216.111H487.146ZM486.968 210.911C486.968 213.148 486.168 214.815 484.568 215.911C482.968 216.993 480.709 217.533 477.79 217.533V216.044C480.205 216.03 482.072 215.622 483.39 214.822C484.709 214.007 485.368 212.785 485.368 211.156V210.6H477.79V209.156H486.968V210.911ZM485.679 218.756C487.753 218.756 489.435 219.037 490.723 219.6C492.012 220.163 492.657 221.044 492.657 222.244C492.657 223.444 492.012 224.326 490.723 224.889C489.435 225.437 487.753 225.711 485.679 225.711C483.605 225.711 481.916 225.437 480.612 224.889C479.323 224.326 478.679 223.444 478.679 222.244C478.679 221.044 479.323 220.163 480.612 219.6C481.901 219.037 483.59 218.756 485.679 218.756ZM485.679 224.311C487.22 224.311 488.486 224.141 489.479 223.8C490.486 223.444 490.99 222.926 490.99 222.244C490.99 221.548 490.486 221.03 489.479 220.689C488.486 220.333 487.22 220.156 485.679 220.156C484.138 220.156 482.864 220.333 481.857 220.689C480.864 221.03 480.368 221.548 480.368 222.244C480.368 222.926 480.864 223.444 481.857 223.8C482.864 224.141 484.138 224.311 485.679 224.311ZM514.738 225.756H513.205V208.689H514.738V225.756ZM510.782 208.778V225.467H509.271V220.044H505.227C504.664 221.496 503.901 222.63 502.938 223.444C501.99 224.244 500.893 224.644 499.649 224.644V223.067C500.671 223.052 501.56 222.659 502.316 221.889C503.086 221.119 503.671 220.052 504.071 218.689C504.486 217.311 504.693 215.726 504.693 213.933V210.889H499.649V209.356H506.271V213.089H509.271V208.778H510.782ZM509.271 214.667H506.249C506.175 216.059 505.997 217.333 505.716 218.489H509.271V214.667ZM531.424 215H533.78V216.467H531.424V218.889H529.824V208.689H531.424V210.756H533.78V212.244H531.424V215ZM521.891 218.311C520.884 218.311 520.002 218.111 519.247 217.711C518.491 217.296 517.906 216.733 517.491 216.022C517.091 215.296 516.891 214.489 516.891 213.6C516.891 212.711 517.091 211.911 517.491 211.2C517.906 210.474 518.491 209.911 519.247 209.511C520.002 209.096 520.884 208.889 521.891 208.889C522.898 208.889 523.773 209.096 524.513 209.511C525.269 209.911 525.847 210.467 526.247 211.178C526.661 211.889 526.869 212.696 526.869 213.6C526.869 214.504 526.661 215.311 526.247 216.022C525.847 216.733 525.269 217.296 524.513 217.711C523.773 218.111 522.898 218.311 521.891 218.311ZM521.891 210.311C520.884 210.311 520.069 210.607 519.447 211.2C518.824 211.793 518.513 212.593 518.513 213.6C518.513 214.607 518.824 215.407 519.447 216C520.069 216.593 520.884 216.889 521.891 216.889C522.898 216.889 523.713 216.593 524.336 216C524.958 215.393 525.269 214.593 525.269 213.6C525.269 212.607 524.958 211.815 524.336 211.222C523.713 210.615 522.898 210.311 521.891 210.311ZM531.424 219.889V225.711H529.802V221.378H518.024V219.889H531.424ZM543.75 212.867C543.735 214.23 543.654 215.541 543.505 216.8L547.461 223.733L546.194 224.511L543.083 218.978C542.728 220.667 542.202 221.993 541.505 222.956C540.809 223.919 539.95 224.496 538.928 224.689V223.089C539.994 222.807 540.794 221.77 541.328 219.978C541.876 218.185 542.165 215.815 542.194 212.867H539.083V211.356H542.194V208.644H543.75V211.356H546.817V212.867H543.75ZM554.328 225.756H552.794V208.689H554.328V225.756ZM550.083 208.778V225.467H548.572V217.267H546.194V215.689H548.572V208.778H550.083ZM566.325 215.6V214.178H570.014V211.933H566.948V210.489H570.014V208.689H571.592V217.089H570.014V215.6H566.325ZM566.148 210.8C566.148 212.874 565.348 214.385 563.748 215.333C562.162 216.267 559.903 216.733 556.97 216.733V215.311C559.399 215.296 561.266 214.941 562.57 214.244C563.888 213.548 564.548 212.474 564.548 211.022V210.578H556.97V209.156H566.148V210.8ZM572.036 225.489H557.992V221.2H569.992V219.378H557.948V218.089H571.592V222.4H559.614V224.2H572.036V225.489Z" fill="#333333"/>
<path d="M137.196 204.604V69.473C137.196 66.5721 139.371 64.3965 142.272 64.3965H209.717C212.376 64.3965 214.551 66.5721 214.551 69.473V204.604C214.551 207.263 212.376 209.68 209.475 209.68H142.272C139.613 209.68 137.196 207.505 137.196 204.604Z" fill="#7AD7EE"/>
<path d="M137.196 204.483C177.438 182.093 200.934 134.333 209.717 64.2756C212.376 64.2756 214.551 66.4513 214.551 69.3521V204.483C214.551 207.142 212.376 209.56 209.475 209.56H142.272C139.613 209.56 137.196 207.384 137.196 204.483Z" fill="#4BC3EF"/>
<path d="M156.534 64.3965V69.473C156.534 71.8903 158.71 74.066 161.127 74.066H190.378C193.037 74.066 195.212 71.8903 195.212 69.473V64.3965H156.534Z" fill="#615260"/>
<path d="M175.873 170.761H88.7852C85.749 170.761 83.2881 168.3 83.2881 165.264V107.909C83.2881 105.25 85.4637 103.074 88.1228 103.074H175.873V170.761Z" fill="#3EC2A3"/>
<path d="M175.873 161.091H93.6829V117.579C96.342 117.579 98.5176 115.403 98.5176 112.744H175.873V161.091Z" fill="#4CE1A1"/>
<path d="M175.873 151.422C167.896 151.422 161.369 144.895 161.369 136.918C161.369 128.94 167.896 122.413 175.873 122.413V151.422Z" fill="#3EC2A3"/>
<path d="M117.857 199.769V194.935L120.032 185.99C121.241 182.364 121.966 178.496 121.966 174.629V139.335C121.966 135.225 118.824 132.083 114.714 132.083C110.604 132.083 107.462 135.225 107.462 139.335V154.806C107.462 157.465 104.561 159.157 102.144 157.949L83.2882 146.587V112.744L70.9596 141.269C69.5092 144.653 69.0257 148.521 69.7509 152.147L79.1787 194.935V199.769H117.857Z" fill="#FFD18D"/>
<path d="M117.857 199.769V194.935L120.032 185.99C121.241 182.364 121.966 178.497 121.966 174.629V139.335C121.966 135.226 118.824 132.083 114.714 132.083C110.605 132.083 107.462 135.226 107.462 139.335V154.806C107.462 157.465 104.561 159.158 102.144 157.949C104.099 181.891 94.9883 192.459 79.1787 194.935V199.769H117.857Z" fill="#FBBD80"/>
<path d="M76.7614 209.439H120.274C121.483 209.439 122.691 208.472 122.691 207.021V202.187C122.691 200.978 121.724 199.769 120.274 199.769H76.7614C75.5527 199.769 74.344 200.736 74.344 202.187V207.021C74.344 208.472 75.3109 209.439 76.7614 209.439Z" fill="#615260"/>
<path d="M74.344 202.307C102.448 205.631 118.819 200.489 120.274 209.559C121.483 209.559 122.691 208.592 122.691 207.142V202.307C122.691 201.099 121.724 199.89 120.274 199.89H76.7614C75.5527 199.89 74.344 200.857 74.344 202.307Z" fill="#453744"/>
<path d="M139.621 139.447C140.957 139.447 142.039 138.366 142.039 137.032C142.039 135.698 140.957 134.616 139.621 134.616C138.285 134.616 137.203 135.698 137.203 137.032C137.203 138.366 138.285 139.447 139.621 139.447Z" fill="black"/>
<path d="M214.606 177.942C213.155 177.942 212.187 178.908 212.187 180.357V204.512C212.187 205.72 211.22 207.169 209.527 207.169H142.298C141.089 207.169 139.638 206.203 139.638 204.512V180.357C139.638 178.908 138.67 177.942 137.219 177.942C135.768 177.942 134.801 178.908 134.801 180.357V204.512C134.801 208.618 138.187 212 142.298 212H209.527C213.638 212 217.024 208.618 217.024 204.512V180.357C217.024 178.908 216.057 177.942 214.606 177.942Z" fill="black"/>
<path d="M214.606 163.449C213.155 163.449 212.187 164.416 212.187 165.865V170.696C212.187 172.145 213.155 173.111 214.606 173.111C216.057 173.111 217.024 172.145 217.024 170.696V165.865C217.024 164.657 216.057 163.449 214.606 163.449Z" fill="black"/>
<path d="M209.769 62H173.252C171.801 62 170.834 62.9662 170.834 64.4155C170.834 65.8647 171.801 66.8309 173.252 66.8309H192.841V69.4879C192.841 70.4541 191.873 71.6618 190.422 71.6618H161.161C160.193 71.6618 158.984 70.4541 158.984 69.4879V66.8309H165.03C166.481 66.8309 167.448 65.8647 167.448 64.4155C167.448 62.9662 166.481 62 165.03 62H142.298C138.187 62 134.801 65.3816 134.801 69.4879V93.401C134.801 94.8502 135.768 95.8164 137.219 95.8164C138.67 95.8164 139.638 94.8502 139.638 93.401V69.4879C139.638 68.0386 140.847 66.8309 142.298 66.8309H154.148V69.4879C154.148 73.1111 157.533 76.4928 161.161 76.4928H190.422C194.292 76.4928 197.677 73.3527 197.677 69.4879V66.8309H209.769C211.22 66.8309 212.187 68.0386 212.187 69.4879V156.203C212.187 157.652 213.155 158.618 214.606 158.618C216.057 158.618 217.024 157.652 217.024 156.203V69.4879C217.024 65.3816 213.88 62 209.769 62Z" fill="black"/>
<path d="M120.291 197.266V195.092L122.226 186.638C123.677 182.532 124.402 178.425 124.402 174.561V173.111H168.657C170.108 173.111 171.076 172.145 171.076 170.696C171.076 169.246 170.108 168.28 168.657 168.28H124.402V163.449H168.657C170.108 163.449 171.076 162.483 171.076 161.034C171.076 159.585 170.108 158.618 168.657 158.618H124.402V139.295C124.402 133.981 120.049 129.633 114.729 129.633C109.409 129.633 105.056 133.981 105.056 139.295V154.754C105.056 155.961 103.847 155.961 103.363 155.72L96.1079 151.372V132.773C96.1079 131.324 95.1406 130.358 93.6896 130.358C92.2386 130.358 91.2712 131.324 91.2712 132.773V148.474L85.7091 145.092V107.894C85.7091 106.445 86.6764 105.478 88.1274 105.478H168.657C170.108 105.478 171.076 104.512 171.076 103.063C171.076 101.614 170.108 100.647 168.657 100.647H88.1274C84.0163 100.647 80.8725 103.788 80.8725 107.894V112.242L68.7809 140.261C67.0881 144.126 66.6044 148.474 67.3299 152.58L69.2645 161.517C69.5064 162.725 70.9574 163.691 72.1665 163.449C73.3757 163.208 74.343 161.759 74.1012 160.551L72.1665 151.614C71.441 148.474 71.9247 145.092 73.1339 142.193L80.8725 124.319V146.541C80.8725 147.507 81.3561 148.232 82.0816 148.715L101.186 160.068C103.121 161.034 105.297 161.034 107.232 159.826C108.925 158.618 110.134 156.928 110.134 154.754V139.295C110.134 136.638 112.311 134.464 114.971 134.464C117.631 134.464 119.807 136.638 119.807 139.295V174.561C119.807 177.942 119.082 181.565 117.873 185.43L115.696 194.85V197.266H81.598V194.85C81.598 194.609 76.2777 170.213 76.2777 170.213C76.0358 169.005 74.5848 168.039 73.3757 168.28C72.1665 168.522 71.1992 169.971 71.441 171.179L76.7613 195.092V197.266C74.1012 197.266 71.9247 199.44 71.9247 202.097V206.928C71.9247 209.826 73.8594 211.759 76.7613 211.759H83.2908C84.7418 211.759 85.7091 210.792 85.7091 209.343C85.7091 207.894 84.7418 206.928 83.2908 206.928H76.7613V202.097H120.291V206.928H93.6896C92.2386 206.928 91.2712 207.894 91.2712 209.343C91.2712 210.792 92.2386 211.759 93.6896 211.759H120.291C122.951 211.759 125.128 209.585 125.128 206.928V202.097C125.128 199.44 122.951 197.266 120.291 197.266Z" fill="black"/>
<path d="M178.331 180.357V93.4008C178.331 91.9515 177.363 90.9854 175.912 90.9854C174.461 90.9854 173.494 91.9515 173.494 93.4008V180.357C173.494 181.807 174.461 182.773 175.912 182.773C177.363 182.773 178.331 181.807 178.331 180.357Z" fill="black"/>
<path d="M168.657 110.309H98.5262C97.0752 110.309 96.1079 111.276 96.1079 112.725C96.1079 114.174 95.1406 115.14 93.6896 115.14C92.2386 115.14 91.2712 116.106 91.2712 117.556V122.628C91.2712 124.077 92.2386 125.044 93.6896 125.044C95.1406 125.044 96.1079 124.077 96.1079 122.628V119.488C98.2844 118.763 99.7354 117.073 100.461 115.14H168.657C170.108 115.14 171.076 114.174 171.076 112.725C171.076 111.276 170.108 110.309 168.657 110.309Z" fill="black"/>
<path d="M169.867 126.493C171.076 125.768 171.318 124.319 170.834 123.111C170.108 121.903 168.657 121.662 167.448 122.145C162.128 125.285 158.984 130.841 158.984 136.879C158.984 142.918 162.128 148.473 167.448 151.613C167.932 151.855 169.625 152.338 170.834 150.647C171.559 149.44 171.076 147.99 169.867 147.266C166.239 145.092 163.821 141.227 163.821 136.879C163.821 132.531 166.239 128.667 169.867 126.493Z" fill="black"/>
</svg>
