<svg width="996" height="274" viewBox="0 0 996 274" fill="none" xmlns="http://www.w3.org/2000/svg">
<rect width="996" height="274" rx="30" fill="#EBEBEB"/>
<path d="M318.667 84.5467C316.024 84.5467 313.671 83.8937 311.606 82.5878C309.54 81.2819 307.916 79.3989 306.731 76.9389C305.577 74.4485 305 71.4874 305 68.0556C305 64.6237 305.577 61.6778 306.731 59.2178C307.916 56.7274 309.54 54.8293 311.606 53.5233C313.671 52.2174 316.024 51.5644 318.667 51.5644C321.309 51.5644 323.663 52.2174 325.728 53.5233C327.793 54.8293 329.403 56.7274 330.557 59.2178C331.741 61.6778 332.333 64.6237 332.333 68.0556C332.333 71.4874 331.741 74.4485 330.557 76.9389C329.403 79.3989 327.793 81.2819 325.728 82.5878C323.663 83.8937 321.309 84.5467 318.667 84.5467ZM318.667 78.3056C320.61 78.3056 322.129 77.4704 323.222 75.8C324.346 74.1296 324.908 71.5481 324.908 68.0556C324.908 64.563 324.346 61.9815 323.222 60.3111C322.129 58.6407 320.61 57.8056 318.667 57.8056C316.753 57.8056 315.235 58.6407 314.111 60.3111C313.018 61.9815 312.471 64.563 312.471 68.0556C312.471 71.5481 313.018 74.1296 314.111 75.8C315.235 77.4704 316.753 78.3056 318.667 78.3056ZM356.127 77.3033V84H348.929V77.3033H331.754V72.3378L346.788 52.1111H354.532L340.592 71.29H349.157V65.3222H356.127V71.29H361.32V77.3033H356.127Z" fill="#01A69F"/>
<path d="M401.138 63.09V69.5133H394.578V50.5622H401.138V56.3933H405.055V63.09H401.138ZM390.341 55.71C390.341 60.2959 388.549 63.6822 384.965 65.8689C381.412 68.0252 376.598 69.1033 370.524 69.1033V63.2722C374.503 63.2115 377.677 62.6496 380.045 61.5867C382.414 60.4933 383.599 59.0356 383.599 57.2133V56.7122H370.524V50.9722H390.341V55.71ZM401.138 70.7433V85.5489H371.754V70.7433H401.138ZM394.578 79.8544V76.4378H378.36V79.8544H394.578ZM428.33 68.0556V61.9511H431.837V59.2178H428.33V53.1133H431.837V50.5622H438.306V76.4833H431.837V68.0556H428.33ZM406.918 70.88V50.9722H426.735V70.88H406.918ZM413.387 56.8033V65.0033H420.266V56.8033H413.387ZM438.762 85.5489H408.558V73.2944H415.255V79.3533H438.762V85.5489ZM476.648 76.4833V50.5622H483.254V76.4833H476.648ZM463.072 64.5933C461.645 66.6889 459.929 68.3744 457.925 69.65C455.92 70.8952 453.779 71.5785 451.501 71.7V65.2767C453.232 65.0641 454.766 64.2896 456.102 62.9533C457.469 61.617 458.532 59.8859 459.291 57.76C460.081 55.6037 460.491 53.25 460.521 50.6989L467.172 51.1089C467.172 53.8422 466.717 56.53 465.806 59.1722L475.418 66.2789L471.591 71.1989L463.072 64.5933ZM483.709 85.5489H453.506V73.2944H460.202V79.3533H483.709V85.5489ZM498.601 65.6867C497.234 67.2963 495.625 68.587 493.772 69.5589C491.919 70.5307 489.915 71.047 487.759 71.1078V65.2767C489.642 65.1248 491.236 64.4415 492.542 63.2267C493.878 61.9815 494.789 60.4933 495.275 58.7622H488.123V53.1589H495.458V49.9244H502.154V53.1589H509.489V58.7622H502.018C501.927 59.0963 501.835 59.4304 501.744 59.7644C501.684 60.0681 501.592 60.3719 501.471 60.6756L510.4 65.7778L507.484 70.8344L498.601 65.6867ZM512.905 50.5622H519.465V71.3356H512.905V63.3633H508.532V57.2133H512.905V50.5622ZM504.569 71.7911C509.215 71.7911 512.905 72.353 515.639 73.4767C518.402 74.57 519.784 76.377 519.784 78.8978C519.784 83.6052 514.712 85.9589 504.569 85.9589C494.455 85.9589 489.399 83.6052 489.399 78.8978C489.399 76.377 490.765 74.57 493.499 73.4767C496.232 72.353 499.922 71.7911 504.569 71.7911ZM504.569 80.6744C507.12 80.6744 509.109 80.553 510.537 80.31C511.994 80.0367 512.723 79.5659 512.723 78.8978C512.723 77.683 510.005 77.0756 504.569 77.0756C499.163 77.0756 496.46 77.683 496.46 78.8978C496.46 79.5659 497.174 80.0367 498.601 80.31C500.059 80.553 502.048 80.6744 504.569 80.6744Z" fill="black"/>
<path d="M326.233 132.567V113.533H328.667V132.567H326.233ZM314.567 122.367C313.656 124.056 312.511 125.456 311.133 126.567C309.756 127.656 308.2 128.333 306.467 128.6V126.233C308.022 125.922 309.378 125.167 310.533 123.967C311.711 122.767 312.611 121.278 313.233 119.5C313.856 117.722 314.167 115.822 314.167 113.8L316.567 113.933C316.567 116.222 316.222 118.322 315.533 120.233L323.5 126.5L322.033 128.367L314.567 122.367ZM329.367 138.733H308.233V130.767H310.667V136.433H329.367V138.733ZM340.696 122.833C339.896 124.278 338.83 125.467 337.496 126.4C336.163 127.333 334.652 127.911 332.963 128.133V125.933C334.874 125.578 336.43 124.711 337.63 123.333C338.852 121.933 339.585 120.211 339.83 118.167H333.23V116.033H339.896V113.067H342.33V116.033H348.863V118.167H342.296C342.185 119.278 341.996 120.178 341.73 120.867L349.263 126.033L348.096 127.933L340.696 122.833ZM352.83 113.533H355.23V128.8H352.83V122.267H347.896V120.033H352.83V113.533ZM345.063 129.7C348.219 129.7 350.752 130.078 352.663 130.833C354.574 131.567 355.53 132.756 355.53 134.4C355.53 136.022 354.574 137.211 352.663 137.967C350.774 138.7 348.241 139.067 345.063 139.067C341.908 139.067 339.374 138.7 337.463 137.967C335.574 137.211 334.63 136.022 334.63 134.4C334.63 132.756 335.574 131.567 337.463 130.833C339.374 130.078 341.908 129.7 345.063 129.7ZM345.063 137.033C347.441 137.033 349.352 136.822 350.796 136.4C352.263 135.956 352.996 135.289 352.996 134.4C352.996 133.489 352.263 132.822 350.796 132.4C349.352 131.978 347.441 131.767 345.063 131.767C342.708 131.767 340.796 131.989 339.33 132.433C337.885 132.856 337.163 133.511 337.163 134.4C337.163 135.289 337.896 135.956 339.363 136.4C340.83 136.822 342.73 137.033 345.063 137.033ZM379.026 139.133V113.533H381.46V139.133H379.026ZM373.46 120.533C373.46 123.933 372.915 126.911 371.826 129.467C370.737 132 369.182 133.967 367.16 135.367C365.16 136.767 362.793 137.467 360.06 137.467V135.067C362.304 135.067 364.249 134.478 365.893 133.3C367.537 132.122 368.793 130.456 369.66 128.3C370.549 126.122 370.993 123.567 370.993 120.633V116.833H360.06V114.533H373.46V120.533ZM410.689 122.233H407.156V132.567H404.756V113.533H407.156V119.833H410.689V122.233ZM399.856 117.567C399.856 121.1 398.601 123.8 396.089 125.667C393.601 127.533 390.223 128.467 385.956 128.467V126.167C389.534 126.167 392.345 125.444 394.389 124C396.434 122.556 397.456 120.5 397.456 117.833V116.467H385.956V114.233H399.856V117.567ZM407.889 136.433V138.733H386.989V130.867H389.423V136.433H407.889ZM420.744 121.033C420.233 121.033 419.8 120.867 419.444 120.533C419.111 120.178 418.944 119.733 418.944 119.2C418.944 118.689 419.111 118.267 419.444 117.933C419.8 117.578 420.233 117.4 420.744 117.4C421.256 117.4 421.678 117.578 422.011 117.933C422.367 118.267 422.544 118.689 422.544 119.2C422.544 119.733 422.367 120.178 422.011 120.533C421.678 120.867 421.256 121.033 420.744 121.033ZM420.744 135.233C420.233 135.233 419.8 135.067 419.444 134.733C419.111 134.378 418.944 133.944 418.944 133.433C418.944 132.9 419.111 132.467 419.444 132.133C419.8 131.8 420.233 131.633 420.744 131.633C421.256 131.633 421.678 131.8 422.011 132.133C422.367 132.467 422.544 132.9 422.544 133.433C422.544 133.944 422.367 134.378 422.011 134.733C421.678 135.067 421.256 135.233 420.744 135.233ZM455.222 139.133H452.922V126.433H448.522V138.7H446.255V113.667H448.522V124.033H452.922V113.533H455.222V139.133ZM443.089 114.533V137.533H432.789V114.533H443.089ZM440.789 135.233V116.833H435.055V135.233H440.789ZM469.652 123.833V121.767H478.752V118.567H469.652V116.467H478.752V113.533H481.118V132.667H478.752V123.833H469.652ZM475.652 128.433C474.007 129.122 471.241 129.467 467.352 129.467H459.452V114.067H461.852V127.3H467.552C471.241 127.3 473.941 126.956 475.652 126.267V128.433ZM481.685 138.733H460.618V131.7H463.052V136.467H481.685V138.733ZM502.54 138H500.007V116.8H494.54V114.667H502.54V138ZM521.45 112.2L511.55 140.467H509.517L519.417 112.2H521.45ZM533.653 138H531.12V116.8H525.653V114.667H533.653V138ZM554.363 128.933C553.63 128.933 552.974 128.778 552.396 128.467C551.841 128.133 551.219 127.667 550.53 127.067C549.93 126.556 549.43 126.178 549.03 125.933C548.63 125.689 548.196 125.567 547.73 125.567C546.952 125.567 546.33 125.856 545.863 126.433C545.396 127.011 545.141 127.789 545.096 128.767H543.43C543.496 127.167 543.908 125.922 544.663 125.033C545.419 124.144 546.408 123.7 547.63 123.7C548.385 123.7 549.03 123.856 549.563 124.167C550.119 124.478 550.752 124.944 551.463 125.567C552.085 126.1 552.585 126.489 552.963 126.733C553.341 126.956 553.763 127.067 554.23 127.067C555.03 127.067 555.663 126.789 556.13 126.233C556.596 125.656 556.852 124.878 556.896 123.9H558.563C558.496 125.5 558.085 126.744 557.33 127.633C556.574 128.5 555.585 128.933 554.363 128.933ZM572.267 138H569.733V116.8H564.267V114.667H572.267V138ZM591.176 112.2L581.276 140.467H579.243L589.143 112.2H591.176ZM603.38 138H600.847V116.8H595.38V114.667H603.38V138ZM621.123 138.233C619.323 138.233 617.712 137.756 616.29 136.8C614.867 135.822 613.756 134.433 612.956 132.633C612.179 130.833 611.79 128.733 611.79 126.333C611.79 123.933 612.179 121.833 612.956 120.033C613.756 118.233 614.867 116.856 616.29 115.9C617.712 114.922 619.323 114.433 621.123 114.433C622.945 114.433 624.556 114.922 625.956 115.9C627.379 116.856 628.479 118.233 629.256 120.033C630.056 121.811 630.456 123.911 630.456 126.333C630.456 128.756 630.056 130.867 629.256 132.667C628.479 134.444 627.379 135.822 625.956 136.8C624.556 137.756 622.945 138.233 621.123 138.233ZM621.123 136C622.479 136 623.667 135.622 624.69 134.867C625.712 134.111 626.501 133.011 627.056 131.567C627.634 130.122 627.923 128.378 627.923 126.333C627.923 124.289 627.634 122.544 627.056 121.1C626.501 119.656 625.712 118.556 624.69 117.8C623.667 117.044 622.479 116.667 621.123 116.667C619.79 116.667 618.612 117.044 617.59 117.8C616.567 118.556 615.767 119.656 615.19 121.1C614.634 122.544 614.356 124.289 614.356 126.333C614.356 128.378 614.634 130.122 615.19 131.567C615.767 133.011 616.567 134.111 617.59 134.867C618.612 135.622 619.79 136 621.123 136Z" fill="#333333"/>
<path d="M186.631 148.098L192.592 134.815V87.6472C192.592 81.6061 187.692 76.7061 181.651 76.7061H169.063L146.901 79.8181L122.004 76.7061H109.416C103.374 76.7061 98.4744 81.6061 98.4744 87.6472V198.118C98.4744 204.159 103.374 209.059 109.416 209.059H181.651C187.692 209.059 192.592 204.159 192.592 198.118V170.383L191.263 161.1L186.631 148.098Z" fill="#EDF2F8"/>
<path d="M215.816 144.868C218.112 147.164 218.116 150.885 215.816 153.185L199.607 169.397C197.299 171.705 193.573 171.684 191.286 169.397C189.018 167.129 188.958 163.405 191.286 161.076L198.709 150.765L207.498 144.868C209.795 142.571 213.519 142.571 215.816 144.868Z" fill="#535E7E"/>
<path d="M182.968 169.397L174.648 177.715L166.396 173.51L162.171 165.238L170.489 156.918L178.788 161.196L182.968 169.397Z" fill="#424765"/>
<path d="M174.648 177.715L162.171 190.194L145.533 194.353L149.692 177.715L162.171 165.238L174.648 177.715Z" fill="#535E7E"/>
<path d="M169.063 82.5882H122.004C122.004 80.8482 122.004 77.5065 122.004 75.7647C122.004 69.7882 126.848 64.9412 132.827 64.9412H158.239C164.216 64.9412 169.063 69.7882 169.063 75.7647V82.5882Z" fill="#A8E467"/>
<path d="M160.239 97.2942V126.706H130.827V97.2942H160.239Z" fill="#F5DD51"/>
<path d="M214.163 125.721C217.603 129.161 217.617 134.746 214.163 138.2C209.466 142.901 199.638 152.727 182.968 169.397L170.489 156.918L201.686 125.721C205.13 122.277 210.718 122.277 214.163 125.721Z" fill="#C53269"/>
<path d="M130.118 129.647H159.53C161.154 129.647 162.471 128.33 162.471 126.706V97.2942C162.471 95.6701 161.154 94.353 159.53 94.353H130.118C128.494 94.353 127.177 95.6701 127.177 97.2942V126.706C127.177 128.33 128.494 129.647 130.118 129.647ZM133.059 100.235H141.883V103.177C141.883 104.801 143.2 106.118 144.824 106.118C146.448 106.118 147.765 104.801 147.765 103.177V100.235H156.589V123.765H133.059V100.235Z" fill="black"/>
<path d="M214.75 141.065L215.535 140.28C220.122 135.693 220.122 128.229 215.534 123.642C210.947 119.055 203.483 119.056 198.897 123.642L194.824 127.715V87.6471C194.824 79.9924 188.596 73.7647 180.941 73.7647H171.147C170.175 67.1194 164.44 62 157.53 62H132.118C125.207 62 119.472 67.1194 118.5 73.7647H108.706C101.051 73.7647 94.8237 79.9924 94.8237 87.6471V198.118C94.8237 205.772 101.051 212 108.706 212H180.941C188.596 212 194.824 205.772 194.824 198.118V174.054C197.054 174.032 199.278 173.174 200.976 171.476L217.187 155.266C221.489 150.963 220.231 143.676 214.75 141.065ZM203.056 127.802C205.35 125.508 209.081 125.508 211.375 127.802C213.668 130.095 213.668 133.827 211.375 136.121C204.436 143.06 188.032 159.463 182.259 165.237L173.94 156.918C177.331 153.526 199.642 131.216 203.056 127.802ZM173.94 173.556L165.621 165.237L169.78 161.077L178.099 169.396L173.94 173.556ZM161.461 169.396L169.78 177.715L159.958 187.537L148.866 190.31L151.639 179.219L161.461 169.396ZM124.235 75.7647C124.235 71.4185 127.771 67.8824 132.118 67.8824H157.53C161.876 67.8824 165.412 71.4182 165.412 75.7647V79.6471H124.235V75.7647ZM180.941 206.118H108.706C104.295 206.118 100.706 202.529 100.706 198.118V87.6471C100.706 83.2359 104.295 79.6471 108.706 79.6471H118.353V82.5882C118.353 84.2124 119.67 85.5294 121.294 85.5294H168.353C169.977 85.5294 171.294 84.2124 171.294 82.5882V79.6471H180.941C185.352 79.6471 188.941 83.2359 188.941 87.6471V133.597C180.778 141.76 156.707 165.832 146.903 175.635C146.527 176.012 146.259 176.485 146.13 177.002L141.97 193.639C141.433 195.787 143.381 197.746 145.537 197.206L162.175 193.046C162.692 192.917 163.164 192.65 163.541 192.273C167.733 188.081 182.169 173.646 186.776 169.038C187.29 170.117 188.008 171.072 188.941 171.887V198.118C188.941 202.529 185.352 206.118 180.941 206.118ZM213.027 151.106L196.817 167.316C195.671 168.464 193.804 168.464 192.657 167.316C191.51 166.17 191.51 164.304 192.657 163.157L208.873 146.941C210.021 145.8 211.882 145.801 213.027 146.946C214.174 148.093 214.174 149.959 213.027 151.106Z" fill="black"/>
<path d="M112.471 144.353H159.53C161.154 144.353 162.471 143.036 162.471 141.412C162.471 139.788 161.154 138.47 159.53 138.47H112.471C110.847 138.47 109.53 139.788 109.53 141.412C109.53 143.036 110.847 144.353 112.471 144.353Z" fill="black"/>
<path d="M136 153.177H112.471C110.847 153.177 109.53 154.494 109.53 156.118C109.53 157.742 110.847 159.059 112.471 159.059H136C137.624 159.059 138.942 157.742 138.942 156.118C138.942 154.494 137.624 153.177 136 153.177Z" fill="black"/>
<path d="M136 167.882H112.471C110.847 167.882 109.53 169.199 109.53 170.824C109.53 172.448 110.847 173.765 112.471 173.765H136C137.624 173.765 138.942 172.448 138.942 170.824C138.942 169.199 137.624 167.882 136 167.882Z" fill="black"/>
<path d="M132.198 186.391C131.049 185.243 129.187 185.243 128.038 186.391L124.235 190.194L120.433 186.391C119.284 185.243 117.422 185.243 116.273 186.391L110.391 192.273C109.242 193.422 109.242 195.284 110.391 196.433C111.54 197.581 113.401 197.581 114.55 196.433L118.353 192.63L122.156 196.433C123.305 197.581 125.166 197.582 126.315 196.433L130.118 192.63L130.98 193.492C132.128 194.64 133.99 194.64 135.139 193.492C136.288 192.343 136.288 190.481 135.139 189.332L132.198 186.391Z" fill="black"/>
<path d="M320.001 170.933C319.526 170.933 319.126 170.77 318.801 170.444C318.475 170.104 318.312 169.696 318.312 169.222C318.312 168.733 318.475 168.326 318.801 168C319.126 167.674 319.526 167.511 320.001 167.511C320.46 167.511 320.852 167.674 321.178 168C321.519 168.326 321.689 168.733 321.689 169.222C321.689 169.696 321.519 170.104 321.178 170.444C320.852 170.77 320.46 170.933 320.001 170.933ZM351.222 177.756H349.689V169.289H346.756V177.467H345.244V160.778H346.756V167.689H349.689V160.689H351.222V177.756ZM343.133 161.356V176.689H336.267V161.356H343.133ZM341.6 175.156V162.889H337.778V175.156H341.6ZM361.62 163.467V164.978H352.975V163.467H356.487V160.644H358.087V163.467H361.62ZM368.82 177.756H367.309V169.267H364.442V177.467H362.931V160.778H364.442V167.689H367.309V160.689H368.82V177.756ZM357.375 166.467C358.101 166.467 358.746 166.674 359.309 167.089C359.887 167.489 360.331 168.081 360.642 168.867C360.968 169.637 361.131 170.57 361.131 171.667C361.131 172.763 360.968 173.704 360.642 174.489C360.331 175.274 359.887 175.874 359.309 176.289C358.746 176.689 358.101 176.889 357.375 176.889C356.264 176.889 355.368 176.43 354.687 175.511C354.005 174.593 353.664 173.311 353.664 171.667C353.664 170.022 354.005 168.748 354.687 167.844C355.368 166.926 356.264 166.467 357.375 166.467ZM357.375 175.4C358.042 175.4 358.583 175.067 358.998 174.4C359.412 173.733 359.62 172.822 359.62 171.667C359.62 170.511 359.412 169.6 358.998 168.933C358.583 168.267 358.042 167.933 357.375 167.933C356.709 167.933 356.168 168.267 355.753 168.933C355.353 169.585 355.153 170.496 355.153 171.667C355.153 172.837 355.353 173.756 355.753 174.422C356.168 175.074 356.709 175.4 357.375 175.4ZM382.768 177H381.079V162.867H377.434V161.444H382.768V177ZM395.374 159.8L388.774 178.644H387.419L394.019 159.8H395.374ZM403.51 177H401.821V162.867H398.176V161.444H403.51V177ZM417.316 170.956C416.827 170.956 416.39 170.852 416.005 170.644C415.635 170.422 415.22 170.111 414.761 169.711C414.361 169.37 414.027 169.119 413.761 168.956C413.494 168.793 413.205 168.711 412.894 168.711C412.376 168.711 411.961 168.904 411.65 169.289C411.339 169.674 411.168 170.193 411.139 170.844H410.027C410.072 169.778 410.346 168.948 410.85 168.356C411.353 167.763 412.013 167.467 412.827 167.467C413.331 167.467 413.761 167.57 414.116 167.778C414.487 167.985 414.909 168.296 415.383 168.711C415.798 169.067 416.131 169.326 416.383 169.489C416.635 169.637 416.916 169.711 417.227 169.711C417.761 169.711 418.183 169.526 418.494 169.156C418.805 168.77 418.976 168.252 419.005 167.6H420.116C420.072 168.667 419.798 169.496 419.294 170.089C418.79 170.667 418.131 170.956 417.316 170.956ZM429.252 177H427.563V162.867H423.919V161.444H429.252V177ZM446.57 177H435.636V175.867L442.081 169.511C442.896 168.711 443.444 168.022 443.725 167.444C444.007 166.867 444.147 166.274 444.147 165.667C444.147 164.763 443.836 164.052 443.214 163.533C442.592 163.015 441.703 162.756 440.547 162.756C438.725 162.756 437.333 163.348 436.37 164.533L435.147 163.644C435.74 162.889 436.503 162.311 437.436 161.911C438.384 161.496 439.466 161.289 440.681 161.289C442.251 161.289 443.503 161.674 444.436 162.444C445.384 163.2 445.859 164.23 445.859 165.533C445.859 166.333 445.673 167.104 445.303 167.844C444.947 168.57 444.281 169.407 443.303 170.356L438.081 175.556H446.57V177ZM455.198 159.8L448.598 178.644H447.243L453.843 159.8H455.198ZM461.314 168.133C462.944 168.207 464.188 168.644 465.048 169.444C465.907 170.23 466.337 171.259 466.337 172.533C466.337 173.422 466.122 174.215 465.692 174.911C465.263 175.607 464.626 176.156 463.781 176.556C462.937 176.956 461.907 177.156 460.692 177.156C459.566 177.156 458.5 176.978 457.492 176.622C456.5 176.252 455.707 175.763 455.114 175.156L455.848 173.889C456.366 174.422 457.048 174.859 457.892 175.2C458.751 175.526 459.67 175.689 460.648 175.689C461.937 175.689 462.922 175.407 463.603 174.844C464.3 174.281 464.648 173.511 464.648 172.533C464.648 171.556 464.3 170.793 463.603 170.244C462.922 169.696 461.877 169.422 460.47 169.422H459.359V168.289L463.648 162.867H455.714V161.444H465.714V162.578L461.314 168.133ZM476.01 177H474.321V162.867H470.676V161.444H476.01V177ZM500.966 169.356V177.756H499.411V160.689H500.966V167.756H503.233V169.356H500.966ZM491.255 161.356V165.156C491.255 168.519 490.9 171.156 490.189 173.067C489.478 174.978 488.315 175.97 486.7 176.044V174.467C487.796 174.333 488.574 173.481 489.033 171.911C489.492 170.326 489.722 168.126 489.722 165.311V162.889H486.7V161.356H491.255ZM496.7 161.356V165.444C496.7 168.956 496.285 171.681 495.455 173.622C494.64 175.548 493.381 176.556 491.678 176.644V175.067C492.848 174.948 493.715 174.081 494.278 172.467C494.855 170.837 495.144 168.541 495.144 165.578V162.889H492.166V161.356H496.7ZM518.942 177.756H517.32V160.689H518.942V177.756ZM510.675 162.911C510.66 164.956 510.49 166.844 510.164 168.578L515.564 175.533L514.297 176.533L509.653 170.444C509.12 172.281 508.394 173.741 507.475 174.822C506.557 175.889 505.49 176.511 504.275 176.689V175.022C505.253 174.815 506.097 174.17 506.809 173.089C507.52 171.993 508.068 170.57 508.453 168.822C508.838 167.059 509.046 165.089 509.075 162.911H504.631V161.356H514.986V162.911H510.675ZM534.984 177.756V160.689H536.562V177.756H534.984ZM527.051 161.089C527.999 161.089 528.851 161.319 529.606 161.778C530.362 162.222 530.947 162.852 531.362 163.667C531.791 164.481 532.006 165.407 532.006 166.444C532.006 167.467 531.791 168.385 531.362 169.2C530.932 170.015 530.339 170.652 529.584 171.111C528.843 171.556 527.999 171.778 527.051 171.778C526.088 171.778 525.228 171.556 524.473 171.111C523.717 170.652 523.125 170.022 522.695 169.222C522.265 168.407 522.051 167.481 522.051 166.444C522.051 165.407 522.265 164.481 522.695 163.667C523.125 162.852 523.717 162.222 524.473 161.778C525.228 161.319 526.088 161.089 527.051 161.089ZM527.051 162.622C526.028 162.622 525.199 162.985 524.562 163.711C523.939 164.422 523.628 165.333 523.628 166.444C523.628 167.541 523.939 168.452 524.562 169.178C525.199 169.889 526.028 170.244 527.051 170.244C528.058 170.244 528.873 169.889 529.495 169.178C530.132 168.452 530.451 167.541 530.451 166.444C530.451 165.348 530.132 164.437 529.495 163.711C528.873 162.985 528.058 162.622 527.051 162.622ZM533.517 175.867C532.984 176.133 532.221 176.341 531.228 176.489C530.236 176.622 529.11 176.689 527.851 176.689H521.473V175.111H527.962C529.177 175.111 530.265 175.044 531.228 174.911C532.206 174.763 532.969 174.556 533.517 174.289V175.867ZM558.643 177.756H557.043V169.333H552.532C551.984 171.63 550.991 173.422 549.554 174.711C548.117 176 546.332 176.644 544.198 176.644V175.044C545.68 175.044 546.954 174.652 548.021 173.867C549.102 173.081 549.924 171.963 550.487 170.511C551.05 169.059 551.332 167.363 551.332 165.422V162.889H544.198V161.356H552.954V165.356C552.954 166.156 552.895 166.956 552.776 167.756H557.043V160.689H558.643V177.756ZM576.574 177.756H575.04V169.289H572.107V177.467H570.596V160.778H572.107V167.689H575.04V160.689H576.574V177.756ZM564.418 175.222C565.485 175.222 566.411 175.156 567.196 175.022C567.981 174.874 568.685 174.652 569.307 174.356V175.889C568.196 176.422 566.566 176.689 564.418 176.689H561.618V168.156H566.574V162.822H561.618V161.356H568.085V169.622H563.129V175.222H564.418ZM596.499 169.089V160.689H598.122V169.089H596.499ZM588.744 165.444C588.151 166.333 587.388 167.074 586.455 167.667C585.522 168.244 584.477 168.63 583.322 168.822V167.311C584.359 167.104 585.262 166.689 586.033 166.067C586.818 165.444 587.418 164.681 587.833 163.778C588.247 162.874 588.462 161.904 588.477 160.867L590.055 160.956C590.055 162.096 589.855 163.17 589.455 164.178L594.744 167.267L593.944 168.556L588.744 165.444ZM598.566 177.489H584.499V173.2H596.499V171.378H584.477V170.089H598.122V174.378H586.122V176.2H598.566V177.489ZM615.808 171.089H614.208V166.178H610.897V164.711H614.208V160.689H615.808V171.089ZM606.297 166.733C605.764 167.8 605.038 168.667 604.119 169.333C603.215 169.985 602.171 170.385 600.986 170.533V168.978C602.408 168.756 603.534 168.089 604.364 166.978C605.193 165.852 605.653 164.407 605.741 162.644H601.186V161.178H611.564V162.644H607.341C607.297 163.548 607.156 164.444 606.919 165.333L612.008 169.133L611.141 170.4L606.297 166.733ZM615.808 172.089V177.711H614.186V173.578H602.008V172.089H615.808ZM626.339 160.667C628.443 160.667 630.146 160.919 631.45 161.422C632.754 161.911 633.406 162.681 633.406 163.733C633.406 164.785 632.754 165.556 631.45 166.044C630.146 166.533 628.443 166.778 626.339 166.778C624.235 166.778 622.524 166.533 621.206 166.044C619.902 165.556 619.25 164.785 619.25 163.733C619.25 162.681 619.902 161.911 621.206 161.422C622.524 160.919 624.235 160.667 626.339 160.667ZM626.339 161.978C624.754 161.978 623.45 162.126 622.428 162.422C621.421 162.704 620.917 163.141 620.917 163.733C620.917 164.326 621.421 164.763 622.428 165.044C623.435 165.326 624.739 165.467 626.339 165.467C627.924 165.467 629.221 165.326 630.228 165.044C631.235 164.763 631.739 164.326 631.739 163.733C631.739 163.141 631.228 162.704 630.206 162.422C629.198 162.126 627.909 161.978 626.339 161.978ZM618.25 169.333V168H634.428V169.333H618.25ZM620.984 174.711V176.267H633.561V177.511H619.428V173.644H631.695V172.133H619.384V170.911H633.272V174.711H620.984ZM654.842 169.356V177.756H653.242V160.689H654.842V167.756H657.198V169.356H654.842ZM649.998 161.222V176.689H641.065V161.222H642.665V167.289H648.42V161.222H649.998ZM648.42 168.822H642.665V175.133H648.42V168.822ZM674.796 166.2H672.44V170.867H670.84V160.689H672.44V164.578H674.796V166.2ZM669.551 169.222C669.018 169.474 668.27 169.674 667.307 169.822C666.344 169.956 665.255 170.022 664.04 170.022H658.462V161.156H668.351V162.511H660.062V164.911H668.04V166.222H660.062V168.644H664.151C665.336 168.644 666.396 168.578 667.329 168.444C668.277 168.311 669.018 168.119 669.551 167.867V169.222ZM665.818 171.467C667.907 171.467 669.573 171.719 670.818 172.222C672.062 172.711 672.684 173.504 672.684 174.6C672.684 175.696 672.062 176.489 670.818 176.978C669.573 177.467 667.907 177.711 665.818 177.711C663.729 177.711 662.062 177.467 660.818 176.978C659.573 176.489 658.951 175.696 658.951 174.6C658.951 173.504 659.573 172.711 660.818 172.222C662.062 171.719 663.729 171.467 665.818 171.467ZM665.818 176.356C667.359 176.356 668.603 176.215 669.551 175.933C670.514 175.637 670.996 175.193 670.996 174.6C670.996 173.993 670.521 173.548 669.573 173.267C668.625 172.985 667.373 172.844 665.818 172.844C664.262 172.844 663.01 172.985 662.062 173.267C661.114 173.548 660.64 173.993 660.64 174.6C660.64 175.193 661.114 175.637 662.062 175.933C663.025 176.215 664.277 176.356 665.818 176.356ZM683.527 161.089C684.978 161.089 686.252 161.311 687.349 161.756C688.445 162.2 689.29 162.83 689.882 163.644C690.475 164.459 690.771 165.4 690.771 166.467C690.771 167.533 690.475 168.474 689.882 169.289C689.29 170.089 688.445 170.711 687.349 171.156C686.252 171.6 684.978 171.822 683.527 171.822C682.075 171.822 680.801 171.6 679.704 171.156C678.608 170.711 677.764 170.089 677.171 169.289C676.578 168.474 676.282 167.533 676.282 166.467C676.282 165.4 676.578 164.459 677.171 163.644C677.764 162.83 678.608 162.2 679.704 161.756C680.801 161.311 682.075 161.089 683.527 161.089ZM683.527 162.622C682.415 162.622 681.438 162.785 680.593 163.111C679.764 163.422 679.119 163.867 678.66 164.444C678.201 165.022 677.971 165.696 677.971 166.467C677.971 167.222 678.201 167.889 678.66 168.467C679.119 169.044 679.764 169.496 680.593 169.822C681.438 170.133 682.415 170.289 683.527 170.289C684.638 170.289 685.608 170.133 686.438 169.822C687.282 169.496 687.934 169.044 688.393 168.467C688.852 167.889 689.082 167.222 689.082 166.467C689.082 165.696 688.852 165.022 688.393 164.444C687.934 163.867 687.282 163.422 686.438 163.111C685.608 162.785 684.638 162.622 683.527 162.622ZM675.438 176.889V175.311H691.615V176.889H675.438ZM709.213 176.889H693.035V175.356H700.28V171.844H694.191V165.844H706.524V162.867H694.169V161.356H708.124V167.311H695.769V170.333H708.369V171.844H701.88V175.356H709.213V176.889ZM716.05 162.911V161.333H730.072V172.6H728.428V162.911H716.05ZM731.205 176.889H715.028V175.311H721.228V167.489H722.872V175.311H731.205V176.889ZM748.803 170.178H732.625V168.8H736.292V166.511C735.447 166.259 734.788 165.911 734.314 165.467C733.84 165.022 733.603 164.481 733.603 163.844C733.603 162.763 734.27 161.956 735.603 161.422C736.936 160.874 738.64 160.6 740.714 160.6C742.788 160.6 744.484 160.874 745.803 161.422C747.136 161.956 747.803 162.763 747.803 163.844C747.803 164.481 747.566 165.022 747.092 165.467C746.618 165.911 745.959 166.259 745.114 166.511V168.8H748.803V170.178ZM740.714 161.978C739.144 161.978 737.84 162.133 736.803 162.444C735.781 162.756 735.27 163.222 735.27 163.844C735.27 164.467 735.781 164.933 736.803 165.244C737.825 165.556 739.129 165.711 740.714 165.711C742.284 165.711 743.581 165.556 744.603 165.244C745.625 164.933 746.136 164.467 746.136 163.844C746.136 163.222 745.618 162.756 744.581 162.444C743.559 162.133 742.27 161.978 740.714 161.978ZM743.514 168.8V166.867C742.714 167.015 741.781 167.089 740.714 167.089C739.662 167.089 738.721 167.015 737.892 166.867V168.8H743.514ZM740.714 171.667C742.818 171.667 744.521 171.904 745.825 172.378C747.129 172.837 747.781 173.607 747.781 174.689C747.781 175.77 747.129 176.548 745.825 177.022C744.521 177.511 742.818 177.756 740.714 177.756C738.61 177.756 736.899 177.511 735.581 177.022C734.277 176.548 733.625 175.77 733.625 174.689C733.625 173.607 734.277 172.837 735.581 172.378C736.899 171.904 738.61 171.667 740.714 171.667ZM740.714 176.4C742.255 176.4 743.536 176.267 744.559 176C745.581 175.733 746.092 175.296 746.092 174.689C746.092 174.096 745.581 173.674 744.559 173.422C743.536 173.156 742.255 173.022 740.714 173.022C739.173 173.022 737.884 173.156 736.847 173.422C735.825 173.674 735.314 174.096 735.314 174.689C735.314 175.296 735.825 175.733 736.847 176C737.884 176.267 739.173 176.4 740.714 176.4ZM751.401 169.711V161.022H752.978V163.6H763.645V161.022H765.223V169.711H751.401ZM763.645 165.089H752.978V168.2H763.645V165.089ZM759.134 173.2V178.156H757.489V173.2H750.223V171.644H766.401V173.2H759.134ZM782.42 165.933V169.978H780.82V160.689H782.42V164.311H784.776V165.933H782.42ZM779.532 168.289C779.013 168.541 778.272 168.733 777.309 168.867C776.346 169 775.258 169.067 774.043 169.067H768.443V161.156H778.332V162.6H770.043V167.622H774.132C775.317 167.622 776.376 167.556 777.309 167.422C778.258 167.289 778.998 167.096 779.532 166.844V168.289ZM782.42 170.978V177.489H768.976V170.978H782.42ZM780.82 176.044V172.422H770.598V176.044H780.82ZM798.751 166.667V162.378H786.551V160.933H800.374V166.667H798.751ZM785.418 169.2V167.778H801.596V169.2H785.418ZM786.596 177.511V171.111H800.418V177.511H786.596ZM798.84 172.511H788.196V176.111H798.84V172.511ZM822.01 165.933V169.978H820.41V160.689H822.01V164.311H824.366V165.933H822.01ZM817.144 162.911C817.144 165.148 816.329 166.8 814.699 167.867C813.084 168.919 810.81 169.444 807.877 169.444V167.956C810.321 167.941 812.21 167.548 813.544 166.778C814.877 165.993 815.544 164.785 815.544 163.156V162.6H807.877V161.156H817.144V162.911ZM822.01 170.978V177.489H808.566V170.978H822.01ZM820.41 176.044V172.422H810.188V176.044H820.41ZM835.764 168.556V167.044H838.608V164.222H835.764V162.711H838.608V160.689H840.186V173.4H838.608V168.556H835.764ZM825.764 170.267V161.156H834.764V170.267H825.764ZM827.319 162.622V168.8H833.164V162.622H827.319ZM840.564 177.489H826.519V172.044H828.141V175.956H840.564V177.489ZM860.445 173.378V160.689H862.067V173.378H860.445ZM852.667 166.578C852.059 167.704 851.296 168.637 850.378 169.378C849.459 170.104 848.422 170.556 847.267 170.733V169.156C848.304 168.948 849.208 168.444 849.978 167.644C850.763 166.844 851.363 165.852 851.778 164.667C852.193 163.481 852.4 162.215 852.4 160.867L854 160.956C854 162.481 853.771 163.881 853.311 165.156L858.622 169.333L857.645 170.578L852.667 166.578ZM862.534 177.489H848.445V172.178H850.067V175.956H862.534V177.489ZM870.087 166.889C869.553 167.852 868.842 168.644 867.953 169.267C867.064 169.889 866.057 170.274 864.931 170.422V168.956C866.205 168.719 867.242 168.141 868.042 167.222C868.857 166.289 869.346 165.141 869.509 163.778H865.109V162.356H869.553V160.378H871.176V162.356H875.531V163.778H871.153C871.079 164.519 870.953 165.119 870.776 165.578L875.798 169.022L875.02 170.289L870.087 166.889ZM878.176 160.689H879.776V170.867H878.176V166.511H874.887V165.022H878.176V160.689ZM872.998 171.467C875.102 171.467 876.79 171.719 878.064 172.222C879.339 172.711 879.976 173.504 879.976 174.6C879.976 175.681 879.339 176.474 878.064 176.978C876.805 177.467 875.116 177.711 872.998 177.711C870.894 177.711 869.205 177.467 867.931 176.978C866.672 176.474 866.042 175.681 866.042 174.6C866.042 173.504 866.672 172.711 867.931 172.222C869.205 171.719 870.894 171.467 872.998 171.467ZM872.998 176.356C874.583 176.356 875.857 176.215 876.82 175.933C877.798 175.637 878.287 175.193 878.287 174.6C878.287 173.993 877.798 173.548 876.82 173.267C875.857 172.985 874.583 172.844 872.998 172.844C871.427 172.844 870.153 172.993 869.176 173.289C868.213 173.57 867.731 174.007 867.731 174.6C867.731 175.193 868.22 175.637 869.198 175.933C870.176 176.215 871.442 176.356 872.998 176.356ZM339.917 202.067C339.206 200.911 338.658 199.585 338.273 198.089C337.888 196.578 337.695 194.956 337.695 193.222C337.695 191.489 337.888 189.867 338.273 188.356C338.658 186.83 339.206 185.504 339.917 184.378H341.251C340.51 185.667 339.962 187.037 339.606 188.489C339.251 189.941 339.073 191.519 339.073 193.222C339.073 194.926 339.251 196.504 339.606 197.956C339.962 199.407 340.51 200.778 341.251 202.067H339.917ZM359.659 190.489H357.303V197.378H355.703V184.689H357.303V188.889H359.659V190.489ZM354.414 193.489C353.896 193.741 353.155 193.933 352.192 194.067C351.229 194.2 350.14 194.267 348.926 194.267H343.326V185.156H353.214V186.622H344.948V192.8H349.014C350.2 192.8 351.259 192.733 352.192 192.6C353.14 192.467 353.881 192.274 354.414 192.022V193.489ZM357.792 199.956V201.489H343.859V196.044H345.481V199.956H357.792ZM361.968 198.689C362.323 198.689 362.612 198.807 362.834 199.044C363.057 199.267 363.168 199.548 363.168 199.889C363.168 200.067 363.145 200.244 363.101 200.422C363.071 200.6 362.997 200.852 362.879 201.178L361.923 204.222H360.812L361.59 201C361.338 200.926 361.138 200.793 360.99 200.6C360.842 200.407 360.768 200.17 360.768 199.889C360.768 199.548 360.879 199.267 361.101 199.044C361.338 198.807 361.627 198.689 361.968 198.689ZM384.953 201.756H383.419V184.689H384.953V201.756ZM380.997 184.778V201.467H379.486V196.044H375.442C374.879 197.496 374.116 198.63 373.153 199.444C372.205 200.244 371.108 200.644 369.864 200.644V199.067C370.886 199.052 371.775 198.659 372.53 197.889C373.301 197.119 373.886 196.052 374.286 194.689C374.701 193.311 374.908 191.726 374.908 189.933V186.889H369.864V185.356H376.486V189.089H379.486V184.778H380.997ZM379.486 190.667H376.464C376.39 192.059 376.212 193.333 375.93 194.489H379.486V190.667ZM401.639 191H403.995V192.467H401.639V194.889H400.039V184.689H401.639V186.756H403.995V188.244H401.639V191ZM392.106 194.311C391.098 194.311 390.217 194.111 389.461 193.711C388.706 193.296 388.121 192.733 387.706 192.022C387.306 191.296 387.106 190.489 387.106 189.6C387.106 188.711 387.306 187.911 387.706 187.2C388.121 186.474 388.706 185.911 389.461 185.511C390.217 185.096 391.098 184.889 392.106 184.889C393.113 184.889 393.987 185.096 394.728 185.511C395.484 185.911 396.061 186.467 396.461 187.178C396.876 187.889 397.084 188.696 397.084 189.6C397.084 190.504 396.876 191.311 396.461 192.022C396.061 192.733 395.484 193.296 394.728 193.711C393.987 194.111 393.113 194.311 392.106 194.311ZM392.106 186.311C391.098 186.311 390.284 186.607 389.661 187.2C389.039 187.793 388.728 188.593 388.728 189.6C388.728 190.607 389.039 191.407 389.661 192C390.284 192.593 391.098 192.889 392.106 192.889C393.113 192.889 393.928 192.593 394.55 192C395.173 191.393 395.484 190.593 395.484 189.6C395.484 188.607 395.173 187.815 394.55 187.222C393.928 186.615 393.113 186.311 392.106 186.311ZM401.639 195.889V201.711H400.017V197.378H388.239V195.889H401.639ZM424.098 201.756H422.476V184.689H424.098V201.756ZM416.187 185.178C416.157 187.874 415.928 190.237 415.498 192.267L420.854 199.667L419.565 200.644L414.987 194.222C414.409 196.163 413.639 197.696 412.676 198.822C411.728 199.933 410.624 200.556 409.365 200.689V199.022C410.461 198.83 411.394 198.096 412.165 196.822C412.935 195.533 413.52 193.874 413.92 191.844C414.32 189.815 414.528 187.578 414.543 185.133L416.187 185.178ZM441.229 190.044V194.889H439.629V184.689H441.229V188.444H443.585V190.044H441.229ZM432.162 190.6C431.629 191.652 430.911 192.504 430.007 193.156C429.103 193.793 428.059 194.185 426.874 194.333V192.778C428.281 192.556 429.399 191.911 430.229 190.844C431.059 189.763 431.518 188.363 431.607 186.644H427.074V185.178H437.429V186.644H433.207C433.162 187.578 433.029 188.437 432.807 189.222L437.874 192.933L437.029 194.2L432.162 190.6ZM441.229 195.889V201.711H439.607V197.378H427.629V195.889H441.229ZM462.066 193.089V184.689H463.688V193.089H462.066ZM453.977 184.889C454.984 184.889 455.866 185.059 456.621 185.4C457.377 185.741 457.955 186.207 458.355 186.8C458.755 187.393 458.955 188.074 458.955 188.844C458.955 189.6 458.755 190.281 458.355 190.889C457.955 191.481 457.377 191.948 456.621 192.289C455.866 192.615 454.984 192.778 453.977 192.778C452.955 192.778 452.066 192.615 451.31 192.289C450.569 191.948 449.999 191.481 449.599 190.889C449.199 190.296 448.999 189.615 448.999 188.844C448.999 188.074 449.199 187.393 449.599 186.8C449.999 186.207 450.569 185.741 451.31 185.4C452.066 185.059 452.955 184.889 453.977 184.889ZM453.977 186.267C452.955 186.267 452.132 186.496 451.51 186.956C450.888 187.4 450.577 188.03 450.577 188.844C450.577 189.659 450.888 190.289 451.51 190.733C452.132 191.178 452.955 191.4 453.977 191.4C454.999 191.4 455.821 191.178 456.443 190.733C457.066 190.289 457.377 189.659 457.377 188.844C457.377 188.03 457.066 187.4 456.443 186.956C455.821 186.496 454.999 186.267 453.977 186.267ZM451.866 198.4V200.2H464.132V201.489H450.266V197.2H462.088V195.378H450.221V194.089H463.688V198.4H451.866ZM481.286 201.756H479.663V184.689H481.286V201.756ZM473.374 185.178C473.345 187.874 473.115 190.237 472.686 192.267L478.041 199.667L476.752 200.644L472.174 194.222C471.597 196.163 470.826 197.696 469.863 198.822C468.915 199.933 467.812 200.556 466.552 200.689V199.022C467.649 198.83 468.582 198.096 469.352 196.822C470.123 195.533 470.708 193.874 471.108 191.844C471.508 189.815 471.715 187.578 471.73 185.133L473.374 185.178ZM498.417 193.356V201.756H496.817V184.689H498.417V191.756H500.772V193.356H498.417ZM493.194 185.356V189.356C493.194 191.607 492.846 193.585 492.15 195.289C491.454 196.993 490.446 198.311 489.128 199.244C487.809 200.178 486.246 200.644 484.439 200.644V199.044C485.935 199.044 487.217 198.652 488.283 197.867C489.365 197.081 490.187 195.963 490.75 194.511C491.313 193.059 491.594 191.363 491.594 189.422V186.889H484.439V185.356H493.194ZM513.275 201H511.587V186.867H507.942V185.444H513.275V201ZM524.749 190.667C523.312 190.667 522.163 190.4 521.304 189.867C520.46 189.333 520.037 188.615 520.037 187.711C520.037 186.807 520.46 186.089 521.304 185.556C522.163 185.022 523.312 184.756 524.749 184.756C526.171 184.756 527.304 185.022 528.149 185.556C529.008 186.089 529.438 186.807 529.438 187.711C529.438 188.615 529.008 189.333 528.149 189.867C527.304 190.4 526.171 190.667 524.749 190.667ZM530.326 188.578V187.067H532.726V184.689H534.326V193.956H532.726V188.578H530.326ZM524.749 186.044C523.8 186.044 523.038 186.2 522.46 186.511C521.897 186.807 521.615 187.207 521.615 187.711C521.615 188.23 521.897 188.644 522.46 188.956C523.038 189.252 523.8 189.4 524.749 189.4C525.697 189.4 526.452 189.252 527.015 188.956C527.593 188.644 527.882 188.23 527.882 187.711C527.882 187.207 527.593 186.807 527.015 186.511C526.438 186.2 525.682 186.044 524.749 186.044ZM534.771 201.489H520.704V197.667H532.726V196.156H520.66V194.956H523.815V193.222H519.171V191.911H525.726C528.349 191.911 530.193 191.681 531.26 191.222V192.533C530.756 192.756 530.015 192.926 529.038 193.044C528.06 193.163 526.934 193.222 525.66 193.222H525.415V194.956H534.326V198.756H522.282V200.289H534.771V201.489ZM544.213 201H542.524V186.867H538.88V185.444H544.213V201ZM563.531 193.089V184.689H565.153V193.089H563.531ZM555.442 184.889C556.449 184.889 557.331 185.059 558.086 185.4C558.842 185.741 559.419 186.207 559.819 186.8C560.219 187.393 560.419 188.074 560.419 188.844C560.419 189.6 560.219 190.281 559.819 190.889C559.419 191.481 558.842 191.948 558.086 192.289C557.331 192.615 556.449 192.778 555.442 192.778C554.419 192.778 553.531 192.615 552.775 192.289C552.034 191.948 551.464 191.481 551.064 190.889C550.664 190.296 550.464 189.615 550.464 188.844C550.464 188.074 550.664 187.393 551.064 186.8C551.464 186.207 552.034 185.741 552.775 185.4C553.531 185.059 554.419 184.889 555.442 184.889ZM555.442 186.267C554.419 186.267 553.597 186.496 552.975 186.956C552.353 187.4 552.042 188.03 552.042 188.844C552.042 189.659 552.353 190.289 552.975 190.733C553.597 191.178 554.419 191.4 555.442 191.4C556.464 191.4 557.286 191.178 557.908 190.733C558.531 190.289 558.842 189.659 558.842 188.844C558.842 188.03 558.531 187.4 557.908 186.956C557.286 186.496 556.464 186.267 555.442 186.267ZM553.331 198.4V200.2H565.597V201.489H551.731V197.2H563.553V195.378H551.686V194.089H565.153V198.4H553.331ZM581.128 201.756V184.689H582.75V201.756H581.128ZM573.306 185.133C574.787 185.133 575.965 185.8 576.839 187.133C577.728 188.467 578.173 190.43 578.173 193.022C578.173 195.615 577.728 197.578 576.839 198.911C575.965 200.244 574.787 200.911 573.306 200.911C571.825 200.911 570.639 200.244 569.75 198.911C568.876 197.578 568.439 195.615 568.439 193.022C568.439 190.43 568.876 188.467 569.75 187.133C570.639 185.8 571.825 185.133 573.306 185.133ZM573.306 186.667C572.313 186.667 571.521 187.2 570.928 188.267C570.336 189.319 570.039 190.904 570.039 193.022C570.039 195.156 570.336 196.748 570.928 197.8C571.521 198.852 572.313 199.378 573.306 199.378C574.269 199.378 575.054 198.852 575.662 197.8C576.269 196.733 576.573 195.141 576.573 193.022C576.573 190.919 576.269 189.333 575.662 188.267C575.054 187.2 574.269 186.667 573.306 186.667ZM604.276 193.356V201.756H602.676V184.689H604.276V191.756H606.632V193.356H604.276ZM595.054 185.133C596.506 185.133 597.661 185.8 598.52 187.133C599.394 188.467 599.832 190.43 599.832 193.022C599.832 195.615 599.394 197.578 598.52 198.911C597.661 200.244 596.506 200.911 595.054 200.911C593.587 200.911 592.417 200.244 591.543 198.911C590.683 197.578 590.254 195.615 590.254 193.022C590.254 190.43 590.683 188.467 591.543 187.133C592.417 185.8 593.587 185.133 595.054 185.133ZM595.054 199.378C596.002 199.378 596.765 198.852 597.343 197.8C597.935 196.733 598.232 195.141 598.232 193.022C598.232 190.904 597.935 189.319 597.343 188.267C596.765 187.2 596.002 186.667 595.054 186.667C594.076 186.667 593.298 187.2 592.72 188.267C592.143 189.319 591.854 190.904 591.854 193.022C591.854 195.156 592.143 196.748 592.72 197.8C593.298 198.852 594.076 199.378 595.054 199.378ZM620.718 197.378V184.689H622.34V197.378H620.718ZM614.051 192.578C615.237 192.578 616.296 192.511 617.229 192.378C618.163 192.23 618.903 192.03 619.451 191.778V193.289C618.933 193.541 618.192 193.733 617.229 193.867C616.281 194 615.192 194.067 613.963 194.067H608.074V185.044H609.696V192.578H614.051ZM622.807 199.956V201.489H608.718V195.844H610.34V199.956H622.807ZM639.177 192.111V190.622H642.866V188.111H639.799V186.622H642.866V184.689H644.444V194.133H642.866V192.111H639.177ZM638.999 186.911C638.999 189.148 638.199 190.815 636.599 191.911C634.999 192.993 632.74 193.533 629.821 193.533V192.044C632.236 192.03 634.103 191.622 635.421 190.822C636.74 190.007 637.399 188.785 637.399 187.156V186.6H629.821V185.156H638.999V186.911ZM637.71 194.756C639.784 194.756 641.466 195.037 642.755 195.6C644.044 196.163 644.688 197.044 644.688 198.244C644.688 199.444 644.044 200.326 642.755 200.889C641.466 201.437 639.784 201.711 637.71 201.711C635.636 201.711 633.947 201.437 632.644 200.889C631.355 200.326 630.71 199.444 630.71 198.244C630.71 197.044 631.355 196.163 632.644 195.6C633.932 195.037 635.621 194.756 637.71 194.756ZM637.71 200.311C639.251 200.311 640.518 200.141 641.51 199.8C642.518 199.444 643.021 198.926 643.021 198.244C643.021 197.548 642.518 197.03 641.51 196.689C640.518 196.333 639.251 196.156 637.71 196.156C636.17 196.156 634.895 196.333 633.888 196.689C632.895 197.03 632.399 197.548 632.399 198.244C632.399 198.926 632.895 199.444 633.888 199.8C634.895 200.141 636.17 200.311 637.71 200.311ZM654.952 193.911C653.515 193.911 652.256 193.733 651.175 193.378C650.093 193.022 649.256 192.504 648.663 191.822C648.071 191.141 647.775 190.333 647.775 189.4C647.775 188.467 648.071 187.659 648.663 186.978C649.256 186.296 650.093 185.778 651.175 185.422C652.256 185.067 653.515 184.889 654.952 184.889C656.389 184.889 657.641 185.067 658.708 185.422C659.789 185.778 660.626 186.296 661.219 186.978C661.812 187.659 662.108 188.467 662.108 189.4C662.108 190.333 661.812 191.141 661.219 191.822C660.626 192.504 659.789 193.022 658.708 193.378C657.641 193.733 656.389 193.911 654.952 193.911ZM654.952 186.422C653.293 186.422 651.96 186.681 650.952 187.2C649.96 187.719 649.463 188.452 649.463 189.4C649.463 190.333 649.96 191.067 650.952 191.6C651.96 192.119 653.293 192.378 654.952 192.378C656.597 192.378 657.923 192.119 658.93 191.6C659.938 191.067 660.441 190.333 660.441 189.4C660.441 188.452 659.938 187.719 658.93 187.2C657.938 186.681 656.612 186.422 654.952 186.422ZM655.752 197.178V202.156H654.13V197.178H646.863V195.622H663.041V197.178H655.752ZM684.367 201.756H682.833V184.689H684.367V201.756ZM680.411 184.778V201.467H678.9V196.044H674.856C674.293 197.496 673.53 198.63 672.567 199.444C671.619 200.244 670.522 200.644 669.278 200.644V199.067C670.3 199.052 671.189 198.659 671.945 197.889C672.715 197.119 673.3 196.052 673.7 194.689C674.115 193.311 674.322 191.726 674.322 189.933V186.889H669.278V185.356H675.9V189.089H678.9V184.778H680.411ZM678.9 190.667H675.878C675.804 192.059 675.626 193.333 675.345 194.489H678.9V190.667ZM701.053 191H703.409V192.467H701.053V194.889H699.453V184.689H701.053V186.756H703.409V188.244H701.053V191ZM691.52 194.311C690.513 194.311 689.631 194.111 688.876 193.711C688.12 193.296 687.535 192.733 687.12 192.022C686.72 191.296 686.52 190.489 686.52 189.6C686.52 188.711 686.72 187.911 687.12 187.2C687.535 186.474 688.12 185.911 688.876 185.511C689.631 185.096 690.513 184.889 691.52 184.889C692.527 184.889 693.401 185.096 694.142 185.511C694.898 185.911 695.476 186.467 695.876 187.178C696.29 187.889 696.498 188.696 696.498 189.6C696.498 190.504 696.29 191.311 695.876 192.022C695.476 192.733 694.898 193.296 694.142 193.711C693.401 194.111 692.527 194.311 691.52 194.311ZM691.52 186.311C690.513 186.311 689.698 186.607 689.076 187.2C688.453 187.793 688.142 188.593 688.142 189.6C688.142 190.607 688.453 191.407 689.076 192C689.698 192.593 690.513 192.889 691.52 192.889C692.527 192.889 693.342 192.593 693.964 192C694.587 191.393 694.898 190.593 694.898 189.6C694.898 188.607 694.587 187.815 693.964 187.222C693.342 186.615 692.527 186.311 691.52 186.311ZM701.053 195.889V201.711H699.431V197.378H687.653V195.889H701.053ZM723.512 201.756H721.89V184.689H723.512V201.756ZM715.601 185.178C715.571 187.874 715.342 190.237 714.912 192.267L720.268 199.667L718.979 200.644L714.401 194.222C713.823 196.163 713.053 197.696 712.09 198.822C711.142 199.933 710.038 200.556 708.779 200.689V199.022C709.875 198.83 710.808 198.096 711.579 196.822C712.349 195.533 712.934 193.874 713.334 191.844C713.734 189.815 713.942 187.578 713.957 185.133L715.601 185.178ZM740.643 190.044V194.889H739.043V184.689H740.643V188.444H742.999V190.044H740.643ZM731.576 190.6C731.043 191.652 730.325 192.504 729.421 193.156C728.517 193.793 727.473 194.185 726.288 194.333V192.778C727.695 192.556 728.814 191.911 729.643 190.844C730.473 189.763 730.932 188.363 731.021 186.644H726.488V185.178H736.843V186.644H732.621C732.576 187.578 732.443 188.437 732.221 189.222L737.288 192.933L736.443 194.2L731.576 190.6ZM740.643 195.889V201.711H739.021V197.378H727.043V195.889H740.643ZM761.48 193.089V184.689H763.102V193.089H761.48ZM753.391 184.889C754.398 184.889 755.28 185.059 756.035 185.4C756.791 185.741 757.369 186.207 757.769 186.8C758.169 187.393 758.369 188.074 758.369 188.844C758.369 189.6 758.169 190.281 757.769 190.889C757.369 191.481 756.791 191.948 756.035 192.289C755.28 192.615 754.398 192.778 753.391 192.778C752.369 192.778 751.48 192.615 750.724 192.289C749.983 191.948 749.413 191.481 749.013 190.889C748.613 190.296 748.413 189.615 748.413 188.844C748.413 188.074 748.613 187.393 749.013 186.8C749.413 186.207 749.983 185.741 750.724 185.4C751.48 185.059 752.369 184.889 753.391 184.889ZM753.391 186.267C752.369 186.267 751.546 186.496 750.924 186.956C750.302 187.4 749.991 188.03 749.991 188.844C749.991 189.659 750.302 190.289 750.924 190.733C751.546 191.178 752.369 191.4 753.391 191.4C754.413 191.4 755.235 191.178 755.858 190.733C756.48 190.289 756.791 189.659 756.791 188.844C756.791 188.03 756.48 187.4 755.858 186.956C755.235 186.496 754.413 186.267 753.391 186.267ZM751.28 198.4V200.2H763.546V201.489H749.68V197.2H761.502V195.378H749.635V194.089H763.102V198.4H751.28ZM780.7 201.756H779.077V184.689H780.7V201.756ZM772.789 185.178C772.759 187.874 772.529 190.237 772.1 192.267L777.455 199.667L776.166 200.644L771.589 194.222C771.011 196.163 770.24 197.696 769.277 198.822C768.329 199.933 767.226 200.556 765.966 200.689V199.022C767.063 198.83 767.996 198.096 768.766 196.822C769.537 195.533 770.122 193.874 770.522 191.844C770.922 189.815 771.129 187.578 771.144 185.133L772.789 185.178ZM784.408 193.711V185.022H785.986V187.6H796.653V185.022H798.231V193.711H784.408ZM796.653 189.089H785.986V192.2H796.653V189.089ZM792.142 197.2V202.156H790.497V197.2H783.231V195.644H799.408V197.2H792.142ZM816.006 201.756H814.406V193.356H811.251V191.778H814.406V184.689H816.006V201.756ZM807.939 199.133C808.71 199.133 809.48 199.059 810.251 198.911C811.021 198.763 811.651 198.563 812.139 198.311V199.867C811.651 200.133 811.028 200.341 810.273 200.489C809.517 200.622 808.739 200.689 807.939 200.689H801.739V185.356H811.006V186.911H803.339V192.111H810.073V193.644H803.339V199.133H807.939ZM818.47 202.067C819.211 200.778 819.752 199.407 820.093 197.956C820.448 196.504 820.626 194.926 820.626 193.222C820.626 191.519 820.448 189.941 820.093 188.489C819.752 187.037 819.211 185.667 818.47 184.378H819.782C820.493 185.504 821.033 186.822 821.404 188.333C821.789 189.844 821.982 191.474 821.982 193.222C821.982 194.956 821.789 196.578 821.404 198.089C821.033 199.585 820.493 200.911 819.782 202.067H818.47Z" fill="#333333"/>
</svg>
