<svg width="1920" height="202" viewBox="0 0 1920 202" fill="none" xmlns="http://www.w3.org/2000/svg">
<rect width="1920" height="202" fill="#5DDFDE"/>
<path d="M862.073 30.4781V32.1501H858.958V54.9017H862.073V56.5736H856.893V30.4781H862.073ZM886.089 56.1146H883.729V43.9193H878.811C878.724 47.5254 878.046 50.2574 876.779 52.1151C875.511 53.9509 873.839 54.8689 871.763 54.8689C869.599 54.8689 867.872 53.8854 866.583 51.9184C865.315 49.9514 864.682 47.0555 864.682 43.2308C864.682 39.4061 865.315 36.5102 866.583 34.5432C867.872 32.5762 869.599 31.5927 871.763 31.5927C873.752 31.5927 875.369 32.4342 876.615 34.1171C877.86 35.7999 878.582 38.2915 878.778 41.5916H883.729V30.9371H886.089V56.1146ZM871.763 52.6068C873.183 52.6068 874.32 51.8309 875.172 50.2792C876.025 48.7275 876.451 46.378 876.451 43.2308C876.451 40.1055 876.025 37.7669 875.172 36.2152C874.32 34.6416 873.183 33.8548 871.763 33.8548C870.342 33.8548 869.195 34.6416 868.32 36.2152C867.468 37.7669 867.042 40.1055 867.042 43.2308C867.042 46.378 867.468 48.7275 868.32 50.2792C869.195 51.8309 870.342 52.6068 871.763 52.6068ZM901.592 39.9853C898.51 39.9853 895.997 39.6137 894.052 38.8706C892.107 38.1275 891.134 36.9801 891.134 35.4284C891.134 33.8766 892.096 32.7402 894.019 32.0189C895.964 31.2758 898.489 30.9043 901.592 30.9043C904.696 30.9043 907.209 31.2758 909.132 32.0189C911.055 32.7402 912.017 33.8766 912.017 35.4284C912.017 36.9801 911.045 38.1275 909.099 38.8706C907.176 39.6137 904.674 39.9853 901.592 39.9853ZM901.592 32.8385C899.275 32.8385 897.363 33.0571 895.855 33.4942C894.347 33.9094 893.593 34.5542 893.593 35.4284C893.593 36.3026 894.336 36.9583 895.822 37.3954C897.33 37.8106 899.253 38.0183 901.592 38.0183C903.909 38.0183 905.81 37.8106 907.296 37.3954C908.804 36.9583 909.558 36.3026 909.558 35.4284C909.558 34.5542 908.804 33.9094 907.296 33.4942C905.81 33.0571 903.909 32.8385 901.592 32.8385ZM902.772 46.0174H911.82V51.6561H893.691V53.9509H912.247V55.754H891.396V50.0497H909.493V47.8205H891.331V46.0174H900.412V43.4931H889.659V41.5589H913.525V43.4931H902.772V46.0174ZM935.454 45.6895V30.9371H937.847V45.6895H935.454ZM919.16 39.1001V42.6735H925.488C927.236 42.6735 928.799 42.5751 930.176 42.3784C931.574 42.1599 932.656 41.8648 933.421 41.4933V43.5259C932.656 43.8974 931.563 44.1924 930.143 44.411C928.722 44.6077 927.127 44.7061 925.356 44.7061H916.8V37.1987H928.504V33.6253H916.734V31.6255H930.864V39.1001H919.16ZM917.751 55.7212V47.1648H937.847V55.7212H917.751ZM935.486 49.2301H920.078V53.6559H935.486V49.2301ZM959.472 37.756C958.336 39.0018 956.85 39.9634 955.014 40.6409C953.2 41.3184 951.309 41.6791 949.342 41.7228V39.5919C950.785 39.5481 952.216 39.2859 953.637 38.8051C955.058 38.3024 956.27 37.5921 957.276 36.6741C958.303 35.7562 958.926 34.6744 959.144 33.4286H949.768V31.2977H970.225V33.4286H961.636C961.505 34.3684 961.243 35.2208 960.849 35.9857L970.848 39.8541L970.094 41.8539L959.472 37.756ZM971.93 46.1485H961.177V50.6726H958.817V46.1485H948.064V44.0176H971.93V46.1485ZM970.651 53.5903V55.754H949.801V48.64H952.194V53.5903H970.651ZM996.219 56.1146H993.859V30.9371H996.219V56.1146ZM988.941 31.7239V54.541H975.467V31.7239H977.827V40.6737H986.581V31.7239H988.941ZM986.581 42.9358H977.827V52.2462H986.581V42.9358ZM1028.86 56.1146H1026.5V42.5751H1020.11V40.2475H1026.5V30.9371H1028.86V56.1146ZM1016.3 31.6583C1016.26 35.2208 1016.02 38.3789 1015.58 41.1327L1023.19 53.2297L1021.25 54.6066L1014.86 44.2471C1014.07 47.3506 1012.99 49.7984 1011.62 51.5905C1010.24 53.3608 1008.61 54.3443 1006.73 54.541V52.0495C1008.28 51.7654 1009.59 50.6835 1010.66 48.804C1011.74 46.9244 1012.53 44.4984 1013.06 41.5261C1013.6 38.5319 1013.89 35.2208 1013.91 31.5927L1016.3 31.6583ZM1034.17 33.8876V31.7894H1054.59V39.2968H1036.53V42.7718H1054.98V44.87H1034.2V37.3298H1052.26V33.8876H1034.17ZM1050.2 50.3448V56.7047H1047.84V50.3448H1040.85V56.7047H1038.49V50.3448H1032.43V48.1155H1056.3V50.3448H1050.2ZM1057.93 54.9017H1061.05V32.1501H1057.93V30.4781H1063.08V56.5736H1057.93V54.9017ZM821.969 117H820.1V101.362H816.068V99.7888H821.969V117ZM830.311 117.123C829.934 117.123 829.615 117 829.352 116.754C829.106 116.492 828.983 116.164 828.983 115.771C828.983 115.394 829.106 115.082 829.352 114.836C829.615 114.574 829.934 114.443 830.311 114.443C830.688 114.443 831 114.574 831.246 114.836C831.508 115.082 831.639 115.394 831.639 115.771C831.639 116.164 831.508 116.492 831.246 116.754C831 117 830.688 117.123 830.311 117.123ZM857.74 117.836H855.97V98.9528H857.74V117.836ZM851.274 114.763C852.552 114.566 853.601 114.246 854.421 113.804V115.549C853.798 115.894 852.946 116.164 851.864 116.361C850.798 116.557 849.594 116.656 848.25 116.656H841.488V114.959H843.725V101.387H841.586V99.6904H853.413V101.387H851.274V114.763ZM847.586 114.959C848.307 114.959 848.946 114.935 849.503 114.885V101.387H845.496V114.959H847.586ZM861.696 101.412V99.6658H877.211V112.132H875.391V101.412H861.696ZM878.465 116.877H860.565V115.131H867.425V106.477H869.245V115.131H878.465V116.877ZM897.936 109.452H880.036V107.927H884.093V105.395C883.159 105.116 882.429 104.731 881.905 104.239C881.38 103.747 881.118 103.149 881.118 102.444C881.118 101.248 881.855 100.354 883.331 99.7642C884.806 99.1577 886.691 98.8545 888.986 98.8545C891.281 98.8545 893.157 99.1577 894.616 99.7642C896.092 100.354 896.829 101.248 896.829 102.444C896.829 103.149 896.567 103.747 896.042 104.239C895.518 104.731 894.788 105.116 893.854 105.395V107.927H897.936V109.452ZM888.986 100.379C887.248 100.379 885.806 100.551 884.658 100.895C883.527 101.239 882.962 101.756 882.962 102.444C882.962 103.133 883.527 103.649 884.658 103.993C885.789 104.337 887.232 104.51 888.986 104.51C890.723 104.51 892.158 104.337 893.289 103.993C894.42 103.649 894.985 103.133 894.985 102.444C894.985 101.756 894.411 101.239 893.264 100.895C892.133 100.551 890.707 100.379 888.986 100.379ZM892.084 107.927V105.788C891.199 105.952 890.166 106.034 888.986 106.034C887.822 106.034 886.781 105.952 885.863 105.788V107.927H892.084ZM888.986 111.099C891.313 111.099 893.198 111.361 894.641 111.886C896.083 112.394 896.805 113.246 896.805 114.443C896.805 115.639 896.083 116.5 894.641 117.025C893.198 117.566 891.313 117.836 888.986 117.836C886.658 117.836 884.765 117.566 883.306 117.025C881.864 116.5 881.142 115.639 881.142 114.443C881.142 113.246 881.864 112.394 883.306 111.886C884.765 111.361 886.658 111.099 888.986 111.099ZM888.986 116.336C890.69 116.336 892.108 116.189 893.239 115.894C894.37 115.599 894.936 115.115 894.936 114.443C894.936 113.787 894.37 113.32 893.239 113.041C892.108 112.746 890.69 112.599 888.986 112.599C887.281 112.599 885.855 112.746 884.708 113.041C883.576 113.32 883.011 113.787 883.011 114.443C883.011 115.115 883.576 115.599 884.708 115.894C885.855 116.189 887.281 116.336 888.986 116.336ZM923.129 104.46H920.523V109.402H918.753V98.9528H920.523V102.715H923.129V104.46ZM910.589 104.878C909.999 105.993 909.188 106.911 908.155 107.632C907.139 108.337 905.967 108.78 904.639 108.96V107.263C906.164 107.034 907.385 106.37 908.303 105.272C909.221 104.157 909.737 102.764 909.852 101.092H904.861V99.4937H916.318V101.092H911.647C911.598 101.961 911.466 102.739 911.253 103.428L916.884 107.14L915.999 108.542L910.589 104.878ZM913.196 110.091C915.474 110.091 917.31 110.411 918.703 111.05C920.097 111.673 920.793 112.64 920.793 113.951C920.793 115.262 920.097 116.23 918.703 116.852C917.31 117.475 915.474 117.787 913.196 117.787C910.917 117.787 909.081 117.475 907.688 116.852C906.295 116.23 905.598 115.262 905.598 113.951C905.598 112.64 906.295 111.673 907.688 111.05C909.081 110.411 910.917 110.091 913.196 110.091ZM913.196 116.238C914.884 116.238 916.261 116.041 917.326 115.648C918.392 115.254 918.925 114.689 918.925 113.951C918.925 113.197 918.392 112.623 917.326 112.23C916.261 111.837 914.884 111.64 913.196 111.64C911.507 111.64 910.13 111.837 909.065 112.23C908 112.623 907.467 113.197 907.467 113.951C907.467 114.689 908 115.254 909.065 115.648C910.13 116.041 911.507 116.238 913.196 116.238ZM941.002 117.836H939.305V108.468H936.059V117.516H934.388V99.0512H936.059V106.698H939.305V98.9528H941.002V117.836ZM928.265 99.4446C929.642 99.4446 930.675 100.158 931.363 101.584C932.052 103.01 932.396 105.206 932.396 108.173C932.396 111.156 932.052 113.361 931.363 114.787C930.675 116.197 929.642 116.902 928.265 116.902C926.905 116.902 925.872 116.197 925.167 114.787C924.479 113.361 924.135 111.156 924.135 108.173C924.135 102.354 925.511 99.4446 928.265 99.4446ZM928.265 115.205C929.085 115.205 929.691 114.631 930.085 113.484C930.495 112.32 930.699 110.55 930.699 108.173C930.699 105.796 930.495 104.034 930.085 102.887C929.691 101.723 929.085 101.141 928.265 101.141C927.446 101.141 926.831 101.723 926.421 102.887C926.028 104.034 925.831 105.796 925.831 108.173C925.831 110.55 926.028 112.32 926.421 113.484C926.831 114.631 927.446 115.205 928.265 115.205ZM958.186 112.992V98.9528H959.98V112.992H958.186ZM949.187 99.1741C950.334 99.1741 951.334 99.4118 952.186 99.8871C953.039 100.346 953.686 100.994 954.129 101.83C954.588 102.649 954.817 103.583 954.817 104.633C954.817 105.682 954.588 106.624 954.129 107.46C953.686 108.28 953.039 108.927 952.186 109.402C951.334 109.861 950.334 110.091 949.187 110.091C948.039 110.091 947.039 109.861 946.187 109.402C945.335 108.927 944.679 108.28 944.22 107.46C943.761 106.624 943.531 105.682 943.531 104.633C943.531 103.583 943.761 102.649 944.22 101.83C944.679 100.994 945.335 100.346 946.187 99.8871C947.039 99.4118 948.039 99.1741 949.187 99.1741ZM949.187 100.748C948.023 100.748 947.088 101.1 946.384 101.805C945.679 102.51 945.326 103.452 945.326 104.633C945.326 105.813 945.679 106.755 946.384 107.46C947.088 108.149 948.023 108.493 949.187 108.493C950.35 108.493 951.285 108.149 951.99 107.46C952.694 106.755 953.047 105.813 953.047 104.633C953.047 103.452 952.694 102.51 951.99 101.805C951.285 101.1 950.35 100.748 949.187 100.748ZM960.497 115.844V117.541H945.105V111.443H946.9V115.844H960.497ZM982.445 106.452V100.871H968.872V99.2233H984.215V106.452H982.445ZM967.643 109.427V107.78H985.543V109.427H967.643ZM984.584 115.943V117.566H968.946V111.468H970.741V115.943H984.584ZM1005.01 116.877H987.114V115.181H995.129V111.296H988.392V104.657H1002.04V101.362H988.368V99.6904H1003.81V106.28H990.138V109.624H1004.08V111.296H996.9V115.181H1005.01V116.877ZM1022.74 108.542V117.836H1020.97V98.9528H1022.74V106.772H1025.34V108.542H1022.74ZM1013.81 101.412C1013.78 103.788 1013.6 105.886 1013.27 107.706L1019.15 115.402L1017.75 116.484L1012.71 109.82C1012.12 111.837 1011.32 113.435 1010.32 114.615C1009.32 115.779 1008.16 116.459 1006.83 116.656V114.812C1007.9 114.582 1008.81 113.869 1009.58 112.673C1010.35 111.46 1010.94 109.886 1011.35 107.952C1011.78 106.018 1012.01 103.838 1012.04 101.412H1007.22V99.6904H1018.51V101.412H1013.81ZM1049.68 106.009H1047.12V113.312H1045.33V98.9528H1047.12V104.264H1049.68V106.009ZM1031.83 100.944V99.297H1041.88V106.624H1040.11V100.944H1031.83ZM1043.73 109.329C1042.66 109.837 1040.6 110.091 1037.53 110.091H1030.92V108.468H1034.65V103.772H1036.42V108.468H1037.61C1040.56 108.468 1042.6 108.214 1043.73 107.706V109.329ZM1047.66 115.918V117.541H1032.25V112.083H1034.02V115.918H1047.66ZM1061.94 107.19V105.591H1065.41V103.108H1061.94V101.485H1065.41V98.9528H1067.18V113.066H1065.41V107.19H1061.94ZM1058.9 100.994H1051.15V99.4691H1060.64V105.641H1052.95V108.837H1057C1058.3 108.837 1059.48 108.771 1060.54 108.64C1061.61 108.509 1062.41 108.329 1062.95 108.099V109.599C1062.43 109.829 1061.62 110.017 1060.52 110.165C1059.44 110.296 1058.22 110.361 1056.85 110.361H1051.2V104.165H1058.9V100.994ZM1067.6 117.541H1052.06V112.205H1053.9V115.844H1067.6V117.541ZM1091.51 117.836H1089.74V107.681H1084.95V105.936H1089.74V98.9528H1091.51V117.836ZM1082.1 99.4937C1082.06 102.166 1081.88 104.534 1081.56 106.6L1087.26 115.672L1085.81 116.705L1081.02 108.935C1080.43 111.263 1079.61 113.099 1078.58 114.443C1077.55 115.771 1076.33 116.508 1074.92 116.656V114.787C1076.08 114.574 1077.07 113.763 1077.87 112.353C1078.67 110.943 1079.27 109.124 1079.66 106.895C1080.07 104.649 1080.29 102.166 1080.3 99.4446L1082.1 99.4937ZM1095.49 101.166V99.5921H1110.81V105.223H1097.27V107.829H1111.11V109.402H1095.52V103.747H1109.07V101.166H1095.49ZM1107.52 113.509V118.279H1105.75V113.509H1100.51V118.279H1098.74V113.509H1094.19V111.837H1112.09V113.509H1107.52ZM845.841 144H833.744V142.746L840.874 135.714C841.776 134.829 842.382 134.067 842.693 133.427C843.005 132.788 843.161 132.132 843.161 131.46C843.161 130.461 842.816 129.674 842.128 129.1C841.44 128.526 840.456 128.239 839.177 128.239C837.161 128.239 835.62 128.895 834.555 130.206L833.203 129.223C833.858 128.387 834.703 127.748 835.735 127.305C836.784 126.846 837.981 126.617 839.325 126.617C841.063 126.617 842.448 127.043 843.48 127.895C844.529 128.731 845.054 129.87 845.054 131.313C845.054 132.198 844.849 133.05 844.439 133.87C844.046 134.673 843.308 135.599 842.226 136.648L836.448 142.402H845.841V144ZM849.782 144.123C849.405 144.123 849.085 144 848.823 143.754C848.577 143.492 848.454 143.164 848.454 142.771C848.454 142.394 848.577 142.082 848.823 141.836C849.085 141.574 849.405 141.443 849.782 141.443C850.159 141.443 850.47 141.574 850.716 141.836C850.978 142.082 851.11 142.394 851.11 142.771C851.11 143.164 850.978 143.492 850.716 143.754C850.47 144 850.159 144.123 849.782 144.123ZM877.358 144.836H875.588V135.689H871.9C871.834 138.394 871.326 140.443 870.376 141.836C869.425 143.213 868.171 143.902 866.614 143.902C864.991 143.902 863.696 143.164 862.729 141.689C861.778 140.214 861.303 138.042 861.303 135.173C861.303 132.305 861.778 130.133 862.729 128.657C863.696 127.182 864.991 126.445 866.614 126.445C868.105 126.445 869.318 127.076 870.253 128.338C871.187 129.6 871.728 131.469 871.875 133.944H875.588V125.953H877.358V144.836ZM866.614 142.205C867.679 142.205 868.532 141.623 869.171 140.459C869.81 139.296 870.13 137.533 870.13 135.173C870.13 132.829 869.81 131.075 869.171 129.911C868.532 128.731 867.679 128.141 866.614 128.141C865.548 128.141 864.688 128.731 864.032 129.911C863.393 131.075 863.073 132.829 863.073 135.173C863.073 137.533 863.393 139.296 864.032 140.459C864.688 141.623 865.548 142.205 866.614 142.205ZM888.986 132.739C886.675 132.739 884.789 132.46 883.331 131.903C881.872 131.346 881.142 130.485 881.142 129.321C881.142 128.157 881.864 127.305 883.306 126.764C884.765 126.207 886.658 125.928 888.986 125.928C891.313 125.928 893.198 126.207 894.641 126.764C896.083 127.305 896.805 128.157 896.805 129.321C896.805 130.485 896.075 131.346 894.616 131.903C893.174 132.46 891.297 132.739 888.986 132.739ZM888.986 127.379C887.248 127.379 885.814 127.543 884.683 127.871C883.552 128.182 882.986 128.666 882.986 129.321C882.986 129.977 883.544 130.469 884.658 130.797C885.789 131.108 887.232 131.264 888.986 131.264C890.723 131.264 892.149 131.108 893.264 130.797C894.395 130.469 894.96 129.977 894.96 129.321C894.96 128.666 894.395 128.182 893.264 127.871C892.149 127.543 890.723 127.379 888.986 127.379ZM889.871 137.263H896.657V141.492H883.06V143.213H896.977V144.566H881.339V140.287H894.911V138.615H881.29V137.263H888.101V135.37H880.036V133.919H897.936V135.37H889.871V137.263ZM914.382 137.017V125.953H916.177V137.017H914.382ZM902.162 132.075V134.755H906.907C908.219 134.755 909.391 134.681 910.423 134.534C911.472 134.37 912.284 134.149 912.858 133.87V135.394C912.284 135.673 911.464 135.894 910.399 136.058C909.333 136.206 908.137 136.28 906.809 136.28H900.392V130.649H909.169V127.969H900.343V126.469H910.94V132.075H902.162ZM901.105 144.541V138.124H916.177V144.541H901.105ZM914.407 139.673H902.85V142.992H914.407V139.673ZM932.322 130.944C931.453 131.796 930.306 132.46 928.88 132.936C927.47 133.395 926.036 133.64 924.577 133.673V132.198C925.577 132.165 926.577 132.01 927.577 131.731C928.593 131.436 929.486 131.026 930.257 130.501C931.044 129.977 931.585 129.346 931.88 128.608H924.946V127.133H931.904V125.191H933.699V127.133H940.633V128.608H933.871C933.773 129.034 933.617 129.411 933.404 129.739L941.051 132.296L940.559 133.698L932.322 130.944ZM941.739 136.87H923.84V135.37H931.904V133.034H933.674V135.37H941.739V136.87ZM932.789 138.591C935.117 138.591 937.002 138.837 938.444 139.328C939.903 139.804 940.633 140.599 940.633 141.713C940.633 142.828 939.912 143.623 938.469 144.098C937.027 144.59 935.133 144.836 932.789 144.836C930.445 144.836 928.544 144.59 927.085 144.098C925.643 143.623 924.921 142.828 924.921 141.713C924.921 140.599 925.643 139.804 927.085 139.328C928.544 138.837 930.445 138.591 932.789 138.591ZM932.789 143.385C934.494 143.385 935.92 143.254 937.068 142.992C938.231 142.73 938.813 142.303 938.813 141.713C938.813 141.123 938.24 140.705 937.092 140.459C935.945 140.197 934.51 140.066 932.789 140.066C931.068 140.066 929.626 140.197 928.462 140.459C927.315 140.705 926.741 141.123 926.741 141.713C926.741 142.303 927.323 142.73 928.487 142.992C929.65 143.254 931.085 143.385 932.789 143.385ZM965.334 144.836H963.638V135.468H960.392V144.516H958.72V126.051H960.392V133.698H963.638V125.953H965.334V144.836ZM956.385 126.69V143.656H948.787V126.69H956.385ZM954.688 141.959V128.387H950.459V141.959H954.688ZM976.101 130.674C975.249 131.428 974.126 132.001 972.733 132.395C971.356 132.788 969.905 133.001 968.381 133.034V131.608C970.053 131.559 971.602 131.272 973.028 130.747C974.454 130.206 975.355 129.436 975.732 128.436H968.75V127.01H975.708V125.191H977.503V127.01H984.436V128.436H977.675C977.626 128.731 977.494 129.084 977.281 129.493L984.83 131.657L984.363 133.059L976.101 130.674ZM977.478 137.607H984.264V141.64H970.667V143.262H984.584V144.566H968.946V140.484H982.543V138.886H968.897V137.607H975.708V135.788H967.643V134.337H985.543V135.788H977.478V137.607ZM1004.28 137.607H1002.58V132.173H999.334V137.411H997.662V126.051H999.334V130.428H1002.58V125.953H1004.28V137.607ZM991.564 137.066C990.253 137.066 989.237 136.575 988.515 135.591C987.81 134.608 987.458 133.272 987.458 131.583C987.458 129.911 987.81 128.584 988.515 127.6C989.237 126.617 990.253 126.125 991.564 126.125C992.875 126.125 993.884 126.617 994.588 127.6C995.31 128.584 995.67 129.911 995.67 131.583C995.67 133.272 995.31 134.608 994.588 135.591C993.884 136.575 992.875 137.066 991.564 137.066ZM991.564 127.699C990.794 127.699 990.195 128.035 989.769 128.707C989.343 129.379 989.13 130.338 989.13 131.583C989.13 132.829 989.343 133.788 989.769 134.46C990.195 135.132 990.794 135.468 991.564 135.468C992.335 135.468 992.933 135.132 993.359 134.46C993.785 133.788 993.998 132.829 993.998 131.583C993.998 130.338 993.785 129.379 993.359 128.707C992.933 128.035 992.335 127.699 991.564 127.699ZM1004.28 138.714V144.787H1002.51V140.336H988.786V138.714H1004.28ZM1011.55 128.928V127.502H1016.56V125.436H1018.36V127.502H1023.54V128.928H1011.55ZM1027.65 132.911V138.886H1025.88V125.953H1027.65V131.165H1030.21V132.911H1027.65ZM1024.26 137.681C1023.72 137.927 1022.9 138.115 1021.8 138.247C1020.7 138.361 1019.44 138.419 1018.01 138.419H1011.45V136.968H1016.61V135.468C1015.3 135.386 1014.27 135.099 1013.51 134.608C1012.76 134.099 1012.38 133.46 1012.38 132.69C1012.38 131.821 1012.84 131.133 1013.76 130.624C1014.69 130.116 1015.95 129.862 1017.52 129.862C1019.08 129.862 1020.31 130.116 1021.23 130.624C1022.17 131.133 1022.63 131.821 1022.63 132.69C1022.63 133.46 1022.26 134.099 1021.5 134.608C1020.75 135.099 1019.7 135.394 1018.36 135.493V136.968C1021.24 136.935 1023.21 136.681 1024.26 136.206V137.681ZM1014.05 132.69C1014.05 133.132 1014.36 133.493 1014.99 133.772C1015.63 134.034 1016.47 134.165 1017.52 134.165C1018.55 134.165 1019.38 134.034 1020 133.772C1020.64 133.493 1020.96 133.132 1020.96 132.69C1020.96 132.264 1020.64 131.911 1020 131.633C1019.38 131.354 1018.55 131.215 1017.52 131.215C1016.47 131.215 1015.63 131.354 1014.99 131.633C1014.36 131.911 1014.05 132.264 1014.05 132.69ZM1027.65 139.992V144.787H1025.85V141.467H1012.68V139.992H1027.65ZM1045.79 139.992V125.953H1047.59V139.992H1045.79ZM1036.79 126.174C1037.94 126.174 1038.94 126.412 1039.79 126.887C1040.65 127.346 1041.29 127.994 1041.74 128.83C1042.19 129.649 1042.42 130.583 1042.42 131.633C1042.42 132.682 1042.19 133.624 1041.74 134.46C1041.29 135.28 1040.65 135.927 1039.79 136.402C1038.94 136.861 1037.94 137.091 1036.79 137.091C1035.65 137.091 1034.65 136.861 1033.79 136.402C1032.94 135.927 1032.29 135.28 1031.83 134.46C1031.37 133.624 1031.14 132.682 1031.14 131.633C1031.14 130.583 1031.37 129.649 1031.83 128.83C1032.29 127.994 1032.94 127.346 1033.79 126.887C1034.65 126.412 1035.65 126.174 1036.79 126.174ZM1036.79 127.748C1035.63 127.748 1034.7 128.1 1033.99 128.805C1033.29 129.51 1032.93 130.452 1032.93 131.633C1032.93 132.813 1033.29 133.755 1033.99 134.46C1034.7 135.149 1035.63 135.493 1036.79 135.493C1037.96 135.493 1038.89 135.149 1039.6 134.46C1040.3 133.755 1040.65 132.813 1040.65 131.633C1040.65 130.452 1040.3 129.51 1039.6 128.805C1038.89 128.1 1037.96 127.748 1036.79 127.748ZM1048.1 142.844V144.541H1032.71V138.443H1034.51V142.844H1048.1ZM1072.04 144.836H1070.27V134.681H1065.48V132.936H1070.27V125.953H1072.04V144.836ZM1062.63 126.494C1062.59 129.166 1062.41 131.534 1062.09 133.6L1067.79 142.672L1066.34 143.705L1061.54 135.935C1060.95 138.263 1060.14 140.099 1059.11 141.443C1058.08 142.771 1056.86 143.508 1055.45 143.656V141.787C1056.61 141.574 1057.59 140.763 1058.4 139.353C1059.2 137.943 1059.8 136.124 1060.19 133.895C1060.6 131.649 1060.82 129.166 1060.83 126.445L1062.63 126.494ZM1076.02 128.166V126.592H1091.34V132.223H1077.79V134.829H1091.64V136.402H1076.05V130.747H1089.6V128.166H1076.02ZM1088.05 140.509V145.279H1086.28V140.509H1081.04V145.279H1079.27V140.509H1074.72V138.837H1092.62V140.509H1088.05ZM795.228 161.19C797.032 161.272 798.408 161.755 799.359 162.64C800.31 163.509 800.785 164.648 800.785 166.058C800.785 167.041 800.548 167.918 800.072 168.689C799.597 169.459 798.892 170.066 797.958 170.508C797.023 170.951 795.884 171.172 794.54 171.172C793.294 171.172 792.114 170.975 790.999 170.582C789.901 170.172 789.024 169.631 788.369 168.959L789.18 167.558C789.754 168.148 790.508 168.631 791.442 169.008C792.393 169.369 793.409 169.549 794.491 169.549C795.917 169.549 797.007 169.238 797.761 168.615C798.531 167.992 798.917 167.14 798.917 166.058C798.917 164.976 798.531 164.132 797.761 163.525C797.007 162.919 795.851 162.616 794.294 162.616H793.065V161.362L797.81 155.362H789.032V153.789H800.097V155.043L795.228 161.19ZM805.071 171.123C804.694 171.123 804.374 171 804.112 170.754C803.866 170.492 803.743 170.164 803.743 169.771C803.743 169.394 803.866 169.082 804.112 168.836C804.374 168.574 804.694 168.443 805.071 168.443C805.448 168.443 805.759 168.574 806.005 168.836C806.267 169.082 806.398 169.394 806.398 169.771C806.398 170.164 806.267 170.492 806.005 170.754C805.759 171 805.448 171.123 805.071 171.123ZM830.902 156.961H827.631L827.508 155.289H830.902V152.953H832.647V167.017H830.902V162.05H827.508L827.631 160.378H830.902V156.961ZM827.041 158.633C827.041 159.682 826.82 160.624 826.377 161.46C825.935 162.28 825.296 162.927 824.46 163.402C823.64 163.861 822.665 164.091 821.534 164.091C820.419 164.091 819.444 163.861 818.608 163.402C817.772 162.927 817.133 162.28 816.69 161.46C816.247 160.624 816.026 159.682 816.026 158.633C816.026 157.583 816.247 156.649 816.69 155.83C817.133 154.994 817.772 154.346 818.608 153.887C819.444 153.412 820.419 153.174 821.534 153.174C822.665 153.174 823.64 153.412 824.46 153.887C825.296 154.346 825.935 154.994 826.377 155.83C826.82 156.649 827.041 157.583 827.041 158.633ZM817.796 158.633C817.796 159.813 818.132 160.755 818.804 161.46C819.493 162.149 820.403 162.493 821.534 162.493C822.681 162.493 823.591 162.149 824.263 161.46C824.935 160.755 825.271 159.813 825.271 158.633C825.271 157.452 824.935 156.51 824.263 155.805C823.591 155.1 822.681 154.748 821.534 154.748C820.403 154.748 819.493 155.1 818.804 155.805C818.132 156.51 817.796 157.452 817.796 158.633ZM833.065 171.541H817.747V165.443H819.542V169.844H833.065V171.541ZM852.487 171.836H850.79V152.953H852.487V171.836ZM848.11 153.051V171.516H846.438V165.517H841.963C841.34 167.123 840.496 168.377 839.431 169.279C838.382 170.164 837.169 170.607 835.792 170.607V168.861C836.923 168.844 837.906 168.41 838.742 167.558C839.595 166.705 840.242 165.525 840.685 164.017C841.144 162.493 841.373 160.739 841.373 158.755V155.387H835.792V153.69H843.119V157.821H846.438V153.051H848.11ZM846.438 159.567H843.094C843.012 161.108 842.816 162.517 842.504 163.796H846.438V159.567ZM855.926 155.412V153.666H871.441V166.132H869.622V155.412H855.926ZM872.695 170.877H854.795V169.131H861.655V160.477H863.475V169.131H872.695V170.877ZM892.166 163.452H874.266V161.927H878.323V159.395C877.389 159.116 876.659 158.731 876.135 158.239C875.61 157.747 875.348 157.149 875.348 156.444C875.348 155.248 876.085 154.354 877.561 153.764C879.036 153.158 880.921 152.854 883.216 152.854C885.511 152.854 887.388 153.158 888.846 153.764C890.322 154.354 891.059 155.248 891.059 156.444C891.059 157.149 890.797 157.747 890.272 158.239C889.748 158.731 889.018 159.116 888.084 159.395V161.927H892.166V163.452ZM883.216 154.379C881.478 154.379 880.036 154.551 878.888 154.895C877.757 155.239 877.192 155.756 877.192 156.444C877.192 157.133 877.757 157.649 878.888 157.993C880.019 158.337 881.462 158.51 883.216 158.51C884.953 158.51 886.388 158.337 887.519 157.993C888.65 157.649 889.215 157.133 889.215 156.444C889.215 155.756 888.641 155.239 887.494 154.895C886.363 154.551 884.937 154.379 883.216 154.379ZM886.314 161.927V159.788C885.429 159.952 884.396 160.034 883.216 160.034C882.052 160.034 881.011 159.952 880.093 159.788V161.927H886.314ZM883.216 165.099C885.543 165.099 887.428 165.361 888.871 165.886C890.313 166.394 891.035 167.246 891.035 168.443C891.035 169.639 890.313 170.5 888.871 171.025C887.428 171.566 885.543 171.836 883.216 171.836C880.888 171.836 878.995 171.566 877.536 171.025C876.094 170.5 875.372 169.639 875.372 168.443C875.372 167.246 876.094 166.394 877.536 165.886C878.995 165.361 880.888 165.099 883.216 165.099ZM883.216 170.336C884.921 170.336 886.338 170.189 887.469 169.894C888.6 169.599 889.166 169.115 889.166 168.443C889.166 167.787 888.6 167.32 887.469 167.041C886.338 166.746 884.921 166.599 883.216 166.599C881.511 166.599 880.085 166.746 878.938 167.041C877.807 167.32 877.241 167.787 877.241 168.443C877.241 169.115 877.807 169.599 878.938 169.894C880.085 170.189 881.511 170.336 883.216 170.336ZM915.761 171.836H914.064V152.953H915.761V171.836ZM911.384 153.051V171.516H909.712V165.517H905.238C904.615 167.123 903.771 168.377 902.705 169.279C901.656 170.164 900.443 170.607 899.066 170.607V168.861C900.197 168.844 901.181 168.41 902.017 167.558C902.869 166.705 903.516 165.525 903.959 164.017C904.418 162.493 904.647 160.739 904.647 158.755V155.387H899.066V153.69H906.393V157.821H909.712V153.051H911.384ZM909.712 159.567H906.369C906.287 161.108 906.09 162.517 905.778 163.796H909.712V159.567ZM934.224 159.936H936.83V161.558H934.224V164.238H932.453V152.953H934.224V155.239H936.83V156.887H934.224V159.936ZM923.676 163.599C922.561 163.599 921.586 163.378 920.75 162.935C919.914 162.476 919.266 161.853 918.807 161.067C918.365 160.263 918.143 159.37 918.143 158.387C918.143 157.403 918.365 156.518 918.807 155.731C919.266 154.928 919.914 154.305 920.75 153.863C921.586 153.404 922.561 153.174 923.676 153.174C924.79 153.174 925.757 153.404 926.577 153.863C927.413 154.305 928.052 154.92 928.495 155.707C928.954 156.493 929.183 157.387 929.183 158.387C929.183 159.387 928.954 160.28 928.495 161.067C928.052 161.853 927.413 162.476 926.577 162.935C925.757 163.378 924.79 163.599 923.676 163.599ZM923.676 154.748C922.561 154.748 921.659 155.076 920.971 155.731C920.282 156.387 919.938 157.272 919.938 158.387C919.938 159.501 920.282 160.386 920.971 161.042C921.659 161.698 922.561 162.026 923.676 162.026C924.79 162.026 925.692 161.698 926.38 161.042C927.069 160.37 927.413 159.485 927.413 158.387C927.413 157.288 927.069 156.411 926.38 155.756C925.692 155.084 924.79 154.748 923.676 154.748ZM934.224 165.345V171.787H932.429V166.992H919.397V165.345H934.224ZM954.334 171.836H952.563V161.681H947.769V159.936H952.563V152.953H954.334V171.836ZM944.917 153.494C944.884 156.166 944.703 158.534 944.376 160.6L950.08 169.672L948.629 170.705L943.835 162.935C943.245 165.263 942.433 167.099 941.401 168.443C940.368 169.771 939.147 170.508 937.737 170.656V168.787C938.901 168.574 939.884 167.763 940.687 166.353C941.491 164.943 942.089 163.124 942.482 160.895C942.892 158.649 943.105 156.166 943.122 153.445L944.917 153.494ZM965.684 172.18C964.897 170.902 964.291 169.435 963.865 167.779C963.439 166.107 963.226 164.312 963.226 162.394C963.226 160.477 963.439 158.682 963.865 157.01C964.291 155.321 964.897 153.854 965.684 152.609H967.16C966.34 154.035 965.733 155.551 965.34 157.157C964.947 158.764 964.75 160.509 964.75 162.394C964.75 164.279 964.947 166.025 965.34 167.632C965.733 169.238 966.34 170.754 967.16 172.18H965.684ZM983.642 171.836V152.953H985.437V171.836H983.642ZM979.536 158.116C979.536 160.624 979.135 162.821 978.331 164.706C977.528 166.574 976.381 168.025 974.889 169.058C973.414 170.09 971.668 170.607 969.652 170.607V168.836C971.308 168.836 972.742 168.402 973.955 167.533C975.168 166.664 976.094 165.435 976.733 163.845C977.389 162.239 977.717 160.354 977.717 158.19V155.387H969.652V153.69H979.536V158.116ZM1006.14 165.124H988.238V163.525H996.302V161.116H989.59V153.1H991.336V155.559H1003.04V153.1H1004.81V161.116H998.072V163.525H1006.14V165.124ZM1003.04 159.616V157.01H991.336V159.616H1003.04ZM1005.18 169.967V171.566H989.541V166.599H991.336V169.967H1005.18ZM1024.87 171.836H1023.17V152.953H1024.87V171.836ZM1020.49 153.051V171.516H1018.82V165.517H1014.35C1013.72 167.123 1012.88 168.377 1011.81 169.279C1010.77 170.164 1009.55 170.607 1008.18 170.607V168.861C1009.31 168.844 1010.29 168.41 1011.13 167.558C1011.98 166.705 1012.63 165.525 1013.07 164.017C1013.53 162.493 1013.76 160.739 1013.76 158.755V155.387H1008.18V153.69H1015.5V157.821H1018.82V153.051H1020.49ZM1018.82 159.567H1015.48C1015.4 161.108 1015.2 162.517 1014.89 163.796H1018.82V159.567ZM1043.33 159.936H1045.94V161.558H1043.33V164.238H1041.56V152.953H1043.33V155.239H1045.94V156.887H1043.33V159.936ZM1032.78 163.599C1031.67 163.599 1030.69 163.378 1029.86 162.935C1029.02 162.476 1028.38 161.853 1027.92 161.067C1027.47 160.263 1027.25 159.37 1027.25 158.387C1027.25 157.403 1027.47 156.518 1027.92 155.731C1028.38 154.928 1029.02 154.305 1029.86 153.863C1030.69 153.404 1031.67 153.174 1032.78 153.174C1033.9 153.174 1034.87 153.404 1035.69 153.863C1036.52 154.305 1037.16 154.92 1037.6 155.707C1038.06 156.493 1038.29 157.387 1038.29 158.387C1038.29 159.387 1038.06 160.28 1037.6 161.067C1037.16 161.853 1036.52 162.476 1035.69 162.935C1034.87 163.378 1033.9 163.599 1032.78 163.599ZM1032.78 154.748C1031.67 154.748 1030.77 155.076 1030.08 155.731C1029.39 156.387 1029.05 157.272 1029.05 158.387C1029.05 159.501 1029.39 160.386 1030.08 161.042C1030.77 161.698 1031.67 162.026 1032.78 162.026C1033.9 162.026 1034.8 161.698 1035.49 161.042C1036.18 160.37 1036.52 159.485 1036.52 158.387C1036.52 157.288 1036.18 156.411 1035.49 155.756C1034.8 155.084 1033.9 154.748 1032.78 154.748ZM1043.33 165.345V171.787H1041.54V166.992H1028.51V165.345H1043.33ZM1063.44 171.836H1061.67V161.681H1056.88V159.936H1061.67V152.953H1063.44V171.836ZM1054.03 153.494C1053.99 156.166 1053.81 158.534 1053.48 160.6L1059.19 169.672L1057.74 170.705L1052.94 162.935C1052.35 165.263 1051.54 167.099 1050.51 168.443C1049.48 169.771 1048.26 170.508 1046.85 170.656V168.787C1048.01 168.574 1048.99 167.763 1049.8 166.353C1050.6 164.943 1051.2 163.124 1051.59 160.895C1052 158.649 1052.21 156.166 1052.23 153.445L1054.03 153.494ZM1073.57 151.969L1066.27 172.819H1064.77L1072.07 151.969H1073.57ZM1089.73 159.936H1092.34V161.558H1089.73V164.238H1087.96V152.953H1089.73V155.239H1092.34V156.887H1089.73V159.936ZM1079.18 163.599C1078.07 163.599 1077.09 163.378 1076.26 162.935C1075.42 162.476 1074.77 161.853 1074.31 161.067C1073.87 160.263 1073.65 159.37 1073.65 158.387C1073.65 157.403 1073.87 156.518 1074.31 155.731C1074.77 154.928 1075.42 154.305 1076.26 153.863C1077.09 153.404 1078.07 153.174 1079.18 153.174C1080.3 153.174 1081.26 153.404 1082.08 153.863C1082.92 154.305 1083.56 154.92 1084 155.707C1084.46 156.493 1084.69 157.387 1084.69 158.387C1084.69 159.387 1084.46 160.28 1084 161.067C1083.56 161.853 1082.92 162.476 1082.08 162.935C1081.26 163.378 1080.3 163.599 1079.18 163.599ZM1079.18 154.748C1078.07 154.748 1077.17 155.076 1076.48 155.731C1075.79 156.387 1075.44 157.272 1075.44 158.387C1075.44 159.501 1075.79 160.386 1076.48 161.042C1077.17 161.698 1078.07 162.026 1079.18 162.026C1080.3 162.026 1081.2 161.698 1081.89 161.042C1082.57 160.37 1082.92 159.485 1082.92 158.387C1082.92 157.288 1082.57 156.411 1081.89 155.756C1081.2 155.084 1080.3 154.748 1079.18 154.748ZM1089.73 165.345V171.787H1087.93V166.992H1074.9V165.345H1089.73ZM1108.07 152.953H1109.84V163.575H1108.07V158.264H1104.38V156.641H1108.07V152.953ZM1099.32 159.05C1098.73 160.132 1097.92 161.017 1096.91 161.706C1095.89 162.378 1094.73 162.796 1093.42 162.96V161.288C1094.96 161.042 1096.18 160.378 1097.08 159.296C1098 158.198 1098.52 156.797 1098.65 155.092H1093.64V153.494H1105.12V155.092H1100.45C1100.4 155.993 1100.25 156.813 1100 157.551L1105.71 161.386L1104.8 162.788L1099.32 159.05ZM1102.32 164.263C1104.63 164.263 1106.48 164.574 1107.87 165.197C1109.28 165.804 1109.99 166.746 1109.99 168.025C1109.99 169.303 1109.28 170.254 1107.87 170.877C1106.48 171.484 1104.63 171.787 1102.32 171.787C1100 171.787 1098.15 171.484 1096.76 170.877C1095.37 170.254 1094.67 169.303 1094.67 168.025C1094.67 166.746 1095.37 165.804 1096.76 165.197C1098.15 164.574 1100 164.263 1102.32 164.263ZM1102.32 170.238C1104.04 170.238 1105.43 170.049 1106.5 169.672C1107.58 169.295 1108.12 168.746 1108.12 168.025C1108.12 167.304 1107.58 166.755 1106.5 166.378C1105.41 166.001 1104.02 165.812 1102.32 165.812C1100.61 165.812 1099.22 166.001 1098.14 166.378C1097.07 166.755 1096.54 167.304 1096.54 168.025C1096.54 168.746 1097.07 169.295 1098.14 169.672C1099.22 170.049 1100.61 170.238 1102.32 170.238ZM1129.31 171.836H1127.54V161.681H1122.75V159.936H1127.54V152.953H1129.31V171.836ZM1119.89 153.494C1119.86 156.166 1119.68 158.534 1119.35 160.6L1125.06 169.672L1123.61 170.705L1118.81 162.935C1118.22 165.263 1117.41 167.099 1116.38 168.443C1115.34 169.771 1114.12 170.508 1112.71 170.656V168.787C1113.88 168.574 1114.86 167.763 1115.66 166.353C1116.47 164.943 1117.07 163.124 1117.46 160.895C1117.87 158.649 1118.08 156.166 1118.1 153.445L1119.89 153.494ZM1132.04 172.18C1132.86 170.754 1133.45 169.238 1133.83 167.632C1134.23 166.025 1134.42 164.279 1134.42 162.394C1134.42 160.509 1134.23 158.764 1133.83 157.157C1133.45 155.551 1132.86 154.035 1132.04 152.609H1133.49C1134.27 153.854 1134.87 155.313 1135.28 156.985C1135.71 158.657 1135.92 160.46 1135.92 162.394C1135.92 164.312 1135.71 166.107 1135.28 167.779C1134.87 169.435 1134.27 170.902 1133.49 172.18H1132.04Z" fill="#333333"/>
</svg>
