<svg width="800" height="56" viewBox="0 0 800 56" fill="none" xmlns="http://www.w3.org/2000/svg">
<path d="M18.7582 0.288888V6.64444H12.7693V42.5778H18.7582V48.9333H4.70266V0.288888H18.7582ZM36.7182 46.7333C33.5404 46.7333 30.4441 46.2852 27.4293 45.3889C24.4552 44.4519 22.0515 43.25 20.2182 41.7833L23.396 34.3278C25.1478 35.6722 27.2256 36.7519 29.6293 37.5667C32.033 38.3815 34.4163 38.7889 36.7793 38.7889C39.4682 38.7889 41.4441 38.3815 42.7071 37.5667C44.0108 36.7111 44.6626 35.5907 44.6626 34.2056C44.6626 33.187 44.2756 32.3519 43.5015 31.7C42.7682 31.0074 41.8108 30.4574 40.6293 30.05C39.4478 29.6426 37.8386 29.1944 35.8015 28.7056C32.7052 27.9315 30.1793 27.1574 28.2238 26.3833C26.2682 25.6093 24.5775 24.3667 23.1515 22.6556C21.7256 20.9444 21.0126 18.663 21.0126 15.8111C21.0126 13.3259 21.6441 11.0852 22.9071 9.08889C24.2108 7.05185 26.146 5.44259 28.7126 4.26111C31.2793 3.07963 34.4163 2.48889 38.1238 2.48889C40.7312 2.48889 43.2571 2.81481 45.7015 3.46666C48.1867 4.11852 50.3663 5.05555 52.2404 6.27778L49.3682 13.7944C45.62 11.5537 41.8515 10.4333 38.0626 10.4333C35.4145 10.4333 33.4589 10.8815 32.196 11.7778C30.9738 12.6741 30.3626 13.8556 30.3626 15.3222C30.3626 16.7889 31.0756 17.8889 32.5015 18.6222C33.9682 19.3148 36.1886 20.0074 39.1626 20.7C42.2589 21.4741 44.7849 22.2481 46.7404 23.0222C48.7367 23.7963 50.4478 25.0185 51.8738 26.6889C53.2997 28.3593 54.0126 30.6204 54.0126 33.4722C54.0126 35.9167 53.3608 38.1574 52.0571 40.1944C50.7534 42.1907 48.7978 43.7796 46.1904 44.9611C43.6238 46.1426 40.4663 46.7333 36.7182 46.7333ZM98.1766 27.3V48.0778H89.3766V1.14444H98.1766V18.3167H103.432V27.3H98.1766ZM77.2155 2.36667C77.2155 9.33333 76.6452 15.6685 75.5044 21.3722L88.46 40.5L81.1877 45.8167L72.3266 32.1278C70.4933 36.5278 68.1915 39.9093 65.4211 42.2722C62.6915 44.6352 59.6359 45.837 56.2544 45.8778V36.3444C58.6174 36.0593 60.6952 34.4296 62.4877 31.4556C64.2803 28.4815 65.6859 24.4685 66.7044 19.4167C67.7229 14.3241 68.2322 8.53889 68.2322 2.06111L77.2155 2.36667ZM158.655 27.3V48.0778H149.855V1.14444H158.655V18.3167H163.911V27.3H158.655ZM137.694 2.36667C137.694 9.33333 137.124 15.6685 135.983 21.3722L148.938 40.5L141.666 45.8167L132.805 32.1278C130.972 36.5278 128.67 39.9093 125.9 42.2722C123.17 44.6352 120.114 45.837 116.733 45.8778V36.3444C119.096 36.0593 121.174 34.4296 122.966 31.4556C124.759 28.4815 126.164 24.4685 127.183 19.4167C128.201 14.3241 128.711 8.53889 128.711 2.06111L137.694 2.36667ZM209.554 48.0778H201.365V1.14444H209.554V48.0778ZM198.371 1.32778V47.2833H190.304V32.6167H186.454V24H190.304V18.5611H186.454V9.94444H190.304V1.32778H198.371ZM177.532 37.9944C179.325 37.9944 181.158 37.8519 183.032 37.5667C184.947 37.2815 186.576 36.8944 187.921 36.4056V44.1667C186.658 44.737 184.967 45.1648 182.849 45.45C180.771 45.7352 178.714 45.8778 176.676 45.8778H165.982V20.0889H176.188V10.1278H165.982V2.24444H184.193V27.9111H173.988V37.9944H177.532ZM212.726 42.5778H218.653V6.64444H212.726V0.288888H226.72V48.9333H212.726V42.5778ZM288.115 48.0778H279.315V27.5444H273.387C273.021 33.9 271.635 38.6463 269.232 41.7833C266.828 44.8796 263.65 46.4278 259.698 46.4278C255.38 46.4278 251.978 44.5741 249.493 40.8667C247.048 37.1593 245.826 31.5574 245.826 24.0611C245.826 16.5648 247.048 10.963 249.493 7.25555C251.978 3.54815 255.38 1.69444 259.698 1.69444C263.487 1.69444 266.563 3.12037 268.926 5.97222C271.289 8.78333 272.756 13.0815 273.326 18.8667H279.315V1.14444H288.115V48.0778ZM259.698 37.9333C263.08 37.9333 264.771 33.3093 264.771 24.0611C264.771 14.813 263.08 10.1889 259.698 10.1889C256.276 10.1889 254.565 14.813 254.565 24.0611C254.565 33.3093 256.276 37.9333 259.698 37.9333ZM315.731 18.3167C309.457 18.3167 304.507 17.6037 300.881 16.1778C297.255 14.7111 295.442 12.4296 295.442 9.33333C295.442 6.23704 297.255 3.97592 300.881 2.55C304.507 1.08333 309.457 0.349998 315.731 0.349998C322.005 0.349998 326.934 1.08333 330.52 2.55C334.146 3.97592 335.959 6.23704 335.959 9.33333C335.959 12.4296 334.146 14.7111 330.52 16.1778C326.934 17.6037 322.005 18.3167 315.731 18.3167ZM315.731 6.95C312.39 6.95 309.722 7.17407 307.725 7.62222C305.77 8.02963 304.792 8.6 304.792 9.33333C304.792 10.1074 305.77 10.6981 307.725 11.1056C309.681 11.513 312.349 11.7167 315.731 11.7167C319.112 11.7167 321.76 11.513 323.675 11.1056C325.631 10.6981 326.609 10.1074 326.609 9.33333C326.609 8.55926 325.631 7.96852 323.675 7.56111C321.72 7.1537 319.072 6.95 315.731 6.95ZM320.131 28.2167H335.714V40.5611H304.486V42.2111H336.142V48.0778H295.809V35.6722H327.036V34.0222H295.686V28.2167H311.331V26.1389H293.12V19.4167H338.281V26.1389H320.131V28.2167ZM375.858 28.5222V1.14444H384.719V28.5222H375.858ZM351.78 17.95V20.6389H363.269C365.265 20.6389 367.18 20.4963 369.013 20.2111C370.847 19.9259 372.354 19.5185 373.535 18.9889V26.0167C372.395 26.5463 370.908 26.9537 369.074 27.2389C367.241 27.5241 365.265 27.6667 363.147 27.6667H342.98V11.4111H361.374V8.72222H342.919V1.69444H370.113V17.95H351.78ZM344.813 48.0778V30.1722H384.719V48.0778H344.813ZM375.919 37.4444H353.552V40.8667H375.919V37.4444ZM431.951 26.8722V48.0778H423.151V1.14444H431.951V17.8278H437.085V26.8722H431.951ZM391.312 11.1667V2.48889H417.651V31.8833H408.79V11.1667H391.312ZM409.035 37.2C411.235 37.2 413.373 37.0574 415.451 36.7722C417.529 36.4463 419.24 35.9778 420.585 35.3667V44.0444C419.24 44.6556 417.529 45.1241 415.451 45.45C413.373 45.7352 411.173 45.8778 408.851 45.8778H389.907V37.2H395.59V20.2111H404.512V37.2H409.035ZM472.767 48.0778V1.14444H481.567V48.0778H472.767ZM453.823 1.45C456.552 1.45 458.997 2.08148 461.156 3.34444C463.315 4.60741 464.985 6.4 466.167 8.72222C467.389 11.0037 468 13.6519 468 16.6667C468 19.6815 467.389 22.35 466.167 24.6722C464.985 26.9944 463.315 28.787 461.156 30.05C458.997 31.313 456.552 31.9444 453.823 31.9444C451.052 31.9444 448.587 31.313 446.428 30.05C444.269 28.787 442.578 26.9944 441.356 24.6722C440.134 22.35 439.523 19.6815 439.523 16.6667C439.523 13.6519 440.134 11.0037 441.356 8.72222C442.578 6.4 444.269 4.60741 446.428 3.34444C448.587 2.08148 451.052 1.45 453.823 1.45ZM453.823 9.76111C452.071 9.76111 450.665 10.413 449.606 11.7167C448.587 13.0204 448.078 14.6704 448.078 16.6667C448.078 18.7444 448.587 20.4352 449.606 21.7389C450.665 23.0019 452.071 23.6333 453.823 23.6333C455.534 23.6333 456.919 22.9815 457.978 21.6778C459.037 20.3741 459.567 18.7037 459.567 16.6667C459.567 14.6704 459.037 13.0204 457.978 11.7167C456.919 10.413 455.534 9.76111 453.823 9.76111ZM470.2 43.9222C468.856 44.5741 467.104 45.063 464.945 45.3889C462.826 45.7148 460.606 45.8778 458.284 45.8778H438.3V37.2H458.65C460.85 37.2 462.989 37.0574 465.067 36.7722C467.145 36.4463 468.856 35.9778 470.2 35.3667V43.9222ZM533.49 12.9389H528.601L528.051 4.75H533.49V1.14444H542.168V35.9167H533.49V25.5889H528.051L528.601 17.4H533.49V12.9389ZM527.257 15.2611C527.257 18.0722 526.645 20.537 525.423 22.6556C524.242 24.7741 522.551 26.4241 520.351 27.6056C518.192 28.7463 515.686 29.3167 512.834 29.3167C510.023 29.3167 507.538 28.7463 505.379 27.6056C503.22 26.4241 501.529 24.7741 500.307 22.6556C499.125 20.537 498.534 18.0722 498.534 15.2611C498.534 12.45 499.125 9.98518 500.307 7.86667C501.529 5.74815 503.22 4.11852 505.379 2.97778C507.538 1.79629 510.023 1.20555 512.834 1.20555C515.686 1.20555 518.192 1.79629 520.351 2.97778C522.551 4.11852 524.242 5.74815 525.423 7.86667C526.645 9.98518 527.257 12.45 527.257 15.2611ZM507.212 15.2611C507.212 17.2574 507.721 18.8259 508.74 19.9667C509.799 21.0667 511.164 21.6167 512.834 21.6167C514.545 21.6167 515.91 21.0667 516.929 19.9667C517.947 18.8259 518.457 17.2574 518.457 15.2611C518.457 13.2648 517.947 11.7167 516.929 10.6167C515.91 9.51667 514.545 8.96667 512.834 8.96667C511.123 8.96667 509.758 9.51667 508.74 10.6167C507.721 11.7167 507.212 13.2648 507.212 15.2611ZM542.779 48.0778H502.812V31.6389H511.734V39.7667H542.779V48.0778ZM591.6 48.0778H583.411V1.14444H591.6V48.0778ZM580.111 1.32778V47.2833H572.045V34.5111H563.733C561.982 38.1778 559.721 40.9889 556.95 42.9444C554.18 44.8593 551.145 45.837 547.845 45.8778V37.2C551.226 36.9148 553.895 35.0204 555.85 31.5167C557.806 28.013 558.783 23.0426 558.783 16.6056V10.6167H547.845V2.24444H567.217V11.1056H572.045V1.32778H580.111ZM572.045 19.7222H567.095C566.972 21.637 566.748 23.6944 566.422 25.8944H572.045V19.7222ZM597.949 10.8611V2.24444H638.283V33.1667H629.055V10.8611H597.949ZM640.727 46.4278H595.566V37.75H610.11V19.4167H619.277V37.75H640.727V46.4278ZM689.121 28.7056H643.959V21.6167H652.271V17.2778C648.197 15.6481 646.159 13.1833 646.159 9.88333C646.159 6.62407 647.993 4.22037 651.659 2.67222C655.367 1.12407 660.337 0.349998 666.571 0.349998C672.804 0.349998 677.754 1.12407 681.421 2.67222C685.087 4.22037 686.921 6.62407 686.921 9.88333C686.921 13.1426 684.904 15.6074 680.871 17.2778V21.6167H689.121V28.7056ZM666.571 7.31666C663.108 7.31666 660.398 7.54074 658.443 7.98889C656.528 8.3963 655.571 9.02778 655.571 9.88333C655.571 11.5944 659.237 12.45 666.571 12.45C673.863 12.45 677.509 11.5944 677.509 9.88333C677.509 9.02778 676.552 8.3963 674.637 7.98889C672.722 7.54074 670.034 7.31666 666.571 7.31666ZM672.071 21.6167V19.1722C670.604 19.3352 668.771 19.4167 666.571 19.4167C664.371 19.4167 662.537 19.3352 661.071 19.1722V21.6167H672.071ZM666.571 30.2944C680.137 30.2944 686.921 33.35 686.921 39.4611C686.921 45.5722 680.137 48.6278 666.571 48.6278C652.963 48.6278 646.159 45.5722 646.159 39.4611C646.159 33.35 652.963 30.2944 666.571 30.2944ZM666.571 41.7222C673.863 41.7222 677.509 40.9685 677.509 39.4611C677.509 37.9537 673.863 37.2 666.571 37.2C659.237 37.2 655.571 37.9537 655.571 39.4611C655.571 40.9685 659.237 41.7222 666.571 41.7222ZM705.905 13.1222V5.05555H722.527V0.533331H731.571V5.05555H748.194V13.1222H705.905ZM749.599 46.4278H704.438V38.3H713.299V31.8222C709.388 30.1926 707.432 27.7074 707.432 24.3667C707.432 21.0667 709.205 18.6426 712.749 17.0944C716.294 15.5056 721.06 14.7111 727.049 14.7111C733.038 14.7111 737.784 15.5056 741.288 17.0944C744.832 18.6426 746.605 21.0667 746.605 24.3667C746.605 27.7074 744.669 30.1926 740.799 31.8222V38.3H749.599V46.4278ZM727.049 22.1667C720.001 22.1667 716.477 22.9 716.477 24.3667C716.477 25.1407 717.414 25.7111 719.288 26.0778C721.203 26.4037 723.79 26.5667 727.049 26.5667C730.308 26.5667 732.875 26.4037 734.749 26.0778C736.664 25.7111 737.621 25.1407 737.621 24.3667C737.621 22.9 734.097 22.1667 727.049 22.1667ZM731.999 38.3V33.7167C730.41 33.8389 728.76 33.9 727.049 33.9C725.297 33.9 723.627 33.8389 722.038 33.7167V38.3H731.999ZM794.876 26.8722V48.0778H786.076V1.14444H794.876V17.8278H800.009V26.8722H794.876ZM754.237 11.1667V2.48889H780.576V31.8833H771.715V11.1667H754.237ZM771.959 37.2C774.159 37.2 776.298 37.0574 778.376 36.7722C780.454 36.4463 782.165 35.9778 783.509 35.3667V44.0444C782.165 44.6556 780.454 45.1241 778.376 45.45C776.298 45.7352 774.098 45.8778 771.776 45.8778H752.832V37.2H758.515V20.2111H767.437V37.2H771.959Z" fill="#01A69F"/>
<path d="M0.36377 52.8444H799.643V55.5944H0.36377V52.8444Z" fill="#01A69F"/>
</svg>
