<svg width="1000" height="361" viewBox="0 0 1000 361" fill="none" xmlns="http://www.w3.org/2000/svg">
<rect x="129.489" y="115.083" width="741.022" height="96.3702" rx="28.069" fill="#EBEBEB"/>
<path d="M265.655 184.92H261.164V174.441H258.139C257.952 177.685 257.245 180.107 256.018 181.708C254.791 183.288 253.169 184.078 251.153 184.078C248.949 184.078 247.213 183.132 245.944 181.24C244.697 179.348 244.073 176.489 244.073 172.663C244.073 168.838 244.697 165.979 245.944 164.087C247.213 162.195 248.949 161.249 251.153 161.249C253.086 161.249 254.656 161.976 255.862 163.432C257.068 164.867 257.816 167.06 258.107 170.012H261.164V160.968H265.655V184.92ZM251.153 179.743C252.878 179.743 253.741 177.383 253.741 172.663C253.741 167.944 252.878 165.584 251.153 165.584C249.406 165.584 248.533 167.944 248.533 172.663C248.533 177.383 249.406 179.743 251.153 179.743ZM279.748 169.732C276.547 169.732 274.02 169.368 272.17 168.64C270.319 167.892 269.394 166.727 269.394 165.147C269.394 163.567 270.319 162.413 272.17 161.685C274.02 160.937 276.547 160.563 279.748 160.563C282.95 160.563 285.466 160.937 287.296 161.685C289.146 162.413 290.072 163.567 290.072 165.147C290.072 166.727 289.146 167.892 287.296 168.64C285.466 169.368 282.95 169.732 279.748 169.732ZM279.748 163.931C278.044 163.931 276.682 164.045 275.663 164.274C274.665 164.482 274.166 164.773 274.166 165.147C274.166 165.542 274.665 165.844 275.663 166.052C276.661 166.26 278.023 166.364 279.748 166.364C281.474 166.364 282.826 166.26 283.803 166.052C284.801 165.844 285.3 165.542 285.3 165.147C285.3 164.752 284.801 164.451 283.803 164.243C282.805 164.035 281.453 163.931 279.748 163.931ZM281.994 174.784H289.947V181.084H274.01V181.926H290.165V184.92H269.581V178.589H285.518V177.747H269.519V174.784H277.503V173.724H268.209V170.293H291.257V173.724H281.994V174.784ZM310.434 174.94V160.968H314.956V174.94H310.434ZM298.146 169.545V170.917H304.009C305.028 170.917 306.005 170.844 306.941 170.699C307.877 170.553 308.646 170.345 309.249 170.075V173.661C308.667 173.932 307.908 174.14 306.972 174.285C306.036 174.431 305.028 174.504 303.947 174.504H293.655V166.208H303.042V164.835H293.624V161.249H307.502V169.545H298.146ZM294.591 184.92V175.782H314.956V184.92H294.591ZM310.465 179.494H299.05V181.24H310.465V179.494ZM339.061 174.098V184.92H334.57V160.968H339.061V169.482H341.681V174.098H339.061ZM318.321 166.083V161.654H331.763V176.655H327.241V166.083H318.321ZM327.366 179.369C328.488 179.369 329.58 179.296 330.64 179.151C331.701 178.984 332.574 178.745 333.26 178.433V182.862C332.574 183.174 331.701 183.413 330.64 183.579C329.58 183.725 328.457 183.797 327.272 183.797H317.604V179.369H320.504V170.699H325.058V179.369H327.366ZM366.183 166.987H363.688L363.408 162.808H366.183V160.968H370.612V178.714H366.183V173.443H363.408L363.688 169.264H366.183V166.987ZM363.002 168.172C363.002 169.607 362.69 170.865 362.067 171.946C361.464 173.027 360.601 173.869 359.478 174.472C358.376 175.055 357.097 175.346 355.642 175.346C354.207 175.346 352.939 175.055 351.837 174.472C350.735 173.869 349.872 173.027 349.248 171.946C348.646 170.865 348.344 169.607 348.344 168.172C348.344 166.738 348.646 165.48 349.248 164.399C349.872 163.318 350.735 162.486 351.837 161.904C352.939 161.301 354.207 160.999 355.642 160.999C357.097 160.999 358.376 161.301 359.478 161.904C360.601 162.486 361.464 163.318 362.067 164.399C362.69 165.48 363.002 166.738 363.002 168.172ZM352.773 168.172C352.773 169.191 353.033 169.992 353.552 170.574C354.093 171.135 354.79 171.416 355.642 171.416C356.515 171.416 357.212 171.135 357.732 170.574C358.251 169.992 358.511 169.191 358.511 168.172C358.511 167.154 358.251 166.364 357.732 165.802C357.212 165.241 356.515 164.96 355.642 164.96C354.769 164.96 354.072 165.241 353.552 165.802C353.033 166.364 352.773 167.154 352.773 168.172ZM370.924 184.92H350.527V176.531H355.081V180.679H370.924V184.92ZM397.243 170.324H394.561V178.714H390.07V160.968H394.561V165.74H397.243V170.324ZM387.17 165.085C387.17 167.33 386.587 169.222 385.423 170.761C384.259 172.3 382.658 173.454 380.62 174.223C378.583 174.971 376.243 175.346 373.603 175.346V171.166C375.37 171.166 376.93 170.948 378.281 170.511C379.633 170.075 380.682 169.462 381.431 168.671C382.18 167.861 382.554 166.925 382.554 165.865V165.334H373.603V161.249H387.17V165.085ZM394.904 180.679V184.92H374.445V176.624H379.03V180.679H394.904ZM427.079 184.078H404.031V179.681H413.294V175.72H405.279V161.529H425.831V165.927H409.894V171.354H426.081V175.72H417.879V179.681H427.079V184.078ZM430.07 164.835V160.968H450.342V168.609H445.757V164.835H430.07ZM451.776 173.318H428.729V169.513H451.776V173.318ZM450.466 174.504V184.92H430.07V174.504H434.498V176.312H446.038V174.504H450.466ZM446.038 179.712H434.498V181.458H446.038V179.712ZM476.1 184.92H471.92V160.968H476.1V184.92ZM470.236 161.062V184.515H466.119V177.997H461.878C460.984 179.868 459.83 181.302 458.416 182.3C457.002 183.278 455.453 183.777 453.769 183.797V179.369C455.495 179.223 456.857 178.256 457.855 176.468C458.853 174.68 459.352 172.144 459.352 168.859V165.802H453.769V161.529H463.656V166.052H466.119V161.062H470.236ZM466.119 170.449H463.593C463.531 171.426 463.417 172.476 463.25 173.599H466.119V170.449ZM499.518 168.609H502.2V172.632H499.518V175.221H495.027V160.968H499.518V162.839H502.2V166.863H499.518V168.609ZM485.203 174.753C483.768 174.753 482.49 174.462 481.367 173.88C480.265 173.298 479.402 172.487 478.778 171.447C478.175 170.387 477.874 169.191 477.874 167.861C477.874 166.53 478.175 165.345 478.778 164.305C479.402 163.266 480.265 162.455 481.367 161.872C482.49 161.29 483.768 160.999 485.203 160.999C486.638 160.999 487.906 161.29 489.008 161.872C490.131 162.455 490.994 163.266 491.597 164.305C492.22 165.345 492.532 166.53 492.532 167.861C492.532 169.191 492.22 170.387 491.597 171.447C490.994 172.487 490.131 173.298 489.008 173.88C487.906 174.462 486.638 174.753 485.203 174.753ZM485.203 164.898C484.33 164.898 483.633 165.168 483.114 165.709C482.594 166.228 482.334 166.946 482.334 167.861C482.334 168.796 482.594 169.534 483.114 170.075C483.633 170.595 484.33 170.855 485.203 170.855C486.056 170.855 486.742 170.584 487.261 170.044C487.802 169.503 488.072 168.775 488.072 167.861C488.072 166.946 487.802 166.228 487.261 165.709C486.742 165.168 486.056 164.898 485.203 164.898ZM499.518 176.063V185.201H494.934V180.117H479.589V176.063H499.518ZM528.927 143.149C534.53 143.149 538.914 144.865 542.077 148.295C545.241 151.688 546.823 156.586 546.823 162.99C546.823 167.526 545.966 171.414 544.25 174.654C542.573 177.894 540.191 180.353 537.103 182.03C534.015 183.707 530.451 184.546 526.411 184.546C524.276 184.546 522.237 184.317 520.293 183.86C518.349 183.364 516.691 182.678 515.318 181.801L518.749 174.997C520.693 176.331 523.19 176.999 526.239 176.999C529.022 176.999 531.347 176.312 533.215 174.94C535.083 173.568 536.341 171.567 536.989 168.937C537.294 167.831 537.465 166.63 537.503 165.334C535.102 167.736 531.785 168.937 527.554 168.937C525 168.937 522.675 168.422 520.579 167.393C518.482 166.364 516.824 164.915 515.604 163.047C514.384 161.141 513.775 158.949 513.775 156.472C513.775 153.804 514.442 151.459 515.776 149.439C517.11 147.419 518.921 145.875 521.208 144.808C523.533 143.702 526.106 143.149 528.927 143.149ZM529.613 162.018C531.633 162.018 533.272 161.465 534.53 160.36C535.826 159.216 536.474 157.768 536.474 156.014C536.474 154.261 535.845 152.831 534.587 151.726C533.367 150.621 531.671 150.068 529.498 150.068C527.516 150.068 525.896 150.602 524.638 151.669C523.418 152.736 522.809 154.185 522.809 156.014C522.809 157.844 523.418 159.312 524.638 160.417C525.896 161.484 527.554 162.018 529.613 162.018ZM555.188 173.225C556.789 173.225 558.104 173.739 559.133 174.769C560.162 175.76 560.677 177.075 560.677 178.714C560.677 179.476 560.582 180.239 560.391 181.001C560.2 181.763 559.781 182.907 559.133 184.432L555.874 192.665H550.213L552.729 183.574C551.776 183.193 551.014 182.583 550.442 181.744C549.908 180.868 549.642 179.857 549.642 178.714C549.642 177.075 550.156 175.76 551.185 174.769C552.253 173.739 553.587 173.225 555.188 173.225ZM579.769 184.546C576.453 184.546 573.499 183.726 570.907 182.087C568.315 180.448 566.275 178.085 564.789 174.997C563.34 171.872 562.616 168.155 562.616 163.848C562.616 159.54 563.34 155.843 564.789 152.755C566.275 149.63 568.315 147.247 570.907 145.608C573.499 143.969 576.453 143.149 579.769 143.149C583.086 143.149 586.04 143.969 588.632 145.608C591.224 147.247 593.244 149.63 594.693 152.755C596.179 155.843 596.923 159.54 596.923 163.848C596.923 168.155 596.179 171.872 594.693 174.997C593.244 178.085 591.224 180.448 588.632 182.087C586.04 183.726 583.086 184.546 579.769 184.546ZM579.769 176.713C582.209 176.713 584.115 175.664 585.487 173.568C586.897 171.471 587.603 168.231 587.603 163.848C587.603 159.464 586.897 156.224 585.487 154.128C584.115 152.031 582.209 150.983 579.769 150.983C577.368 150.983 575.462 152.031 574.052 154.128C572.679 156.224 571.993 159.464 571.993 163.848C571.993 168.231 572.679 171.471 574.052 173.568C575.462 175.664 577.368 176.713 579.769 176.713ZM614.093 184.546C610.776 184.546 607.822 183.726 605.23 182.087C602.638 180.448 600.599 178.085 599.112 174.997C597.664 171.872 596.939 168.155 596.939 163.848C596.939 159.54 597.664 155.843 599.112 152.755C600.599 149.63 602.638 147.247 605.23 145.608C607.822 143.969 610.776 143.149 614.093 143.149C617.409 143.149 620.363 143.969 622.955 145.608C625.547 147.247 627.567 149.63 629.016 152.755C630.503 155.843 631.246 159.54 631.246 163.848C631.246 168.155 630.503 171.872 629.016 174.997C627.567 178.085 625.547 180.448 622.955 182.087C620.363 183.726 617.409 184.546 614.093 184.546ZM614.093 176.713C616.532 176.713 618.438 175.664 619.81 173.568C621.221 171.471 621.926 168.231 621.926 163.848C621.926 159.464 621.221 156.224 619.81 154.128C618.438 152.031 616.532 150.983 614.093 150.983C611.691 150.983 609.785 152.031 608.375 154.128C607.003 156.224 606.316 159.464 606.316 163.848C606.316 168.231 607.003 171.471 608.375 173.568C609.785 175.664 611.691 176.713 614.093 176.713ZM648.416 184.546C645.1 184.546 642.145 183.726 639.553 182.087C636.961 180.448 634.922 178.085 633.435 174.997C631.987 171.872 631.263 168.155 631.263 163.848C631.263 159.54 631.987 155.843 633.435 152.755C634.922 149.63 636.961 147.247 639.553 145.608C642.145 143.969 645.1 143.149 648.416 143.149C651.732 143.149 654.686 143.969 657.278 145.608C659.871 147.247 661.891 149.63 663.339 152.755C664.826 155.843 665.569 159.54 665.569 163.848C665.569 168.155 664.826 171.872 663.339 174.997C661.891 178.085 659.871 180.448 657.278 182.087C654.686 183.726 651.732 184.546 648.416 184.546ZM648.416 176.713C650.856 176.713 652.761 175.664 654.134 173.568C655.544 171.471 656.249 168.231 656.249 163.848C656.249 159.464 655.544 156.224 654.134 154.128C652.761 152.031 650.856 150.983 648.416 150.983C646.014 150.983 644.109 152.031 642.698 154.128C641.326 156.224 640.64 159.464 640.64 163.848C640.64 168.231 641.326 171.471 642.698 173.568C644.109 175.664 646.014 176.713 648.416 176.713ZM711.214 159.045H706.296V174.426H698.063V141.892H706.296V150.64H711.214V159.045ZM667.987 167.393V142.406H693.489V167.393H667.987ZM676.221 149.725V160.017H685.369V149.725H676.221ZM706.925 178.028V185.804H669.417V170.423H677.822V178.028H706.925ZM744.771 141.892H753.062V175.969H744.771V174.769H734.022V168.765H744.771V141.892ZM727.275 159.331C723.386 159.331 720.261 158.568 717.897 157.044C715.572 155.481 714.41 153.251 714.41 150.354C714.41 147.457 715.572 145.246 717.897 143.721C720.261 142.196 723.386 141.434 727.275 141.434C731.163 141.434 734.269 142.196 736.595 143.721C738.92 145.246 740.082 147.457 740.082 150.354C740.082 153.251 738.92 155.481 736.595 157.044C734.269 158.568 731.163 159.331 727.275 159.331ZM727.275 147.781C725.75 147.781 724.549 148.01 723.672 148.467C722.834 148.886 722.414 149.515 722.414 150.354C722.414 151.231 722.834 151.879 723.672 152.298C724.549 152.717 725.75 152.927 727.275 152.927C728.799 152.927 729.981 152.717 730.82 152.298C731.658 151.879 732.077 151.231 732.077 150.354C732.077 149.515 731.639 148.886 730.762 148.467C729.924 148.01 728.761 147.781 727.275 147.781ZM712.351 167.507V160.817H731.62C736.499 160.817 740.101 160.284 742.427 159.216V165.906C741.131 166.516 739.53 166.935 737.624 167.164C735.756 167.393 733.412 167.507 730.591 167.507V174.14H722.357V167.507H712.351ZM753.633 185.804H715.668V171.853H723.958V178.542H753.633V185.804Z" fill="black"/>
<rect x="0.94458" y="230.624" width="998.111" height="129.805" rx="37.8072" fill="#01A69F"/>
<path d="M61.68 322.569H40.52V318.369L51.32 308.169C52.4667 307.076 53.24 306.142 53.64 305.369C54.04 304.569 54.24 303.782 54.24 303.009C54.24 301.889 53.8533 301.036 53.08 300.449C52.3333 299.836 51.2267 299.529 49.76 299.529C48.5333 299.529 47.4267 299.769 46.44 300.249C45.4533 300.702 44.6267 301.396 43.96 302.329L39.24 299.289C40.3333 297.662 41.84 296.396 43.76 295.489C45.68 294.556 47.88 294.089 50.36 294.089C52.44 294.089 54.2533 294.436 55.8 295.129C57.3733 295.796 58.5867 296.756 59.44 298.009C60.32 299.236 60.76 300.689 60.76 302.369C60.76 303.889 60.44 305.316 59.8 306.649C59.16 307.982 57.92 309.502 56.08 311.209L49.64 317.289H61.68V322.569ZM75.0117 323.049C72.6917 323.049 70.6251 322.476 68.8117 321.329C66.9984 320.182 65.5717 318.529 64.5317 316.369C63.5184 314.182 63.0117 311.582 63.0117 308.569C63.0117 305.556 63.5184 302.969 64.5317 300.809C65.5717 298.622 66.9984 296.956 68.8117 295.809C70.6251 294.662 72.6917 294.089 75.0117 294.089C77.3317 294.089 79.3984 294.662 81.2117 295.809C83.0251 296.956 84.4384 298.622 85.4517 300.809C86.4917 302.969 87.0117 305.556 87.0117 308.569C87.0117 311.582 86.4917 314.182 85.4517 316.369C84.4384 318.529 83.0251 320.182 81.2117 321.329C79.3984 322.476 77.3317 323.049 75.0117 323.049ZM75.0117 317.569C76.7184 317.569 78.0517 316.836 79.0117 315.369C79.9984 313.902 80.4917 311.636 80.4917 308.569C80.4917 305.502 79.9984 303.236 79.0117 301.769C78.0517 300.302 76.7184 299.569 75.0117 299.569C73.3317 299.569 71.9984 300.302 71.0117 301.769C70.0517 303.236 69.5717 305.502 69.5717 308.569C69.5717 311.636 70.0517 313.902 71.0117 315.369C71.9984 316.836 73.3317 317.569 75.0117 317.569ZM109.703 322.569H88.5434V318.369L99.3434 308.169C100.49 307.076 101.263 306.142 101.663 305.369C102.063 304.569 102.263 303.782 102.263 303.009C102.263 301.889 101.877 301.036 101.103 300.449C100.357 299.836 99.2501 299.529 97.7834 299.529C96.5568 299.529 95.4501 299.769 94.4634 300.249C93.4768 300.702 92.6501 301.396 91.9834 302.329L87.2634 299.289C88.3568 297.662 89.8634 296.396 91.7834 295.489C93.7034 294.556 95.9034 294.089 98.3834 294.089C100.463 294.089 102.277 294.436 103.823 295.129C105.397 295.796 106.61 296.756 107.463 298.009C108.343 299.236 108.783 300.689 108.783 302.369C108.783 303.889 108.463 305.316 107.823 306.649C107.183 307.982 105.943 309.502 104.103 311.209L97.6634 317.289H109.703V322.569ZM122.315 305.089C126.262 305.089 129.168 305.876 131.035 307.449C132.928 309.022 133.875 311.129 133.875 313.769C133.875 315.476 133.448 317.036 132.595 318.449C131.742 319.836 130.435 320.956 128.675 321.809C126.942 322.636 124.795 323.049 122.235 323.049C120.262 323.049 118.315 322.796 116.395 322.289C114.502 321.756 112.888 321.009 111.555 320.049L114.115 315.089C115.182 315.889 116.408 316.516 117.795 316.969C119.182 317.396 120.608 317.609 122.075 317.609C123.702 317.609 124.982 317.289 125.915 316.649C126.848 316.009 127.315 315.116 127.315 313.969C127.315 312.769 126.822 311.862 125.835 311.249C124.875 310.636 123.195 310.329 120.795 310.329H113.635L115.075 294.569H132.155V299.769H120.475L120.035 305.089H122.315ZM150.007 306.209V301.449H158.807V299.809H150.007V295.089H158.807V293.209H164.487V316.049H158.807V306.209H150.007ZM156.167 312.089C155.42 312.356 154.42 312.556 153.167 312.689C151.914 312.822 150.58 312.889 149.167 312.889H136.927V293.369H142.807V307.929H149.407C152.367 307.929 154.62 307.689 156.167 307.209V312.089ZM164.887 323.929H138.367V314.529H144.247V318.569H164.887V323.929ZM206.553 303.729H203.113V310.129H197.353V293.209H203.113V297.929H206.553V303.729ZM186.113 304.849C184.913 306.342 183.433 307.556 181.673 308.489C179.939 309.422 178.059 309.902 176.033 309.929V304.609C177.819 304.502 179.326 303.862 180.553 302.689C181.806 301.516 182.579 300.156 182.873 298.609H176.433V293.569H195.073V298.609H188.713C188.686 299.009 188.593 299.582 188.433 300.329L196.073 304.809L193.353 309.289L186.113 304.849ZM190.233 310.569C194.233 310.569 197.419 311.116 199.793 312.209C202.193 313.276 203.393 315.009 203.393 317.409C203.393 319.809 202.193 321.556 199.793 322.649C197.419 323.742 194.233 324.289 190.233 324.289C186.233 324.289 183.033 323.742 180.633 322.649C178.259 321.556 177.073 319.809 177.073 317.409C177.073 315.009 178.259 313.276 180.633 312.209C183.033 311.116 186.233 310.569 190.233 310.569ZM190.233 319.449C192.313 319.449 193.979 319.289 195.233 318.969C196.513 318.622 197.153 318.102 197.153 317.409C197.153 316.716 196.513 316.209 195.233 315.889C193.979 315.569 192.313 315.409 190.233 315.409C188.153 315.409 186.473 315.569 185.193 315.889C183.913 316.209 183.273 316.716 183.273 317.409C183.273 318.102 183.913 318.622 185.193 318.969C186.473 319.289 188.153 319.449 190.233 319.449ZM236.429 323.929H231.029V310.249H228.589V323.409H223.269V293.329H228.589V304.489H231.029V293.209H236.429V323.929ZM214.509 293.569C216.882 293.569 218.669 294.729 219.869 297.049C221.069 299.369 221.669 303.089 221.669 308.209C221.669 313.329 221.069 317.049 219.869 319.369C218.669 321.689 216.882 322.849 214.509 322.849C212.135 322.849 210.349 321.689 209.149 319.369C207.949 317.049 207.349 313.329 207.349 308.209C207.349 303.089 207.949 299.369 209.149 297.049C210.349 294.729 212.135 293.569 214.509 293.569ZM214.509 317.369C215.149 317.369 215.602 316.649 215.869 315.209C216.162 313.742 216.309 311.409 216.309 308.209C216.309 305.009 216.162 302.689 215.869 301.249C215.602 299.782 215.149 299.049 214.509 299.049C213.869 299.049 213.402 299.782 213.109 301.249C212.842 302.689 212.709 305.009 212.709 308.209C212.709 311.409 212.842 313.742 213.109 315.209C213.402 316.649 213.869 317.369 214.509 317.369ZM261.504 315.969V293.209H267.304V315.969H261.504ZM248.544 293.249C250.438 293.249 252.104 293.636 253.544 294.409C255.011 295.156 256.144 296.222 256.944 297.609C257.744 298.996 258.144 300.609 258.144 302.449C258.144 304.289 257.744 305.902 256.944 307.289C256.144 308.676 255.011 309.756 253.544 310.529C252.104 311.276 250.438 311.649 248.544 311.649C246.651 311.649 244.971 311.276 243.504 310.529C242.064 309.756 240.931 308.676 240.104 307.289C239.304 305.902 238.904 304.289 238.904 302.449C238.904 300.609 239.304 298.996 240.104 297.609C240.931 296.222 242.064 295.156 243.504 294.409C244.971 293.636 246.651 293.249 248.544 293.249ZM248.544 298.329C247.398 298.329 246.464 298.689 245.744 299.409C245.051 300.129 244.704 301.142 244.704 302.449C244.704 303.756 245.051 304.782 245.744 305.529C246.464 306.249 247.398 306.609 248.544 306.609C249.691 306.609 250.624 306.249 251.344 305.529C252.064 304.782 252.424 303.756 252.424 302.449C252.424 301.142 252.064 300.129 251.344 299.409C250.624 298.689 249.691 298.329 248.544 298.329ZM267.704 318.489V323.929H241.504V313.169H247.384V318.489H267.704ZM280.17 299.569V293.929H306.57V314.169H300.53V299.569H280.17ZM308.17 322.849H278.61V317.169H288.13V305.169H294.13V317.169H308.17V322.849ZM339.846 311.249H310.286V306.609H315.726V303.769C313.059 302.702 311.726 301.089 311.726 298.929C311.726 296.796 312.926 295.222 315.326 294.209C317.753 293.196 321.006 292.689 325.086 292.689C329.166 292.689 332.406 293.196 334.806 294.209C337.206 295.222 338.406 296.796 338.406 298.929C338.406 301.062 337.086 302.676 334.446 303.769V306.609H339.846V311.249ZM325.086 297.249C322.819 297.249 321.046 297.396 319.766 297.689C318.513 297.956 317.886 298.369 317.886 298.929C317.886 300.049 320.286 300.609 325.086 300.609C329.859 300.609 332.246 300.049 332.246 298.929C332.246 298.369 331.619 297.956 330.366 297.689C329.113 297.396 327.353 297.249 325.086 297.249ZM328.686 306.609V305.009C327.726 305.116 326.526 305.169 325.086 305.169C323.646 305.169 322.446 305.116 321.486 305.009V306.609H328.686ZM325.086 312.289C333.966 312.289 338.406 314.289 338.406 318.289C338.406 322.289 333.966 324.289 325.086 324.289C316.179 324.289 311.726 322.289 311.726 318.289C311.726 314.289 316.179 312.289 325.086 312.289ZM325.086 319.769C329.859 319.769 332.246 319.276 332.246 318.289C332.246 317.302 329.859 316.809 325.086 316.809C320.286 316.809 317.886 317.302 317.886 318.289C317.886 319.276 320.286 319.769 325.086 319.769ZM343.682 309.809V293.569H349.362V296.329H364.162V293.569H369.842V309.809H343.682ZM364.162 301.609H349.362V304.449H364.162V301.609ZM359.722 317.769V324.649H353.802V317.769H341.962V312.209H371.522V317.769H359.722ZM401.078 304.209V309.849H395.318V293.209H401.078V298.329H404.518V304.209H401.078ZM393.958 307.809C393.211 308.156 392.198 308.422 390.918 308.609C389.664 308.796 388.344 308.889 386.958 308.889H374.278V293.569H392.278V298.569H380.078V303.889H387.198C388.531 303.889 389.798 303.809 390.998 303.649C392.198 303.462 393.184 303.209 393.958 302.889V307.809ZM401.078 310.929V323.929H375.278V310.929H401.078ZM395.318 318.929V315.929H381.078V318.929H395.318ZM427.193 303.409V298.209H407.033V293.209H433.033V303.409H427.193ZM405.313 309.529V304.569H434.873V309.529H405.313ZM407.033 323.929V311.369H433.193V323.929H407.033ZM427.433 316.129H412.753V319.209H427.433V316.129ZM472.339 304.209V309.849H466.579V293.209H472.339V298.329H475.779V304.209H472.339ZM462.859 297.729C462.859 301.756 461.286 304.729 458.139 306.649C455.019 308.542 450.793 309.489 445.459 309.489V304.369C448.953 304.316 451.739 303.822 453.819 302.889C455.899 301.929 456.939 300.649 456.939 299.049V298.609H445.459V293.569H462.859V297.729ZM472.339 310.929V323.929H446.539V310.929H472.339ZM466.579 318.929V315.929H452.339V318.929H466.579ZM496.215 308.569V303.209H499.295V300.809H496.215V295.449H499.295V293.209H504.975V315.969H499.295V308.569H496.215ZM477.415 311.049V293.569H494.815V311.049H477.415ZM483.095 298.689V305.889H489.135V298.689H483.095ZM505.375 323.929H478.855V313.169H484.735V318.489H505.375V323.929ZM537.331 312.049H531.931V304.969H529.491V311.729H524.171V293.329H529.491V299.289H531.931V293.209H537.331V312.049ZM515.451 311.609C513.238 311.609 511.491 310.809 510.211 309.209C508.958 307.582 508.331 305.302 508.331 302.369C508.331 299.436 508.958 297.182 510.211 295.609C511.491 294.009 513.238 293.209 515.451 293.209C517.664 293.209 519.398 294.009 520.651 295.609C521.931 297.182 522.571 299.436 522.571 302.369C522.571 305.302 521.931 307.582 520.651 309.209C519.398 310.809 517.664 311.609 515.451 311.609ZM515.451 298.129C514.224 298.129 513.611 299.542 513.611 302.369C513.611 305.222 514.224 306.649 515.451 306.649C516.651 306.649 517.251 305.222 517.251 302.369C517.251 300.929 517.104 299.862 516.811 299.169C516.518 298.476 516.064 298.129 515.451 298.129ZM537.331 313.129V324.289H531.651V318.289H510.651V313.129H537.331ZM558.317 307.969C557.17 309.489 555.744 310.702 554.037 311.609C552.33 312.516 550.45 312.982 548.397 313.009V307.569C550.05 307.462 551.45 306.836 552.597 305.689C553.77 304.542 554.557 303.102 554.957 301.369H548.997V295.889H555.077V292.809H560.957V295.889H567.037V301.369H560.917C560.837 302.036 560.717 302.662 560.557 303.249L568.477 308.529L565.357 312.969L558.317 307.969ZM576.157 323.929H570.397V293.209H576.157V323.929ZM561.157 316.929C562.597 316.929 563.997 316.836 565.357 316.649C566.717 316.436 567.837 316.116 568.717 315.689V321.289C567.837 321.689 566.717 321.996 565.357 322.209C564.024 322.396 562.597 322.489 561.077 322.489H547.837V316.929H555.037V312.369H560.757V316.929H561.157ZM608.593 323.929H603.193V310.249H600.753V323.409H595.433V293.329H600.753V304.489H603.193V293.209H608.593V323.929ZM587.273 317.169C588.473 317.169 589.686 317.076 590.913 316.889C592.166 316.702 593.219 316.449 594.073 316.129V321.369C593.246 321.742 592.153 322.022 590.793 322.209C589.433 322.396 588.086 322.489 586.753 322.489H580.073V293.929H592.793V299.249H585.593V317.169H587.273ZM674.081 311.248V322.569H661.912V311.248H632.878V302.853L658.293 268.659H671.385L647.819 301.082H662.297V290.993H674.081V301.082H682.86V311.248H674.081ZM690.276 308.244C692.433 308.244 694.204 308.937 695.59 310.324C696.977 311.658 697.67 313.43 697.67 315.638C697.67 316.664 697.541 317.691 697.285 318.718C697.028 319.745 696.463 321.285 695.59 323.339L691.2 334.429H683.576L686.965 322.184C685.681 321.67 684.654 320.849 683.884 319.719C683.165 318.538 682.806 317.178 682.806 315.638C682.806 313.43 683.499 311.658 684.885 310.324C686.323 308.937 688.12 308.244 690.276 308.244ZM722 288.913C729.598 288.913 735.195 290.428 738.789 293.457C742.434 296.487 744.257 300.543 744.257 305.626C744.257 308.912 743.435 311.915 741.792 314.636C740.15 317.306 737.634 319.463 734.245 321.106C730.908 322.697 726.775 323.493 721.846 323.493C718.046 323.493 714.298 323.005 710.602 322.03C706.956 321.003 703.85 319.565 701.283 317.717L706.212 308.167C708.265 309.707 710.627 310.914 713.297 311.787C715.967 312.608 718.714 313.019 721.538 313.019C724.67 313.019 727.134 312.403 728.931 311.171C730.728 309.938 731.627 308.218 731.627 306.011C731.627 303.7 730.677 301.955 728.777 300.774C726.929 299.593 723.694 299.002 719.073 299.002H705.288L708.06 268.659H740.945V278.67H718.457L717.61 288.913H722ZM769.617 323.493C765.151 323.493 761.171 322.389 757.68 320.181C754.189 317.974 751.442 314.79 749.439 310.632C747.488 306.421 746.513 301.415 746.513 295.614C746.513 289.812 747.488 284.832 749.439 280.673C751.442 276.463 754.189 273.254 757.68 271.046C761.171 268.838 765.151 267.734 769.617 267.734C774.084 267.734 778.063 268.838 781.555 271.046C785.046 273.254 787.767 276.463 789.718 280.673C791.721 284.832 792.722 289.812 792.722 295.614C792.722 301.415 791.721 306.421 789.718 310.632C787.767 314.79 785.046 317.974 781.555 320.181C778.063 322.389 774.084 323.493 769.617 323.493ZM769.617 312.942C772.903 312.942 775.47 311.53 777.319 308.706C779.219 305.882 780.168 301.518 780.168 295.614C780.168 289.709 779.219 285.345 777.319 282.521C775.47 279.697 772.903 278.285 769.617 278.285C766.383 278.285 763.816 279.697 761.916 282.521C760.068 285.345 759.143 289.709 759.143 295.614C759.143 301.518 760.068 305.882 761.916 308.706C763.816 311.53 766.383 312.942 769.617 312.942ZM815.849 323.493C811.382 323.493 807.403 322.389 803.911 320.181C800.42 317.974 797.673 314.79 795.671 310.632C793.72 306.421 792.744 301.415 792.744 295.614C792.744 289.812 793.72 284.832 795.671 280.673C797.673 276.463 800.42 273.254 803.911 271.046C807.403 268.838 811.382 267.734 815.849 267.734C820.316 267.734 824.295 268.838 827.786 271.046C831.277 273.254 833.999 276.463 835.95 280.673C837.952 284.832 838.953 289.812 838.953 295.614C838.953 301.415 837.952 306.421 835.95 310.632C833.999 314.79 831.277 317.974 827.786 320.181C824.295 322.389 820.316 323.493 815.849 323.493ZM815.849 312.942C819.135 312.942 821.702 311.53 823.55 308.706C825.45 305.882 826.4 301.518 826.4 295.614C826.4 289.709 825.45 285.345 823.55 282.521C821.702 279.697 819.135 278.285 815.849 278.285C812.614 278.285 810.047 279.697 808.147 282.521C806.299 285.345 805.375 289.709 805.375 295.614C805.375 301.518 806.299 305.882 808.147 308.706C810.047 311.53 812.614 312.942 815.849 312.942ZM900.433 289.144H893.81V309.861H882.72V266.04H893.81V277.823H900.433V289.144ZM842.21 300.389V266.733H876.559V300.389H842.21ZM853.3 276.591V290.454H865.623V276.591H853.3ZM894.657 314.713V325.187H844.136V304.47H855.457V314.713H894.657ZM945.633 266.04H956.8V311.941H945.633V310.324H931.154V302.237H945.633V266.04ZM922.066 289.53C916.829 289.53 912.619 288.503 909.436 286.449C906.304 284.344 904.738 281.34 904.738 277.438C904.738 273.536 906.304 270.558 909.436 268.505C912.619 266.451 916.829 265.424 922.066 265.424C927.303 265.424 931.488 266.451 934.62 268.505C937.752 270.558 939.318 273.536 939.318 277.438C939.318 281.34 937.752 284.344 934.62 286.449C931.488 288.503 927.303 289.53 922.066 289.53ZM922.066 273.973C920.013 273.973 918.395 274.281 917.215 274.897C916.085 275.462 915.52 276.309 915.52 277.438C915.52 278.619 916.085 279.492 917.215 280.057C918.395 280.621 920.013 280.904 922.066 280.904C924.12 280.904 925.712 280.621 926.841 280.057C927.971 279.492 928.536 278.619 928.536 277.438C928.536 276.309 927.945 275.462 926.764 274.897C925.635 274.281 924.069 273.973 922.066 273.973ZM901.966 300.543V291.532H927.92C934.492 291.532 939.343 290.813 942.475 289.376V298.386C940.73 299.208 938.573 299.772 936.006 300.081C933.49 300.389 930.333 300.543 926.533 300.543V309.476H915.443V300.543H901.966ZM957.57 325.187H906.432V306.396H917.6V315.406H957.57V325.187Z" fill="white"/>
<rect x="129.489" width="741.022" height="96.3702" rx="28.069" fill="#EBEBEB"/>
<path d="M272.547 68.7769H256.049V65.5021L264.47 57.5493C265.364 56.6968 265.967 55.9691 266.279 55.3661C266.591 54.7424 266.747 54.129 266.747 53.526C266.747 52.6528 266.445 51.9874 265.842 51.53C265.26 51.0518 264.397 50.8127 263.254 50.8127C262.297 50.8127 261.434 50.9998 260.665 51.3741C259.896 51.7275 259.251 52.2681 258.731 52.9958L255.051 50.6256C255.904 49.3573 257.078 48.3697 258.575 47.6627C260.072 46.935 261.788 46.5712 263.721 46.5712C265.343 46.5712 266.757 46.8414 267.963 47.382C269.19 47.9018 270.136 48.6503 270.801 49.6276C271.487 50.584 271.83 51.7171 271.83 53.027C271.83 54.2122 271.581 55.3245 271.082 56.3641C270.583 57.4037 269.616 58.5888 268.181 59.9195L263.16 64.6601H272.547V68.7769ZM282.942 69.1511C281.133 69.1511 279.522 68.7041 278.108 67.81C276.694 66.916 275.582 65.6269 274.771 63.9427C273.981 62.2378 273.586 60.2106 273.586 57.8611C273.586 55.5117 273.981 53.4948 274.771 51.8107C275.582 50.1058 276.694 48.8063 278.108 47.9122C279.522 47.0182 281.133 46.5712 282.942 46.5712C284.751 46.5712 286.362 47.0182 287.776 47.9122C289.19 48.8063 290.292 50.1058 291.082 51.8107C291.893 53.4948 292.298 55.5117 292.298 57.8611C292.298 60.2106 291.893 62.2378 291.082 63.9427C290.292 65.6269 289.19 66.916 287.776 67.81C286.362 68.7041 284.751 69.1511 282.942 69.1511ZM282.942 64.8784C284.273 64.8784 285.312 64.3066 286.061 63.1631C286.83 62.0195 287.215 60.2522 287.215 57.8611C287.215 55.4701 286.83 53.7028 286.061 52.5592C285.312 51.4157 284.273 50.8439 282.942 50.8439C281.632 50.8439 280.593 51.4157 279.823 52.5592C279.075 53.7028 278.701 55.4701 278.701 57.8611C278.701 60.2522 279.075 62.0195 279.823 63.1631C280.593 64.3066 281.632 64.8784 282.942 64.8784ZM309.991 68.7769H293.493V65.5021L301.913 57.5493C302.808 56.6968 303.41 55.9691 303.722 55.3661C304.034 54.7424 304.19 54.129 304.19 53.526C304.19 52.6528 303.889 51.9874 303.286 51.53C302.704 51.0518 301.841 50.8127 300.697 50.8127C299.741 50.8127 298.878 50.9998 298.109 51.3741C297.339 51.7275 296.695 52.2681 296.175 52.9958L292.495 50.6256C293.347 49.3573 294.522 48.3697 296.019 47.6627C297.516 46.935 299.231 46.5712 301.165 46.5712C302.787 46.5712 304.201 46.8414 305.406 47.382C306.633 47.9018 307.579 48.6503 308.245 49.6276C308.931 50.584 309.274 51.7171 309.274 53.027C309.274 54.2122 309.024 55.3245 308.525 56.3641C308.026 57.4037 307.059 58.5888 305.625 59.9195L300.604 64.6601H309.991V68.7769ZM319.824 55.1478C322.902 55.1478 325.168 55.7612 326.623 56.9879C328.1 58.2146 328.838 59.8572 328.838 61.9155C328.838 63.2462 328.505 64.4625 327.84 65.5645C327.174 66.6457 326.156 67.5189 324.783 68.1843C323.432 68.8288 321.758 69.1511 319.762 69.1511C318.223 69.1511 316.706 68.9536 315.209 68.5585C313.732 68.1427 312.474 67.5605 311.435 66.812L313.431 62.9447C314.263 63.5685 315.219 64.0571 316.3 64.4106C317.381 64.7432 318.494 64.9096 319.637 64.9096C320.906 64.9096 321.904 64.6601 322.631 64.1611C323.359 63.6621 323.723 62.9655 323.723 62.0715C323.723 61.1358 323.338 60.4289 322.569 59.9507C321.82 59.4725 320.511 59.2334 318.639 59.2334H313.057L314.179 46.9454H327.497V50.9998H318.39L318.047 55.1478H319.824ZM341.415 56.0211V52.3097H348.277V51.031H341.415V47.3508H348.277V45.885H352.705V63.6932H348.277V56.0211H341.415ZM346.218 60.6057C345.636 60.8136 344.857 60.9695 343.879 61.0735C342.902 61.1774 341.862 61.2294 340.761 61.2294H331.217V46.0098H335.802V57.3621H340.948C343.256 57.3621 345.012 57.175 346.218 56.8007V60.6057ZM353.017 69.8372H332.34V62.5081H336.924V65.6581H353.017V69.8372ZM384.101 69.8372H379.921V45.885H384.101V69.8372ZM378.393 45.9786V69.4318H374.276V63.9116H371.937C371.522 65.6789 370.898 66.968 370.066 67.7788C369.255 68.5897 368.216 68.9952 366.947 68.9952C365.097 68.9952 363.714 68.1011 362.799 66.313C361.884 64.5041 361.427 61.5933 361.427 57.5804C361.427 53.5884 361.884 50.6879 362.799 48.8791C363.714 47.0702 365.097 46.1657 366.947 46.1657C368.132 46.1657 369.12 46.5296 369.91 47.2573C370.7 47.9642 371.314 49.0766 371.75 50.5944H374.276V45.9786H378.393ZM366.947 64.7536C367.446 64.7536 367.8 64.1923 368.008 63.0695C368.236 61.9259 368.351 60.0963 368.351 57.5804C368.351 55.0646 368.236 53.2453 368.008 52.1226C367.8 50.9998 367.446 50.4384 366.947 50.4384C366.448 50.4384 366.095 50.9998 365.887 52.1226C365.679 53.2453 365.575 55.0646 365.575 57.5804C365.575 60.0963 365.679 61.9259 365.887 63.0695C366.095 64.1923 366.448 64.7536 366.947 64.7536ZM374.276 54.9919H372.405C372.468 55.7612 372.499 56.624 372.499 57.5804C372.499 58.4537 372.488 59.0982 372.468 59.5141H374.276V54.9919ZM410.201 54.0874H407.519V59.0775H403.028V45.885H407.519V49.5652H410.201V54.0874ZM394.202 54.3681C393.225 55.7196 392.04 56.8007 390.647 57.6116C389.274 58.4225 387.767 58.8695 386.124 58.9527V54.7112C387.31 54.5656 388.349 54.1082 389.243 53.3389C390.158 52.5488 390.865 51.5196 391.364 50.2513C391.884 48.983 392.154 47.5588 392.175 45.9786L396.697 46.2593C396.697 47.881 396.468 49.3885 396.011 50.7815L402.186 54.9295L399.909 58.3289L394.202 54.3681ZM397.477 59.4205C400.596 59.4205 403.08 59.8468 404.931 60.6992C406.802 61.5309 407.738 62.8824 407.738 64.7536C407.738 66.6249 406.802 67.9868 404.931 68.8392C403.08 69.6917 400.596 70.1179 397.477 70.1179C394.358 70.1179 391.863 69.6917 389.992 68.8392C388.141 67.9868 387.216 66.6249 387.216 64.7536C387.216 62.8824 388.141 61.5309 389.992 60.6992C391.863 59.8468 394.358 59.4205 397.477 59.4205ZM397.477 66.3442C399.099 66.3442 400.398 66.2195 401.375 65.97C402.373 65.6997 402.872 65.2942 402.872 64.7536C402.872 64.213 402.373 63.818 401.375 63.5685C400.398 63.319 399.099 63.1942 397.477 63.1942C395.855 63.1942 394.545 63.319 393.547 63.5685C392.549 63.818 392.05 64.213 392.05 64.7536C392.05 65.2942 392.549 65.6997 393.547 65.97C394.545 66.2195 395.855 66.3442 397.477 66.3442ZM418.33 58.828V46.1657H422.759V48.3177H434.299V46.1657H438.727V58.828H418.33ZM434.299 52.4345H422.759V54.6488H434.299V52.4345ZM430.837 65.0343V70.3986H426.221V65.0343H416.989V60.6992H440.037V65.0343H430.837ZM463.082 54.4617V58.8591H458.591V45.885H463.082V49.8771H465.764V54.4617H463.082ZM457.53 57.2686C456.948 57.5389 456.158 57.7468 455.16 57.8923C454.183 58.0379 453.154 58.1106 452.072 58.1106H442.186V46.1657H456.22V50.0642H446.708V54.2122H452.26C453.299 54.2122 454.287 54.1498 455.222 54.025C456.158 53.8795 456.927 53.682 457.53 53.4325V57.2686ZM463.082 59.7012V69.8372H442.966V59.7012H463.082ZM458.591 65.9388V63.5997H447.488V65.9388H458.591ZM483.444 53.8379V49.7835H467.725V45.885H487.997V53.8379H483.444ZM466.384 58.6096V54.7424H489.432V58.6096H466.384ZM467.725 69.8372V60.0443H488.122V69.8372H467.725ZM483.631 63.7556H472.185V66.1571H483.631V63.7556ZM517.702 43.7902C523.344 43.7902 527.498 44.9147 530.167 47.1637C532.873 49.4127 534.226 52.4241 534.226 56.1978C534.226 58.6374 533.616 60.8673 532.397 62.8876C531.177 64.8697 529.309 66.4707 526.793 67.6905C524.316 68.8722 521.247 69.463 517.588 69.463C514.767 69.463 511.984 69.1009 509.24 68.3766C506.533 67.6142 504.227 66.5469 502.321 65.1747L505.981 58.0846C507.505 59.2282 509.259 60.124 511.241 60.772C513.223 61.3819 515.262 61.6868 517.359 61.6868C519.684 61.6868 521.514 61.2294 522.848 60.3146C524.182 59.3997 524.849 58.1228 524.849 56.4837C524.849 54.7683 524.144 53.4723 522.734 52.5956C521.361 51.7189 518.96 51.2805 515.529 51.2805H505.294L507.353 28.7525H531.768V36.1856H515.072L514.443 43.7902H517.702ZM543.449 58.1418C545.05 58.1418 546.365 58.6564 547.394 59.6856C548.423 60.6767 548.938 61.9918 548.938 63.6309C548.938 64.3932 548.842 65.1556 548.652 65.918C548.461 66.6803 548.042 67.8239 547.394 69.3486L544.135 77.5822H538.474L540.99 68.491C540.037 68.1098 539.275 67.4999 538.703 66.6613C538.169 65.7846 537.902 64.7744 537.902 63.6309C537.902 61.9918 538.417 60.6767 539.446 59.6856C540.514 58.6564 541.848 58.1418 543.449 58.1418ZM568.03 69.463C564.714 69.463 561.76 68.6434 559.168 67.0044C556.576 65.3653 554.536 63.0019 553.05 59.9143C551.601 56.7886 550.877 53.0721 550.877 48.7647C550.877 44.4573 551.601 40.7598 553.05 37.6722C554.536 34.5465 556.576 32.1641 559.168 30.525C561.76 28.886 564.714 28.0664 568.03 28.0664C571.346 28.0664 574.301 28.886 576.893 30.525C579.485 32.1641 581.505 34.5465 582.953 37.6722C584.44 40.7598 585.183 44.4573 585.183 48.7647C585.183 53.0721 584.44 56.7886 582.953 59.9143C581.505 63.0019 579.485 65.3653 576.893 67.0044C574.301 68.6434 571.346 69.463 568.03 69.463ZM568.03 61.6297C570.47 61.6297 572.376 60.5814 573.748 58.4849C575.158 56.3884 575.863 53.1483 575.863 48.7647C575.863 44.3811 575.158 41.141 573.748 39.0445C572.376 36.948 570.47 35.8997 568.03 35.8997C565.629 35.8997 563.723 36.948 562.312 39.0445C560.94 41.141 560.254 44.3811 560.254 48.7647C560.254 53.1483 560.94 56.3884 562.312 58.4849C563.723 60.5814 565.629 61.6297 568.03 61.6297ZM602.353 69.463C599.037 69.463 596.083 68.6434 593.491 67.0044C590.899 65.3653 588.86 63.0019 587.373 59.9143C585.924 56.7886 585.2 53.0721 585.2 48.7647C585.2 44.4573 585.924 40.7598 587.373 37.6722C588.86 34.5465 590.899 32.1641 593.491 30.525C596.083 28.886 599.037 28.0664 602.353 28.0664C605.67 28.0664 608.624 28.886 611.216 30.525C613.808 32.1641 615.828 34.5465 617.277 37.6722C618.763 40.7598 619.507 44.4573 619.507 48.7647C619.507 53.0721 618.763 56.7886 617.277 59.9143C615.828 63.0019 613.808 65.3653 611.216 67.0044C608.624 68.6434 605.67 69.463 602.353 69.463ZM602.353 61.6297C604.793 61.6297 606.699 60.5814 608.071 58.4849C609.482 56.3884 610.187 53.1483 610.187 48.7647C610.187 44.3811 609.482 41.141 608.071 39.0445C606.699 36.948 604.793 35.8997 602.353 35.8997C599.952 35.8997 598.046 36.948 596.636 39.0445C595.263 41.141 594.577 44.3811 594.577 48.7647C594.577 53.1483 595.263 56.3884 596.636 58.4849C598.046 60.5814 599.952 61.6297 602.353 61.6297ZM636.677 69.463C633.36 69.463 630.406 68.6434 627.814 67.0044C625.222 65.3653 623.183 63.0019 621.696 59.9143C620.248 56.7886 619.523 53.0721 619.523 48.7647C619.523 44.4573 620.248 40.7598 621.696 37.6722C623.183 34.5465 625.222 32.1641 627.814 30.525C630.406 28.886 633.36 28.0664 636.677 28.0664C639.993 28.0664 642.947 28.886 645.539 30.525C648.131 32.1641 650.152 34.5465 651.6 37.6722C653.087 40.7598 653.83 44.4573 653.83 48.7647C653.83 53.0721 653.087 56.7886 651.6 59.9143C650.152 63.0019 648.131 65.3653 645.539 67.0044C642.947 68.6434 639.993 69.463 636.677 69.463ZM636.677 61.6297C639.116 61.6297 641.022 60.5814 642.395 58.4849C643.805 56.3884 644.51 53.1483 644.51 48.7647C644.51 44.3811 643.805 41.141 642.395 39.0445C641.022 36.948 639.116 35.8997 636.677 35.8997C634.275 35.8997 632.369 36.948 630.959 39.0445C629.587 41.141 628.901 44.3811 628.901 48.7647C628.901 53.1483 629.587 56.3884 630.959 58.4849C632.369 60.5814 634.275 61.6297 636.677 61.6297ZM699.474 43.9618H694.557V59.3426H686.324V26.8085H694.557V35.5567H699.474V43.9618ZM656.248 52.3097V27.3231H681.749V52.3097H656.248ZM664.482 34.6418V44.9338H673.63V34.6418H664.482ZM695.186 62.9447V70.7209H657.678V55.3401H666.083V62.9447H695.186ZM733.032 26.8085H741.322V60.8863H733.032V59.6856H722.282V53.682H733.032V26.8085ZM715.535 44.2477C711.647 44.2477 708.522 43.4853 706.158 41.9606C703.833 40.3977 702.67 38.1678 702.67 35.2708C702.67 32.3738 703.833 30.1629 706.158 28.6382C708.522 27.1134 711.647 26.3511 715.535 26.3511C719.423 26.3511 722.53 27.1134 724.855 28.6382C727.181 30.1629 728.343 32.3738 728.343 35.2708C728.343 38.1678 727.181 40.3977 724.855 41.9606C722.53 43.4853 719.423 44.2477 715.535 44.2477ZM715.535 32.6978C714.011 32.6978 712.81 32.9265 711.933 33.3839C711.095 33.8032 710.675 34.4322 710.675 35.2708C710.675 36.1475 711.095 36.7955 711.933 37.2148C712.81 37.6341 714.011 37.8438 715.535 37.8438C717.06 37.8438 718.242 37.6341 719.08 37.2148C719.919 36.7955 720.338 36.1475 720.338 35.2708C720.338 34.4322 719.9 33.8032 719.023 33.3839C718.185 32.9265 717.022 32.6978 715.535 32.6978ZM700.612 52.4241V45.7343H719.881C724.76 45.7343 728.362 45.2006 730.687 44.1333V50.8231C729.391 51.433 727.79 51.8523 725.885 52.081C724.017 52.3097 721.672 52.4241 718.852 52.4241V59.0567H710.618V52.4241H700.612ZM741.894 70.7209H703.928V56.7696H712.219V63.4593H741.894V70.7209Z" fill="black"/>
<path d="M260.561 36.2291C259.525 36.2291 258.531 36.054 257.579 35.704C256.64 35.3399 255.898 34.8708 255.352 34.2967L255.94 33.0995C256.458 33.6316 257.131 34.0656 257.957 34.4017C258.797 34.7238 259.665 34.8848 260.561 34.8848C261.793 34.8848 262.718 34.6468 263.334 34.1707C263.964 33.6806 264.279 33.0575 264.279 32.3013C264.279 31.7132 264.111 31.2441 263.775 30.894C263.439 30.53 263.019 30.2569 262.515 30.0749C262.011 29.8788 261.324 29.6688 260.456 29.4448C259.42 29.1647 258.587 28.8987 257.957 28.6466C257.341 28.3806 256.809 27.9815 256.36 27.4494C255.926 26.9173 255.709 26.1961 255.709 25.286C255.709 24.5438 255.898 23.8647 256.276 23.2486C256.654 22.6325 257.222 22.1424 257.978 21.7783C258.748 21.4142 259.7 21.2322 260.834 21.2322C261.646 21.2322 262.438 21.3512 263.208 21.5893C263.978 21.8273 264.65 22.1564 265.224 22.5764L264.699 23.8157C264.125 23.4096 263.502 23.1015 262.83 22.8915C262.158 22.6815 261.499 22.5764 260.855 22.5764C259.651 22.5764 258.741 22.8285 258.125 23.3326C257.523 23.8227 257.222 24.4528 257.222 25.223C257.222 25.8111 257.39 26.2872 257.726 26.6512C258.062 27.0153 258.482 27.2954 258.986 27.4914C259.504 27.6734 260.197 27.8765 261.065 28.1005C262.088 28.3666 262.907 28.6326 263.523 28.8987C264.153 29.1507 264.685 29.5428 265.119 30.0749C265.567 30.607 265.791 31.3141 265.791 32.1963C265.791 32.9384 265.595 33.6176 265.203 34.2337C264.825 34.8358 264.244 35.3189 263.46 35.683C262.676 36.047 261.709 36.2291 260.561 36.2291ZM280.864 28.8566V36.7962H279.351V20.6651H280.864V27.3444H283.09V28.8566H280.864ZM273.575 21.1272C273.547 23.7597 273.344 26.0141 272.966 27.8905L277.902 34.8428L276.663 35.746L272.462 29.7598C271.944 31.5662 271.237 32.9944 270.341 34.0446C269.444 35.0808 268.408 35.662 267.232 35.788V34.2127C268.254 34.0306 269.122 33.3375 269.836 32.1333C270.565 30.929 271.111 29.3677 271.475 27.4494C271.839 25.531 272.028 23.4096 272.042 21.0852L273.575 21.1272ZM298.358 36.7962H296.908V20.6651H298.358V36.7962ZM294.661 20.7491V36.5231H293.212V29.0247H291.006C290.964 31.3911 290.649 33.1485 290.061 34.2967C289.473 35.4309 288.612 35.998 287.478 35.998C286.315 35.998 285.433 35.3959 284.831 34.1917C284.243 32.9734 283.949 31.0901 283.949 28.5416C283.949 23.5706 285.125 21.0852 287.478 21.0852C289.676 21.0852 290.845 23.2206 290.985 27.4914H293.212V20.7491H294.661ZM287.478 34.5487C288.178 34.5487 288.696 34.0586 289.032 33.0785C289.382 32.0843 289.557 30.572 289.557 28.5416C289.557 26.5112 289.382 25.0059 289.032 24.0257C288.696 23.0315 288.178 22.5344 287.478 22.5344C286.777 22.5344 286.252 23.0315 285.902 24.0257C285.566 25.0059 285.398 26.5112 285.398 28.5416C285.398 30.572 285.566 32.0843 285.902 33.0785C286.252 34.0586 286.777 34.5487 287.478 34.5487ZM314.676 36.7962H313.163V28.1215H309.067V26.6302H313.163V20.6651H314.676V36.7962ZM306.631 21.1272C306.603 23.4096 306.449 25.433 306.169 27.1973L311.042 34.9478L309.803 35.83L305.707 29.1927C305.203 31.1811 304.51 32.7494 303.627 33.8976C302.745 35.0318 301.702 35.662 300.498 35.788V34.1917C301.492 34.0096 302.332 33.3165 303.018 32.1123C303.704 30.908 304.216 29.3537 304.552 27.4494C304.902 25.531 305.084 23.4096 305.098 21.0852L306.631 21.1272ZM322.23 29.1927V20.9801H323.721V23.4166H333.803V20.9801H335.294V29.1927H322.23ZM333.803 24.8239H323.721V27.7644H333.803V24.8239ZM329.539 32.4903V37.1742H327.985V32.4903H321.116V31.0201H336.407V32.4903H329.539ZM351.549 25.622V29.4448H350.037V20.6651H351.549V24.0887H353.775V25.622H351.549ZM348.818 27.8485C348.328 28.0865 347.628 28.2685 346.718 28.3946C345.808 28.5206 344.779 28.5836 343.63 28.5836H338.337V21.1062H347.684V22.4714H339.85V27.2183H343.715C344.835 27.2183 345.836 27.1553 346.718 27.0293C347.614 26.9033 348.314 26.7212 348.818 26.4832V27.8485ZM351.549 30.3899V36.5441H338.842V30.3899H351.549ZM350.037 35.1789V31.7552H340.375V35.1789H350.037ZM362.238 23.2906V24.7189H354.067V23.2906H357.386V20.6231H358.898V23.2906H362.238ZM369.043 36.7962H367.615V28.7726H364.905V36.5231H363.477V20.7491H364.905V27.2813H367.615V20.6651H369.043V36.7962ZM358.226 26.1261C358.912 26.1261 359.521 26.3222 360.053 26.7142C360.6 27.0923 361.02 27.6524 361.314 28.3946C361.622 29.1227 361.776 30.0049 361.776 31.0411C361.776 32.0773 361.622 32.9664 361.314 33.7086C361.02 34.4507 360.6 35.0178 360.053 35.4099C359.521 35.788 358.912 35.977 358.226 35.977C357.176 35.977 356.329 35.5429 355.685 34.6748C355.04 33.8066 354.718 32.5954 354.718 31.0411C354.718 29.4868 355.04 28.2825 355.685 27.4284C356.329 26.5602 357.176 26.1261 358.226 26.1261ZM358.226 34.5697C358.856 34.5697 359.367 34.2547 359.759 33.6246C360.151 32.9944 360.347 32.1333 360.347 31.0411C360.347 29.9489 360.151 29.0877 359.759 28.4576C359.367 27.8275 358.856 27.5124 358.226 27.5124C357.596 27.5124 357.085 27.8275 356.693 28.4576C356.315 29.0737 356.126 29.9349 356.126 31.0411C356.126 32.1473 356.315 33.0154 356.693 33.6456C357.085 34.2617 357.596 34.5697 358.226 34.5697ZM384.815 30.2219H387.041V31.6922H384.815V36.7962H383.303V20.6651H384.815V24.7609H387.041V26.2311H384.815V30.2219ZM376.098 21.0852C377.471 21.0852 378.563 21.7153 379.375 22.9755C380.201 24.2358 380.614 26.0911 380.614 28.5416C380.614 30.9921 380.201 32.8474 379.375 34.1077C378.563 35.3679 377.471 35.998 376.098 35.998C374.712 35.998 373.606 35.3679 372.78 34.1077C371.967 32.8474 371.561 30.9921 371.561 28.5416C371.561 26.0911 371.967 24.2358 372.78 22.9755C373.606 21.7153 374.712 21.0852 376.098 21.0852ZM376.098 34.5487C376.994 34.5487 377.716 34.0516 378.262 33.0575C378.822 32.0493 379.102 30.544 379.102 28.5416C379.102 26.5392 378.822 25.0409 378.262 24.0467C377.716 23.0385 376.994 22.5344 376.098 22.5344C375.174 22.5344 374.439 23.0385 373.893 24.0467C373.347 25.0409 373.074 26.5392 373.074 28.5416C373.074 30.558 373.347 32.0633 373.893 33.0575C374.439 34.0516 375.174 34.5487 376.098 34.5487ZM391.781 23.1226V21.9043H396.213V20.371H397.746V21.9043H402.178V23.1226H391.781ZM407.828 25.538H405.602V29.1087H404.089V20.6651H405.602V24.1097H407.828V25.538ZM396.99 29.0037C395.688 29.0037 394.616 28.7866 393.776 28.3526C392.95 27.9185 392.537 27.2954 392.537 26.4832C392.537 25.685 392.95 25.0689 393.776 24.6348C394.616 24.2008 395.688 23.9837 396.99 23.9837C398.278 23.9837 399.335 24.2008 400.161 24.6348C401.002 25.0689 401.422 25.685 401.422 26.4832C401.422 27.2954 401.009 27.9185 400.182 28.3526C399.356 28.7866 398.292 29.0037 396.99 29.0037ZM396.99 25.1179C396.066 25.1179 395.331 25.244 394.784 25.496C394.238 25.7481 393.965 26.0771 393.965 26.4832C393.965 26.9033 394.238 27.2393 394.784 27.4914C395.331 27.7434 396.066 27.8695 396.99 27.8695C397.9 27.8695 398.628 27.7434 399.174 27.4914C399.72 27.2393 399.993 26.9033 399.993 26.4832C399.993 26.0771 399.72 25.7481 399.174 25.496C398.642 25.244 397.914 25.1179 396.99 25.1179ZM406.022 35.3679V36.5441H392.915V32.7214H404.11V31.1881H392.873V30.0329H405.602V33.8346H394.427V35.3679H406.022Z" fill="black"/>
<path d="M258.102 152.738H256.59V144.925H253.44C253.384 147.235 252.949 148.985 252.137 150.176C251.325 151.352 250.254 151.94 248.924 151.94C247.537 151.94 246.431 151.31 245.605 150.05C244.793 148.789 244.387 146.934 244.387 144.483C244.387 142.033 244.793 140.178 245.605 138.917C246.431 137.657 247.537 137.027 248.924 137.027C250.198 137.027 251.234 137.566 252.032 138.644C252.83 139.723 253.293 141.319 253.419 143.433H256.59V136.607H258.102V152.738ZM248.924 150.491C249.834 150.491 250.562 149.994 251.108 148.999C251.654 148.005 251.927 146.5 251.927 144.483C251.927 142.481 251.654 140.983 251.108 139.989C250.562 138.98 249.834 138.476 248.924 138.476C248.014 138.476 247.278 138.98 246.718 139.989C246.172 140.983 245.899 142.481 245.899 144.483C245.899 146.5 246.172 148.005 246.718 148.999C247.278 149.994 248.014 150.491 248.924 150.491ZM268.035 142.404C266.061 142.404 264.45 142.166 263.204 141.69C261.958 141.214 261.335 140.479 261.335 139.485C261.335 138.49 261.951 137.762 263.183 137.3C264.429 136.824 266.047 136.586 268.035 136.586C270.024 136.586 271.634 136.824 272.866 137.3C274.098 137.762 274.714 138.49 274.714 139.485C274.714 140.479 274.091 141.214 272.845 141.69C271.613 142.166 270.01 142.404 268.035 142.404ZM268.035 137.825C266.551 137.825 265.326 137.965 264.359 138.245C263.393 138.511 262.91 138.924 262.91 139.485C262.91 140.045 263.386 140.465 264.338 140.745C265.305 141.011 266.537 141.144 268.035 141.144C269.519 141.144 270.738 141.011 271.69 140.745C272.656 140.465 273.139 140.045 273.139 139.485C273.139 138.924 272.656 138.511 271.69 138.245C270.738 137.965 269.519 137.825 268.035 137.825ZM268.791 146.269H274.588V149.882H262.973V151.352H274.861V152.507H261.503V148.852H273.097V147.424H261.461V146.269H267.279V144.652H260.39V143.412H275.681V144.652H268.791V146.269ZM289.73 146.059V136.607H291.263V146.059H289.73ZM279.291 141.837V144.126H283.345C284.465 144.126 285.466 144.063 286.348 143.937C287.245 143.797 287.938 143.608 288.428 143.37V144.673C287.938 144.911 287.238 145.1 286.327 145.24C285.417 145.366 284.395 145.429 283.261 145.429H277.779V140.619H285.277V138.329H277.737V137.048H286.79V141.837H279.291ZM278.388 152.486V147.004H291.263V152.486H278.388ZM289.751 148.327H279.879V151.163H289.751V148.327ZM307.497 144.652V152.738H305.985V136.607H307.497V143.118H309.682V144.652H307.497ZM294.244 138.749V137.258H302.96V147.571H301.427V138.749H294.244ZM299.369 150.239C301.833 150.239 303.577 150.008 304.599 149.545V151.037C303.535 151.499 301.798 151.73 299.39 151.73H293.656V150.239H296.512V143.181H298.024V150.239H299.369ZM319.588 152.171C318.552 152.171 317.558 151.996 316.606 151.646C315.667 151.282 314.925 150.813 314.379 150.239L314.967 149.041C315.485 149.573 316.158 150.008 316.984 150.344C317.824 150.666 318.692 150.827 319.588 150.827C320.82 150.827 321.745 150.589 322.361 150.113C322.991 149.622 323.306 148.999 323.306 148.243C323.306 147.655 323.138 147.186 322.802 146.836C322.466 146.472 322.046 146.199 321.542 146.017C321.037 145.821 320.351 145.611 319.483 145.387C318.447 145.107 317.614 144.841 316.984 144.589C316.368 144.322 315.835 143.923 315.387 143.391C314.953 142.859 314.736 142.138 314.736 141.228C314.736 140.486 314.925 139.807 315.303 139.19C315.681 138.574 316.249 138.084 317.005 137.72C317.775 137.356 318.727 137.174 319.861 137.174C320.673 137.174 321.465 137.293 322.235 137.531C323.005 137.769 323.677 138.098 324.251 138.518L323.726 139.758C323.152 139.352 322.529 139.043 321.857 138.833C321.185 138.623 320.526 138.518 319.882 138.518C318.678 138.518 317.768 138.77 317.152 139.274C316.55 139.765 316.249 140.395 316.249 141.165C316.249 141.753 316.417 142.229 316.753 142.593C317.089 142.957 317.509 143.237 318.013 143.433C318.531 143.615 319.224 143.818 320.092 144.042C321.115 144.308 321.934 144.575 322.55 144.841C323.18 145.093 323.712 145.485 324.146 146.017C324.594 146.549 324.818 147.256 324.818 148.138C324.818 148.88 324.622 149.559 324.23 150.176C323.852 150.778 323.271 151.261 322.487 151.625C321.703 151.989 320.736 152.171 319.588 152.171ZM339.89 144.799V152.738H338.378V136.607H339.89V143.286H342.117V144.799H339.89ZM332.602 137.069C332.574 139.702 332.371 141.956 331.993 143.832L336.929 150.785L335.69 151.688L331.489 145.702C330.971 147.508 330.264 148.936 329.367 149.987C328.471 151.023 327.435 151.604 326.259 151.73V150.155C327.281 149.973 328.149 149.279 328.863 148.075C329.592 146.871 330.138 145.31 330.502 143.391C330.866 141.473 331.055 139.352 331.069 137.027L332.602 137.069ZM351.54 140.556C351.526 141.844 351.449 143.083 351.309 144.273L355.048 150.827L353.851 151.562L350.91 146.332C350.574 147.928 350.077 149.181 349.419 150.092C348.761 151.002 347.949 151.548 346.982 151.73V150.218C347.991 149.952 348.747 148.971 349.251 147.277C349.769 145.583 350.042 143.342 350.07 140.556H347.129V139.127H350.07V136.565H351.54V139.127H354.439V140.556H351.54ZM361.538 152.738H360.089V136.607H361.538V152.738ZM357.526 136.691V152.465H356.098V144.715H353.851V143.223H356.098V136.691H357.526ZM372.878 143.139V141.795H376.365V139.674H373.466V138.308H376.365V136.607H377.856V144.546H376.365V143.139H372.878ZM372.71 138.602C372.71 140.563 371.954 141.991 370.442 142.887C368.943 143.769 366.808 144.21 364.035 144.21V142.866C366.332 142.852 368.096 142.516 369.329 141.858C370.575 141.2 371.198 140.185 371.198 138.812V138.392H364.035V137.048H372.71V138.602ZM378.276 152.486H365.002V148.432H376.344V146.71H364.96V145.492H377.856V149.566H366.535V151.268H378.276V152.486ZM392.746 142.257V138.203H381.215V136.838H394.279V142.257H392.746ZM380.143 144.652V143.307H395.434V144.652H380.143ZM381.257 152.507V146.458H394.321V152.507H381.257ZM392.83 147.781H382.769V151.184H392.83V147.781ZM411.437 146.563H409.988V141.921H407.215V146.395H405.787V136.691H407.215V140.43H409.988V136.607H411.437V146.563ZM400.578 146.101C399.458 146.101 398.59 145.681 397.974 144.841C397.371 144 397.07 142.859 397.07 141.417C397.07 139.989 397.371 138.854 397.974 138.014C398.59 137.174 399.458 136.754 400.578 136.754C401.698 136.754 402.559 137.174 403.162 138.014C403.778 138.854 404.086 139.989 404.086 141.417C404.086 142.859 403.778 144 403.162 144.841C402.559 145.681 401.698 146.101 400.578 146.101ZM400.578 138.098C399.92 138.098 399.409 138.385 399.045 138.959C398.681 139.534 398.499 140.353 398.499 141.417C398.499 142.481 398.681 143.3 399.045 143.874C399.409 144.448 399.92 144.736 400.578 144.736C401.236 144.736 401.747 144.448 402.111 143.874C402.475 143.3 402.657 142.481 402.657 141.417C402.657 140.353 402.475 139.534 402.111 138.959C401.747 138.385 401.236 138.098 400.578 138.098ZM411.437 147.508V152.696H409.925V148.894H398.205V147.508H411.437Z" fill="black"/>
<path d="M45.2821 280.716C44.2459 280.716 43.2517 280.541 42.2995 280.191C41.3613 279.827 40.6192 279.358 40.0731 278.784L40.6612 277.586C41.1793 278.118 41.8514 278.552 42.6776 278.889C43.5177 279.211 44.3859 279.372 45.2821 279.372C46.5143 279.372 47.4385 279.134 48.0546 278.657C48.6847 278.167 48.9998 277.544 48.9998 276.788C48.9998 276.2 48.8317 275.731 48.4957 275.381C48.1596 275.017 47.7395 274.744 47.2354 274.562C46.7313 274.366 46.0452 274.156 45.177 273.932C44.1408 273.652 43.3077 273.385 42.6776 273.133C42.0614 272.867 41.5293 272.468 41.0813 271.936C40.6472 271.404 40.4301 270.683 40.4301 269.773C40.4301 269.031 40.6192 268.352 40.9972 267.735C41.3753 267.119 41.9424 266.629 42.6986 266.265C43.4687 265.901 44.4209 265.719 45.5551 265.719C46.3673 265.719 47.1584 265.838 47.9286 266.076C48.6987 266.314 49.3708 266.643 49.9449 267.063L49.4198 268.303C48.8457 267.896 48.2226 267.588 47.5505 267.378C46.8784 267.168 46.2202 267.063 45.5761 267.063C44.3719 267.063 43.4617 267.315 42.8456 267.819C42.2435 268.31 41.9424 268.94 41.9424 269.71C41.9424 270.298 42.1104 270.774 42.4465 271.138C42.7826 271.502 43.2027 271.782 43.7068 271.978C44.2249 272.16 44.918 272.363 45.7862 272.587C46.8083 272.853 47.6275 273.119 48.2436 273.385C48.8737 273.638 49.4058 274.03 49.8399 274.562C50.288 275.094 50.5121 275.801 50.5121 276.683C50.5121 277.425 50.316 278.104 49.9239 278.72C49.5459 279.323 48.9648 279.806 48.1806 280.17C47.3965 280.534 46.4303 280.716 45.2821 280.716ZM65.5843 273.343V281.283H64.072V265.152H65.5843V271.831H67.8107V273.343H65.5843ZM58.2959 265.614C58.2679 268.246 58.0649 270.501 57.6868 272.377L62.6228 279.33L61.3835 280.233L57.1827 274.247C56.6646 276.053 55.9575 277.481 55.0613 278.531C54.1651 279.568 53.1289 280.149 51.9527 280.275V278.699C52.9749 278.517 53.8431 277.824 54.5572 276.62C55.2854 275.416 55.8315 273.855 56.1955 271.936C56.5596 270.018 56.7486 267.896 56.7626 265.572L58.2959 265.614ZM80.0067 269.542C79.1525 270.802 78.0953 271.803 76.8351 272.545C75.5748 273.287 74.2726 273.659 72.9283 273.659V272.146C74.0206 272.16 75.0848 271.852 76.121 271.222C77.1572 270.578 78.0393 269.71 78.7675 268.618C79.4956 267.525 79.9717 266.335 80.1957 265.047L81.75 265.32C81.568 266.272 81.2319 267.266 80.7418 268.303L87.4001 272.335L86.686 273.638L80.0067 269.542ZM80.9729 276.956V281.661H79.4396V276.956H72.5713V275.486H87.8622V276.956H80.9729ZM90.2964 266.748V265.383H103.34V270.592H101.807V266.748H90.2964ZM104.495 272.965H89.2042V271.6H104.495V272.965ZM103.382 274.289V281.052H90.3175V274.289H91.8087V276.305H101.891V274.289H103.382ZM101.891 277.544H91.8087V279.792H101.891V277.544ZM120.498 275.108H119.049V270.466H116.276V274.94H114.848V265.236H116.276V268.975H119.049V265.152H120.498V275.108ZM109.639 274.646C108.519 274.646 107.651 274.226 107.034 273.385C106.432 272.545 106.131 271.404 106.131 269.962C106.131 268.534 106.432 267.399 107.034 266.559C107.651 265.719 108.519 265.299 109.639 265.299C110.759 265.299 111.62 265.719 112.222 266.559C112.839 267.399 113.147 268.534 113.147 269.962C113.147 271.404 112.839 272.545 112.222 273.385C111.62 274.226 110.759 274.646 109.639 274.646ZM109.639 266.643C108.981 266.643 108.47 266.93 108.106 267.504C107.742 268.078 107.56 268.898 107.56 269.962C107.56 271.026 107.742 271.845 108.106 272.419C108.47 272.993 108.981 273.28 109.639 273.28C110.297 273.28 110.808 272.993 111.172 272.419C111.536 271.845 111.718 271.026 111.718 269.962C111.718 268.898 111.536 268.078 111.172 267.504C110.808 266.93 110.297 266.643 109.639 266.643ZM120.498 276.053V281.241H118.986V277.439H107.265V276.053H120.498ZM136.69 281.283H135.178V265.152H136.69V281.283ZM132.027 265.656V280.275H123.394V265.656H124.907V271.39H130.515V265.656H132.027ZM130.515 272.839H124.907V278.805H130.515V272.839ZM146.749 270.865C144.76 270.865 143.143 270.634 141.897 270.172C140.664 269.71 140.048 268.982 140.048 267.987C140.048 267.007 140.664 266.286 141.897 265.824C143.143 265.362 144.76 265.131 146.749 265.131C148.737 265.131 150.347 265.362 151.58 265.824C152.812 266.272 153.428 266.993 153.428 267.987C153.428 268.982 152.805 269.71 151.559 270.172C150.326 270.634 148.723 270.865 146.749 270.865ZM146.749 266.37C145.25 266.37 144.018 266.503 143.052 266.769C142.1 267.035 141.624 267.441 141.624 267.987C141.624 268.548 142.1 268.961 143.052 269.227C144.004 269.493 145.236 269.626 146.749 269.626C148.247 269.626 149.472 269.493 150.424 269.227C151.376 268.961 151.853 268.548 151.853 267.987C151.853 267.441 151.376 267.035 150.424 266.769C149.472 266.503 148.247 266.37 146.749 266.37ZM150.382 274.814H153.302V278.426H141.687V279.897H153.575V281.052H140.216V277.397H151.811V275.969H140.174V274.814H143.115V273.007H139.103V271.768H154.394V273.007H150.382V274.814ZM144.606 273.007V274.814H148.891V273.007H144.606ZM165.162 271.957C164.658 272.867 163.986 273.617 163.145 274.205C162.305 274.793 161.325 275.164 160.205 275.318V273.869C161.479 273.659 162.487 273.077 163.229 272.125C163.972 271.159 164.406 269.997 164.532 268.639H160.52V267.189H164.553V264.942H166.086V267.189H170.077V268.639H166.065C166.023 269.409 165.904 270.081 165.708 270.655L170.581 274.1L169.741 275.297L165.162 271.957ZM174.151 281.283H172.639V265.152H174.151V281.283ZM166.023 278.805C168.487 278.805 170.238 278.573 171.274 278.111V279.582C170.196 280.044 168.452 280.275 166.044 280.275H159.89V278.805H164.385V275.129H165.897V278.805H166.023ZM191.184 281.283H189.734V273.259H186.962V281.01H185.533V265.236H186.962V271.768H189.734V265.152H191.184V281.283ZM180.745 278.847C181.403 278.847 182.047 278.791 182.677 278.678C183.307 278.566 183.853 278.412 184.315 278.216V279.624C183.853 279.834 183.293 279.995 182.635 280.107C181.977 280.219 181.284 280.275 180.555 280.275H177.048V265.782H183.664V267.21H178.518V278.847H180.745ZM211.634 274.982H210.122V270.34H206.992V268.954H210.122V265.152H211.634V274.982ZM202.644 270.865C202.14 271.873 201.454 272.692 200.586 273.322C199.732 273.939 198.745 274.317 197.624 274.457V272.986C198.969 272.776 200.033 272.146 200.817 271.096C201.601 270.032 202.035 268.667 202.119 267H197.813V265.614H207.622V267H203.631C203.589 267.854 203.456 268.702 203.232 269.542L208.042 273.133L207.223 274.331L202.644 270.865ZM211.634 275.927V281.241H210.101V277.334H198.591V275.927H211.634ZM229.233 274.121H213.942V272.818H217.408V270.655C216.61 270.417 215.987 270.088 215.539 269.668C215.09 269.248 214.866 268.737 214.866 268.134C214.866 267.112 215.497 266.349 216.757 265.845C218.017 265.327 219.627 265.068 221.588 265.068C223.548 265.068 225.151 265.327 226.398 265.845C227.658 266.349 228.288 267.112 228.288 268.134C228.288 268.737 228.064 269.248 227.616 269.668C227.168 270.088 226.545 270.417 225.747 270.655V272.818H229.233V274.121ZM221.588 266.37C220.103 266.37 218.871 266.517 217.891 266.811C216.925 267.105 216.442 267.546 216.442 268.134C216.442 268.723 216.925 269.164 217.891 269.458C218.857 269.752 220.089 269.899 221.588 269.899C223.072 269.899 224.297 269.752 225.263 269.458C226.23 269.164 226.713 268.723 226.713 268.134C226.713 267.546 226.223 267.105 225.242 266.811C224.276 266.517 223.058 266.37 221.588 266.37ZM224.234 272.818V270.991C223.478 271.131 222.596 271.201 221.588 271.201C220.594 271.201 219.704 271.131 218.92 270.991V272.818H224.234ZM221.588 275.528C223.576 275.528 225.186 275.752 226.419 276.2C227.651 276.634 228.267 277.362 228.267 278.384C228.267 279.407 227.651 280.142 226.419 280.59C225.186 281.052 223.576 281.283 221.588 281.283C219.599 281.283 217.982 281.052 216.736 280.59C215.504 280.142 214.887 279.407 214.887 278.384C214.887 277.362 215.504 276.634 216.736 276.2C217.982 275.752 219.599 275.528 221.588 275.528ZM221.588 280.002C223.044 280.002 224.255 279.876 225.221 279.624C226.188 279.372 226.671 278.959 226.671 278.384C226.671 277.824 226.188 277.425 225.221 277.187C224.255 276.935 223.044 276.809 221.588 276.809C220.131 276.809 218.913 276.935 217.933 277.187C216.967 277.425 216.484 277.824 216.484 278.384C216.484 278.959 216.967 279.372 217.933 279.624C218.913 279.876 220.131 280.002 221.588 280.002ZM244.816 281.283H243.283V265.152H244.816V281.283ZM237.339 265.614C237.311 268.162 237.093 270.396 236.687 272.314L241.749 279.309L240.531 280.233L236.204 274.163C235.658 275.997 234.93 277.446 234.02 278.51C233.124 279.561 232.081 280.149 230.89 280.275V278.699C231.926 278.517 232.809 277.824 233.537 276.62C234.265 275.402 234.818 273.834 235.196 271.915C235.574 269.997 235.77 267.882 235.784 265.572L237.339 265.614Z" fill="white"/>
<path d="M503.036 109.326V119.046H495.66V109.326H485.768V102.351H495.66V92.6304H503.036V102.351H512.985V109.326H503.036Z" fill="#01A69F"/>
<path d="M509.702 238.701L502.727 238.701L502.727 211.485L509.702 211.485L509.702 238.701ZM495.522 238.701L488.547 238.701L488.547 211.485L495.522 211.485L495.522 238.701Z" fill="#01A69F"/>
</svg>
