<svg width="742" height="152" viewBox="0 0 742 152" fill="none" xmlns="http://www.w3.org/2000/svg">
<path d="M28.491 46.583C27.593 46.583 26.7314 46.4313 25.9061 46.1279C25.0931 45.8124 24.4499 45.4058 23.9766 44.9083L24.4863 43.8707C24.9353 44.3318 25.5178 44.708 26.2338 44.9993C26.9619 45.2784 27.7144 45.418 28.491 45.418C29.559 45.418 30.3599 45.2117 30.8939 44.799C31.44 44.3743 31.713 43.8343 31.713 43.1789C31.713 42.6692 31.5674 42.2627 31.2762 41.9593C30.9849 41.6438 30.6208 41.4071 30.184 41.2494C29.7471 41.0795 29.1524 40.8974 28.4 40.7033C27.502 40.4606 26.7799 40.23 26.2338 40.0115C25.6998 39.781 25.2387 39.4351 24.8503 38.9739C24.4741 38.5128 24.286 37.8878 24.286 37.099C24.286 36.4558 24.4499 35.8672 24.7775 35.3332C25.1052 34.7993 25.5967 34.3745 26.252 34.059C26.9195 33.7435 27.7447 33.5857 28.7277 33.5857C29.4315 33.5857 30.1172 33.6889 30.7847 33.8952C31.4521 34.1015 32.0346 34.3867 32.5322 34.7507L32.0771 35.8247C31.5796 35.4728 31.0395 35.2058 30.457 35.0238C29.8745 34.8417 29.3041 34.7507 28.7459 34.7507C27.7022 34.7507 26.9134 34.9692 26.3794 35.4061C25.8576 35.8308 25.5967 36.3769 25.5967 37.0444C25.5967 37.5541 25.7423 37.9667 26.0336 38.2822C26.3248 38.5977 26.6889 38.8404 27.1258 39.0103C27.5748 39.1681 28.1755 39.3441 28.9279 39.5382C29.8138 39.7688 30.5238 39.9994 31.0577 40.23C31.6038 40.4484 32.065 40.7882 32.4412 41.2494C32.8295 41.7105 33.0237 42.3234 33.0237 43.0879C33.0237 43.7311 32.8538 44.3197 32.514 44.8537C32.1863 45.3755 31.6827 45.7942 31.0031 46.1097C30.3235 46.4252 29.4862 46.583 28.491 46.583ZM46.0863 40.1936V47.0745H44.7757V33.0942H46.0863V38.8829H48.0159V40.1936H46.0863ZM39.7697 33.4947C39.7455 35.7762 39.5695 37.73 39.2418 39.3562L43.5196 45.3816L42.4456 46.1643L38.8049 40.9763C38.3559 42.5418 37.7431 43.7797 36.9664 44.6898C36.1897 45.5879 35.2917 46.0915 34.2723 46.2007V44.8355C35.1582 44.6777 35.9106 44.077 36.5295 43.0333C37.1606 41.9896 37.6338 40.6365 37.9494 38.9739C38.2649 37.3114 38.4287 35.4728 38.4409 33.4583L39.7697 33.4947ZM60.9567 37.2628V38.4642H49.5431V33.1124H50.8537V37.2628H60.9567ZM48.5419 41.3768V40.1936H61.794V41.3768H48.5419ZM61.0841 45.6728V46.8742H49.5067V42.7421H50.8355V45.6728H61.0841ZM78.9899 47.0745H77.6793V40.3028H74.9487C74.9002 42.3052 74.524 43.8221 73.8201 44.8537C73.1162 45.8731 72.1879 46.3828 71.035 46.3828C69.8336 46.3828 68.8748 45.8366 68.1588 44.7444C67.455 43.6522 67.103 42.0443 67.103 39.9205C67.103 37.7968 67.455 36.1888 68.1588 35.0966C68.8748 34.0044 69.8336 33.4583 71.035 33.4583C72.1393 33.4583 73.0374 33.9255 73.7291 34.86C74.4208 35.7944 74.8213 37.1779 74.9305 39.0103H77.6793V33.0942H78.9899V47.0745ZM71.035 45.1267C71.8238 45.1267 72.4549 44.6959 72.9281 43.8343C73.4014 42.9726 73.6381 41.6681 73.6381 39.9205C73.6381 38.1851 73.4014 36.8866 72.9281 36.025C72.4549 35.1512 71.8238 34.7143 71.035 34.7143C70.2462 34.7143 69.609 35.1512 69.1236 36.025C68.6503 36.8866 68.4137 38.1851 68.4137 39.9205C68.4137 41.6681 68.6503 42.9726 69.1236 43.8343C69.609 44.6959 70.2462 45.1267 71.035 45.1267ZM87.5982 38.1184C85.8871 38.1184 84.4915 37.9121 83.4114 37.4995C82.3314 37.0868 81.7913 36.4497 81.7913 35.5881C81.7913 34.7265 82.3253 34.0954 83.3932 33.6949C84.4733 33.2823 85.875 33.076 87.5982 33.076C89.3215 33.076 90.7171 33.2823 91.785 33.6949C92.853 34.0954 93.3869 34.7265 93.3869 35.5881C93.3869 36.4497 92.8469 37.0868 91.7668 37.4995C90.6989 37.9121 89.3094 38.1184 87.5982 38.1184ZM87.5982 34.15C86.3118 34.15 85.25 34.2714 84.4126 34.5141C83.5753 34.7447 83.1566 35.1027 83.1566 35.5881C83.1566 36.0735 83.5692 36.4376 84.3944 36.6803C85.2318 36.9109 86.2997 37.0262 87.5982 37.0262C88.8846 37.0262 89.9404 36.9109 90.7656 36.6803C91.603 36.4376 92.0217 36.0735 92.0217 35.5881C92.0217 35.1027 91.603 34.7447 90.7656 34.5141C89.9404 34.2714 88.8846 34.15 87.5982 34.15ZM88.2536 41.4678H93.2777V44.5988H83.2112V45.8731H93.5144V46.8742H81.9369V43.7068H91.9853V42.469H81.9005V41.4678H86.9429V40.0661H80.9722V38.9921H94.2243V40.0661H88.2536V41.4678ZM106.401 41.2858V33.0942H107.729V41.2858H106.401ZM97.3534 37.6269V39.6111H100.867C101.837 39.6111 102.705 39.5564 103.47 39.4472C104.246 39.3259 104.847 39.162 105.272 38.9557V40.0843C104.847 40.2907 104.24 40.4545 103.452 40.5758C102.663 40.6851 101.777 40.7397 100.794 40.7397H96.0427V36.5711H102.541V34.5869H96.0063V33.4765H103.852V37.6269H97.3534ZM96.5706 46.856V42.1049H107.729V46.856H96.5706ZM106.419 43.2518H97.8631V45.7092H106.419V43.2518ZM121.799 40.0661V47.0745H120.488V33.0942H121.799V38.7373H123.692V40.0661H121.799ZM110.312 34.951V33.6585H117.867V42.5964H116.538V34.951H110.312ZM114.754 44.9083C116.89 44.9083 118.401 44.708 119.287 44.3076V45.6C118.364 46.0005 116.86 46.2007 114.772 46.2007H109.803V44.9083H112.278V38.7919H113.589V44.9083H114.754ZM138.958 36.0614H136.537L136.446 34.8235H138.958V33.0942H140.251V43.5066H138.958V39.8295H136.446L136.537 38.5917H138.958V36.0614ZM136.1 37.2992C136.1 38.0759 135.936 38.7737 135.609 39.3926C135.281 39.9994 134.808 40.4788 134.189 40.8307C133.582 41.1705 132.86 41.3404 132.023 41.3404C131.197 41.3404 130.475 41.1705 129.856 40.8307C129.238 40.4788 128.764 39.9994 128.437 39.3926C128.109 38.7737 127.945 38.0759 127.945 37.2992C127.945 36.5225 128.109 35.8308 128.437 35.224C128.764 34.6051 129.238 34.1257 129.856 33.7859C130.475 33.434 131.197 33.258 132.023 33.258C132.86 33.258 133.582 33.434 134.189 33.7859C134.808 34.1257 135.281 34.6051 135.609 35.224C135.936 35.8308 136.1 36.5225 136.1 37.2992ZM129.256 37.2992C129.256 38.173 129.505 38.8708 130.002 39.3926C130.512 39.9023 131.185 40.1572 132.023 40.1572C132.872 40.1572 133.546 39.9023 134.043 39.3926C134.541 38.8708 134.79 38.173 134.79 37.2992C134.79 36.4254 134.541 35.7276 134.043 35.2058C133.546 34.684 132.872 34.4231 132.023 34.4231C131.185 34.4231 130.512 34.684 130.002 35.2058C129.505 35.7276 129.256 36.4254 129.256 37.2992ZM140.56 46.856H129.219V42.3416H130.548V45.6H140.56V46.856ZM154.939 47.0745H153.683V33.0942H154.939V47.0745ZM151.699 33.167V46.8378H150.461V42.3962H147.148C146.687 43.5855 146.062 44.5139 145.273 45.1813C144.496 45.8366 143.598 46.1643 142.579 46.1643V44.8719C143.416 44.8597 144.144 44.5381 144.763 43.9071C145.394 43.276 145.874 42.4023 146.201 41.2858C146.541 40.1572 146.711 38.8586 146.711 37.3902V34.8964H142.579V33.6403H148.003V36.6985H150.461V33.167H151.699ZM150.461 37.9909H147.985C147.925 39.1317 147.779 40.1754 147.548 41.1219H150.461V37.9909ZM157.486 34.9146V33.6221H168.972V42.8513H167.625V34.9146H157.486ZM169.9 46.3645H156.648V45.0721H161.727V38.6645H163.074V45.0721H169.9V46.3645ZM184.316 40.8671H171.063V39.7385H174.067V37.8635C173.375 37.6572 172.835 37.372 172.447 37.008C172.059 36.6439 171.864 36.2009 171.864 35.6791C171.864 34.7932 172.41 34.1318 173.503 33.6949C174.595 33.2459 175.99 33.0214 177.689 33.0214C179.388 33.0214 180.778 33.2459 181.858 33.6949C182.95 34.1318 183.496 34.7932 183.496 35.6791C183.496 36.2009 183.302 36.6439 182.914 37.008C182.526 37.372 181.985 37.6572 181.294 37.8635V39.7385H184.316V40.8671ZM177.689 34.15C176.403 34.15 175.335 34.2774 174.486 34.5323C173.648 34.7871 173.23 35.1694 173.23 35.6791C173.23 36.1888 173.648 36.5711 174.486 36.8259C175.323 37.0808 176.391 37.2082 177.689 37.2082C178.976 37.2082 180.038 37.0808 180.875 36.8259C181.712 36.5711 182.131 36.1888 182.131 35.6791C182.131 35.1694 181.706 34.7871 180.857 34.5323C180.019 34.2774 178.964 34.15 177.689 34.15ZM179.983 39.7385V38.1548C179.328 38.2761 178.563 38.3368 177.689 38.3368C176.828 38.3368 176.057 38.2761 175.378 38.1548V39.7385H179.983ZM177.689 42.0867C179.413 42.0867 180.808 42.2809 181.876 42.6692C182.944 43.0454 183.478 43.6765 183.478 44.5624C183.478 45.4483 182.944 46.0854 181.876 46.4738C180.808 46.8742 179.413 47.0745 177.689 47.0745C175.966 47.0745 174.565 46.8742 173.484 46.4738C172.417 46.0854 171.883 45.4483 171.883 44.5624C171.883 43.6765 172.417 43.0454 173.484 42.6692C174.565 42.2809 175.966 42.0867 177.689 42.0867ZM177.689 45.9641C178.952 45.9641 180.001 45.8549 180.839 45.6364C181.676 45.418 182.095 45.06 182.095 44.5624C182.095 44.077 181.676 43.7311 180.839 43.5248C180.001 43.3064 178.952 43.1971 177.689 43.1971C176.427 43.1971 175.372 43.3064 174.522 43.5248C173.685 43.7311 173.266 44.077 173.266 44.5624C173.266 45.06 173.685 45.418 174.522 45.6364C175.372 45.8549 176.427 45.9641 177.689 45.9641ZM192.105 33.076C193.828 33.076 195.224 33.2823 196.291 33.6949C197.359 34.0954 197.893 34.7265 197.893 35.5881C197.893 36.4497 197.359 37.0808 196.291 37.4813C195.224 37.8817 193.828 38.082 192.105 38.082C190.381 38.082 188.98 37.8817 187.9 37.4813C186.832 37.0808 186.298 36.4497 186.298 35.5881C186.298 34.7265 186.832 34.0954 187.9 33.6949C188.98 33.2823 190.381 33.076 192.105 33.076ZM192.105 34.15C190.806 34.15 189.738 34.2714 188.901 34.5141C188.076 34.7447 187.663 35.1027 187.663 35.5881C187.663 36.0735 188.076 36.4315 188.901 36.6621C189.726 36.8927 190.794 37.008 192.105 37.008C193.403 37.008 194.465 36.8927 195.29 36.6621C196.116 36.4315 196.528 36.0735 196.528 35.5881C196.528 35.1027 196.109 34.7447 195.272 34.5141C194.447 34.2714 193.391 34.15 192.105 34.15ZM185.479 40.1754V39.0832H198.731V40.1754H185.479ZM187.718 44.5806V45.8549H198.021V46.8742H186.443V43.7068H196.492V42.469H186.407V41.4678H197.784V44.5806H187.718ZM216.746 41.4496H203.494V40.3756H209.464V38.9739H204.513V33.2945H215.854V34.2774H205.806V35.6791H215.617V36.5893H205.806V38.0092H215.963V38.9739H210.775V40.3756H216.746V41.4496ZM210.12 42.5418C211.819 42.5418 213.208 42.7239 214.288 43.0879C215.368 43.452 215.908 44.0284 215.908 44.8173C215.908 45.5939 215.368 46.1643 214.288 46.5284C213.208 46.9046 211.819 47.0927 210.12 47.0927C208.421 47.0927 207.031 46.9046 205.951 46.5284C204.871 46.1643 204.331 45.5939 204.331 44.8173C204.331 44.0284 204.871 43.452 205.951 43.0879C207.031 42.7239 208.421 42.5418 210.12 42.5418ZM210.12 46.0369C211.345 46.0369 212.383 45.9398 213.233 45.7456C214.094 45.5393 214.525 45.2299 214.525 44.8173C214.525 44.4046 214.094 44.0952 213.233 43.8889C212.371 43.6826 211.333 43.5794 210.12 43.5794C208.894 43.5794 207.85 43.6826 206.989 43.8889C206.127 44.0952 205.696 44.4046 205.696 44.8173C205.696 45.2299 206.127 45.5393 206.989 45.7456C207.85 45.9398 208.894 46.0369 210.12 46.0369ZM226.847 35.3696V36.6257H218.218V35.3696H221.859V33.0578H223.188V35.3696H226.847ZM229.869 40.1936V47.0745H228.558V33.0942H229.869V38.8829H231.798V40.1936H229.869ZM222.533 37.8635C223.224 37.8635 223.849 38.0395 224.408 38.3914C224.966 38.7434 225.403 39.2409 225.718 39.8841C226.034 40.5273 226.191 41.2676 226.191 42.1049C226.191 42.9423 226.034 43.6886 225.718 44.344C225.403 44.9872 224.966 45.4847 224.408 45.8366C223.849 46.1886 223.224 46.3645 222.533 46.3645C221.829 46.3645 221.198 46.1886 220.639 45.8366C220.081 45.4847 219.644 44.9872 219.329 44.344C219.013 43.6886 218.855 42.9423 218.855 42.1049C218.855 41.2676 219.013 40.5273 219.329 39.8841C219.644 39.2409 220.081 38.7434 220.639 38.3914C221.198 38.0395 221.829 37.8635 222.533 37.8635ZM222.533 45.1449C222.969 45.1449 223.364 45.0236 223.716 44.7808C224.08 44.526 224.365 44.168 224.571 43.7068C224.79 43.2457 224.899 42.7117 224.899 42.1049C224.899 41.4982 224.79 40.9642 224.571 40.503C224.365 40.0419 224.08 39.6899 223.716 39.4472C223.364 39.1924 222.969 39.065 222.533 39.065C222.084 39.065 221.677 39.1924 221.313 39.4472C220.961 39.6899 220.676 40.0419 220.457 40.503C220.251 40.9642 220.148 41.4982 220.148 42.1049C220.148 42.7117 220.251 43.2457 220.457 43.7068C220.676 44.168 220.961 44.526 221.313 44.7808C221.677 45.0236 222.084 45.1449 222.533 45.1449ZM244.757 47.0745H243.465V43.0697H241.062L241.153 41.7773H243.465V38.0092H241.153L241.062 36.6985H243.465V33.0942H244.757V47.0745ZM236.784 33.4583C237.973 33.4583 238.914 34.0044 239.606 35.0966C240.309 36.1767 240.661 37.7846 240.661 39.9205C240.661 42.0564 240.309 43.6704 239.606 44.7626C238.914 45.8427 237.973 46.3828 236.784 46.3828C235.583 46.3828 234.63 45.8427 233.926 44.7626C233.222 43.6704 232.87 42.0564 232.87 39.9205C232.87 37.7846 233.222 36.1767 233.926 35.0966C234.63 34.0044 235.583 33.4583 236.784 33.4583ZM236.784 45.1267C237.561 45.1267 238.18 44.6959 238.641 43.8343C239.114 42.9726 239.351 41.6681 239.351 39.9205C239.351 38.1851 239.114 36.8866 238.641 36.025C238.18 35.1512 237.561 34.7143 236.784 34.7143C235.995 34.7143 235.364 35.1512 234.891 36.025C234.418 36.8866 234.181 38.1851 234.181 39.9205C234.181 41.6681 234.411 42.9726 234.873 43.8343C235.346 44.6959 235.983 45.1267 236.784 45.1267ZM262.772 40.6122H261.462V37.3538H258.64V40.0297H250.94V33.3673H252.214V35.4061H257.348V33.3673H258.64V36.0614H261.462V33.0942H262.772V40.6122ZM257.348 36.5165H252.214V38.9011H257.348V36.5165ZM262.772 41.2312V46.856H251.577V41.2312H252.888V42.8149H261.48V41.2312H262.772ZM261.48 43.9435H252.888V45.7274H261.48V43.9435ZM275.877 33.0942H277.187V40.9581H275.877V37.0262H273.146V35.8247H275.877V33.0942ZM269.396 37.6087C268.959 38.4096 268.365 39.065 267.612 39.5747C266.86 40.0722 265.998 40.3817 265.027 40.503V39.2652C266.168 39.0832 267.072 38.5917 267.74 37.7907C268.419 36.9776 268.808 35.94 268.905 34.6779H265.191V33.4947H273.692V34.6779H270.234C270.197 35.3454 270.088 35.9522 269.906 36.4983L274.129 39.338L273.456 40.3756L269.396 37.6087ZM271.617 41.4678C273.328 41.4678 274.7 41.6984 275.731 42.1595C276.775 42.6086 277.297 43.3064 277.297 44.2529C277.297 45.1995 276.775 45.9034 275.731 46.3645C274.7 46.8136 273.328 47.0381 271.617 47.0381C269.906 47.0381 268.535 46.8136 267.503 46.3645C266.472 45.9034 265.956 45.1995 265.956 44.2529C265.956 43.3064 266.472 42.6086 267.503 42.1595C268.535 41.6984 269.906 41.4678 271.617 41.4678ZM271.617 45.8913C272.891 45.8913 273.923 45.7517 274.712 45.4726C275.513 45.1935 275.913 44.7869 275.913 44.2529C275.913 43.719 275.513 43.3124 274.712 43.0333C273.911 42.7542 272.879 42.6146 271.617 42.6146C270.355 42.6146 269.323 42.7542 268.523 43.0333C267.734 43.3124 267.339 43.719 267.339 44.2529C267.339 44.7869 267.734 45.1935 268.523 45.4726C269.323 45.7517 270.355 45.8913 271.617 45.8913ZM290.237 47.0745V33.0942H291.53V47.0745H290.237ZM283.739 33.4219C284.515 33.4219 285.213 33.61 285.832 33.9862C286.451 34.3503 286.93 34.866 287.27 35.5335C287.622 36.2009 287.798 36.9594 287.798 37.8089C287.798 38.6463 287.622 39.3987 287.27 40.0661C286.918 40.7336 286.433 41.2554 285.814 41.6316C285.207 41.9957 284.515 42.1777 283.739 42.1777C282.95 42.1777 282.246 41.9957 281.627 41.6316C281.008 41.2554 280.523 40.7397 280.171 40.0843C279.819 39.4169 279.643 38.6584 279.643 37.8089C279.643 36.9594 279.819 36.2009 280.171 35.5335C280.523 34.866 281.008 34.3503 281.627 33.9862C282.246 33.61 282.95 33.4219 283.739 33.4219ZM283.739 34.6779C282.901 34.6779 282.222 34.9752 281.7 35.5699C281.19 36.1524 280.935 36.8987 280.935 37.8089C280.935 38.707 281.19 39.4533 281.7 40.0479C282.222 40.6305 282.901 40.9217 283.739 40.9217C284.564 40.9217 285.231 40.6305 285.741 40.0479C286.263 39.4533 286.524 38.707 286.524 37.8089C286.524 36.9109 286.263 36.1645 285.741 35.5699C285.231 34.9752 284.564 34.6779 283.739 34.6779ZM289.036 45.5272C288.599 45.7456 287.974 45.9155 287.161 46.0369C286.348 46.1461 285.426 46.2007 284.394 46.2007H279.17V44.9083H284.485C285.48 44.9083 286.372 44.8537 287.161 44.7444C287.962 44.6231 288.587 44.4532 289.036 44.2347V45.5272ZM294.55 40.23V33.5675H305.872V40.23H294.55ZM295.86 34.8235V38.9557H304.562V34.8235H295.86ZM300.884 43.3428V47.4021H299.537V43.3428H293.585V42.0321H306.837V43.3428H300.884ZM308.819 34.8964V33.6221H320.36V42.8513H319.031V34.8964H308.819ZM321.252 46.3645H308V45.0903H310.712V39.3198H312.023V45.0903H314.899V39.3198H316.21V45.0903H321.252V46.3645ZM329.041 38.7919C327.342 38.7919 325.941 38.5492 324.836 38.0638C323.732 37.5783 323.18 36.8563 323.18 35.8975C323.18 34.951 323.732 34.235 324.836 33.7495C325.941 33.2641 327.342 33.0214 329.041 33.0214C330.728 33.0214 332.124 33.2641 333.228 33.7495C334.333 34.235 334.885 34.951 334.885 35.8975C334.885 36.8563 334.333 37.5783 333.228 38.0638C332.136 38.5492 330.74 38.7919 329.041 38.7919ZM329.041 34.15C327.779 34.15 326.717 34.3017 325.856 34.6051C324.994 34.9085 324.563 35.3393 324.563 35.8975C324.563 36.4558 324.988 36.8927 325.838 37.2082C326.699 37.5116 327.767 37.6633 329.041 37.6633C330.304 37.6633 331.359 37.5116 332.209 37.2082C333.07 36.8927 333.501 36.4558 333.501 35.8975C333.501 35.3393 333.07 34.9085 332.209 34.6051C331.359 34.3017 330.304 34.15 329.041 34.15ZM332.209 43.0333H334.703V47.0563H333.392V44.1801H323.253V43.0333H325.874V41.1402H322.415V39.9751H335.667V41.1402H332.209V43.0333ZM327.185 41.1402V43.0333H330.898V41.1402H327.185ZM351.444 40.7397V33.0942H352.772V40.7397H351.444ZM341.086 39.5382V33.4765H348.913V39.5382H341.086ZM342.396 34.6415V38.3732H347.621V34.6415H342.396ZM346.965 44.799C346.359 45.4422 345.558 45.9459 344.563 46.3099C343.567 46.674 342.518 46.856 341.413 46.856V45.6728C342.19 45.6728 342.942 45.5636 343.671 45.3452C344.411 45.1146 345.042 44.793 345.564 44.3804C346.086 43.9678 346.425 43.4945 346.583 42.9605H341.504V41.7955H346.565V40.3392H347.912V41.7955H352.991V42.9605H347.967C347.93 43.2882 347.833 43.5794 347.675 43.8343L353.282 45.9095L352.882 47.0563L346.965 44.799ZM370.787 41.4496H369.459V33.0942H370.787V41.4496ZM363.16 37.9363C362.723 38.7858 362.129 39.4776 361.376 40.0115C360.624 40.5455 359.762 40.8732 358.791 40.9945V39.7203C359.944 39.5382 360.867 39.0043 361.558 38.1184C362.262 37.2325 362.65 36.0917 362.723 34.6961H358.955V33.4947H367.547V34.6961H364.052C364.016 35.3879 363.9 36.0917 363.706 36.8077L367.948 39.8477L367.238 40.8853L363.16 37.9363ZM370.787 42.2688V47.0381H369.459V43.4884H359.501V42.2688H370.787ZM373.825 40.23V33.5675H385.148V40.23H373.825ZM375.136 34.8235V38.9557H383.837V34.8235H375.136ZM380.16 43.3428V47.4021H378.813V43.3428H372.861V42.0321H386.113V43.3428H380.16ZM399.709 41.4496H398.416V39.5564H395.904L395.995 38.3186H398.416V35.9158H395.995L395.904 34.6961H398.416V33.0942H399.709V41.4496ZM395.54 37.1172C395.54 37.8575 395.376 38.5188 395.049 39.1014C394.721 39.6839 394.248 40.145 393.629 40.4848C393.022 40.8125 392.306 40.9763 391.481 40.9763C390.668 40.9763 389.952 40.8125 389.333 40.4848C388.726 40.145 388.253 39.6839 387.913 39.1014C387.585 38.5067 387.422 37.8453 387.422 37.1172C387.422 36.389 387.585 35.7337 387.913 35.1512C388.253 34.5566 388.726 34.0954 389.333 33.7677C389.952 33.4279 390.668 33.258 391.481 33.258C392.306 33.258 393.022 33.4279 393.629 33.7677C394.248 34.0954 394.721 34.5505 395.049 35.133C395.376 35.7155 395.54 36.3769 395.54 37.1172ZM388.75 37.1172C388.75 37.9424 388.999 38.5977 389.497 39.0832C390.006 39.5686 390.668 39.8113 391.481 39.8113C392.294 39.8113 392.955 39.5686 393.465 39.0832C393.975 38.5977 394.23 37.9424 394.23 37.1172C394.23 36.292 393.975 35.6366 393.465 35.1512C392.968 34.6658 392.306 34.4231 391.481 34.4231C390.668 34.4231 390.006 34.6658 389.497 35.1512C388.999 35.6366 388.75 36.292 388.75 37.1172ZM399.709 42.2688V47.0381H398.38V43.4884H388.55V42.2688H399.709ZM413.651 38.2276H415.58V39.4108H413.651V41.4314H412.34V33.0942H413.651V34.7871H415.58V35.9704H413.651V38.2276ZM408.59 34.5869H402.164V33.4765H409.883V37.6269H403.512V39.6111H406.861C407.832 39.6111 408.699 39.5564 409.464 39.4472C410.241 39.3259 410.848 39.162 411.284 38.9557V40.0843C410.86 40.2907 410.253 40.4545 409.464 40.5758C408.675 40.6851 407.783 40.7397 406.788 40.7397H402.201V36.5711H408.59V34.5869ZM408.226 41.9229C409.937 41.9229 411.303 42.1292 412.322 42.5418C413.341 42.9423 413.851 43.5916 413.851 44.4896C413.851 45.3876 413.341 46.0369 412.322 46.4374C411.303 46.8378 409.937 47.0381 408.226 47.0381C406.515 47.0381 405.15 46.8378 404.13 46.4374C403.111 46.0369 402.601 45.3876 402.601 44.4896C402.601 43.5916 403.111 42.9423 404.13 42.5418C405.15 42.1292 406.515 41.9229 408.226 41.9229ZM408.226 45.9277C409.488 45.9277 410.508 45.8124 411.284 45.5818C412.073 45.3391 412.468 44.975 412.468 44.4896C412.468 43.992 412.079 43.628 411.303 43.3974C410.526 43.1668 409.5 43.0515 408.226 43.0515C406.952 43.0515 405.926 43.1668 405.15 43.3974C404.373 43.628 403.985 43.992 403.985 44.4896C403.985 44.975 404.373 45.3391 405.15 45.5818C405.939 45.8124 406.964 45.9277 408.226 45.9277ZM429.996 37.3902H428.066V40.7579H426.755V33.0942H428.066V36.0614H429.996V37.3902ZM424.079 34.9692C424.079 36.8259 423.412 38.2033 422.077 39.1014C420.742 39.9994 418.879 40.4484 416.489 40.4484V39.2288C418.467 39.2288 420.008 38.889 421.112 38.2094C422.217 37.5298 422.769 36.5165 422.769 35.1694V34.6597H416.489V33.4765H424.079V34.9692ZM422.641 41.2676C424.34 41.2676 425.7 41.5042 426.719 41.9775C427.751 42.4387 428.266 43.1668 428.266 44.1619C428.266 45.1571 427.751 45.8852 426.719 46.3463C425.7 46.8075 424.34 47.0381 422.641 47.0381C420.942 47.0381 419.577 46.8075 418.546 46.3463C417.526 45.8852 417.017 45.1571 417.017 44.1619C417.017 43.1668 417.526 42.4387 418.546 41.9775C419.577 41.5042 420.942 41.2676 422.641 41.2676ZM422.641 45.8731C423.891 45.8731 424.911 45.7335 425.7 45.4544C426.488 45.1631 426.883 44.7323 426.883 44.1619C426.883 43.5916 426.488 43.1607 425.7 42.8695C424.911 42.5782 423.891 42.4326 422.641 42.4326C421.391 42.4326 420.366 42.5782 419.565 42.8695C418.776 43.1607 418.382 43.5916 418.382 44.1619C418.382 44.7323 418.776 45.1631 419.565 45.4544C420.354 45.7335 421.379 45.8731 422.641 45.8731ZM430.485 36.025V34.8053H434.326V32.9304H435.655V34.8053H439.514V36.025H430.485ZM442.518 40.0661V47.0745H441.207V33.0942H442.518V38.7373H444.411V40.0661H442.518ZM435.637 44.9811C437.712 44.9568 439.168 44.7444 440.006 44.344V45.6C439.593 45.7942 438.992 45.9459 438.203 46.0551C437.415 46.1522 436.511 46.2007 435.491 46.2007H430.522V44.9811H434.326V42.6874C433.355 42.6025 432.591 42.3112 432.033 41.8137C431.486 41.304 431.213 40.6547 431.213 39.8659C431.213 38.98 431.553 38.2761 432.233 37.7543C432.912 37.2325 433.841 36.9716 435.018 36.9716C436.183 36.9716 437.105 37.2325 437.785 37.7543C438.464 38.2761 438.804 38.98 438.804 39.8659C438.804 40.6669 438.525 41.3222 437.967 41.8319C437.409 42.3294 436.632 42.6207 435.637 42.7056V44.9811ZM432.469 39.8659C432.469 40.3756 432.688 40.7943 433.125 41.1219C433.562 41.4375 434.193 41.5952 435.018 41.5952C435.843 41.5952 436.474 41.4375 436.911 41.1219C437.348 40.7943 437.566 40.3756 437.566 39.8659C437.566 39.3562 437.348 38.9375 436.911 38.6099C436.474 38.2822 435.843 38.1184 435.018 38.1184C434.193 38.1184 433.562 38.2822 433.125 38.6099C432.688 38.9375 432.469 39.3562 432.469 39.8659ZM453.612 34.8964V33.6221H465.153V42.8513H463.824V34.8964H453.612ZM466.045 46.3645H452.792V45.0903H455.505V39.3198H456.815V45.0903H459.692V39.3198H461.002V45.0903H466.045V46.3645ZM473.834 38.7919C472.135 38.7919 470.733 38.5492 469.629 38.0638C468.524 37.5783 467.972 36.8563 467.972 35.8975C467.972 34.951 468.524 34.235 469.629 33.7495C470.733 33.2641 472.135 33.0214 473.834 33.0214C475.521 33.0214 476.916 33.2641 478.021 33.7495C479.125 34.235 479.677 34.951 479.677 35.8975C479.677 36.8563 479.125 37.5783 478.021 38.0638C476.928 38.5492 475.533 38.7919 473.834 38.7919ZM473.834 34.15C472.572 34.15 471.51 34.3017 470.648 34.6051C469.786 34.9085 469.356 35.3393 469.356 35.8975C469.356 36.4558 469.78 36.8927 470.63 37.2082C471.492 37.5116 472.559 37.6633 473.834 37.6633C475.096 37.6633 476.152 37.5116 477.001 37.2082C477.863 36.8927 478.294 36.4558 478.294 35.8975C478.294 35.3393 477.863 34.9085 477.001 34.6051C476.152 34.3017 475.096 34.15 473.834 34.15ZM477.001 43.0333H479.495V47.0563H478.184V44.1801H468.045V43.0333H470.666V41.1402H467.208V39.9751H480.46V41.1402H477.001V43.0333ZM471.977 41.1402V43.0333H475.69V41.1402H471.977ZM492.636 43.4884V33.0942H493.965V43.4884H492.636ZM486.41 38.0274C485.961 38.9497 485.355 39.696 484.59 40.2664C483.838 40.8368 482.97 41.1887 481.987 41.3222V40.0479C483.14 39.8538 484.068 39.2834 484.772 38.3368C485.476 37.3902 485.858 36.1767 485.919 34.6961H482.151V33.4947H490.743V34.6961H487.23C487.217 35.4849 487.108 36.207 486.902 36.8623L491.125 40.1936L490.397 41.213L486.41 38.0274ZM494.347 46.856H482.806V42.5054H484.135V45.6H494.347V46.856ZM495.82 35.4789V34.3867H498.769V32.894H500.061V34.3867H502.883V35.4789H495.82ZM503.938 41.2676V33.167H505.158V36.4619H507.506V33.0942H508.744V41.7591H507.506V37.6997H505.158V41.2676H503.938ZM502.537 38.8829C502.537 39.6596 502.239 40.2846 501.645 40.7579C501.062 41.219 500.328 41.4496 499.442 41.4496C498.544 41.4496 497.804 41.219 497.221 40.7579C496.639 40.2967 496.348 39.6717 496.348 38.8829C496.348 38.1062 496.639 37.4873 497.221 37.0262C497.804 36.5529 498.544 36.3162 499.442 36.3162C500.328 36.3162 501.062 36.5529 501.645 37.0262C502.239 37.4873 502.537 38.1062 502.537 38.8829ZM497.549 38.8829C497.549 39.3198 497.719 39.6839 498.059 39.9751C498.411 40.2664 498.872 40.412 499.442 40.412C500.013 40.412 500.468 40.2664 500.807 39.9751C501.159 39.6839 501.335 39.3198 501.335 38.8829C501.335 38.446 501.159 38.082 500.807 37.7907C500.468 37.4995 500.013 37.3538 499.442 37.3538C498.872 37.3538 498.411 37.4995 498.059 37.7907C497.719 38.082 497.549 38.446 497.549 38.8829ZM503.046 42.0867C504.794 42.0867 506.208 42.287 507.288 42.6874C508.368 43.0879 508.908 43.7129 508.908 44.5624C508.908 45.424 508.368 46.0551 507.288 46.4556C506.22 46.8439 504.806 47.0381 503.046 47.0381C501.287 47.0381 499.867 46.8439 498.787 46.4556C497.719 46.0551 497.185 45.424 497.185 44.5624C497.185 43.7129 497.725 43.0879 498.805 42.6874C499.885 42.287 501.299 42.0867 503.046 42.0867ZM503.046 45.9459C504.357 45.9459 505.431 45.8306 506.268 45.6C507.106 45.3694 507.525 45.0236 507.525 44.5624C507.525 44.1134 507.1 43.7736 506.25 43.543C505.413 43.3124 504.345 43.1971 503.046 43.1971C501.736 43.1971 500.656 43.3124 499.806 43.543C498.969 43.7736 498.55 44.1134 498.55 44.5624C498.55 45.0236 498.969 45.3694 499.806 45.6C500.656 45.8306 501.736 45.9459 503.046 45.9459ZM511.819 44.5624C512.11 44.5624 512.347 44.6595 512.529 44.8537C512.711 45.0357 512.802 45.2663 512.802 45.5454C512.802 45.691 512.783 45.8366 512.747 45.9823C512.723 46.1279 512.662 46.3342 512.565 46.6012L511.782 49.0951H510.872L511.509 46.4556C511.303 46.3949 511.139 46.2857 511.018 46.1279C510.896 45.9701 510.836 45.776 510.836 45.5454C510.836 45.2663 510.927 45.0357 511.109 44.8537C511.303 44.6595 511.54 44.5624 511.819 44.5624ZM529.901 37.6269V41.4496H528.59V33.0942H529.901V36.298H531.83V37.6269H529.901ZM525.914 35.042C525.914 37.008 525.241 38.4824 523.894 39.4654C522.559 40.4363 520.702 40.9217 518.323 40.9217V39.6657C520.314 39.6535 521.855 39.2834 522.947 38.5553C524.051 37.815 524.603 36.7106 524.603 35.2422V34.6779H518.323V33.4765H525.914V35.042ZM529.901 42.2688V47.0381H528.572V43.4884H518.76V42.2688H529.901ZM538.673 36.4072C538.042 37.014 537.217 37.4934 536.197 37.8453C535.19 38.1851 534.146 38.3672 533.066 38.3914V37.2446C533.843 37.2203 534.613 37.0929 535.378 36.8623C536.155 36.6318 536.822 36.3102 537.38 35.8975C537.951 35.4728 538.309 34.9813 538.454 34.4231H533.303V33.2945H544.662V34.4231H539.874C539.814 34.8114 539.692 35.1633 539.51 35.4789L545.026 37.3538L544.662 38.446L538.673 36.4072ZM545.608 40.8125H532.356V39.6839H538.327V37.8817H539.638V39.6839H545.608V40.8125ZM538.982 42.0867C540.706 42.0867 542.101 42.2809 543.169 42.6692C544.249 43.0454 544.789 43.6765 544.789 44.5624C544.789 45.4483 544.249 46.0915 543.169 46.492C542.101 46.8924 540.706 47.0927 538.982 47.0927C537.259 47.0927 535.857 46.8924 534.777 46.492C533.709 46.0915 533.175 45.4483 533.175 44.5624C533.175 43.6765 533.709 43.0454 534.777 42.6692C535.857 42.2809 537.259 42.0867 538.982 42.0867ZM538.982 45.9823C540.232 45.9823 541.276 45.8731 542.113 45.6546C542.963 45.424 543.388 45.06 543.388 44.5624C543.388 44.077 542.969 43.7311 542.131 43.5248C541.294 43.3064 540.244 43.1971 538.982 43.1971C537.72 43.1971 536.664 43.3064 535.815 43.5248C534.978 43.7311 534.559 44.077 534.559 44.5624C534.559 45.06 534.984 45.424 535.833 45.6546C536.683 45.8731 537.732 45.9823 538.982 45.9823ZM556.815 37.5177C556.051 38.7798 555.122 39.781 554.03 40.5212C552.938 41.2615 551.803 41.6316 550.626 41.6316V40.321C551.585 40.321 552.507 40.0055 553.393 39.3744C554.279 38.7312 555.037 37.8635 555.668 36.7713C556.312 35.6791 556.755 34.4777 556.997 33.167L558.344 33.4401C558.15 34.4716 557.835 35.4607 557.398 36.4072L563.259 40.594L562.549 41.6681L556.815 37.5177ZM563.623 45.0721V46.3645H550.371V45.0721H556.324V40.9763H557.653V45.0721H563.623ZM578.039 46.3645H564.786V45.0721H570.739V41.4678H565.715V33.6403H577.11V41.4678H572.068V45.0721H578.039V46.3645ZM575.8 40.1936V34.9328H567.007V40.1936H575.8ZM579.984 38.446V37.3356H582.424V34.4049H580.13V33.2945H591.525V34.4049H589.232V37.3356H591.653V38.446H579.984ZM587.921 37.3356V34.4049H583.734V37.3356H587.921ZM586.483 42.5236H591.489V46.8742H580.166V42.5236H585.172V40.9217H579.202V39.8113H592.454V40.9217H586.483V42.5236ZM581.477 43.6158V45.782H590.197V43.6158H581.477ZM608.357 36.0614H605.936L605.845 34.8235H608.357V33.0942H609.65V43.5066H608.357V39.8295H605.845L605.936 38.5917H608.357V36.0614ZM605.499 37.2992C605.499 38.0759 605.336 38.7737 605.008 39.3926C604.68 39.9994 604.207 40.4788 603.588 40.8307C602.981 41.1705 602.259 41.3404 601.422 41.3404C600.597 41.3404 599.874 41.1705 599.256 40.8307C598.637 40.4788 598.163 39.9994 597.836 39.3926C597.508 38.7737 597.344 38.0759 597.344 37.2992C597.344 36.5225 597.508 35.8308 597.836 35.224C598.163 34.6051 598.637 34.1257 599.256 33.7859C599.874 33.434 600.597 33.258 601.422 33.258C602.259 33.258 602.981 33.434 603.588 33.7859C604.207 34.1257 604.68 34.6051 605.008 35.224C605.336 35.8308 605.499 36.5225 605.499 37.2992ZM598.655 37.2992C598.655 38.173 598.904 38.8708 599.401 39.3926C599.911 39.9023 600.584 40.1572 601.422 40.1572C602.271 40.1572 602.945 39.9023 603.442 39.3926C603.94 38.8708 604.189 38.173 604.189 37.2992C604.189 36.4254 603.94 35.7276 603.442 35.2058C602.945 34.684 602.271 34.4231 601.422 34.4231C600.584 34.4231 599.911 34.684 599.401 35.2058C598.904 35.7276 598.655 36.4254 598.655 37.2992ZM609.959 46.856H598.618V42.3416H599.947V45.6H609.959V46.856ZM625.521 37.8453H623.592V43.4884H622.281V33.0942H623.592V36.5347H625.521V37.8453ZM619.605 35.2968C619.605 37.2264 618.919 38.7009 617.548 39.7203C616.189 40.7397 614.344 41.2494 612.014 41.2494V39.9933C613.968 39.9933 615.503 39.5989 616.62 38.8101C617.736 38.0213 618.294 36.8987 618.294 35.4425V34.6961H612.014V33.4765H619.605V35.2968ZM623.992 45.6V46.856H612.579V42.56H613.907V45.6H623.992ZM642.899 46.3645H629.647V45.0903H635.581V41.4678H630.575V33.6403H641.989V34.9146H631.886V40.1936H642.135V41.4678H636.91V45.0903H642.899V46.3645ZM645.009 34.4777V33.2945H656.313V37.8089H654.984V34.4777H645.009ZM657.314 39.8659H644.062V38.6827H657.314V39.8659ZM656.35 41.0127V46.8742H645.027V41.0127H646.32V42.7603H655.057V41.0127H656.35ZM655.057 43.8343H646.32V45.782H655.057V43.8343ZM671.184 47.0745H669.928V33.0942H671.184V47.0745ZM667.943 33.167V46.8378H666.706V42.3962H663.392C662.931 43.5855 662.306 44.5139 661.518 45.1813C660.741 45.8366 659.843 46.1643 658.823 46.1643V44.8719C659.661 44.8597 660.389 44.5381 661.008 43.9071C661.639 43.276 662.118 42.4023 662.446 41.2858C662.786 40.1572 662.956 38.8586 662.956 37.3902V34.8964H658.823V33.6403H664.248V36.6985H666.706V33.167H667.943ZM666.706 37.9909H664.23C664.169 39.1317 664.024 40.1754 663.793 41.1219H666.706V37.9909ZM684.852 38.264H686.782V39.4654H684.852V41.4496H683.542V33.0942H684.852V34.7871H686.782V36.0068H684.852V38.264ZM677.043 40.9763C676.218 40.9763 675.496 40.8125 674.877 40.4848C674.258 40.145 673.779 39.6839 673.439 39.1014C673.111 38.5067 672.947 37.8453 672.947 37.1172C672.947 36.389 673.111 35.7337 673.439 35.1512C673.779 34.5566 674.258 34.0954 674.877 33.7677C675.496 33.4279 676.218 33.258 677.043 33.258C677.868 33.258 678.584 33.4279 679.191 33.7677C679.81 34.0954 680.283 34.5505 680.611 35.133C680.951 35.7155 681.121 36.3769 681.121 37.1172C681.121 37.8575 680.951 38.5188 680.611 39.1014C680.283 39.6839 679.81 40.145 679.191 40.4848C678.584 40.8125 677.868 40.9763 677.043 40.9763ZM677.043 34.4231C676.218 34.4231 675.55 34.6658 675.041 35.1512C674.531 35.6366 674.276 36.292 674.276 37.1172C674.276 37.9424 674.531 38.5977 675.041 39.0832C675.55 39.5686 676.218 39.8113 677.043 39.8113C677.868 39.8113 678.536 39.5686 679.046 39.0832C679.555 38.5856 679.81 37.9303 679.81 37.1172C679.81 36.3041 679.555 35.6548 679.046 35.1694C678.536 34.6718 677.868 34.4231 677.043 34.4231ZM684.852 42.2688V47.0381H683.524V43.4884H673.876V42.2688H684.852ZM693.934 33.4219C695.123 33.4219 696.167 33.6039 697.065 33.968C697.963 34.332 698.655 34.8478 699.14 35.5153C699.626 36.1827 699.868 36.9534 699.868 37.8271C699.868 38.7009 699.626 39.4715 699.14 40.139C698.655 40.7943 697.963 41.304 697.065 41.6681C696.167 42.0321 695.123 42.2142 693.934 42.2142C692.745 42.2142 691.701 42.0321 690.803 41.6681C689.905 41.304 689.213 40.7943 688.728 40.139C688.242 39.4715 688 38.7009 688 37.8271C688 36.9534 688.242 36.1827 688.728 35.5153C689.213 34.8478 689.905 34.332 690.803 33.968C691.701 33.6039 692.745 33.4219 693.934 33.4219ZM693.934 34.6779C693.024 34.6779 692.223 34.8114 691.531 35.0784C690.852 35.3332 690.324 35.6973 689.948 36.1706C689.571 36.6439 689.383 37.1961 689.383 37.8271C689.383 38.446 689.571 38.9921 689.948 39.4654C690.324 39.9387 690.852 40.3089 691.531 40.5758C692.223 40.8307 693.024 40.9581 693.934 40.9581C694.844 40.9581 695.639 40.8307 696.319 40.5758C697.01 40.3089 697.544 39.9387 697.921 39.4654C698.297 38.9921 698.485 38.446 698.485 37.8271C698.485 37.1961 698.297 36.6439 697.921 36.1706C697.544 35.6973 697.01 35.3332 696.319 35.0784C695.639 34.8114 694.844 34.6779 693.934 34.6779ZM687.308 46.3645V45.0721H700.56V46.3645H687.308ZM714.975 46.3645H701.723V45.1085H707.658V42.2324H702.67V37.3174H712.773V34.8782H702.652V33.6403H714.083V38.5188H703.962V40.9945H714.284V42.2324H708.968V45.1085H714.975V46.3645ZM69.9609 70.1728H66.9923V75.8019H64.9759V63.8996H66.9923V68.1845H69.9609V70.1728ZM55.6782 70.6489C55.006 71.9185 54.0818 72.964 52.9056 73.7855C51.7481 74.5883 50.4131 75.0924 48.9009 75.2978V73.3654C50.6372 73.1041 52.0281 72.3479 53.0737 71.097C54.1192 69.8274 54.7073 68.2405 54.838 66.3361H49.1529V64.5158H62.2034V66.3361H56.8824C56.8264 67.3256 56.677 68.2125 56.4343 68.9966L62.8475 73.2254L61.8393 74.8217L55.6782 70.6489ZM58.6467 76.5861C61.2419 76.5861 63.3329 76.9501 64.9199 77.6783C66.5069 78.3877 67.3004 79.4893 67.3004 80.9829C67.3004 82.4765 66.5069 83.5781 64.9199 84.2875C63.3329 84.997 61.2419 85.3517 58.6467 85.3517C56.0516 85.3517 53.9605 84.997 52.3735 84.2875C50.7865 83.5781 49.9931 82.4765 49.9931 80.9829C49.9931 79.4893 50.7865 78.3877 52.3735 77.6783C53.9605 76.9501 56.0516 76.5861 58.6467 76.5861ZM58.6467 83.5874C60.5698 83.5874 62.1381 83.3634 63.3516 82.9153C64.5652 82.4672 65.172 81.8231 65.172 80.9829C65.172 80.1241 64.5652 79.4706 63.3516 79.0225C62.1381 78.5744 60.5698 78.3504 58.6467 78.3504C56.7237 78.3504 55.1554 78.5744 53.9418 79.0225C52.7283 79.4706 52.1215 80.1241 52.1215 80.9829C52.1215 81.8231 52.7283 82.4672 53.9418 82.9153C55.1554 83.3634 56.7237 83.5874 58.6467 83.5874ZM90.3178 85.4077H88.3854V74.7377H84.6887V85.0437H82.7844V64.0117H84.6887V72.7213H88.3854V63.8996H90.3178V85.4077ZM75.811 64.4597C77.3793 64.4597 78.5556 65.2719 79.3397 66.8962C80.1239 68.5205 80.5159 71.0223 80.5159 74.4016C80.5159 77.7996 80.1239 80.3108 79.3397 81.9351C78.5556 83.5407 77.3793 84.3435 75.811 84.3435C74.2614 84.3435 73.0852 83.5407 72.2824 81.9351C71.4982 80.3108 71.1061 77.7996 71.1061 74.4016C71.1061 67.7737 72.6744 64.4597 75.811 64.4597ZM75.811 82.4112C76.7446 82.4112 77.4354 81.7577 77.8834 80.4508C78.3502 79.1252 78.5836 77.1088 78.5836 74.4016C78.5836 71.6945 78.3502 69.6874 77.8834 68.3805C77.4354 67.0549 76.7446 66.3921 75.811 66.3921C74.8775 66.3921 74.1774 67.0549 73.7106 68.3805C73.2626 69.6874 73.0385 71.6945 73.0385 74.4016C73.0385 77.1088 73.2626 79.1252 73.7106 80.4508C74.1774 81.7577 74.8775 82.4112 75.811 82.4112ZM109.891 79.8907V63.8996H111.935V79.8907H109.891ZM99.6406 64.1517C100.948 64.1517 102.086 64.4224 103.057 64.9638C104.028 65.4866 104.766 66.2241 105.27 67.1763C105.792 68.1098 106.054 69.174 106.054 70.3689C106.054 71.5638 105.792 72.6373 105.27 73.5895C104.766 74.523 104.028 75.2605 103.057 75.8019C102.086 76.3247 100.948 76.5861 99.6406 76.5861C98.3337 76.5861 97.1948 76.3247 96.224 75.8019C95.2531 75.2605 94.5063 74.523 93.9836 73.5895C93.4608 72.6373 93.1994 71.5638 93.1994 70.3689C93.1994 69.174 93.4608 68.1098 93.9836 67.1763C94.5063 66.2241 95.2531 65.4866 96.224 64.9638C97.1948 64.4224 98.3337 64.1517 99.6406 64.1517ZM99.6406 65.944C98.3151 65.944 97.2509 66.3454 96.448 67.1483C95.6452 67.9511 95.2438 69.0246 95.2438 70.3689C95.2438 71.7131 95.6452 72.7867 96.448 73.5895C97.2509 74.3736 98.3151 74.7657 99.6406 74.7657C100.966 74.7657 102.03 74.3736 102.833 73.5895C103.636 72.7867 104.037 71.7131 104.037 70.3689C104.037 69.0246 103.636 67.9511 102.833 67.1483C102.03 66.3454 100.966 65.944 99.6406 65.944ZM112.523 83.1393V85.0717H94.9918V78.1264H97.0361V83.1393H112.523ZM121.951 66.7002V64.7118H139.622V78.9105H137.55V66.7002H121.951ZM141.051 84.3155H120.663V82.3272H128.476V72.4693H130.549V82.3272H141.051V84.3155ZM163.228 75.8579H142.84V74.1216H147.461V71.237C146.397 70.9196 145.566 70.4809 144.969 69.9208C144.371 69.3607 144.072 68.6792 144.072 67.8764C144.072 66.5135 144.913 65.4959 146.593 64.8238C148.273 64.133 150.42 63.7876 153.034 63.7876C155.648 63.7876 157.786 64.133 159.447 64.8238C161.128 65.4959 161.968 66.5135 161.968 67.8764C161.968 68.6792 161.669 69.3607 161.072 69.9208C160.474 70.4809 159.643 70.9196 158.579 71.237V74.1216H163.228V75.8579ZM153.034 65.5239C151.055 65.5239 149.412 65.72 148.105 66.1121C146.817 66.5041 146.173 67.0922 146.173 67.8764C146.173 68.6605 146.817 69.2487 148.105 69.6407C149.393 70.0328 151.036 70.2288 153.034 70.2288C155.013 70.2288 156.647 70.0328 157.935 69.6407C159.223 69.2487 159.867 68.6605 159.867 67.8764C159.867 67.0922 159.214 66.5041 157.907 66.1121C156.619 65.72 154.994 65.5239 153.034 65.5239ZM156.563 74.1216V71.6851C155.555 71.8718 154.378 71.9652 153.034 71.9652C151.708 71.9652 150.523 71.8718 149.477 71.6851V74.1216H156.563ZM153.034 77.7343C155.685 77.7343 157.832 78.033 159.475 78.6305C161.118 79.2092 161.94 80.1801 161.94 81.543C161.94 82.9059 161.118 83.8861 159.475 84.4836C157.832 85.0997 155.685 85.4077 153.034 85.4077C150.383 85.4077 148.226 85.0997 146.565 84.4836C144.922 83.8861 144.1 82.9059 144.1 81.543C144.1 80.1801 144.922 79.2092 146.565 78.6305C148.226 78.033 150.383 77.7343 153.034 77.7343ZM153.034 83.6994C154.976 83.6994 156.591 83.5314 157.879 83.1953C159.167 82.8593 159.811 82.3085 159.811 81.543C159.811 80.7962 159.167 80.2641 157.879 79.9467C156.591 79.6106 154.976 79.4426 153.034 79.4426C151.092 79.4426 149.468 79.6106 148.161 79.9467C146.873 80.2641 146.229 80.7962 146.229 81.543C146.229 82.3085 146.873 82.8593 148.161 83.1953C149.468 83.5314 151.092 83.6994 153.034 83.6994ZM166.502 75.2698V64.3197H168.49V67.5683H181.933V64.3197H183.921V75.2698H166.502ZM181.933 69.4447H168.49V73.3654H181.933V69.4447ZM176.248 79.6667V85.9118H174.175V79.6667H165.017V77.7063H185.405V79.6667H176.248ZM205.594 70.5089V75.6059H203.578V63.8996H205.594V68.4645H208.563V70.5089H205.594ZM201.954 73.4775C201.3 73.7949 200.367 74.0376 199.153 74.2056C197.939 74.3736 196.567 74.4577 195.036 74.4577H187.979V64.4877H200.441V66.3081H189.995V72.6373H195.148C196.642 72.6373 197.977 72.5533 199.153 72.3853C200.348 72.2172 201.281 71.9745 201.954 71.6571V73.4775ZM205.594 76.8661V85.0717H188.651V76.8661H205.594ZM203.578 83.2513V78.6865H190.695V83.2513H203.578ZM226.175 71.4331V66.028H210.8V64.2077H228.22V71.4331H226.175ZM209.372 74.6257V72.8333H229.76V74.6257H209.372ZM210.856 85.0997V77.0341H228.276V85.0997H210.856ZM226.287 78.7985H212.873V83.3354H226.287V78.7985ZM241.743 63.8716C244.394 63.8716 246.541 64.189 248.184 64.8238C249.827 65.4399 250.649 66.4108 250.649 67.7364C250.649 69.062 249.827 70.0328 248.184 70.6489C246.541 71.265 244.394 71.5731 241.743 71.5731C239.092 71.5731 236.936 71.265 235.274 70.6489C233.631 70.0328 232.809 69.062 232.809 67.7364C232.809 66.4108 233.631 65.4399 235.274 64.8238C236.936 64.189 239.092 63.8716 241.743 63.8716ZM241.743 65.5239C239.745 65.5239 238.103 65.7106 236.814 66.0841C235.545 66.4388 234.91 66.9896 234.91 67.7364C234.91 68.4832 235.545 69.034 236.814 69.3887C238.084 69.7434 239.727 69.9208 241.743 69.9208C243.741 69.9208 245.375 69.7434 246.644 69.3887C247.914 69.034 248.548 68.4832 248.548 67.7364C248.548 66.9896 247.904 66.4388 246.616 66.0841C245.347 65.7106 243.722 65.5239 241.743 65.5239ZM231.549 74.7937V73.1134H251.937V74.7937H231.549ZM234.994 81.571V83.5314H250.845V85.0997H233.034V80.2268H248.492V78.3224H232.978V76.7821H250.481V81.571H234.994ZM533.228 68.8286V70.7049H548.883V72.1612H531.268V67.4843H546.643V65.664H531.24V64.2077H548.575V68.8286H533.228ZM529.7 75.5219V73.9256H550.088V75.5219H529.7ZM533.116 81.8231V83.6434H548.995V85.0997H531.184V80.4788H546.671V78.7145H531.128V77.2862H548.631V81.8231H533.116ZM578.783 71.209H575.815V79.8907H573.798V63.8996H575.815V69.1926H578.783V71.209ZM558.199 75.9699V64.4877H570.046V75.9699H558.199ZM560.216 66.3361V74.0936H568.029V66.3361H560.216ZM576.431 83.1393V85.0717H558.871V78.2104H560.916V83.1393H576.431ZM583.149 65.86V69.2767H598.692V70.929H581.133V64.2077H598.468V65.86H583.149ZM579.592 74.7097V73.0294H599.98V74.7097H579.592ZM583.037 81.571V83.5594H598.888V85.0997H581.077V80.1988H596.564V78.2664H581.021V76.7261H598.524V81.571H583.037ZM614.456 70.5369C614.269 71.9372 613.625 73.0761 612.524 73.9536C611.441 74.8124 610.04 75.2418 608.323 75.2418C607.053 75.2418 605.942 75.0084 604.99 74.5417C604.038 74.0562 603.301 73.3935 602.778 72.5533C602.274 71.7131 602.022 70.7609 602.022 69.6967C602.022 68.6325 602.274 67.6897 602.778 66.8682C603.301 66.028 604.038 65.3746 604.99 64.9078C605.942 64.4224 607.053 64.1797 608.323 64.1797C609.966 64.1797 611.329 64.5904 612.412 65.4119C613.513 66.2147 614.176 67.2696 614.4 68.5765H618.881V63.8996H620.897V75.8859H618.881V70.5369H614.456ZM604.066 69.6967C604.066 70.8543 604.449 71.7691 605.214 72.4413C605.998 73.0947 607.035 73.4215 608.323 73.4215C609.592 73.4215 610.61 73.0854 611.375 72.4133C612.16 71.7411 612.552 70.8356 612.552 69.6967C612.552 68.5579 612.16 67.6617 611.375 67.0082C610.61 66.3361 609.592 66 608.323 66C607.035 66 605.998 66.3361 605.214 67.0082C604.449 67.6617 604.066 68.5579 604.066 69.6967ZM617.285 81.515C616.668 82.5419 615.931 83.3727 615.072 84.0075C614.213 84.6236 613.28 84.9783 612.272 85.0717L608.659 81.627C608.043 82.6165 607.305 83.4194 606.446 84.0355C605.588 84.6329 604.663 84.9783 603.674 85.0717V83.1393C604.439 83.0646 605.168 82.7192 605.858 82.1031C606.549 81.4683 607.109 80.6655 607.539 79.6947C607.987 78.7051 608.248 77.6409 608.323 76.502L610.283 76.7821C610.209 77.8276 609.966 78.9012 609.555 80.0027L612.804 83.0273C613.494 82.8406 614.129 82.4392 614.708 81.8231C615.287 81.1883 615.763 80.4135 616.136 79.4986C616.51 78.5651 616.734 77.5662 616.808 76.502L618.741 76.8101C618.647 77.9677 618.433 78.9945 618.097 79.8907L622.606 83.6434L621.401 85.1557L617.285 81.515ZM633.917 67.6804C632.815 68.8753 631.434 69.8274 629.772 70.5369C628.129 71.2277 626.449 71.5918 624.731 71.6291V69.8368C626.075 69.7808 627.42 69.482 628.764 68.9406C630.108 68.3805 631.256 67.6243 632.209 66.6722C633.179 65.7013 633.796 64.6091 634.057 63.3955L636.073 63.7596C635.868 64.6931 635.532 65.5239 635.065 66.2521L643.635 70.0608L642.907 71.6571L633.917 67.6804ZM644.335 75.2418H623.947V73.5055H644.335V75.2418ZM642.851 76.9781V85.0997H625.431V76.9781H627.42V79.2466H640.862V76.9781H642.851ZM640.862 80.8989H627.42V83.4194H640.862V80.8989ZM663.067 85.4358V63.8996H665.112V85.4077L663.067 85.4358ZM655.73 82.1031C656.701 82.1031 657.662 82.0098 658.615 81.8231C659.585 81.6177 660.388 81.3563 661.023 81.0389V82.9993C660.407 83.3354 659.613 83.5967 658.643 83.7834C657.69 83.9701 656.72 84.0635 655.73 84.0635H647.356V64.5998H649.429V82.1031H655.73ZM686.701 74.8217V85.4077H684.685V63.8996H686.701V72.8053H689.67V74.8217H686.701ZM677.431 82.1311C678.402 82.1311 679.373 82.0378 680.344 81.8511C681.315 81.6457 682.108 81.3843 682.724 81.0669V83.0273C682.127 83.3447 681.333 83.5967 680.344 83.7834C679.354 83.9701 678.355 84.0635 677.347 84.0635H669.338V64.7398H681.128V66.6722H671.382V82.1311H677.431ZM692.579 84.5956C692.15 84.5956 691.786 84.4556 691.487 84.1755C691.207 83.8768 691.067 83.5034 691.067 83.0553C691.067 82.6259 691.207 82.2711 691.487 81.9911C691.786 81.6924 692.15 81.543 692.579 81.543C693.009 81.543 693.363 81.6924 693.643 81.9911C693.942 82.2711 694.092 82.6259 694.092 83.0553C694.092 83.5034 693.942 83.8768 693.643 84.1755C693.363 84.4556 693.009 84.5956 692.579 84.5956Z" fill="black"/>
<path d="M272.679 80.0867V84.4556H268.843V80.0867H258.172V77.4262L267.666 64.8518H271.811L262.905 76.8661H268.955V72.9734H272.679V76.8661H276.04V80.0867H272.679ZM282.881 72.3853C285.663 72.3853 287.708 72.9267 289.015 74.0096C290.34 75.0924 291.003 76.5581 291.003 78.4064C291.003 79.5826 290.714 80.6562 290.135 81.627C289.556 82.5792 288.669 83.3447 287.474 83.9235C286.298 84.4836 284.842 84.7636 283.105 84.7636C281.724 84.7636 280.37 84.5676 279.045 84.1755C277.738 83.7834 276.636 83.242 275.74 82.5512L277.308 79.5546C278.036 80.1334 278.895 80.5908 279.885 80.9269C280.893 81.263 281.929 81.431 282.993 81.431C284.263 81.431 285.243 81.1696 285.934 80.6468C286.643 80.1241 286.998 79.4146 286.998 78.5184C286.998 77.5476 286.625 76.8194 285.878 76.334C285.131 75.8299 283.834 75.5779 281.985 75.5779H277.168L278.177 64.8518H289.827V68.0164H281.453L281.061 72.3853H282.881ZM295.52 79.8067C296.211 79.8067 296.78 80.0307 297.228 80.4788C297.676 80.9269 297.9 81.5057 297.9 82.2151C297.9 82.5699 297.854 82.9153 297.76 83.2513C297.686 83.5874 297.518 84.0728 297.256 84.7076L295.744 88.7124H293.336L294.484 84.3435C294.054 84.1942 293.718 83.9328 293.476 83.5594C293.233 83.1673 293.112 82.7192 293.112 82.2151C293.112 81.5057 293.336 80.9269 293.784 80.4788C294.25 80.0307 294.829 79.8067 295.52 79.8067ZM307.383 84.7636C305.796 84.7636 304.377 84.3622 303.127 83.5594C301.876 82.7566 300.895 81.599 300.186 80.0867C299.477 78.5558 299.122 76.7448 299.122 74.6537C299.122 72.5626 299.477 70.7609 300.186 69.2487C300.895 67.7177 301.876 66.5508 303.127 65.748C304.377 64.9452 305.796 64.5438 307.383 64.5438C308.989 64.5438 310.417 64.9452 311.668 65.748C312.919 66.5508 313.89 67.7177 314.581 69.2487C315.29 70.7609 315.645 72.5626 315.645 74.6537C315.645 76.7448 315.29 78.5558 314.581 80.0867C313.89 81.599 312.919 82.7566 311.668 83.5594C310.417 84.3622 308.989 84.7636 307.383 84.7636ZM307.383 81.403C308.709 81.403 309.754 80.8429 310.52 79.7227C311.304 78.5838 311.696 76.8941 311.696 74.6537C311.696 72.4133 311.304 70.7329 310.52 69.6127C309.754 68.4738 308.709 67.9044 307.383 67.9044C306.076 67.9044 305.031 68.4738 304.247 69.6127C303.481 70.7329 303.099 72.4133 303.099 74.6537C303.099 76.8941 303.481 78.5838 304.247 79.7227C305.031 80.8429 306.076 81.403 307.383 81.403ZM324.195 84.7636C322.608 84.7636 321.189 84.3622 319.938 83.5594C318.687 82.7566 317.707 81.599 316.997 80.0867C316.288 78.5558 315.933 76.7448 315.933 74.6537C315.933 72.5626 316.288 70.7609 316.997 69.2487C317.707 67.7177 318.687 66.5508 319.938 65.748C321.189 64.9452 322.608 64.5438 324.195 64.5438C325.8 64.5438 327.229 64.9452 328.48 65.748C329.731 66.5508 330.701 67.7177 331.392 69.2487C332.102 70.7609 332.456 72.5626 332.456 74.6537C332.456 76.7448 332.102 78.5558 331.392 80.0867C330.701 81.599 329.731 82.7566 328.48 83.5594C327.229 84.3622 325.8 84.7636 324.195 84.7636ZM324.195 81.403C325.52 81.403 326.566 80.8429 327.331 79.7227C328.116 78.5838 328.508 76.8941 328.508 74.6537C328.508 72.4133 328.116 70.7329 327.331 69.6127C326.566 68.4738 325.52 67.9044 324.195 67.9044C322.888 67.9044 321.842 68.4738 321.058 69.6127C320.293 70.7329 319.91 72.4133 319.91 74.6537C319.91 76.8941 320.293 78.5838 321.058 79.7227C321.842 80.8429 322.888 81.403 324.195 81.403ZM341.006 84.7636C339.419 84.7636 338 84.3622 336.749 83.5594C335.499 82.7566 334.518 81.599 333.809 80.0867C333.099 78.5558 332.745 76.7448 332.745 74.6537C332.745 72.5626 333.099 70.7609 333.809 69.2487C334.518 67.7177 335.499 66.5508 336.749 65.748C338 64.9452 339.419 64.5438 341.006 64.5438C342.612 64.5438 344.04 64.9452 345.291 65.748C346.542 66.5508 347.513 67.7177 348.204 69.2487C348.913 70.7609 349.268 72.5626 349.268 74.6537C349.268 76.7448 348.913 78.5558 348.204 80.0867C347.513 81.599 346.542 82.7566 345.291 83.5594C344.04 84.3622 342.612 84.7636 341.006 84.7636ZM341.006 81.403C342.332 81.403 343.377 80.8429 344.143 79.7227C344.927 78.5838 345.319 76.8941 345.319 74.6537C345.319 72.4133 344.927 70.7329 344.143 69.6127C343.377 68.4738 342.332 67.9044 341.006 67.9044C339.699 67.9044 338.654 68.4738 337.87 69.6127C337.104 70.7329 336.721 72.4133 336.721 74.6537C336.721 76.8941 337.104 78.5838 337.87 79.7227C338.654 80.8429 339.699 81.403 341.006 81.403ZM352.945 79.8067C353.635 79.8067 354.205 80.0307 354.653 80.4788C355.101 80.9269 355.325 81.5057 355.325 82.2151C355.325 82.5699 355.278 82.9153 355.185 83.2513C355.11 83.5874 354.942 84.0728 354.681 84.7076L353.169 88.7124H350.76L351.908 84.3435C351.479 84.1942 351.143 83.9328 350.9 83.5594C350.658 83.1673 350.536 82.7192 350.536 82.2151C350.536 81.5057 350.76 80.9269 351.208 80.4788C351.675 80.0307 352.254 79.8067 352.945 79.8067ZM364.808 84.7636C363.221 84.7636 361.802 84.3622 360.551 83.5594C359.3 82.7566 358.32 81.599 357.611 80.0867C356.901 78.5558 356.546 76.7448 356.546 74.6537C356.546 72.5626 356.901 70.7609 357.611 69.2487C358.32 67.7177 359.3 66.5508 360.551 65.748C361.802 64.9452 363.221 64.5438 364.808 64.5438C366.414 64.5438 367.842 64.9452 369.093 65.748C370.344 66.5508 371.315 67.7177 372.005 69.2487C372.715 70.7609 373.07 72.5626 373.07 74.6537C373.07 76.7448 372.715 78.5558 372.005 80.0867C371.315 81.599 370.344 82.7566 369.093 83.5594C367.842 84.3622 366.414 84.7636 364.808 84.7636ZM364.808 81.403C366.134 81.403 367.179 80.8429 367.945 79.7227C368.729 78.5838 369.121 76.8941 369.121 74.6537C369.121 72.4133 368.729 70.7329 367.945 69.6127C367.179 68.4738 366.134 67.9044 364.808 67.9044C363.501 67.9044 362.456 68.4738 361.671 69.6127C360.906 70.7329 360.523 72.4133 360.523 74.6537C360.523 76.8941 360.906 78.5838 361.671 79.7227C362.456 80.8429 363.501 81.403 364.808 81.403ZM381.619 84.7636C380.032 84.7636 378.614 84.3622 377.363 83.5594C376.112 82.7566 375.132 81.599 374.422 80.0867C373.713 78.5558 373.358 76.7448 373.358 74.6537C373.358 72.5626 373.713 70.7609 374.422 69.2487C375.132 67.7177 376.112 66.5508 377.363 65.748C378.614 64.9452 380.032 64.5438 381.619 64.5438C383.225 64.5438 384.653 64.9452 385.904 65.748C387.155 66.5508 388.126 67.7177 388.817 69.2487C389.526 70.7609 389.881 72.5626 389.881 74.6537C389.881 76.7448 389.526 78.5558 388.817 80.0867C388.126 81.599 387.155 82.7566 385.904 83.5594C384.653 84.3622 383.225 84.7636 381.619 84.7636ZM381.619 81.403C382.945 81.403 383.991 80.8429 384.756 79.7227C385.54 78.5838 385.932 76.8941 385.932 74.6537C385.932 72.4133 385.54 70.7329 384.756 69.6127C383.991 68.4738 382.945 67.9044 381.619 67.9044C380.313 67.9044 379.267 68.4738 378.483 69.6127C377.717 70.7329 377.335 72.4133 377.335 74.6537C377.335 76.8941 377.717 78.5838 378.483 79.7227C379.267 80.8429 380.313 81.403 381.619 81.403ZM398.431 84.7636C396.844 84.7636 395.425 84.3622 394.174 83.5594C392.923 82.7566 391.943 81.599 391.233 80.0867C390.524 78.5558 390.169 76.7448 390.169 74.6537C390.169 72.5626 390.524 70.7609 391.233 69.2487C391.943 67.7177 392.923 66.5508 394.174 65.748C395.425 64.9452 396.844 64.5438 398.431 64.5438C400.036 64.5438 401.465 64.9452 402.716 65.748C403.967 66.5508 404.937 67.7177 405.628 69.2487C406.338 70.7609 406.692 72.5626 406.692 74.6537C406.692 76.7448 406.338 78.5558 405.628 80.0867C404.937 81.599 403.967 82.7566 402.716 83.5594C401.465 84.3622 400.036 84.7636 398.431 84.7636ZM398.431 81.403C399.756 81.403 400.802 80.8429 401.567 79.7227C402.352 78.5838 402.744 76.8941 402.744 74.6537C402.744 72.4133 402.352 70.7329 401.567 69.6127C400.802 68.4738 399.756 67.9044 398.431 67.9044C397.124 67.9044 396.078 68.4738 395.294 69.6127C394.529 70.7329 394.146 72.4133 394.146 74.6537C394.146 76.8941 394.529 78.5838 395.294 79.7227C396.078 80.8429 397.124 81.403 398.431 81.403ZM423.812 63.8996H427.341V80.6188H423.812V79.7787H418.239V77.1742H423.812V63.8996ZM414.934 72.4133C413.049 72.4133 411.536 72.0399 410.397 71.293C409.258 70.5462 408.689 69.4727 408.689 68.0724C408.689 66.6908 409.258 65.6266 410.397 64.8798C411.536 64.133 413.049 63.7596 414.934 63.7596C416.801 63.7596 418.295 64.133 419.415 64.8798C420.554 65.6266 421.123 66.6908 421.123 68.0724C421.123 69.454 420.554 70.5276 419.415 71.293C418.295 72.0399 416.801 72.4133 414.934 72.4133ZM414.934 66.5041C414.075 66.5041 413.394 66.6442 412.89 66.9242C412.386 67.1856 412.134 67.5683 412.134 68.0724C412.134 68.5952 412.386 68.9873 412.89 69.2487C413.394 69.51 414.075 69.6407 414.934 69.6407C415.774 69.6407 416.437 69.51 416.923 69.2487C417.427 68.9873 417.679 68.5952 417.679 68.0724C417.679 67.5683 417.427 67.1856 416.923 66.9242C416.437 66.6442 415.774 66.5041 414.934 66.5041ZM407.625 76.278V73.3654H416.755C419.406 73.3654 421.31 73.0947 422.468 72.5533V75.4658C421.291 76.0073 419.228 76.278 416.278 76.278V79.7227H412.75V76.278H407.625ZM427.705 85.3237H409.305V78.5744H412.862V82.1871H427.705V85.3237ZM451.471 63.8996H455V74.5977H451.471V70.0608H448.391V67.0082H451.471V63.8996ZM442.538 71.293C441.753 72.2639 440.773 73.0574 439.597 73.6735C438.421 74.271 437.133 74.607 435.732 74.6817V71.5731C437.077 71.4424 438.197 70.9757 439.093 70.1728C439.989 69.3513 440.559 68.3618 440.801 67.2043H435.984V64.2357H449.035V67.2043H444.358C444.321 67.5777 444.209 68.0724 444.022 68.6886L449.735 71.7411L448.223 74.4577L442.538 71.293ZM455.308 85.3237H436.993V79.2746H451.499V78.1264H436.965V75.4658H455V81.515H440.549V82.6632H455.308V85.3237ZM476.505 71.3211V75.5499H472.977V63.8996H476.505V67.7364H479.054V71.3211H476.505ZM470.008 66.9802C470.008 69.7994 468.925 71.8812 466.759 73.2254C464.612 74.551 461.672 75.2138 457.938 75.2138V72.0492C460.551 72.0119 462.615 71.6291 464.127 70.901C465.639 70.1542 466.395 69.0993 466.395 67.7364V67.3443H457.938V64.2357H470.008V66.9802ZM476.505 76.446V85.3237H458.722V76.446H476.505ZM472.977 82.2431V79.5266H462.278V82.2431H472.977ZM485.905 69.2207V65.972H493.719V63.6196H497.331V65.972H505.173V69.2207H485.905ZM505.845 84.5676H485.233V81.291H489.49V77.9583C487.623 77.2302 486.689 76.0913 486.689 74.5417C486.689 73.0667 487.492 71.9745 489.098 71.265C490.703 70.5369 492.85 70.1728 495.539 70.1728C498.227 70.1728 500.375 70.5369 501.98 71.265C503.586 71.9745 504.389 73.0667 504.389 74.5417C504.389 76.11 503.455 77.2489 501.588 77.9583V81.291H505.845V84.5676ZM495.539 73.1974C492.048 73.1974 490.302 73.6455 490.302 74.5417C490.302 75.0084 490.769 75.3538 491.702 75.5779C492.654 75.7832 493.933 75.8859 495.539 75.8859C497.145 75.8859 498.414 75.7832 499.348 75.5779C500.3 75.3538 500.776 75.0084 500.776 74.5417C500.776 73.6455 499.03 73.1974 495.539 73.1974ZM498.059 81.291V78.7425C497.369 78.8172 496.528 78.8545 495.539 78.8545C494.531 78.8545 493.681 78.8172 492.99 78.7425V81.291H498.059ZM526.454 75.4098V85.4077H522.925V63.8996H526.454V71.7971H528.946V75.4098H526.454ZM508.082 68.0444V64.5718H520.041V78.1264H516.484V68.0444H508.082ZM515.868 80.8429C517.007 80.8429 518.09 80.7775 519.117 80.6468C520.143 80.4975 520.965 80.2734 521.581 79.9747V83.4474C520.349 84.0262 518.426 84.3155 515.812 84.3155H507.41V80.8429H510.295V72.6373H513.88V80.8429H515.868Z" fill="#01A69F"/>
<path d="M86.1008 117.121V117.989H82.4181V117.121H86.1008ZM90.9205 115.944C90.015 115.944 89.2916 115.776 88.7501 115.44C88.218 115.104 87.952 114.651 87.952 114.082C87.952 113.513 88.218 113.06 88.7501 112.724C89.2916 112.388 90.015 112.22 90.9205 112.22C91.8167 112.22 92.5308 112.388 93.0629 112.724C93.6044 113.06 93.8751 113.513 93.8751 114.082C93.8751 114.651 93.6044 115.104 93.0629 115.44C92.5308 115.776 91.8167 115.944 90.9205 115.944ZM94.4352 114.628V113.676H95.9475V112.178H96.9557V118.017H95.9475V114.628H94.4352ZM90.9205 113.032C90.3231 113.032 89.8423 113.13 89.4783 113.326C89.1235 113.513 88.9462 113.765 88.9462 114.082C88.9462 114.409 89.1235 114.67 89.4783 114.866C89.8423 115.053 90.3231 115.146 90.9205 115.146C91.518 115.146 91.9941 115.053 92.3488 114.866C92.7129 114.67 92.8949 114.409 92.8949 114.082C92.8949 113.765 92.7129 113.513 92.3488 113.326C91.9847 113.13 91.5087 113.032 90.9205 113.032ZM97.2357 122.764H88.3721V120.355H95.9475V119.403H88.344V118.647H90.3324V117.555H87.4059V116.728H91.5367C93.189 116.728 94.3512 116.584 95.0233 116.294V117.121C94.7059 117.261 94.2392 117.368 93.6231 117.443C93.0069 117.517 92.2975 117.555 91.4946 117.555H91.3406V118.647H96.9557V121.041H89.3662V122.007H97.2357V122.764ZM105.258 116.42V115.496H107.05V114.026H105.258V113.102H107.05V112.178H108.044V117.597H107.05V116.42H105.258ZM98.9426 117.135V112.388H99.9228V113.774H103.732V112.388H104.712V117.135H98.9426ZM103.732 114.642H99.9228V116.28H103.732V114.642ZM108.324 122.764H99.4747V120.117H107.05V119.025H99.4467V118.227H108.044V120.859H100.483V121.979H108.324V122.764ZM122.532 122.386H112.338V121.405H116.903V118.619H113.052V112.598H121.832V113.578H114.061V117.639H121.944V118.619H117.925V121.405H122.532V122.386ZM124.155 113.242V112.332H132.851V115.804H131.828V113.242H124.155ZM133.621 117.387H123.427V116.476H133.621V117.387ZM132.879 118.269V122.778H124.169V118.269H125.163V119.613H131.884V118.269H132.879ZM131.884 120.439H125.163V121.937H131.884V120.439ZM142.917 115.944V113.242H135.23V112.332H143.939V115.944H142.917ZM134.516 117.541V116.644H144.709V117.541H134.516ZM135.258 122.778V118.745H143.967V122.778H135.258ZM142.973 119.627H136.266V121.895H142.973V119.627ZM155.378 118.815H154.412V115.72H152.563V118.703H151.611V112.234H152.563V114.726H154.412V112.178H155.378V118.815ZM148.139 118.507C147.392 118.507 146.813 118.227 146.402 117.667C146.001 117.107 145.8 116.346 145.8 115.384C145.8 114.432 146.001 113.676 146.402 113.116C146.813 112.556 147.392 112.276 148.139 112.276C148.885 112.276 149.46 112.556 149.861 113.116C150.272 113.676 150.477 114.432 150.477 115.384C150.477 116.346 150.272 117.107 149.861 117.667C149.46 118.227 148.885 118.507 148.139 118.507ZM148.139 113.172C147.7 113.172 147.359 113.363 147.116 113.746C146.874 114.129 146.752 114.675 146.752 115.384C146.752 116.094 146.874 116.64 147.116 117.023C147.359 117.405 147.7 117.597 148.139 117.597C148.577 117.597 148.918 117.405 149.161 117.023C149.404 116.64 149.525 116.094 149.525 115.384C149.525 114.675 149.404 114.129 149.161 113.746C148.918 113.363 148.577 113.172 148.139 113.172ZM155.378 119.445V122.904H154.37V120.369H146.556V119.445H155.378ZM166.467 122.932H165.5V112.178H166.467V122.932ZM164.002 112.234V122.75H163.036V117.751H161.566C161.538 119.328 161.328 120.5 160.936 121.265C160.544 122.021 159.969 122.4 159.213 122.4C158.438 122.4 157.85 121.998 157.449 121.195C157.057 120.383 156.861 119.128 156.861 117.429C156.861 114.115 157.645 112.458 159.213 112.458C160.679 112.458 161.458 113.881 161.552 116.728H163.036V112.234H164.002ZM159.213 121.433C159.68 121.433 160.025 121.107 160.249 120.453C160.483 119.79 160.6 118.782 160.6 117.429C160.6 116.075 160.483 115.071 160.249 114.418C160.025 113.755 159.68 113.424 159.213 113.424C158.747 113.424 158.396 113.755 158.163 114.418C157.939 115.071 157.827 116.075 157.827 117.429C157.827 118.782 157.939 119.79 158.163 120.453C158.396 121.107 158.747 121.433 159.213 121.433ZM179.806 117.639V122.932H178.826V112.178H179.806V116.63H181.235V117.639H179.806ZM172.497 121.293C172.758 121.293 173.029 121.275 173.309 121.237C173.598 121.191 173.846 121.125 174.051 121.041V121.993C173.818 122.077 173.538 122.143 173.211 122.19C172.884 122.236 172.562 122.26 172.245 122.26H170.929V112.598H173.995V113.564H171.923V121.293H172.497ZM176.124 121.293C176.824 121.293 177.412 121.167 177.888 120.915V121.909C177.365 122.143 176.721 122.26 175.956 122.26H174.499V112.598H177.622V113.564H175.479V121.293H176.124ZM190.839 117.639V122.932H189.831V112.178H190.839V116.63H192.323V117.639H190.839ZM186.204 121.293C186.689 121.293 187.175 121.247 187.66 121.153C188.146 121.06 188.543 120.939 188.851 120.789V121.741C188.552 121.909 188.16 122.04 187.674 122.134C187.189 122.218 186.694 122.26 186.19 122.26H182.143V116.868H186.764V113.564H182.115V112.598H187.772V117.821H183.151V121.293H186.204ZM199.026 115.944C198.12 115.944 197.397 115.776 196.855 115.44C196.323 115.104 196.057 114.651 196.057 114.082C196.057 113.513 196.323 113.06 196.855 112.724C197.397 112.388 198.12 112.22 199.026 112.22C199.922 112.22 200.636 112.388 201.168 112.724C201.709 113.06 201.98 113.513 201.98 114.082C201.98 114.651 201.709 115.104 201.168 115.44C200.636 115.776 199.922 115.944 199.026 115.944ZM202.54 114.628V113.676H204.053V112.178H205.061V118.017H204.053V114.628H202.54ZM199.026 113.032C198.428 113.032 197.947 113.13 197.583 113.326C197.229 113.513 197.051 113.765 197.051 114.082C197.051 114.409 197.229 114.67 197.583 114.866C197.947 115.053 198.428 115.146 199.026 115.146C199.623 115.146 200.099 115.053 200.454 114.866C200.818 114.67 201 114.409 201 114.082C201 113.765 200.818 113.513 200.454 113.326C200.09 113.13 199.614 113.032 199.026 113.032ZM205.341 122.764H196.477V120.355H204.053V119.403H196.449V118.647H198.437V117.555H195.511V116.728H199.642C201.294 116.728 202.456 116.584 203.128 116.294V117.121C202.811 117.261 202.344 117.368 201.728 117.443C201.112 117.517 200.403 117.555 199.6 117.555H199.446V118.647H205.061V121.041H197.471V122.007H205.341V122.764ZM213.363 116.42V115.496H215.155V114.026H213.363V113.102H215.155V112.178H216.149V117.597H215.155V116.42H213.363ZM207.048 117.135V112.388H208.028V113.774H211.837V112.388H212.817V117.135H207.048ZM211.837 114.642H208.028V116.28H211.837V114.642ZM216.429 122.764H207.58V120.117H215.155V119.025H207.552V118.227H216.149V120.859H208.588V121.979H216.429V122.764ZM229.643 115.482V118.031H228.635V112.178H229.643V114.46H231.127V115.482H229.643ZM226.576 113.578C226.576 114.987 226.063 116.028 225.036 116.7C224.019 117.363 222.586 117.695 220.737 117.695V116.756C222.278 116.747 223.468 116.5 224.308 116.014C225.148 115.52 225.568 114.759 225.568 113.732V113.382H220.737V112.472H226.576V113.578ZM229.643 118.661V122.764H221.171V118.661H229.643ZM228.635 121.853V119.571H222.194V121.853H228.635ZM238.309 117.135V116.182H240.102V114.404H238.309V113.452H240.102V112.178H241.096V120.187H240.102V117.135H238.309ZM232.008 118.213V112.472H237.679V118.213H232.008ZM232.988 113.396V117.289H236.671V113.396H232.988ZM241.334 122.764H232.484V119.333H233.506V121.797H241.334V122.764ZM252.394 118.815H251.428V115.72H249.58V118.703H248.628V112.234H249.58V114.726H251.428V112.178H252.394V118.815ZM245.155 118.507C244.408 118.507 243.829 118.227 243.419 117.667C243.017 117.107 242.817 116.346 242.817 115.384C242.817 114.432 243.017 113.676 243.419 113.116C243.829 112.556 244.408 112.276 245.155 112.276C245.902 112.276 246.476 112.556 246.877 113.116C247.288 113.676 247.493 114.432 247.493 115.384C247.493 116.346 247.288 117.107 246.877 117.667C246.476 118.227 245.902 118.507 245.155 118.507ZM245.155 113.172C244.716 113.172 244.376 113.363 244.133 113.746C243.89 114.129 243.769 114.675 243.769 115.384C243.769 116.094 243.89 116.64 244.133 117.023C244.376 117.405 244.716 117.597 245.155 117.597C245.594 117.597 245.935 117.405 246.177 117.023C246.42 116.64 246.541 116.094 246.541 115.384C246.541 114.675 246.42 114.129 246.177 113.746C245.935 113.363 245.594 113.172 245.155 113.172ZM252.394 119.445V122.904H251.386V120.369H243.573V119.445H252.394ZM258.806 112.122C259.637 112.122 260.393 112.21 261.075 112.388C261.756 112.565 262.298 112.831 262.699 113.186C263.1 113.531 263.301 113.956 263.301 114.46C263.301 114.964 263.1 115.394 262.699 115.748C262.298 116.094 261.756 116.355 261.075 116.532C260.393 116.7 259.637 116.784 258.806 116.784C257.509 116.784 256.43 116.584 255.572 116.182C254.722 115.781 254.297 115.207 254.297 114.46C254.297 113.956 254.498 113.531 254.899 113.186C255.301 112.831 255.842 112.565 256.524 112.388C257.215 112.21 257.975 112.122 258.806 112.122ZM258.806 113.004C257.845 113.004 257.028 113.134 256.356 113.396C255.693 113.657 255.362 114.012 255.362 114.46C255.362 114.908 255.693 115.263 256.356 115.524C257.019 115.776 257.835 115.902 258.806 115.902C259.768 115.902 260.58 115.776 261.243 115.524C261.905 115.263 262.237 114.908 262.237 114.46C262.237 114.012 261.905 113.657 261.243 113.396C260.58 113.134 259.768 113.004 258.806 113.004ZM253.709 118.745V117.835H263.903V118.745H253.709ZM263.357 121.853V122.778H254.451V119.739H255.474V121.853H263.357ZM271.726 114.908C271.679 115.842 271.581 116.686 271.432 117.443L274.75 121.559L274.008 122.246L271.096 118.605C270.76 119.669 270.297 120.519 269.709 121.153C269.131 121.779 268.463 122.148 267.707 122.26V121.223C268.295 121.102 268.804 120.757 269.233 120.187C269.672 119.618 270.013 118.88 270.255 117.975C270.507 117.06 270.657 116.038 270.704 114.908H267.889V113.928H270.718V112.15H271.74V113.928H274.428V114.908H271.726ZM276.767 117.639V122.932H275.759V112.178H276.767V116.63H278.251V117.639H276.767ZM280.434 113.2V115.104H288.205V115.972H279.426V112.332H288.093V113.2H280.434ZM278.656 118.003V117.135H288.85V118.003H278.656ZM283.753 119.067C285.078 119.067 286.152 119.221 286.973 119.529C287.804 119.828 288.219 120.318 288.219 120.999C288.219 121.681 287.804 122.176 286.973 122.484C286.152 122.792 285.078 122.946 283.753 122.946C282.427 122.946 281.349 122.792 280.518 122.484C279.696 122.176 279.286 121.681 279.286 120.999C279.286 120.318 279.696 119.828 280.518 119.529C281.349 119.221 282.427 119.067 283.753 119.067ZM283.753 119.921C282.791 119.921 281.979 120.01 281.316 120.187C280.663 120.355 280.336 120.626 280.336 120.999C280.336 121.382 280.663 121.662 281.316 121.839C281.97 122.007 282.782 122.091 283.753 122.091C284.714 122.091 285.522 122.007 286.175 121.839C286.828 121.662 287.155 121.382 287.155 120.999C287.155 120.626 286.828 120.355 286.175 120.187C285.522 120.01 284.714 119.921 283.753 119.921ZM299.294 118.731H298.286V115.636H296.199V114.712H298.286V112.178H299.294V118.731ZM293.301 115.986C292.965 116.658 292.507 117.205 291.929 117.625C291.359 118.035 290.701 118.287 289.954 118.381V117.401C290.85 117.261 291.56 116.84 292.083 116.14C292.605 115.431 292.895 114.521 292.951 113.41H290.08V112.486H296.62V113.41H293.959C293.931 113.979 293.842 114.544 293.693 115.104L296.9 117.499L296.353 118.297L293.301 115.986ZM299.294 119.361V122.904H298.272V120.299H290.598V119.361H299.294ZM311.027 118.157H300.833V117.289H303.143V115.846C302.611 115.688 302.196 115.468 301.897 115.188C301.598 114.908 301.449 114.567 301.449 114.166C301.449 113.485 301.869 112.976 302.709 112.64C303.549 112.294 304.623 112.122 305.93 112.122C307.237 112.122 308.306 112.294 309.136 112.64C309.977 112.976 310.397 113.485 310.397 114.166C310.397 114.567 310.247 114.908 309.949 115.188C309.65 115.468 309.234 115.688 308.702 115.846V117.289H311.027V118.157ZM305.93 112.99C304.94 112.99 304.119 113.088 303.465 113.284C302.821 113.48 302.499 113.774 302.499 114.166C302.499 114.558 302.821 114.852 303.465 115.048C304.109 115.244 304.931 115.342 305.93 115.342C306.919 115.342 307.736 115.244 308.38 115.048C309.024 114.852 309.346 114.558 309.346 114.166C309.346 113.774 309.02 113.48 308.366 113.284C307.722 113.088 306.91 112.99 305.93 112.99ZM307.694 117.289V116.07C307.19 116.164 306.602 116.21 305.93 116.21C305.267 116.21 304.674 116.164 304.151 116.07V117.289H307.694ZM305.93 119.095C307.255 119.095 308.329 119.244 309.15 119.543C309.972 119.832 310.383 120.318 310.383 120.999C310.383 121.681 309.972 122.171 309.15 122.47C308.329 122.778 307.255 122.932 305.93 122.932C304.604 122.932 303.526 122.778 302.695 122.47C301.874 122.171 301.463 121.681 301.463 120.999C301.463 120.318 301.874 119.832 302.695 119.543C303.526 119.244 304.604 119.095 305.93 119.095ZM305.93 122.077C306.901 122.077 307.708 121.993 308.352 121.825C308.996 121.657 309.318 121.382 309.318 120.999C309.318 120.626 308.996 120.36 308.352 120.201C307.708 120.033 306.901 119.949 305.93 119.949C304.959 119.949 304.147 120.033 303.493 120.201C302.849 120.36 302.527 120.626 302.527 120.999C302.527 121.382 302.849 121.657 303.493 121.825C304.147 121.993 304.959 122.077 305.93 122.077ZM321.429 122.932H320.421V112.178H321.429V122.932ZM316.01 121.265C317.653 121.265 318.82 121.111 319.511 120.803V121.797C318.792 122.105 317.63 122.26 316.024 122.26H311.922V121.265H314.946V118.395H312.552V112.612H318.461V113.592H313.56V117.429H318.587V118.395H315.954V121.265H316.01ZM332.574 122.932H331.58V119.557H329.703V118.563H331.58V115.902H329.703V114.908H331.58V112.178H332.574V122.932ZM329.115 112.598V122.26H323.584V112.598H329.115ZM328.121 121.279V113.578H324.592V121.279H328.121ZM335.149 120.999C335.373 120.999 335.555 121.074 335.695 121.223C335.835 121.363 335.905 121.541 335.905 121.755C335.905 121.867 335.891 121.979 335.863 122.091C335.844 122.204 335.798 122.362 335.723 122.568L335.121 124.486H334.421L334.911 122.456C334.752 122.409 334.626 122.325 334.533 122.204C334.44 122.082 334.393 121.933 334.393 121.755C334.393 121.541 334.463 121.363 334.603 121.223C334.752 121.074 334.934 120.999 335.149 120.999ZM345.32 115.104C344.751 115.944 344.046 116.612 343.206 117.107C342.365 117.601 341.497 117.849 340.601 117.849V116.84C341.329 116.85 342.039 116.644 342.73 116.224C343.42 115.795 344.008 115.216 344.494 114.488C344.979 113.76 345.297 112.966 345.446 112.108L346.482 112.29C346.361 112.924 346.137 113.587 345.81 114.278L350.249 116.967L349.773 117.835L345.32 115.104ZM345.964 120.047V123.184H344.942V120.047H340.363V119.067H350.557V120.047H345.964ZM352.18 113.242V112.332H360.876V115.804H359.853V113.242H352.18ZM361.646 117.387H351.452V116.476H361.646V117.387ZM360.904 118.269V122.778H352.194V118.269H353.188V119.613H359.909V118.269H360.904ZM359.909 120.439H353.188V121.937H359.909V120.439ZM372.314 118.815H371.348V115.72H369.5V118.703H368.548V112.234H369.5V114.726H371.348V112.178H372.314V118.815ZM365.075 118.507C364.328 118.507 363.749 118.227 363.339 117.667C362.937 117.107 362.736 116.346 362.736 115.384C362.736 114.432 362.937 113.676 363.339 113.116C363.749 112.556 364.328 112.276 365.075 112.276C365.822 112.276 366.396 112.556 366.797 113.116C367.208 113.676 367.413 114.432 367.413 115.384C367.413 116.346 367.208 117.107 366.797 117.667C366.396 118.227 365.822 118.507 365.075 118.507ZM365.075 113.172C364.636 113.172 364.295 113.363 364.053 113.746C363.81 114.129 363.689 114.675 363.689 115.384C363.689 116.094 363.81 116.64 364.053 117.023C364.295 117.405 364.636 117.597 365.075 117.597C365.514 117.597 365.854 117.405 366.097 117.023C366.34 116.64 366.461 116.094 366.461 115.384C366.461 114.675 366.34 114.129 366.097 113.746C365.854 113.363 365.514 113.172 365.075 113.172ZM372.314 119.445V122.904H371.306V120.369H363.493V119.445H372.314ZM385.878 122.932H384.87V112.178H385.878V122.932ZM382.769 112.514V122.26H377.014V112.514H378.022V116.336H381.761V112.514H382.769ZM381.761 117.303H378.022V121.279H381.761V117.303ZM392.584 115.986C391.258 115.986 390.18 115.832 389.349 115.524C388.528 115.216 388.117 114.731 388.117 114.068C388.117 113.415 388.528 112.934 389.349 112.626C390.18 112.318 391.258 112.164 392.584 112.164C393.909 112.164 394.983 112.318 395.804 112.626C396.626 112.924 397.037 113.405 397.037 114.068C397.037 114.731 396.621 115.216 395.79 115.524C394.969 115.832 393.9 115.986 392.584 115.986ZM392.584 112.99C391.585 112.99 390.763 113.078 390.119 113.256C389.484 113.433 389.167 113.704 389.167 114.068C389.167 114.441 389.484 114.717 390.119 114.894C390.754 115.071 391.576 115.16 392.584 115.16C393.583 115.16 394.399 115.071 395.034 114.894C395.669 114.717 395.986 114.441 395.986 114.068C395.986 113.704 395.669 113.433 395.034 113.256C394.399 113.078 393.583 112.99 392.584 112.99ZM395.006 118.619H396.953V121.027H389.209V122.007H397.135V122.778H388.229V120.341H395.958V119.389H388.201V118.619H390.161V117.415H387.487V116.588H397.681V117.415H395.006V118.619ZM391.155 117.415V118.619H394.012V117.415H391.155ZM399.626 120.999C399.85 120.999 400.032 121.074 400.172 121.223C400.312 121.363 400.382 121.541 400.382 121.755C400.382 121.867 400.368 121.979 400.34 122.091C400.321 122.204 400.274 122.362 400.2 122.568L399.598 124.486H398.897L399.388 122.456C399.229 122.409 399.103 122.325 399.009 122.204C398.916 122.082 398.869 121.933 398.869 121.755C398.869 121.541 398.939 121.363 399.079 121.223C399.229 121.074 399.411 120.999 399.626 120.999ZM412.25 115.314H410.766V118.129H409.758V112.178H410.766V114.32H412.25V115.314ZM405.109 115.552C404.773 116.187 404.31 116.71 403.722 117.121C403.144 117.522 402.476 117.774 401.72 117.877V116.911C402.588 116.78 403.284 116.402 403.806 115.776C404.329 115.142 404.623 114.348 404.689 113.396H401.846V112.486H408.371V113.396H405.711C405.683 113.891 405.608 114.334 405.487 114.726L408.693 116.84L408.189 117.639L405.109 115.552ZM406.593 118.521C407.891 118.521 408.936 118.703 409.73 119.067C410.523 119.422 410.92 119.972 410.92 120.719C410.92 121.466 410.523 122.017 409.73 122.372C408.936 122.726 407.891 122.904 406.593 122.904C405.295 122.904 404.25 122.726 403.456 122.372C402.663 122.017 402.266 121.466 402.266 120.719C402.266 119.972 402.663 119.422 403.456 119.067C404.25 118.703 405.295 118.521 406.593 118.521ZM406.593 122.021C407.554 122.021 408.339 121.909 408.945 121.685C409.552 121.461 409.856 121.139 409.856 120.719C409.856 120.29 409.552 119.963 408.945 119.739C408.339 119.515 407.554 119.403 406.593 119.403C405.631 119.403 404.847 119.515 404.24 119.739C403.634 119.963 403.33 120.29 403.33 120.719C403.33 121.139 403.634 121.461 404.24 121.685C404.847 121.909 405.631 122.021 406.593 122.021ZM422.428 122.932H421.462V117.597H419.614V122.75H418.662V112.234H419.614V116.588H421.462V112.178H422.428V122.932ZM415.175 112.458C415.959 112.458 416.547 112.864 416.939 113.676C417.332 114.488 417.528 115.739 417.528 117.429C417.528 119.128 417.332 120.383 416.939 121.195C416.547 121.998 415.959 122.4 415.175 122.4C414.4 122.4 413.812 121.998 413.411 121.195C413.019 120.383 412.823 119.128 412.823 117.429C412.823 114.115 413.607 112.458 415.175 112.458ZM415.175 121.433C415.642 121.433 415.987 121.107 416.211 120.453C416.445 119.79 416.561 118.782 416.561 117.429C416.561 116.075 416.445 115.071 416.211 114.418C415.987 113.755 415.642 113.424 415.175 113.424C414.708 113.424 414.358 113.755 414.125 114.418C413.901 115.071 413.789 116.075 413.789 117.429C413.789 118.782 413.901 119.79 414.125 120.453C414.358 121.107 414.708 121.433 415.175 121.433ZM432.215 120.173V112.178H433.237V120.173H432.215ZM427.09 112.304C427.743 112.304 428.313 112.439 428.798 112.71C429.284 112.971 429.652 113.34 429.904 113.816C430.166 114.283 430.297 114.815 430.297 115.412C430.297 116.01 430.166 116.546 429.904 117.023C429.652 117.489 429.284 117.858 428.798 118.129C428.313 118.39 427.743 118.521 427.09 118.521C426.436 118.521 425.867 118.39 425.382 118.129C424.896 117.858 424.523 117.489 424.261 117.023C424 116.546 423.869 116.01 423.869 115.412C423.869 114.815 424 114.283 424.261 113.816C424.523 113.34 424.896 112.971 425.382 112.71C425.867 112.439 426.436 112.304 427.09 112.304ZM427.09 113.2C426.427 113.2 425.895 113.401 425.494 113.802C425.092 114.203 424.892 114.74 424.892 115.412C424.892 116.084 425.092 116.621 425.494 117.023C425.895 117.415 426.427 117.611 427.09 117.611C427.753 117.611 428.285 117.415 428.686 117.023C429.088 116.621 429.288 116.084 429.288 115.412C429.288 114.74 429.088 114.203 428.686 113.802C428.285 113.401 427.753 113.2 427.09 113.2ZM433.531 121.797V122.764H424.765V119.291H425.788V121.797H433.531ZM446.031 116.448V113.27H438.301V112.332H447.039V116.448H446.031ZM437.601 118.143V117.205H447.795V118.143H437.601ZM447.249 121.853V122.778H438.343V119.305H439.365V121.853H447.249ZM458.884 122.386H448.69V121.419H453.255V119.207H449.418V115.426H457.189V113.55H449.404V112.598H458.197V116.35H450.412V118.255H458.351V119.207H454.263V121.419H458.884V122.386ZM468.978 117.639V122.932H467.97V112.178H468.978V116.63H470.462V117.639H468.978ZM463.895 113.578C463.876 114.931 463.774 116.126 463.587 117.163L466.934 121.545L466.136 122.162L463.265 118.367C462.929 119.515 462.476 120.425 461.907 121.097C461.337 121.76 460.674 122.148 459.918 122.26V121.209C460.525 121.079 461.048 120.673 461.487 119.991C461.925 119.3 462.261 118.404 462.495 117.303C462.738 116.201 462.868 114.959 462.887 113.578H460.142V112.598H466.57V113.578H463.895ZM478.593 115.104C478.024 115.944 477.319 116.612 476.479 117.107C475.638 117.601 474.77 117.849 473.874 117.849V116.84C474.602 116.85 475.312 116.644 476.002 116.224C476.693 115.795 477.281 115.216 477.767 114.488C478.252 113.76 478.57 112.966 478.719 112.108L479.755 112.29C479.634 112.924 479.41 113.587 479.083 114.278L483.522 116.967L483.046 117.835L478.593 115.104ZM479.237 120.047V123.184H478.215V120.047H473.636V119.067H483.83V120.047H479.237ZM494.499 122.932H493.532V112.178H494.499V122.932ZM492.034 112.234V122.75H491.068V117.751H489.598C489.57 119.328 489.36 120.5 488.967 121.265C488.575 122.021 488.001 122.4 487.245 122.4C486.47 122.4 485.882 121.998 485.481 121.195C485.089 120.383 484.893 119.128 484.893 117.429C484.893 114.115 485.677 112.458 487.245 112.458C488.711 112.458 489.49 113.881 489.584 116.728H491.068V112.234H492.034ZM487.245 121.433C487.712 121.433 488.057 121.107 488.281 120.453C488.515 119.79 488.631 118.782 488.631 117.429C488.631 116.075 488.515 115.071 488.281 114.418C488.057 113.755 487.712 113.424 487.245 113.424C486.778 113.424 486.428 113.755 486.195 114.418C485.971 115.071 485.859 116.075 485.859 117.429C485.859 118.782 485.971 119.79 486.195 120.453C486.428 121.107 486.778 121.433 487.245 121.433ZM507.838 117.639V122.932H506.858V112.178H507.838V116.63H509.266V117.639H507.838ZM500.529 121.293C500.79 121.293 501.061 121.275 501.341 121.237C501.63 121.191 501.878 121.125 502.083 121.041V121.993C501.85 122.077 501.57 122.143 501.243 122.19C500.916 122.236 500.594 122.26 500.277 122.26H498.96V112.598H502.027V113.564H499.955V121.293H500.529ZM504.155 121.293C504.856 121.293 505.444 121.167 505.92 120.915V121.909C505.397 122.143 504.753 122.26 503.987 122.26H502.531V112.598H505.654V113.564H503.511V121.293H504.155ZM518.871 117.639V122.932H517.863V112.178H518.871V116.63H520.355V117.639H518.871ZM514.236 121.293C514.721 121.293 515.207 121.247 515.692 121.153C516.178 121.06 516.574 120.939 516.882 120.789V121.741C516.584 121.909 516.192 122.04 515.706 122.134C515.221 122.218 514.726 122.26 514.222 122.26H510.175V116.868H514.796V113.564H510.147V112.598H515.804V117.821H511.183V121.293H514.236ZM532.729 115.482V118.031H531.72V112.178H532.729V114.46H534.213V115.482H532.729ZM529.662 113.578C529.662 114.987 529.148 116.028 528.122 116.7C527.104 117.363 525.671 117.695 523.823 117.695V116.756C525.363 116.747 526.553 116.5 527.393 116.014C528.234 115.52 528.654 114.759 528.654 113.732V113.382H523.823V112.472H529.662V113.578ZM532.729 118.661V122.764H524.257V118.661H532.729ZM531.72 121.853V119.571H525.279V121.853H531.72ZM541.395 117.135V116.182H543.187V114.404H541.395V113.452H543.187V112.178H544.181V120.187H543.187V117.135H541.395ZM535.093 118.213V112.472H540.765V118.213H535.093ZM536.074 113.396V117.289H539.756V113.396H536.074ZM544.419 122.764H535.57V119.333H536.592V121.797H544.419V122.764ZM555.48 118.815H554.514V115.72H552.665V118.703H551.713V112.234H552.665V114.726H554.514V112.178H555.48V118.815ZM548.241 118.507C547.494 118.507 546.915 118.227 546.504 117.667C546.103 117.107 545.902 116.346 545.902 115.384C545.902 114.432 546.103 113.676 546.504 113.116C546.915 112.556 547.494 112.276 548.241 112.276C548.987 112.276 549.561 112.556 549.963 113.116C550.374 113.676 550.579 114.432 550.579 115.384C550.579 116.346 550.374 117.107 549.963 117.667C549.561 118.227 548.987 118.507 548.241 118.507ZM548.241 113.172C547.802 113.172 547.461 113.363 547.218 113.746C546.976 114.129 546.854 114.675 546.854 115.384C546.854 116.094 546.976 116.64 547.218 117.023C547.461 117.405 547.802 117.597 548.241 117.597C548.679 117.597 549.02 117.405 549.263 117.023C549.505 116.64 549.627 116.094 549.627 115.384C549.627 114.675 549.505 114.129 549.263 113.746C549.02 113.363 548.679 113.172 548.241 113.172ZM555.48 119.445V122.904H554.472V120.369H546.658V119.445H555.48ZM561.892 112.122C562.722 112.122 563.479 112.21 564.16 112.388C564.842 112.565 565.383 112.831 565.784 113.186C566.186 113.531 566.386 113.956 566.386 114.46C566.386 114.964 566.186 115.394 565.784 115.748C565.383 116.094 564.842 116.355 564.16 116.532C563.479 116.7 562.722 116.784 561.892 116.784C560.594 116.784 559.516 116.584 558.657 116.182C557.808 115.781 557.383 115.207 557.383 114.46C557.383 113.956 557.583 113.531 557.985 113.186C558.386 112.831 558.928 112.565 559.609 112.388C560.3 112.21 561.061 112.122 561.892 112.122ZM561.892 113.004C560.93 113.004 560.113 113.134 559.441 113.396C558.778 113.657 558.447 114.012 558.447 114.46C558.447 114.908 558.778 115.263 559.441 115.524C560.104 115.776 560.921 115.902 561.892 115.902C562.853 115.902 563.665 115.776 564.328 115.524C564.991 115.263 565.322 114.908 565.322 114.46C565.322 114.012 564.991 113.657 564.328 113.396C563.665 113.134 562.853 113.004 561.892 113.004ZM556.795 118.745V117.835H566.989V118.745H556.795ZM566.442 121.853V122.778H557.537V119.739H558.559V121.853H566.442ZM581.336 115.174H579.852V117.471H578.844V112.178H579.852V114.194H581.336V115.174ZM578.032 116.518C577.705 116.677 577.238 116.798 576.632 116.883C576.025 116.967 575.339 117.009 574.573 117.009H571.045V112.472H577.276V113.382H572.053V116.112H574.629C575.376 116.112 576.043 116.07 576.632 115.986C577.229 115.893 577.696 115.767 578.032 115.608V116.518ZM580.132 121.951V122.764H571.395V120.061H578.844V118.913H571.367V118.101H579.852V120.817H572.431V121.951H580.132ZM590.941 117.639V122.932H589.933V112.178H590.941V116.63H592.425V117.639H590.941ZM586.306 121.293C586.791 121.293 587.277 121.247 587.762 121.153C588.248 121.06 588.644 120.939 588.952 120.789V121.741C588.654 121.909 588.262 122.04 587.776 122.134C587.291 122.218 586.796 122.26 586.292 122.26H582.245V116.868H586.866V113.564H582.217V112.598H587.874V117.821H583.253V121.293H586.306ZM601.301 117.471V112.178H602.323V117.471H601.301ZM596.428 115.342C596.074 115.874 595.612 116.313 595.042 116.658C594.473 116.995 593.824 117.209 593.096 117.303V116.378C593.964 116.238 594.659 115.907 595.182 115.384C595.705 114.852 596.008 114.18 596.092 113.368H593.222V112.486H599.831V113.368H597.128C597.082 113.825 596.993 114.222 596.862 114.558L600.181 116.378L599.733 117.177L596.428 115.342ZM602.604 122.764H593.74V120.075H601.301V118.941H593.726V118.101H602.323V120.803H594.762V121.937H602.604V122.764ZM608.875 115.104C608.306 115.944 607.601 116.612 606.761 117.107C605.921 117.601 605.053 117.849 604.156 117.849V116.84C604.884 116.85 605.594 116.644 606.285 116.224C606.976 115.795 607.564 115.216 608.049 114.488C608.535 113.76 608.852 112.966 609.001 112.108L610.037 112.29C609.916 112.924 609.692 113.587 609.365 114.278L613.804 116.967L613.328 117.835L608.875 115.104ZM609.519 120.047V123.184H608.497V120.047H603.918V119.067H614.112V120.047H609.519ZM626.248 118.171V112.178H627.27V118.171H626.248ZM624.315 115.076C624.315 115.627 624.185 116.112 623.923 116.532C623.671 116.953 623.302 117.279 622.817 117.513C622.341 117.746 621.781 117.863 621.137 117.863C620.493 117.863 619.928 117.746 619.442 117.513C618.966 117.279 618.598 116.953 618.336 116.532C618.084 116.112 617.958 115.627 617.958 115.076C617.958 114.535 618.084 114.054 618.336 113.634C618.598 113.214 618.966 112.887 619.442 112.654C619.928 112.42 620.493 112.304 621.137 112.304C621.781 112.304 622.341 112.42 622.817 112.654C623.302 112.887 623.671 113.214 623.923 113.634C624.185 114.054 624.315 114.535 624.315 115.076ZM618.966 115.076C618.966 115.664 619.162 116.131 619.554 116.476C619.956 116.812 620.483 116.981 621.137 116.981C621.781 116.981 622.299 116.812 622.691 116.476C623.092 116.131 623.293 115.664 623.293 115.076C623.293 114.488 623.092 114.026 622.691 113.69C622.299 113.354 621.781 113.186 621.137 113.186C620.493 113.186 619.97 113.354 619.568 113.69C619.167 114.026 618.966 114.488 618.966 115.076ZM625.45 120.999C625.16 121.503 624.796 121.914 624.357 122.232C623.919 122.54 623.447 122.717 622.943 122.764L621.137 121.041C620.838 121.545 620.474 121.947 620.045 122.246C619.615 122.544 619.153 122.717 618.658 122.764V121.797C619.041 121.76 619.4 121.587 619.736 121.279C620.082 120.971 620.362 120.57 620.577 120.075C620.801 119.58 620.931 119.048 620.969 118.479L621.935 118.619C621.916 119.095 621.804 119.636 621.599 120.243L623.209 121.741C623.732 121.601 624.185 121.223 624.567 120.607C624.95 119.991 625.17 119.282 625.226 118.479L626.206 118.633C626.14 119.24 626.033 119.753 625.884 120.173L628.096 122.049L627.494 122.806L625.45 120.999ZM633.85 114.068C633.299 114.665 632.608 115.142 631.777 115.496C630.956 115.842 630.116 116.024 629.257 116.042V115.146C629.929 115.118 630.601 114.969 631.273 114.698C631.945 114.418 632.519 114.04 632.996 113.564C633.481 113.078 633.789 112.532 633.92 111.926L634.928 112.108C634.825 112.574 634.657 112.99 634.424 113.354L638.709 115.258L638.345 116.056L633.85 114.068ZM639.059 117.849H628.865V116.981H639.059V117.849ZM638.317 118.717V122.778H629.607V118.717H630.601V119.851H637.322V118.717H638.317ZM637.322 120.677H630.601V121.937H637.322V120.677ZM648.425 122.946V112.178H649.447V122.932L648.425 122.946ZM644.756 121.279C645.242 121.279 645.722 121.233 646.199 121.139C646.684 121.037 647.085 120.906 647.403 120.747V121.727C647.095 121.895 646.698 122.026 646.213 122.12C645.736 122.213 645.251 122.26 644.756 122.26H640.569V112.528H641.606V121.279H644.756ZM660.242 117.639V122.932H659.234V112.178H660.242V116.63H661.726V117.639H660.242ZM655.607 121.293C656.092 121.293 656.578 121.247 657.063 121.153C657.549 121.051 657.945 120.92 658.253 120.761V121.741C657.955 121.9 657.558 122.026 657.063 122.12C656.568 122.213 656.069 122.26 655.565 122.26H651.56V112.598H657.455V113.564H652.582V121.293H655.607Z" fill="#616161"/>
</svg>
