<svg width="472" height="55" viewBox="0 0 472 55" fill="none" xmlns="http://www.w3.org/2000/svg">
<path d="M4.31823 25.5056V0.694443H12.996V4.91111H35.6071V0.694443H44.2849V25.5056H4.31823ZM35.6071 12.9778H12.996V17.3167H35.6071V12.9778ZM28.8238 37.6667V48.1778H19.7793V37.6667H1.69045V29.1722H46.8516V37.6667H28.8238ZM92.0062 16.95V25.5667H83.2062V0.144444H92.0062V7.96667H97.2618V16.95H92.0062ZM81.1285 22.45C79.9877 22.9796 78.4396 23.387 76.484 23.6722C74.5692 23.9574 72.5525 24.1 70.434 24.1H51.0618V0.694443H78.5618V8.33333H59.9229V16.4611H70.8007C72.8377 16.4611 74.7729 16.3389 76.6062 16.0944C78.4396 15.8093 79.947 15.4222 81.1285 14.9333V22.45ZM92.0062 27.2167V47.0778H52.5896V27.2167H92.0062ZM83.2062 39.4389V34.8556H61.4507V39.4389H83.2062ZM131.905 15.7278V7.78333H101.105V0.144444H140.828V15.7278H131.905ZM98.4776 25.0778V17.5H143.639V25.0778H98.4776ZM101.105 47.0778V27.8889H141.072V47.0778H101.105ZM132.272 35.1611H109.844V39.8667H132.272V35.1611ZM200.878 16.95V25.5667H192.078V0.144444H200.878V7.96667H206.134V16.95H200.878ZM186.395 7.05C186.395 13.2019 183.991 17.7444 179.184 20.6778C174.417 23.5704 167.96 25.0167 159.812 25.0167V17.1944C165.149 17.113 169.406 16.3593 172.584 14.9333C175.762 13.4667 177.351 11.5111 177.351 9.06666V8.39444H159.812V0.694443H186.395V7.05ZM200.878 27.2167V47.0778H161.462V27.2167H200.878ZM192.078 39.4389V34.8556H170.323V39.4389H192.078ZM237.355 23.6111V15.4222H242.061V11.7556H237.355V3.56667H242.061V0.144444H250.739V34.9167H242.061V23.6111H237.355ZM208.633 27.4V0.694443H235.216V27.4H208.633ZM217.311 8.51667V19.5167H226.539V8.51667H217.311ZM251.35 47.0778H210.833V30.6389H219.816V38.7667H251.35V47.0778ZM312.256 47.0778H304.067V0.144444H312.256V47.0778ZM300.767 0.327777V46.2833H292.7V33.5111H284.389C282.637 37.1778 280.376 39.9889 277.606 41.9444C274.836 43.8593 271.8 44.837 268.5 44.8778V36.2C271.882 35.9148 274.55 34.0204 276.506 30.5167C278.461 27.013 279.439 22.0426 279.439 15.6056V9.61666H268.5V1.24444H287.873V10.1056H292.7V0.327777H300.767ZM292.7 18.7222H287.75C287.628 20.637 287.404 22.6944 287.078 24.8944H292.7V18.7222ZM363.399 17.9889H358.144V34.9167H349.344V0.144444H358.144V9.00555H363.399V17.9889ZM331.805 18.7833C329.89 21.6759 327.588 23.9778 324.899 25.6889C322.251 27.4 319.359 28.337 316.222 28.5V19.8833C318.544 19.5981 320.581 18.5593 322.333 16.7667C324.125 14.9741 325.511 12.6519 326.488 9.8C327.507 6.94815 328.037 3.79074 328.077 0.327777L336.938 0.877776C336.938 4.70741 336.409 8.21111 335.349 11.3889L347.999 21.35L342.744 27.8278L331.805 18.7833ZM358.816 38.7667V47.0778H318.727V30.6389H327.711V38.7667H358.816ZM423.878 17.2556H418.622V26.6667H409.822V0.144444H418.622V8.21111H423.878V17.2556ZM377.678 24.8944V0.694443H386.295V5.33889H396.378V0.694443H404.934V24.8944H377.678ZM396.378 12.6111H386.295V17.3778H396.378V12.6111ZM398.945 27.4C405.056 27.4 409.924 28.1944 413.55 29.7833C417.217 31.3722 419.05 33.9593 419.05 37.5444C419.05 41.0889 417.217 43.6556 413.55 45.2444C409.924 46.8333 405.056 47.6278 398.945 47.6278C392.834 47.6278 387.945 46.8333 384.278 45.2444C380.652 43.6556 378.839 41.0889 378.839 37.5444C378.839 33.9593 380.652 31.3722 384.278 29.7833C387.945 28.1944 392.834 27.4 398.945 27.4ZM398.945 40.3556C402.122 40.3556 404.669 40.1315 406.584 39.6833C408.539 39.2352 409.517 38.5222 409.517 37.5444C409.517 36.5667 408.539 35.8537 406.584 35.4056C404.669 34.9574 402.122 34.7333 398.945 34.7333C395.726 34.7333 393.139 34.9574 391.184 35.4056C389.269 35.8537 388.311 36.5667 388.311 37.5444C388.311 38.5222 389.269 39.2352 391.184 39.6833C393.139 40.1315 395.726 40.3556 398.945 40.3556ZM468.483 25.2H459.683V16.7056H453.633V24.3444H426.377V0.694443H434.933V5.27778H445.016V0.694443H453.633V7.96667H459.683V0.144444H468.483V25.2ZM445.016 12.3667H434.933V17.0722H445.016V12.3667ZM468.483 26.85V47.0778H428.577V26.85H437.255V29.7222H459.805V26.85H468.483ZM459.805 36.75H437.255V39.8667H459.805V36.75Z" fill="#01A69F"/>
<path d="M0.101562 51.8444H471.905V54.5944H0.101562V51.8444Z" fill="#01A69F"/>
</svg>
