<svg width="995" height="186" viewBox="0 0 995 186" fill="none" xmlns="http://www.w3.org/2000/svg">
<path d="M201.443 88.9562V93.0229H185.576V88.9562H201.443ZM201.443 97.2229V101.29H185.576V97.2229H201.443Z" fill="#616161"/>
<path d="M395.937 98.6896L390.704 106.79H384.804L393.004 94.9229L385.204 83.4562H391.037L396.137 91.0229L401.137 83.4562H406.671L398.971 94.7229L407.204 106.79H401.304L395.937 98.6896Z" fill="#616161"/>
<path d="M598.937 98.6896L593.704 106.79H587.804L596.004 94.9229L588.204 83.4562H594.037L599.137 91.0229L604.137 83.4562H609.671L601.971 94.7229L610.204 106.79H604.304L598.937 98.6896Z" fill="#616161"/>
<path d="M801.437 98.6896L796.204 106.79H790.304L798.504 94.9229L790.704 83.4562H796.537L801.637 91.0229L806.637 83.4562H812.171L804.471 94.7229L812.704 106.79H806.804L801.437 98.6896Z" fill="#616161"/>
<ellipse cx="92.3751" cy="92.7893" rx="92.3751" ry="92.7893" fill="#D9D9D9"/>
<path d="M87.2923 101.762H85.0701L84.8201 98.0396H87.2923V96.4007H91.2368V112.206H87.2923V107.512H84.8201L85.0701 103.79H87.2923V101.762ZM84.459 102.817C84.459 104.095 84.1812 105.215 83.6256 106.178C83.0886 107.141 82.3201 107.891 81.3201 108.428C80.3386 108.947 79.1997 109.206 77.9034 109.206C76.6256 109.206 75.496 108.947 74.5145 108.428C73.533 107.891 72.7645 107.141 72.209 106.178C71.6719 105.215 71.4034 104.095 71.4034 102.817C71.4034 101.54 71.6719 100.419 72.209 99.4562C72.7645 98.4933 73.533 97.7525 74.5145 97.234C75.496 96.697 76.6256 96.4284 77.9034 96.4284C79.1997 96.4284 80.3386 96.697 81.3201 97.234C82.3201 97.7525 83.0886 98.4933 83.6256 99.4562C84.1812 100.419 84.459 101.54 84.459 102.817ZM75.3479 102.817C75.3479 103.725 75.5793 104.438 76.0423 104.956C76.5238 105.456 77.1442 105.706 77.9034 105.706C78.6812 105.706 79.3016 105.456 79.7645 104.956C80.2275 104.438 80.459 103.725 80.459 102.817C80.459 101.91 80.2275 101.206 79.7645 100.706C79.3016 100.206 78.6812 99.9562 77.9034 99.9562C77.1256 99.9562 76.5053 100.206 76.0423 100.706C75.5793 101.206 75.3479 101.91 75.3479 102.817ZM91.5145 117.734H73.3479V110.262H77.4034V113.956H91.5145V117.734ZM114.956 104.734H112.567V112.206H108.567V96.4007H112.567V100.651H114.956V104.734ZM105.984 100.067C105.984 102.067 105.465 103.753 104.428 105.123C103.391 106.493 101.965 107.521 100.15 108.206C98.3357 108.873 96.2523 109.206 93.9005 109.206V105.484C95.4746 105.484 96.8634 105.29 98.0672 104.901C99.2709 104.512 100.206 103.965 100.873 103.262C101.539 102.54 101.873 101.706 101.873 100.762V100.29H93.9005V96.6507H105.984V100.067ZM112.873 113.956V117.734H94.6505V110.345H98.7338V113.956H112.873ZM47.9653 136.928V125.651H51.9098V127.567H62.1875V125.651H66.132V136.928H47.9653ZM62.1875 131.234H51.9098V133.206H62.1875V131.234ZM59.1042 142.456V147.234H54.9931V142.456H46.7709V138.595H67.2987V142.456H59.1042ZM87.8235 133.04V136.956H83.8235V125.401H87.8235V128.956H90.2124V133.04H87.8235ZM82.8791 135.54C82.3605 135.78 81.6568 135.965 80.7679 136.095C79.8976 136.225 78.9809 136.29 78.0179 136.29H69.2124V125.651H81.7124V129.123H73.2402V132.817H78.1846C79.1105 132.817 79.9902 132.762 80.8235 132.651C81.6568 132.521 82.342 132.345 82.8791 132.123V135.54ZM87.8235 137.706V146.734H69.9068V137.706H87.8235ZM83.8235 143.262V141.178H73.9346V143.262H83.8235ZM105.959 132.484V128.873H91.9595V125.401H110.015V132.484H105.959ZM90.765 136.734V133.29H111.293V136.734H90.765ZM91.9595 146.734V138.012H110.126V146.734H91.9595ZM106.126 141.317H95.9317V143.456H106.126V141.317ZM137.311 133.04V136.956H133.311V125.401H137.311V128.956H139.7V133.04H137.311ZM130.727 128.54C130.727 131.336 129.635 133.401 127.45 134.734C125.283 136.049 122.348 136.706 118.644 136.706V133.151C121.07 133.114 123.005 132.771 124.45 132.123C125.894 131.456 126.616 130.567 126.616 129.456V129.151H118.644V125.651H130.727V128.54ZM137.311 137.706V146.734H119.394V137.706H137.311ZM133.311 143.262V141.178H123.422V143.262H133.311ZM85.1534 165.067V161.345H87.2923V159.678H85.1534V155.956H87.2923V154.401H91.2368V170.206H87.2923V165.067H85.1534ZM72.0979 166.79V154.651H84.1812V166.79H72.0979ZM76.0423 158.206V163.206H80.2367V158.206H76.0423ZM91.5145 175.734H73.0979V168.262H77.1812V171.956H91.5145V175.734ZM113.706 167.484H109.956V162.567H108.262V167.262H104.567V154.484H108.262V158.623H109.956V154.401H113.706V167.484ZM98.5116 167.178C96.9746 167.178 95.7616 166.623 94.8727 165.512C94.0023 164.382 93.5672 162.799 93.5672 160.762C93.5672 158.725 94.0023 157.16 94.8727 156.067C95.7616 154.956 96.9746 154.401 98.5116 154.401C100.049 154.401 101.252 154.956 102.123 156.067C103.012 157.16 103.456 158.725 103.456 160.762C103.456 162.799 103.012 164.382 102.123 165.512C101.252 166.623 100.049 167.178 98.5116 167.178ZM98.5116 157.817C97.6597 157.817 97.2338 158.799 97.2338 160.762C97.2338 162.743 97.6597 163.734 98.5116 163.734C99.3449 163.734 99.7616 162.743 99.7616 160.762C99.7616 159.762 99.6597 159.021 99.456 158.54C99.2523 158.058 98.9375 157.817 98.5116 157.817ZM113.706 168.234V175.984H109.762V171.817H95.1783V168.234H113.706Z" fill="black"/>
<g clip-path="url(#clip0_22_1932)">
<path d="M69.6726 71.7004C69.0582 72.9266 67.6797 74.8926 64.7717 76.2948C64.3945 76.4768 64.3945 77.0154 64.7717 77.1974C67.6797 78.5996 69.0582 80.5656 69.6726 81.7918C69.8561 82.1579 70.383 82.1579 70.5666 81.7918C71.1804 80.5656 72.5594 78.5996 75.4674 77.1974C75.8447 77.0154 75.8447 76.4768 75.4674 76.2948C72.5594 74.8926 71.1804 72.9266 70.5666 71.7004C70.383 71.3343 69.8561 71.3343 69.6726 71.7004Z" fill="#FFB541"/>
<path d="M75.4674 77.1977C72.5599 78.5989 71.1804 80.5649 70.5665 81.7922C70.384 82.1578 69.8561 82.1578 69.673 81.7922C69.5041 81.4559 69.2781 81.064 68.9788 80.6438C68.9954 80.6206 69.0111 80.5958 69.0243 80.5685C69.6781 79.2634 71.1455 77.1719 74.2387 75.6797C74.2569 75.6706 74.2751 75.6605 74.2917 75.6499C74.6523 75.8744 75.0432 76.0898 75.4674 76.2946C75.8446 76.4767 75.8446 77.0147 75.4674 77.1977Z" fill="#FFA812"/>
<path d="M117.891 25.8996C117.276 27.1258 115.898 29.0918 112.989 30.494C112.612 30.6761 112.612 31.2146 112.989 31.3966C115.898 32.7988 117.276 34.7648 117.891 35.9911C118.074 36.3572 118.601 36.3572 118.784 35.9911C119.398 34.7648 120.777 32.7988 123.685 31.3966C124.063 31.2146 124.063 30.6761 123.685 30.494C120.777 29.0918 119.398 27.1258 118.784 25.8996C118.601 25.5335 118.074 25.5335 117.891 25.8996Z" fill="#FFB541"/>
<path d="M123.685 31.397C120.777 32.7992 119.399 34.7652 118.784 35.9909C118.601 36.357 118.074 36.357 117.89 35.9909C117.703 35.6172 117.445 35.1748 117.093 34.7C117.768 33.3766 119.255 31.2984 122.343 29.8102C122.362 29.8011 122.38 29.7905 122.397 29.7773C122.789 30.0282 123.217 30.2678 123.685 30.4939C124.063 30.6754 124.063 31.2149 123.685 31.397Z" fill="#FFA812"/>
<path d="M110.541 64.1695L102.291 72.4188C101.172 73.5379 99.3571 73.5379 98.2375 72.4188L94.5846 68.7659C93.4656 67.6469 93.4656 65.8316 94.5846 64.712L102.834 56.4632C103.954 55.3437 105.769 55.3437 106.888 56.4632L110.541 60.1156C111.66 61.2351 111.66 63.0499 110.541 64.1695Z" fill="#7C8388"/>
<path d="M110.54 64.169L108.088 66.6214C109.207 65.5029 109.207 63.6876 108.088 62.568L104.435 58.9156C103.316 57.7961 101.501 57.7961 100.382 58.9156L102.834 56.4632C103.954 55.3437 105.769 55.3437 106.887 56.4632L110.54 60.1156C111.66 61.2356 111.66 63.0504 110.54 64.169Z" fill="#6A7075"/>
<path d="M123.248 85.1255C120.97 87.403 117.278 87.403 115 85.1255L102.365 72.49L110.612 64.2427L123.248 76.8787C125.525 79.1557 125.525 82.8485 123.248 85.1255Z" fill="#B88A65"/>
<path d="M123.247 85.1255C122.654 85.7181 121.965 86.157 121.231 86.4422C122.809 84.1693 122.584 81.0241 120.559 78.9989L108.207 66.6471L110.611 64.2427L123.247 76.8787C125.525 79.1557 125.525 82.8485 123.247 85.1255Z" fill="#A87A52"/>
<path d="M109.478 46.9295C109.478 60.4205 98.5419 71.357 85.0508 71.357C71.5602 71.357 60.6233 60.4205 60.6233 46.9295C60.6233 33.4384 71.5602 22.502 85.0508 22.502C98.5419 22.502 109.478 33.4384 109.478 46.9295Z" fill="#EA4444"/>
<path d="M102.325 64.2025C93.3255 73.2002 79.0547 73.7099 69.4587 65.7331C78.8292 71.2721 91.1016 70.0161 99.1522 61.9654C108.693 52.4256 108.693 36.9584 99.1522 27.4196C98.6137 26.8811 98.0559 26.3729 97.481 25.894C99.2094 26.9165 100.839 28.171 102.325 29.6567C111.863 39.1955 111.863 54.6622 102.325 64.2025Z" fill="#D93131"/>
<path d="M112.131 37.8653C111.341 39.444 109.566 41.9738 105.824 43.7785C105.338 44.0126 105.338 44.7064 105.824 44.9405C109.566 46.7452 111.341 49.275 112.131 50.8537C112.367 51.3245 113.046 51.3245 113.281 50.8537C114.072 49.275 115.846 46.7452 119.589 44.9405C120.074 44.7064 120.074 44.0126 119.589 43.7785C115.846 41.9743 114.072 39.444 113.281 37.8653C113.046 37.3945 112.367 37.3945 112.131 37.8653Z" fill="#FFB541"/>
<path d="M119.589 44.9406C115.847 46.7453 114.071 49.2757 113.281 50.8533C113.045 51.3241 112.367 51.3241 112.131 50.8533C111.946 50.4862 111.71 50.068 111.406 49.6195C111.425 49.5932 111.44 49.5674 111.455 49.5391C112.301 47.8482 114.2 45.1409 118.207 43.2087C118.261 43.1829 118.309 43.1516 118.352 43.1167C118.739 43.3448 119.15 43.5667 119.588 43.7781C120.075 44.0132 120.075 44.706 119.589 44.9406Z" fill="#FFA812"/>
<path d="M103.715 46.9291C103.715 57.237 95.3591 65.5936 85.0507 65.5936C74.7428 65.5936 66.3862 57.237 66.3862 46.9291C66.3862 36.6207 74.7428 28.2646 85.0507 28.2646C95.3591 28.2646 103.715 36.6207 103.715 46.9291Z" fill="#FFE1A8"/>
<path d="M88.2774 47.9577C87.4254 47.1901 86.4727 46.6414 85.5509 46.1105C84.6807 45.6089 83.858 45.1351 83.1617 44.5075C82.2257 43.6651 82.0533 42.3519 82.7324 41.2404C83.1642 40.5335 83.998 40.0774 84.9618 40.0208C85.6617 39.9808 86.5021 40.3272 87.0527 40.885C87.3389 41.1752 87.6712 41.6455 87.6282 42.2386C87.5897 42.7731 87.9917 43.2378 88.5262 43.2767C89.0622 43.3177 89.5259 42.9132 89.5644 42.3787C89.6387 41.3507 89.2377 40.3358 88.4347 39.5222C87.7804 38.8593 86.9238 38.3905 86.0404 38.1883V36.4513C86.0404 35.9153 85.606 35.481 85.07 35.481C84.534 35.481 84.0992 35.9153 84.0992 36.4513V38.1832C82.8163 38.4467 81.717 39.1784 81.0758 40.2286C79.9123 42.1329 80.2359 44.4858 81.8621 45.9507C82.7111 46.7152 83.6623 47.2634 84.5821 47.7928C85.4543 48.2954 86.2786 48.7703 86.9784 49.4008C87.9144 50.2432 88.0868 51.5564 87.4077 52.6679C86.9754 53.3753 86.142 53.8309 85.1782 53.887C84.4779 53.9265 83.6375 53.5811 83.0873 53.0229C82.8011 52.7331 82.4689 52.2624 82.5119 51.6697C82.5503 51.1352 82.1483 50.67 81.6133 50.6316C81.0794 50.5932 80.6141 50.9952 80.5752 51.5296C80.5014 52.5582 80.9024 53.5725 81.7054 54.3861C82.3592 55.0496 83.2158 55.5163 84.0992 55.7186V57.457C84.0992 57.993 84.534 58.4274 85.07 58.4274C85.606 58.4274 86.0409 57.993 86.0409 57.457V55.7251C87.3238 55.4617 88.4226 54.73 89.0643 53.6797C90.2278 51.7754 89.9042 49.4221 88.2774 47.9577Z" fill="black"/>
<path d="M98.249 60.1277C90.9599 67.4163 79.1416 67.4163 71.8525 60.1277C71.4181 59.6928 71.009 59.2428 70.6262 58.7765C77.9583 64.8202 88.822 64.4142 95.6787 57.5574C102.536 50.7001 102.942 39.8365 96.8984 32.5049C97.3641 32.8877 97.8146 33.2962 98.249 33.7306C105.538 41.0197 105.538 52.8386 98.249 60.1277Z" fill="#FFD98F"/>
<path d="M75.8902 75.4177C73.3037 74.1708 72.0406 72.4707 71.4363 71.2642C71.1855 70.7636 70.6809 70.4526 70.1196 70.4526C69.5583 70.4526 69.0536 70.7636 68.8028 71.2642C68.6719 71.5257 68.5197 71.7881 68.3513 72.0434C68.056 72.4925 68.1799 73.0957 68.6289 73.391C69.0774 73.6868 69.6807 73.5625 69.9765 73.1139C70.025 73.0406 70.0726 72.9663 70.1191 72.8919C70.8755 74.1151 72.1407 75.5639 74.2311 76.7456C72.1412 77.9278 70.8766 79.3761 70.1196 80.5987C69.3626 79.3755 68.0974 77.9273 66.007 76.7456C66.1613 76.6581 66.312 76.5686 66.4601 76.4771C66.9167 76.1934 67.0573 75.5937 66.7736 75.1371C66.4905 74.6805 65.8902 74.5399 65.4336 74.8231C65.0908 75.036 64.7262 75.2362 64.349 75.4177C63.8347 75.666 63.5151 76.1747 63.5151 76.7461C63.5156 77.317 63.8347 77.8257 64.349 78.0735C66.9354 79.3209 68.1981 81.021 68.8023 82.2275C69.0531 82.7281 69.5578 83.0396 70.1196 83.0396C70.6809 83.0396 71.1855 82.7281 71.4363 82.2275C72.0406 81.021 73.3037 79.3209 75.8897 78.0735C76.4039 77.8257 76.7235 77.317 76.7235 76.7461C76.7235 76.1747 76.4045 75.666 75.8902 75.4177Z" fill="black"/>
<path d="M112.567 32.2732C115.153 33.5202 116.416 35.2202 117.02 36.4267C117.271 36.9278 117.776 37.2388 118.338 37.2388C118.899 37.2383 119.404 36.9273 119.654 36.4267C120.259 35.2202 121.522 33.5202 124.108 32.2732C124.622 32.0249 124.941 31.5162 124.941 30.9453C124.941 30.3739 124.622 29.8652 124.108 29.6175C121.521 28.3705 120.258 26.6705 119.654 25.4639C119.404 24.9628 118.899 24.6519 118.338 24.6519C118.337 24.6519 118.337 24.6519 118.337 24.6519C117.776 24.6519 117.271 24.9628 117.02 25.4634V25.4639C116.416 26.6705 115.153 28.37 112.566 29.6175C112.052 29.8652 111.733 30.3739 111.733 30.9453C111.733 31.5162 112.053 32.0254 112.567 32.2732ZM118.337 27.0922C119.094 28.3154 120.359 29.7636 122.449 30.9453C120.359 32.1271 119.095 33.5748 118.337 34.798C117.58 33.5753 116.315 32.1271 114.226 30.9453C116.315 29.7631 117.58 28.3149 118.337 27.0922Z" fill="black"/>
<path d="M123.936 76.1908L111.828 64.0827C112.17 63.5007 112.353 62.8358 112.353 62.143C112.353 61.117 111.954 60.1527 111.228 59.4276L108.508 56.7076C109.43 54.4959 110.035 52.1521 110.298 49.7331C110.711 50.2873 111.025 50.8172 111.261 51.2895C111.536 51.8391 112.09 52.1805 112.706 52.1805C113.323 52.1805 113.877 51.8391 114.152 51.29C114.949 49.6982 116.612 47.4566 120.012 45.8177C120.576 45.5457 120.926 44.9869 120.926 44.3604C120.926 43.7334 120.576 43.1746 120.012 42.9026C116.612 41.2632 114.949 39.0221 114.152 37.4303C113.877 36.8806 113.323 36.5398 112.706 36.5398C112.09 36.5398 111.536 36.8806 111.261 37.4303C110.889 38.1741 110.326 39.0606 109.486 39.9606C108.32 35.8466 106.119 32.0758 103.012 28.9686C93.1085 19.0652 76.9941 19.0652 67.0902 28.9686C62.2925 33.7663 59.6504 40.1447 59.6504 46.9297C59.6504 53.7141 62.2925 60.0925 67.0902 64.8903C71.8874 69.688 78.2663 72.3301 85.0508 72.3301C88.463 72.3301 91.772 71.6616 94.8288 70.3868L97.5492 73.1073C98.2744 73.8324 99.2387 74.2314 100.264 74.2314C100.957 74.2314 101.622 74.0483 102.204 73.7065L114.312 85.814C115.597 87.0989 117.306 87.8069 119.124 87.8069C120.942 87.8069 122.65 87.0989 123.936 85.814C125.221 84.5287 125.928 82.82 125.928 81.0022C125.928 79.1848 125.221 77.4762 123.936 76.1908ZM112.706 38.8537C113.672 40.5538 115.429 42.6968 118.581 44.3599C115.429 46.023 113.672 48.166 112.706 49.866C111.741 48.166 109.983 46.023 106.832 44.3599C109.983 42.6973 111.741 40.5538 112.706 38.8537ZM85.0508 70.3838C78.7861 70.3838 72.8962 67.9445 68.4661 63.5144C64.036 59.0843 61.5967 53.1943 61.5967 46.9297C61.5967 40.6645 64.036 34.7751 68.4661 30.345C73.0388 25.7723 79.045 23.4862 85.0508 23.4862C91.057 23.4862 97.0633 25.7723 101.635 30.345C104.736 33.4452 106.859 37.2609 107.856 41.4195C107.16 41.9428 106.348 42.446 105.401 42.9026C104.878 43.1544 104.54 43.6525 104.492 44.2229C103.928 40.1305 102.076 36.1833 98.9368 33.0437C97.8162 31.9236 96.5677 30.9427 95.2252 30.1285C94.7661 29.8499 94.1674 29.9961 93.8887 30.4557C93.6101 30.9154 93.7568 31.5136 94.2164 31.7927C95.4249 32.5259 96.5506 33.4098 97.5609 34.4201C104.459 41.3178 104.459 52.5415 97.5609 59.4392C90.6631 66.3375 79.439 66.3375 72.5412 59.4392C69.1998 56.0978 67.3597 51.6551 67.3597 46.9297C67.3597 42.2043 69.1998 37.7615 72.5412 34.4201C77.1918 29.77 83.9879 28.0862 90.2783 30.0244C90.7916 30.1832 91.3367 29.8949 91.4949 29.3812C91.6532 28.8674 91.3655 28.3228 90.8517 28.1646C83.8701 26.0125 76.3266 27.8824 71.1653 33.0437C67.4563 36.7532 65.4134 41.6844 65.4134 46.9302C65.4134 52.1754 67.4563 57.1066 71.1653 60.8156C74.9937 64.644 80.022 66.5584 85.0513 66.5584C90.0796 66.5584 95.1089 64.644 98.9368 60.8156C103.286 56.467 105.163 50.5694 104.572 44.8817C104.708 45.2863 105 45.6245 105.401 45.8177C106.65 46.42 107.664 47.1036 108.488 47.8065C108.271 53.743 105.858 59.2921 101.636 63.5149C97.2059 67.9445 91.3159 70.3838 85.0508 70.3838ZM101.603 71.7309C101.246 72.0889 100.77 72.2856 100.264 72.2856C99.7585 72.2856 99.2831 72.0889 98.9251 71.7309L96.7053 69.511C99.0035 68.3217 101.13 66.7728 103.012 64.8908C104.894 63.0082 106.443 60.8819 107.632 58.5837L109.852 60.804C110.21 61.1615 110.407 61.6368 110.407 62.143C110.407 62.6487 110.21 63.124 109.852 63.4815L101.603 71.7309ZM122.559 84.4376C121.641 85.3554 120.422 85.8611 119.124 85.8611C117.826 85.8611 116.606 85.3554 115.688 84.4376L103.741 72.4904L110.611 65.6194L122.559 77.5672C123.477 78.4845 123.982 79.7046 123.982 81.0027C123.982 82.3002 123.477 83.5204 122.559 84.4376Z" fill="black"/>
</g>
<ellipse cx="294.523" cy="92.7893" rx="92.3751" ry="92.7893" fill="#D9D9D9"/>
<path d="M289.44 101.762H287.218L286.968 98.0396H289.44V96.4007H293.385V112.206H289.44V107.512H286.968L287.218 103.79H289.44V101.762ZM286.607 102.817C286.607 104.095 286.329 105.215 285.774 106.178C285.237 107.141 284.468 107.891 283.468 108.428C282.487 108.947 281.348 109.206 280.052 109.206C278.774 109.206 277.644 108.947 276.663 108.428C275.681 107.891 274.913 107.141 274.357 106.178C273.82 105.215 273.552 104.095 273.552 102.817C273.552 101.54 273.82 100.419 274.357 99.4562C274.913 98.4933 275.681 97.7525 276.663 97.234C277.644 96.697 278.774 96.4284 280.052 96.4284C281.348 96.4284 282.487 96.697 283.468 97.234C284.468 97.7525 285.237 98.4933 285.774 99.4562C286.329 100.419 286.607 101.54 286.607 102.817ZM277.496 102.817C277.496 103.725 277.728 104.438 278.19 104.956C278.672 105.456 279.292 105.706 280.052 105.706C280.829 105.706 281.45 105.456 281.913 104.956C282.376 104.438 282.607 103.725 282.607 102.817C282.607 101.91 282.376 101.206 281.913 100.706C281.45 100.206 280.829 99.9562 280.052 99.9562C279.274 99.9562 278.653 100.206 278.19 100.706C277.728 101.206 277.496 101.91 277.496 102.817ZM293.663 117.734H275.496V110.262H279.552V113.956H293.663V117.734ZM317.104 104.734H314.715V112.206H310.715V96.4007H314.715V100.651H317.104V104.734ZM308.132 100.067C308.132 102.067 307.613 103.753 306.576 105.123C305.539 106.493 304.113 107.521 302.299 108.206C300.484 108.873 298.401 109.206 296.049 109.206V105.484C297.623 105.484 299.012 105.29 300.215 104.901C301.419 104.512 302.354 103.965 303.021 103.262C303.688 102.54 304.021 101.706 304.021 100.762V100.29H296.049V96.6507H308.132V100.067ZM315.021 113.956V117.734H296.799V110.345H300.882V113.956H315.021ZM250.114 136.928V125.651H254.058V127.567H264.336V125.651H268.28V136.928H250.114ZM264.336 131.234H254.058V133.206H264.336V131.234ZM261.252 142.456V147.234H257.141V142.456H248.919V138.595H269.447V142.456H261.252ZM289.972 133.04V136.956H285.972V125.401H289.972V128.956H292.361V133.04H289.972ZM285.027 135.54C284.509 135.78 283.805 135.965 282.916 136.095C282.046 136.225 281.129 136.29 280.166 136.29H271.361V125.651H283.861V129.123H275.388V132.817H280.333C281.259 132.817 282.138 132.762 282.972 132.651C283.805 132.521 284.49 132.345 285.027 132.123V135.54ZM289.972 137.706V146.734H272.055V137.706H289.972ZM285.972 143.262V141.178H276.083V143.262H285.972ZM308.108 132.484V128.873H294.108V125.401H312.163V132.484H308.108ZM292.913 136.734V133.29H313.441V136.734H292.913ZM294.108 146.734V138.012H312.274V146.734H294.108ZM308.274 141.317H298.08V143.456H308.274V141.317ZM339.459 133.04V136.956H335.459V125.401H339.459V128.956H341.848V133.04H339.459ZM332.876 128.54C332.876 131.336 331.783 133.401 329.598 134.734C327.431 136.049 324.496 136.706 320.792 136.706V133.151C323.218 133.114 325.153 132.771 326.598 132.123C328.042 131.456 328.765 130.567 328.765 129.456V129.151H320.792V125.651H332.876V128.54ZM339.459 137.706V146.734H321.542V137.706H339.459ZM335.459 143.262V141.178H325.57V143.262H335.459ZM287.302 165.067V161.345H289.44V159.678H287.302V155.956H289.44V154.401H293.385V170.206H289.44V165.067H287.302ZM274.246 166.79V154.651H286.329V166.79H274.246ZM278.19 158.206V163.206H282.385V158.206H278.19ZM293.663 175.734H275.246V168.262H279.329V171.956H293.663V175.734ZM315.854 167.484H312.104V162.567H310.41V167.262H306.715V154.484H310.41V158.623H312.104V154.401H315.854V167.484ZM300.66 167.178C299.123 167.178 297.91 166.623 297.021 165.512C296.151 164.382 295.715 162.799 295.715 160.762C295.715 158.725 296.151 157.16 297.021 156.067C297.91 154.956 299.123 154.401 300.66 154.401C302.197 154.401 303.401 154.956 304.271 156.067C305.16 157.16 305.604 158.725 305.604 160.762C305.604 162.799 305.16 164.382 304.271 165.512C303.401 166.623 302.197 167.178 300.66 167.178ZM300.66 157.817C299.808 157.817 299.382 158.799 299.382 160.762C299.382 162.743 299.808 163.734 300.66 163.734C301.493 163.734 301.91 162.743 301.91 160.762C301.91 159.762 301.808 159.021 301.604 158.54C301.401 158.058 301.086 157.817 300.66 157.817ZM315.854 168.234V175.984H311.91V171.817H297.326V168.234H315.854Z" fill="black"/>
<path d="M319.552 27.5828V81.7746C319.552 84.579 317.278 86.8525 314.474 86.8525H275.296C272.492 86.8525 270.218 84.579 270.218 81.7746V27.5828C270.218 24.7784 272.492 22.5049 275.296 22.5049H314.474C317.278 22.5049 319.552 24.7784 319.552 27.5828Z" fill="#F5A218"/>
<path d="M314.474 22.5049H275.296C272.492 22.5049 270.218 24.7784 270.218 27.5828V50.877H283.61C284.159 50.877 284.671 50.6047 284.978 50.1506L285.986 48.6585C286.309 48.181 286.847 47.8948 287.424 47.8948H302.346C302.922 47.8948 303.461 48.181 303.783 48.6585L304.792 50.1506C305.098 50.6049 305.611 50.877 306.159 50.877H319.551V27.5828C319.552 24.7784 317.278 22.5049 314.474 22.5049Z" fill="white"/>
<path d="M314.393 30.4923V39.8824C314.393 41.3254 313.223 42.4953 311.78 42.4953H277.989C276.546 42.4953 275.376 41.3254 275.376 39.8824V30.4923C275.376 29.0492 276.546 27.8794 277.989 27.8794H311.78C313.223 27.8794 314.393 29.0492 314.393 30.4923Z" fill="#0176FE"/>
<path d="M285.996 62.3372C285.996 64.1846 284.498 65.6822 282.651 65.6822H278.722C276.874 65.6822 275.377 64.1846 275.377 62.3372C275.377 60.4898 276.874 58.9922 278.722 58.9922H282.651C284.498 58.9922 285.996 60.4898 285.996 62.3372Z" fill="white"/>
<path d="M285.996 75.4807C285.996 77.3281 284.498 78.8258 282.651 78.8258H278.722C276.874 78.8258 275.377 77.3281 275.377 75.4807C275.377 73.6334 276.874 72.1357 278.722 72.1357H282.651C284.498 72.1357 285.996 73.6334 285.996 75.4807Z" fill="white"/>
<path d="M300.195 62.3372C300.195 64.1846 298.697 65.6822 296.85 65.6822H292.92C291.073 65.6822 289.575 64.1846 289.575 62.3372C289.575 60.4898 291.073 58.9922 292.92 58.9922H296.85C298.697 58.9922 300.195 60.4898 300.195 62.3372Z" fill="white"/>
<path d="M300.195 75.4807C300.195 77.3281 298.697 78.8258 296.85 78.8258H292.92C291.073 78.8258 289.575 77.3281 289.575 75.4807C289.575 73.6334 291.073 72.1357 292.92 72.1357H296.85C298.697 72.1357 300.195 73.6334 300.195 75.4807Z" fill="white"/>
<path d="M314.395 63.6705V74.1488C314.395 76.7325 312.3 78.8271 309.716 78.8271C307.133 78.8271 305.038 76.7325 305.038 74.1488V63.6705C305.038 61.0868 307.133 58.9922 309.716 58.9922C312.3 58.9922 314.395 61.0868 314.395 63.6705Z" fill="white"/>
<path d="M310.056 34.0622V36.4804C310.056 37.9327 308.878 39.1099 307.426 39.1099C305.974 39.1099 304.797 37.9325 304.797 36.4804V34.0622C304.797 32.6099 305.974 31.4326 307.426 31.4326C308.878 31.4325 310.056 32.6099 310.056 34.0622Z" fill="white"/>
<path d="M275.297 87.8186H314.472C317.804 87.8186 320.514 85.108 320.514 81.7763C320.514 77.4788 320.514 48.6765 320.514 44.0623C320.514 43.5291 320.082 43.0971 319.549 43.0971C319.016 43.0971 318.584 43.5291 318.584 44.0623V49.9113H306.159C305.931 49.9113 305.721 49.8013 305.594 49.6084L304.584 48.116C304.082 47.3744 303.245 46.9321 302.343 46.9321H287.427C286.524 46.9321 285.687 47.3744 285.186 48.1157L284.171 49.616C284.049 49.8011 283.839 49.9113 283.611 49.9113H271.185V27.5826C271.185 25.3153 273.03 23.471 275.297 23.471H314.472C316.739 23.471 318.584 25.3153 318.584 27.5826V39.1073C318.584 39.6405 319.016 40.0725 319.549 40.0725C320.082 40.0725 320.514 39.6405 320.514 39.1073V27.5826C320.514 24.2511 317.804 21.5405 314.472 21.5405H275.297C271.966 21.5405 269.255 24.2511 269.255 27.5826V81.7763C269.255 85.108 271.966 87.8186 275.297 87.8186ZM271.185 51.8418H283.611C284.488 51.8418 285.299 51.4085 285.775 50.6903L286.785 49.1968C286.927 48.9875 287.166 48.8625 287.427 48.8625H302.343C302.603 48.8625 302.842 48.9875 302.984 49.1975L303.989 50.682C304.47 51.4082 305.281 51.8418 306.158 51.8418H318.584V81.7763C318.584 84.0436 316.739 85.8882 314.472 85.8882H275.297C273.03 85.8882 271.185 84.0435 271.185 81.7763V51.8418Z" fill="black"/>
<path d="M311.78 26.915H277.989C276.016 26.915 274.411 28.5203 274.411 30.4931V39.8832C274.411 41.8561 276.016 43.4613 277.989 43.4613H311.78C313.753 43.4613 315.358 41.856 315.358 39.8832V30.4931C315.358 28.5202 313.753 26.915 311.78 26.915ZM313.428 39.8832C313.428 40.7919 312.689 41.5309 311.78 41.5309H277.989C277.081 41.5309 276.342 40.7919 276.342 39.8832V30.4931C276.342 29.5844 277.081 28.8455 277.989 28.8455H311.78C312.689 28.8455 313.428 29.5845 313.428 30.4931V39.8832Z" fill="black"/>
<path d="M278.722 66.6465H282.651C285.027 66.6465 286.961 64.713 286.961 62.3361C286.961 59.9595 285.028 58.0259 282.651 58.0259H278.722C276.345 58.0259 274.411 59.9594 274.411 62.3361C274.411 64.7129 276.345 66.6465 278.722 66.6465ZM278.722 59.9562H282.651C283.963 59.9562 285.031 61.0238 285.031 62.3359C285.031 63.6483 283.963 64.7159 282.651 64.7159H278.722C277.409 64.7159 276.342 63.6483 276.342 62.3359C276.342 61.0238 277.409 59.9562 278.722 59.9562Z" fill="black"/>
<path d="M278.722 79.7917H282.651C285.027 79.7917 286.961 77.8582 286.961 75.4816C286.961 73.1049 285.028 71.1714 282.651 71.1714H278.722C276.345 71.1714 274.411 73.1049 274.411 75.4816C274.411 77.8582 276.345 79.7917 278.722 79.7917ZM278.722 73.1019H282.651C283.963 73.1019 285.031 74.1695 285.031 75.4816C285.031 76.7936 283.963 77.8613 282.651 77.8613H278.722C277.409 77.8613 276.342 76.7936 276.342 75.4816C276.342 74.1695 277.409 73.1019 278.722 73.1019Z" fill="black"/>
<path d="M292.92 66.6465H296.849C299.226 66.6465 301.159 64.713 301.159 62.3361C301.159 59.9595 299.226 58.0259 296.849 58.0259H292.92C290.543 58.0259 288.61 59.9594 288.61 62.3361C288.61 64.7129 290.543 66.6465 292.92 66.6465ZM292.92 59.9562H296.849C298.161 59.9562 299.229 61.0238 299.229 62.3359C299.229 63.6483 298.161 64.7159 296.849 64.7159H292.92C291.608 64.7159 290.54 63.6483 290.54 62.3359C290.54 61.0238 291.608 59.9562 292.92 59.9562Z" fill="black"/>
<path d="M292.92 79.7917H296.849C299.226 79.7917 301.159 77.8582 301.159 75.4816C301.159 73.1049 299.226 71.1714 296.849 71.1714H292.92C290.543 71.1714 288.61 73.1049 288.61 75.4816C288.61 77.8582 290.543 79.7917 292.92 79.7917ZM292.92 73.1019H296.849C298.161 73.1019 299.229 74.1695 299.229 75.4816C299.229 76.7936 298.161 77.8613 296.849 77.8613H292.92C291.608 77.8613 290.54 76.7936 290.54 75.4816C290.54 74.1695 291.608 73.1019 292.92 73.1019Z" fill="black"/>
<path d="M309.716 79.7912C312.828 79.7912 315.359 77.2595 315.359 74.1477V63.6695C315.359 60.5576 312.828 58.0259 309.716 58.0259C306.604 58.0259 304.072 60.5576 304.072 63.6695V74.1477C304.072 77.2594 306.604 79.7912 309.716 79.7912ZM306.003 63.6695C306.003 61.6222 307.669 59.9563 309.716 59.9563C311.763 59.9563 313.429 61.6222 313.429 63.6695V74.1477C313.429 76.1949 311.763 77.8608 309.716 77.8608C307.669 77.8608 306.003 76.1949 306.003 74.1477V63.6695Z" fill="black"/>
<path d="M307.426 30.4688C305.443 30.4688 303.831 32.0812 303.831 34.0635V36.4815C303.831 38.4638 305.443 40.0765 307.426 40.0765C309.408 40.0765 311.021 38.4638 311.021 36.4815V34.0635C311.021 32.0812 309.408 30.4688 307.426 30.4688ZM309.091 36.4815C309.091 37.3992 308.344 38.1461 307.426 38.1461C306.508 38.1461 305.761 37.3992 305.761 36.4815V34.0635C305.761 33.1458 306.508 32.3992 307.426 32.3992C308.344 32.3992 309.091 33.1458 309.091 34.0635V36.4815Z" fill="black"/>
<ellipse cx="497.5" cy="92.7893" rx="92.3751" ry="92.7893" fill="#D9D9D9"/>
<path d="M492.417 101.762H490.195L489.945 98.0396H492.417V96.4007H496.362V112.206H492.417V107.512H489.945L490.195 103.79H492.417V101.762ZM489.584 102.817C489.584 104.095 489.306 105.215 488.751 106.178C488.214 107.141 487.445 107.891 486.445 108.428C485.464 108.947 484.325 109.206 483.028 109.206C481.751 109.206 480.621 108.947 479.64 108.428C478.658 107.891 477.89 107.141 477.334 106.178C476.797 105.215 476.528 104.095 476.528 102.817C476.528 101.54 476.797 100.419 477.334 99.4562C477.89 98.4933 478.658 97.7525 479.64 97.234C480.621 96.697 481.751 96.4284 483.028 96.4284C484.325 96.4284 485.464 96.697 486.445 97.234C487.445 97.7525 488.214 98.4933 488.751 99.4562C489.306 100.419 489.584 101.54 489.584 102.817ZM480.473 102.817C480.473 103.725 480.704 104.438 481.167 104.956C481.649 105.456 482.269 105.706 483.028 105.706C483.806 105.706 484.427 105.456 484.89 104.956C485.352 104.438 485.584 103.725 485.584 102.817C485.584 101.91 485.352 101.206 484.89 100.706C484.427 100.206 483.806 99.9562 483.028 99.9562C482.251 99.9562 481.63 100.206 481.167 100.706C480.704 101.206 480.473 101.91 480.473 102.817ZM496.64 117.734H478.473V110.262H482.528V113.956H496.64V117.734ZM520.081 104.734H517.692V112.206H513.692V96.4007H517.692V100.651H520.081V104.734ZM511.109 100.067C511.109 102.067 510.59 103.753 509.553 105.123C508.516 106.493 507.09 107.521 505.275 108.206C503.461 108.873 501.377 109.206 499.025 109.206V105.484C500.6 105.484 501.988 105.29 503.192 104.901C504.396 104.512 505.331 103.965 505.998 103.262C506.664 102.54 506.998 101.706 506.998 100.762V100.29H499.025V96.6507H511.109V100.067ZM517.998 113.956V117.734H499.775V110.345H503.859V113.956H517.998ZM453.09 136.928V125.651H457.035V127.567H467.313V125.651H471.257V136.928H453.09ZM467.313 131.234H457.035V133.206H467.313V131.234ZM464.229 142.456V147.234H460.118V142.456H451.896V138.595H472.424V142.456H464.229ZM492.949 133.04V136.956H488.949V125.401H492.949V128.956H495.337V133.04H492.949ZM488.004 135.54C487.486 135.78 486.782 135.965 485.893 136.095C485.023 136.225 484.106 136.29 483.143 136.29H474.337V125.651H486.837V129.123H478.365V132.817H483.31C484.236 132.817 485.115 132.762 485.949 132.651C486.782 132.521 487.467 132.345 488.004 132.123V135.54ZM492.949 137.706V146.734H475.032V137.706H492.949ZM488.949 143.262V141.178H479.06V143.262H488.949ZM511.084 132.484V128.873H497.084V125.401H515.14V132.484H511.084ZM495.89 136.734V133.29H516.418V136.734H495.89ZM497.084 146.734V138.012H515.251V146.734H497.084ZM511.251 141.317H501.057V143.456H511.251V141.317ZM542.436 133.04V136.956H538.436V125.401H542.436V128.956H544.825V133.04H542.436ZM535.852 128.54C535.852 131.336 534.76 133.401 532.575 134.734C530.408 136.049 527.473 136.706 523.769 136.706V133.151C526.195 133.114 528.13 132.771 529.575 132.123C531.019 131.456 531.741 130.567 531.741 129.456V129.151H523.769V125.651H535.852V128.54ZM542.436 137.706V146.734H524.519V137.706H542.436ZM538.436 143.262V141.178H528.547V143.262H538.436ZM490.278 165.067V161.345H492.417V159.678H490.278V155.956H492.417V154.401H496.362V170.206H492.417V165.067H490.278ZM477.223 166.79V154.651H489.306V166.79H477.223ZM481.167 158.206V163.206H485.362V158.206H481.167ZM496.64 175.734H478.223V168.262H482.306V171.956H496.64V175.734ZM518.831 167.484H515.081V162.567H513.387V167.262H509.692V154.484H513.387V158.623H515.081V154.401H518.831V167.484ZM503.637 167.178C502.1 167.178 500.887 166.623 499.998 165.512C499.127 164.382 498.692 162.799 498.692 160.762C498.692 158.725 499.127 157.16 499.998 156.067C500.887 154.956 502.1 154.401 503.637 154.401C505.174 154.401 506.377 154.956 507.248 156.067C508.137 157.16 508.581 158.725 508.581 160.762C508.581 162.799 508.137 164.382 507.248 165.512C506.377 166.623 505.174 167.178 503.637 167.178ZM503.637 157.817C502.785 157.817 502.359 158.799 502.359 160.762C502.359 162.743 502.785 163.734 503.637 163.734C504.47 163.734 504.887 162.743 504.887 160.762C504.887 159.762 504.785 159.021 504.581 158.54C504.377 158.058 504.063 157.817 503.637 157.817ZM518.831 168.234V175.984H514.887V171.817H500.303V168.234H518.831Z" fill="black"/>
<path d="M528.814 86.7453H465.713C463.5 86.7453 461.706 84.9515 461.706 82.7388V44.6681C461.706 42.4554 463.5 40.6616 465.713 40.6616H528.814C531.027 40.6616 532.821 42.4554 532.821 44.6681V82.7387C532.821 84.9515 531.027 86.7453 528.814 86.7453Z" fill="#80B4FB"/>
<path d="M528.814 40.6621H524.879C527.092 40.6621 528.886 42.4559 528.886 44.6686V82.7392C528.886 84.9519 527.092 86.7456 524.879 86.7456H528.814C531.027 86.7456 532.821 84.9519 532.821 82.7392V44.6686C532.821 42.4557 531.027 40.6621 528.814 40.6621Z" fill="#61A2F9"/>
<path d="M486.273 78.3158H470.468C469.577 78.3158 468.855 77.5937 468.855 76.7028V70.8761C468.855 67.5856 471.522 64.918 474.813 64.918H481.928C485.218 64.918 487.886 67.5856 487.886 70.8761V76.7028C487.886 77.5937 487.164 78.3158 486.273 78.3158Z" fill="#544F57"/>
<path d="M481.928 64.918H474.813C474.813 64.918 474.813 64.918 474.812 64.918H478.448C481.738 64.918 484.406 67.5856 484.406 70.8761V76.7028C484.406 77.5935 483.684 78.3157 482.793 78.3157H486.273C487.164 78.3157 487.886 77.5935 487.886 76.7028V70.8761C487.886 67.5856 485.218 64.918 481.928 64.918Z" fill="#454045"/>
<path d="M478.37 67.1499C482.567 67.1499 485.969 63.748 485.969 59.5515C485.969 55.355 482.567 51.9531 478.37 51.9531C474.174 51.9531 470.772 55.355 470.772 59.5515C470.772 63.748 474.174 67.1499 478.37 67.1499Z" fill="#FFE4C1"/>
<path d="M478.37 51.9531C477.782 51.9531 477.21 52.0222 476.66 52.1489C480.032 52.9251 482.547 55.9435 482.547 59.5515C482.547 63.1595 480.032 66.1779 476.66 66.9541C477.21 67.0808 477.782 67.1499 478.37 67.1499C482.567 67.1499 485.969 63.748 485.969 59.5515C485.969 55.355 482.567 51.9531 478.37 51.9531Z" fill="#F1D0A5"/>
<path d="M522.007 72.5349H506.031C504.855 72.5349 503.901 71.5814 503.901 70.4052V59.8641C503.901 58.6879 504.855 57.7344 506.031 57.7344H522.007C523.184 57.7344 524.137 58.6879 524.137 59.8641V70.4052C524.137 71.5815 523.184 72.5349 522.007 72.5349Z" fill="#F4DD45"/>
<path d="M522.007 57.7344H518.926C520.102 57.7344 521.056 58.6879 521.056 59.8641V70.4052C521.056 71.5814 520.102 72.5349 518.926 72.5349H522.007C523.183 72.5349 524.137 71.5814 524.137 70.4052V59.8641C524.137 58.6878 523.183 57.7344 522.007 57.7344Z" fill="#ECBE6B"/>
<path d="M486.273 77.2425H476.958C476.365 77.2425 475.885 77.7228 475.885 78.3156C475.885 78.9085 476.365 79.3888 476.958 79.3888H486.273C487.754 79.3888 488.959 78.1839 488.959 76.7029V70.8764C488.959 68.2848 487.524 65.9397 485.326 64.7216C486.427 63.2366 487.041 61.4216 487.041 59.551C487.041 54.7697 483.151 50.8799 478.37 50.8799C473.589 50.8799 469.699 54.7697 469.699 59.551C469.699 61.4214 470.312 63.2365 471.414 64.7216C469.216 65.9397 467.781 68.2849 467.781 70.8764V76.7029C467.781 78.1839 468.986 79.3888 470.467 79.3888H472.666C473.259 79.3888 473.74 78.9085 473.74 78.3156C473.74 77.7228 473.259 77.2425 472.666 77.2425H470.467C470.17 77.2425 469.928 77.0005 469.928 76.7029V70.8764C469.928 68.8733 471.161 67.0818 472.985 66.3452C474.515 67.5596 476.402 68.2235 478.37 68.2235C480.337 68.2235 482.225 67.5596 483.755 66.3452C485.579 67.0818 486.812 68.8733 486.812 70.8764V76.7029C486.812 77.0005 486.57 77.2425 486.273 77.2425ZM471.845 59.5511C471.845 55.9533 474.772 53.0263 478.37 53.0263C481.968 53.0263 484.895 55.9533 484.895 59.5511C484.895 63.1122 482.011 66.0774 478.37 66.0774C474.723 66.0774 471.845 63.1066 471.845 59.5511Z" fill="black"/>
<path d="M506.031 73.6081H522.007C523.774 73.6081 525.21 72.1714 525.21 70.4053V59.864C525.21 58.0979 523.774 56.6611 522.007 56.6611H506.031C504.265 56.6611 502.828 58.0979 502.828 59.864V70.4053C502.828 72.1714 504.265 73.6081 506.031 73.6081ZM522.008 71.4618H515.092V66.6104C515.092 66.3884 515.273 66.2079 515.495 66.2079H523.064V70.4054C523.064 70.9878 522.59 71.4618 522.008 71.4618ZM523.064 59.864V64.0615H515.495C514.09 64.0615 512.946 65.2049 512.946 66.6103V71.4617H509.575V69.6923C509.575 69.0995 509.094 68.6191 508.502 68.6191C507.909 68.6191 507.428 69.0995 507.428 69.6923V71.4618H506.031C505.448 71.4618 504.974 70.9878 504.974 70.4053V64.4398H509.462C510.868 64.4398 512.011 63.2964 512.011 61.891V58.8076H517.076V60.5507C517.076 61.1435 517.556 61.6238 518.149 61.6238C518.742 61.6238 519.222 61.1435 519.222 60.5507V58.8076H522.007C522.59 58.8074 523.064 59.2815 523.064 59.864ZM506.031 58.8074H509.865V61.8908C509.865 62.1129 509.684 62.2933 509.462 62.2933H504.975V59.8639C504.975 59.2815 505.448 58.8074 506.031 58.8074Z" fill="black"/>
<path d="M511.194 47.6444C511.194 47.0516 510.713 46.5713 510.12 46.5713H484.406C483.813 46.5713 483.333 47.0516 483.333 47.6444C483.333 48.2373 483.813 48.7176 484.406 48.7176H510.121C510.713 48.7176 511.194 48.2371 511.194 47.6444Z" fill="black"/>
<path d="M493.457 34.7289C493.038 35.1481 493.038 35.8275 493.457 36.2466C493.876 36.6656 494.555 36.6656 494.974 36.2466C495.586 35.6354 496.398 35.2985 497.263 35.2985C498.128 35.2985 498.94 35.6354 499.552 36.2466C499.761 36.4561 500.036 36.5608 500.311 36.5608C500.585 36.5608 500.86 36.4561 501.069 36.2466C501.489 35.8274 501.489 35.148 501.069 34.7289C498.97 32.6299 495.556 32.6302 493.457 34.7289Z" fill="black"/>
<path d="M504.048 32.8239C504.322 32.8239 504.597 32.7191 504.807 32.5097C505.226 32.0906 505.226 31.411 504.807 30.9921C502.792 28.9768 500.113 27.8672 497.263 27.8672C494.414 27.8672 491.735 28.9768 489.72 30.9918C489.3 31.411 489.3 32.0904 489.72 32.5095C490.139 32.9285 490.818 32.9285 491.237 32.5095C492.847 30.8999 494.987 30.0135 497.263 30.0135C499.539 30.0135 501.679 30.8999 503.289 32.5094C503.499 32.719 503.773 32.8239 504.048 32.8239Z" fill="black"/>
<path d="M486.758 28.0302C492.551 22.2374 501.976 22.2374 507.769 28.0302C507.978 28.2397 508.253 28.3444 508.528 28.3444C508.802 28.3444 509.077 28.2397 509.286 28.0302C509.706 27.6109 509.706 26.9316 509.286 26.5125C502.657 19.8834 491.87 19.8831 485.241 26.5125C484.821 26.9317 484.821 27.6111 485.241 28.0302C485.66 28.449 486.339 28.449 486.758 28.0302Z" fill="black"/>
<path d="M528.814 39.5889H519.413C518.821 39.5889 518.34 40.0692 518.34 40.662C518.34 41.2548 518.821 41.7352 519.413 41.7352H528.814C530.432 41.7352 531.747 43.051 531.747 44.6685V82.7389C531.747 84.3564 530.432 85.6722 528.814 85.6722H465.712C464.095 85.6722 462.779 84.3564 462.779 82.7389V44.6685C462.779 43.051 464.095 41.7352 465.712 41.7352H515.123C515.715 41.7352 516.196 41.2548 516.196 40.662C516.196 40.0692 515.715 39.5889 515.123 39.5889H465.712C462.911 39.5889 460.633 41.8675 460.633 44.6685V82.7389C460.633 85.5399 462.911 87.8186 465.712 87.8186H528.814C531.615 87.8186 533.894 85.5399 533.894 82.7389V44.6685C533.894 41.8675 531.615 39.5889 528.814 39.5889Z" fill="black"/>
<ellipse cx="700.477" cy="92.7893" rx="92.3751" ry="92.7893" fill="#D9D9D9"/>
<path d="M695.394 101.762H693.172L692.922 98.0396H695.394V96.4007H699.338V112.206H695.394V107.512H692.922L693.172 103.79H695.394V101.762ZM692.561 102.817C692.561 104.095 692.283 105.215 691.727 106.178C691.19 107.141 690.422 107.891 689.422 108.428C688.44 108.947 687.301 109.206 686.005 109.206C684.727 109.206 683.598 108.947 682.616 108.428C681.635 107.891 680.866 107.141 680.311 106.178C679.773 105.215 679.505 104.095 679.505 102.817C679.505 101.54 679.773 100.419 680.311 99.4562C680.866 98.4933 681.635 97.7525 682.616 97.234C683.598 96.697 684.727 96.4284 686.005 96.4284C687.301 96.4284 688.44 96.697 689.422 97.234C690.422 97.7525 691.19 98.4933 691.727 99.4562C692.283 100.419 692.561 101.54 692.561 102.817ZM683.449 102.817C683.449 103.725 683.681 104.438 684.144 104.956C684.625 105.456 685.246 105.706 686.005 105.706C686.783 105.706 687.403 105.456 687.866 104.956C688.329 104.438 688.561 103.725 688.561 102.817C688.561 101.91 688.329 101.206 687.866 100.706C687.403 100.206 686.783 99.9562 686.005 99.9562C685.227 99.9562 684.607 100.206 684.144 100.706C683.681 101.206 683.449 101.91 683.449 102.817ZM699.616 117.734H681.449V110.262H685.505V113.956H699.616V117.734ZM723.058 104.734H720.669V112.206H716.669V96.4007H720.669V100.651H723.058V104.734ZM714.085 100.067C714.085 102.067 713.567 103.753 712.53 105.123C711.493 106.493 710.067 107.521 708.252 108.206C706.437 108.873 704.354 109.206 702.002 109.206V105.484C703.576 105.484 704.965 105.29 706.169 104.901C707.372 104.512 708.308 103.965 708.974 103.262C709.641 102.54 709.974 101.706 709.974 100.762V100.29H702.002V96.6507H714.085V100.067ZM720.974 113.956V117.734H702.752V110.345H706.835V113.956H720.974ZM656.067 136.928V125.651H660.011V127.567H670.289V125.651H674.234V136.928H656.067ZM670.289 131.234H660.011V133.206H670.289V131.234ZM667.206 142.456V147.234H663.095V142.456H654.872V138.595H675.4V142.456H667.206ZM695.925 133.04V136.956H691.925V125.401H695.925V128.956H698.314V133.04H695.925ZM690.981 135.54C690.462 135.78 689.758 135.965 688.87 136.095C687.999 136.225 687.082 136.29 686.12 136.29H677.314V125.651H689.814V129.123H681.342V132.817H686.286C687.212 132.817 688.092 132.762 688.925 132.651C689.758 132.521 690.444 132.345 690.981 132.123V135.54ZM695.925 137.706V146.734H678.008V137.706H695.925ZM691.925 143.262V141.178H682.036V143.262H691.925ZM714.061 132.484V128.873H700.061V125.401H718.117V132.484H714.061ZM698.867 136.734V133.29H719.394V136.734H698.867ZM700.061 146.734V138.012H718.228V146.734H700.061ZM714.228 141.317H704.033V143.456H714.228V141.317ZM745.412 133.04V136.956H741.412V125.401H745.412V128.956H747.801V133.04H745.412ZM738.829 128.54C738.829 131.336 737.736 133.401 735.551 134.734C733.385 136.049 730.449 136.706 726.746 136.706V133.151C729.172 133.114 731.107 132.771 732.551 132.123C733.996 131.456 734.718 130.567 734.718 129.456V129.151H726.746V125.651H738.829V128.54ZM745.412 137.706V146.734H727.496V137.706H745.412ZM741.412 143.262V141.178H731.523V143.262H741.412ZM693.255 165.067V161.345H695.394V159.678H693.255V155.956H695.394V154.401H699.338V170.206H695.394V165.067H693.255ZM680.199 166.79V154.651H692.283V166.79H680.199ZM684.144 158.206V163.206H688.338V158.206H684.144ZM699.616 175.734H681.199V168.262H685.283V171.956H699.616V175.734ZM721.808 167.484H718.058V162.567H716.363V167.262H712.669V154.484H716.363V158.623H718.058V154.401H721.808V167.484ZM706.613 167.178C705.076 167.178 703.863 166.623 702.974 165.512C702.104 164.382 701.669 162.799 701.669 160.762C701.669 158.725 702.104 157.16 702.974 156.067C703.863 154.956 705.076 154.401 706.613 154.401C708.15 154.401 709.354 154.956 710.224 156.067C711.113 157.16 711.558 158.725 711.558 160.762C711.558 162.799 711.113 164.382 710.224 165.512C709.354 166.623 708.15 167.178 706.613 167.178ZM706.613 157.817C705.761 157.817 705.335 158.799 705.335 160.762C705.335 162.743 705.761 163.734 706.613 163.734C707.446 163.734 707.863 162.743 707.863 160.762C707.863 159.762 707.761 159.021 707.558 158.54C707.354 158.058 707.039 157.817 706.613 157.817ZM721.808 168.234V175.984H717.863V171.817H703.28V168.234H721.808Z" fill="black"/>
<path d="M690.98 44.7655C690.474 35.4088 696.233 26.8507 705.091 23.7947C713.949 20.7386 723.759 23.9252 729.131 31.6032C734.502 39.2811 734.133 49.5897 728.225 56.8633C729.202 59.761 730.805 62.4081 732.919 64.6171C729.365 64.4687 725.909 63.4115 722.879 61.5465C719.257 63.7676 715.04 64.8232 710.798 64.5707L690.98 44.7655Z" fill="#02A9F4"/>
<path d="M732.92 43.6315C732.922 38.0649 730.712 32.7257 726.776 28.7896C722.839 24.8534 717.5 22.6432 711.934 22.6455C711.381 22.6455 710.842 22.6886 710.302 22.7306C718.067 23.3511 724.849 28.2239 727.914 35.3854C730.98 42.5469 729.823 50.8173 724.912 56.8637C725.8 59.5445 727.237 62.0107 729.131 64.105C730.373 64.4033 731.643 64.5751 732.92 64.6175C730.805 62.4085 729.202 59.7613 728.225 56.8637C731.271 53.1272 732.93 48.4519 732.92 43.6315Z" fill="#0377BC"/>
<path d="M675.007 50.8839C682.75 43.1574 695.131 42.6781 703.448 49.7828C711.765 56.8875 713.226 69.1909 706.805 78.0462C700.383 86.9014 688.235 89.3354 678.897 83.6375C675.868 85.5025 672.411 86.5596 668.857 86.7081C670.972 84.4991 672.574 81.8519 673.551 78.9543C666.774 70.6058 667.401 58.4862 675.004 50.8817" fill="#60A917"/>
<path d="M689.843 44.7358C689.283 44.7358 688.739 44.7767 688.186 44.8198C699.116 45.6727 707.543 54.8025 707.52 65.7655C707.497 76.7286 699.031 85.8226 688.098 86.6294C688.674 86.6769 689.257 86.7078 689.846 86.7078C701.437 86.7078 710.832 77.312 710.832 65.7218C710.832 54.1316 701.437 44.7358 689.846 44.7358H689.843Z" fill="#549414"/>
<path d="M711.934 46.945C713.764 46.945 715.247 45.4615 715.247 43.6314C715.247 41.8014 713.764 40.3179 711.934 40.3179C710.104 40.3179 708.62 41.8014 708.62 43.6314C708.62 45.4615 710.104 46.945 711.934 46.945Z" fill="#F5F5F5"/>
<path d="M699.784 46.945C701.614 46.945 703.097 45.4615 703.097 43.6314C703.097 41.8014 701.614 40.3179 699.784 40.3179C697.954 40.3179 696.47 41.8014 696.47 43.6314C696.47 45.4615 697.954 46.945 699.784 46.945Z" fill="#F5F5F5"/>
<path d="M724.084 46.945C725.914 46.945 727.397 45.4615 727.397 43.6314C727.397 41.8014 725.914 40.3179 724.084 40.3179C722.254 40.3179 720.77 41.8014 720.77 43.6314C720.77 45.4615 722.254 46.945 724.084 46.945Z" fill="#F5F5F5"/>
<path d="M690.948 64.679V54.7515C694.077 55.1469 696.47 57.1892 696.47 59.6468C696.47 60.2568 696.965 60.7513 697.575 60.7513C698.185 60.7513 698.679 60.2568 698.679 59.6468C698.679 55.993 695.299 52.9732 690.948 52.5292V51.3628C690.948 50.7528 690.453 50.2583 689.843 50.2583C689.233 50.2583 688.739 50.7528 688.739 51.3628V52.5292C684.387 52.971 681.007 55.993 681.007 59.6468C681.007 63.3005 684.387 66.3203 688.739 66.7643V76.6918C685.609 76.2964 683.216 74.2541 683.216 71.7965C683.216 71.1865 682.721 70.692 682.111 70.692C681.501 70.692 681.007 71.1865 681.007 71.7965C681.007 75.4503 684.387 78.4701 688.739 78.9141V80.0805C688.739 80.6905 689.233 81.185 689.843 81.185C690.453 81.185 690.948 80.6905 690.948 80.0805V78.9141C695.299 78.4723 698.679 75.4503 698.679 71.7965C698.679 68.1428 695.299 65.123 690.948 64.679ZM683.216 59.6468C683.216 57.1892 685.609 55.1469 688.739 54.7515V64.542C685.609 64.1466 683.216 62.1043 683.216 59.6468ZM690.948 76.6918V66.9013C694.077 67.2967 696.47 69.339 696.47 71.7965C696.47 74.2541 694.077 76.2964 690.948 76.6918Z" fill="#F5F5F5"/>
<path d="M673.919 52.0036C673.438 51.6319 672.747 51.7193 672.373 52.1991C666.235 60.1395 666.215 71.2185 672.325 79.1804C671.369 81.6881 669.924 83.9812 668.075 85.9269C667.759 86.2429 667.665 86.7182 667.836 87.1309C668.007 87.5437 668.41 87.8126 668.857 87.8123C672.392 87.678 675.841 86.6872 678.908 84.9251C688.577 90.428 700.829 87.8824 707.506 78.9834C714.182 70.0845 713.199 57.6092 705.212 49.8656C697.224 42.122 684.724 41.5265 676.037 48.4757C675.588 48.866 675.528 49.5415 675.902 50.0039C676.276 50.4664 676.95 50.5496 677.425 50.1922C680.94 47.3549 685.326 45.8177 689.843 45.8403C698.258 45.8478 705.756 51.1517 708.566 59.0833C711.376 67.0149 708.888 75.8564 702.354 81.1589C695.821 86.4615 686.656 87.0767 679.473 82.695C679.114 82.4757 678.662 82.4791 678.306 82.7039C676.214 83.9951 673.897 84.8784 671.476 85.3072C672.863 83.4891 673.924 81.4441 674.612 79.2633C674.713 78.9147 674.637 78.5385 674.407 78.257C668.591 71.0874 668.47 60.8587 674.115 53.5532C674.489 53.0713 674.401 52.3775 673.919 52.0036Z" fill="black"/>
<path d="M711.934 21.5408C701.044 21.483 691.757 29.415 690.11 40.1797C690.049 40.5698 690.201 40.9627 690.509 41.2106C690.816 41.4584 691.232 41.5235 691.6 41.3812C691.969 41.239 692.233 40.9111 692.294 40.521C693.606 32.2658 699.942 25.7129 708.148 24.1233C716.354 22.5336 724.679 26.2467 728.978 33.4148C733.278 40.5829 732.635 49.675 727.369 56.1666C727.14 56.448 727.064 56.8242 727.165 57.1728C727.853 59.3556 728.915 61.4022 730.304 63.2212C727.882 62.7927 725.563 61.9077 723.47 60.6134C723.115 60.3887 722.663 60.3853 722.304 60.6046C720.084 61.9655 717.617 62.8721 715.044 63.272C714.649 63.3265 714.313 63.5901 714.167 63.9614C714.021 64.3328 714.086 64.7542 714.338 65.0636C714.59 65.3731 714.99 65.5226 715.383 65.4545C718.017 65.0459 720.554 64.1579 722.868 62.8346C725.936 64.5968 729.385 65.5876 732.92 65.7218C733.366 65.7222 733.77 65.4532 733.941 65.0405C734.112 64.6277 734.018 64.1524 733.702 63.8364C731.854 61.8904 730.41 59.5974 729.455 57.09C732.437 53.2393 734.045 48.5017 734.024 43.6313C734.01 31.4369 724.128 21.5548 711.934 21.5408Z" fill="black"/>
<path d="M702.877 45.1181C702.939 45.1282 703.001 45.1333 703.064 45.1336C703.602 45.1327 704.06 44.7453 704.151 44.2157C704.185 44.0227 704.202 43.8273 704.202 43.6314C704.198 41.7955 703.06 40.1531 701.342 39.5057C699.624 38.8583 697.685 39.3408 696.47 40.7177C696.117 41.1794 696.182 41.8356 696.619 42.2188C697.056 42.6021 697.715 42.5813 698.127 42.1712C698.543 41.6906 699.148 41.4167 699.784 41.4224C701.004 41.4224 701.993 42.4114 701.993 43.6314C701.993 43.7021 701.987 43.7727 701.975 43.8424C701.872 44.4435 702.275 45.0147 702.877 45.1181Z" fill="black"/>
<path d="M716.352 43.6315C716.352 41.1914 714.374 39.2134 711.934 39.2134C709.494 39.2134 707.516 41.1914 707.516 43.6315C707.516 46.0715 709.494 48.0496 711.934 48.0496C714.374 48.0496 716.352 46.0715 716.352 43.6315ZM709.725 43.6315C709.725 42.4115 710.714 41.4224 711.934 41.4224C713.154 41.4224 714.143 42.4115 714.143 43.6315C714.143 44.8515 713.154 45.8405 711.934 45.8405C710.714 45.8405 709.725 44.8515 709.725 43.6315Z" fill="black"/>
<path d="M728.501 43.6315C728.501 41.1914 726.523 39.2134 724.083 39.2134C721.643 39.2134 719.665 41.1914 719.665 43.6315C719.665 46.0715 721.643 48.0496 724.083 48.0496C726.523 48.0496 728.501 46.0715 728.501 43.6315ZM721.874 43.6315C721.874 42.4115 722.863 41.4224 724.083 41.4224C725.303 41.4224 726.292 42.4115 726.292 43.6315C726.292 44.8515 725.303 45.8405 724.083 45.8405C722.863 45.8405 721.874 44.8515 721.874 43.6315Z" fill="black"/>
<ellipse cx="902.625" cy="92.7893" rx="92.3751" ry="92.7893" fill="#D9D9D9"/>
<path d="M897.542 101.762H895.32L895.07 98.0396H897.542V96.4007H901.487V112.206H897.542V107.512H895.07L895.32 103.79H897.542V101.762ZM894.709 102.817C894.709 104.095 894.431 105.215 893.875 106.178C893.338 107.141 892.57 107.891 891.57 108.428C890.588 108.947 889.449 109.206 888.153 109.206C886.875 109.206 885.746 108.947 884.764 108.428C883.783 107.891 883.014 107.141 882.459 106.178C881.922 105.215 881.653 104.095 881.653 102.817C881.653 101.54 881.922 100.419 882.459 99.4562C883.014 98.4933 883.783 97.7525 884.764 97.234C885.746 96.697 886.875 96.4284 888.153 96.4284C889.449 96.4284 890.588 96.697 891.57 97.234C892.57 97.7525 893.338 98.4933 893.875 99.4562C894.431 100.419 894.709 101.54 894.709 102.817ZM885.598 102.817C885.598 103.725 885.829 104.438 886.292 104.956C886.774 105.456 887.394 105.706 888.153 105.706C888.931 105.706 889.551 105.456 890.014 104.956C890.477 104.438 890.709 103.725 890.709 102.817C890.709 101.91 890.477 101.206 890.014 100.706C889.551 100.206 888.931 99.9562 888.153 99.9562C887.375 99.9562 886.755 100.206 886.292 100.706C885.829 101.206 885.598 101.91 885.598 102.817ZM901.764 117.734H883.598V110.262H887.653V113.956H901.764V117.734ZM925.206 104.734H922.817V112.206H918.817V96.4007H922.817V100.651H925.206V104.734ZM916.234 100.067C916.234 102.067 915.715 103.753 914.678 105.123C913.641 106.493 912.215 107.521 910.4 108.206C908.585 108.873 906.502 109.206 904.15 109.206V105.484C905.724 105.484 907.113 105.29 908.317 104.901C909.521 104.512 910.456 103.965 911.122 103.262C911.789 102.54 912.122 101.706 912.122 100.762V100.29H904.15V96.6507H916.234V100.067ZM923.122 113.956V117.734H904.9V110.345H908.984V113.956H923.122ZM858.215 136.928V125.651H862.16V127.567H872.437V125.651H876.382V136.928H858.215ZM872.437 131.234H862.16V133.206H872.437V131.234ZM869.354 142.456V147.234H865.243V142.456H857.021V138.595H877.548V142.456H869.354ZM898.073 133.04V136.956H894.073V125.401H898.073V128.956H900.462V133.04H898.073ZM893.129 135.54C892.61 135.78 891.907 135.965 891.018 136.095C890.147 136.225 889.231 136.29 888.268 136.29H879.462V125.651H891.962V129.123H883.49V132.817H888.434C889.36 132.817 890.24 132.762 891.073 132.651C891.907 132.521 892.592 132.345 893.129 132.123V135.54ZM898.073 137.706V146.734H880.157V137.706H898.073ZM894.073 143.262V141.178H884.184V143.262H894.073ZM916.209 132.484V128.873H902.209V125.401H920.265V132.484H916.209ZM901.015 136.734V133.29H921.543V136.734H901.015ZM902.209 146.734V138.012H920.376V146.734H902.209ZM916.376 141.317H906.181V143.456H916.376V141.317ZM947.561 133.04V136.956H943.561V125.401H947.561V128.956H949.949V133.04H947.561ZM940.977 128.54C940.977 131.336 939.885 133.401 937.699 134.734C935.533 136.049 932.598 136.706 928.894 136.706V133.151C931.32 133.114 933.255 132.771 934.699 132.123C936.144 131.456 936.866 130.567 936.866 129.456V129.151H928.894V125.651H940.977V128.54ZM947.561 137.706V146.734H929.644V137.706H947.561ZM943.561 143.262V141.178H933.672V143.262H943.561ZM895.403 165.067V161.345H897.542V159.678H895.403V155.956H897.542V154.401H901.487V170.206H897.542V165.067H895.403ZM882.348 166.79V154.651H894.431V166.79H882.348ZM886.292 158.206V163.206H890.487V158.206H886.292ZM901.764 175.734H883.348V168.262H887.431V171.956H901.764V175.734ZM923.956 167.484H920.206V162.567H918.511V167.262H914.817V154.484H918.511V158.623H920.206V154.401H923.956V167.484ZM908.761 167.178C907.224 167.178 906.011 166.623 905.122 165.512C904.252 164.382 903.817 162.799 903.817 160.762C903.817 158.725 904.252 157.16 905.122 156.067C906.011 154.956 907.224 154.401 908.761 154.401C910.298 154.401 911.502 154.956 912.372 156.067C913.261 157.16 913.706 158.725 913.706 160.762C913.706 162.799 913.261 164.382 912.372 165.512C911.502 166.623 910.298 167.178 908.761 167.178ZM908.761 157.817C907.91 157.817 907.484 158.799 907.484 160.762C907.484 162.743 907.91 163.734 908.761 163.734C909.595 163.734 910.011 162.743 910.011 160.762C910.011 159.762 909.91 159.021 909.706 158.54C909.502 158.058 909.187 157.817 908.761 157.817ZM923.956 168.234V175.984H920.011V171.817H905.428V168.234H923.956Z" fill="black"/>
<path d="M872.567 30.895H926.811C928.284 30.895 929.479 32.0892 929.479 33.5622V46.1693H869.9V33.5622C869.9 32.0892 871.094 30.895 872.567 30.895Z" fill="#7398D4"/>
<path d="M926.811 30.895H908.946V46.1312C908.946 46.1439 908.947 46.1565 908.947 46.1693H929.479V33.5622C929.479 32.0892 928.284 30.895 926.811 30.895Z" fill="#4377C4"/>
<path d="M876.84 30.895H872.567C871.094 30.895 869.9 32.0891 869.9 33.5621V46.1691H874.173V33.5621C874.173 32.0891 875.367 30.895 876.84 30.895Z" fill="#4377C4"/>
<path d="M926.811 87.8188H872.567C871.094 87.8188 869.9 86.6247 869.9 85.1517V41.7905H929.479V85.1517C929.479 86.6247 928.284 87.8188 926.811 87.8188Z" fill="#F1F6F7"/>
<path d="M908.946 46.1312C908.946 47.2315 909.404 48.2932 910.203 49.044C910.95 49.7465 911.926 50.1332 912.951 50.133C913.918 50.133 914.854 49.78 915.584 49.1392L918.608 46.4884C918.68 46.4251 918.772 46.3903 918.866 46.3903H929.479V41.7905H908.946V46.1312Z" fill="#D2E4E7"/>
<path d="M874.173 85.1517V41.7905H869.9V85.1517C869.9 86.6248 871.094 87.8188 872.567 87.8188H876.84C875.367 87.8188 874.173 86.6248 874.173 85.1517Z" fill="#D2E4E7"/>
<path d="M883.72 37.0472C882.08 37.0472 880.751 35.7176 880.751 34.0776V26.9823C880.751 25.3423 882.08 24.0127 883.72 24.0127C885.36 24.0127 886.69 25.3423 886.69 26.9823V34.0775C886.69 35.7176 885.36 37.0472 883.72 37.0472Z" fill="#9BB9C3"/>
<path d="M899.689 37.0472C898.049 37.0472 896.719 35.7176 896.719 34.0776V26.9823C896.719 25.3423 898.049 24.0127 899.689 24.0127C901.329 24.0127 902.659 25.3423 902.659 26.9823V34.0775C902.659 35.7176 901.329 37.0472 899.689 37.0472Z" fill="#9BB9C3"/>
<path d="M895.838 56.9899H891.511C891.142 56.9899 890.844 56.6914 890.844 56.3231V51.9959C890.844 51.6276 891.142 51.3291 891.511 51.3291H895.838C896.206 51.3291 896.505 51.6276 896.505 51.9959V56.3231C896.505 56.6914 896.206 56.9899 895.838 56.9899Z" fill="#9BB9C3"/>
<path d="M907.868 56.9899H903.541C903.172 56.9899 902.874 56.6914 902.874 56.3231V51.9959C902.874 51.6276 903.172 51.3291 903.541 51.3291H907.868C908.236 51.3291 908.535 51.6276 908.535 51.9959V56.3231C908.535 56.6914 908.236 56.9899 907.868 56.9899Z" fill="#9BB9C3"/>
<path d="M919.898 56.9899H915.57C915.202 56.9899 914.904 56.6914 914.904 56.3231V51.9959C914.904 51.6276 915.202 51.3291 915.57 51.3291H919.898C920.266 51.3291 920.564 51.6276 920.564 51.9959V56.3231C920.564 56.6914 920.266 56.9899 919.898 56.9899Z" fill="#DC4955"/>
<path d="M883.808 67.6349H879.481C879.113 67.6349 878.814 67.3364 878.814 66.9681V62.6409C878.814 62.2726 879.113 61.9741 879.481 61.9741H883.808C884.177 61.9741 884.475 62.2726 884.475 62.6409V66.9681C884.475 67.3364 884.176 67.6349 883.808 67.6349Z" fill="#9BB9C3"/>
<path d="M895.838 67.6349H891.511C891.142 67.6349 890.844 67.3364 890.844 66.9681V62.6409C890.844 62.2726 891.142 61.9741 891.511 61.9741H895.838C896.206 61.9741 896.505 62.2726 896.505 62.6409V66.9681C896.505 67.3364 896.206 67.6349 895.838 67.6349Z" fill="#9BB9C3"/>
<path d="M907.868 67.6349H903.541C903.172 67.6349 902.874 67.3364 902.874 66.9681V62.6409C902.874 62.2726 903.172 61.9741 903.541 61.9741H907.868C908.236 61.9741 908.535 62.2726 908.535 62.6409V66.9681C908.535 67.3364 908.236 67.6349 907.868 67.6349Z" fill="#9BB9C3"/>
<path d="M919.898 67.6349H915.57C915.202 67.6349 914.904 67.3364 914.904 66.9681V62.6409C914.904 62.2726 915.202 61.9741 915.57 61.9741H919.898C920.266 61.9741 920.564 62.2726 920.564 62.6409V66.9681C920.564 67.3364 920.266 67.6349 919.898 67.6349Z" fill="#DC4955"/>
<path d="M895.838 78.2795H891.511C891.142 78.2795 890.844 77.981 890.844 77.6127V73.2854C890.844 72.9172 891.142 72.6187 891.511 72.6187H895.838C896.206 72.6187 896.505 72.9172 896.505 73.2854V77.6127C896.505 77.981 896.206 78.2795 895.838 78.2795Z" fill="#9BB9C3"/>
<path d="M907.868 78.2795H903.541C903.172 78.2795 902.874 77.981 902.874 77.6127V73.2854C902.874 72.9172 903.172 72.6187 903.541 72.6187H907.868C908.236 72.6187 908.535 72.9172 908.535 73.2854V77.6127C908.535 77.981 908.236 78.2795 907.868 78.2795Z" fill="#9BB9C3"/>
<path d="M883.808 56.9899H879.481C879.113 56.9899 878.814 56.6914 878.814 56.3231V51.9959C878.814 51.6276 879.113 51.3291 879.481 51.3291H883.808C884.177 51.3291 884.475 51.6276 884.475 51.9959V56.3231C884.475 56.6914 884.176 56.9899 883.808 56.9899Z" fill="#9BB9C3"/>
<path d="M883.808 78.2795H879.481C879.113 78.2795 878.814 77.981 878.814 77.6127V73.2854C878.814 72.9172 879.113 72.6187 879.481 72.6187H883.808C884.177 72.6187 884.475 72.9172 884.475 73.2854V77.6127C884.475 77.981 884.176 78.2795 883.808 78.2795Z" fill="#9BB9C3"/>
<path d="M919.898 78.2795H915.57C915.202 78.2795 914.904 77.981 914.904 77.6127V73.2854C914.904 72.9172 915.202 72.6187 915.57 72.6187H919.898C920.266 72.6187 920.564 72.9172 920.564 73.2854V77.6127C920.564 77.981 920.266 78.2795 919.898 78.2795Z" fill="#DC4955"/>
<path d="M932.444 43.0562H918.866C917.963 43.0562 917.09 43.3849 916.409 43.9815L913.386 46.6322C912.955 47.0101 912.28 46.7041 912.28 46.1309V25.2887C912.28 23.2186 913.952 21.5405 916.014 21.5405H932.444C934.506 21.5405 936.178 23.2186 936.178 25.2887V39.3081C936.178 41.3781 934.506 43.0562 932.444 43.0562Z" fill="#FFE17D"/>
<path d="M915.558 25.2887C915.558 23.2186 917.229 21.5405 919.292 21.5405H916.014C913.951 21.5405 912.28 23.2186 912.28 25.2887V46.131C912.28 46.7042 912.955 47.0102 913.386 46.6323L915.558 44.7283V25.2887Z" fill="#FFD164"/>
<path d="M927.978 38.4755C927.442 38.4755 927.007 38.0409 927.007 37.5046V28.6629H925.881C925.345 28.6629 924.91 28.2284 924.91 27.6921C924.91 27.1558 925.345 26.7212 925.881 26.7212H927.978C928.514 26.7212 928.949 27.1558 928.949 27.6921V37.5046C928.949 38.0409 928.514 38.4755 927.978 38.4755Z" fill="#F1F6F7"/>
<path d="M922.591 32.6941C923.252 32.0601 923.665 31.1692 923.665 30.1833C923.665 28.2635 922.103 26.7017 920.183 26.7017C918.523 26.7017 917.086 27.8825 916.767 29.5095C916.663 30.0356 917.006 30.546 917.532 30.6493C918.058 30.7524 918.569 30.4097 918.672 29.8838C918.813 29.1651 919.449 28.6434 920.183 28.6434C921.032 28.6434 921.723 29.3343 921.723 30.1833C921.723 31.0324 921.032 31.7233 920.183 31.7233C919.647 31.7233 919.212 32.1578 919.212 32.6941C919.212 33.2304 919.647 33.665 920.183 33.665C921.032 33.665 921.723 34.3557 921.723 35.2049C921.723 36.0541 921.032 36.7449 920.183 36.7449C919.419 36.7449 918.763 36.1758 918.658 35.4209C918.648 35.3502 918.643 35.2776 918.643 35.2048C918.643 34.6685 918.208 34.2339 917.672 34.2339C917.136 34.2339 916.701 34.6685 916.701 35.2048C916.701 35.367 916.713 35.53 916.735 35.6893C916.974 37.3979 918.456 38.6865 920.183 38.6865C922.103 38.6865 923.665 37.1247 923.665 35.2048C923.665 34.219 923.252 33.3282 922.591 32.6941Z" fill="#F1F6F7"/>
<defs>
<clipPath id="clip0_22_1932">
<rect width="66.2781" height="66.2781" fill="white" transform="translate(59.6504 21.5405)"/>
</clipPath>
</defs>
</svg>
