<svg width="522" height="74" viewBox="0 0 522 74" fill="none" xmlns="http://www.w3.org/2000/svg">
<path d="M13.7888 21.7793C15.1257 22.5262 16.1863 23.5494 16.9705 24.8564C17.7547 26.1634 18.1431 27.6423 18.1431 29.2854C18.1431 30.9285 17.7547 32.3998 16.9705 33.6994C16.1863 34.999 15.1257 36.0222 13.7888 36.7616C12.4519 37.501 10.9507 37.867 9.29264 37.867C7.63458 37.867 6.08108 37.4935 4.7367 36.7616C3.39233 36.0222 2.33177 34.999 1.55502 33.6994C0.778268 32.3998 0.389893 30.9285 0.389893 29.2854C0.389893 27.6423 0.778268 26.1634 1.55502 24.8489C2.33177 23.5344 3.39233 22.5112 4.7367 21.7718C6.08108 21.0324 7.6047 20.6664 9.29264 20.6664C10.9806 20.6664 12.4445 21.0399 13.7888 21.7868V21.7793ZM6.46199 24.5577C5.63295 25.0207 4.98317 25.6556 4.52011 26.4697C4.05705 27.2838 3.81805 28.2248 3.81805 29.2854C3.81805 30.3459 4.04958 31.2646 4.52011 32.0787C4.99064 32.8928 5.63295 33.5276 6.46199 33.9832C7.29102 34.4388 8.23208 34.6629 9.29264 34.6629C10.3532 34.6629 11.2196 34.4388 12.0486 33.9832C12.8776 33.5276 13.5274 32.8928 13.9905 32.0712C14.461 31.2497 14.6925 30.3235 14.6925 29.2854C14.6925 28.2472 14.461 27.2838 13.9905 26.4697C13.52 25.6556 12.8776 25.0133 12.0486 24.5577C11.2196 24.0946 10.3009 23.8631 9.29264 23.8631C8.23208 23.8631 7.28355 24.0946 6.46199 24.5577ZM9.77064 50.2128H6.1483V41.0038H9.77064V50.2128ZM29.1296 51.841H6.15577V48.8684H29.1296V51.841ZM25.8658 26.6265H15.6261V23.6913H25.8658V26.6265ZM25.8658 34.7973H15.6261V31.8621H25.8658V34.7973ZM28.2185 43.5955H24.6185V18.5752H28.2185V43.5955Z" fill="black"/>
<path d="M49.0114 29.1208C47.7343 31.5258 45.897 33.6095 43.507 35.3572C41.1095 37.1049 38.2564 38.4941 34.9329 39.5173L33.3943 36.6344C36.2623 35.7755 38.7195 34.6552 40.7585 33.2734C42.7974 31.8917 44.3659 30.3083 45.4489 28.5308C46.5393 26.7532 47.077 24.8487 47.077 22.8172V21.1293H50.9234C50.9234 24.0495 50.2886 26.7084 49.0114 29.1208ZM49.0114 24.1242H34.8358V21.1293H49.0114V24.1242ZM42.185 50.1005H38.5851V40.7347H42.185V50.1005ZM61.5589 51.8408H38.5851V48.8682H61.5589V51.8408ZM60.1399 43.2367H56.5026V18.5376H60.1399V43.2367ZM65.0842 31.6154H59.0345V28.6204H65.0842V31.6154Z" fill="black"/>
<path d="M107.529 41.3996H76.4443V38.5166H107.529V41.3996ZM83.8683 24.3559H100.016V19.9194H103.638V34.6851H80.3057V19.9194H83.8683V24.3559ZM100.023 31.7649V27.2313H83.8757V31.7649H100.023ZM93.6747 52.5056H90.1271V39.8461H93.6747V52.5056Z" fill="black"/>
<path d="M126.634 23.7136H115.11V34.7823H111.525V20.8082H126.634V23.7061V23.7136ZM123.124 32.8553C125.357 32.6985 127.553 32.4072 129.711 31.974L130.144 34.857C128.643 35.1706 127.142 35.4096 125.641 35.5665C124.14 35.7233 122.526 35.8354 120.794 35.8951C119.061 35.9549 116.873 35.9922 114.236 35.9922H111.525V33.057H114.236C117.926 33.0794 120.883 33.0196 123.116 32.8553H123.124ZM136.724 52.0724H115.02V39.4129H136.724V52.0724ZM118.56 49.1895H133.154V42.3108H118.56V49.1895ZM136.724 37.7548H133.139V18.5303H136.724V37.7548ZM141.669 29.6438H135.716V26.6488H141.669V29.6438Z" fill="black"/>
<path d="M174.673 35.6186H143.588V32.6834H174.673V35.6186ZM170.782 52.0872H147.352V39.9356H170.782V52.0872ZM169.437 23.2205H147.464V20.2853H169.437V23.2205ZM150.915 49.167H167.219V42.7588H150.915V49.167ZM170.535 28.2022C170.408 29.793 170.11 31.6154 169.647 33.6618L166.047 33.4901C166.398 32.071 166.652 30.7416 166.801 29.5017C166.95 28.2545 167.047 27.164 167.085 26.223C167.122 25.2819 167.145 24.169 167.145 22.877V20.2778H170.73V22.877C170.73 24.8338 170.67 26.6113 170.543 28.2022H170.535Z" fill="black"/>
<path d="M189.118 29.6436H206.311V33.2061H189.118V29.6436ZM189.118 37.9264H206.311V41.4741H189.118V37.9264Z" fill="black"/>
<path d="M286.353 51.2735C287.332 52.0203 288.094 53.066 288.654 54.4253C289.206 55.7771 289.483 57.3605 289.483 59.1605C289.483 60.9604 289.206 62.5588 288.654 63.9106C288.101 65.2624 287.332 66.3155 286.353 67.0549C285.375 67.7943 284.255 68.1678 283 68.1678C281.745 68.1678 280.617 67.8018 279.632 67.0624C278.646 66.323 277.876 65.2774 277.324 63.9181C276.771 62.5588 276.495 60.9754 276.495 59.1605C276.495 57.3456 276.771 55.7771 277.324 54.4253C277.876 53.0734 278.646 52.0203 279.632 51.2735C280.617 50.5266 281.745 50.1606 283 50.1606C284.255 50.1606 285.375 50.5341 286.353 51.2735ZM280.946 53.3946C280.349 53.9323 279.885 54.6867 279.564 55.68C279.243 56.6659 279.086 57.831 279.086 59.1679C279.086 60.5048 279.243 61.655 279.564 62.6484C279.885 63.6417 280.341 64.4035 280.946 64.9338C281.551 65.4641 282.231 65.7255 282.992 65.7255C283.754 65.7255 284.441 65.4641 285.039 64.9338C285.644 64.4035 286.099 63.6417 286.428 62.6484C286.749 61.655 286.914 60.4974 286.914 59.1679C286.914 57.8385 286.749 56.6734 286.421 55.68C286.092 54.6942 285.636 53.9323 285.046 53.3946C284.456 52.8568 283.777 52.5954 282.992 52.5954C282.208 52.5954 281.544 52.8643 280.946 53.3946ZM295.921 60.0717H288.624V57.8534H295.921V60.0717ZM297.437 73.9411H294.733V48.2188H297.437V73.9411Z" fill="black"/>
<path d="M324.758 61.0498H301.373V58.9063H324.758V61.0498ZM318.006 49.0251C319.373 49.3687 320.411 49.8691 321.135 50.5338C321.852 51.1985 322.218 51.9977 322.218 52.9313C322.218 53.8649 321.86 54.679 321.135 55.3362C320.418 55.9935 319.373 56.4939 318.006 56.8374C316.639 57.181 314.996 57.3602 313.069 57.3826C311.142 57.3602 309.492 57.181 308.125 56.8374C306.758 56.4939 305.705 55.9935 304.973 55.3362C304.241 54.679 303.875 53.8798 303.875 52.9313C303.875 51.9827 304.241 51.1985 304.973 50.5338C305.705 49.8691 306.751 49.3687 308.125 49.0251C309.499 48.6815 311.142 48.5098 313.069 48.5098C314.996 48.5098 316.639 48.6815 318.006 49.0251ZM321.793 69.2505H306.878V72.0961H304.204V67.2862H319.134V65.2696H304.166V63.2381H321.8V69.2505H321.793ZM322.539 73.6272H304.204V71.521H322.539V73.6272ZM309.596 50.84C308.655 51.0342 307.946 51.2956 307.46 51.6392C306.975 51.9827 306.728 52.4085 306.728 52.9238C306.728 53.4391 306.967 53.8873 307.445 54.2383C307.923 54.5893 308.633 54.8582 309.581 55.0375C310.522 55.2167 311.687 55.3213 313.077 55.3362C314.458 55.3138 315.623 55.2167 316.572 55.0375C317.513 54.8582 318.23 54.5893 318.708 54.2383C319.186 53.8873 319.432 53.4466 319.432 52.9238C319.432 52.401 319.186 51.9827 318.701 51.6392C318.215 51.2956 317.498 51.0267 316.557 50.84C315.616 50.6458 314.451 50.5562 313.077 50.5562C311.702 50.5562 310.545 50.6533 309.604 50.84H309.596ZM314.384 64.1717H311.68V60.3328H314.384V64.1717Z" fill="black"/>
<path d="M339.785 56.9873H330.71V61.4835H328.066V54.8886H337.096V51.9534H328.007V49.7949H339.785V56.9948V56.9873ZM336.812 59.9449C338.635 59.8404 340.502 59.6313 342.406 59.3176L342.72 61.5507C340.748 61.8569 338.821 62.0661 336.947 62.1706C335.072 62.2752 332.824 62.3349 330.195 62.3349H328.059V60.0868H330.195C332.779 60.0943 334.982 60.0495 336.805 59.9449H336.812ZM347.971 73.5605H331.129V64.7548H347.971V73.5605ZM333.802 71.3497H345.312V66.9432H333.802V71.3497ZM347.971 63.4702H345.267V48.2563H347.971V63.4702Z" fill="black"/>
<path d="M369.682 50.6688C370.69 51.2289 371.497 52.0057 372.087 52.9915C372.677 53.9774 372.976 55.0903 372.976 56.3301C372.976 57.5699 372.677 58.6827 372.087 59.6611C371.497 60.647 370.69 61.4163 369.682 61.969C368.674 62.5291 367.539 62.8055 366.291 62.8055C365.044 62.8055 363.864 62.5291 362.848 61.969C361.833 61.4088 361.033 60.6395 360.443 59.6611C359.853 58.6753 359.562 57.5699 359.562 56.3301C359.562 55.0903 359.853 53.9699 360.443 52.9841C361.033 51.9907 361.833 51.214 362.848 50.6613C363.864 50.1011 365.014 49.8248 366.291 49.8248C367.569 49.8248 368.674 50.1086 369.682 50.6688ZM364.155 52.7675C363.528 53.1185 363.042 53.5965 362.691 54.2164C362.34 54.8288 362.161 55.5384 362.161 56.345C362.161 57.1516 362.34 57.8387 362.691 58.4587C363.042 59.0711 363.535 59.5566 364.155 59.9001C364.775 60.2437 365.492 60.4155 366.299 60.4155C367.105 60.4155 367.755 60.2437 368.383 59.9001C369.01 59.5566 369.495 59.0786 369.846 58.4512C370.198 57.8313 370.377 57.1292 370.377 56.345C370.377 55.5608 370.198 54.8363 369.846 54.2164C369.495 53.604 369.003 53.1185 368.383 52.7675C367.763 52.4164 367.061 52.2447 366.299 52.2447C365.5 52.2447 364.783 52.4164 364.155 52.7675ZM366.65 72.1414H363.916V65.188H366.65V72.1414ZM381.266 73.3737H363.924V71.1257H381.266V73.3737ZM378.802 54.3359H371.071V52.1177H378.802V54.3359ZM378.802 60.5051H371.071V58.2869H378.802V60.5051ZM380.579 67.1448H377.86V48.2563H380.579V67.1448Z" fill="black"/>
<path d="M396.278 56.2176C395.315 58.0325 393.926 59.6084 392.118 60.9229C390.311 62.2449 388.152 63.2905 385.643 64.0673L384.485 61.8939C386.651 61.2441 388.504 60.4001 390.05 59.3545C391.588 58.3089 392.768 57.1139 393.59 55.777C394.411 54.4401 394.822 52.9986 394.822 51.46V50.1829H397.727C397.727 52.3862 397.242 54.3953 396.278 56.2176ZM396.278 52.4459H385.576V50.1829H396.278V52.4459ZM391.125 72.0514H388.406V64.9785H391.125V72.0514ZM405.749 73.3734H388.406V71.1253H405.749V73.3734ZM404.681 66.8755H401.932V48.2261H404.681V66.8755ZM408.415 58.0998H403.852V55.8367H408.415V58.0998Z" fill="black"/>
<path d="M427.834 67.1295H417.885V51.1165H427.834V67.1295ZM420.432 64.971H425.287V53.275H420.432V64.971ZM433.316 72.6115H430.739V48.7115H433.316V72.6115ZM437.409 60.5047H432.614V58.2865H437.409V60.5047ZM439.082 73.8738H436.46V48.2261H439.082V73.8738Z" fill="black"/>
<path d="M465.701 61.5355H442.383V59.489H465.701V61.5355ZM453.549 55.1795C452.645 56.1281 451.39 56.8675 449.8 57.4127C448.209 57.9579 446.364 58.309 444.273 58.4733L443.511 56.4268C445.296 56.3223 446.872 56.0683 448.231 55.6575C449.598 55.2542 450.651 54.724 451.39 54.0667C452.13 53.4095 452.511 52.6775 452.511 51.856V51.4228H454.901V51.856C454.901 53.1256 454.445 54.231 453.541 55.1795H453.549ZM463.4 52.4759H444.706V50.3996H463.4V52.4759ZM462.773 69.4523H447.858V72.3726H445.184V67.5627H460.114V65.6731H445.147V63.6715H462.78V69.4523H462.773ZM463.512 73.6274H445.176V71.5809H463.512V73.6274ZM455.356 51.2286H452.682V48.1216H455.356V51.2286ZM455.356 64.9113H452.697V61.0649H455.356V64.9113ZM456.641 54.0742C457.388 54.7314 458.441 55.2542 459.808 55.665C461.174 56.0683 462.75 56.3223 464.535 56.4343L463.736 58.4807C461.667 58.3164 459.838 57.9654 458.247 57.4202C456.656 56.875 455.409 56.1355 454.497 55.187C453.586 54.246 453.131 53.1331 453.131 51.8634V51.4302H455.521V51.8634C455.521 52.685 455.894 53.4244 456.641 54.0742Z" fill="black"/>
<path d="M315.758 22.5258H292.284V20.2777H315.758V22.5258ZM312.823 4.19001H297.938V12.8463H295.204V2.0166H312.823V4.19001ZM313.069 14.0413H295.204V11.8529H313.069V14.0413ZM305.294 21.1142H302.635V12.8239H305.294V21.1142Z" fill="black"/>
<path d="M341.092 12.5546H317.618V10.3513H341.092V12.5546ZM337.141 3.34566H320.553V1.12744H337.141V3.34566ZM323.286 17.835H335.378V14.6608H338.082V25.3411H320.59V14.6608H323.279V17.835H323.286ZM335.378 23.1304V19.9562H323.286V23.1304H335.378ZM337.977 6.9456C337.888 8.09578 337.664 9.42522 337.313 10.9339L334.624 11.031C334.863 9.96297 335.042 8.96216 335.154 8.03603C335.266 7.10244 335.341 6.28835 335.371 5.57135C335.401 4.86182 335.416 4.02532 335.416 3.06185V1.12744H338.119V3.06185C338.119 4.50332 338.075 5.79541 337.985 6.9456H337.977Z" fill="black"/>
<path d="M360.227 9.83634C359.577 11.8828 358.546 13.7798 357.127 15.5275C355.708 17.2752 353.864 18.8212 351.578 20.1806L349.95 18.2312C351.937 17.0586 353.565 15.7367 354.835 14.2578C356.112 12.7865 357.045 11.1732 357.658 9.41809C358.263 7.6704 358.569 5.76587 358.569 3.71197V3.19662H361.205C361.205 5.57169 360.884 7.78244 360.234 9.82887L360.227 9.83634ZM359.562 5.42231H351.22V3.20409H359.562V5.42231ZM365.679 15.6694H359.951V13.4512H365.679V15.6694ZM365.716 9.26125H360.122V7.02809H365.716V9.26125ZM366.904 24.4153H364.312V0.65725H366.904V24.4153ZM372.147 25.6477H369.57V0H372.147V25.6477Z" fill="black"/>
<path d="M386.151 2.2705C387.189 2.79331 388.003 3.51778 388.601 4.44391C389.198 5.3775 389.497 6.43059 389.497 7.61065C389.497 8.79072 389.198 9.85128 388.601 10.7849C388.003 11.7185 387.189 12.4504 386.151 12.9732C385.113 13.496 383.948 13.7574 382.648 13.7574C381.349 13.7574 380.168 13.496 379.138 12.9732C378.107 12.4504 377.293 11.7185 376.703 10.7849C376.113 9.85128 375.814 8.79072 375.814 7.61065C375.814 6.43059 376.113 5.37003 376.703 4.45137C377.293 3.53272 378.107 2.80078 379.145 2.27797C380.183 1.75516 381.349 1.50122 382.648 1.51616C383.948 1.49375 385.113 1.74769 386.151 2.2705ZM380.512 4.29453C379.877 4.60822 379.384 5.04887 379.026 5.6165C378.667 6.18412 378.488 6.84884 378.488 7.61065C378.488 8.37247 378.667 9.04465 379.026 9.61975C379.384 10.1948 379.877 10.643 380.512 10.9567C381.147 11.2703 381.856 11.4272 382.656 11.4272C383.455 11.4272 384.164 11.2703 384.799 10.9567C385.434 10.643 385.934 10.1948 386.293 9.61975C386.651 9.04465 386.831 8.37247 386.831 7.61065C386.831 6.84884 386.651 6.18412 386.293 5.6165C385.934 5.04887 385.441 4.60822 384.807 4.29453C384.172 3.98084 383.455 3.824 382.656 3.824C381.856 3.824 381.147 3.98084 380.512 4.29453ZM395.591 25.6477H392.888V18.5748H378.645V16.3416H395.591V25.6477ZM395.591 15.2138H392.888V0H395.591V15.2138ZM399.236 5.99741H394.77V3.79412H399.236V5.99741ZM399.236 11.5467H394.77V9.25378H399.236V11.5467Z" fill="black"/>
<path d="M424.242 12.8985H400.767V10.6803H424.242V12.8985ZM421.306 25.334H403.62V16.1623H421.306V25.334ZM420.291 3.53267H403.703V1.31445H420.291V3.53267ZM406.309 23.1307H418.618V18.2909H406.309V23.1307ZM421.12 7.29692C421.023 8.49939 420.799 9.87364 420.447 11.4197L417.729 11.2927C417.998 10.2247 418.184 9.21639 418.304 8.2828C418.423 7.3492 418.491 6.52017 418.521 5.80317C418.55 5.09364 418.565 4.24967 418.565 3.27873V1.31445H421.269V3.27873C421.269 4.75755 421.224 6.09445 421.127 7.29692H421.12Z" fill="black"/>
<path d="M435.221 2.3675C436.117 2.89032 436.819 3.61478 437.334 4.54091C437.85 5.46703 438.104 6.53507 438.104 7.7226C438.104 8.91013 437.85 9.95575 437.334 10.8744C436.826 11.7931 436.117 12.5026 435.221 13.0179C434.324 13.5333 433.316 13.7947 432.203 13.7947C431.09 13.7947 430.052 13.5333 429.163 13.0179C428.275 12.5026 427.58 11.7856 427.08 10.8744C426.587 9.95575 426.333 8.91013 426.333 7.7226C426.333 6.53507 426.579 5.46703 427.087 4.54091C427.595 3.61478 428.282 2.88285 429.171 2.3675C430.06 1.84469 431.068 1.59075 432.203 1.59075C433.338 1.59075 434.324 1.85216 435.221 2.3675ZM430.441 4.41394C429.918 4.7351 429.507 5.17575 429.216 5.74338C428.924 6.311 428.783 6.97572 428.783 7.7226C428.783 8.46947 428.932 9.10432 429.216 9.67941C429.507 10.262 429.918 10.7176 430.441 11.0387C430.963 11.3599 431.553 11.5242 432.203 11.5242C432.853 11.5242 433.451 11.3599 433.973 11.0387C434.496 10.7176 434.899 10.262 435.191 9.67941C435.482 9.09685 435.624 8.44707 435.624 7.7226C435.624 6.99813 435.475 6.30353 435.191 5.72844C434.899 5.15335 434.496 4.70522 433.981 4.399C433.465 4.08532 432.875 3.93594 432.203 3.93594C431.531 3.93594 430.971 4.09278 430.441 4.41394ZM447.97 25.6476H445.296V18.8212H430.538V16.6478H447.97V25.6476ZM442.42 15.154H439.874V0.500316H442.42V15.154ZM446.17 8.71594H441.502V6.51266H446.17V8.71594ZM447.97 15.3108H445.378V0.0297852H447.97V15.3183V15.3108Z" fill="black"/>
<path d="M522 36.582H219.837V37.1422H522V36.582Z" fill="black"/>
</svg>
