<svg width="793" height="83" viewBox="0 0 793 83" fill="none" xmlns="http://www.w3.org/2000/svg">
<rect width="793" height="83" rx="41.5" fill="#01A69F"/>
<path d="M96.1995 39.1778L95.2439 40.8L92.7106 39.3111L92.755 42.1111H90.9106L90.9328 39.2889L88.3995 40.8L87.4661 39.1778L89.9773 37.8222L87.4661 36.4222L88.3995 34.8222L90.9328 36.3333L90.9106 33.5111H92.755L92.7106 36.3333L95.2439 34.8222L96.1995 36.4222L93.6884 37.8222L96.1995 39.1778ZM112.216 39.5778V42.9333H109.416V33.6889H112.216V36.7333H114.238V39.5778H112.216ZM107.061 36.1333C107.061 38.3704 106.201 40.0222 104.483 41.0889C102.779 42.1407 100.446 42.6667 97.4829 42.6667V40.1556C99.557 40.1259 101.194 39.8222 102.394 39.2444C103.594 38.6519 104.194 37.8148 104.194 36.7333V36.4222H97.4829V33.9556H107.061V36.1333ZM112.216 43.6444V50.6889H98.1051V43.6444H112.216ZM109.416 48.2444V46.0889H100.927V48.2444H109.416ZM125.614 42.0444V39.4444H127.614V37.7333H125.614V35.1333H127.614V33.6889H130.369V46.3556H127.614V42.0444H125.614ZM115.281 43.5111V33.9556H124.769V43.5111H115.281ZM118.036 36.4444V41H122.014V36.4444H118.036ZM130.636 50.6889H116.058V44.8444H118.925V48.0444H130.636V50.6889ZM132.234 37.3111V34.9778H136.323V33.3778H139.189V34.9778H143.3V37.3111H132.234ZM149.434 40.7333H147.412V46.4444H144.612V33.6889H147.412V37.8667H149.434V40.7333ZM137.767 44.9556C136.345 44.9556 135.167 44.6444 134.234 44.0222C133.3 43.4 132.834 42.5407 132.834 41.4444C132.834 40.3481 133.3 39.4889 134.234 38.8667C135.167 38.2444 136.345 37.9333 137.767 37.9333C139.175 37.9333 140.345 38.2444 141.278 38.8667C142.226 39.4889 142.7 40.3481 142.7 41.4444C142.7 42.5407 142.226 43.4 141.278 44.0222C140.345 44.6444 139.175 44.9556 137.767 44.9556ZM137.767 40.0889C137.086 40.0889 136.537 40.2222 136.123 40.4889C135.723 40.7407 135.523 41.0593 135.523 41.4444C135.523 41.8444 135.723 42.1704 136.123 42.4222C136.537 42.6741 137.086 42.8 137.767 42.8C138.434 42.8 138.975 42.6741 139.389 42.4222C139.804 42.1704 140.012 41.8444 140.012 41.4444C140.012 41.0593 139.804 40.7407 139.389 40.4889C138.975 40.2222 138.434 40.0889 137.767 40.0889ZM147.723 48.1111V50.6889H133.3V45.6222H136.167V48.1111H147.723ZM166.298 50.0889H149.943V47.3556H156.698V44.1333H150.876V34.1556H165.343V36.8889H153.743V41.4H165.52V44.1333H159.543V47.3556H166.298V50.0889ZM173.69 38.6889C173.35 38.6889 173.061 38.5778 172.824 38.3556C172.601 38.1185 172.49 37.8222 172.49 37.4667C172.49 37.1259 172.601 36.8444 172.824 36.6222C173.061 36.3852 173.35 36.2667 173.69 36.2667C174.031 36.2667 174.313 36.3852 174.535 36.6222C174.772 36.8444 174.89 37.1259 174.89 37.4667C174.89 37.8222 174.772 38.1185 174.535 38.3556C174.313 38.5778 174.031 38.6889 173.69 38.6889ZM173.69 48.1556C173.35 48.1556 173.061 48.0444 172.824 47.8222C172.601 47.5852 172.49 47.2963 172.49 46.9556C172.49 46.6 172.601 46.3111 172.824 46.0889C173.061 45.8667 173.35 45.7556 173.69 45.7556C174.031 45.7556 174.313 45.8667 174.535 46.0889C174.772 46.3111 174.89 46.6 174.89 46.9556C174.89 47.2963 174.772 47.5852 174.535 47.8222C174.313 48.0444 174.031 48.1556 173.69 48.1556ZM197.342 49.8889H181.164V48.3333H188.409V43.9111H182.298V34.3556H196.231V35.9111H183.898V42.3556H196.409V43.9111H190.031V48.3333H197.342V49.8889ZM199.917 35.3778V33.9333H213.717V39.4444H212.095V35.3778H199.917ZM214.94 41.9556H198.762V40.5111H214.94V41.9556ZM213.762 43.3556V50.5111H199.94V43.3556H201.517V45.4889H212.184V43.3556H213.762ZM212.184 46.8H201.517V49.1778H212.184V46.8ZM236.265 50.7556H234.732V33.6889H236.265V50.7556ZM232.31 33.7778V50.4667H230.799V45.0444H226.754C226.191 46.4963 225.428 47.6296 224.465 48.4444C223.517 49.2444 222.421 49.6444 221.176 49.6444V48.0667C222.199 48.0519 223.087 47.6593 223.843 46.8889C224.613 46.1185 225.199 45.0519 225.599 43.6889C226.013 42.3111 226.221 40.7259 226.221 38.9333V35.8889H221.176V34.3556H227.799V38.0889H230.799V33.7778H232.31ZM230.799 39.6667H227.776C227.702 41.0593 227.524 42.3333 227.243 43.4889H230.799V39.6667ZM252.952 40H255.307V41.4667H252.952V43.8889H251.352V33.6889H252.952V35.7556H255.307V37.2444H252.952V40ZM243.418 43.3111C242.411 43.3111 241.53 43.1111 240.774 42.7111C240.018 42.2963 239.433 41.7333 239.018 41.0222C238.618 40.2963 238.418 39.4889 238.418 38.6C238.418 37.7111 238.618 36.9111 239.018 36.2C239.433 35.4741 240.018 34.9111 240.774 34.5111C241.53 34.0963 242.411 33.8889 243.418 33.8889C244.426 33.8889 245.3 34.0963 246.041 34.5111C246.796 34.9111 247.374 35.4667 247.774 36.1778C248.189 36.8889 248.396 37.6963 248.396 38.6C248.396 39.5037 248.189 40.3111 247.774 41.0222C247.374 41.7333 246.796 42.2963 246.041 42.7111C245.3 43.1111 244.426 43.3111 243.418 43.3111ZM243.418 35.3111C242.411 35.3111 241.596 35.6074 240.974 36.2C240.352 36.7926 240.041 37.5926 240.041 38.6C240.041 39.6074 240.352 40.4074 240.974 41C241.596 41.5926 242.411 41.8889 243.418 41.8889C244.426 41.8889 245.241 41.5926 245.863 41C246.485 40.3926 246.796 39.5926 246.796 38.6C246.796 37.6074 246.485 36.8148 245.863 36.2222C245.241 35.6148 244.426 35.3111 243.418 35.3111ZM252.952 44.8889V50.7111H251.33V46.3778H239.552V44.8889H252.952ZM273.677 39.6667V35.3778H261.477V33.9333H275.299V39.6667H273.677ZM260.344 42.2V40.7778H276.522V42.2H260.344ZM261.522 50.5111V44.1111H275.344V50.5111H261.522ZM273.766 45.5111H263.122V49.1111H273.766V45.5111ZM292.542 40H294.897V41.4667H292.542V43.8889H290.942V33.6889H292.542V35.7556H294.897V37.2444H292.542V40ZM283.008 43.3111C282.001 43.3111 281.119 43.1111 280.364 42.7111C279.608 42.2963 279.023 41.7333 278.608 41.0222C278.208 40.2963 278.008 39.4889 278.008 38.6C278.008 37.7111 278.208 36.9111 278.608 36.2C279.023 35.4741 279.608 34.9111 280.364 34.5111C281.119 34.0963 282.001 33.8889 283.008 33.8889C284.016 33.8889 284.89 34.0963 285.63 34.5111C286.386 34.9111 286.964 35.4667 287.364 36.1778C287.779 36.8889 287.986 37.6963 287.986 38.6C287.986 39.5037 287.779 40.3111 287.364 41.0222C286.964 41.7333 286.386 42.2963 285.63 42.7111C284.89 43.1111 284.016 43.3111 283.008 43.3111ZM283.008 35.3111C282.001 35.3111 281.186 35.6074 280.564 36.2C279.942 36.7926 279.63 37.5926 279.63 38.6C279.63 39.6074 279.942 40.4074 280.564 41C281.186 41.5926 282.001 41.8889 283.008 41.8889C284.016 41.8889 284.83 41.5926 285.453 41C286.075 40.3926 286.386 39.5926 286.386 38.6C286.386 37.6074 286.075 36.8148 285.453 36.2222C284.83 35.6148 284.016 35.3111 283.008 35.3111ZM292.542 44.8889V50.7111H290.919V46.3778H279.142V44.8889H292.542ZM309.05 50.7556V33.6889H310.628V50.7556H309.05ZM301.117 34.0889C302.065 34.0889 302.917 34.3185 303.673 34.7778C304.428 35.2222 305.013 35.8519 305.428 36.6667C305.858 37.4815 306.073 38.4074 306.073 39.4444C306.073 40.4667 305.858 41.3852 305.428 42.2C304.998 43.0148 304.406 43.6519 303.65 44.1111C302.91 44.5556 302.065 44.7778 301.117 44.7778C300.154 44.7778 299.295 44.5556 298.539 44.1111C297.784 43.6519 297.191 43.0222 296.761 42.2222C296.332 41.4074 296.117 40.4815 296.117 39.4444C296.117 38.4074 296.332 37.4815 296.761 36.6667C297.191 35.8519 297.784 35.2222 298.539 34.7778C299.295 34.3185 300.154 34.0889 301.117 34.0889ZM301.117 35.6222C300.095 35.6222 299.265 35.9852 298.628 36.7111C298.006 37.4222 297.695 38.3333 297.695 39.4444C297.695 40.5407 298.006 41.4519 298.628 42.1778C299.265 42.8889 300.095 43.2444 301.117 43.2444C302.124 43.2444 302.939 42.8889 303.561 42.1778C304.198 41.4519 304.517 40.5407 304.517 39.4444C304.517 38.3481 304.198 37.437 303.561 36.7111C302.939 35.9852 302.124 35.6222 301.117 35.6222ZM307.584 48.8667C307.05 49.1333 306.287 49.3407 305.295 49.4889C304.302 49.6222 303.176 49.6889 301.917 49.6889H295.539V48.1111H302.028C303.243 48.1111 304.332 48.0444 305.295 47.9111C306.273 47.763 307.036 47.5556 307.584 47.2889V48.8667ZM323.198 41.6444C322.576 42.5185 321.798 43.2222 320.865 43.7556C319.931 44.2741 318.894 44.563 317.754 44.6222V41.9778C318.776 41.8741 319.628 41.4593 320.309 40.7333C320.991 40.0074 321.428 39.0963 321.62 38H318.087V35.3333H321.687V33.4667H324.531V35.3333H328.131V38H324.509C324.465 38.5333 324.383 38.9778 324.265 39.3333L328.865 42.4444L327.331 44.6L323.198 41.6444ZM332.998 50.7556H330.198V33.6889H332.998V50.7556ZM324.598 47.1778C325.517 47.1778 326.376 47.1259 327.176 47.0222C327.991 46.9037 328.65 46.7259 329.154 46.4889V49.2C328.146 49.6593 326.62 49.8889 324.576 49.8889H317.443V47.1778H321.62V44.3111H324.398V47.1778H324.598ZM351.018 50.7556H348.396V42.9333H346.64V50.4667H344.04V33.7556H346.64V40.1333H348.396V33.6889H351.018V50.7556ZM339.374 47.2889C340.055 47.2889 340.736 47.237 341.418 47.1333C342.099 47.0296 342.677 46.8815 343.151 46.6889V49.2444C342.677 49.4519 342.07 49.6148 341.329 49.7333C340.588 49.837 339.848 49.8889 339.107 49.8889H335.396V34.1556H342.462V36.7556H338.085V47.2889H339.374ZM362.521 40.4222C364.729 40.4222 366.351 40.8519 367.388 41.7111C368.44 42.5704 368.966 43.7333 368.966 45.2C368.966 46.1333 368.736 46.9852 368.277 47.7556C367.818 48.5111 367.114 49.1185 366.166 49.5778C365.232 50.0222 364.077 50.2444 362.699 50.2444C361.603 50.2444 360.529 50.0889 359.477 49.7778C358.44 49.4667 357.566 49.037 356.855 48.4889L358.099 46.1111C358.677 46.5704 359.358 46.9333 360.143 47.2C360.943 47.4667 361.766 47.6 362.61 47.6C363.618 47.6 364.395 47.3926 364.943 46.9778C365.506 46.563 365.788 46 365.788 45.2889C365.788 44.5185 365.492 43.9407 364.899 43.5556C364.306 43.1556 363.277 42.9556 361.81 42.9556H357.988L358.788 34.4444H368.032V36.9556H361.388L361.077 40.4222H362.521ZM376.417 50.2444C375.157 50.2444 374.031 49.9259 373.039 49.2889C372.046 48.6519 371.269 47.7333 370.706 46.5333C370.143 45.3185 369.861 43.8815 369.861 42.2222C369.861 40.563 370.143 39.1333 370.706 37.9333C371.269 36.7185 372.046 35.7926 373.039 35.1556C374.031 34.5185 375.157 34.2 376.417 34.2C377.691 34.2 378.824 34.5185 379.817 35.1556C380.809 35.7926 381.58 36.7185 382.128 37.9333C382.691 39.1333 382.972 40.563 382.972 42.2222C382.972 43.8815 382.691 45.3185 382.128 46.5333C381.58 47.7333 380.809 48.6519 379.817 49.2889C378.824 49.9259 377.691 50.2444 376.417 50.2444ZM376.417 47.5778C377.469 47.5778 378.298 47.1333 378.906 46.2444C379.528 45.3407 379.839 44 379.839 42.2222C379.839 40.4444 379.528 39.1111 378.906 38.2222C378.298 37.3185 377.469 36.8667 376.417 36.8667C375.38 36.8667 374.55 37.3185 373.928 38.2222C373.32 39.1111 373.017 40.4444 373.017 42.2222C373.017 44 373.32 45.3407 373.928 46.2444C374.55 47.1333 375.38 47.5778 376.417 47.5778ZM387.557 43.2C386.742 43.2 386.016 43.0074 385.379 42.6222C384.757 42.237 384.268 41.6963 383.912 41C383.557 40.2889 383.379 39.4741 383.379 38.5556C383.379 37.6222 383.557 36.8074 383.912 36.1111C384.268 35.4 384.757 34.8519 385.379 34.4667C386.016 34.0815 386.742 33.8889 387.557 33.8889C388.357 33.8889 389.068 34.0815 389.69 34.4667C390.327 34.8519 390.816 35.4 391.157 36.1111C391.512 36.8074 391.69 37.6222 391.69 38.5556C391.69 39.4889 391.512 40.3111 391.157 41.0222C390.816 41.7185 390.327 42.2593 389.69 42.6444C389.068 43.0148 388.357 43.2 387.557 43.2ZM400.29 34.0667L389.134 50.3778H385.868L397.023 34.0667H400.29ZM387.557 40.8222C388.001 40.8222 388.349 40.637 388.601 40.2667C388.853 39.8815 388.979 39.3111 388.979 38.5556C388.979 37.8 388.853 37.237 388.601 36.8667C388.349 36.4815 388.001 36.2889 387.557 36.2889C387.127 36.2889 386.779 36.4815 386.512 36.8667C386.26 37.2519 386.134 37.8148 386.134 38.5556C386.134 39.2963 386.26 39.8593 386.512 40.2444C386.779 40.6296 387.127 40.8222 387.557 40.8222ZM398.601 50.5333C397.801 50.5333 397.082 50.3407 396.445 49.9556C395.823 49.5704 395.334 49.0296 394.979 48.3333C394.623 47.6222 394.445 46.8074 394.445 45.8889C394.445 44.9704 394.623 44.1556 394.979 43.4444C395.334 42.7333 395.823 42.1852 396.445 41.8C397.082 41.4148 397.801 41.2222 398.601 41.2222C399.401 41.2222 400.119 41.4148 400.757 41.8C401.394 42.1852 401.89 42.7333 402.245 43.4444C402.601 44.1556 402.779 44.9704 402.779 45.8889C402.779 46.8074 402.601 47.6222 402.245 48.3333C401.89 49.0296 401.394 49.5704 400.757 49.9556C400.119 50.3407 399.401 50.5333 398.601 50.5333ZM398.601 48.1556C399.045 48.1556 399.394 47.9704 399.645 47.6C399.897 47.2148 400.023 46.6444 400.023 45.8889C400.023 45.1333 399.897 44.5704 399.645 44.2C399.394 43.8148 399.045 43.6222 398.601 43.6222C398.157 43.6222 397.808 43.8148 397.557 44.2C397.305 44.5704 397.179 45.1333 397.179 45.8889C397.179 46.6444 397.305 47.2148 397.557 47.6C397.808 47.9704 398.157 48.1556 398.601 48.1556ZM408.843 36.1111V34.8H415.42V33H417.043V34.8H423.687V36.1111H408.843ZM424.354 44.8667H408.176V43.5333H415.465V42.0667C413.613 42.0074 412.154 41.7704 411.087 41.3556C410.035 40.9407 409.509 40.3407 409.509 39.5556C409.509 38.7259 410.117 38.1037 411.332 37.6889C412.546 37.2741 414.191 37.0667 416.265 37.0667C418.339 37.0667 419.976 37.2741 421.176 37.6889C422.391 38.1037 422.998 38.7259 422.998 39.5556C422.998 40.3407 422.465 40.9407 421.398 41.3556C420.346 41.7704 418.902 42.0074 417.065 42.0667V43.5333H424.354V44.8667ZM411.132 39.5778C411.132 40.0074 411.606 40.3333 412.554 40.5556C413.502 40.7778 414.739 40.8889 416.265 40.8889C417.791 40.8889 419.028 40.7778 419.976 40.5556C420.924 40.3333 421.398 40.0074 421.398 39.5778C421.398 39.1481 420.924 38.8222 419.976 38.6C419.028 38.3778 417.791 38.2667 416.265 38.2667C414.739 38.2667 413.502 38.3778 412.554 38.6C411.606 38.8222 411.132 39.1481 411.132 39.5778ZM423.176 46.4444V50.7333H421.576V47.8H409.198V46.4444H423.176ZM433.862 33.6C435.181 33.6 436.381 33.7407 437.463 34.0222C438.544 34.3037 439.403 34.7259 440.04 35.2889C440.677 35.837 440.996 36.5111 440.996 37.3111C440.996 38.1111 440.677 38.7926 440.04 39.3556C439.403 39.9037 438.544 40.3185 437.463 40.6C436.381 40.8667 435.181 41 433.862 41C431.803 41 430.092 40.6815 428.729 40.0444C427.381 39.4074 426.707 38.4963 426.707 37.3111C426.707 36.5111 427.025 35.837 427.663 35.2889C428.3 34.7259 429.159 34.3037 430.24 34.0222C431.337 33.7407 432.544 33.6 433.862 33.6ZM433.862 35C432.337 35 431.04 35.2074 429.974 35.6222C428.922 36.037 428.396 36.6 428.396 37.3111C428.396 38.0222 428.922 38.5852 429.974 39C431.025 39.4 432.322 39.6 433.862 39.6C435.388 39.6 436.677 39.4 437.729 39C438.781 38.5852 439.307 38.0222 439.307 37.3111C439.307 36.6 438.781 36.037 437.729 35.6222C436.677 35.2074 435.388 35 433.862 35ZM425.774 44.1111V42.6667H441.951V44.1111H425.774ZM441.085 49.0444V50.5111H426.951V45.6889H428.574V49.0444H441.085ZM464.766 39.3111H462.744V43.0889H459.944V33.6889H462.744V36.5111H464.766V39.3111ZM453.432 39.8667C452.795 40.7407 451.995 41.4519 451.032 42C450.084 42.5481 449.032 42.8519 447.877 42.9111V40.3111C448.973 40.2222 449.884 39.8074 450.61 39.0667C451.336 38.3259 451.766 37.4444 451.899 36.4222H448.099V33.9556H458.455V36.4222H454.744C454.729 36.7185 454.662 37.1333 454.544 37.6667L458.988 40.3778L457.655 42.5556L453.432 39.8667ZM455.721 43.4444C457.914 43.4444 459.662 43.7407 460.966 44.3333C462.27 44.9259 462.921 45.8667 462.921 47.1556C462.921 48.4593 462.27 49.4074 460.966 50C459.662 50.5926 457.914 50.8889 455.721 50.8889C453.544 50.8889 451.795 50.5926 450.477 50C449.173 49.4074 448.521 48.4593 448.521 47.1556C448.521 45.8667 449.173 44.9259 450.477 44.3333C451.795 43.7407 453.544 43.4444 455.721 43.4444ZM455.721 48.5333C456.966 48.5333 457.973 48.4222 458.744 48.2C459.514 47.963 459.899 47.6148 459.899 47.1556C459.899 46.6963 459.514 46.3556 458.744 46.1333C457.973 45.9111 456.966 45.8 455.721 45.8C454.477 45.8 453.47 45.9111 452.699 46.1333C451.929 46.3556 451.544 46.6963 451.544 47.1556C451.544 47.6148 451.929 47.963 452.699 48.2C453.47 48.4222 454.477 48.5333 455.721 48.5333ZM481.252 50.7556H478.63V42.9333H476.875V50.4667H474.275V33.7556H476.875V40.1333H478.63V33.6889H481.252V50.7556ZM469.252 33.9556C470.556 33.9556 471.534 34.6 472.186 35.8889C472.838 37.1778 473.163 39.2222 473.163 42.0222C473.163 44.837 472.838 46.8889 472.186 48.1778C471.534 49.4519 470.556 50.0889 469.252 50.0889C467.949 50.0889 466.971 49.4519 466.319 48.1778C465.667 46.8889 465.341 44.837 465.341 42.0222C465.341 39.2222 465.667 37.1778 466.319 35.8889C466.971 34.6 467.949 33.9556 469.252 33.9556ZM469.252 47.4222C469.697 47.4222 470.023 46.9926 470.23 46.1333C470.438 45.2593 470.541 43.8889 470.541 42.0222C470.541 40.1556 470.438 38.7926 470.23 37.9333C470.023 37.0593 469.697 36.6222 469.252 36.6222C468.793 36.6222 468.46 37.0593 468.252 37.9333C468.045 38.7926 467.941 40.1556 467.941 42.0222C467.941 43.8889 468.045 45.2593 468.252 46.1333C468.46 46.9926 468.793 47.4222 469.252 47.4222ZM495.583 46.3333V33.6889H498.406V46.3333H495.583ZM488.161 33.7556C489.213 33.7556 490.131 33.9704 490.917 34.4C491.717 34.8148 492.331 35.4074 492.761 36.1778C493.206 36.9481 493.428 37.8296 493.428 38.8222C493.428 39.8296 493.206 40.7185 492.761 41.4889C492.331 42.2444 491.717 42.837 490.917 43.2667C490.131 43.6815 489.213 43.8889 488.161 43.8889C487.109 43.8889 486.183 43.6815 485.383 43.2667C484.583 42.837 483.961 42.2444 483.517 41.4889C483.087 40.7185 482.872 39.8296 482.872 38.8222C482.872 37.8296 483.087 36.9481 483.517 36.1778C483.961 35.4074 484.583 34.8148 485.383 34.4C486.183 33.9704 487.109 33.7556 488.161 33.7556ZM488.161 36.2222C487.42 36.2222 486.82 36.4519 486.361 36.9111C485.917 37.3704 485.694 38.0074 485.694 38.8222C485.694 39.637 485.917 40.2741 486.361 40.7333C486.82 41.1926 487.42 41.4222 488.161 41.4222C488.902 41.4222 489.502 41.1926 489.961 40.7333C490.42 40.2593 490.65 39.6222 490.65 38.8222C490.65 38.0222 490.42 37.3926 489.961 36.9333C489.502 36.4593 488.902 36.2222 488.161 36.2222ZM498.694 48.0444V50.6889H484.294V44.8222H487.161V48.0444H498.694ZM505.753 36.8889V34.1556H520.264V45.4H517.331V36.8889H505.753ZM521.22 50.0889H504.864V47.3333H510.376V40.3778H513.287V47.3333H521.22V50.0889ZM538.818 43.5778H522.462V41.2889H525.64V39.5333C524.084 38.9556 523.307 38.0667 523.307 36.8667C523.307 35.7111 523.973 34.8519 525.307 34.2889C526.64 33.7259 528.418 33.4444 530.64 33.4444C532.847 33.4444 534.618 33.7259 535.951 34.2889C537.299 34.8519 537.973 35.7111 537.973 36.8667C537.973 38.0667 537.195 38.9556 535.64 39.5333V41.2889H538.818V43.5778ZM530.64 35.6889C529.307 35.6889 528.247 35.7852 527.462 35.9778C526.677 36.1704 526.284 36.4667 526.284 36.8667C526.284 37.2667 526.677 37.563 527.462 37.7556C528.247 37.9333 529.307 38.0222 530.64 38.0222C531.973 38.0222 533.025 37.9333 533.795 37.7556C534.581 37.563 534.973 37.2667 534.973 36.8667C534.973 36.4667 534.581 36.1704 533.795 35.9778C533.025 35.7852 531.973 35.6889 530.64 35.6889ZM532.84 41.2889V40.1556C532.292 40.2296 531.558 40.2667 530.64 40.2667C529.736 40.2667 529.003 40.2296 528.44 40.1556V41.2889H532.84ZM530.64 44.3778C535.514 44.3778 537.951 45.4667 537.951 47.6444C537.951 48.8 537.299 49.6296 535.995 50.1333C534.692 50.6519 532.907 50.9111 530.64 50.9111C528.373 50.9111 526.581 50.6519 525.262 50.1333C523.958 49.6148 523.307 48.7852 523.307 47.6444C523.307 45.4667 525.751 44.3778 530.64 44.3778ZM530.64 48.6889C533.529 48.6889 534.973 48.3407 534.973 47.6444C534.973 46.9481 533.529 46.6 530.64 46.6C529.307 46.6 528.247 46.6815 527.462 46.8444C526.677 47.0074 526.284 47.2741 526.284 47.6444C526.284 48.0148 526.677 48.2815 527.462 48.4444C528.247 48.6074 529.307 48.6889 530.64 48.6889ZM545.454 42.8667V33.9111H548.21V35.7111H557.054V33.9111H559.81V42.8667H545.454ZM557.054 38.2889H548.21V40.2444H557.054V38.2889ZM554.076 47.0444V51.1556H551.188V47.0444H544.454V44.3333H560.81V47.0444H554.076ZM577.119 39.5778V42.9333H574.319V33.6889H577.119V36.7333H579.141V39.5778H577.119ZM573.43 41.6667C572.985 41.8593 572.378 42.0148 571.607 42.1333C570.837 42.2519 570.015 42.3111 569.141 42.3111H562.474V33.9556H572.43V36.4H565.274V39.8667H569.274C570.119 39.8667 570.904 39.8148 571.63 39.7111C572.37 39.6074 572.97 39.4593 573.43 39.2667V41.6667ZM577.119 43.6444V50.6889H563.007V43.6444H577.119ZM574.319 48.2444V46.0889H565.83V48.2444H574.319ZM592.094 39.4222V36.2H580.65V33.7556H594.938V39.4222H592.094ZM579.65 42.6222V40.2H596.005V42.6222H579.65ZM580.65 50.6889V43.8667H595.005V50.6889H580.65ZM592.205 46.2H583.427V48.3778H592.205V46.2ZM610.025 50.7556V33.6889H612.803V50.7556H610.025ZM602.869 33.8667C603.847 33.8667 604.721 34.0963 605.492 34.5556C606.277 35.0148 606.884 35.6593 607.314 36.4889C607.758 37.3185 607.981 38.2741 607.981 39.3556C607.981 40.437 607.758 41.4 607.314 42.2444C606.884 43.0741 606.277 43.7185 605.492 44.1778C604.721 44.637 603.847 44.8667 602.869 44.8667C601.877 44.8667 600.988 44.637 600.203 44.1778C599.418 43.7185 598.803 43.0741 598.358 42.2444C597.929 41.4 597.714 40.437 597.714 39.3556C597.714 38.2741 597.929 37.3185 598.358 36.4889C598.803 35.6593 599.418 35.0148 600.203 34.5556C600.988 34.0963 601.877 33.8667 602.869 33.8667ZM602.869 36.5111C602.129 36.5111 601.536 36.7852 601.092 37.3333C600.662 37.8667 600.447 38.5407 600.447 39.3556C600.447 40.2 600.662 40.8889 601.092 41.4222C601.536 41.9407 602.129 42.2 602.869 42.2C603.595 42.2 604.181 41.9333 604.625 41.4C605.069 40.8667 605.292 40.1852 605.292 39.3556C605.292 38.5407 605.069 37.8667 604.625 37.3333C604.181 36.7852 603.595 36.5111 602.869 36.5111ZM608.958 49.1556C608.455 49.3926 607.788 49.5778 606.958 49.7111C606.129 49.8296 605.24 49.8889 604.292 49.8889H597.247V47.1333H604.403C605.306 47.1333 606.158 47.0741 606.958 46.9556C607.773 46.837 608.44 46.6593 608.958 46.4222V49.1556ZM624.995 41.6444C624.373 42.5185 623.595 43.2222 622.662 43.7556C621.728 44.2741 620.691 44.563 619.551 44.6222V41.9778C620.573 41.8741 621.425 41.4593 622.106 40.7333C622.788 40.0074 623.225 39.0963 623.417 38H619.884V35.3333H623.484V33.4667H626.328V35.3333H629.928V38H626.306C626.262 38.5333 626.18 38.9778 626.062 39.3333L630.662 42.4444L629.128 44.6L624.995 41.6444ZM634.795 50.7556H631.995V33.6889H634.795V50.7556ZM626.395 47.1778C627.313 47.1778 628.173 47.1259 628.973 47.0222C629.788 46.9037 630.447 46.7259 630.951 46.4889V49.2C629.943 49.6593 628.417 49.8889 626.373 49.8889H619.239V47.1778H623.417V44.3111H626.195V47.1778H626.395ZM652.815 50.7556H650.193V42.9333H648.437V50.4667H645.837V33.7556H648.437V40.1333H650.193V33.6889H652.815V50.7556ZM641.17 47.2889C641.852 47.2889 642.533 47.237 643.215 47.1333C643.896 47.0296 644.474 46.8815 644.948 46.6889V49.2444C644.474 49.4519 643.867 49.6148 643.126 49.7333C642.385 49.837 641.644 49.8889 640.904 49.8889H637.193V34.1556H644.259V36.7556H639.882V47.2889H641.17ZM665.918 40.3556C666.926 40.3556 667.829 40.5556 668.629 40.9556C669.444 41.3556 670.081 41.9185 670.54 42.6444C671 43.3704 671.229 44.2074 671.229 45.1556C671.229 46.163 670.977 47.0519 670.474 47.8222C669.97 48.5926 669.281 49.1926 668.407 49.6222C667.548 50.037 666.577 50.2444 665.496 50.2444C663.348 50.2444 661.674 49.5778 660.474 48.2444C659.274 46.8963 658.674 44.9852 658.674 42.5111C658.674 40.763 658.992 39.2667 659.629 38.0222C660.281 36.763 661.185 35.8148 662.34 35.1778C663.511 34.5259 664.866 34.2 666.407 34.2C667.207 34.2 667.97 34.2889 668.696 34.4667C669.422 34.6444 670.051 34.8963 670.585 35.2222L669.407 37.5333C668.651 37.0148 667.674 36.7556 666.474 36.7556C665.244 36.7556 664.229 37.0889 663.429 37.7556C662.644 38.4222 662.155 39.3926 661.963 40.6667C661.889 41.1704 661.859 41.6519 661.874 42.1111C662.289 41.5333 662.844 41.0963 663.54 40.8C664.237 40.5037 665.029 40.3556 665.918 40.3556ZM665.318 47.8889C666.177 47.8889 666.874 47.6593 667.407 47.2C667.94 46.7259 668.207 46.0963 668.207 45.3111C668.207 44.5111 667.94 43.8815 667.407 43.4222C666.874 42.9481 666.155 42.7111 665.251 42.7111C664.377 42.7111 663.659 42.9556 663.096 43.4444C662.533 43.9333 662.251 44.5556 662.251 45.3111C662.251 46.0519 662.526 46.6667 663.074 47.1556C663.622 47.6444 664.37 47.8889 665.318 47.8889ZM678.214 50.2444C676.954 50.2444 675.828 49.9259 674.836 49.2889C673.843 48.6519 673.065 47.7333 672.502 46.5333C671.939 45.3185 671.658 43.8815 671.658 42.2222C671.658 40.563 671.939 39.1333 672.502 37.9333C673.065 36.7185 673.843 35.7926 674.836 35.1556C675.828 34.5185 676.954 34.2 678.214 34.2C679.488 34.2 680.621 34.5185 681.614 35.1556C682.606 35.7926 683.377 36.7185 683.925 37.9333C684.488 39.1333 684.769 40.563 684.769 42.2222C684.769 43.8815 684.488 45.3185 683.925 46.5333C683.377 47.7333 682.606 48.6519 681.614 49.2889C680.621 49.9259 679.488 50.2444 678.214 50.2444ZM678.214 47.5778C679.265 47.5778 680.095 47.1333 680.702 46.2444C681.325 45.3407 681.636 44 681.636 42.2222C681.636 40.4444 681.325 39.1111 680.702 38.2222C680.095 37.3185 679.265 36.8667 678.214 36.8667C677.177 36.8667 676.347 37.3185 675.725 38.2222C675.117 39.1111 674.814 40.4444 674.814 42.2222C674.814 44 675.117 45.3407 675.725 46.2444C676.347 47.1333 677.177 47.5778 678.214 47.5778ZM689.353 43.2C688.539 43.2 687.813 43.0074 687.176 42.6222C686.553 42.237 686.064 41.6963 685.709 41C685.353 40.2889 685.176 39.4741 685.176 38.5556C685.176 37.6222 685.353 36.8074 685.709 36.1111C686.064 35.4 686.553 34.8519 687.176 34.4667C687.813 34.0815 688.539 33.8889 689.353 33.8889C690.153 33.8889 690.864 34.0815 691.487 34.4667C692.124 34.8519 692.613 35.4 692.953 36.1111C693.309 36.8074 693.487 37.6222 693.487 38.5556C693.487 39.4889 693.309 40.3111 692.953 41.0222C692.613 41.7185 692.124 42.2593 691.487 42.6444C690.864 43.0148 690.153 43.2 689.353 43.2ZM702.087 34.0667L690.931 50.3778H687.664L698.82 34.0667H702.087ZM689.353 40.8222C689.798 40.8222 690.146 40.637 690.398 40.2667C690.65 39.8815 690.776 39.3111 690.776 38.5556C690.776 37.8 690.65 37.237 690.398 36.8667C690.146 36.4815 689.798 36.2889 689.353 36.2889C688.924 36.2889 688.576 36.4815 688.309 36.8667C688.057 37.2519 687.931 37.8148 687.931 38.5556C687.931 39.2963 688.057 39.8593 688.309 40.2444C688.576 40.6296 688.924 40.8222 689.353 40.8222ZM700.398 50.5333C699.598 50.5333 698.879 50.3407 698.242 49.9556C697.62 49.5704 697.131 49.0296 696.776 48.3333C696.42 47.6222 696.242 46.8074 696.242 45.8889C696.242 44.9704 696.42 44.1556 696.776 43.4444C697.131 42.7333 697.62 42.1852 698.242 41.8C698.879 41.4148 699.598 41.2222 700.398 41.2222C701.198 41.2222 701.916 41.4148 702.553 41.8C703.19 42.1852 703.687 42.7333 704.042 43.4444C704.398 44.1556 704.576 44.9704 704.576 45.8889C704.576 46.8074 704.398 47.6222 704.042 48.3333C703.687 49.0296 703.19 49.5704 702.553 49.9556C701.916 50.3407 701.198 50.5333 700.398 50.5333ZM700.398 48.1556C700.842 48.1556 701.19 47.9704 701.442 47.6C701.694 47.2148 701.82 46.6444 701.82 45.8889C701.82 45.1333 701.694 44.5704 701.442 44.2C701.19 43.8148 700.842 43.6222 700.398 43.6222C699.953 43.6222 699.605 43.8148 699.353 44.2C699.102 44.5704 698.976 45.1333 698.976 45.8889C698.976 46.6444 699.102 47.2148 699.353 47.6C699.605 47.9704 699.953 48.1556 700.398 48.1556Z" fill="white"/>
</svg>
