<svg width="302" height="62" viewBox="0 0 302 62" fill="none" xmlns="http://www.w3.org/2000/svg">
<path d="M75.0802 26.1333H72.0802V14.0333H67.5135C67.4024 17.6333 66.6913 20.3556 65.3802 22.2C64.0913 24.0444 62.3802 24.9667 60.2469 24.9667C58.0247 24.9667 56.258 23.9667 54.9469 21.9667C53.6358 19.9667 52.9802 16.9889 52.9802 13.0333C52.9802 9.07778 53.6358 6.1 54.9469 4.1C56.258 2.1 58.0247 1.1 60.2469 1.1C62.2913 1.1 63.9469 1.93333 65.2135 3.6C66.5024 5.26667 67.258 7.75556 67.4802 11.0667H72.0802V0.533333H75.0802V26.1333ZM60.2469 22.0667C61.558 22.0667 62.6024 21.3333 63.3802 19.8667C64.158 18.3778 64.5469 16.1 64.5469 13.0333C64.5469 9.96667 64.158 7.7 63.3802 6.23333C62.6024 4.74444 61.558 4 60.2469 4C58.958 4 57.9247 4.74444 57.1469 6.23333C56.3691 7.7 55.9802 9.96667 55.9802 13.0333C55.9802 16.1 56.3691 18.3778 57.1469 19.8667C57.9247 21.3333 58.958 22.0667 60.2469 22.0667ZM90.6434 9.76667C87.4211 9.76667 84.8211 9.38889 82.8434 8.63333C80.8878 7.87778 79.91 6.68889 79.91 5.06667C79.91 3.46667 80.8878 2.28889 82.8434 1.53333C84.8211 0.777777 87.4211 0.4 90.6434 0.4C93.8434 0.4 96.4211 0.777777 98.3767 1.53333C100.354 2.28889 101.343 3.46667 101.343 5.06667C101.343 6.68889 100.366 7.87778 98.41 8.63333C96.4545 9.38889 93.8656 9.76667 90.6434 9.76667ZM90.6434 2.76667C88.4211 2.76667 86.5989 2.96667 85.1767 3.36667C83.7767 3.74444 83.0767 4.31111 83.0767 5.06667C83.0767 5.84444 83.7767 6.42222 85.1767 6.8C86.5767 7.17778 88.3989 7.36667 90.6434 7.36667C92.8878 7.36667 94.71 7.17778 96.11 6.8C97.51 6.42222 98.21 5.84444 98.21 5.06667C98.21 4.31111 97.4989 3.74444 96.0767 3.36667C94.6767 2.96667 92.8656 2.76667 90.6434 2.76667ZM92.1434 15.7H101.177V21.7H83.11V23.6667H101.577V25.8333H80.1434V19.8H98.21V17.8667H80.0767V15.7H89.1434V13.5H78.4767V11.1H102.81V13.5H92.1434V15.7ZM124.673 15.5V0.533333H127.707V15.5H124.673ZM108.973 9.03333V12.1333H115.34C116.962 12.1333 118.429 12.0333 119.74 11.8333C121.051 11.6333 122.073 11.3556 122.807 11V13.5C122.073 13.8556 121.051 14.1333 119.74 14.3333C118.429 14.5333 116.929 14.6333 115.24 14.6333H105.973V6.7H117.407V3.6H105.907V1.13333H120.373V9.03333H108.973ZM106.94 25.8333V16.8667H127.707V25.8333H106.94ZM124.707 19.4333H109.907V23.2667H124.707V19.4333ZM143.436 0.333333C146.57 0.333333 149.159 0.822222 151.203 1.8C153.247 2.75555 154.27 4.14444 154.27 5.96667C154.27 7.78889 153.247 9.18889 151.203 10.1667C149.159 11.1222 146.57 11.6 143.436 11.6C140.303 11.6 137.714 11.1222 135.67 10.1667C133.625 9.18889 132.603 7.78889 132.603 5.96667C132.603 4.14444 133.625 2.75555 135.67 1.8C137.714 0.822222 140.303 0.333333 143.436 0.333333ZM143.436 2.86667C141.259 2.86667 139.436 3.14444 137.97 3.7C136.503 4.25555 135.77 5.01111 135.77 5.96667C135.77 6.92222 136.503 7.67778 137.97 8.23333C139.436 8.76667 141.259 9.03333 143.436 9.03333C145.614 9.03333 147.425 8.76667 148.87 8.23333C150.336 7.67778 151.07 6.92222 151.07 5.96667C151.07 5.01111 150.336 4.25555 148.87 3.7C147.425 3.14444 145.614 2.86667 143.436 2.86667ZM131.27 16.4333V13.7667H155.603V16.4333H131.27ZM154.37 23.1333V25.8333H132.936V18.5333H136.003V23.1333H154.37ZM189.758 8.33333H186.391V14.6667H183.391V0.533333H186.391V5.33333H189.758V8.33333ZM172.758 8.96667C171.891 10.4333 170.758 11.6222 169.358 12.5333C167.958 13.4444 166.369 13.9889 164.591 14.1667V11.3667C166.502 11.1 168.058 10.2889 169.258 8.93333C170.458 7.55556 171.147 5.85556 171.325 3.83333H164.925V1.13333H180.458V3.83333H174.358C174.336 4.74444 174.191 5.65556 173.925 6.56667L181.225 11.2667L179.758 13.6333L172.758 8.96667ZM176.258 15.4667C179.413 15.4667 181.947 15.9 183.858 16.7667C185.769 17.6333 186.725 18.9778 186.725 20.8C186.725 22.6444 185.769 24 183.858 24.8667C181.947 25.7333 179.413 26.1667 176.258 26.1667C173.102 26.1667 170.569 25.7333 168.658 24.8667C166.747 24 165.791 22.6444 165.791 20.8C165.791 18.9778 166.747 17.6333 168.658 16.7667C170.569 15.9 173.102 15.4667 176.258 15.4667ZM176.258 23.5667C178.391 23.5667 180.136 23.3333 181.491 22.8667C182.847 22.4 183.525 21.7111 183.525 20.8C183.525 19.8889 182.847 19.2111 181.491 18.7667C180.158 18.3 178.413 18.0667 176.258 18.0667C174.102 18.0667 172.347 18.3 170.991 18.7667C169.658 19.2111 168.991 19.8889 168.991 20.8C168.991 21.7111 169.658 22.4 170.991 22.8667C172.347 23.3333 174.102 23.5667 176.258 23.5667ZM214.154 26.1333H211.288V13.7333H207.488V25.7H204.688V0.666665H207.488V10.7667H211.288V0.533333H214.154V26.1333ZM196.621 1.1C198.51 1.1 199.932 2.06667 200.888 4C201.843 5.91111 202.321 8.92222 202.321 13.0333C202.321 17.1444 201.843 20.1667 200.888 22.1C199.932 24.0111 198.51 24.9667 196.621 24.9667C194.754 24.9667 193.343 24 192.388 22.0667C191.432 20.1333 190.954 17.1222 190.954 13.0333C190.954 8.94444 191.432 5.93333 192.388 4C193.343 2.06667 194.754 1.1 196.621 1.1ZM196.621 22.1C197.599 22.1 198.321 21.3667 198.788 19.9C199.254 18.4111 199.488 16.1222 199.488 13.0333C199.488 9.94444 199.254 7.66667 198.788 6.2C198.321 4.71111 197.599 3.96667 196.621 3.96667C195.666 3.96667 194.954 4.71111 194.488 6.2C194.021 7.66667 193.788 9.94444 193.788 13.0333C193.788 16.1222 194.021 18.4111 194.488 19.9C194.954 21.3667 195.666 22.1 196.621 22.1ZM236.851 19.5333V0.533333H239.884V19.5333H236.851ZM224.984 0.766665C226.54 0.766665 227.895 1.08889 229.051 1.73333C230.229 2.35555 231.129 3.23333 231.751 4.36667C232.395 5.5 232.718 6.78889 232.718 8.23333C232.718 9.67778 232.395 10.9667 231.751 12.1C231.129 13.2333 230.229 14.1222 229.051 14.7667C227.895 15.3889 226.54 15.7 224.984 15.7C223.429 15.7 222.062 15.3889 220.884 14.7667C219.729 14.1222 218.829 13.2333 218.184 12.1C217.562 10.9667 217.251 9.67778 217.251 8.23333C217.251 6.78889 217.562 5.5 218.184 4.36667C218.829 3.23333 219.729 2.35555 220.884 1.73333C222.062 1.08889 223.429 0.766665 224.984 0.766665ZM224.984 3.43333C223.562 3.43333 222.418 3.86667 221.551 4.73333C220.706 5.6 220.284 6.76667 220.284 8.23333C220.284 9.7 220.706 10.8667 221.551 11.7333C222.418 12.6 223.562 13.0333 224.984 13.0333C226.406 13.0333 227.551 12.6 228.418 11.7333C229.284 10.8667 229.718 9.7 229.718 8.23333C229.718 6.76667 229.284 5.6 228.418 4.73333C227.551 3.86667 226.406 3.43333 224.984 3.43333ZM240.484 22.9667V25.8333H219.384V17.4H222.451V22.9667H240.484ZM265.647 13.6V26.1333H262.647V0.533333H265.647V10.5667H268.947V13.6H265.647ZM244.347 4.43333V1.5H258.281V17.7667H255.281V4.43333H244.347ZM252.847 21.6667C256.47 21.6667 259.07 21.3111 260.647 20.6V23.5667C259.003 24.2778 256.403 24.6333 252.847 24.6333H243.447V21.6667H247.614V10.9667H250.647V21.6667H252.847ZM289.744 26.1333V0.533333H292.711V26.1333H289.744ZM278.211 1.03333C279.655 1.03333 280.944 1.37778 282.077 2.06667C283.233 2.73333 284.133 3.68889 284.777 4.93333C285.422 6.15556 285.744 7.54444 285.744 9.1C285.744 10.6778 285.422 12.0889 284.777 13.3333C284.133 14.5556 283.233 15.5111 282.077 16.2C280.944 16.8667 279.655 17.2 278.211 17.2C276.766 17.2 275.466 16.8667 274.311 16.2C273.155 15.5111 272.255 14.5556 271.611 13.3333C270.966 12.0889 270.644 10.6778 270.644 9.1C270.644 7.54444 270.966 6.15556 271.611 4.93333C272.255 3.68889 273.155 2.73333 274.311 2.06667C275.466 1.37778 276.766 1.03333 278.211 1.03333ZM278.211 3.86667C276.833 3.86667 275.711 4.36667 274.844 5.36667C273.999 6.34444 273.577 7.58889 273.577 9.1C273.577 10.6111 273.999 11.8667 274.844 12.8667C275.711 13.8444 276.833 14.3333 278.211 14.3333C279.588 14.3333 280.699 13.8444 281.544 12.8667C282.411 11.8667 282.844 10.6111 282.844 9.1C282.844 7.58889 282.411 6.34444 281.544 5.36667C280.699 4.36667 279.588 3.86667 278.211 3.86667ZM287.744 23.4333C286.922 23.8111 285.811 24.1111 284.411 24.3333C283.011 24.5333 281.455 24.6333 279.744 24.6333H269.844V21.6667H279.911C281.577 21.6667 283.099 21.5667 284.477 21.3667C285.855 21.1667 286.944 20.8778 287.744 20.5V23.4333ZM5.46016 40.5667C6.01571 40.8111 6.44905 41.1778 6.76016 41.6667C7.07127 42.1556 7.22682 42.7333 7.22682 43.4C7.22682 44.3556 6.92682 45.1333 6.32682 45.7333C5.72682 46.3111 4.96016 46.6 4.02682 46.6C3.09349 46.6 2.31571 46.3 1.69349 45.7C1.09349 45.1 0.79349 44.3333 0.79349 43.4C0.79349 42.9556 0.849045 42.5111 0.960156 42.0667C1.07127 41.6222 1.31571 40.9556 1.69349 40.0667L3.62682 35.2667H6.92682L5.46016 40.5667ZM65.5836 35C66.5169 35 67.2836 35.3 67.8836 35.9C68.4836 36.4778 68.7836 37.2444 68.7836 38.2C68.7836 38.6444 68.728 39.0889 68.6169 39.5333C68.5058 39.9778 68.2725 40.6444 67.9169 41.5333L65.9836 46.3333H62.6836L64.1169 41.0667C63.5614 40.8222 63.128 40.4556 62.8169 39.9667C62.5058 39.4778 62.3503 38.8889 62.3503 38.2C62.3503 37.2444 62.6503 36.4778 63.2503 35.9C63.8725 35.3 64.6503 35 65.5836 35ZM76.9807 41.9667V42.8667H94.1807V45.8H72.3141V39.3667H89.2807V38.4667H72.2474V35.5333H93.9474V41.9667H76.9807ZM70.7807 50V46.6667H95.4141V50H70.7807ZM76.9141 57.3V58.2H94.2474V61.1333H72.2474V54.7H89.3474V53.8H72.1807V50.9H94.0141V57.3H76.9141ZM127.369 61.1333H122.569V35.5333H127.369V61.1333ZM112.236 49.3333C110.791 49.3333 109.502 49.0444 108.369 48.4667C107.236 47.8889 106.347 47.0889 105.702 46.0667C105.08 45.0222 104.769 43.8333 104.769 42.5C104.769 41.1889 105.08 40.0222 105.702 39C106.347 37.9556 107.236 37.1444 108.369 36.5667C109.502 35.9889 110.791 35.7 112.236 35.7C113.658 35.7 114.925 35.9889 116.036 36.5667C117.169 37.1444 118.047 37.9556 118.669 39C119.313 40.0222 119.636 41.1889 119.636 42.5C119.636 43.8333 119.313 45.0222 118.669 46.0667C118.047 47.0889 117.169 47.8889 116.036 48.4667C114.925 49.0444 113.658 49.3333 112.236 49.3333ZM112.236 39.7667C111.391 39.7667 110.702 40.0333 110.169 40.5667C109.636 41.0778 109.369 41.7222 109.369 42.5C109.369 43.3 109.636 43.9667 110.169 44.5C110.702 45.0111 111.391 45.2667 112.236 45.2667C113.08 45.2667 113.758 45.0111 114.269 44.5C114.802 43.9667 115.069 43.3 115.069 42.5C115.069 41.7222 114.802 41.0778 114.269 40.5667C113.758 40.0333 113.08 39.7667 112.236 39.7667ZM114.869 50.7333C117.713 50.7333 119.813 50.4222 121.169 49.8V54.3667C119.813 54.9889 117.691 55.3 114.802 55.3H114.569V61.1333H109.769V55.3H103.769V50.7333H114.869ZM142.632 38.6667V43.2H129.599V38.6667H133.765V35.4333H138.532V38.6667H142.632ZM154.399 61.1333H149.999V49.7333H148.032V60.7H143.665V35.6333H148.032V44.9333H149.999V35.5333H154.399V61.1333ZM136.232 44.2333C137.988 44.2333 139.421 44.9222 140.532 46.3C141.643 47.6778 142.199 49.6556 142.199 52.2333C142.199 54.8111 141.643 56.7889 140.532 58.1667C139.421 59.5444 137.988 60.2333 136.232 60.2333C134.454 60.2333 133.021 59.5556 131.932 58.2C130.843 56.8222 130.299 54.8333 130.299 52.2333C130.299 49.6333 130.843 47.6556 131.932 46.3C133.021 44.9222 134.454 44.2333 136.232 44.2333ZM136.232 55.9C136.721 55.9 137.121 55.5778 137.432 54.9333C137.743 54.2889 137.899 53.3889 137.899 52.2333C137.899 51.0778 137.743 50.1778 137.432 49.5333C137.121 48.8889 136.721 48.5667 136.232 48.5667C135.743 48.5667 135.343 48.8889 135.032 49.5333C134.743 50.1778 134.599 51.0778 134.599 52.2333C134.599 53.3889 134.743 54.2889 135.032 54.9333C135.343 55.5778 135.743 55.9 136.232 55.9ZM175.487 45.5333C172.087 45.5333 169.376 45.1111 167.354 44.2667C165.354 43.4 164.354 42.0889 164.354 40.3333C164.354 38.5556 165.354 37.2444 167.354 36.4C169.376 35.5333 172.087 35.1 175.487 35.1C178.865 35.1 181.554 35.5333 183.554 36.4C185.576 37.2444 186.587 38.5556 186.587 40.3333C186.587 42.0889 185.576 43.4 183.554 44.2667C181.554 45.1111 178.865 45.5333 175.487 45.5333ZM175.487 38.9C173.62 38.9 172.154 39.0222 171.087 39.2667C170.02 39.5111 169.487 39.8667 169.487 40.3333C169.487 40.8 170.009 41.1556 171.054 41.4C172.12 41.6222 173.598 41.7333 175.487 41.7333C177.376 41.7333 178.843 41.6222 179.887 41.4C180.932 41.1556 181.454 40.8 181.454 40.3333C181.454 39.8667 180.92 39.5111 179.854 39.2667C178.809 39.0222 177.354 38.9 175.487 38.9ZM177.887 51.7H186.387V61.1333H164.587V51.7H173.087V50.3H163.154V46.4H187.787V50.3H177.887V51.7ZM169.354 55.5V57.3333H181.587V55.5H169.354ZM213.117 50.7667H208.284V35.5333H213.117V50.7667ZM198.417 46.1C197.417 47.3667 196.195 48.3889 194.75 49.1667C193.328 49.9444 191.772 50.3556 190.084 50.4V45.8333C191.684 45.7222 193.006 45.1222 194.05 44.0333C195.095 42.9222 195.728 41.6111 195.95 40.1H190.45V35.8333H206.184V40.1H200.85C200.806 40.6778 200.661 41.3778 200.417 42.2L207.117 46.5L204.617 50.2L198.417 46.1ZM213.117 51.6667V61.4333H208.217V56H191.217V51.6667H213.117ZM239.513 48.8H234.68V35.5333H239.513V48.8ZM231.813 42.1667C231.813 43.4778 231.48 44.6333 230.813 45.6333C230.169 46.6333 229.247 47.4111 228.047 47.9667C226.847 48.5 225.469 48.7667 223.913 48.7667C222.358 48.7667 220.98 48.5 219.78 47.9667C218.58 47.4111 217.647 46.6333 216.98 45.6333C216.313 44.6333 215.98 43.4778 215.98 42.1667C215.98 40.8556 216.313 39.7 216.98 38.7C217.647 37.7 218.58 36.9333 219.78 36.4C220.98 35.8444 222.358 35.5667 223.913 35.5667C225.469 35.5667 226.847 35.8444 228.047 36.4C229.247 36.9333 230.169 37.7 230.813 38.7C231.48 39.7 231.813 40.8556 231.813 42.1667ZM220.78 42.1667C220.78 42.9222 221.058 43.5333 221.613 44C222.191 44.4444 222.958 44.6667 223.913 44.6667C224.869 44.6667 225.625 44.4444 226.18 44C226.758 43.5556 227.047 42.9444 227.047 42.1667C227.047 41.3889 226.758 40.7778 226.18 40.3333C225.625 39.8667 224.869 39.6333 223.913 39.6333C222.958 39.6333 222.191 39.8667 221.613 40.3333C221.058 40.7778 220.78 41.3889 220.78 42.1667ZM239.513 49.7V61.1333H218.013V49.7H222.747V51.3667H234.78V49.7H239.513ZM234.78 55.3H222.747V57.1333H234.78V55.3ZM261.077 61.1333V35.5333H265.91V61.1333H261.077ZM253.51 55.3333C254.643 55.3333 255.788 55.2222 256.943 55C258.099 54.7778 259.054 54.4778 259.81 54.1V58.7C259.077 59.1 258.143 59.4111 257.01 59.6333C255.877 59.8333 254.71 59.9333 253.51 59.9333H243.443V35.9667H248.41V55.3333H253.51ZM291.606 49.8V61.1333H286.806V35.5333H291.606V44.9H294.473V49.8H291.606ZM279.373 55.3667C280.551 55.3667 281.706 55.2667 282.84 55.0667C283.995 54.8444 284.94 54.5556 285.673 54.2V58.7333C284.962 59.1111 283.984 59.4111 282.74 59.6333C281.495 59.8333 280.251 59.9333 279.006 59.9333H269.573V36.1333H283.773V40.7H274.473V55.3667H279.373ZM298.636 60.2667C297.725 60.2667 296.958 59.9556 296.336 59.3333C295.714 58.7111 295.403 57.9333 295.403 57C295.403 56.0444 295.714 55.2778 296.336 54.7C296.958 54.1 297.725 53.8 298.636 53.8C299.547 53.8 300.314 54.1 300.936 54.7C301.558 55.2778 301.87 56.0444 301.87 57C301.87 57.9333 301.558 58.7111 300.936 59.3333C300.314 59.9556 299.547 60.2667 298.636 60.2667Z" fill="black"/>
<path d="M21.4906 46.4C20.0906 47.9778 18.3906 49.2222 16.3906 50.1333C14.4128 51.0222 12.3128 51.4778 10.0906 51.5V46.8333C12.1351 46.7889 14.0017 46.2222 15.6906 45.1333C17.3795 44.0444 18.5573 42.5778 19.224 40.7333H10.524V36.1333H32.624V40.7333H24.424C24.3128 41.2222 24.124 41.8222 23.8573 42.5333L33.6906 47.6L31.4573 51.7L21.4906 46.4ZM33.8906 60.2333H9.25729V55.5H19.1573V50.5H23.9906V55.5H33.8906V60.2333ZM35.5538 42.0667V37.7333H41.2538V35.3333H46.1871V37.7333H51.9538V42.0667H35.5538ZM58.5871 49.5667V61.1333H53.7871V35.5333H58.5871V44.6333H61.3871V49.5667H58.5871ZM46.1204 55.4667C47.3204 55.4667 48.476 55.3889 49.5871 55.2333C50.7204 55.0556 51.6538 54.8 52.3871 54.4667V58.9333C51.6538 59.2667 50.7204 59.5222 49.5871 59.7C48.4538 59.8556 47.2538 59.9333 45.9871 59.9333H35.6538V55.4667H41.2871V53.3C39.7982 52.9889 38.6093 52.4 37.7204 51.5333C36.8538 50.6444 36.4204 49.5333 36.4204 48.2C36.4204 46.4889 37.0982 45.1667 38.4538 44.2333C39.8093 43.3 41.5871 42.8333 43.7871 42.8333C45.9649 42.8333 47.7316 43.3 49.0871 44.2333C50.4427 45.1667 51.1204 46.4889 51.1204 48.2C51.1204 49.5556 50.6649 50.6778 49.7538 51.5667C48.8649 52.4333 47.6538 53.0111 46.1204 53.3V55.4667ZM40.9204 48.2C40.9204 48.6444 41.176 48.9778 41.6871 49.2C42.1982 49.4222 42.8982 49.5333 43.7871 49.5333C44.6538 49.5333 45.3427 49.4222 45.8538 49.2C46.3649 48.9778 46.6204 48.6444 46.6204 48.2C46.6204 47.7556 46.3649 47.4222 45.8538 47.2C45.3427 46.9556 44.6538 46.8333 43.7871 46.8333C42.8982 46.8333 42.1982 46.9556 41.6871 47.2C41.176 47.4222 40.9204 47.7556 40.9204 48.2Z" fill="#01A69F"/>
</svg>
