<svg width="713" height="61" viewBox="0 0 713 61" fill="none" xmlns="http://www.w3.org/2000/svg">
<path d="M49.2288 52.2667H39.6288V29.8667H33.1621C32.7621 36.8 31.251 41.9778 28.6288 45.4C26.0066 48.7778 22.5399 50.4667 18.2288 50.4667C13.5177 50.4667 9.80655 48.4444 7.09544 44.4C4.42878 40.3556 3.09544 34.2444 3.09544 26.0667C3.09544 17.8889 4.42878 11.7778 7.09544 7.73333C9.80655 3.68889 13.5177 1.66667 18.2288 1.66667C22.3621 1.66667 25.7177 3.22222 28.2954 6.33333C30.8732 9.4 32.4732 14.0889 33.0954 20.4H39.6288V1.06667H49.2288V52.2667ZM18.2288 41.2C21.9177 41.2 23.7621 36.1556 23.7621 26.0667C23.7621 15.9778 21.9177 10.9333 18.2288 10.9333C14.4954 10.9333 12.6288 15.9778 12.6288 26.0667C12.6288 36.1556 14.4954 41.2 18.2288 41.2ZM79.3551 19.8C72.5106 19.8 67.1106 19.0222 63.1551 17.4667C59.1995 15.8667 57.2217 13.3778 57.2217 10C57.2217 6.62222 59.1995 4.15555 63.1551 2.6C67.1106 0.999998 72.5106 0.199997 79.3551 0.199997C86.1995 0.199997 91.5773 0.999998 95.4884 2.6C99.444 4.15555 101.422 6.62222 101.422 10C101.422 13.3778 99.444 15.8667 95.4884 17.4667C91.5773 19.0222 86.1995 19.8 79.3551 19.8ZM79.3551 7.4C75.7106 7.4 72.7995 7.64444 70.6217 8.13333C68.4884 8.57778 67.4217 9.2 67.4217 10C67.4217 10.8444 68.4884 11.4889 70.6217 11.9333C72.7551 12.3778 75.6662 12.6 79.3551 12.6C83.044 12.6 85.9329 12.3778 88.0217 11.9333C90.1551 11.4889 91.2217 10.8444 91.2217 10C91.2217 9.15555 90.1551 8.51111 88.0217 8.06667C85.8884 7.62222 82.9995 7.4 79.3551 7.4ZM84.1551 30.6H101.155V44.0667H67.0884V45.8667H101.622V52.2667H57.6217V38.7333H91.6884V36.9333H57.4884V30.6H74.5551V28.3333H54.6884V21H103.955V28.3333H84.1551V30.6ZM144.948 30.9333V1.06667H154.615V30.9333H144.948ZM118.681 19.4V22.3333H131.215C133.392 22.3333 135.481 22.1778 137.481 21.8667C139.481 21.5556 141.126 21.1111 142.415 20.5333V28.2C141.17 28.7778 139.548 29.2222 137.548 29.5333C135.548 29.8444 133.392 30 131.081 30H109.081V12.2667H129.148V9.33333H109.015V1.66667H138.681V19.4H118.681ZM111.081 52.2667V32.7333H154.615V52.2667H111.081ZM145.015 40.6667H120.615V44.4H145.015V40.6667ZM206.141 29.1333V52.2667H196.541V1.06667H206.141V19.2667H211.741V29.1333H206.141ZM161.808 12V2.53333H190.541V34.6H180.874V12H161.808ZM181.141 40.4C183.541 40.4 185.874 40.2444 188.141 39.9333C190.408 39.5778 192.274 39.0667 193.741 38.4V47.8667C192.274 48.5333 190.408 49.0444 188.141 49.4C185.874 49.7111 183.474 49.8667 180.941 49.8667H160.274V40.4H166.474V21.8667H176.208V40.4H181.141ZM275.518 30.7333H226.251V22.9333H246.118V20.1333H229.251V1.06667H272.584V8.8H238.784V12.4H273.118V20.1333H255.718V22.9333H275.518V30.7333ZM250.918 32.7333C257.895 32.7333 263.362 33.5556 267.318 35.2C271.273 36.8 273.251 39.3556 273.251 42.8667C273.251 46.3778 271.273 48.9333 267.318 50.5333C263.362 52.1778 257.895 53 250.918 53C243.895 53 238.406 52.1778 234.451 50.5333C230.54 48.9333 228.584 46.3778 228.584 42.8667C228.584 39.3556 230.54 36.8 234.451 35.2C238.406 33.5556 243.895 32.7333 250.918 32.7333ZM250.918 45.4667C254.651 45.4667 257.584 45.2667 259.718 44.8667C261.895 44.4222 262.984 43.7556 262.984 42.8667C262.984 41.9778 261.895 41.3333 259.718 40.9333C257.54 40.4889 254.606 40.2667 250.918 40.2667C247.184 40.2667 244.229 40.4889 242.051 40.9333C239.873 41.3333 238.784 41.9778 238.784 42.8667C238.784 43.7556 239.851 44.4222 241.984 44.8667C244.162 45.2667 247.14 45.4667 250.918 45.4667ZM277.911 11.4667V4.13333H286.444V0.266666H295.977V4.13333H304.044V11.4667H277.911ZM306.044 30.8667V1.26667H314.777V11.4667H318.711V1.06667H327.511V32.6667H318.711V20.4667H314.777V30.8667H306.044ZM303.377 22.2667C303.377 25.1556 302.222 27.4889 299.911 29.2667C297.644 31 294.799 31.8667 291.377 31.8667C287.911 31.8667 285.022 31 282.711 29.2667C280.444 27.4889 279.311 25.1556 279.311 22.2667C279.311 19.3778 280.444 17.0667 282.711 15.3333C285.022 13.5556 287.911 12.6667 291.377 12.6667C294.799 12.6667 297.644 13.5556 299.911 15.3333C302.222 17.0667 303.377 19.3778 303.377 22.2667ZM287.711 22.2667C287.711 23.0667 288.044 23.7111 288.711 24.2C289.422 24.6889 290.311 24.9333 291.377 24.9333C292.399 24.9333 293.244 24.6889 293.911 24.2C294.622 23.7111 294.977 23.0667 294.977 22.2667C294.977 21.4667 294.622 20.8444 293.911 20.4C293.244 19.9111 292.399 19.6667 291.377 19.6667C290.311 19.6667 289.422 19.9111 288.711 20.4C288.044 20.8444 287.711 21.4667 287.711 22.2667ZM304.844 32.7333C311.866 32.7333 317.444 33.5333 321.577 35.1333C325.755 36.7333 327.844 39.2889 327.844 42.8C327.844 46.3556 325.755 48.9111 321.577 50.4667C317.444 52.0667 311.866 52.8667 304.844 52.8667C297.822 52.8667 292.222 52.0667 288.044 50.4667C283.911 48.9111 281.844 46.3556 281.844 42.8C281.844 39.2889 283.911 36.7333 288.044 35.1333C292.222 33.5333 297.822 32.7333 304.844 32.7333ZM304.844 45.3333C308.577 45.3333 311.644 45.1333 314.044 44.7333C316.444 44.2889 317.644 43.6444 317.644 42.8C317.644 41.9556 316.444 41.3333 314.044 40.9333C311.644 40.4889 308.577 40.2667 304.844 40.2667C301.111 40.2667 298.022 40.4889 295.577 40.9333C293.177 41.3333 291.977 41.9556 291.977 42.8C291.977 43.6444 293.177 44.2889 295.577 44.7333C298.022 45.1333 301.111 45.3333 304.844 45.3333ZM364.504 7.2V16.4667H332.904V7.2H343.77V0.866666H353.637V7.2H364.504ZM377.57 29.6V52.2667H367.97V1.06667H377.57V19.8H383.304V29.6H377.57ZM348.704 18.6C351.548 18.6 354.037 19.2889 356.17 20.6667C358.304 22.0444 359.948 23.9556 361.104 26.4C362.259 28.8 362.837 31.5111 362.837 34.5333C362.837 37.6 362.259 40.3333 361.104 42.7333C359.948 45.1333 358.304 47.0222 356.17 48.4C354.037 49.7778 351.548 50.4667 348.704 50.4667C345.815 50.4667 343.304 49.7778 341.17 48.4C339.037 47.0222 337.392 45.1333 336.237 42.7333C335.081 40.3333 334.504 37.6 334.504 34.5333C334.504 31.5111 335.081 28.8 336.237 26.4C337.392 23.9556 339.037 22.0444 341.17 20.6667C343.304 19.2889 345.815 18.6 348.704 18.6ZM348.704 41.8C350.259 41.8 351.459 41.1556 352.304 39.8667C353.192 38.5333 353.637 36.7556 353.637 34.5333C353.637 32.3111 353.192 30.5556 352.304 29.2667C351.459 27.9333 350.259 27.2667 348.704 27.2667C347.148 27.2667 345.926 27.9333 345.037 29.2667C344.148 30.5556 343.704 32.3111 343.704 34.5333C343.704 36.7556 344.148 38.5333 345.037 39.8667C345.926 41.1556 347.148 41.8 348.704 41.8ZM431.363 13.2V21.6H387.63V0.733331H397.296V13.2H431.363ZM384.63 33.6V25.1333H433.896V33.6H384.63ZM431.63 43.8V52.2667H387.496V36.4H397.296V43.8H431.63ZM467.473 24C465.517 26.4 463.14 28.3111 460.34 29.7333C457.54 31.1556 454.495 31.8889 451.206 31.9333V23.2667C454.095 23.0444 456.517 22.0444 458.473 20.2667C460.473 18.4444 461.784 16.2444 462.406 13.6667H451.74V5.33333H462.473V0.133332H472.273V5.33333H483.006V13.6667H472.206C472.029 14.9556 471.806 15.9111 471.54 16.5333L484.54 24.0667L480.073 31.6667L467.473 24ZM496.34 21V32.4H486.74V1.06667H496.34V11.1333H502.073V21H496.34ZM496.34 34.2V52.8667H486.54V42.6667H453.14V34.2H496.34ZM502.999 12.4667V4.53333H514.666V0.133332H524.533V4.53333H536.266V12.4667H502.999ZM554.866 22.8H549.133V39.2667H539.533V1.06667H549.133V12.9333H554.866V22.8ZM519.666 35C515.399 35 511.822 34.0889 508.933 32.2667C506.088 30.4 504.666 27.8 504.666 24.4667C504.666 21.0889 506.088 18.4889 508.933 16.6667C511.822 14.8 515.399 13.8667 519.666 13.8667C523.933 13.8667 527.488 14.8 530.333 16.6667C533.177 18.5333 534.599 21.1333 534.599 24.4667C534.599 27.8 533.177 30.4 530.333 32.2667C527.488 34.0889 523.933 35 519.666 35ZM519.666 21.2C517.933 21.2 516.533 21.5111 515.466 22.1333C514.399 22.7556 513.866 23.5333 513.866 24.4667C513.866 25.4 514.399 26.1778 515.466 26.8C516.533 27.3778 517.933 27.6667 519.666 27.6667C521.355 27.6667 522.733 27.3778 523.799 26.8C524.866 26.1778 525.399 25.4 525.399 24.4667C525.399 23.5333 524.866 22.7556 523.799 22.1333C522.733 21.5111 521.355 21.2 519.666 21.2ZM549.866 43.4667V52.2667H506.133V36.5333H515.933V43.4667H549.866ZM593.659 52.2667V1.06667H603.326V52.2667H593.659ZM586.192 16.1333C586.192 22.9778 585.037 28.9556 582.726 34.0667C580.415 39.1333 577.148 43.0444 572.926 45.8C568.703 48.5111 563.77 49.8667 558.126 49.8667V40.2667C563.948 40.2222 568.415 38.0667 571.526 33.8C574.681 29.5333 576.259 23.6444 576.259 16.1333V11.4667H558.126V2.26666H586.192V16.1333ZM656.319 27.6H646.719V18.9333H639.252C638.274 21.6 636.474 23.7111 633.852 25.2667C631.274 26.7778 628.141 27.5333 624.452 27.5333C621.385 27.5333 618.652 27 616.252 25.9333C613.896 24.8222 612.052 23.2667 610.719 21.2667C609.43 19.2667 608.785 16.9556 608.785 14.3333C608.785 11.7111 609.43 9.4 610.719 7.4C612.052 5.4 613.896 3.86667 616.252 2.8C618.652 1.68889 621.385 1.13333 624.452 1.13333C628.096 1.13333 631.208 1.86666 633.785 3.33333C636.363 4.8 638.163 6.84444 639.185 9.46666H646.719V1.06667H656.319V27.6ZM624.452 19.3333C626.319 19.3333 627.785 18.8889 628.852 18C629.919 17.1111 630.452 15.8889 630.452 14.3333C630.452 12.7778 629.919 11.5556 628.852 10.6667C627.785 9.73333 626.319 9.26666 624.452 9.26666C622.63 9.26666 621.163 9.73333 620.052 10.6667C618.985 11.5556 618.452 12.7778 618.452 14.3333C618.452 15.8444 618.985 17.0667 620.052 18C621.163 18.8889 622.63 19.3333 624.452 19.3333ZM656.319 29.4V52.2667H613.385V29.4H622.785V32.7333H646.852V29.4H656.319ZM646.852 40.6H622.785V44.2667H646.852V40.6ZM674.312 8.33333V11.5333H708.645V18.8H664.778V1.06667H708.112V8.33333H674.312ZM661.778 28.3333V21H711.045V28.3333H661.778ZM674.178 44V45.8667H708.712V52.2667H664.712V38.6667H698.778V36.8H664.578V30.4667H708.245V44H674.178Z" fill="#01A69F"/>
<path d="M0.162109 57.4667H712.845V60.4667H0.162109V57.4667Z" fill="#01A69F"/>
</svg>
