<svg width="363" height="427" viewBox="0 0 363 427" fill="none" xmlns="http://www.w3.org/2000/svg">
<path d="M20.8685 30.1333V4.53333H23.9018V30.1333H20.8685ZM15.7685 11.6667C15.7685 15.0667 15.2129 18.0444 14.1018 20.6C13.0129 23.1333 11.4463 25.1 9.40182 26.5C7.35738 27.8778 4.95738 28.5667 2.20182 28.5667V25.5667C4.35738 25.5667 6.22405 25.0111 7.80182 23.9C9.3796 22.7667 10.5796 21.1667 11.4018 19.1C12.2463 17.0111 12.6685 14.5556 12.6685 11.7333V8.3H2.20182V5.43333H15.7685V11.6667ZM50.465 17.8333H47.465V12.5H42.5316C42.2205 14.0111 41.4205 15.2222 40.1316 16.1333C38.8428 17.0444 37.2094 17.5 35.2316 17.5C33.7205 17.5 32.3872 17.2333 31.2316 16.7C30.0983 16.1667 29.2205 15.4222 28.5983 14.4667C27.9761 13.4889 27.665 12.3778 27.665 11.1333C27.665 9.88889 27.9761 8.78889 28.5983 7.83333C29.2205 6.87778 30.0983 6.13333 31.2316 5.6C32.3872 5.06667 33.7205 4.8 35.2316 4.8C37.165 4.8 38.7761 5.23333 40.065 6.1C41.3539 6.96667 42.165 8.12222 42.4983 9.56667H47.465V4.53333H50.465V17.8333ZM35.2316 14.8667C36.5872 14.8667 37.6761 14.5333 38.4983 13.8667C39.3428 13.2 39.765 12.2889 39.765 11.1333C39.765 10 39.3428 9.1 38.4983 8.43333C37.6761 7.74444 36.5872 7.4 35.2316 7.4C33.8539 7.4 32.7428 7.74444 31.8983 8.43333C31.0761 9.1 30.665 10 30.665 11.1333C30.665 12.2889 31.0761 13.2 31.8983 13.8667C32.7428 14.5333 33.8539 14.8667 35.2316 14.8667ZM50.465 18.9333V29.8333H29.9316V18.9333H32.8983V21.6333H47.4983V18.9333H50.465ZM47.4983 24.1667H32.8983V27.2667H47.4983V24.1667ZM76.0615 17.6V30.1333H73.0615V4.53333H76.0615V14.5667H79.3615V17.6H76.0615ZM54.7615 8.43333V5.5H68.6948V21.7667H65.6948V8.43333H54.7615ZM63.2615 25.6667C66.8837 25.6667 69.4837 25.3111 71.0615 24.6V27.5667C69.417 28.2778 66.817 28.6333 63.2615 28.6333H53.8615V25.6667H58.0281V14.9667H61.0615V25.6667H63.2615ZM112.35 12.3333H108.983V18.6667H105.983V4.53333H108.983V9.33333H112.35V12.3333ZM95.3497 12.9667C94.4831 14.4333 93.3497 15.6222 91.9497 16.5333C90.5497 17.4444 88.9609 17.9889 87.1831 18.1667V15.3667C89.0942 15.1 90.6497 14.2889 91.8497 12.9333C93.0497 11.5556 93.7386 9.85556 93.9164 7.83333H87.5164V5.13333H103.05V7.83333H96.9497C96.9275 8.74444 96.7831 9.65556 96.5164 10.5667L103.816 15.2667L102.35 17.6333L95.3497 12.9667ZM98.8497 19.4667C102.005 19.4667 104.539 19.9 106.45 20.7667C108.361 21.6333 109.316 22.9778 109.316 24.8C109.316 26.6444 108.361 28 106.45 28.8667C104.539 29.7333 102.005 30.1667 98.8497 30.1667C95.6942 30.1667 93.1609 29.7333 91.2497 28.8667C89.3386 28 88.3831 26.6444 88.3831 24.8C88.3831 22.9778 89.3386 21.6333 91.2497 20.7667C93.1609 19.9 95.6942 19.4667 98.8497 19.4667ZM98.8497 27.5667C100.983 27.5667 102.728 27.3333 104.083 26.8667C105.439 26.4 106.116 25.7111 106.116 24.8C106.116 23.8889 105.439 23.2111 104.083 22.7667C102.75 22.3 101.005 22.0667 98.8497 22.0667C96.6942 22.0667 94.9386 22.3 93.5831 22.7667C92.2497 23.2111 91.5831 23.8889 91.5831 24.8C91.5831 25.7111 92.2497 26.4 93.5831 26.8667C94.9386 27.3333 96.6942 27.5667 98.8497 27.5667ZM136.746 30.1333H133.88V17.7333H130.08V29.7H127.28V4.66667H130.08V14.7667H133.88V4.53333H136.746V30.1333ZM119.213 5.1C121.102 5.1 122.524 6.06667 123.48 8C124.435 9.91111 124.913 12.9222 124.913 17.0333C124.913 21.1444 124.435 24.1667 123.48 26.1C122.524 28.0111 121.102 28.9667 119.213 28.9667C117.346 28.9667 115.935 28 114.98 26.0667C114.024 24.1333 113.546 21.1222 113.546 17.0333C113.546 12.9444 114.024 9.93333 114.98 8C115.935 6.06667 117.346 5.1 119.213 5.1ZM119.213 26.1C120.191 26.1 120.913 25.3667 121.38 23.9C121.846 22.4111 122.08 20.1222 122.08 17.0333C122.08 13.9444 121.846 11.6667 121.38 10.2C120.913 8.71111 120.191 7.96667 119.213 7.96667C118.257 7.96667 117.546 8.71111 117.08 10.2C116.613 11.6667 116.38 13.9444 116.38 17.0333C116.38 20.1222 116.613 22.4111 117.08 23.9C117.546 25.3667 118.257 26.1 119.213 26.1ZM159.443 23.5333V4.53333H162.476V23.5333H159.443ZM147.576 4.76667C149.132 4.76667 150.487 5.08889 151.643 5.73333C152.82 6.35555 153.72 7.23333 154.343 8.36667C154.987 9.5 155.309 10.7889 155.309 12.2333C155.309 13.6778 154.987 14.9667 154.343 16.1C153.72 17.2333 152.82 18.1222 151.643 18.7667C150.487 19.3889 149.132 19.7 147.576 19.7C146.02 19.7 144.654 19.3889 143.476 18.7667C142.32 18.1222 141.42 17.2333 140.776 16.1C140.154 14.9667 139.843 13.6778 139.843 12.2333C139.843 10.7889 140.154 9.5 140.776 8.36667C141.42 7.23333 142.32 6.35555 143.476 5.73333C144.654 5.08889 146.02 4.76667 147.576 4.76667ZM147.576 7.43333C146.154 7.43333 145.009 7.86667 144.143 8.73333C143.298 9.6 142.876 10.7667 142.876 12.2333C142.876 13.7 143.298 14.8667 144.143 15.7333C145.009 16.6 146.154 17.0333 147.576 17.0333C148.998 17.0333 150.143 16.6 151.009 15.7333C151.876 14.8667 152.309 13.7 152.309 12.2333C152.309 10.7667 151.876 9.6 151.009 8.73333C150.143 7.86667 148.998 7.43333 147.576 7.43333ZM163.076 26.9667V29.8333H141.976V21.4H145.043V26.9667H163.076ZM185.839 30.1333V4.53333H188.873V30.1333H185.839ZM174.473 5.1C176.739 5.1 178.528 6.1 179.839 8.1C181.173 10.1 181.839 13.0778 181.839 17.0333C181.839 20.9889 181.173 23.9667 179.839 25.9667C178.528 27.9667 176.739 28.9667 174.473 28.9667C172.206 28.9667 170.406 27.9667 169.073 25.9667C167.739 23.9667 167.073 20.9889 167.073 17.0333C167.073 13.0778 167.739 10.1 169.073 8.1C170.406 6.1 172.206 5.1 174.473 5.1ZM174.473 8C173.117 8 172.039 8.74444 171.239 10.2333C170.439 11.7 170.039 13.9667 170.039 17.0333C170.039 20.1 170.439 22.3778 171.239 23.8667C172.039 25.3333 173.117 26.0667 174.473 26.0667C175.784 26.0667 176.839 25.3222 177.639 23.8333C178.439 22.3444 178.839 20.0778 178.839 17.0333C178.839 13.9889 178.439 11.7222 177.639 10.2333C176.839 8.74444 175.784 8 174.473 8ZM224.527 12.3333H221.161V18.6667H218.161V4.53333H221.161V9.33333H224.527V12.3333ZM207.327 12.6333C206.416 14.1667 205.261 15.4222 203.861 16.4C202.461 17.3556 200.872 17.9556 199.094 18.2V15.3333C200.583 15.0667 201.872 14.4444 202.961 13.4667C204.05 12.4667 204.883 11.2111 205.461 9.7C206.039 8.18889 206.339 6.53333 206.361 4.73333L209.394 4.93333C209.394 6.75555 209.105 8.5 208.527 10.1667L215.994 15.2667L214.461 17.5667L207.327 12.6333ZM211.027 19.4667C214.183 19.4667 216.716 19.9 218.627 20.7667C220.539 21.6333 221.494 22.9778 221.494 24.8C221.494 26.6444 220.539 28 218.627 28.8667C216.716 29.7333 214.183 30.1667 211.027 30.1667C207.872 30.1667 205.339 29.7333 203.427 28.8667C201.516 28 200.561 26.6444 200.561 24.8C200.561 22.9778 201.516 21.6333 203.427 20.7667C205.339 19.9 207.872 19.4667 211.027 19.4667ZM211.027 27.5667C213.161 27.5667 214.905 27.3333 216.261 26.8667C217.616 26.4 218.294 25.7111 218.294 24.8C218.294 23.8889 217.616 23.2111 216.261 22.7667C214.927 22.3 213.183 22.0667 211.027 22.0667C208.872 22.0667 207.116 22.3 205.761 22.7667C204.427 23.2111 203.761 23.8889 203.761 24.8C203.761 25.7111 204.427 26.4 205.761 26.8667C207.116 27.3333 208.872 27.5667 211.027 27.5667ZM239.291 18.6333V4.66667H242.124V9.26667H246.057V4.53333H248.924V19.4667H246.057V12.1667H242.124V18.6333H239.291ZM231.991 13.2333C230.591 16.3889 228.402 18.2222 225.424 18.7333V15.8667C227.224 15.3778 228.535 14.1667 229.357 12.2333C230.202 10.2778 230.624 7.8 230.624 4.8L233.491 4.9C233.491 6.87778 233.324 8.68889 232.991 10.3333L238.691 15.9667L236.757 18.0333L231.991 13.2333ZM238.324 19.9333C241.568 19.9333 244.202 20.3444 246.224 21.1667C248.246 21.9889 249.257 23.2889 249.257 25.0667C249.257 26.8444 248.246 28.1444 246.224 28.9667C244.202 29.7667 241.568 30.1667 238.324 30.1667C235.08 30.1667 232.446 29.7667 230.424 28.9667C228.424 28.1444 227.424 26.8444 227.424 25.0667C227.424 23.2889 228.424 21.9889 230.424 21.1667C232.446 20.3444 235.08 19.9333 238.324 19.9333ZM238.324 27.6C240.546 27.6 242.391 27.4 243.857 27C245.346 26.5778 246.091 25.9333 246.091 25.0667C246.091 24.1778 245.346 23.5333 243.857 23.1333C242.391 22.7333 240.546 22.5333 238.324 22.5333C236.102 22.5333 234.257 22.7333 232.791 23.1333C231.324 23.5333 230.591 24.1778 230.591 25.0667C230.591 25.9333 231.324 26.5778 232.791 27C234.257 27.4 236.102 27.6 238.324 27.6ZM268.154 8.4V11.3H252.387V8.4H258.72V4.43333H261.787V8.4H268.154ZM273.954 17.8333V30.1333H270.954V4.53333H273.954V14.8H277.32V17.8333H273.954ZM260.254 13.2667C261.565 13.2667 262.732 13.6 263.754 14.2667C264.798 14.9111 265.609 15.8333 266.187 17.0333C266.765 18.2111 267.054 19.5667 267.054 21.1C267.054 22.6333 266.765 24 266.187 25.2C265.609 26.3778 264.798 27.3 263.754 27.9667C262.732 28.6111 261.565 28.9333 260.254 28.9333C258.943 28.9333 257.765 28.6111 256.72 27.9667C255.698 27.3 254.898 26.3778 254.32 25.2C253.743 24 253.454 22.6333 253.454 21.1C253.454 19.5667 253.743 18.2111 254.32 17.0333C254.898 15.8333 255.698 14.9111 256.72 14.2667C257.765 13.6 258.943 13.2667 260.254 13.2667ZM260.254 26.1667C261.387 26.1667 262.32 25.7 263.054 24.7667C263.787 23.8333 264.154 22.6111 264.154 21.1C264.154 19.5667 263.787 18.3333 263.054 17.4C262.32 16.4667 261.387 16 260.254 16C259.12 16 258.187 16.4667 257.454 17.4C256.72 18.3333 256.354 19.5667 256.354 21.1C256.354 22.6111 256.72 23.8333 257.454 24.7667C258.187 25.7 259.12 26.1667 260.254 26.1667ZM301.084 11.7667V14.4667H279.95V4.5H282.984V11.7667H301.084ZM278.217 19.9667V17.2667H302.55V19.9667H278.217ZM301.317 27.1333V29.8333H279.884V22.2H282.95V27.1333H301.317ZM333.339 17.8333V30.1333H330.339V4.53333H333.339V14.8H336.705V17.8333H333.339ZM321.805 5.23333C321.761 9.36667 321.439 12.9222 320.839 15.9L328.472 26.7667L326.039 28.5667L319.805 19.5667C318.939 22.3222 317.783 24.4889 316.339 26.0667C314.916 27.6222 313.272 28.4778 311.405 28.6333V25.4333C312.939 25.1667 314.25 24.1222 315.339 22.3C316.45 20.4556 317.283 18.0444 317.839 15.0667C318.416 12.0889 318.716 8.77778 318.739 5.13333L321.805 5.23333ZM337.735 10.1667V7.43333H344.535V4.26667H347.602V7.43333H354.468V10.1667H337.735ZM360.468 30.1333H357.468V4.53333H360.468V30.1333ZM347.602 25.8333C351.291 25.8333 353.924 25.4556 355.502 24.7V27.5667C354.724 27.9 353.646 28.1667 352.268 28.3667C350.891 28.5444 349.357 28.6333 347.668 28.6333H337.602V25.8333H344.602V22.1667C342.846 21.9667 341.468 21.4111 340.468 20.5C339.468 19.5889 338.968 18.4222 338.968 17C338.968 15.3556 339.613 14.0556 340.902 13.1C342.191 12.1444 343.935 11.6667 346.135 11.6667C348.313 11.6667 350.046 12.1444 351.335 13.1C352.624 14.0556 353.268 15.3556 353.268 17C353.268 18.4222 352.768 19.5889 351.768 20.5C350.768 21.4111 349.379 21.9667 347.602 22.1667V25.8333ZM341.835 17C341.835 17.8 342.202 18.4556 342.935 18.9667C343.691 19.4556 344.757 19.7 346.135 19.7C347.491 19.7 348.535 19.4556 349.268 18.9667C350.024 18.4556 350.402 17.8 350.402 17C350.402 16.1778 350.024 15.5111 349.268 15C348.535 14.4889 347.491 14.2333 346.135 14.2333C344.757 14.2333 343.691 14.4889 342.935 15C342.202 15.5111 341.835 16.1778 341.835 17Z" fill="#333333"/>
<path d="M112.302 388.61V396.751C112.302 409.718 105.835 418.283 93.2442 418.283C80.653 418.283 74.5283 409.718 74.5283 396.751V371.691C74.5283 358.645 80.8108 350 93.2442 350C105.678 350 112.302 358.671 112.302 371.691V379.143M101.314 371.718C101.314 363.312 98.0809 359.705 93.2442 359.705C88.6441 359.705 85.3321 363.312 85.3321 371.718V396.777C85.3321 405.183 88.5653 408.79 93.2442 408.79C97.9232 408.79 101.314 405.183 101.314 396.777V371.718Z" fill="#01A69F"/>
<path d="M170.192 396.491V388.666H147.068C144.729 388.666 142.811 386.723 142.811 384.295C142.811 381.893 144.703 379.923 147.068 379.923H203.932C206.27 379.923 208.189 381.866 208.189 384.295C208.189 386.696 206.297 388.666 203.932 388.666H181.15V396.491M186.168 350C199.859 350 205.298 355.423 205.298 363.194C205.298 370.965 199.859 376.281 186.168 376.281H165.594C151.982 376.281 146.543 370.857 146.543 363.194C146.543 355.531 151.982 350 165.594 350H186.168ZM186.668 367.727C192.37 367.727 193.894 365.542 193.894 363.194C193.894 360.847 192.37 358.742 186.668 358.742H165.173C159.313 358.742 157.868 360.847 157.868 363.194C157.868 365.542 159.313 367.727 165.173 367.727H186.668Z" fill="#01A69F"/>
<path d="M224.922 375.904V380.057C224.922 380.566 225.001 381.021 225.344 381.53L226.294 382.387C226.716 382.736 227.059 382.896 227.481 382.896H251.198C253.731 382.896 255.815 384.986 255.815 387.584V387.665C255.815 390.236 253.757 392.353 251.198 392.353H224.579C221.519 392.353 220.068 391.656 218.168 389.674L216.216 387.584C214.422 385.682 214 384.477 214 381.075V370.065C214 368.082 215.029 367.037 217.166 367.037H239.696C240.461 367.037 241.068 366.421 241.068 365.644V360.26H218.801C216.269 360.26 214.185 358.17 214.185 355.572C214.185 353 216.242 350.884 218.801 350.884H248.85C250.512 350.884 251.831 352.25 251.831 353.911V368.564C251.831 372.904 249.088 375.851 244.919 375.851H224.948L224.922 375.904ZM276.472 355.545V388.04C276.472 391.094 274.018 393.585 271.011 393.585C268.003 393.585 265.55 391.094 265.55 388.04V355.545C265.55 352.491 268.003 350 271.011 350C274.018 350 276.472 352.491 276.472 355.545Z" fill="#01A69F"/>
<path fill-rule="evenodd" clip-rule="evenodd" d="M107.943 384.868C107.943 382.461 109.97 380.51 112.469 380.51H131.021C133.521 380.51 135.547 382.461 135.547 384.868C135.547 387.275 133.521 389.227 131.021 389.227H112.469C109.97 389.227 107.943 387.275 107.943 384.868Z" fill="#01A69F"/>
<path fill-rule="evenodd" clip-rule="evenodd" d="M131.314 350C133.79 350 135.797 352.013 135.797 354.495V390.59C135.797 392.103 137.015 393.324 138.524 393.324H197.044C200.987 393.324 204.254 396.518 204.254 400.553V406.363C204.254 408.091 203.639 409.888 202.81 411.257C202.124 412.389 200.276 414.855 197.044 414.855H157.05C157.284 415.461 157.622 416.061 158.055 416.59C158.95 417.686 159.831 418.009 160.39 418.009H266.052V405.207H230.211V411.069C230.211 413.552 228.204 415.564 225.728 415.564C223.252 415.564 221.244 413.552 221.244 411.069V403.314C221.244 399.356 224.461 396.216 228.323 396.216H267.94C271.888 396.216 275.019 399.441 275.019 403.314V419.902C275.019 423.86 271.802 427 267.94 427H160.39C156.414 427 153.192 424.826 151.118 422.287C149.043 419.748 147.701 416.375 147.701 412.962C147.701 409.004 150.917 405.864 154.78 405.864H195.288V402.315H138.524C132.063 402.315 126.83 397.069 126.83 390.59V354.495C126.83 352.013 128.838 350 131.314 350Z" fill="#01A69F"/>
<path d="M181 92.6777V292.623" stroke="#01A69F" stroke-width="3" stroke-linecap="round"/>
</svg>
