<svg width="1920" height="886" viewBox="0 0 1920 886" fill="none" xmlns="http://www.w3.org/2000/svg">
<g filter="url(#filter0_d_69_3187)">
<rect width="1920" height="878" fill="#EBEBEB"/>
<path d="M781.12 510.76H771.947V527.827H756.587V482.707H771.947V495.293H781.12V510.76ZM726.4 511.72C723.058 516.342 719.004 520.04 714.24 522.813C709.547 525.587 704.391 527.116 698.773 527.4V512.893C702.827 512.396 706.382 510.831 709.44 508.2C712.569 505.498 714.987 501.978 716.693 497.64C718.471 493.302 719.396 488.431 719.467 483.027L734.933 483.987C734.933 489.533 734.151 494.689 732.587 499.453L753.707 513.64L745.92 525.267L726.4 511.72ZM737.6 529C748.267 529 756.764 530.458 763.093 533.373C769.493 536.218 772.693 540.84 772.693 547.24C772.693 553.64 769.493 558.298 763.093 561.213C756.764 564.129 748.267 565.587 737.6 565.587C726.933 565.587 718.4 564.129 712 561.213C705.671 558.298 702.507 553.64 702.507 547.24C702.507 540.84 705.671 536.218 712 533.373C718.4 530.458 726.933 529 737.6 529ZM737.6 552.68C743.147 552.68 747.591 552.253 750.933 551.4C754.347 550.476 756.053 549.089 756.053 547.24C756.053 545.391 754.347 544.04 750.933 543.187C747.591 542.333 743.147 541.907 737.6 541.907C732.053 541.907 727.573 542.333 724.16 543.187C720.747 544.04 719.04 545.391 719.04 547.24C719.04 549.089 720.747 550.476 724.16 551.4C727.573 552.253 732.053 552.68 737.6 552.68ZM856.415 512.04V527.08H841.055V482.707H856.415V496.36H865.589V512.04H856.415ZM837.429 521.64C835.438 522.564 832.735 523.276 829.322 523.773C825.98 524.271 822.46 524.52 818.762 524.52H784.949V483.667H832.949V497H800.415V511.187H819.402C822.958 511.187 826.335 510.973 829.535 510.547C832.735 510.049 835.367 509.373 837.429 508.52V521.64ZM856.415 529.96V564.627H787.615V529.96H856.415ZM841.055 551.293V543.293H803.082V551.293H841.055ZM945.258 564.627H930.964V482.707H945.258V564.627ZM925.737 483.027V563.24H911.658V544.36H903.658C902.235 550.404 900.102 554.813 897.258 557.587C894.484 560.36 890.929 561.747 886.591 561.747C880.262 561.747 875.533 558.689 872.404 552.573C869.275 546.387 867.711 536.431 867.711 522.707C867.711 509.053 869.275 499.133 872.404 492.947C875.533 486.76 880.262 483.667 886.591 483.667C890.644 483.667 894.022 484.911 896.724 487.4C899.426 489.818 901.524 493.622 903.018 498.813H911.658V483.027H925.737ZM886.591 547.24C888.298 547.24 889.506 545.32 890.218 541.48C891 537.569 891.391 531.311 891.391 522.707C891.391 514.102 891 507.88 890.218 504.04C889.506 500.2 888.298 498.28 886.591 498.28C884.884 498.28 883.675 500.2 882.964 504.04C882.253 507.88 881.898 514.102 881.898 522.707C881.898 531.311 882.253 537.569 882.964 541.48C883.675 545.32 884.884 547.24 886.591 547.24ZM911.658 513.853H905.258C905.471 516.484 905.578 519.436 905.578 522.707C905.578 525.693 905.542 527.898 905.471 529.32H911.658V513.853ZM1025.35 508.84H1034.53V522.6H1025.35V531.453H1009.99V482.707H1025.35V489.107H1034.53V502.867H1025.35V508.84ZM976.393 529.853C971.486 529.853 967.113 528.858 963.273 526.867C959.504 524.876 956.553 522.102 954.42 518.547C952.357 514.92 951.326 510.831 951.326 506.28C951.326 501.729 952.357 497.676 954.42 494.12C956.553 490.564 959.504 487.791 963.273 485.8C967.113 483.809 971.486 482.813 976.393 482.813C981.3 482.813 985.637 483.809 989.406 485.8C993.246 487.791 996.197 490.564 998.26 494.12C1000.39 497.676 1001.46 501.729 1001.46 506.28C1001.46 510.831 1000.39 514.92 998.26 518.547C996.197 522.102 993.246 524.876 989.406 526.867C985.637 528.858 981.3 529.853 976.393 529.853ZM976.393 496.147C973.406 496.147 971.024 497.071 969.246 498.92C967.468 500.698 966.58 503.151 966.58 506.28C966.58 509.48 967.468 512.004 969.246 513.853C971.024 515.631 973.406 516.52 976.393 516.52C979.308 516.52 981.655 515.596 983.433 513.747C985.282 511.898 986.206 509.409 986.206 506.28C986.206 503.151 985.282 500.698 983.433 498.92C981.655 497.071 979.308 496.147 976.393 496.147ZM1025.35 534.333V565.587H1009.67V548.2H957.193V534.333H1025.35Z" fill="#01A69F"/>
<path d="M1140.09 516.52H1131.13V544.893H1115.77V482.707H1131.13V501.267H1140.09V516.52ZM1111.29 533.693C1106.74 535.684 1099.91 536.68 1090.81 536.68H1057.74V523.56H1075.88V517.8C1070.68 516.733 1066.63 514.671 1063.72 511.613C1060.87 508.556 1059.45 504.751 1059.45 500.2C1059.45 494.582 1061.62 490.138 1065.96 486.867C1070.36 483.524 1076.27 481.853 1083.66 481.853C1090.99 481.853 1096.82 483.524 1101.16 486.867C1105.56 490.138 1107.77 494.582 1107.77 500.2C1107.77 504.751 1106.31 508.591 1103.4 511.72C1100.48 514.778 1096.43 516.804 1091.24 517.8V523.56C1100.27 523.56 1106.95 522.564 1111.29 520.573V533.693ZM1074.38 500.2C1074.38 502.12 1075.2 503.684 1076.84 504.893C1078.47 506.031 1080.75 506.6 1083.66 506.6C1086.51 506.6 1088.75 506.031 1090.38 504.893C1092.02 503.684 1092.84 502.12 1092.84 500.2C1092.84 498.28 1092.02 496.716 1090.38 495.507C1088.75 494.298 1086.51 493.693 1083.66 493.693C1080.75 493.693 1078.47 494.298 1076.84 495.507C1075.2 496.716 1074.38 498.28 1074.38 500.2ZM1132.3 550.973V564.627H1062.44V540.733H1078.01V550.973H1132.3ZM1221.04 561.747H1142.21V547.24H1159.06V537.427H1146.58V504.253H1201.52V498.707H1146.48V484.627H1216.77V517.693H1161.94V523.24H1217.62V537.427H1204.29V547.24H1221.04V561.747ZM1188.82 547.24V537.427H1174.42V547.24H1188.82Z" fill="black"/>
<path d="M784.967 627.4V633.467H782.567V619.533H784.967V624.967H788.5V627.4H784.967ZM777.667 622.867C777.667 626.222 776.444 628.7 774 630.3C771.578 631.878 768.167 632.667 763.767 632.667V630.433C767.433 630.411 770.267 629.822 772.267 628.667C774.267 627.489 775.267 625.678 775.267 623.233V622.4H763.767V620.233H777.667V622.867ZM784.967 634.967V644.733H764.8V634.967H784.967ZM782.567 642.567V637.133H767.233V642.567H782.567ZM811.363 632.533V645.133H808.963V619.533H811.363V630.133H814.896V632.533H811.363ZM799.796 620.267C799.752 624.444 799.43 628.022 798.83 631L806.663 642.033L804.696 643.467L798.03 633.967C797.208 636.833 796.085 639.1 794.663 640.767C793.241 642.411 791.596 643.333 789.73 643.533V641.033C791.352 640.744 792.73 639.644 793.863 637.733C795.019 635.822 795.885 633.344 796.463 630.3C797.041 627.256 797.341 623.889 797.363 620.2L799.796 620.267ZM815.826 623.8V621.8H822.86V619.067H825.293V621.8H832.326V623.8H815.826ZM837.76 627.433V634.133H835.36V619.533H837.76V625.1H841.293V627.433H837.76ZM824.093 634.233C822.026 634.233 820.326 633.822 818.993 633C817.66 632.178 816.993 631.089 816.993 629.733C816.993 628.378 817.66 627.289 818.993 626.467C820.326 625.644 822.026 625.233 824.093 625.233C825.426 625.233 826.626 625.422 827.693 625.8C828.782 626.156 829.626 626.678 830.226 627.367C830.849 628.033 831.16 628.822 831.16 629.733C831.16 630.644 830.849 631.444 830.226 632.133C829.626 632.8 828.782 633.322 827.693 633.7C826.626 634.056 825.426 634.233 824.093 634.233ZM824.093 627.133C822.649 627.133 821.482 627.378 820.593 627.867C819.726 628.356 819.293 628.978 819.293 629.733C819.293 630.489 819.726 631.111 820.593 631.6C821.482 632.089 822.649 632.333 824.093 632.333C825.537 632.333 826.693 632.089 827.56 631.6C828.426 631.111 828.86 630.489 828.86 629.733C828.86 628.978 828.426 628.356 827.56 627.867C826.693 627.378 825.537 627.133 824.093 627.133ZM837.76 635.267V644.733H817.593V635.267H819.96V637.867H835.393V635.267H837.76ZM835.393 639.8H819.96V642.733H835.393V639.8ZM862.423 645.167V619.533H864.856V645.133L862.423 645.167ZM853.689 641.2C854.845 641.2 855.989 641.089 857.123 640.867C858.278 640.622 859.234 640.311 859.989 639.933V642.267C859.256 642.667 858.312 642.978 857.156 643.2C856.023 643.422 854.867 643.533 853.689 643.533H843.723V620.367H846.189V641.2H853.689ZM890.553 632.533V645.133H888.153V619.533H890.553V630.133H894.086V632.533H890.553ZM879.519 641.233C880.675 641.233 881.83 641.122 882.986 640.9C884.141 640.656 885.086 640.344 885.819 639.967V642.3C885.108 642.678 884.164 642.978 882.986 643.2C881.808 643.422 880.619 643.533 879.419 643.533H869.886V620.533H883.919V622.833H872.319V641.233H879.519ZM897.549 644.167C897.038 644.167 896.605 644 896.249 643.667C895.916 643.311 895.749 642.867 895.749 642.333C895.749 641.822 895.916 641.4 896.249 641.067C896.605 640.711 897.038 640.533 897.549 640.533C898.06 640.533 898.482 640.711 898.816 641.067C899.171 641.4 899.349 641.822 899.349 642.333C899.349 642.867 899.171 643.311 898.816 643.667C898.482 644 898.06 644.167 897.549 644.167ZM910.427 622.033V619.9H931.227V629.033H928.827V622.033H910.427ZM933.027 633H908.76V630.867H918.127V625.467H920.56V630.867H933.027V633ZM931.56 642.7V644.767H910.527V635.733H931.293V637.8H912.927V642.7H931.56ZM962.148 624.967H957.715L957.548 622.7H962.148V619.533H964.515V638.6H962.148V631.867H957.548L957.715 629.6H962.148V624.967ZM956.915 627.233C956.915 628.656 956.615 629.933 956.015 631.067C955.415 632.178 954.548 633.056 953.415 633.7C952.304 634.322 950.982 634.633 949.448 634.633C947.937 634.633 946.615 634.322 945.482 633.7C944.348 633.056 943.482 632.178 942.882 631.067C942.282 629.933 941.982 628.656 941.982 627.233C941.982 625.811 942.282 624.544 942.882 623.433C943.482 622.3 944.348 621.422 945.482 620.8C946.615 620.156 947.937 619.833 949.448 619.833C950.982 619.833 952.304 620.156 953.415 620.8C954.548 621.422 955.415 622.3 956.015 623.433C956.615 624.544 956.915 625.811 956.915 627.233ZM944.382 627.233C944.382 628.833 944.837 630.111 945.748 631.067C946.682 632 947.915 632.467 949.448 632.467C951.004 632.467 952.237 632 953.148 631.067C954.059 630.111 954.515 628.833 954.515 627.233C954.515 625.633 954.059 624.356 953.148 623.4C952.237 622.444 951.004 621.967 949.448 621.967C947.915 621.967 946.682 622.444 945.748 623.4C944.837 624.356 944.382 625.633 944.382 627.233ZM965.082 644.733H944.315V636.467H946.748V642.433H965.082V644.733ZM990.045 628.2V635.567H987.645V619.533H990.045V625.767H993.578V628.2H990.045ZM980.778 622.3H969.011V620.233H983.145V628.267H971.478V632.333H977.611C979.389 632.333 980.978 632.222 982.378 632C983.8 631.778 984.911 631.478 985.711 631.1V633.167C984.956 633.544 983.856 633.844 982.411 634.067C980.967 634.267 979.323 634.367 977.478 634.367H969.078V626.3H980.778V622.3ZM990.045 637.067V645.067H987.611V639.233H969.645V637.067H990.045ZM998.641 622.867V633.133H1017.41V635.467H996.241V620.533H1017.14V622.867H998.641ZM994.541 643.833V641.467H1018.81V643.833H994.541ZM1041.1 645.133V619.533H1043.54V645.133H1041.1ZM1024.8 632.967V641.233H1032.37C1033.53 641.233 1034.68 641.122 1035.84 640.9C1036.99 640.678 1037.94 640.378 1038.67 640V642.3C1037.94 642.7 1036.99 643.011 1035.84 643.233C1034.68 643.433 1033.5 643.533 1032.3 643.533H1022.4V630.7H1033.67V622.833H1022.37V620.533H1036.04V632.967H1024.8ZM1068.27 634.233V619.533H1070.6V634.233H1068.27ZM1057.8 627.4C1057.16 629.4 1055.96 630.933 1054.2 632C1052.47 633.067 1050.39 633.611 1047.97 633.633V631.4C1050.39 631.4 1052.33 630.778 1053.8 629.533C1055.27 628.289 1056 626.511 1056 624.2V622.4H1047.97V620.233H1058.33V623.3C1058.33 623.722 1058.31 624.311 1058.27 625.067H1062.3V619.667H1064.6V633.967H1062.3V627.4H1057.8ZM1065.9 640.667C1065.15 641.844 1064.21 642.789 1063.1 643.5C1062.01 644.211 1060.86 644.622 1059.63 644.733L1055.27 640.8C1054.51 641.933 1053.58 642.844 1052.47 643.533C1051.38 644.222 1050.23 644.622 1049.03 644.733V642.433C1049.97 642.322 1050.87 641.933 1051.73 641.267C1052.6 640.6 1053.32 639.711 1053.9 638.6C1054.5 637.489 1054.85 636.267 1054.93 634.933L1057.27 635.267C1057.18 636.511 1056.88 637.733 1056.37 638.933L1060.27 642.3C1061.11 642.078 1061.91 641.633 1062.67 640.967C1063.45 640.278 1064.08 639.411 1064.57 638.367C1065.06 637.322 1065.35 636.178 1065.43 634.933L1067.8 635.267C1067.67 636.511 1067.39 637.678 1066.97 638.767L1072.33 643L1070.93 644.833L1065.9 640.667ZM1085.6 624.033C1084.29 625.456 1082.64 626.589 1080.66 627.433C1078.71 628.256 1076.71 628.689 1074.66 628.733V626.6C1076.26 626.533 1077.86 626.178 1079.46 625.533C1081.06 624.867 1082.43 623.967 1083.56 622.833C1084.72 621.678 1085.45 620.378 1085.76 618.933L1088.16 619.367C1087.92 620.478 1087.52 621.467 1086.96 622.333L1097.16 626.867L1096.3 628.767L1085.6 624.033ZM1098 633.033H1073.73V630.967H1098V633.033ZM1096.23 635.1V644.767H1075.5V635.1H1077.86V637.8H1093.86V635.1H1096.23ZM1093.86 639.767H1077.86V642.767H1093.86V639.767ZM1120.29 645.167V619.533H1122.73V645.133L1120.29 645.167ZM1111.56 641.2C1112.72 641.2 1113.86 641.089 1114.99 640.867C1116.15 640.622 1117.1 640.311 1117.86 639.933V642.267C1117.13 642.667 1116.18 642.978 1115.03 643.2C1113.89 643.422 1112.74 643.533 1111.56 643.533H1101.59V620.367H1104.06V641.2H1111.56ZM1148.42 632.533V645.133H1146.02V619.533H1148.42V630.133H1151.96V632.533H1148.42ZM1137.39 641.233C1138.55 641.233 1139.7 641.122 1140.86 640.9C1142.01 640.656 1142.96 640.344 1143.69 639.967V642.3C1142.98 642.678 1142.03 642.978 1140.86 643.2C1139.68 643.422 1138.49 643.533 1137.29 643.533H1127.76V620.533H1141.79V622.833H1130.19V641.233H1137.39ZM1155.42 644.167C1154.91 644.167 1154.48 644 1154.12 643.667C1153.79 643.311 1153.62 642.867 1153.62 642.333C1153.62 641.822 1153.79 641.4 1154.12 641.067C1154.48 640.711 1154.91 640.533 1155.42 640.533C1155.93 640.533 1156.35 640.711 1156.69 641.067C1157.04 641.4 1157.22 641.822 1157.22 642.333C1157.22 642.867 1157.04 643.311 1156.69 643.667C1156.35 644 1155.93 644.167 1155.42 644.167Z" fill="black"/>
<path d="M860 374.714V439H1002.86V374.714C1002.86 354.989 986.868 339 967.143 339H895.714C875.989 339 860 354.989 860 374.714Z" fill="#00A0C8"/>
<path d="M981.427 435.429V378.286C981.427 376.321 979.82 374.714 977.855 374.714V439H984.998C983.034 439 981.427 437.393 981.427 435.429Z" fill="#0082AA"/>
<path d="M913.57 342.571V367.282C913.57 370.275 917.035 371.943 919.374 370.071L924.285 366.143V367.571C924.285 369.543 925.885 371.143 927.856 371.143H934.999C936.97 371.143 938.57 369.543 938.57 367.571V366.143L943.481 370.071C945.82 371.943 949.285 370.279 949.285 367.282V342.571H913.57Z" fill="#0082AA"/>
<path d="M935.341 367.571H927.52C925.684 367.571 924.148 368.961 923.966 370.786L917.145 439H945.716L938.895 370.786C938.712 368.961 937.177 367.571 935.341 367.571Z" fill="#FAB400"/>
<path d="M934.999 367.571H927.857C925.885 367.571 924.285 365.971 924.285 364V360.429C924.285 358.457 925.885 356.857 927.857 356.857H934.999C936.971 356.857 938.571 358.457 938.571 360.429V364C938.571 365.971 936.971 367.571 934.999 367.571Z" fill="#FAB400"/>
<path d="M913.57 339V363.711C913.57 366.707 917.035 368.371 919.374 366.5L931.427 356.857L943.481 366.5C945.82 368.371 949.285 366.707 949.285 363.711V339H913.57Z" fill="#F0F0F0"/>
<path d="M949.285 321.143V339L931.427 356.857L913.57 339V321.143H949.285Z" fill="#F0C8A0"/>
<path d="M949.285 321.143V333.571C946.32 335.571 943.07 336.964 939.749 337.857C938.856 339.571 937.07 340.786 934.999 340.786H927.856C926.285 340.786 924.856 340.071 923.892 339H913.57V321.143H949.285Z" fill="#D2AA82"/>
<path d="M931.428 335.429C913.674 335.429 899.285 321.039 899.285 303.286V267.571H963.571V303.286C963.571 321.039 949.182 335.429 931.428 335.429Z" fill="#F0C8A0"/>
<path d="M927.856 335.429H906.427C896.581 335.429 888.57 327.418 888.57 317.571V299.714H895.713V317.571C895.713 323.479 900.52 328.286 906.427 328.286H927.856V335.429Z" fill="#0A5078"/>
<path d="M922.5 331.857C922.5 334.814 924.9 337.214 927.857 337.214H935C937.957 337.214 940.357 334.814 940.357 331.857C940.357 328.9 937.957 326.5 935 326.5H927.857C924.9 326.5 922.5 328.9 922.5 331.857Z" fill="#C80A50"/>
<path d="M931.43 246.143V267.571C931.43 273.489 936.226 278.286 942.144 278.286H963.573C963.573 260.532 949.183 246.143 931.43 246.143Z" fill="#0A5078"/>
<path d="M899.285 278.286H920.714C926.632 278.286 931.428 273.489 931.428 267.571V246.143C913.674 246.143 899.285 260.532 899.285 278.286Z" fill="#0A5078"/>
<path d="M967.145 281.857C965.17 281.857 963.573 280.261 963.573 278.286C963.573 260.561 949.155 246.143 931.43 246.143C913.705 246.143 899.287 260.561 899.287 278.286C899.287 280.261 897.691 281.857 895.716 281.857C893.741 281.857 892.145 280.261 892.145 278.286C892.145 256.625 909.77 239 931.43 239C953.091 239 970.716 256.625 970.716 278.286C970.716 280.261 969.12 281.857 967.145 281.857Z" fill="#00A0C8"/>
<path d="M885 285.429V296.143C885 300.089 888.196 303.286 892.143 303.286H899.286V278.286H892.143C888.196 278.286 885 281.482 885 285.429Z" fill="#C80A50"/>
<path d="M977.856 285.429V296.143C977.856 300.089 974.66 303.286 970.713 303.286H963.57V278.286H970.713C974.66 278.286 977.856 281.482 977.856 285.429Z" fill="#C80A50"/>
<path d="M956.43 278.286V296.143C956.43 300.089 959.626 303.286 963.573 303.286V278.286H956.43Z" fill="#D2AA82"/>
<path d="M931.43 290.786C930.445 290.786 929.645 291.586 929.645 292.571V303.286C929.645 304.271 930.445 305.071 931.43 305.071C932.416 305.071 933.216 304.271 933.216 303.286V292.571C933.216 291.586 932.416 290.786 931.43 290.786Z" fill="#D2AA82"/>
<path d="M945.716 296.143C947.688 296.143 949.287 294.544 949.287 292.571C949.287 290.599 947.688 289 945.716 289C943.744 289 942.145 290.599 942.145 292.571C942.145 294.544 943.744 296.143 945.716 296.143Z" fill="#0A5078"/>
<path d="M917.142 296.143C919.114 296.143 920.713 294.544 920.713 292.571C920.713 290.599 919.114 289 917.142 289C915.169 289 913.57 290.599 913.57 292.571C913.57 294.544 915.169 296.143 917.142 296.143Z" fill="#0A5078"/>
<path d="M931.427 321.143C922.566 321.143 915.355 313.932 915.355 305.071C915.355 304.086 916.155 303.286 917.141 303.286C918.127 303.286 918.927 304.086 918.927 305.071C918.927 311.964 924.534 317.571 931.427 317.571C938.32 317.571 943.927 311.964 943.927 305.071C943.927 304.086 944.727 303.286 945.713 303.286C946.698 303.286 947.498 304.086 947.498 305.071C947.498 313.932 940.288 321.143 931.427 321.143Z" fill="#0A5078"/>
<path d="M899.285 278.286V303.286C903.232 303.286 906.428 300.089 906.428 296.143V278.286H899.285Z" fill="#D2AA82"/>
<path d="M885.001 374.714V439H881.43V378.286C881.43 376.321 883.037 374.714 885.001 374.714Z" fill="#0082AA"/>
<path d="M1060 331.857V435.429C1060 437.393 1058.39 439 1056.43 439H985.001C983.037 439 981.43 437.393 981.43 435.429V342.571L995.715 328.286H1056.43C1058.39 328.286 1060 329.893 1060 331.857Z" fill="#F0F0F0"/>
<path d="M1035 328.286V335.429C1035 337.393 1033.39 339 1031.43 339H1010C1008.04 339 1006.43 337.393 1006.43 335.429V328.286H1035Z" fill="#D2D2D2"/>
<path d="M995.715 328.286V339C995.715 340.971 994.115 342.571 992.144 342.571H981.43L995.715 328.286Z" fill="#D2D2D2"/>
<path d="M1006.43 324.714V331.857C1006.43 333.829 1008.03 335.429 1010 335.429H1031.43C1033.4 335.429 1035 333.829 1035 331.857V324.714C1035 320.768 1031.8 317.571 1027.86 317.571H1013.57C1009.63 317.571 1006.43 320.768 1006.43 324.714Z" fill="#F0C8A0"/>
<path d="M1024.29 294.664V301.807C1024.29 303.782 1022.69 305.379 1020.72 305.379C1018.74 305.379 1017.14 303.782 1017.14 301.807V294.664C1017.14 292.689 1018.74 291.093 1020.72 291.093C1022.69 291.093 1024.29 292.689 1024.29 294.664Z" fill="#C80A50"/>
<path d="M1044.67 304.332L1039.62 309.382C1038.22 310.779 1035.96 310.779 1034.57 309.382C1033.17 307.986 1033.17 305.729 1034.57 304.332L1039.62 299.282C1041.01 297.886 1043.27 297.886 1044.67 299.282C1046.06 300.679 1046.06 302.936 1044.67 304.332Z" fill="#00A0C8"/>
<path d="M1006.86 309.382C1005.47 310.779 1003.21 310.779 1001.81 309.382L996.762 304.332C995.366 302.936 995.366 300.679 996.762 299.282C998.159 297.886 1000.42 297.886 1001.81 299.282L1006.86 304.332C1008.26 305.729 1008.26 307.986 1006.86 309.382Z" fill="#FAB400"/>
<path d="M1017.14 367.571C1016.23 367.571 1015.32 367.221 1014.62 366.525L1007.48 359.382C1006.08 357.986 1006.08 355.728 1007.48 354.332C1008.87 352.936 1011.13 352.936 1012.53 354.332L1017.14 358.95L1028.91 347.189C1030.3 345.793 1032.56 345.793 1033.96 347.189C1035.35 348.586 1035.35 350.843 1033.96 352.239L1019.67 366.525C1018.97 367.221 1018.06 367.571 1017.14 367.571Z" fill="#0A5078"/>
<path d="M1045.72 385.428H995.716C993.741 385.428 992.145 383.832 992.145 381.857C992.145 379.882 993.741 378.286 995.716 378.286H1045.72C1047.69 378.286 1049.29 379.882 1049.29 381.857C1049.29 383.832 1047.69 385.428 1045.72 385.428Z" fill="#0A5078"/>
<path d="M1006.43 399.714H995.716C993.741 399.714 992.145 398.118 992.145 396.143C992.145 394.168 993.741 392.571 995.716 392.571H1006.43C1008.41 392.571 1010 394.168 1010 396.143C1010 398.118 1008.41 399.714 1006.43 399.714Z" fill="#0A5078"/>
<path d="M1045.72 399.714H1020.72C1018.74 399.714 1017.14 398.118 1017.14 396.143C1017.14 394.168 1018.74 392.571 1020.72 392.571H1045.72C1047.69 392.571 1049.29 394.168 1049.29 396.143C1049.29 398.118 1047.69 399.714 1045.72 399.714Z" fill="#0A5078"/>
<path d="M1045.72 414H995.716C993.741 414 992.145 412.403 992.145 410.428C992.145 408.453 993.741 406.857 995.716 406.857H1045.72C1047.69 406.857 1049.29 408.453 1049.29 410.428C1049.29 412.403 1047.69 414 1045.72 414Z" fill="#0A5078"/>
<path d="M1045.72 428.286H1035C1033.03 428.286 1031.43 426.689 1031.43 424.714C1031.43 422.739 1033.03 421.143 1035 421.143H1045.72C1047.69 421.143 1049.29 422.739 1049.29 424.714C1049.29 426.689 1047.69 428.286 1045.72 428.286Z" fill="#0A5078"/>
<path d="M1020.72 428.286H995.716C993.741 428.286 992.145 426.689 992.145 424.714C992.145 422.739 993.741 421.143 995.716 421.143H1020.72C1022.69 421.143 1024.29 422.739 1024.29 424.714C1024.29 426.689 1022.69 428.286 1020.72 428.286Z" fill="#0A5078"/>
</g>
<defs>
<filter id="filter0_d_69_3187" x="-4" y="0" width="1928" height="886" filterUnits="userSpaceOnUse" color-interpolation-filters="sRGB">
<feFlood flood-opacity="0" result="BackgroundImageFix"/>
<feColorMatrix in="SourceAlpha" type="matrix" values="0 0 0 0 0 0 0 0 0 0 0 0 0 0 0 0 0 0 127 0" result="hardAlpha"/>
<feOffset dy="4"/>
<feGaussianBlur stdDeviation="2"/>
<feComposite in2="hardAlpha" operator="out"/>
<feColorMatrix type="matrix" values="0 0 0 0 0 0 0 0 0 0 0 0 0 0 0 0 0 0 0.25 0"/>
<feBlend mode="normal" in2="BackgroundImageFix" result="effect1_dropShadow_69_3187"/>
<feBlend mode="normal" in="SourceGraphic" in2="effect1_dropShadow_69_3187" result="shape"/>
</filter>
</defs>
</svg>
