<svg width="515" height="115" viewBox="0 0 515 115" fill="none" xmlns="http://www.w3.org/2000/svg">
<path d="M10.1386 7.03036V12.5926H9.07909V1.29156H10.1386V5.97089H11.6983V7.03036H10.1386ZM5.03249 1.61529C5.01287 3.45955 4.87063 5.03895 4.60576 6.35348L8.06376 11.2241L7.19558 11.8568L4.2526 7.6631C3.88963 8.92858 3.39423 9.9292 2.7664 10.6649C2.13856 11.3909 1.41263 11.798 0.588595 11.8863V10.7827C1.30472 10.6551 1.91294 10.1695 2.41324 9.32589C2.92336 8.48223 3.30594 7.38843 3.561 6.04447C3.81606 4.70051 3.94849 3.2143 3.9583 1.58586L5.03249 1.61529ZM21.026 12.5926V1.29156H22.1002V12.5926H21.026ZM15.8464 1.58586C16.8274 1.58586 17.6073 2.0273 18.186 2.9102C18.7746 3.79309 19.0689 5.0929 19.0689 6.80964C19.0689 8.52638 18.7746 9.82619 18.186 10.7091C17.6073 11.592 16.8274 12.0334 15.8464 12.0334C14.8654 12.0334 14.0806 11.592 13.492 10.7091C12.9132 9.82619 12.6238 8.52638 12.6238 6.80964C12.6238 5.0929 12.9132 3.79309 13.492 2.9102C14.0806 2.0273 14.8654 1.58586 15.8464 1.58586ZM15.8464 2.60118C15.1891 2.60118 14.6643 2.95434 14.2719 3.66066C13.8795 4.35716 13.6833 5.40682 13.6833 6.80964C13.6833 8.22227 13.8795 9.27684 14.2719 9.97334C14.6643 10.6698 15.1891 11.0181 15.8464 11.0181C16.484 11.0181 17.004 10.6698 17.4062 9.97334C17.8084 9.26703 18.0095 8.21246 18.0095 6.80964C18.0095 5.41663 17.8084 4.36697 17.4062 3.66066C17.004 2.95434 16.484 2.60118 15.8464 2.60118ZM24.5413 8.88444V1.733H33.7528V2.73362H25.5861V4.82313H33.6351V5.7796H25.5861V7.89854H33.9294V8.88444H24.5413ZM34.4886 12.0187H23.7762V10.9887H34.4886V12.0187ZM42.5508 6.02975V5.02914H44.4343V3.35164H42.5508V2.36575H44.4343V1.29156H45.4791V7.54539H44.4343V6.02975H42.5508ZM35.9291 6.83907V1.60057H41.8886V6.83907H35.9291ZM36.9591 2.55704V5.8826H40.8292V2.55704H36.9591ZM40.9763 7.9574C42.3693 7.9574 43.4827 8.1487 44.3166 8.53128C45.1602 8.90406 45.5821 9.48285 45.5821 10.2676C45.5821 11.0524 45.1602 11.6312 44.3166 12.004C43.4827 12.3768 42.3693 12.5632 40.9763 12.5632C39.5931 12.5632 38.4846 12.3768 37.6507 12.004C36.8169 11.6312 36.4 11.0524 36.4 10.2676C36.4 9.48285 36.8169 8.90406 37.6507 8.53128C38.4846 8.1487 39.5931 7.9574 40.9763 7.9574ZM40.9763 11.6361C41.9965 11.6361 42.8304 11.5184 43.4778 11.283C44.1253 11.0475 44.449 10.7091 44.449 10.2676C44.449 9.81638 44.1253 9.47304 43.4778 9.2376C42.8304 9.00216 41.9965 8.88444 40.9763 8.88444C39.9561 8.88444 39.1222 9.00216 38.4748 9.2376C37.8371 9.47304 37.5183 9.81638 37.5183 10.2676C37.5183 10.7091 37.8371 11.0475 38.4748 11.283C39.1222 11.5184 39.9561 11.6361 40.9763 11.6361ZM51.095 4.61712C50.8595 4.61712 50.6633 4.53864 50.5064 4.38168C50.3494 4.22473 50.2709 4.02853 50.2709 3.79309C50.2709 3.55765 50.3494 3.36636 50.5064 3.21921C50.6633 3.06225 50.8595 2.98377 51.095 2.98377C51.3304 2.98377 51.5266 3.06225 51.6836 3.21921C51.8405 3.36636 51.919 3.55765 51.919 3.79309C51.919 4.02853 51.8405 4.22473 51.6836 4.38168C51.5266 4.53864 51.3304 4.61712 51.095 4.61712ZM51.095 10.9004C50.8693 10.9004 50.6731 10.8219 50.5064 10.6649C50.3494 10.508 50.2709 10.3118 50.2709 10.0763C50.2709 9.84091 50.3494 9.64471 50.5064 9.48775C50.6731 9.33079 50.8693 9.25231 51.095 9.25231C51.3206 9.25231 51.5119 9.33079 51.6689 9.48775C51.8356 9.64471 51.919 9.84091 51.919 10.0763C51.919 10.3118 51.8356 10.508 51.6689 10.6649C51.5119 10.8219 51.3206 10.9004 51.095 10.9004ZM66.0943 12.5926H65.0348V7.11865H62.8276C62.7883 8.73729 62.4842 9.96353 61.9152 10.7974C61.3463 11.6214 60.5958 12.0334 59.6639 12.0334C58.6927 12.0334 57.9177 11.592 57.3389 10.7091C56.7699 9.82619 56.4855 8.52638 56.4855 6.80964C56.4855 5.0929 56.7699 3.79309 57.3389 2.9102C57.9177 2.0273 58.6927 1.58586 59.6639 1.58586C60.5566 1.58586 61.2825 1.96354 61.8417 2.7189C62.4008 3.47427 62.7246 4.5926 62.8129 6.0739H65.0348V1.29156H66.0943V12.5926ZM59.6639 11.0181C60.3015 11.0181 60.8116 10.6698 61.1942 9.97334C61.5768 9.27684 61.7681 8.22227 61.7681 6.80964C61.7681 5.40682 61.5768 4.35716 61.1942 3.66066C60.8116 2.95434 60.3015 2.60118 59.6639 2.60118C59.0262 2.60118 58.5112 2.95434 58.1188 3.66066C57.7362 4.35716 57.5449 5.40682 57.5449 6.80964C57.5449 8.22227 57.7362 9.27684 58.1188 9.97334C58.5112 10.6698 59.0262 11.0181 59.6639 11.0181ZM73.0529 5.35287C71.6697 5.35287 70.5415 5.1861 69.6684 4.85256C68.7953 4.51902 68.3588 4.004 68.3588 3.3075C68.3588 2.61099 68.7904 2.10088 69.6537 1.77715C70.5268 1.44361 71.6598 1.27684 73.0529 1.27684C74.4459 1.27684 75.574 1.44361 76.4373 1.77715C77.3006 2.10088 77.7322 2.61099 77.7322 3.3075C77.7322 4.004 77.2956 4.51902 76.4226 4.85256C75.5593 5.1861 74.4361 5.35287 73.0529 5.35287ZM73.0529 2.14502C72.013 2.14502 71.1546 2.24312 70.4778 2.43932C69.8009 2.62571 69.4624 2.9151 69.4624 3.3075C69.4624 3.69989 69.796 3.99419 70.463 4.19039C71.1399 4.37678 72.0032 4.46997 73.0529 4.46997C74.0927 4.46997 74.9462 4.37678 75.6132 4.19039C76.2901 3.99419 76.6286 3.69989 76.6286 3.3075C76.6286 2.9151 76.2901 2.62571 75.6132 2.43932C74.9462 2.24312 74.0927 2.14502 73.0529 2.14502ZM73.5826 8.06041H77.6439V10.5914H69.5066V11.6214H77.8352V12.4307H68.4765V9.87034H76.5991V8.86972H68.4471V8.06041H72.5231V6.92736H67.6966V6.05918H78.4091V6.92736H73.5826V8.06041ZM88.2518 7.91326V1.29156H89.326V7.91326H88.2518ZM80.9385 4.95556V6.55949H83.7785C84.5633 6.55949 85.2647 6.51534 85.8827 6.42705C86.5105 6.32895 86.9961 6.19652 87.3395 6.02975V6.94207C86.9961 7.10884 86.5056 7.24128 85.868 7.33938C85.2303 7.42767 84.5142 7.47181 83.7196 7.47181H79.879V4.1021H85.1322V2.49818H79.8496V1.60057H86.1917V4.95556H80.9385ZM80.3057 12.416V8.57543H89.326V12.416H80.3057ZM88.2665 9.50246H81.3505V11.489H88.2665V9.50246ZM96.1338 1.17384V14.9323H95.089V1.17384H96.1338ZM111.438 12.5926H110.423V6.9715H108.481V12.4013H107.48V1.35042H108.481V5.92675H110.423V1.29156H111.438V12.5926ZM104.125 10.8857C104.586 10.8857 105.037 10.8464 105.479 10.7679C105.92 10.6895 106.303 10.5816 106.626 10.4442V11.4301C106.303 11.5773 105.91 11.6901 105.449 11.7686C104.988 11.847 104.503 11.8863 103.993 11.8863H101.535V1.733H106.17V2.73362H102.565V10.8857H104.125ZM123.532 12.0187H112.82V11.0034H115.572V8.17813H113.394V7.1628H115.351V2.83662H113.497V1.82129H122.841V2.83662H121.001V7.1628H122.958V8.17813H120.781V11.0034H123.532V12.0187ZM119.942 7.1628V2.83662H116.41V7.1628H119.942ZM119.706 11.0034V8.17813H116.631V11.0034H119.706ZM134.14 7.03036V12.5926H133.081V1.29156H134.14V5.97089H135.7V7.03036H134.14ZM128.799 2.76305C128.779 4.18549 128.671 5.44116 128.475 6.53006L131.992 11.1358L131.153 11.7833L128.137 7.79554C127.783 9.00216 127.308 9.95863 126.709 10.6649C126.111 11.3614 125.414 11.7686 124.62 11.8863V10.7827C125.257 10.6453 125.807 10.2186 126.268 9.50246C126.729 8.77653 127.082 7.83478 127.327 6.67721C127.582 5.51964 127.72 4.21492 127.739 2.76305H124.855V1.733H131.609V2.76305H128.799ZM140.139 4.61712C139.903 4.61712 139.707 4.53864 139.55 4.38168C139.393 4.22473 139.315 4.02853 139.315 3.79309C139.315 3.55765 139.393 3.36636 139.55 3.21921C139.707 3.06225 139.903 2.98377 140.139 2.98377C140.374 2.98377 140.57 3.06225 140.727 3.21921C140.884 3.36636 140.963 3.55765 140.963 3.79309C140.963 4.02853 140.884 4.22473 140.727 4.38168C140.57 4.53864 140.374 4.61712 140.139 4.61712ZM140.139 10.9004C139.913 10.9004 139.717 10.8219 139.55 10.6649C139.393 10.508 139.315 10.3118 139.315 10.0763C139.315 9.84091 139.393 9.64471 139.55 9.48775C139.717 9.33079 139.913 9.25231 140.139 9.25231C140.364 9.25231 140.556 9.33079 140.713 9.48775C140.879 9.64471 140.963 9.84091 140.963 10.0763C140.963 10.3118 140.879 10.508 140.713 10.6649C140.556 10.8219 140.364 10.9004 140.139 10.9004ZM150.444 6.0739C149.071 6.0739 147.938 5.87279 147.045 5.47059C146.152 5.05857 145.706 4.45526 145.706 3.66066C145.706 2.87586 146.152 2.27746 147.045 1.86544C147.947 1.44361 149.08 1.2327 150.444 1.2327C151.798 1.2327 152.921 1.44361 153.814 1.86544C154.716 2.27746 155.167 2.87586 155.167 3.66066C155.167 4.45526 154.721 5.05857 153.828 5.47059C152.936 5.87279 151.808 6.0739 150.444 6.0739ZM150.444 2.15974C149.424 2.15974 148.565 2.29217 147.869 2.55704C147.172 2.82191 146.824 3.18978 146.824 3.66066C146.824 4.14134 147.172 4.51412 147.869 4.77899C148.565 5.03404 149.424 5.16157 150.444 5.16157C151.464 5.16157 152.318 5.03404 153.004 4.77899C153.701 4.51412 154.049 4.14134 154.049 3.66066C154.049 3.18978 153.701 2.82191 153.004 2.55704C152.308 2.29217 151.454 2.15974 150.444 2.15974ZM155.8 8.03098H153.107V10.1499H152.033V8.03098H149.885V10.1499H148.825V8.03098H145.088V7.08922H155.8V8.03098ZM155.226 11.4743V12.4307H145.853V9.2376H146.912V11.4743H155.226ZM163.009 4.26397V3.26335H165.731V1.29156H166.791V7.64839H165.731V4.26397H163.009ZM160.301 4.86728C159.929 5.54416 159.443 6.10333 158.845 6.54477C158.246 6.98622 157.56 7.2658 156.785 7.38352V6.36819C157.461 6.23086 158.045 5.92675 158.536 5.45587C159.036 4.97518 159.414 4.38659 159.669 3.69008C159.934 2.98377 160.071 2.2235 160.081 1.40928L161.14 1.46814C161.14 2.37065 161.008 3.19959 160.743 3.95495L164.083 6.36819L163.495 7.1628L160.301 4.86728ZM162.288 8.06041C163.671 8.06041 164.78 8.24679 165.613 8.61957C166.457 8.98254 166.879 9.54661 166.879 10.3118C166.879 11.077 166.457 11.6459 165.613 12.0187C164.78 12.3817 163.671 12.5632 162.288 12.5632C160.905 12.5632 159.796 12.3817 158.962 12.0187C158.128 11.6459 157.712 11.077 157.712 10.3118C157.712 9.54661 158.128 8.98254 158.962 8.61957C159.796 8.24679 160.905 8.06041 162.288 8.06041ZM162.288 11.6361C163.318 11.6361 164.152 11.5233 164.789 11.2977C165.437 11.0721 165.761 10.7434 165.761 10.3118C165.761 9.88015 165.437 9.55151 164.789 9.32589C164.142 9.10026 163.308 8.98744 162.288 8.98744C161.268 8.98744 160.434 9.10026 159.786 9.32589C159.149 9.55151 158.83 9.88015 158.83 10.3118C158.83 10.7434 159.149 11.0721 159.786 11.2977C160.434 11.5233 161.268 11.6361 162.288 11.6361ZM168.834 2.92491V2.04202H173.19V0.835397H174.264V2.04202H178.664V2.92491H168.834ZM169.261 5.35287C169.261 4.77408 169.663 4.33754 170.468 4.04324C171.282 3.74894 172.376 3.6018 173.749 3.6018C175.113 3.6018 176.197 3.74894 177.001 4.04324C177.806 4.33754 178.208 4.77408 178.208 5.35287C178.208 5.93165 177.806 6.36819 177.001 6.66249C176.197 6.95679 175.113 7.10394 173.749 7.10394C172.376 7.10394 171.282 6.95679 170.468 6.66249C169.663 6.36819 169.261 5.93165 169.261 5.35287ZM177.148 5.35287C177.148 5.04876 176.834 4.81823 176.207 4.66127C175.579 4.4945 174.76 4.41111 173.749 4.41111C172.739 4.41111 171.92 4.4945 171.292 4.66127C170.664 4.81823 170.35 5.04876 170.35 5.35287C170.35 5.65697 170.664 5.89241 171.292 6.05918C171.92 6.21614 172.739 6.29462 173.749 6.29462C174.76 6.29462 175.579 6.21614 176.207 6.05918C176.834 5.89241 177.148 5.65697 177.148 5.35287ZM179.105 8.79615H174.279V10.3118H173.22V8.79615H168.393V7.89854H179.105V8.79615ZM178.532 11.5037V12.4307H169.173V9.75262H170.247V11.5037H178.532ZM10.1386 33.0304V38.5926H9.07909V27.2916H10.1386V31.9709H11.6983V33.0304H10.1386ZM5.03249 27.6153C5.01287 29.4596 4.87063 31.0389 4.60576 32.3535L8.06376 37.2241L7.19558 37.8568L4.2526 33.6631C3.88963 34.9286 3.39423 35.9292 2.7664 36.6649C2.13856 37.3909 1.41263 37.798 0.588595 37.8863V36.7827C1.30472 36.6551 1.91294 36.1695 2.41324 35.3259C2.92336 34.4822 3.30594 33.3884 3.561 32.0445C3.81606 30.7005 3.94849 29.2143 3.9583 27.5859L5.03249 27.6153ZM22.1738 33.1775H21.1143V30.676H18.7746C18.6667 31.3725 18.3283 31.9317 17.7593 32.3535C17.1903 32.7753 16.4546 32.9862 15.5521 32.9862C14.885 32.9862 14.3013 32.8685 13.801 32.6331C13.3105 32.3976 12.9279 32.069 12.6533 31.6472C12.3884 31.2253 12.2559 30.7447 12.2559 30.2051C12.2559 29.6754 12.3884 29.1996 12.6533 28.7778C12.9279 28.3559 13.3105 28.0273 13.801 27.7919C14.3013 27.5564 14.885 27.4387 15.5521 27.4387C16.4252 27.4387 17.1462 27.6398 17.7152 28.042C18.2841 28.4442 18.6324 28.9789 18.7599 29.6459H21.1143V27.2916H22.1738V33.1775ZM15.5521 32.0445C16.2192 32.0445 16.7587 31.8826 17.1707 31.5589C17.5827 31.2253 17.7887 30.7741 17.7887 30.2051C17.7887 29.6459 17.5827 29.2045 17.1707 28.8808C16.7587 28.5472 16.2192 28.3805 15.5521 28.3805C14.885 28.3805 14.3455 28.5472 13.9334 28.8808C13.5214 29.2045 13.3154 29.6459 13.3154 30.2051C13.3154 30.7741 13.5214 31.2253 13.9334 31.5589C14.3455 31.8826 14.885 32.0445 15.5521 32.0445ZM22.1738 33.6925V38.416H13.2566V33.6925H14.3013V35.0316H21.129V33.6925H22.1738ZM21.129 35.9439H14.3013V37.489H21.129V35.9439ZM33.4438 33.0304V38.5926H32.3844V27.2916H33.4438V31.9709H35.0036V33.0304H33.4438ZM28.1023 28.763C28.0827 30.1855 27.9748 31.4412 27.7786 32.5301L31.2955 37.1358L30.4567 37.7833L27.4402 33.7955C27.087 35.0022 26.6112 35.9586 26.0128 36.6649C25.4144 37.3614 24.7179 37.7686 23.9233 37.8863V36.7827C24.5609 36.6453 25.1103 36.2186 25.5714 35.5025C26.0324 34.7765 26.3856 33.8348 26.6308 32.6772C26.8859 31.5196 27.0232 30.2149 27.0429 28.763H24.1587V27.733H30.9129V28.763H28.1023ZM37.2976 28.3657V30.367H45.4643V31.2793H36.2381V27.4534H45.3466V28.3657H37.2976ZM35.4288 33.413V32.5006H46.1412V33.413H35.4288ZM40.785 34.5313C42.178 34.5313 43.3062 34.6931 44.1694 35.0169C45.0425 35.3308 45.4791 35.8458 45.4791 36.5619C45.4791 37.2781 45.0425 37.798 44.1694 38.1217C43.3062 38.4454 42.178 38.6073 40.785 38.6073C39.392 38.6073 38.259 38.4454 37.3859 38.1217C36.5226 37.798 36.091 37.2781 36.091 36.5619C36.091 35.8458 36.5226 35.3308 37.3859 35.0169C38.259 34.6931 39.392 34.5313 40.785 34.5313ZM40.785 35.4289C39.7746 35.4289 38.9211 35.5221 38.2246 35.7085C37.5379 35.8851 37.1946 36.1695 37.1946 36.5619C37.1946 36.9641 37.5379 37.2584 38.2246 37.4448C38.9113 37.6214 39.7648 37.7097 40.785 37.7097C41.7954 37.7097 42.644 37.6214 43.3307 37.4448C44.0174 37.2584 44.3607 36.9641 44.3607 36.5619C44.3607 36.1695 44.0174 35.8851 43.3307 35.7085C42.644 35.5221 41.7954 35.4289 40.785 35.4289ZM57.7939 34.4724H47.0814V33.5601H51.9079V32.3535H47.9055V29.5135H55.9692V28.2775H47.8907V27.4534H56.9993V30.2787H48.9355V31.5442H57.1611V32.3535H52.9674V33.5601H57.7939V34.4724ZM57.014 35.6055V38.5779H55.9545V36.5178H47.7583V35.6055H57.014ZM59.2197 33.8103V27.5123H60.2497V29.5577H64.3846V27.5123H65.4441V30.1168H67.7249V27.2916H68.7843V35.6938H67.7249V31.1616H65.4441V33.8103H59.2197ZM64.3846 30.5141H60.2497V32.8538H64.3846V30.5141ZM69.0345 38.416H59.7347V34.8697H60.8089V37.4007H69.0345V38.416ZM70.7693 29.8519V28.8366H75.1838V27.1444H76.2579V28.8366H80.7018V29.8519H70.7693ZM81.0991 38.0187H70.3867V37.0181H75.2132V35.1199C74.0164 35.0708 73.0599 34.8697 72.3438 34.5166C71.6375 34.1536 71.2843 33.6239 71.2843 32.9274C71.2843 32.172 71.6914 31.6128 72.5057 31.2499C73.3199 30.8869 74.399 30.7054 75.7429 30.7054C77.0771 30.7054 78.1513 30.8869 78.9655 31.2499C79.7797 31.6128 80.1868 32.172 80.1868 32.9274C80.1868 33.6239 79.8288 34.1536 79.1126 34.5166C78.4063 34.8697 77.4597 35.0708 76.2727 35.1199V37.0181H81.0991V38.0187ZM72.3732 32.9274C72.3732 33.359 72.6773 33.6778 73.2855 33.8838C73.9036 34.0898 74.7227 34.1928 75.7429 34.1928C76.7533 34.1928 77.5627 34.0898 78.1709 33.8838C78.7889 33.6778 79.0979 33.359 79.0979 32.9274C79.0979 32.4859 78.7889 32.1622 78.1709 31.9562C77.5627 31.7502 76.7533 31.6472 75.7429 31.6472C74.7227 31.6472 73.9036 31.7502 73.2855 31.9562C72.6773 32.1622 72.3732 32.4859 72.3732 32.9274ZM86.0529 30.6171C85.8174 30.6171 85.6212 30.5386 85.4643 30.3817C85.3073 30.2247 85.2289 30.0285 85.2289 29.7931C85.2289 29.5577 85.3073 29.3664 85.4643 29.2192C85.6212 29.0622 85.8174 28.9838 86.0529 28.9838C86.2883 28.9838 86.4845 29.0622 86.6415 29.2192C86.7984 29.3664 86.8769 29.5577 86.8769 29.7931C86.8769 30.0285 86.7984 30.2247 86.6415 30.3817C86.4845 30.5386 86.2883 30.6171 86.0529 30.6171ZM86.0529 36.9004C85.8273 36.9004 85.6311 36.8219 85.4643 36.6649C85.3073 36.508 85.2289 36.3118 85.2289 36.0763C85.2289 35.8409 85.3073 35.6447 85.4643 35.4878C85.6311 35.3308 85.8273 35.2523 86.0529 35.2523C86.2785 35.2523 86.4698 35.3308 86.6268 35.4878C86.7935 35.6447 86.8769 35.8409 86.8769 36.0763C86.8769 36.3118 86.7935 36.508 86.6268 36.6649C86.4698 36.8219 86.2785 36.9004 86.0529 36.9004ZM95.4458 31.912C96.1227 31.912 96.7211 32.0396 97.241 32.2946C97.7708 32.5497 98.1828 32.9126 98.4771 33.3835C98.7714 33.8446 98.9185 34.3841 98.9185 35.0022C98.9185 35.6398 98.7616 36.199 98.4477 36.6797C98.1435 37.1603 97.7217 37.5331 97.1822 37.798C96.6524 38.0629 96.054 38.1953 95.387 38.1953C94.0234 38.1953 92.9688 37.744 92.2233 36.8415C91.4875 35.939 91.1196 34.6686 91.1196 33.0304C91.1196 31.8826 91.3158 30.9114 91.7082 30.1168C92.1006 29.3124 92.6549 28.7091 93.371 28.3069C94.0871 27.8949 94.9161 27.6889 95.8578 27.6889C96.8879 27.6889 97.7168 27.8851 98.3446 28.2775L97.8738 29.1456C97.3931 28.8317 96.7309 28.6748 95.8873 28.6748C94.7689 28.6748 93.8909 29.0328 93.2533 29.7489C92.6157 30.4553 92.2968 31.4853 92.2968 32.8391C92.2968 33.0941 92.3214 33.4031 92.3704 33.7661C92.596 33.1775 92.9835 32.7214 93.5329 32.3976C94.0822 32.0739 94.7199 31.912 95.4458 31.912ZM95.3281 37.2683C96.0638 37.2683 96.6573 37.0671 97.1086 36.6649C97.5697 36.2529 97.8002 35.7134 97.8002 35.0463C97.8002 34.3694 97.5697 33.8299 97.1086 33.4277C96.6573 33.0255 96.0393 32.8244 95.2545 32.8244C94.7542 32.8244 94.303 32.9225 93.9008 33.1187C93.5084 33.3149 93.1993 33.5846 92.9737 33.928C92.7579 34.2713 92.65 34.649 92.65 35.061C92.65 35.4436 92.753 35.8066 92.959 36.1499C93.165 36.4835 93.4691 36.7532 93.8713 36.9592C94.2833 37.1652 94.7689 37.2683 95.3281 37.2683ZM104.279 31.912C104.956 31.912 105.554 32.0396 106.074 32.2946C106.604 32.5497 107.016 32.9126 107.31 33.3835C107.605 33.8446 107.752 34.3841 107.752 35.0022C107.752 35.6398 107.595 36.199 107.281 36.6797C106.977 37.1603 106.555 37.5331 106.015 37.798C105.486 38.0629 104.887 38.1953 104.22 38.1953C102.857 38.1953 101.802 37.744 101.056 36.8415C100.321 35.939 99.9529 34.6686 99.9529 33.0304C99.9529 31.8826 100.149 30.9114 100.541 30.1168C100.934 29.3124 101.488 28.7091 102.204 28.3069C102.92 27.8949 103.749 27.6889 104.691 27.6889C105.721 27.6889 106.55 27.8851 107.178 28.2775L106.707 29.1456C106.226 28.8317 105.564 28.6748 104.72 28.6748C103.602 28.6748 102.724 29.0328 102.087 29.7489C101.449 30.4553 101.13 31.4853 101.13 32.8391C101.13 33.0941 101.155 33.4031 101.204 33.7661C101.429 33.1775 101.817 32.7214 102.366 32.3976C102.915 32.0739 103.553 31.912 104.279 31.912ZM104.161 37.2683C104.897 37.2683 105.491 37.0671 105.942 36.6649C106.403 36.2529 106.633 35.7134 106.633 35.0463C106.633 34.3694 106.403 33.8299 105.942 33.4277C105.491 33.0255 104.873 32.8244 104.088 32.8244C103.587 32.8244 103.136 32.9225 102.734 33.1187C102.342 33.3149 102.033 33.5846 101.807 33.928C101.591 34.2713 101.483 34.649 101.483 35.061C101.483 35.4436 101.586 35.8066 101.792 36.1499C101.998 36.4835 102.302 36.7532 102.705 36.9592C103.117 37.1652 103.602 37.2683 104.161 37.2683ZM112.744 32.2063C113.824 32.2554 114.643 32.5448 115.202 33.0745C115.771 33.5944 116.055 34.2811 116.055 35.1346C116.055 35.7232 115.913 36.248 115.629 36.7091C115.344 37.1702 114.917 37.5331 114.348 37.798C113.789 38.0629 113.107 38.1953 112.303 38.1953C111.548 38.1953 110.836 38.0776 110.169 37.8421C109.512 37.5969 108.987 37.2683 108.595 36.8562L109.095 35.9881C109.438 36.3412 109.89 36.6306 110.449 36.8562C111.018 37.0721 111.626 37.18 112.274 37.18C113.117 37.18 113.765 36.9985 114.216 36.6355C114.677 36.2725 114.908 35.7722 114.908 35.1346C114.908 34.4871 114.682 33.9868 114.231 33.6337C113.779 33.2805 113.088 33.1039 112.156 33.1039H111.405V32.3093L114.231 28.763H109.007V27.7919H115.643V28.557L112.744 32.2063ZM121.798 32.4712V33.413H117.899V32.4712H121.798ZM129.012 32.6919C129.679 32.8979 130.194 33.2217 130.557 33.6631C130.92 34.0947 131.101 34.6147 131.101 35.2229C131.101 36.145 130.738 36.8709 130.012 37.4007C129.296 37.9304 128.32 38.1953 127.084 38.1953C125.838 38.1953 124.857 37.9304 124.141 37.4007C123.435 36.8709 123.082 36.145 123.082 35.2229C123.082 34.6049 123.258 34.08 123.611 33.6484C123.974 33.2168 124.484 32.8979 125.142 32.6919C124.602 32.5055 124.185 32.2161 123.891 31.8237C123.597 31.4313 123.449 30.9654 123.449 30.4258C123.449 29.5822 123.778 28.9151 124.435 28.4246C125.102 27.9341 125.985 27.6889 127.084 27.6889C128.193 27.6889 129.075 27.9341 129.733 28.4246C130.4 28.9151 130.733 29.5822 130.733 30.4258C130.733 30.9654 130.581 31.4313 130.277 31.8237C129.983 32.2063 129.561 32.4957 129.012 32.6919ZM127.084 28.6012C126.309 28.6012 125.696 28.768 125.245 29.1015C124.803 29.435 124.582 29.8912 124.582 30.47C124.582 31.0291 124.803 31.4755 125.245 31.809C125.686 32.1328 126.299 32.2946 127.084 32.2946C127.869 32.2946 128.482 32.1328 128.923 31.809C129.375 31.4755 129.6 31.0291 129.6 30.47C129.6 29.901 129.37 29.4497 128.909 29.1162C128.457 28.7729 127.849 28.6012 127.084 28.6012ZM127.084 37.2683C127.977 37.2683 128.678 37.0868 129.188 36.7238C129.698 36.351 129.953 35.8458 129.953 35.2082C129.953 34.5803 129.698 34.0849 129.188 33.722C128.678 33.3492 127.977 33.1628 127.084 33.1628C126.191 33.1628 125.49 33.3492 124.98 33.722C124.479 34.0849 124.229 34.5803 124.229 35.2082C124.229 35.8458 124.479 36.351 124.98 36.7238C125.48 37.0868 126.182 37.2683 127.084 37.2683ZM136.418 31.912C137.094 31.912 137.693 32.0396 138.213 32.2946C138.743 32.5497 139.155 32.9126 139.449 33.3835C139.743 33.8446 139.89 34.3841 139.89 35.0022C139.89 35.6398 139.733 36.199 139.419 36.6797C139.115 37.1603 138.693 37.5331 138.154 37.798C137.624 38.0629 137.026 38.1953 136.359 38.1953C134.995 38.1953 133.941 37.744 133.195 36.8415C132.459 35.939 132.091 34.6686 132.091 33.0304C132.091 31.8826 132.288 30.9114 132.68 30.1168C133.072 29.3124 133.627 28.7091 134.343 28.3069C135.059 27.8949 135.888 27.6889 136.83 27.6889C137.86 27.6889 138.689 27.8851 139.316 28.2775L138.846 29.1456C138.365 28.8317 137.703 28.6748 136.859 28.6748C135.741 28.6748 134.863 29.0328 134.225 29.7489C133.587 30.4553 133.269 31.4853 133.269 32.8391C133.269 33.0941 133.293 33.4031 133.342 33.7661C133.568 33.1775 133.955 32.7214 134.505 32.3976C135.054 32.0739 135.692 31.912 136.418 31.912ZM136.3 37.2683C137.036 37.2683 137.629 37.0671 138.08 36.6649C138.541 36.2529 138.772 35.7134 138.772 35.0463C138.772 34.3694 138.541 33.8299 138.08 33.4277C137.629 33.0255 137.011 32.8244 136.226 32.8244C135.726 32.8244 135.275 32.9225 134.873 33.1187C134.48 33.3149 134.171 33.5846 133.945 33.928C133.73 34.2713 133.622 34.649 133.622 35.061C133.622 35.4436 133.725 35.8066 133.931 36.1499C134.137 36.4835 134.441 36.7532 134.843 36.9592C135.255 37.1652 135.741 37.2683 136.3 37.2683ZM145.104 32.4712V33.413H141.204V32.4712H145.104ZM150.389 38.1953C149.595 38.1953 148.883 37.9844 148.256 37.5625C147.628 37.1309 147.137 36.5178 146.784 35.7232C146.431 34.9286 146.254 34.0015 146.254 32.9421C146.254 31.8826 146.431 30.9556 146.784 30.161C147.137 29.3664 147.628 28.7581 148.256 28.3363C148.883 27.9047 149.595 27.6889 150.389 27.6889C151.194 27.6889 151.905 27.9047 152.523 28.3363C153.151 28.7581 153.641 29.3664 153.994 30.161C154.348 30.9458 154.524 31.8728 154.524 32.9421C154.524 34.0114 154.348 34.9433 153.994 35.7379C153.641 36.5227 153.151 37.1309 152.523 37.5625C151.905 37.9844 151.194 38.1953 150.389 38.1953ZM150.389 37.18C150.988 37.18 151.508 37.0181 151.949 36.6944C152.4 36.3608 152.749 35.8752 152.994 35.2376C153.249 34.6 153.376 33.8348 153.376 32.9421C153.376 32.0494 153.249 31.2842 152.994 30.6466C152.749 30.0089 152.4 29.5282 151.949 29.2045C151.508 28.871 150.988 28.7042 150.389 28.7042C149.801 28.7042 149.281 28.871 148.83 29.2045C148.378 29.5282 148.03 30.0089 147.785 30.6466C147.54 31.2842 147.417 32.0494 147.417 32.9421C147.417 33.8348 147.54 34.6 147.785 35.2376C148.03 35.8752 148.378 36.3608 148.83 36.6944C149.281 37.0181 149.801 37.18 150.389 37.18ZM162.872 38.0923H155.603V37.3124L159.87 33.1039C160.41 32.5742 160.773 32.1229 160.959 31.7502C161.155 31.3774 161.253 30.9948 161.253 30.6024C161.253 30.004 161.047 29.538 160.635 29.2045C160.223 28.8611 159.635 28.6895 158.869 28.6895C157.663 28.6895 156.741 29.0819 156.103 29.8667L155.279 29.2486C155.671 28.7483 156.181 28.3657 156.809 28.1009C157.437 27.8262 158.153 27.6889 158.958 27.6889C159.998 27.6889 160.826 27.9439 161.444 28.454C162.072 28.9543 162.386 29.6361 162.386 30.4994C162.386 31.0389 162.269 31.5491 162.033 32.0298C161.798 32.5104 161.356 33.0696 160.709 33.7072L157.265 37.1064H162.872V38.0923ZM170.69 35.3995V38.0923H169.571V35.3995H163.774V34.6049L169.204 27.7919H170.44L165.201 34.4136H169.586V32.0445H170.69V34.4136H172.735V35.3995H170.69ZM177.389 31.912C178.066 31.912 178.665 32.0396 179.185 32.2946C179.714 32.5497 180.126 32.9126 180.421 33.3835C180.715 33.8446 180.862 34.3841 180.862 35.0022C180.862 35.6398 180.705 36.199 180.391 36.6797C180.087 37.1603 179.665 37.5331 179.126 37.798C178.596 38.0629 177.998 38.1953 177.33 38.1953C175.967 38.1953 174.912 37.744 174.167 36.8415C173.431 35.939 173.063 34.6686 173.063 33.0304C173.063 31.8826 173.259 30.9114 173.652 30.1168C174.044 29.3124 174.598 28.7091 175.315 28.3069C176.031 27.8949 176.86 27.6889 177.801 27.6889C178.831 27.6889 179.66 27.8851 180.288 28.2775L179.817 29.1456C179.337 28.8317 178.674 28.6748 177.831 28.6748C176.712 28.6748 175.834 29.0328 175.197 29.7489C174.559 30.4553 174.24 31.4853 174.24 32.8391C174.24 33.0941 174.265 33.4031 174.314 33.7661C174.54 33.1775 174.927 32.7214 175.476 32.3976C176.026 32.0739 176.663 31.912 177.389 31.912ZM177.272 37.2683C178.007 37.2683 178.601 37.0671 179.052 36.6649C179.513 36.2529 179.744 35.7134 179.744 35.0463C179.744 34.3694 179.513 33.8299 179.052 33.4277C178.601 33.0255 177.983 32.8244 177.198 32.8244C176.698 32.8244 176.246 32.9225 175.844 33.1187C175.452 33.3149 175.143 33.5846 174.917 33.928C174.701 34.2713 174.594 34.649 174.594 35.061C174.594 35.4436 174.697 35.8066 174.903 36.1499C175.109 36.4835 175.413 36.7532 175.815 36.9592C176.227 37.1652 176.712 37.2683 177.272 37.2683ZM189.372 38.0923H182.102V37.3124L186.37 33.1039C186.909 32.5742 187.272 32.1229 187.459 31.7502C187.655 31.3774 187.753 30.9948 187.753 30.6024C187.753 30.004 187.547 29.538 187.135 29.2045C186.723 28.8611 186.134 28.6895 185.369 28.6895C184.162 28.6895 183.24 29.0819 182.603 29.8667L181.779 29.2486C182.171 28.7483 182.681 28.3657 183.309 28.1009C183.937 27.8262 184.653 27.6889 185.457 27.6889C186.497 27.6889 187.326 27.9439 187.944 28.454C188.572 28.9543 188.886 29.6361 188.886 30.4994C188.886 31.0389 188.768 31.5491 188.533 32.0298C188.297 32.5104 187.856 33.0696 187.208 33.7072L183.765 37.1064H189.372V38.0923ZM10.7419 63.5926H9.72654V57.9715H7.78418V63.4013H6.78356V52.3504H7.78418V56.9267H9.72654V52.2916H10.7419V63.5926ZM3.42857 61.8857C3.88964 61.8857 4.34089 61.8464 4.78234 61.7679C5.22378 61.6895 5.60637 61.5816 5.9301 61.4442V62.4301C5.60637 62.5773 5.21397 62.6901 4.75291 62.7686C4.29184 62.847 3.80625 62.8863 3.29613 62.8863H0.838749V52.733H5.47394V53.7336H1.86879V61.8857H3.42857ZM22.836 63.0187H12.1235V62.0034H14.8752V59.1781H12.6974V58.1628H14.6545V53.8366H12.8004V52.8213H22.1444V53.8366H20.305V58.1628H22.2621V59.1781H20.0843V62.0034H22.836V63.0187ZM19.2455 58.1628V53.8366H15.7139V58.1628H19.2455ZM19.0101 62.0034V59.1781H15.9347V62.0034H19.0101ZM24.2617 58.8103V52.5123H25.2918V54.5577H29.4267V52.5123H30.4861V55.1168H32.7669V52.2916H33.8264V60.6938H32.7669V56.1616H30.4861V58.8103H24.2617ZM29.4267 55.5141H25.2918V57.8538H29.4267V55.5141ZM34.0766 63.416H24.7768V59.8697H25.851V62.4007H34.0766V63.416ZM35.8114 54.8519V53.8366H40.2258V52.1444H41.3V53.8366H45.7439V54.8519H35.8114ZM46.1412 63.0187H35.4288V62.0181H40.2553V60.1199C39.0585 60.0708 38.102 59.8697 37.3859 59.5166C36.6796 59.1536 36.3264 58.6239 36.3264 57.9274C36.3264 57.172 36.7335 56.6128 37.5477 56.2499C38.362 55.8869 39.4411 55.7054 40.785 55.7054C42.1192 55.7054 43.1933 55.8869 44.0076 56.2499C44.8218 56.6128 45.2289 57.172 45.2289 57.9274C45.2289 58.6239 44.8708 59.1536 44.1547 59.5166C43.4484 59.8697 42.5017 60.0708 41.3147 60.1199V62.0181H46.1412V63.0187ZM37.4153 57.9274C37.4153 58.359 37.7194 58.6778 38.3276 58.8838C38.9457 59.0898 39.7648 59.1928 40.785 59.1928C41.7954 59.1928 42.6048 59.0898 43.213 58.8838C43.831 58.6778 44.14 58.359 44.14 57.9274C44.14 57.4859 43.831 57.1622 43.213 56.9562C42.6048 56.7502 41.7954 56.6472 40.785 56.6472C39.7648 56.6472 38.9457 56.7502 38.3276 56.9562C37.7194 57.1622 37.4153 57.4859 37.4153 57.9274ZM51.095 55.6171C50.8595 55.6171 50.6633 55.5386 50.5064 55.3817C50.3494 55.2247 50.2709 55.0285 50.2709 54.7931C50.2709 54.5577 50.3494 54.3664 50.5064 54.2192C50.6633 54.0622 50.8595 53.9838 51.095 53.9838C51.3304 53.9838 51.5266 54.0622 51.6836 54.2192C51.8405 54.3664 51.919 54.5577 51.919 54.7931C51.919 55.0285 51.8405 55.2247 51.6836 55.3817C51.5266 55.5386 51.3304 55.6171 51.095 55.6171ZM51.095 61.9004C50.8693 61.9004 50.6731 61.8219 50.5064 61.6649C50.3494 61.508 50.2709 61.3118 50.2709 61.0763C50.2709 60.8409 50.3494 60.6447 50.5064 60.4878C50.6731 60.3308 50.8693 60.2523 51.095 60.2523C51.3206 60.2523 51.5119 60.3308 51.6689 60.4878C51.8356 60.6447 51.919 60.8409 51.919 61.0763C51.919 61.3118 51.8356 61.508 51.6689 61.6649C51.5119 61.8219 51.3206 61.9004 51.095 61.9004ZM61.0029 63.0923H59.8699V53.763H57.4566V52.7919H61.0029V63.0923ZM68.1587 57.0003C71.0134 57.0003 72.4407 58.0206 72.4407 60.061C72.4407 60.6594 72.2985 61.1941 72.014 61.6649C71.7393 62.1358 71.3175 62.5086 70.7485 62.7833C70.1893 63.058 69.4977 63.1953 68.6737 63.1953C67.9281 63.1953 67.2218 63.0727 66.5547 62.8274C65.8877 62.5822 65.3579 62.2584 64.9655 61.8562L65.4953 60.9881C65.819 61.3412 66.2604 61.6306 66.8196 61.8562C67.3886 62.0721 68.0017 62.18 68.659 62.18C69.5026 62.18 70.1501 61.9887 70.6013 61.6061C71.0624 61.2235 71.2929 60.7183 71.2929 60.0904C71.2929 59.3939 71.0379 58.8691 70.5278 58.516C70.0176 58.1628 69.1446 57.9862 67.9085 57.9862H65.6866L66.231 52.7919H71.8815V53.763H67.1875L66.8343 57.0003H68.1587ZM76.9919 57.0003C79.8466 57.0003 81.2739 58.0206 81.2739 60.061C81.2739 60.6594 81.1317 61.1941 80.8472 61.6649C80.5725 62.1358 80.1507 62.5086 79.5817 62.7833C79.0226 63.058 78.331 63.1953 77.5069 63.1953C76.7614 63.1953 76.0551 63.0727 75.388 62.8274C74.7209 62.5822 74.1912 62.2584 73.7988 61.8562L74.3285 60.9881C74.6522 61.3412 75.0937 61.6306 75.6529 61.8562C76.2218 62.0721 76.8349 62.18 77.4922 62.18C78.3359 62.18 78.9833 61.9887 79.4346 61.6061C79.8956 61.2235 80.1262 60.7183 80.1262 60.0904C80.1262 59.3939 79.8711 58.8691 79.361 58.516C78.8509 58.1628 77.9778 57.9862 76.7418 57.9862H74.5198L75.0643 52.7919H80.7148V53.763H76.0207L75.6676 57.0003H76.9919ZM87.5026 63.0923H86.3696V53.763H83.9564V52.7919H87.5026V63.0923ZM95.6737 57.4712V58.413H91.7743V57.4712H95.6737ZM101.716 63.0923H100.583V53.763H98.1697V52.7919H101.716V63.0923ZM108.872 57.0003C111.726 57.0003 113.154 58.0206 113.154 60.061C113.154 60.6594 113.012 61.1941 112.727 61.6649C112.452 62.1358 112.031 62.5086 111.462 62.7833C110.902 63.058 110.211 63.1953 109.387 63.1953C108.641 63.1953 107.935 63.0727 107.268 62.8274C106.601 62.5822 106.071 62.2584 105.679 61.8562L106.208 60.9881C106.532 61.3412 106.974 61.6306 107.533 61.8562C108.102 62.0721 108.715 62.18 109.372 62.18C110.216 62.18 110.863 61.9887 111.314 61.6061C111.776 61.2235 112.006 60.7183 112.006 60.0904C112.006 59.3939 111.751 58.8691 111.241 58.516C110.731 58.1628 109.858 57.9862 108.622 57.9862H106.4L106.944 52.7919H112.595V53.763H107.901L107.547 57.0003H108.872ZM118.5 57.2063C119.579 57.2554 120.398 57.5448 120.957 58.0745C121.526 58.5944 121.81 59.2811 121.81 60.1346C121.81 60.7232 121.668 61.248 121.384 61.7091C121.099 62.1702 120.673 62.5331 120.104 62.798C119.544 63.0629 118.863 63.1953 118.058 63.1953C117.303 63.1953 116.592 63.0776 115.925 62.8421C115.267 62.5969 114.742 62.2683 114.35 61.8562L114.85 60.9881C115.194 61.3412 115.645 61.6306 116.204 61.8562C116.773 62.0721 117.381 62.18 118.029 62.18C118.872 62.18 119.52 61.9985 119.971 61.6355C120.432 61.2725 120.663 60.7722 120.663 60.1346C120.663 59.4871 120.437 58.9868 119.986 58.6337C119.535 58.2805 118.843 58.1039 117.911 58.1039H117.161V57.3093L119.986 53.763H114.762V52.7919H121.398V53.557L118.5 57.2063ZM128.216 63.0923H127.083V53.763H124.669V52.7919H128.216V63.0923ZM137.222 52.1738V65.9323H136.177V52.1738H137.222ZM147.332 55.779C146.822 56.4755 146.155 57.0347 145.331 57.4565C144.507 57.8783 143.604 58.1334 142.623 58.2217V57.1916C143.771 57.0837 144.757 56.7158 145.581 56.088C146.405 55.4504 146.925 54.6312 147.141 53.6306H142.888V52.6153H152.335V53.6306H148.274C148.215 54.0819 148.087 54.5135 147.891 54.9255L152.659 57.2358L152.203 58.1628L147.332 55.779ZM148.127 60.5613V63.8575H147.052V60.5613H142.255V59.5313H152.968V60.5613H148.127ZM159.117 55.8673C158.499 56.8875 157.749 57.6968 156.866 58.2952C155.983 58.8936 155.066 59.1928 154.114 59.1928V58.1334C154.889 58.1334 155.635 57.8783 156.351 57.3682C157.067 56.8483 157.68 56.1469 158.19 55.264C158.71 54.3811 159.068 53.4099 159.264 52.3504L160.353 52.5711C160.196 53.405 159.941 54.2045 159.588 54.9697L164.326 58.3541L163.752 59.2223L159.117 55.8673ZM164.62 61.974V63.0187H153.908V61.974H158.72V58.6631H159.794V61.974H164.62ZM169.574 55.6171C169.339 55.6171 169.143 55.5386 168.986 55.3817C168.829 55.2247 168.75 55.0285 168.75 54.7931C168.75 54.5577 168.829 54.3664 168.986 54.2192C169.143 54.0622 169.339 53.9838 169.574 53.9838C169.81 53.9838 170.006 54.0622 170.163 54.2192C170.32 54.3664 170.398 54.5577 170.398 54.7931C170.398 55.0285 170.32 55.2247 170.163 55.3817C170.006 55.5386 169.81 55.6171 169.574 55.6171ZM169.574 61.9004C169.349 61.9004 169.152 61.8219 168.986 61.6649C168.829 61.508 168.75 61.3118 168.75 61.0763C168.75 60.8409 168.829 60.6447 168.986 60.4878C169.152 60.3308 169.349 60.2523 169.574 60.2523C169.8 60.2523 169.991 60.3308 170.148 60.4878C170.315 60.6447 170.398 60.8409 170.398 61.0763C170.398 61.3118 170.315 61.508 170.148 61.6649C169.991 61.8219 169.8 61.9004 169.574 61.9004ZM175.303 58.2658V52.5123H176.348V54.2192H183.411V52.5123H184.456V58.2658H175.303ZM183.411 55.2051H176.348V57.2652H183.411V55.2051ZM180.424 60.576V63.8575H179.335V60.576H174.523V59.546H185.236V60.576H180.424ZM197.403 56.0144H195.844V60.6938H194.784V52.2916H195.844V54.9402H197.403V56.0144ZM189.737 56.2057C189.354 56.9513 188.864 57.5644 188.265 58.0451C187.667 58.5258 186.985 58.825 186.22 58.9427V57.8979C186.897 57.7606 187.486 57.4271 187.986 56.8973C188.496 56.3676 188.883 55.7103 189.148 54.9255C189.413 54.1407 189.546 53.302 189.546 52.4093L190.62 52.4681C190.62 53.4786 190.473 54.4056 190.178 55.2493L193.636 58.0304L192.989 58.8397L189.737 56.2057ZM196.167 62.4007V63.416H186.941V59.8992H188.015V62.4007H196.167ZM209.056 55.9556H207.526V59.0457H206.451V52.2916H207.526V54.9255H209.056V55.9556ZM198.373 53.454V52.4976H204.391V56.4559H203.332V53.454H198.373ZM205.495 57.8538C204.848 58.1481 203.611 58.2952 201.787 58.2952H197.829V57.3682H200.065V54.9108H201.125V57.3682H201.831C203.587 57.3682 204.808 57.221 205.495 56.9267V57.8538ZM203.111 59.2811C204.494 59.2811 205.608 59.4626 206.451 59.8256C207.295 60.1787 207.717 60.7232 207.717 61.4589C207.717 62.1947 207.295 62.7391 206.451 63.0923C205.618 63.4454 204.504 63.622 203.111 63.622C201.718 63.622 200.595 63.4454 199.741 63.0923C198.898 62.7391 198.476 62.1947 198.476 61.4589C198.476 60.7232 198.898 60.1787 199.741 59.8256C200.595 59.4626 201.718 59.2811 203.111 59.2811ZM203.111 62.7244C204.151 62.7244 204.995 62.6214 205.642 62.4154C206.29 62.2094 206.613 61.8906 206.613 61.4589C206.613 61.0175 206.29 60.6938 205.642 60.4878C204.995 60.2817 204.151 60.1787 203.111 60.1787C202.062 60.1787 201.213 60.2817 200.566 60.4878C199.918 60.6938 199.594 61.0175 199.594 61.4589C199.594 61.8906 199.918 62.2094 200.566 62.4154C201.213 62.6214 202.062 62.7244 203.111 62.7244ZM219.531 59.0457H218.487V57.5153H216.456L216.53 56.5147H218.487V54.5724H216.53L216.456 53.5865H218.487V52.2916H219.531V59.0457ZM216.162 55.5435C216.162 56.142 216.029 56.6766 215.764 57.1475C215.5 57.6183 215.117 57.9911 214.617 58.2658C214.126 58.5307 213.547 58.6631 212.88 58.6631C212.223 58.6631 211.644 58.5307 211.144 58.2658C210.653 57.9911 210.271 57.6183 209.996 57.1475C209.731 56.6668 209.599 56.1321 209.599 55.5435C209.599 54.955 209.731 54.4252 209.996 53.9543C210.271 53.4737 210.653 53.1009 211.144 52.836C211.644 52.5613 212.223 52.424 212.88 52.424C213.547 52.424 214.126 52.5613 214.617 52.836C215.117 53.1009 215.5 53.4687 215.764 53.9396C216.029 54.4105 216.162 54.9451 216.162 55.5435ZM210.673 55.5435C210.673 56.2106 210.874 56.7404 211.276 57.1328C211.688 57.5252 212.223 57.7214 212.88 57.7214C213.538 57.7214 214.072 57.5252 214.484 57.1328C214.896 56.7404 215.102 56.2106 215.102 55.5435C215.102 54.8765 214.896 54.3467 214.484 53.9543C214.082 53.5619 213.547 53.3657 212.88 53.3657C212.223 53.3657 211.688 53.5619 211.276 53.9543C210.874 54.3467 210.673 54.8765 210.673 55.5435ZM219.531 59.7079V63.5632H218.457V60.6938H210.511V59.7079H219.531ZM231.111 63.5926H230.036V52.2916H231.111V63.5926ZM225.872 52.6153C225.852 54.4007 225.7 55.9654 225.416 57.3093L228.962 62.2094L228.109 62.8568L225.077 58.6042C224.695 59.8893 224.185 60.9047 223.547 61.6502C222.919 62.386 222.188 62.798 221.355 62.8863V61.7827C222.08 61.6551 222.699 61.1695 223.209 60.3259C223.719 59.4724 224.106 58.3737 224.371 57.0298C224.636 55.6858 224.773 54.2045 224.783 52.5859L225.872 52.6153ZM236.476 58.2658V52.5123H237.521V54.2192H244.584V52.5123H245.629V58.2658H236.476ZM244.584 55.2051H237.521V57.2652H244.584V55.2051ZM241.597 60.576V63.8575H240.508V60.576H235.696V59.546H246.409V60.576H241.597ZM258.576 56.0144H257.017V60.6938H255.957V52.2916H257.017V54.9402H258.576V56.0144ZM250.91 56.2057C250.527 56.9513 250.037 57.5644 249.439 58.0451C248.84 58.5258 248.158 58.825 247.393 58.9427V57.8979C248.07 57.7606 248.659 57.4271 249.159 56.8973C249.669 56.3676 250.057 55.7103 250.321 54.9255C250.586 54.1407 250.719 53.302 250.719 52.4093L251.793 52.4681C251.793 53.4786 251.646 54.4056 251.351 55.2493L254.809 58.0304L254.162 58.8397L250.91 56.2057ZM257.34 62.4007V63.416H248.114V59.8992H249.188V62.4007H257.34ZM267.904 60.6938V52.2916H268.978V60.6938H267.904ZM262.872 56.2793C262.509 57.0248 262.018 57.6282 261.4 58.0892C260.792 58.5503 260.091 58.8348 259.296 58.9427V57.9126C260.228 57.7557 260.978 57.2946 261.547 56.5294C262.116 55.7643 262.425 54.7833 262.474 53.5865H259.428V52.6153H266.374V53.5865H263.534C263.524 54.2241 263.436 54.8078 263.269 55.3375L266.683 58.0304L266.094 58.8544L262.872 56.2793ZM269.287 63.416H259.958V59.8992H261.032V62.4007H269.287V63.416ZM271.39 53.6306V52.5859H280.572V57.6919H279.469V53.6306H271.39ZM276.481 59.7814V63.8575H275.407V59.7814H270.654V58.7072H281.367V59.7814H276.481ZM295.929 58.4865H285.217V57.5742H290.043V56.2793H286.026V52.4534H295.135V53.3657H287.086V55.367H295.252V56.2793H291.103V57.5742H295.929V58.4865ZM290.573 59.5313C291.966 59.5313 293.094 59.6931 293.957 60.0169C294.831 60.3308 295.267 60.8458 295.267 61.5619C295.267 62.2781 294.831 62.798 293.957 63.1217C293.094 63.4454 291.966 63.6073 290.573 63.6073C289.18 63.6073 288.047 63.4454 287.174 63.1217C286.311 62.798 285.879 62.2781 285.879 61.5619C285.879 60.8458 286.311 60.3308 287.174 60.0169C288.047 59.6931 289.18 59.5313 290.573 59.5313ZM290.573 62.7097C291.583 62.7097 292.432 62.6214 293.119 62.4448C293.805 62.2584 294.149 61.9641 294.149 61.5619C294.149 61.1695 293.805 60.8851 293.119 60.7085C292.432 60.5221 291.583 60.4289 290.573 60.4289C289.563 60.4289 288.709 60.5221 288.013 60.7085C287.326 60.8851 286.983 61.1695 286.983 61.5619C286.983 61.9641 287.326 62.2584 288.013 62.4448C288.699 62.6214 289.553 62.7097 290.573 62.7097ZM300.548 56.8532C300.205 57.5399 299.734 58.0941 299.136 58.516C298.537 58.928 297.855 59.1879 297.09 59.2958V58.2952C297.983 58.1383 298.699 57.7312 299.239 57.0739C299.778 56.4166 300.082 55.5534 300.151 54.4841H297.208V53.5129H300.151V52.0855H301.225V53.5129H304.109V54.4841H301.225C301.196 55.0138 301.112 55.4945 300.975 55.9261L304.286 58.3835L303.712 59.237L300.548 56.8532ZM305.86 52.2916H306.92V60.7379H305.86V56.5294H303.682V55.4994H305.86V52.2916ZM307.17 63.416H297.87V60.2965H298.944V62.4154H307.17V63.416ZM319.235 63.0187H308.522V62.0034H313.319V59.6784H309.287V55.7054H317.454V53.7336H309.273V52.733H318.514V56.6766H310.332V58.6778H318.675V59.6784H314.379V62.0034H319.235V63.0187ZM324.188 61.5472C324.424 61.5472 324.62 61.6257 324.777 61.7827C324.934 61.9396 325.012 62.1309 325.012 62.3565C325.012 62.4743 324.993 62.6018 324.953 62.7391C324.924 62.8765 324.88 63.0334 324.821 63.21L324.188 65.2554H323.408L323.923 63.1217C323.757 63.0727 323.624 62.9795 323.526 62.8421C323.428 62.7048 323.379 62.5429 323.379 62.3565C323.379 62.1211 323.457 61.9298 323.614 61.7827C323.771 61.6257 323.963 61.5472 324.188 61.5472ZM335.715 60.3995V63.0923H334.597V60.3995H328.799V59.6049L334.229 52.7919H335.465L330.226 59.4136H334.611V57.0445H335.715V59.4136H337.76V60.3995H335.715ZM342.988 55.367C342.468 55.8477 341.792 56.2155 340.958 56.4706C340.134 56.7158 339.285 56.8483 338.412 56.8679V55.985C339.403 55.9556 340.33 55.7594 341.193 55.3964C342.056 55.0334 342.601 54.5282 342.827 53.8808H338.633V52.9979H342.797V51.8354H343.871V52.9979H348.021V53.8808H343.974C343.935 54.1456 343.832 54.4007 343.665 54.6459L348.271 56.0291L348.006 56.8973L342.988 55.367ZM348.683 58.7514H337.971V57.8391H348.683V58.7514ZM343.327 59.855C344.72 59.855 345.848 60.0022 346.711 60.2965C347.584 60.5809 348.021 61.0567 348.021 61.7238C348.021 62.3909 347.589 62.8667 346.726 63.1511C345.863 63.4454 344.73 63.5926 343.327 63.5926C341.924 63.5926 340.786 63.4454 339.913 63.1511C339.05 62.8667 338.618 62.3909 338.618 61.7238C338.618 61.0567 339.05 60.5809 339.913 60.2965C340.786 60.0022 341.924 59.855 343.327 59.855ZM343.327 62.7244C344.347 62.7244 345.201 62.6459 345.887 62.489C346.584 62.332 346.932 62.077 346.932 61.7238C346.932 61.3706 346.589 61.1205 345.902 60.9733C345.215 60.8164 344.357 60.7379 343.327 60.7379C342.297 60.7379 341.434 60.8164 340.737 60.9733C340.05 61.1205 339.707 61.3706 339.707 61.7238C339.707 62.077 340.055 62.332 340.752 62.489C341.448 62.6459 342.307 62.7244 343.327 62.7244ZM359.111 60.3995V63.0923H357.992V60.3995H352.195V59.6049L357.625 52.7919H358.861L353.622 59.4136H358.007V57.0445H359.111V59.4136H361.156V60.3995H359.111ZM365.31 63.1953C364.515 63.1953 363.804 62.9844 363.176 62.5625C362.549 62.1309 362.058 61.5178 361.705 60.7232C361.352 59.9286 361.175 59.0015 361.175 57.9421C361.175 56.8826 361.352 55.9556 361.705 55.161C362.058 54.3664 362.549 53.7581 363.176 53.3363C363.804 52.9047 364.515 52.6889 365.31 52.6889C366.114 52.6889 366.826 52.9047 367.444 53.3363C368.071 53.7581 368.562 54.3664 368.915 55.161C369.268 55.9458 369.445 56.8728 369.445 57.9421C369.445 59.0114 369.268 59.9433 368.915 60.7379C368.562 61.5227 368.071 62.1309 367.444 62.5625C366.826 62.9844 366.114 63.1953 365.31 63.1953ZM365.31 62.18C365.908 62.18 366.428 62.0181 366.87 61.6944C367.321 61.3608 367.669 60.8752 367.915 60.2376C368.17 59.6 368.297 58.8348 368.297 57.9421C368.297 57.0494 368.17 56.2842 367.915 55.6466C367.669 55.0089 367.321 54.5282 366.87 54.2045C366.428 53.871 365.908 53.7042 365.31 53.7042C364.721 53.7042 364.201 53.871 363.75 54.2045C363.299 54.5282 362.951 55.0089 362.705 55.6466C362.46 56.2842 362.338 57.0494 362.338 57.9421C362.338 58.8348 362.46 59.6 362.705 60.2376C362.951 60.8752 363.299 61.3608 363.75 61.6944C364.201 62.0181 364.721 62.18 365.31 62.18ZM377.793 63.0923H370.523V62.3124L374.791 58.1039C375.33 57.5742 375.693 57.1229 375.88 56.7502C376.076 56.3774 376.174 55.9948 376.174 55.6024C376.174 55.004 375.968 54.538 375.556 54.2045C375.144 53.8611 374.555 53.6895 373.79 53.6895C372.583 53.6895 371.661 54.0819 371.024 54.8667L370.2 54.2486C370.592 53.7483 371.102 53.3657 371.73 53.1009C372.358 52.8262 373.074 52.6889 373.878 52.6889C374.918 52.6889 375.747 52.9439 376.365 53.454C376.993 53.9543 377.307 54.6361 377.307 55.4994C377.307 56.0389 377.189 56.5491 376.954 57.0298C376.718 57.5104 376.277 58.0696 375.629 58.7072L372.186 62.1064H377.793V63.0923ZM386.714 53.557L382.403 63.0923H381.152L385.39 53.7778H380.151V55.6907H379.106V52.7919H386.714V53.557ZM388.249 54.8519V53.8366H392.663V52.1444H393.737V53.8366H398.181V54.8519H388.249ZM398.579 63.0187H387.866V62.0181H392.693V60.1199C391.496 60.0708 390.539 59.8697 389.823 59.5166C389.117 59.1536 388.764 58.6239 388.764 57.9274C388.764 57.172 389.171 56.6128 389.985 56.2499C390.799 55.8869 391.878 55.7054 393.222 55.7054C394.557 55.7054 395.631 55.8869 396.445 56.2499C397.259 56.6128 397.666 57.172 397.666 57.9274C397.666 58.6239 397.308 59.1536 396.592 59.5166C395.886 59.8697 394.939 60.0708 393.752 60.1199V62.0181H398.579V63.0187ZM389.853 57.9274C389.853 58.359 390.157 58.6778 390.765 58.8838C391.383 59.0898 392.202 59.1928 393.222 59.1928C394.233 59.1928 395.042 59.0898 395.65 58.8838C396.268 58.6778 396.577 58.359 396.577 57.9274C396.577 57.4859 396.268 57.1622 395.65 56.9562C395.042 56.7502 394.233 56.6472 393.222 56.6472C392.202 56.6472 391.383 56.7502 390.765 56.9562C390.157 57.1622 389.853 57.4859 389.853 57.9274ZM401.785 63.8133C401.314 63.0481 400.951 62.1652 400.696 61.1646C400.441 60.164 400.313 59.0898 400.313 57.9421C400.313 56.7943 400.441 55.7152 400.696 54.7048C400.951 53.6944 401.314 52.8164 401.785 52.0708H402.727C402.226 52.9047 401.858 53.8072 401.623 54.7784C401.388 55.7397 401.27 56.7943 401.27 57.9421C401.27 59.0898 401.388 60.1493 401.623 61.1205C401.858 62.0819 402.226 62.9795 402.727 63.8133H401.785ZM412.635 52.2916H413.695V60.7085H412.635V56.0144H410.428V55.0285H412.635V52.2916ZM407.411 56.3823C407.058 57.1377 406.578 57.7459 405.969 58.2069C405.361 58.668 404.66 58.9476 403.865 59.0457V58.0156C404.797 57.8685 405.538 57.4025 406.087 56.6177C406.646 55.8329 406.955 54.8225 407.014 53.5865H403.998V52.6153H410.869V53.5865H408.074C408.044 54.2928 407.951 54.9059 407.794 55.4258L411.149 58.1334L410.546 58.9574L407.411 56.3823ZM413.945 63.416H404.645V59.8992H405.719V62.4007H413.945V63.416ZM426.009 63.0187H415.297V61.974H420.094V59.237H415.871V58.2217H417.828V53.8513H415.974V52.8213H425.318V53.8513H423.479V58.2217H425.436V59.237H421.198V61.974H426.009V63.0187ZM422.419 58.2217V53.8513H418.887V58.2217H422.419ZM437.662 58.4865H426.95V57.5742H431.776V56.2793H427.759V52.4534H436.868V53.3657H428.818V55.367H436.985V56.2793H432.836V57.5742H437.662V58.4865ZM432.306 59.5313C433.699 59.5313 434.827 59.6931 435.69 60.0169C436.563 60.3308 437 60.8458 437 61.5619C437 62.2781 436.563 62.798 435.69 63.1217C434.827 63.4454 433.699 63.6073 432.306 63.6073C430.913 63.6073 429.78 63.4454 428.907 63.1217C428.043 62.798 427.612 62.2781 427.612 61.5619C427.612 60.8458 428.043 60.3308 428.907 60.0169C429.78 59.6931 430.913 59.5313 432.306 59.5313ZM432.306 62.7097C433.316 62.7097 434.165 62.6214 434.852 62.4448C435.538 62.2584 435.882 61.9641 435.882 61.5619C435.882 61.1695 435.538 60.8851 434.852 60.7085C434.165 60.5221 433.316 60.4289 432.306 60.4289C431.295 60.4289 430.442 60.5221 429.745 60.7085C429.059 60.8851 428.715 61.1695 428.715 61.5619C428.715 61.9641 429.059 62.2584 429.745 62.4448C430.432 62.6214 431.286 62.7097 432.306 62.7097ZM439.706 61.5472C439.941 61.5472 440.138 61.6257 440.295 61.7827C440.451 61.9396 440.53 62.1309 440.53 62.3565C440.53 62.4743 440.51 62.6018 440.471 62.7391C440.442 62.8765 440.398 63.0334 440.339 63.21L439.706 65.2554H438.926L439.441 63.1217C439.274 63.0727 439.142 62.9795 439.044 62.8421C438.946 62.7048 438.897 62.5429 438.897 62.3565C438.897 62.1211 438.975 61.9298 439.132 61.7827C439.289 61.6257 439.48 61.5472 439.706 61.5472ZM451.722 63.5926H450.648V52.2916H451.722V63.5926ZM446.248 53.763C446.238 55.1168 446.125 56.3676 445.909 57.5153L449.485 62.1211L448.646 62.7833L445.571 58.7514C445.218 59.9678 444.737 60.9341 444.129 61.6502C443.521 62.3565 442.814 62.7686 442.01 62.8863V61.7827C442.657 61.6453 443.217 61.2186 443.687 60.5025C444.158 59.7765 444.521 58.8348 444.776 57.6772C445.031 56.5098 445.169 55.2051 445.188 53.763H442.245V52.733H449.102V53.763H446.248ZM464.11 63.0187H453.398V61.974H458.209V59.3841C457.356 59.3351 456.606 59.1634 455.958 58.8691C455.32 58.565 454.825 58.1677 454.472 57.6772C454.129 57.1769 453.957 56.6079 453.957 55.9703C453.957 55.2836 454.153 54.6803 454.545 54.1603C454.948 53.6404 455.507 53.2382 456.223 52.9537C456.949 52.6692 457.793 52.527 458.754 52.527C459.715 52.527 460.554 52.6692 461.27 52.9537C461.996 53.2382 462.555 53.6404 462.948 54.1603C463.35 54.6803 463.551 55.2836 463.551 55.9703C463.551 56.6079 463.374 57.1769 463.021 57.6772C462.678 58.1677 462.182 58.565 461.535 58.8691C460.888 59.1634 460.137 59.3351 459.284 59.3841V61.974H464.11V63.0187ZM455.06 55.9703C455.06 56.451 455.213 56.8728 455.517 57.2358C455.821 57.5987 456.252 57.8832 456.812 58.0892C457.371 58.2854 458.018 58.3835 458.754 58.3835C459.49 58.3835 460.137 58.2854 460.696 58.0892C461.255 57.8832 461.687 57.5987 461.991 57.2358C462.295 56.8728 462.447 56.451 462.447 55.9703C462.447 55.4896 462.295 55.0678 461.991 54.7048C461.687 54.332 461.255 54.0475 460.696 53.8513C460.137 53.6453 459.49 53.5423 458.754 53.5423C458.018 53.5423 457.371 53.6453 456.812 53.8513C456.252 54.0475 455.821 54.332 455.517 54.7048C455.213 55.0678 455.06 55.4896 455.06 55.9703ZM465.683 56.2351V55.3817H467.655V53.3069H465.801V52.4534H475.012V53.3069H473.158V55.3817H475.115V56.2351H465.683ZM472.113 55.3817V53.3069H468.7V55.3817H472.113ZM475.763 58.1628H465.05V57.2799H475.763V58.1628ZM475.189 62.6508V63.4307H465.83V60.9439H473.968V59.9727H465.801V59.1928H474.998V61.6502H466.86V62.6508H475.189ZM486.974 63.5926H485.959V52.2916H486.974V63.5926ZM484.384 52.3504V63.4013H483.369V58.0745H481.941V57.0298H483.369V52.3504H484.384ZM479.057 61.9151C480.411 61.9151 481.49 61.7287 482.295 61.3559V62.3565C481.539 62.7097 480.445 62.8863 479.013 62.8863H477.071V57.2505H480.279V53.7042H477.071V52.733H481.294V58.2217H478.071V61.9151H479.057ZM497.258 63.5926V52.2916H498.332V63.5926H497.258ZM492.078 52.5859C493.059 52.5859 493.839 53.0273 494.418 53.9102C495.007 54.7931 495.301 56.0929 495.301 57.8096C495.301 59.5264 495.007 60.8262 494.418 61.7091C493.839 62.592 493.059 63.0334 492.078 63.0334C491.097 63.0334 490.313 62.592 489.724 61.7091C489.145 60.8262 488.856 59.5264 488.856 57.8096C488.856 56.0929 489.145 54.7931 489.724 53.9102C490.313 53.0273 491.097 52.5859 492.078 52.5859ZM492.078 53.6012C491.421 53.6012 490.896 53.9543 490.504 54.6607C490.112 55.3572 489.915 56.4068 489.915 57.8096C489.915 59.2223 490.112 60.2768 490.504 60.9733C490.896 61.6698 491.421 62.0181 492.078 62.0181C492.716 62.0181 493.236 61.6698 493.638 60.9733C494.04 60.267 494.242 59.2125 494.242 57.8096C494.242 56.4166 494.04 55.367 493.638 54.6607C493.236 53.9543 492.716 53.6012 492.078 53.6012ZM505.203 55.9409C504.585 56.9807 503.834 57.8145 502.951 58.4424C502.078 59.0604 501.166 59.3694 500.214 59.3694V58.3099C500.989 58.3099 501.735 58.0402 502.451 57.5006C503.167 56.9611 503.78 56.2401 504.29 55.3375C504.81 54.4252 505.168 53.4295 505.364 52.3504L506.453 52.5711C506.296 53.405 506.032 54.2339 505.659 55.058L510.426 58.5307L509.852 59.3988L505.203 55.9409ZM510.721 61.974V63.0187H500.008V61.974H510.721ZM511.646 63.8133C512.146 62.9795 512.509 62.077 512.735 61.1058C512.97 60.1346 513.088 59.08 513.088 57.9421C513.088 56.8041 512.97 55.7496 512.735 54.7784C512.509 53.8072 512.146 52.9047 511.646 52.0708H512.573C513.044 52.8164 513.402 53.6944 513.647 54.7048C513.902 55.7054 514.03 56.7845 514.03 57.9421C514.03 59.0898 513.902 60.164 513.647 61.1646C513.402 62.1652 513.044 63.0481 512.573 63.8133H511.646ZM10.7419 89.5926H9.71183V83.9715H7.68117V89.4013H6.66584V78.3504H7.68117V82.9267H9.71183V78.2916H10.7419V89.5926ZM5.16493 78.733V81.7054C5.16493 83.118 4.97854 84.3639 4.60576 85.443C4.24279 86.5221 3.72777 87.3608 3.0607 87.9592C2.39362 88.5576 1.62354 88.8568 0.750459 88.8568V87.8121C1.43715 87.8023 2.03556 87.5423 2.54568 87.0322C3.05579 86.5221 3.44819 85.8158 3.72287 84.9133C4.00735 84.0009 4.1496 82.9513 4.1496 81.7643V79.7483H0.750459V78.733H5.16493ZM21.026 86.6938V78.2916H22.1002V86.6938H21.026ZM15.6404 78.424C16.3271 78.424 16.9255 78.5662 17.4356 78.8507C17.9457 79.1254 18.3332 79.5129 18.5981 80.0132C18.8727 80.5037 19.0101 81.0629 19.0101 81.6907C19.0101 82.3185 18.8727 82.8826 18.5981 83.3829C18.3332 83.8734 17.9457 84.2609 17.4356 84.5454C16.9255 84.8201 16.3271 84.9574 15.6404 84.9574C14.9537 84.9574 14.3553 84.8201 13.8452 84.5454C13.335 84.2609 12.9426 83.8734 12.668 83.3829C12.3933 82.8826 12.2559 82.3185 12.2559 81.6907C12.2559 81.0629 12.3933 80.5037 12.668 80.0132C12.9426 79.5129 13.335 79.1254 13.8452 78.8507C14.3553 78.5662 14.9537 78.424 15.6404 78.424ZM15.6404 79.3657C14.9439 79.3657 14.3847 79.5767 13.9629 79.9985C13.541 80.4203 13.3301 80.9844 13.3301 81.6907C13.3301 82.397 13.541 82.9611 13.9629 83.3829C14.3847 83.7949 14.9439 84.0009 15.6404 84.0009C16.3369 84.0009 16.896 83.7949 17.3179 83.3829C17.7397 82.9611 17.9506 82.397 17.9506 81.6907C17.9506 80.9844 17.7397 80.4203 17.3179 79.9985C16.896 79.5767 16.3369 79.3657 15.6404 79.3657ZM22.4092 88.4007V89.416H13.1977V85.7667H14.2719V88.4007H22.4092ZM32.7669 78.2916H33.8264V84.6484H32.7669V81.47H30.5597V80.4988H32.7669V78.2916ZM27.5284 81.9409C27.1753 82.5883 26.6946 83.118 26.0864 83.5301C25.4782 83.9323 24.7817 84.1824 23.9969 84.2805V83.2799C24.919 83.1328 25.6498 82.7355 26.1894 82.088C26.7388 81.4307 27.0527 80.592 27.1311 79.5718H24.1293V78.6153H31.0012V79.5718H28.2053C28.1759 80.1113 28.0876 80.6018 27.9405 81.0432L31.3543 83.3388L30.8099 84.1775L27.5284 81.9409ZM29.3237 85.0604C30.7069 85.0604 31.8154 85.2468 32.6492 85.6196C33.4929 85.9825 33.9147 86.5466 33.9147 87.3118C33.9147 88.077 33.4929 88.6459 32.6492 89.0187C31.8154 89.3817 30.7069 89.5632 29.3237 89.5632C27.9405 89.5632 26.8319 89.3817 25.9981 89.0187C25.1643 88.6459 24.7473 88.077 24.7473 87.3118C24.7473 86.5466 25.1643 85.9825 25.9981 85.6196C26.8319 85.2468 27.9405 85.0604 29.3237 85.0604ZM29.3237 88.6361C30.3537 88.6361 31.1876 88.5233 31.8252 88.2977C32.4727 88.0721 32.7964 87.7434 32.7964 87.3118C32.7964 86.8801 32.4727 86.5515 31.8252 86.3259C31.1777 86.1003 30.3439 85.9874 29.3237 85.9874C28.3034 85.9874 27.4696 86.1003 26.8221 86.3259C26.1845 86.5515 25.8657 86.8801 25.8657 87.3118C25.8657 87.7434 26.1845 88.0721 26.8221 88.2977C27.4696 88.5233 28.3034 88.6361 29.3237 88.6361ZM46.1412 89.0187H35.4288V87.974H40.2406V85.2517H36.1793V78.6447H37.224V80.7931H44.346V78.6447H45.3908V85.2517H41.3147V87.974H46.1412V89.0187ZM44.346 84.2511V81.7937H37.224V84.2511H44.346ZM52.846 82.7943C52.2967 84.0794 51.3844 84.825 50.1091 85.031V84.0451C50.7958 83.8881 51.3255 83.5104 51.6983 82.912C52.0809 82.3038 52.2918 81.4847 52.331 80.4546H50.2415V79.4835H52.331V78.1003H53.3758V79.4835H55.4212V80.4546H53.3758C53.366 80.8765 53.3071 81.3228 53.1992 81.7937L55.686 84.2511L55.0386 84.9868L52.846 82.7943ZM60.2623 85.3988H59.247V82.0586H57.3047V85.2811H56.304V78.3504H57.3047V81.0138H59.247V78.2916H60.2623V85.3988ZM60.2623 86.061V89.5632H59.2029V87.0175H50.8743V86.061H60.2623ZM70.5465 84.4424V78.2916H71.6207V84.4424H70.5465ZM65.1756 78.424C65.8525 78.424 66.441 78.5466 66.9414 78.7919C67.4515 79.0273 67.839 79.3608 68.1038 79.7925C68.3785 80.2241 68.5158 80.7195 68.5158 81.2787C68.5158 81.8378 68.3785 82.3332 68.1038 82.7649C67.839 83.1965 67.4515 83.535 66.9414 83.7802C66.441 84.0156 65.8525 84.1334 65.1756 84.1334C64.4987 84.1334 63.9052 84.0156 63.3951 83.7802C62.8948 83.535 62.5073 83.1965 62.2326 82.7649C61.9677 82.3332 61.8353 81.8378 61.8353 81.2787C61.8353 80.7195 61.9677 80.2241 62.2326 79.7925C62.5073 79.3608 62.8948 79.0273 63.3951 78.7919C63.9052 78.5466 64.4987 78.424 65.1756 78.424ZM65.1756 79.351C64.4889 79.351 63.9346 79.5227 63.5128 79.8661C63.1008 80.2094 62.8948 80.6803 62.8948 81.2787C62.8948 81.8771 63.1008 82.348 63.5128 82.6913C63.9346 83.0347 64.4889 83.2063 65.1756 83.2063C65.8525 83.2063 66.3969 83.0347 66.8089 82.6913C67.2307 82.348 67.4417 81.8771 67.4417 81.2787C67.4417 80.6803 67.2307 80.2094 66.8089 79.8661C66.3969 79.5227 65.8525 79.351 65.1756 79.351ZM62.7182 89.416V85.1046H71.6207V89.416H62.7182ZM70.5465 86.061H63.7777V88.4595H70.5465V86.061ZM84.5241 82.5147H82.9937V86.8851H81.9196V78.2916H82.9937V81.47H84.5241V82.5147ZM73.8411 79.4835V78.4976H79.8595V82.8826H78.8V79.4835H73.8411ZM80.9631 84.5012C80.3254 84.8053 79.0894 84.9574 77.2549 84.9574H73.2966V83.9862H75.5333V81.1757H76.5928V83.9862H77.2991C79.0649 83.9862 80.2862 83.8342 80.9631 83.5301V84.5012ZM83.3175 88.4448V89.416H74.0912V86.1493H75.1507V88.4448H83.3175ZM93.8518 89.5926V78.2916H94.926V89.5926H93.8518ZM86.6562 84.2217V87.8709H89.9965C90.5066 87.8709 91.0167 87.8219 91.5268 87.7238C92.0369 87.6257 92.4539 87.4933 92.7776 87.3265V88.3418C92.4539 88.5184 92.0369 88.6557 91.5268 88.7538C91.0167 88.8421 90.4968 88.8863 89.967 88.8863H85.5967V83.221H90.5704V79.7483H85.582V78.733H91.6151V84.2217H86.6562ZM106.27 84.0304V89.5926H105.21V78.2916H106.27V82.9709H107.829V84.0304H106.27ZM100.928 79.763C100.908 81.1855 100.801 82.4412 100.604 83.5301L104.121 88.1358L103.282 88.7833L100.266 84.7955C99.9128 86.0022 99.437 86.9586 98.8386 87.6649C98.2402 88.3614 97.5437 88.7686 96.7491 88.8863V87.7827C97.3867 87.6453 97.9361 87.2186 98.3971 86.5025C98.8582 85.7765 99.2114 84.8348 99.4566 83.6772C99.7117 82.5196 99.849 81.2149 99.8686 79.763H96.9845V78.733H103.739V79.763H100.928ZM112.268 81.6171C112.033 81.6171 111.836 81.5386 111.679 81.3817C111.523 81.2247 111.444 81.0285 111.444 80.7931C111.444 80.5577 111.523 80.3664 111.679 80.2192C111.836 80.0622 112.033 79.9838 112.268 79.9838C112.504 79.9838 112.7 80.0622 112.857 80.2192C113.014 80.3664 113.092 80.5577 113.092 80.7931C113.092 81.0285 113.014 81.2247 112.857 81.3817C112.7 81.5386 112.504 81.6171 112.268 81.6171ZM112.268 87.9004C112.042 87.9004 111.846 87.8219 111.679 87.6649C111.523 87.508 111.444 87.3118 111.444 87.0763C111.444 86.8409 111.523 86.6447 111.679 86.4878C111.846 86.3308 112.042 86.2523 112.268 86.2523C112.494 86.2523 112.685 86.3308 112.842 86.4878C113.009 86.6447 113.092 86.8409 113.092 87.0763C113.092 87.3118 113.009 87.508 112.842 87.6649C112.685 87.8219 112.494 87.9004 112.268 87.9004ZM122.573 83.0739C121.2 83.0739 120.067 82.8728 119.174 82.4706C118.281 82.0586 117.835 81.4553 117.835 80.6607C117.835 79.8759 118.281 79.2775 119.174 78.8654C120.077 78.4436 121.21 78.2327 122.573 78.2327C123.927 78.2327 125.05 78.4436 125.943 78.8654C126.846 79.2775 127.297 79.8759 127.297 80.6607C127.297 81.4553 126.85 82.0586 125.958 82.4706C125.065 82.8728 123.937 83.0739 122.573 83.0739ZM122.573 79.1597C121.553 79.1597 120.695 79.2922 119.998 79.557C119.302 79.8219 118.953 80.1898 118.953 80.6607C118.953 81.1413 119.302 81.5141 119.998 81.779C120.695 82.034 121.553 82.1616 122.573 82.1616C123.594 82.1616 124.447 82.034 125.134 81.779C125.83 81.5141 126.178 81.1413 126.178 80.6607C126.178 80.1898 125.83 79.8219 125.134 79.557C124.437 79.2922 123.584 79.1597 122.573 79.1597ZM127.93 85.031H125.237V87.1499H124.163V85.031H122.014V87.1499H120.955V85.031H117.217V84.0892H127.93V85.031ZM127.356 88.4743V89.4307H117.982V86.2376H119.042V88.4743H127.356ZM135.138 81.264V80.2634H137.861V78.2916H138.92V84.6484H137.861V81.264H135.138ZM132.431 81.8673C132.058 82.5442 131.572 83.1033 130.974 83.5448C130.376 83.9862 129.689 84.2658 128.914 84.3835V83.3682C129.591 83.2309 130.174 82.9267 130.665 82.4559C131.165 81.9752 131.543 81.3866 131.798 80.6901C132.063 79.9838 132.2 79.2235 132.21 78.4093L133.27 78.4681C133.27 79.3707 133.137 80.1996 132.872 80.955L136.212 83.3682L135.624 84.1628L132.431 81.8673ZM134.417 85.0604C135.8 85.0604 136.909 85.2468 137.743 85.6196C138.586 85.9825 139.008 86.5466 139.008 87.3118C139.008 88.077 138.586 88.6459 137.743 89.0187C136.909 89.3817 135.8 89.5632 134.417 89.5632C133.034 89.5632 131.926 89.3817 131.092 89.0187C130.258 88.6459 129.841 88.077 129.841 87.3118C129.841 86.5466 130.258 85.9825 131.092 85.6196C131.926 85.2468 133.034 85.0604 134.417 85.0604ZM134.417 88.6361C135.447 88.6361 136.281 88.5233 136.919 88.2977C137.566 88.0721 137.89 87.7434 137.89 87.3118C137.89 86.8801 137.566 86.5515 136.919 86.3259C136.271 86.1003 135.438 85.9874 134.417 85.9874C133.397 85.9874 132.563 86.1003 131.916 86.3259C131.278 86.5515 130.959 86.8801 130.959 87.3118C130.959 87.7434 131.278 88.0721 131.916 88.2977C132.563 88.5233 133.397 88.6361 134.417 88.6361ZM140.964 79.9249V79.042H145.319V77.8354H146.394V79.042H150.793V79.9249H140.964ZM141.391 82.3529C141.391 81.7741 141.793 81.3375 142.597 81.0432C143.411 80.7489 144.505 80.6018 145.879 80.6018C147.242 80.6018 148.326 80.7489 149.131 81.0432C149.935 81.3375 150.337 81.7741 150.337 82.3529C150.337 82.9317 149.935 83.3682 149.131 83.6625C148.326 83.9568 147.242 84.1039 145.879 84.1039C144.505 84.1039 143.411 83.9568 142.597 83.6625C141.793 83.3682 141.391 82.9317 141.391 82.3529ZM149.278 82.3529C149.278 82.0488 148.964 81.8182 148.336 81.6613C147.708 81.4945 146.889 81.4111 145.879 81.4111C144.868 81.4111 144.049 81.4945 143.421 81.6613C142.793 81.8182 142.479 82.0488 142.479 82.3529C142.479 82.657 142.793 82.8924 143.421 83.0592C144.049 83.2161 144.868 83.2946 145.879 83.2946C146.889 83.2946 147.708 83.2161 148.336 83.0592C148.964 82.8924 149.278 82.657 149.278 82.3529ZM151.235 85.7962H146.408V87.3118H145.349V85.7962H140.522V84.8985H151.235V85.7962ZM150.661 88.5037V89.4307H141.302V86.7526H142.376V88.5037H150.661ZM154.441 89.8133C153.97 89.0481 153.607 88.1652 153.352 87.1646C153.097 86.164 152.97 85.0898 152.97 83.9421C152.97 82.7943 153.097 81.7152 153.352 80.7048C153.607 79.6944 153.97 78.8164 154.441 78.0708H155.383C154.883 78.9047 154.515 79.8072 154.279 80.7784C154.044 81.7397 153.926 82.7943 153.926 83.9421C153.926 85.0898 154.044 86.1493 154.279 87.1205C154.515 88.0819 154.883 88.9795 155.383 89.8133H154.441ZM160.921 81.2787C161.598 81.2787 162.211 81.4454 162.761 81.779C163.31 82.1027 163.741 82.5638 164.055 83.1622C164.379 83.7606 164.541 84.4424 164.541 85.2076C164.541 85.9825 164.379 86.6692 164.055 87.2676C163.741 87.866 163.31 88.332 162.761 88.6656C162.211 88.9991 161.598 89.1659 160.921 89.1659C160.293 89.1659 159.729 89.0138 159.229 88.7097C158.729 88.4056 158.336 87.9789 158.052 87.4295V89.0923H157.036V78.1738H158.096V82.9562C158.371 82.4264 158.753 82.0144 159.244 81.7201C159.744 81.4258 160.303 81.2787 160.921 81.2787ZM160.789 88.1947C161.299 88.1947 161.76 88.0721 162.172 87.8268C162.584 87.5816 162.903 87.2333 163.128 86.782C163.364 86.321 163.482 85.7962 163.482 85.2076C163.482 84.6288 163.364 84.1137 163.128 83.6625C162.903 83.2112 162.584 82.863 162.172 82.6177C161.76 82.3627 161.299 82.2351 160.789 82.2351C160.279 82.2351 159.818 82.3627 159.406 82.6177C158.993 82.863 158.67 83.2112 158.434 83.6625C158.209 84.1137 158.096 84.6288 158.096 85.2076C158.096 85.7962 158.209 86.321 158.434 86.782C158.67 87.2333 158.993 87.5816 159.406 87.8268C159.818 88.0721 160.279 88.1947 160.789 88.1947ZM168.851 81.2787C169.822 81.2787 170.563 81.5337 171.073 82.0439C171.593 82.5442 171.853 83.2946 171.853 84.2952V89.0923H170.852V87.7679C170.627 88.2094 170.293 88.5527 169.852 88.798C169.42 89.0432 168.905 89.1659 168.307 89.1659C167.473 89.1659 166.815 88.9599 166.335 88.5478C165.854 88.1358 165.614 87.5914 165.614 86.9145C165.614 86.2572 165.844 85.7275 166.305 85.3253C166.766 84.9231 167.487 84.722 168.468 84.722H170.793C170.793 84.4277 170.774 84.1775 170.735 83.9715C170.646 82.7943 169.979 82.2057 168.733 82.2057C168.262 82.2057 167.811 82.2891 167.38 82.4559C166.948 82.6226 166.585 82.8483 166.291 83.1328L165.834 82.3529C166.217 82.0095 166.673 81.7447 167.203 81.5583C167.733 81.3719 168.282 81.2787 168.851 81.2787ZM168.498 88.3271C169.636 88.3271 170.401 87.8072 170.793 86.7673V85.4724H168.542C167.286 85.4724 166.659 85.9384 166.659 86.8703C166.659 87.3216 166.82 87.6797 167.144 87.9445C167.468 88.1996 167.919 88.3271 168.498 88.3271ZM177.406 89.1953C176.612 89.1953 175.901 88.9844 175.273 88.5625C174.645 88.1309 174.154 87.5178 173.801 86.7232C173.448 85.9286 173.271 85.0015 173.271 83.9421C173.271 82.8826 173.448 81.9556 173.801 81.161C174.154 80.3664 174.645 79.7581 175.273 79.3363C175.901 78.9047 176.612 78.6889 177.406 78.6889C178.211 78.6889 178.922 78.9047 179.54 79.3363C180.168 79.7581 180.658 80.3664 181.011 81.161C181.365 81.9458 181.541 82.8728 181.541 83.9421C181.541 85.0114 181.365 85.9433 181.011 86.7379C180.658 87.5227 180.168 88.1309 179.54 88.5625C178.922 88.9844 178.211 89.1953 177.406 89.1953ZM177.406 88.18C178.005 88.18 178.525 88.0181 178.966 87.6944C179.417 87.3608 179.766 86.8752 180.011 86.2376C180.266 85.6 180.393 84.8348 180.393 83.9421C180.393 83.0494 180.266 82.2842 180.011 81.6466C179.766 81.0089 179.417 80.5282 178.966 80.2045C178.525 79.871 178.005 79.7042 177.406 79.7042C176.818 79.7042 176.298 79.871 175.847 80.2045C175.395 80.5282 175.047 81.0089 174.802 81.6466C174.557 82.2842 174.434 83.0494 174.434 83.9421C174.434 84.8348 174.557 85.6 174.802 86.2376C175.047 86.8752 175.395 87.3608 175.847 87.6944C176.298 88.0181 176.818 88.18 177.406 88.18ZM186.24 89.1953C185.445 89.1953 184.734 88.9844 184.106 88.5625C183.478 88.1309 182.988 87.5178 182.634 86.7232C182.281 85.9286 182.105 85.0015 182.105 83.9421C182.105 82.8826 182.281 81.9556 182.634 81.161C182.988 80.3664 183.478 79.7581 184.106 79.3363C184.734 78.9047 185.445 78.6889 186.24 78.6889C187.044 78.6889 187.755 78.9047 188.373 79.3363C189.001 79.7581 189.492 80.3664 189.845 81.161C190.198 81.9458 190.374 82.8728 190.374 83.9421C190.374 85.0114 190.198 85.9433 189.845 86.7379C189.492 87.5227 189.001 88.1309 188.373 88.5625C187.755 88.9844 187.044 89.1953 186.24 89.1953ZM186.24 88.18C186.838 88.18 187.358 88.0181 187.799 87.6944C188.251 87.3608 188.599 86.8752 188.844 86.2376C189.099 85.6 189.227 84.8348 189.227 83.9421C189.227 83.0494 189.099 82.2842 188.844 81.6466C188.599 81.0089 188.251 80.5282 187.799 80.2045C187.358 79.871 186.838 79.7042 186.24 79.7042C185.651 79.7042 185.131 79.871 184.68 80.2045C184.229 80.5282 183.88 81.0089 183.635 81.6466C183.39 82.2842 183.267 83.0494 183.267 83.9421C183.267 84.8348 183.39 85.6 183.635 86.2376C183.88 86.8752 184.229 87.3608 184.68 87.6944C185.131 88.0181 185.651 88.18 186.24 88.18ZM196.088 89.0923H194.955V79.763H192.542V78.7919H196.088V89.0923ZM203.479 78.6889C204.843 78.6889 205.893 79.1401 206.628 80.0426C207.364 80.9451 207.732 82.2155 207.732 83.8538C207.732 85.0015 207.536 85.9776 207.143 86.782C206.751 87.5767 206.197 88.18 205.481 88.592C204.774 88.9942 203.945 89.1953 202.994 89.1953C201.974 89.1953 201.149 88.9991 200.522 88.6067L200.978 87.7238C201.458 88.0377 202.126 88.1947 202.979 88.1947C204.039 88.1947 204.882 87.8759 205.51 87.2382C206.138 86.5908 206.481 85.649 206.54 84.413L206.555 83.9274C206.555 83.6331 206.535 83.3535 206.496 83.0886C206.27 83.687 205.883 84.153 205.333 84.4865C204.784 84.8103 204.142 84.9721 203.406 84.9721C202.729 84.9721 202.126 84.8446 201.596 84.5895C201.076 84.3345 200.669 83.9764 200.375 83.5153C200.08 83.0445 199.933 82.5 199.933 81.882C199.933 81.2443 200.085 80.6852 200.389 80.2045C200.703 79.7238 201.13 79.351 201.669 79.0862C202.209 78.8213 202.812 78.6889 203.479 78.6889ZM203.612 84.0598C204.112 84.0598 204.558 83.9617 204.951 83.7655C205.353 83.5693 205.662 83.2995 205.878 82.9562C206.094 82.6128 206.202 82.2351 206.202 81.8231C206.202 81.4405 206.099 81.0825 205.893 80.7489C205.687 80.4056 205.378 80.1309 204.966 79.9249C204.563 79.7189 204.083 79.6159 203.523 79.6159C202.788 79.6159 202.194 79.817 201.743 80.2192C201.292 80.6214 201.066 81.1561 201.066 81.8231C201.066 82.5098 201.292 83.0543 201.743 83.4565C202.204 83.8587 202.827 84.0598 203.612 84.0598ZM212.313 78.6889C213.676 78.6889 214.726 79.1401 215.462 80.0426C216.197 80.9451 216.565 82.2155 216.565 83.8538C216.565 85.0015 216.369 85.9776 215.977 86.782C215.584 87.5767 215.03 88.18 214.314 88.592C213.608 88.9942 212.779 89.1953 211.827 89.1953C210.807 89.1953 209.983 88.9991 209.355 88.6067L209.811 87.7238C210.292 88.0377 210.959 88.1947 211.812 88.1947C212.872 88.1947 213.715 87.8759 214.343 87.2382C214.971 86.5908 215.314 85.649 215.373 84.413L215.388 83.9274C215.388 83.6331 215.368 83.3535 215.329 83.0886C215.104 83.687 214.716 84.153 214.167 84.4865C213.617 84.8103 212.975 84.9721 212.239 84.9721C211.562 84.9721 210.959 84.8446 210.429 84.5895C209.909 84.3345 209.502 83.9764 209.208 83.5153C208.913 83.0445 208.766 82.5 208.766 81.882C208.766 81.2443 208.918 80.6852 209.222 80.2045C209.536 79.7238 209.963 79.351 210.503 79.0862C211.042 78.8213 211.646 78.6889 212.313 78.6889ZM212.445 84.0598C212.945 84.0598 213.392 83.9617 213.784 83.7655C214.186 83.5693 214.495 83.2995 214.711 82.9562C214.927 82.6128 215.035 82.2351 215.035 81.8231C215.035 81.4405 214.932 81.0825 214.726 80.7489C214.52 80.4056 214.211 80.1309 213.799 79.9249C213.397 79.7189 212.916 79.6159 212.357 79.6159C211.621 79.6159 211.027 79.817 210.576 80.2192C210.125 80.6214 209.899 81.1561 209.899 81.8231C209.899 82.5098 210.125 83.0543 210.576 83.4565C211.037 83.8587 211.66 84.0598 212.445 84.0598ZM224.81 78.7036C226.124 78.7036 227.297 78.9783 228.327 79.5276C229.367 80.077 230.176 80.8421 230.755 81.8231C231.333 82.8041 231.623 83.9225 231.623 85.1781C231.623 86.012 231.52 86.7281 231.314 87.3265C231.108 87.9249 230.818 88.3811 230.446 88.695C230.083 88.9991 229.661 89.1511 229.18 89.1511C228.739 89.1511 228.371 89.0334 228.077 88.798C227.792 88.5625 227.62 88.2388 227.562 87.8268C227.562 87.7189 227.552 87.557 227.532 87.3412C227.257 87.9102 226.855 88.3565 226.325 88.6803C225.796 88.9942 225.192 89.1511 224.516 89.1511C223.848 89.1511 223.24 88.9893 222.691 88.6656C222.142 88.3418 221.71 87.8906 221.396 87.3118C221.082 86.733 220.925 86.0757 220.925 85.34C220.925 84.6141 221.082 83.9666 221.396 83.3976C221.71 82.8188 222.142 82.3676 222.691 82.0439C223.24 81.7201 223.848 81.5583 224.516 81.5583C225.173 81.5583 225.756 81.7103 226.267 82.0144C226.777 82.3087 227.174 82.7256 227.459 83.2652V81.6318H228.444V87.2235C228.444 87.5963 228.523 87.8709 228.68 88.0475C228.847 88.2143 229.067 88.2977 229.342 88.2977C229.793 88.2977 230.151 88.0279 230.416 87.4884C230.691 86.9488 230.828 86.1836 230.828 85.1928C230.828 84.0647 230.573 83.069 230.063 82.2057C229.553 81.3326 228.842 80.6607 227.929 80.1898C227.017 79.7091 225.977 79.4687 224.81 79.4687C223.623 79.4687 222.568 79.7189 221.646 80.2192C220.734 80.7097 220.023 81.4013 219.512 82.294C219.002 83.1867 218.747 84.202 218.747 85.34C218.747 86.4878 218.997 87.5129 219.498 88.4154C220.008 89.3081 220.714 90.0046 221.617 90.5049C222.529 91.0052 223.574 91.2554 224.751 91.2554C225.222 91.2554 225.707 91.2014 226.208 91.0935C226.708 90.9856 227.159 90.8237 227.562 90.6079L227.856 91.3437C227.424 91.5693 226.929 91.741 226.37 91.8587C225.81 91.9764 225.271 92.0353 224.751 92.0353C223.417 92.0353 222.23 91.7508 221.19 91.1818C220.15 90.6128 219.341 89.8231 218.762 88.8127C218.183 87.7925 217.894 86.6349 217.894 85.34C217.894 84.0549 218.183 82.912 218.762 81.9114C219.351 80.901 220.17 80.1162 221.219 79.557C222.269 78.9881 223.466 78.7036 224.81 78.7036ZM224.692 88.2683C225.222 88.2683 225.693 88.1456 226.105 87.9004C226.527 87.6551 226.855 87.3118 227.091 86.8703C227.336 86.4289 227.459 85.9188 227.459 85.34C227.459 84.771 227.336 84.2658 227.091 83.8244C226.855 83.3829 226.527 83.0445 226.105 82.809C225.693 82.5638 225.222 82.4412 224.692 82.4412C224.162 82.4412 223.687 82.5638 223.265 82.809C222.853 83.0445 222.529 83.3829 222.294 83.8244C222.058 84.2658 221.94 84.771 221.94 85.34C221.94 85.9188 222.058 86.4289 222.294 86.8703C222.529 87.3118 222.853 87.6551 223.265 87.9004C223.687 88.1456 224.162 88.2683 224.692 88.2683ZM237.24 81.2787C238.162 81.2787 238.893 81.5632 239.432 82.1321C239.972 82.6913 240.242 83.5104 240.242 84.5895V89.0923H239.182V84.722C239.182 83.9176 238.991 83.3093 238.608 82.8973C238.235 82.4755 237.701 82.2646 237.004 82.2646C236.229 82.2646 235.611 82.5147 235.15 83.015C234.699 83.5055 234.473 84.1775 234.473 85.031V89.0923H233.414V81.3523H234.429V82.8532C234.694 82.3627 235.067 81.9801 235.548 81.7054C236.028 81.4209 236.592 81.2787 237.24 81.2787ZM244.819 81.2787C245.791 81.2787 246.531 81.5337 247.041 82.0439C247.561 82.5442 247.821 83.2946 247.821 84.2952V89.0923H246.821V87.7679C246.595 88.2094 246.262 88.5527 245.82 88.798C245.388 89.0432 244.873 89.1659 244.275 89.1659C243.441 89.1659 242.784 88.9599 242.303 88.5478C241.823 88.1358 241.582 87.5914 241.582 86.9145C241.582 86.2572 241.813 85.7275 242.274 85.3253C242.735 84.9231 243.456 84.722 244.437 84.722H246.762C246.762 84.4277 246.742 84.1775 246.703 83.9715C246.615 82.7943 245.948 82.2057 244.702 82.2057C244.231 82.2057 243.78 82.2891 243.348 82.4559C242.916 82.6226 242.553 82.8483 242.259 83.1328L241.803 82.3529C242.186 82.0095 242.642 81.7447 243.171 81.5583C243.701 81.3719 244.251 81.2787 244.819 81.2787ZM244.466 88.3271C245.604 88.3271 246.369 87.8072 246.762 86.7673V85.4724H244.51C243.255 85.4724 242.627 85.9384 242.627 86.8703C242.627 87.3216 242.789 87.6797 243.113 87.9445C243.436 88.1996 243.888 88.3271 244.466 88.3271ZM252.842 89.0923H251.782L248.501 81.3523H249.605L252.342 87.8415L255.079 81.3523H256.123L252.842 89.0923ZM263.637 85.5019H257.5C257.549 86.3161 257.834 86.9733 258.354 87.4736C258.884 87.9641 259.551 88.2094 260.355 88.2094C260.816 88.2094 261.238 88.126 261.621 87.9592C262.013 87.7925 262.337 87.5423 262.592 87.2088L263.195 87.8857C262.852 88.3075 262.435 88.6263 261.944 88.8421C261.454 89.058 260.919 89.1659 260.34 89.1659C259.585 89.1659 258.908 88.9991 258.31 88.6656C257.721 88.3222 257.26 87.8513 256.927 87.2529C256.603 86.6545 256.441 85.9727 256.441 85.2076C256.441 84.4522 256.598 83.7802 256.912 83.1916C257.226 82.5932 257.657 82.1272 258.207 81.7937C258.766 81.4504 259.384 81.2787 260.061 81.2787C260.738 81.2787 261.346 81.4454 261.885 81.779C262.435 82.1027 262.866 82.5589 263.18 83.1475C263.494 83.7361 263.651 84.413 263.651 85.1781L263.637 85.5019ZM260.076 82.1763C259.369 82.1763 258.776 82.4166 258.295 82.8973C257.824 83.3682 257.559 83.9862 257.5 84.7514H262.651C262.582 83.996 262.307 83.378 261.827 82.8973C261.356 82.4166 260.772 82.1763 260.076 82.1763ZM266.34 82.8826C266.575 82.3529 266.928 81.9507 267.399 81.676C267.87 81.4013 268.434 81.2689 269.091 81.2787V82.3382C269.033 82.3283 268.944 82.3234 268.827 82.3234C268.061 82.3234 267.463 82.5687 267.031 83.0592C266.6 83.5497 266.384 84.2413 266.384 85.134V89.0923H265.324V81.3523H266.34V82.8826ZM270.426 89.1806C270.2 89.1806 270.004 89.1021 269.837 88.9451C269.68 88.7882 269.602 88.592 269.602 88.3565C269.602 88.1211 269.68 87.9298 269.837 87.7827C269.994 87.6257 270.19 87.5472 270.426 87.5472C270.661 87.5472 270.857 87.6257 271.014 87.7827C271.171 87.9298 271.25 88.1211 271.25 88.3565C271.25 88.592 271.166 88.7882 271 88.9451C270.843 89.1021 270.651 89.1806 270.426 89.1806ZM276.291 89.1659C275.565 89.1659 274.908 88.9991 274.319 88.6656C273.74 88.3222 273.284 87.8513 272.951 87.2529C272.627 86.6545 272.465 85.9727 272.465 85.2076C272.465 84.4522 272.627 83.7753 272.951 83.1769C273.284 82.5785 273.74 82.1125 274.319 81.779C274.908 81.4454 275.565 81.2787 276.291 81.2787C276.928 81.2787 277.502 81.4111 278.012 81.676C278.523 81.9409 278.925 82.3283 279.219 82.8385L278.395 83.3682C278.15 82.9954 277.841 82.7158 277.468 82.5294C277.105 82.3332 276.708 82.2351 276.276 82.2351C275.756 82.2351 275.285 82.3578 274.863 82.603C274.451 82.8483 274.128 83.1965 273.892 83.6478C273.657 84.099 273.539 84.619 273.539 85.2076C273.539 85.806 273.657 86.3308 273.892 86.782C274.128 87.2333 274.451 87.5816 274.863 87.8268C275.285 88.0721 275.756 88.1947 276.276 88.1947C276.718 88.1947 277.12 88.1015 277.483 87.9151C277.846 87.7287 278.15 87.4442 278.395 87.0616L279.219 87.6061C278.915 88.1064 278.508 88.4939 277.998 88.7686C277.497 89.0334 276.928 89.1659 276.291 89.1659ZM283.825 89.1659C283.109 89.1659 282.462 88.9991 281.883 88.6656C281.314 88.3222 280.863 87.8513 280.529 87.2529C280.206 86.6545 280.044 85.9727 280.044 85.2076C280.044 84.4522 280.206 83.7753 280.529 83.1769C280.863 82.5785 281.314 82.1125 281.883 81.779C282.462 81.4454 283.109 81.2787 283.825 81.2787C284.532 81.2787 285.169 81.4454 285.738 81.779C286.317 82.1125 286.768 82.5785 287.092 83.1769C287.416 83.7753 287.578 84.4522 287.578 85.2076C287.578 85.9727 287.416 86.6545 287.092 87.2529C286.768 87.8513 286.317 88.3222 285.738 88.6656C285.169 88.9991 284.532 89.1659 283.825 89.1659ZM283.825 88.1947C284.336 88.1947 284.792 88.0721 285.194 87.8268C285.606 87.5816 285.93 87.2333 286.165 86.782C286.4 86.321 286.518 85.7962 286.518 85.2076C286.518 84.6288 286.4 84.1137 286.165 83.6625C285.93 83.2112 285.606 82.863 285.194 82.6177C284.792 82.3627 284.336 82.2351 283.825 82.2351C283.305 82.2351 282.839 82.3627 282.427 82.6177C282.025 82.863 281.706 83.2112 281.471 83.6625C281.236 84.1137 281.118 84.6288 281.118 85.2076C281.118 85.7962 281.231 86.321 281.456 86.782C281.692 87.2333 282.015 87.5816 282.427 87.8268C282.839 88.0721 283.305 88.1947 283.825 88.1947ZM298.344 81.2787C299.257 81.2787 299.973 81.5632 300.493 82.1321C301.022 82.6913 301.287 83.5104 301.287 84.5895V89.0923H300.243V84.722C300.243 83.9176 300.061 83.3093 299.698 82.8973C299.335 82.4755 298.82 82.2646 298.153 82.2646C297.407 82.2646 296.814 82.5098 296.373 83.0003C295.931 83.4908 295.71 84.1628 295.71 85.0163V89.0923H294.666V84.722C294.666 83.9176 294.484 83.3093 294.121 82.8973C293.768 82.4755 293.263 82.2646 292.606 82.2646C291.85 82.2646 291.252 82.5098 290.81 83.0003C290.379 83.4908 290.163 84.1628 290.163 85.0163V89.0923H289.103V81.3523H290.119V82.8385C290.374 82.348 290.732 81.9654 291.193 81.6907C291.664 81.416 292.208 81.2787 292.826 81.2787C293.464 81.2787 294.008 81.4307 294.46 81.7348C294.921 82.0389 295.254 82.4804 295.46 83.0592C295.705 82.5098 296.078 82.0782 296.579 81.7643C297.089 81.4405 297.677 81.2787 298.344 81.2787ZM302.791 89.8133C303.291 88.9795 303.654 88.077 303.88 87.1058C304.115 86.1346 304.233 85.08 304.233 83.9421C304.233 82.8041 304.115 81.7496 303.88 80.7784C303.654 79.8072 303.291 78.9047 302.791 78.0708H303.718C304.189 78.8164 304.547 79.6944 304.792 80.7048C305.047 81.7054 305.175 82.7845 305.175 83.9421C305.175 85.0898 305.047 86.164 304.792 87.1646C304.547 88.1652 304.189 89.0481 303.718 89.8133H302.791ZM1.14776 104.763V103.718H10.4329V111.179H9.34395V104.763H1.14776ZM11.1833 114.019H0.470876V112.974H4.57633V107.794H5.66523V112.974H11.1833V114.019ZM22.3945 110.266H21.3645V106.985H19.3632V110.149H18.3479V103.35H19.3632V105.94H21.3645V103.292H22.3945V110.266ZM16.9794 105.44C16.9794 106.352 16.7783 107.137 16.3761 107.794C15.9837 108.452 15.4393 108.957 14.7428 109.31C14.0561 109.653 13.2762 109.83 12.4031 109.84V108.854C13.0996 108.844 13.7127 108.707 14.2425 108.442C14.782 108.177 15.1989 107.794 15.4932 107.294C15.7973 106.784 15.9494 106.181 15.9494 105.484V104.557H12.4031V103.601H16.9794V105.44ZM22.3945 110.929V114.563H21.335V111.9H13.0064V110.929H22.3945ZM33.0318 111.797V103.292H34.0471V111.797H33.0318ZM28.3819 106.529V105.499H30.3831V103.35H31.3985V111.591H30.3831V106.529H28.3819ZM26.5278 107.603C25.9589 109.035 25.0465 109.889 23.7909 110.163V109.119C24.6443 108.854 25.2575 108.216 25.6302 107.206C26.003 106.195 26.1894 104.935 26.1894 103.424L27.2194 103.453C27.2194 104.66 27.1115 105.69 26.8957 106.544L29.5444 109.31L28.8381 110.046L26.5278 107.603ZM34.3414 114.416H24.7473V110.958H25.8362V113.401H34.3414V114.416ZM45.4791 114.593H44.4196V109.03H42.3301V107.986H44.4196V103.292H45.4791V114.593ZM40.1376 112.856C40.6477 112.856 41.1578 112.807 41.6679 112.709C42.178 112.611 42.5949 112.479 42.9187 112.312V113.342C42.5949 113.518 42.1829 113.656 41.6826 113.754C41.1823 113.842 40.6673 113.886 40.1376 113.886H36.0321V103.733H42.1682V104.763H37.0916V108.206H41.5502V109.222H37.0916V112.856H40.1376ZM51.095 106.617C50.8595 106.617 50.6633 106.539 50.5064 106.382C50.3494 106.225 50.2709 106.029 50.2709 105.793C50.2709 105.558 50.3494 105.366 50.5064 105.219C50.6633 105.062 50.8595 104.984 51.095 104.984C51.3304 104.984 51.5266 105.062 51.6836 105.219C51.8405 105.366 51.919 105.558 51.919 105.793C51.919 106.029 51.8405 106.225 51.6836 106.382C51.5266 106.539 51.3304 106.617 51.095 106.617ZM51.095 112.9C50.8693 112.9 50.6731 112.822 50.5064 112.665C50.3494 112.508 50.2709 112.312 50.2709 112.076C50.2709 111.841 50.3494 111.645 50.5064 111.488C50.6731 111.331 50.8693 111.252 51.095 111.252C51.3206 111.252 51.5119 111.331 51.6689 111.488C51.8356 111.645 51.919 111.841 51.919 112.076C51.919 112.312 51.8356 112.508 51.6689 112.665C51.5119 112.822 51.3206 112.9 51.095 112.9ZM61.0029 114.092H59.8699V104.763H57.4566V103.792H61.0029V114.092ZM68.1587 108C71.0134 108 72.4407 109.021 72.4407 111.061C72.4407 111.659 72.2985 112.194 72.014 112.665C71.7393 113.136 71.3175 113.509 70.7485 113.783C70.1893 114.058 69.4977 114.195 68.6737 114.195C67.9281 114.195 67.2218 114.073 66.5547 113.827C65.8877 113.582 65.3579 113.258 64.9655 112.856L65.4953 111.988C65.819 112.341 66.2604 112.631 66.8196 112.856C67.3886 113.072 68.0017 113.18 68.659 113.18C69.5026 113.18 70.1501 112.989 70.6013 112.606C71.0624 112.223 71.2929 111.718 71.2929 111.09C71.2929 110.394 71.0379 109.869 70.5278 109.516C70.0176 109.163 69.1446 108.986 67.9085 108.986H65.6866L66.231 103.792H71.8815V104.763H67.1875L66.8343 108H68.1587ZM76.9919 108C79.8466 108 81.2739 109.021 81.2739 111.061C81.2739 111.659 81.1317 112.194 80.8472 112.665C80.5725 113.136 80.1507 113.509 79.5817 113.783C79.0226 114.058 78.331 114.195 77.5069 114.195C76.7614 114.195 76.0551 114.073 75.388 113.827C74.7209 113.582 74.1912 113.258 73.7988 112.856L74.3285 111.988C74.6522 112.341 75.0937 112.631 75.6529 112.856C76.2218 113.072 76.8349 113.18 77.4922 113.18C78.3359 113.18 78.9833 112.989 79.4346 112.606C79.8956 112.223 80.1262 111.718 80.1262 111.09C80.1262 110.394 79.8711 109.869 79.361 109.516C78.8509 109.163 77.9778 108.986 76.7418 108.986H74.5198L75.0643 103.792H80.7148V104.763H76.0207L75.6676 108H76.9919ZM87.5026 114.092H86.3696V104.763H83.9564V103.792H87.5026V114.092ZM95.6737 108.471V109.413H91.7743V108.471H95.6737ZM101.716 114.092H100.583V104.763H98.1697V103.792H101.716V114.092ZM108.872 108C111.726 108 113.154 109.021 113.154 111.061C113.154 111.659 113.012 112.194 112.727 112.665C112.452 113.136 112.031 113.509 111.462 113.783C110.902 114.058 110.211 114.195 109.387 114.195C108.641 114.195 107.935 114.073 107.268 113.827C106.601 113.582 106.071 113.258 105.679 112.856L106.208 111.988C106.532 112.341 106.974 112.631 107.533 112.856C108.102 113.072 108.715 113.18 109.372 113.18C110.216 113.18 110.863 112.989 111.314 112.606C111.776 112.223 112.006 111.718 112.006 111.09C112.006 110.394 111.751 109.869 111.241 109.516C110.731 109.163 109.858 108.986 108.622 108.986H106.4L106.944 103.792H112.595V104.763H107.901L107.547 108H108.872ZM118.5 108.206C119.579 108.255 120.398 108.545 120.957 109.075C121.526 109.594 121.81 110.281 121.81 111.135C121.81 111.723 121.668 112.248 121.384 112.709C121.099 113.17 120.673 113.533 120.104 113.798C119.544 114.063 118.863 114.195 118.058 114.195C117.303 114.195 116.592 114.078 115.925 113.842C115.267 113.597 114.742 113.268 114.35 112.856L114.85 111.988C115.194 112.341 115.645 112.631 116.204 112.856C116.773 113.072 117.381 113.18 118.029 113.18C118.872 113.18 119.52 112.998 119.971 112.636C120.432 112.273 120.663 111.772 120.663 111.135C120.663 110.487 120.437 109.987 119.986 109.634C119.535 109.281 118.843 109.104 117.911 109.104H117.161V108.309L119.986 104.763H114.762V103.792H121.398V104.557L118.5 108.206ZM128.216 114.092H127.083V104.763H124.669V103.792H128.216V114.092Z" fill="white"/>
</svg>
