<svg width="107" height="41" viewBox="0 0 107 41" fill="none" xmlns="http://www.w3.org/2000/svg">
<path d="M19.9826 20.4249V24.7316C19.9826 31.5913 16.5618 36.1224 9.90091 36.1224C3.24004 36.1224 0 31.5913 0 24.7316V11.475C0 4.57317 3.32348 0 9.90091 0C16.4783 0 19.9826 4.5872 19.9826 11.475V15.4169M14.17 11.489C14.17 7.04212 12.4596 5.1343 9.90091 5.1343C7.4674 5.1343 5.7153 7.04212 5.7153 11.489V24.7456C5.7153 29.1925 7.42568 31.1003 9.90091 31.1003C12.3761 31.1003 14.17 29.1925 14.17 24.7456V11.489Z" fill="white"/>
<path d="M50.6072 24.594V20.4545H38.3745C37.1373 20.4545 36.1226 19.4268 36.1226 18.1422C36.1226 16.8718 37.1234 15.8298 38.3745 15.8298H68.4559C69.6931 15.8298 70.7078 16.8575 70.7078 18.1422C70.7078 19.4125 69.707 20.4545 68.4559 20.4545H56.4039V24.594M59.0589 0C66.3013 0 69.1787 2.86907 69.1787 6.97996C69.1787 11.0908 66.3013 13.9028 59.0589 13.9028H48.1746C40.974 13.9028 38.0965 11.0338 38.0965 6.97996C38.0965 2.92616 40.974 0 48.1746 0H59.0589ZM59.3231 9.37797C62.3395 9.37797 63.1458 8.22179 63.1458 6.97996C63.1458 5.73813 62.3395 4.62476 59.3231 4.62476H47.9522C44.8523 4.62476 44.0878 5.73813 44.0878 6.97996C44.0878 8.22179 44.8523 9.37797 47.9522 9.37797H59.3231Z" fill="white"/>
<path d="M79.5596 13.7037V15.9003C79.5596 16.1696 79.6015 16.4105 79.7829 16.6797L80.2853 17.1332C80.5086 17.3174 80.69 17.4025 80.9133 17.4025H93.4599C94.7997 17.4025 95.9022 18.5078 95.9022 19.8825V19.925C95.9022 21.2854 94.8136 22.405 93.4599 22.405H79.3782C77.7592 22.405 76.9917 22.0365 75.9868 20.9878L74.954 19.8825C74.005 18.8763 73.7817 18.2386 73.7817 16.4388V10.6144C73.7817 9.56569 74.326 9.013 75.4565 9.013H87.375C87.7798 9.013 88.1008 8.68707 88.1008 8.2761V5.42764H76.3218C74.982 5.42764 73.8794 4.32228 73.8794 2.94765C73.8794 1.5872 74.968 0.467658 76.3218 0.467658H92.2178C93.097 0.467658 93.7948 1.19041 93.7948 2.06903V9.82077C93.7948 12.1165 92.3434 13.6754 90.1383 13.6754H79.5736L79.5596 13.7037ZM106.83 2.93349V20.1234C106.83 21.7389 105.532 23.0569 103.941 23.0569C102.35 23.0569 101.052 21.7389 101.052 20.1234V2.93349C101.052 1.31795 102.35 0 103.941 0C105.532 0 106.83 1.31795 106.83 2.93349Z" fill="white"/>
<path fill-rule="evenodd" clip-rule="evenodd" d="M30.0397 0C31.3496 0 32.4115 1.06471 32.4115 2.37811V21.4725C32.4115 22.273 33.0556 22.9188 33.854 22.9188H64.8119C66.8974 22.9188 68.6261 24.6084 68.6261 26.7433V29.8167C68.6261 30.7308 68.3006 31.6813 67.862 32.4053C67.4991 33.0046 66.5215 34.3087 64.8119 34.3087H43.6543C43.7783 34.6296 43.9573 34.9469 44.1859 35.2268C44.6594 35.8064 45.1258 35.9776 45.4216 35.9776H101.318V29.2048H82.3574V32.3061C82.3574 33.6195 81.2956 34.6842 79.9857 34.6842C78.6758 34.6842 77.6139 33.6195 77.6139 32.3061V28.2035C77.6139 26.1097 79.3155 24.4486 81.3588 24.4486H102.316C104.405 24.4486 106.061 26.1548 106.061 28.2035V36.9789C106.061 39.0727 104.36 40.7338 102.316 40.7338H45.4216C43.3178 40.7338 41.6136 39.5838 40.5163 38.2407C39.4188 36.8974 38.7085 35.1129 38.7085 33.3074C38.7085 31.2136 40.4101 29.5525 42.4534 29.5525H63.8826V27.675H33.854C30.4359 27.675 27.668 24.8998 27.668 21.4725V2.37811C27.668 1.06471 28.7298 0 30.0397 0Z" fill="white"/>
</svg>
