<svg width="591" height="21" viewBox="0 0 591 21" fill="none" xmlns="http://www.w3.org/2000/svg">
<path d="M4.31998 14.7061C3.58113 14.7061 2.91014 14.5327 2.307 14.1859C1.70387 13.8316 1.22889 13.3491 0.882089 12.7384C0.542824 12.1202 0.373192 11.4303 0.373192 10.6689C0.373192 9.9074 0.542824 9.22133 0.882089 8.61065C1.22889 7.99243 1.70387 7.50992 2.307 7.16312C2.91014 6.80877 3.58113 6.6316 4.31998 6.6316C4.88542 6.6316 5.40563 6.73338 5.8806 6.93694C6.35557 7.13296 6.76269 7.42322 7.10195 7.80772L6.57044 8.32793C5.98992 7.70217 5.25484 7.3893 4.36521 7.3893C3.76961 7.3893 3.23056 7.53254 2.74805 7.81903C2.26554 8.10552 1.88858 8.49756 1.61716 8.99515C1.34575 9.49274 1.21005 10.0506 1.21005 10.6689C1.21005 11.2871 1.34575 11.845 1.61716 12.3426C1.88858 12.8402 2.26554 13.2322 2.74805 13.5187C3.23056 13.8052 3.76961 13.9484 4.36521 13.9484C5.2473 13.9484 5.98238 13.6318 6.57044 12.9985L7.10195 13.5187C6.76269 13.9032 6.35557 14.1972 5.8806 14.4008C5.40563 14.6043 4.88542 14.7061 4.31998 14.7061ZM10.4246 14.6835C9.87427 14.6835 9.37668 14.5553 8.93186 14.299C8.49459 14.0351 8.15155 13.6732 7.90276 13.2133C7.65396 12.7535 7.52957 12.2332 7.52957 11.6527C7.52957 11.0722 7.65396 10.552 7.90276 10.0921C8.15155 9.63222 8.49459 9.2741 8.93186 9.01777C9.37668 8.7539 9.87427 8.62196 10.4246 8.62196C10.9675 8.62196 11.4575 8.7539 11.8948 9.01777C12.3321 9.2741 12.6751 9.63222 12.9239 10.0921C13.1727 10.552 13.2971 11.0722 13.2971 11.6527C13.2971 12.2332 13.1727 12.7535 12.9239 13.2133C12.6751 13.6732 12.3321 14.0351 11.8948 14.299C11.4575 14.5553 10.9675 14.6835 10.4246 14.6835ZM10.4246 13.971C10.8167 13.971 11.171 13.8768 11.4877 13.6883C11.8043 13.4923 12.0531 13.2171 12.234 12.8628C12.415 12.5084 12.5055 12.1051 12.5055 11.6527C12.5055 11.2004 12.415 10.8008 12.234 10.454C12.0531 10.0996 11.8043 9.82824 11.4877 9.63975C11.171 9.44373 10.8167 9.34573 10.4246 9.34573C10.0251 9.34573 9.66694 9.44373 9.35029 9.63975C9.03364 9.82824 8.78485 10.0996 8.60391 10.454C8.42296 10.8008 8.33249 11.2004 8.33249 11.6527C8.33249 12.1051 8.42296 12.5084 8.60391 12.8628C8.78485 13.2171 9.03364 13.4923 9.35029 13.6883C9.66694 13.8768 10.0251 13.971 10.4246 13.971ZM17.5795 8.62196C18.0998 8.62196 18.571 8.75013 18.9932 9.00646C19.4153 9.26279 19.7471 9.62468 19.9883 10.0921C20.2371 10.552 20.3615 11.076 20.3615 11.664C20.3615 12.2521 20.2371 12.7761 19.9883 13.236C19.7471 13.6959 19.4153 14.054 18.9932 14.3103C18.571 14.5591 18.0998 14.6835 17.5795 14.6835C17.1046 14.6835 16.6748 14.5666 16.2903 14.3329C15.9134 14.0992 15.6193 13.775 15.4083 13.3604V16.8209H14.6053V8.68981H15.3743V9.99033C15.5854 9.56059 15.8832 9.2251 16.2677 8.98384C16.6522 8.74259 17.0895 8.62196 17.5795 8.62196ZM17.4778 13.971C17.8698 13.971 18.2242 13.8768 18.5408 13.6883C18.8574 13.4923 19.1062 13.2209 19.2872 12.8741C19.4681 12.5197 19.5586 12.1164 19.5586 11.664C19.5586 11.2117 19.4681 10.8083 19.2872 10.454C19.1062 10.0996 18.8574 9.82824 18.5408 9.63975C18.2242 9.44373 17.8698 9.34573 17.4778 9.34573C17.0857 9.34573 16.7314 9.44373 16.4147 9.63975C16.0981 9.82824 15.8493 10.0996 15.6684 10.454C15.4874 10.8083 15.3969 11.2117 15.3969 11.664C15.3969 12.1164 15.4874 12.5197 15.6684 12.8741C15.8493 13.2209 16.0981 13.4923 16.4147 13.6883C16.7314 13.8768 17.0857 13.971 17.4778 13.971ZM23.64 15.3394C23.4138 15.8973 23.1462 16.2931 22.8371 16.5268C22.5279 16.7606 22.1661 16.8774 21.7514 16.8774C21.48 16.8774 21.2199 16.8322 20.9711 16.7417C20.7298 16.6512 20.53 16.5193 20.3717 16.3459L20.7223 15.7239C21.0013 16.0255 21.3367 16.1763 21.7288 16.1763C21.9625 16.1763 22.1585 16.116 22.3168 15.9953C22.4752 15.8822 22.6109 15.7239 22.724 15.5204C22.8371 15.3243 22.9803 15.0303 23.1537 14.6383L20.6318 8.68981H21.4574L23.5608 13.6883L25.6643 8.68981H26.4559L23.64 15.3394ZM28.057 9.89986C28.2304 9.49274 28.4943 9.17986 28.8486 8.96122C29.2105 8.73505 29.6478 8.62196 30.1605 8.62196V9.41358H29.9682C29.3801 9.41358 28.9203 9.60206 28.5885 9.97902C28.2568 10.356 28.0909 10.8913 28.0909 11.5849V14.627H27.288V8.68981H28.057V9.89986ZM31.7789 7.37799C31.613 7.37799 31.4735 7.32521 31.3604 7.21966C31.2473 7.10657 31.1908 6.97087 31.1908 6.81254C31.1908 6.64668 31.2473 6.51098 31.3604 6.40543C31.4735 6.29234 31.613 6.23579 31.7789 6.23579C31.9447 6.23579 32.0842 6.29234 32.1973 6.40543C32.3104 6.51098 32.3669 6.63914 32.3669 6.78993C32.3669 6.95579 32.3104 7.09527 32.1973 7.20835C32.0842 7.32144 31.9447 7.37799 31.7789 7.37799ZM32.186 8.68981V14.627H31.383V8.68981H32.186ZM39.3366 13.9145C39.3366 14.9172 39.0991 15.6598 38.6241 16.1423C38.1492 16.6324 37.4405 16.8774 36.4981 16.8774C35.9628 16.8774 35.4652 16.7983 35.0053 16.6399C34.5454 16.4816 34.1722 16.2554 33.8857 15.9614L34.2363 15.3507C34.5077 15.6146 34.8357 15.8182 35.2202 15.9614C35.6047 16.1046 36.0118 16.1763 36.4415 16.1763C37.1578 16.1763 37.6855 15.9991 38.0248 15.6447C38.364 15.2979 38.5337 14.7551 38.5337 14.0163V13.1003C38.315 13.5074 38.0097 13.824 37.6177 14.0502C37.2332 14.2764 36.7959 14.3895 36.3058 14.3895C35.7781 14.3895 35.2993 14.2688 34.8696 14.0276C34.4474 13.7788 34.1119 13.4358 33.8631 12.9985C33.6219 12.5612 33.5012 12.0636 33.5012 11.5057C33.5012 10.9478 33.6219 10.4502 33.8631 10.0129C34.1119 9.57567 34.4474 9.23641 34.8696 8.99515C35.2993 8.74636 35.7781 8.62196 36.3058 8.62196C36.811 8.62196 37.2595 8.74259 37.6516 8.98384C38.0436 9.21756 38.349 9.54551 38.5676 9.96771V8.68981H39.3366V13.9145ZM36.4302 13.6883C36.8374 13.6883 37.1992 13.5978 37.5159 13.4169C37.8401 13.2284 38.0926 12.9683 38.2736 12.6366C38.4545 12.3049 38.545 11.9279 38.545 11.5057C38.545 11.0835 38.4545 10.7103 38.2736 10.3861C38.0926 10.0544 37.8401 9.79808 37.5159 9.61714C37.1992 9.4362 36.8374 9.34573 36.4302 9.34573C36.0231 9.34573 35.6575 9.4362 35.3333 9.61714C35.0091 9.79808 34.7565 10.0544 34.5756 10.3861C34.3946 10.7103 34.3042 11.0835 34.3042 11.5057C34.3042 11.9279 34.3946 12.3049 34.5756 12.6366C34.7565 12.9683 35.0091 13.2284 35.3333 13.4169C35.6575 13.5978 36.0231 13.6883 36.4302 13.6883ZM44.1421 8.62196C44.8433 8.62196 45.4012 8.8406 45.8158 9.27787C46.2305 9.70761 46.4378 10.3371 46.4378 11.1664V14.627H45.6349V11.2682C45.6349 10.65 45.4879 10.1788 45.1938 9.85462C44.9073 9.53044 44.4965 9.36834 43.9612 9.36834C43.3656 9.36834 42.8906 9.56059 42.5363 9.94509C42.1895 10.3221 42.0161 10.846 42.0161 11.517V14.627H41.2131V6.23579H42.0161V9.83201C42.2121 9.45504 42.491 9.16101 42.8529 8.94992C43.2223 8.73128 43.6521 8.62196 44.1421 8.62196ZM51.257 14.2764C51.1138 14.4121 50.9366 14.5139 50.7255 14.5817C50.5144 14.6496 50.292 14.6835 50.0583 14.6835C49.5305 14.6835 49.1196 14.5327 48.8256 14.2311C48.5391 13.922 48.3959 13.4961 48.3959 12.9532V9.40227H47.4007V8.73505H48.3959V7.37799H49.1875V8.73505H50.8951V9.40227H49.1875V12.908C49.1875 13.2624 49.2704 13.5338 49.4363 13.7222C49.6021 13.9032 49.8434 13.9937 50.16 13.9937C50.4842 13.9937 50.7594 13.8919 50.9856 13.6883L51.257 14.2764ZM59.8786 14.627H54.3147V14.0502L57.5942 10.8159C58.0089 10.4088 58.2879 10.0582 58.4311 9.76415C58.5743 9.47012 58.646 9.16855 58.646 8.85944C58.646 8.39955 58.4876 8.03767 58.171 7.7738C57.8543 7.50992 57.402 7.37799 56.8139 7.37799C55.8866 7.37799 55.1779 7.67956 54.6879 8.28269L54.0659 7.83034C54.3675 7.44584 54.7557 7.15181 55.2307 6.94825C55.7132 6.73715 56.2636 6.6316 56.8818 6.6316C57.6809 6.6316 58.318 6.82762 58.793 7.21966C59.2755 7.60416 59.5167 8.12814 59.5167 8.79159C59.5167 9.19871 59.4225 9.59075 59.234 9.96771C59.0531 10.3371 58.7138 10.7631 58.2162 11.2456L55.5587 13.8919H59.8786V14.627ZM63.874 14.7061C63.2633 14.7061 62.7167 14.544 62.2342 14.2198C61.7517 13.8881 61.3747 13.4169 61.1033 12.8062C60.8394 12.1956 60.7075 11.4831 60.7075 10.6689C60.7075 9.85462 60.8394 9.14217 61.1033 8.53149C61.3747 7.92081 61.7517 7.45338 62.2342 7.12919C62.7167 6.79747 63.2633 6.6316 63.874 6.6316C64.4922 6.6316 65.0388 6.79747 65.5137 7.12919C65.9963 7.45338 66.3694 7.92081 66.6333 8.53149C66.9047 9.13463 67.0404 9.84708 67.0404 10.6689C67.0404 11.4906 66.9047 12.2069 66.6333 12.8175C66.3694 13.4207 65.9963 13.8881 65.5137 14.2198C65.0388 14.544 64.4922 14.7061 63.874 14.7061ZM63.874 13.9484C64.3339 13.9484 64.7372 13.8203 65.084 13.5639C65.4308 13.3076 65.6985 12.9344 65.8869 12.4443C66.083 11.9543 66.181 11.3625 66.181 10.6689C66.181 9.97525 66.083 9.38342 65.8869 8.89337C65.6985 8.40332 65.4308 8.03013 65.084 7.7738C64.7372 7.51746 64.3339 7.3893 63.874 7.3893C63.4216 7.3893 63.022 7.51746 62.6752 7.7738C62.3284 8.03013 62.057 8.40332 61.861 8.89337C61.6725 9.38342 61.5783 9.97525 61.5783 10.6689C61.5783 11.3625 61.6725 11.9543 61.861 12.4443C62.057 12.9344 62.3284 13.3076 62.6752 13.5639C63.022 13.8203 63.4216 13.9484 63.874 13.9484ZM73.4559 14.627H67.8919V14.0502L71.1715 10.8159C71.5861 10.4088 71.8651 10.0582 72.0083 9.76415C72.1516 9.47012 72.2232 9.16855 72.2232 8.85944C72.2232 8.39955 72.0649 8.03767 71.7482 7.7738C71.4316 7.50992 70.9792 7.37799 70.3912 7.37799C69.4638 7.37799 68.7552 7.67956 68.2651 8.28269L67.6431 7.83034C67.9447 7.44584 68.333 7.15181 68.8079 6.94825C69.2904 6.73715 69.8408 6.6316 70.459 6.6316C71.2582 6.6316 71.8952 6.82762 72.3702 7.21966C72.8527 7.60416 73.094 8.12814 73.094 8.79159C73.094 9.19871 72.9997 9.59075 72.8113 9.96771C72.6303 10.3371 72.2911 10.7631 71.7935 11.2456L69.1359 13.8919H73.4559V14.627ZM79.4642 12.5461V14.627H78.616V12.5461H74.1716V11.9581L78.3333 6.71077H79.2606L75.2347 11.8224H78.6386V9.99033H79.4642V11.8224H81.0361V12.5461H79.4642ZM85.1983 15.1698C84.8364 14.5817 84.5574 13.907 84.3614 13.1455C84.1654 12.3765 84.0674 11.5509 84.0674 10.6689C84.0674 9.78677 84.1654 8.96122 84.3614 8.19222C84.5574 7.41568 84.8364 6.74092 85.1983 6.16794H85.8768C85.4998 6.82385 85.2209 7.52123 85.04 8.26008C84.859 8.99892 84.7685 9.80185 84.7685 10.6689C84.7685 11.5359 84.859 12.3388 85.04 13.0776C85.2209 13.8165 85.4998 14.5139 85.8768 15.1698H85.1983ZM90.5176 9.00646C90.1256 9.54174 89.6129 9.97148 88.9796 10.2957C88.3463 10.6199 87.6527 10.8159 86.8988 10.8837V10.0921C87.7809 10.0092 88.5386 9.72646 89.1719 9.24395C89.8052 8.7539 90.2048 8.12437 90.3706 7.35537H87.1024V6.57506H94.3626V7.35537H91.2414C91.1962 7.70217 91.0981 8.0339 90.9474 8.35055L94.6114 10.126L94.2609 10.8385L90.5176 9.00646ZM91.1283 12.6818V15.215H90.3028V12.6818H86.6161V11.8902H94.8489V12.6818H91.1283ZM95.5941 15.1698C95.9711 14.5139 96.2462 13.8165 96.4196 13.0776C96.6006 12.3388 96.6911 11.5359 96.6911 10.6689C96.6911 9.80185 96.6006 8.99892 96.4196 8.26008C96.2462 7.52123 95.9711 6.82385 95.5941 6.16794H96.2613C96.6232 6.74092 96.8984 7.41191 97.0869 8.18091C97.2829 8.94992 97.3809 9.77923 97.3809 10.6689C97.3809 11.5509 97.2829 12.3765 97.0869 13.1455C96.8984 13.907 96.6232 14.5817 96.2613 15.1698H95.5941ZM106.646 15.0115H105.865V6.32626H106.646V15.0115ZM104.655 6.3715V14.8644H103.875V10.8272H102.688C102.665 12.1013 102.495 13.0475 102.179 13.6657C101.862 14.2764 101.398 14.5817 100.788 14.5817C100.162 14.5817 99.687 14.2575 99.3628 13.6092C99.0461 12.9532 98.8878 11.9392 98.8878 10.5671C98.8878 7.89065 99.5211 6.55244 100.788 6.55244C101.971 6.55244 102.601 7.70217 102.676 10.0016H103.875V6.3715H104.655ZM100.788 13.8014C101.165 13.8014 101.444 13.5375 101.625 13.0098C101.813 12.4745 101.907 11.6603 101.907 10.5671C101.907 9.47389 101.813 8.66342 101.625 8.13568C101.444 7.60039 101.165 7.33275 100.788 7.33275C100.411 7.33275 100.128 7.60039 99.9395 8.13568C99.7586 8.66342 99.6681 9.47389 99.6681 10.5671C99.6681 11.6603 99.7586 12.4745 99.9395 13.0098C100.128 13.5375 100.411 13.8014 100.788 13.8014ZM111.7 9.13086C111.225 9.93001 110.648 10.5708 109.969 11.0534C109.298 11.5283 108.597 11.7658 107.866 11.7658V10.9516C108.461 10.9516 109.034 10.7443 109.585 10.3296C110.135 9.91494 110.606 9.3608 110.998 8.66719C111.398 7.96605 111.673 7.20081 111.824 6.3715L112.661 6.54113C112.54 7.18197 112.337 7.81903 112.05 8.45233L115.714 11.1212L115.273 11.7884L111.7 9.13086ZM115.94 13.7675V14.5704H107.708V13.7675H115.94ZM124.556 15.0115H123.776V6.32626H124.556V15.0115ZM122.566 6.3715V14.8644H121.786V10.8272H120.598C120.576 12.1013 120.406 13.0475 120.089 13.6657C119.773 14.2764 119.309 14.5817 118.699 14.5817C118.073 14.5817 117.598 14.2575 117.274 13.6092C116.957 12.9532 116.799 11.9392 116.799 10.5671C116.799 7.89065 117.432 6.55244 118.699 6.55244C119.882 6.55244 120.512 7.70217 120.587 10.0016H121.786V6.3715H122.566ZM118.699 13.8014C119.075 13.8014 119.354 13.5375 119.535 13.0098C119.724 12.4745 119.818 11.6603 119.818 10.5671C119.818 9.47389 119.724 8.66342 119.535 8.13568C119.354 7.60039 119.075 7.33275 118.699 7.33275C118.322 7.33275 118.039 7.60039 117.85 8.13568C117.669 8.66342 117.579 9.47389 117.579 10.5671C117.579 11.6603 117.669 12.4745 117.85 13.0098C118.039 13.5375 118.322 13.8014 118.699 13.8014ZM132.46 15.0115V6.32626H133.286V15.0115H132.46ZM128.479 6.55244C129.233 6.55244 129.833 6.89171 130.278 7.57024C130.73 8.24877 130.956 9.24771 130.956 10.5671C130.956 11.8864 130.73 12.8854 130.278 13.5639C129.833 14.2425 129.233 14.5817 128.479 14.5817C127.726 14.5817 127.122 14.2425 126.67 13.5639C126.225 12.8854 126.003 11.8864 126.003 10.5671C126.003 9.24771 126.225 8.24877 126.67 7.57024C127.122 6.89171 127.726 6.55244 128.479 6.55244ZM128.479 7.33275C127.974 7.33275 127.571 7.60416 127.269 8.14699C126.968 8.68227 126.817 9.48897 126.817 10.5671C126.817 11.6527 126.968 12.4632 127.269 12.9985C127.571 13.5338 127.974 13.8014 128.479 13.8014C128.97 13.8014 129.369 13.5338 129.678 12.9985C129.987 12.4557 130.142 11.6452 130.142 10.5671C130.142 9.49651 129.987 8.68981 129.678 8.14699C129.369 7.60416 128.97 7.33275 128.479 7.33275ZM142.807 14.5704H134.574V13.7675H138.272V11.5283H135.15V6.66553H142.23V11.5283H139.097V13.7675H142.807V14.5704ZM141.416 10.7367V7.46846H135.953V10.7367H141.416ZM150.959 10.7367V15.0115H150.145V6.32626H150.959V9.92248H152.158V10.7367H150.959ZM148.494 6.59768V14.4686H143.948V6.59768H144.762V9.68499H147.691V6.59768H148.494ZM147.691 10.4653H144.762V13.677H147.691V10.4653ZM159.326 10.601V6.32626H160.152V10.601H159.326ZM155.21 6.42804C155.723 6.42804 156.171 6.51475 156.556 6.68815C156.94 6.86155 157.234 7.09904 157.438 7.4006C157.641 7.70217 157.743 8.04898 157.743 8.44102C157.743 8.82552 157.641 9.17232 157.438 9.48143C157.234 9.783 156.94 10.0205 156.556 10.1939C156.171 10.3598 155.723 10.4427 155.21 10.4427C154.69 10.4427 154.237 10.3598 153.853 10.1939C153.476 10.0205 153.186 9.783 152.982 9.48143C152.779 9.17986 152.677 8.83306 152.677 8.44102C152.677 8.04898 152.779 7.70217 152.982 7.4006C153.186 7.09904 153.476 6.86155 153.853 6.68815C154.237 6.51475 154.69 6.42804 155.21 6.42804ZM155.21 7.12919C154.69 7.12919 154.271 7.24605 153.955 7.47977C153.638 7.70594 153.48 8.02636 153.48 8.44102C153.48 8.85568 153.638 9.17609 153.955 9.40227C154.271 9.62845 154.69 9.74153 155.21 9.74153C155.73 9.74153 156.149 9.62845 156.465 9.40227C156.782 9.17609 156.94 8.85568 156.94 8.44102C156.94 8.02636 156.782 7.70594 156.465 7.47977C156.149 7.24605 155.73 7.12919 155.21 7.12919ZM154.136 13.3038V14.2198H160.378V14.8757H153.321V12.6931H159.338V11.7658H153.299V11.1099H160.152V13.3038H154.136ZM164.92 12.5122L164.027 14.627H163.167L166.594 6.71077H167.408L170.857 14.627H169.975L169.082 12.5122H164.92ZM167.012 7.60416L165.192 11.8337H168.811L167.012 7.60416ZM172.441 6.23579V14.627H171.638V6.23579H172.441ZM175.125 6.23579V14.627H174.322V6.23579H175.125ZM180.011 9.89986C180.184 9.49274 180.448 9.17986 180.802 8.96122C181.164 8.73505 181.601 8.62196 182.114 8.62196V9.41358H181.922C181.334 9.41358 180.874 9.60206 180.542 9.97902C180.21 10.356 180.045 10.8913 180.045 11.5849V14.627H179.242V8.68981H180.011V9.89986ZM183.733 7.37799C183.567 7.37799 183.427 7.32521 183.314 7.21966C183.201 7.10657 183.144 6.97087 183.144 6.81254C183.144 6.64668 183.201 6.51098 183.314 6.40543C183.427 6.29234 183.567 6.23579 183.733 6.23579C183.898 6.23579 184.038 6.29234 184.151 6.40543C184.264 6.51098 184.321 6.63914 184.321 6.78993C184.321 6.95579 184.264 7.09527 184.151 7.20835C184.038 7.32144 183.898 7.37799 183.733 7.37799ZM184.14 8.68981V14.627H183.337V8.68981H184.14ZM191.29 13.9145C191.29 14.9172 191.053 15.6598 190.578 16.1423C190.103 16.6324 189.394 16.8774 188.452 16.8774C187.916 16.8774 187.419 16.7983 186.959 16.6399C186.499 16.4816 186.126 16.2554 185.839 15.9614L186.19 15.3507C186.461 15.6146 186.789 15.8182 187.174 15.9614C187.558 16.1046 187.965 16.1763 188.395 16.1763C189.111 16.1763 189.639 15.9991 189.978 15.6447C190.318 15.2979 190.487 14.7551 190.487 14.0163V13.1003C190.269 13.5074 189.963 13.824 189.571 14.0502C189.187 14.2764 188.75 14.3895 188.26 14.3895C187.732 14.3895 187.253 14.2688 186.823 14.0276C186.401 13.7788 186.066 13.4358 185.817 12.9985C185.576 12.5612 185.455 12.0636 185.455 11.5057C185.455 10.9478 185.576 10.4502 185.817 10.0129C186.066 9.57567 186.401 9.23641 186.823 8.99515C187.253 8.74636 187.732 8.62196 188.26 8.62196C188.765 8.62196 189.213 8.74259 189.605 8.98384C189.997 9.21756 190.303 9.54551 190.521 9.96771V8.68981H191.29V13.9145ZM188.384 13.6883C188.791 13.6883 189.153 13.5978 189.47 13.4169C189.794 13.2284 190.046 12.9683 190.227 12.6366C190.408 12.3049 190.499 11.9279 190.499 11.5057C190.499 11.0835 190.408 10.7103 190.227 10.3861C190.046 10.0544 189.794 9.79808 189.47 9.61714C189.153 9.4362 188.791 9.34573 188.384 9.34573C187.977 9.34573 187.611 9.4362 187.287 9.61714C186.963 9.79808 186.71 10.0544 186.529 10.3861C186.348 10.7103 186.258 11.0835 186.258 11.5057C186.258 11.9279 186.348 12.3049 186.529 12.6366C186.71 12.9683 186.963 13.2284 187.287 13.4169C187.611 13.5978 187.977 13.6883 188.384 13.6883ZM196.096 8.62196C196.797 8.62196 197.355 8.8406 197.77 9.27787C198.184 9.70761 198.391 10.3371 198.391 11.1664V14.627H197.589V11.2682C197.589 10.65 197.442 10.1788 197.148 9.85462C196.861 9.53044 196.45 9.36834 195.915 9.36834C195.319 9.36834 194.844 9.56059 194.49 9.94509C194.143 10.3221 193.97 10.846 193.97 11.517V14.627H193.167V6.23579H193.97V9.83201C194.166 9.45504 194.445 9.16101 194.807 8.94992C195.176 8.73128 195.606 8.62196 196.096 8.62196ZM203.211 14.2764C203.067 14.4121 202.89 14.5139 202.679 14.5817C202.468 14.6496 202.246 14.6835 202.012 14.6835C201.484 14.6835 201.073 14.5327 200.779 14.2311C200.493 13.922 200.35 13.4961 200.35 12.9532V9.40227H199.354V8.73505H200.35V7.37799H201.141V8.73505H202.849V9.40227H201.141V12.908C201.141 13.2624 201.224 13.5338 201.39 13.7222C201.556 13.9032 201.797 13.9937 202.114 13.9937C202.438 13.9937 202.713 13.8919 202.939 13.6883L203.211 14.2764ZM205.658 14.6835C205.206 14.6835 204.768 14.6156 204.346 14.4799C203.924 14.3367 203.596 14.1558 203.362 13.9371L203.668 13.3264C203.909 13.5225 204.211 13.6883 204.572 13.824C204.934 13.9522 205.307 14.0163 205.692 14.0163C206.22 14.0163 206.604 13.9296 206.845 13.7562C207.094 13.5752 207.219 13.3302 207.219 13.0211C207.219 12.8025 207.151 12.6291 207.015 12.5009C206.879 12.3727 206.71 12.2785 206.506 12.2182C206.303 12.1503 206.02 12.0825 205.658 12.0146C205.206 11.9317 204.836 11.8412 204.55 11.7432C204.271 11.6452 204.033 11.4831 203.837 11.2569C203.641 11.0307 203.543 10.7179 203.543 10.3183C203.543 9.82824 203.739 9.42489 204.131 9.10824C204.523 8.78405 205.078 8.62196 205.794 8.62196C206.156 8.62196 206.518 8.67473 206.879 8.78028C207.249 8.88583 207.55 9.02531 207.784 9.19871L207.479 9.8207C207.238 9.64729 206.97 9.51913 206.676 9.4362C206.389 9.34572 206.095 9.30049 205.794 9.30049C205.304 9.30049 204.934 9.39096 204.685 9.5719C204.444 9.75284 204.324 9.9941 204.324 10.2957C204.324 10.5218 204.391 10.7028 204.527 10.8385C204.67 10.9742 204.848 11.076 205.059 11.1438C205.277 11.2117 205.564 11.2795 205.918 11.3474C206.363 11.4303 206.721 11.5208 206.992 11.6188C207.271 11.7168 207.505 11.8751 207.694 12.0938C207.89 12.3124 207.988 12.614 207.988 12.9985C207.988 13.5111 207.784 13.922 207.377 14.2311C206.977 14.5327 206.404 14.6835 205.658 14.6835ZM212.165 9.89986C212.338 9.49274 212.602 9.17986 212.956 8.96122C213.318 8.73505 213.755 8.62196 214.268 8.62196V9.41358H214.076C213.488 9.41358 213.028 9.60206 212.696 9.97902C212.364 10.356 212.199 10.8913 212.199 11.5849V14.627H211.396V8.68981H212.165V9.89986ZM220.433 11.8563H215.717C215.74 12.2709 215.845 12.6404 216.034 12.9646C216.23 13.2887 216.49 13.5413 216.814 13.7222C217.146 13.8956 217.515 13.9823 217.922 13.9823C218.276 13.9823 218.601 13.9183 218.895 13.7901C219.189 13.6619 219.438 13.4659 219.641 13.202L220.093 13.7109C219.837 14.0276 219.52 14.2688 219.143 14.4347C218.767 14.6006 218.356 14.6835 217.911 14.6835C217.33 14.6835 216.814 14.5553 216.362 14.299C215.909 14.0351 215.555 13.6732 215.298 13.2133C215.05 12.7535 214.925 12.2332 214.925 11.6527C214.925 11.0722 215.046 10.552 215.287 10.0921C215.528 9.63222 215.86 9.2741 216.282 9.01777C216.705 8.7539 217.176 8.62196 217.696 8.62196C218.216 8.62196 218.684 8.75013 219.098 9.00646C219.52 9.25525 219.848 9.6096 220.082 10.0695C220.323 10.5218 220.444 11.0421 220.444 11.6301L220.433 11.8563ZM217.707 9.30049C217.157 9.30049 216.697 9.48897 216.328 9.86593C215.966 10.2354 215.762 10.7179 215.717 11.3135H219.698C219.645 10.7254 219.434 10.2429 219.064 9.86593C218.702 9.48897 218.25 9.30049 217.707 9.30049ZM223.291 14.6835C222.838 14.6835 222.401 14.6156 221.979 14.4799C221.557 14.3367 221.229 14.1558 220.995 13.9371L221.3 13.3264C221.541 13.5225 221.843 13.6883 222.205 13.824C222.567 13.9522 222.94 14.0163 223.324 14.0163C223.852 14.0163 224.237 13.9296 224.478 13.7562C224.727 13.5752 224.851 13.3302 224.851 13.0211C224.851 12.8025 224.783 12.6291 224.648 12.5009C224.512 12.3727 224.342 12.2785 224.139 12.2182C223.935 12.1503 223.652 12.0825 223.291 12.0146C222.838 11.9317 222.469 11.8412 222.182 11.7432C221.903 11.6452 221.666 11.4831 221.47 11.2569C221.274 11.0307 221.176 10.7179 221.176 10.3183C221.176 9.82824 221.372 9.42489 221.764 9.10824C222.156 8.78405 222.71 8.62196 223.426 8.62196C223.788 8.62196 224.15 8.67473 224.512 8.78028C224.881 8.88583 225.183 9.02531 225.417 9.19871L225.111 9.8207C224.87 9.64729 224.602 9.51913 224.308 9.4362C224.022 9.34572 223.728 9.30049 223.426 9.30049C222.936 9.30049 222.567 9.39096 222.318 9.5719C222.077 9.75284 221.956 9.9941 221.956 10.2957C221.956 10.5218 222.024 10.7028 222.16 10.8385C222.303 10.9742 222.48 11.076 222.691 11.1438C222.91 11.2117 223.196 11.2795 223.551 11.3474C223.995 11.4303 224.354 11.5208 224.625 11.6188C224.904 11.7168 225.138 11.8751 225.326 12.0938C225.522 12.3124 225.62 12.614 225.62 12.9985C225.62 13.5111 225.417 13.922 225.009 14.2311C224.61 14.5327 224.037 14.6835 223.291 14.6835ZM231.734 11.8563H227.018C227.041 12.2709 227.146 12.6404 227.335 12.9646C227.531 13.2887 227.791 13.5413 228.115 13.7222C228.447 13.8956 228.816 13.9823 229.223 13.9823C229.578 13.9823 229.902 13.9183 230.196 13.7901C230.49 13.6619 230.739 13.4659 230.942 13.202L231.395 13.7109C231.138 14.0276 230.822 14.2688 230.445 14.4347C230.068 14.6006 229.657 14.6835 229.212 14.6835C228.631 14.6835 228.115 14.5553 227.663 14.299C227.21 14.0351 226.856 13.6732 226.6 13.2133C226.351 12.7535 226.226 12.2332 226.226 11.6527C226.226 11.0722 226.347 10.552 226.588 10.0921C226.83 9.63222 227.161 9.2741 227.583 9.01777C228.006 8.7539 228.477 8.62196 228.997 8.62196C229.517 8.62196 229.985 8.75013 230.399 9.00646C230.822 9.25525 231.15 9.6096 231.383 10.0695C231.624 10.5218 231.745 11.0421 231.745 11.6301L231.734 11.8563ZM229.008 9.30049C228.458 9.30049 227.998 9.48897 227.629 9.86593C227.267 10.2354 227.063 10.7179 227.018 11.3135H230.999C230.946 10.7254 230.735 10.2429 230.365 9.86593C230.004 9.48897 229.551 9.30049 229.008 9.30049ZM233.823 9.89986C233.996 9.49274 234.26 9.17986 234.614 8.96122C234.976 8.73505 235.413 8.62196 235.926 8.62196V9.41358H235.734C235.146 9.41358 234.686 9.60206 234.354 9.97902C234.022 10.356 233.857 10.8913 233.857 11.5849V14.627H233.054V8.68981H233.823V9.89986ZM239.879 14.627H239.065L236.566 8.68981H237.391L239.494 13.6996L241.598 8.68981H242.39L239.879 14.627ZM248.164 11.8563H243.448C243.47 12.2709 243.576 12.6404 243.765 12.9646C243.961 13.2887 244.221 13.5413 244.545 13.7222C244.877 13.8956 245.246 13.9823 245.653 13.9823C246.007 13.9823 246.332 13.9183 246.626 13.7901C246.92 13.6619 247.168 13.4659 247.372 13.202L247.824 13.7109C247.568 14.0276 247.251 14.2688 246.874 14.4347C246.497 14.6006 246.087 14.6835 245.642 14.6835C245.061 14.6835 244.545 14.5553 244.092 14.299C243.64 14.0351 243.286 13.6732 243.029 13.2133C242.781 12.7535 242.656 12.2332 242.656 11.6527C242.656 11.0722 242.777 10.552 243.018 10.0921C243.259 9.63222 243.591 9.2741 244.013 9.01777C244.435 8.7539 244.907 8.62196 245.427 8.62196C245.947 8.62196 246.415 8.75013 246.829 9.00646C247.251 9.25525 247.579 9.6096 247.813 10.0695C248.054 10.5218 248.175 11.0421 248.175 11.6301L248.164 11.8563ZM245.438 9.30049C244.888 9.30049 244.428 9.48897 244.059 9.86593C243.697 10.2354 243.493 10.7179 243.448 11.3135H247.429C247.376 10.7254 247.165 10.2429 246.795 9.86593C246.433 9.48897 245.981 9.30049 245.438 9.30049ZM254.674 14.627H253.917V13.3264C253.698 13.7562 253.396 14.0917 253.012 14.3329C252.635 14.5666 252.201 14.6835 251.711 14.6835C251.184 14.6835 250.709 14.5553 250.286 14.299C249.864 14.0427 249.529 13.6845 249.28 13.2247C249.039 12.7648 248.918 12.2408 248.918 11.6527C248.918 11.0647 249.039 10.5407 249.28 10.0808C249.529 9.62091 249.864 9.26279 250.286 9.00646C250.709 8.75013 251.184 8.62196 251.711 8.62196C252.186 8.62196 252.612 8.73882 252.989 8.97253C253.374 9.20625 253.672 9.53044 253.883 9.94509V6.23579H254.674V14.627ZM251.813 13.971C252.205 13.971 252.56 13.8768 252.876 13.6883C253.193 13.4923 253.442 13.2171 253.623 12.8628C253.803 12.5084 253.894 12.1051 253.894 11.6527C253.894 11.2004 253.803 10.8008 253.623 10.454C253.442 10.0996 253.193 9.82824 252.876 9.63975C252.56 9.44373 252.205 9.34573 251.813 9.34573C251.421 9.34573 251.067 9.44373 250.75 9.63975C250.433 9.82824 250.185 10.0996 250.004 10.454C249.823 10.8008 249.732 11.2004 249.732 11.6527C249.732 12.1051 249.823 12.5084 250.004 12.8628C250.185 13.2171 250.433 13.4923 250.75 13.6883C251.067 13.8768 251.421 13.971 251.813 13.971Z" fill="white"/>
</svg>
