<svg width="98" height="13" viewBox="0 0 98 13" fill="none" xmlns="http://www.w3.org/2000/svg">
<path d="M11.0073 12.0508H9.95178V6.29078H7.87095V11.8547H6.83054V0.530814H7.87095V5.22021H9.95178V0.470501H11.0073V12.0508ZM5.29254 0.922854V3.9687C5.29254 5.41623 5.10154 6.69288 4.71956 7.79863C4.34762 8.90438 3.81987 9.76385 3.13632 10.377C2.45276 10.9902 1.66366 11.2968 0.769001 11.2968V10.2263C1.47266 10.2162 2.08585 9.94982 2.60857 9.4271C3.13129 8.90438 3.53338 8.18062 3.81485 7.2558C4.10637 6.32094 4.25212 5.24534 4.25212 4.02902V1.96327H0.769001V0.922854H5.29254ZM21.5455 9.0803V0.470501H22.6462V9.0803H21.5455ZM16.0268 0.606207C16.7305 0.606207 17.3437 0.751965 17.8664 1.04348C18.3891 1.32495 18.7862 1.72201 19.0576 2.23468C19.339 2.7373 19.4798 3.31028 19.4798 3.95362C19.4798 4.59697 19.339 5.17498 19.0576 5.68765C18.7862 6.19026 18.3891 6.58733 17.8664 6.87884C17.3437 7.16031 16.7305 7.30104 16.0268 7.30104C15.3231 7.30104 14.71 7.16031 14.1872 6.87884C13.6645 6.58733 13.2624 6.19026 12.981 5.68765C12.6995 5.17498 12.5588 4.59697 12.5588 3.95362C12.5588 3.31028 12.6995 2.7373 12.981 2.23468C13.2624 1.72201 13.6645 1.32495 14.1872 1.04348C14.71 0.751965 15.3231 0.606207 16.0268 0.606207ZM16.0268 1.57123C15.3131 1.57123 14.7401 1.78735 14.3079 2.2196C13.8756 2.65185 13.6595 3.22986 13.6595 3.95362C13.6595 4.67739 13.8756 5.2554 14.3079 5.68765C14.7401 6.10984 15.3131 6.32094 16.0268 6.32094C16.7405 6.32094 17.3135 6.10984 17.7457 5.68765C18.178 5.2554 18.3941 4.67739 18.3941 3.95362C18.3941 3.22986 18.178 2.65185 17.7457 2.2196C17.3135 1.78735 16.7405 1.57123 16.0268 1.57123ZM22.9629 10.8294V11.8698H13.5238V8.13036H14.6245V10.8294H22.9629ZM33.5765 0.470501H34.6622V6.98439H33.5765V3.72745H31.3148V2.73227H33.5765V0.470501ZM28.2086 4.20996C27.8467 4.87341 27.3542 5.41623 26.7309 5.83843C26.1077 6.25057 25.394 6.50691 24.5898 6.60743V5.5821C25.5347 5.43131 26.2836 5.02419 26.8365 4.36074C27.3994 3.68724 27.7211 2.82777 27.8015 1.78233H24.7255V0.802227H31.7671V1.78233H28.9022C28.8721 2.3352 28.7816 2.83782 28.6308 3.29017L32.129 5.64241L31.5711 6.50188L28.2086 4.20996ZM30.0482 7.40659C31.4656 7.40659 32.6015 7.59758 33.4559 7.97957C34.3204 8.35151 34.7527 8.92951 34.7527 9.71359C34.7527 10.4977 34.3204 11.0807 33.4559 11.4627C32.6015 11.8346 31.4656 12.0206 30.0482 12.0206C28.6308 12.0206 27.4949 11.8346 26.6404 11.4627C25.786 11.0807 25.3588 10.4977 25.3588 9.71359C25.3588 8.92951 25.786 8.35151 26.6404 7.97957C27.4949 7.59758 28.6308 7.40659 30.0482 7.40659ZM30.0482 11.0707C31.1037 11.0707 31.9581 10.9551 32.6115 10.7238C33.275 10.4926 33.6067 10.1559 33.6067 9.71359C33.6067 9.27129 33.275 8.93454 32.6115 8.70334C31.9481 8.47213 31.0936 8.35653 30.0482 8.35653C29.0027 8.35653 28.1483 8.47213 27.4848 8.70334C26.8314 8.93454 26.5047 9.27129 26.5047 9.71359C26.5047 10.1559 26.8314 10.4926 27.4848 10.7238C28.1483 10.9551 29.0027 11.0707 30.0482 11.0707ZM47.2813 11.4627H36.3041V10.3921H41.2348V7.60261H37.0731V0.832383H38.1437V3.03384H45.4417V0.832383H46.5123V7.60261H42.3355V10.3921H47.2813V11.4627ZM45.4417 6.57727V4.05917H38.1437V6.57727H45.4417ZM55.75 3.4108C55.7098 4.38587 55.6093 5.29561 55.4485 6.14L59.0221 10.5881L58.2078 11.3119L55.0866 7.39151C54.7147 8.53747 54.2171 9.45223 53.5938 10.1358C52.9706 10.8093 52.2468 11.2064 51.4225 11.327V10.2112C52.0558 10.0805 52.6037 9.70857 53.0661 9.09538C53.5385 8.48219 53.9055 7.68805 54.1668 6.71298C54.4382 5.72786 54.6041 4.62713 54.6644 3.4108H51.6186V2.35531H54.6644V0.440344H55.7802V2.35531H58.6602V3.4108H55.75ZM61.5251 12.0508H60.4394V6.54712H57.9817V5.46147H60.4394V0.470501H61.5251V12.0508ZM72.2895 12.0508V0.470501H73.3902V12.0508H72.2895ZM64.9162 6.54712V10.2866H68.339C68.8617 10.2866 69.3844 10.2363 69.9071 10.1358C70.4298 10.0353 70.8571 9.89956 71.1888 9.72867V10.7691C70.8571 10.95 70.4298 11.0908 69.9071 11.1913C69.3844 11.2818 68.8516 11.327 68.3088 11.327H63.8305V5.52178H68.927V1.96327H63.8154V0.922854H69.9976V6.54712H64.9162ZM86.6125 4.10441H85.0141V7.08994H83.9285V0.470501H85.0141V3.00368H86.6125V4.10441ZM75.5298 6.3511V0.696677H76.6004V2.46086H80.8374V0.696677H81.908V6.3511H75.5298ZM80.8374 3.4108H76.6004V5.40116H80.8374V3.4108ZM80.5208 7.48198C81.9281 7.48198 83.0539 7.66795 83.8983 8.03988C84.7528 8.40177 85.18 8.97475 85.18 9.75883C85.18 10.5329 84.7528 11.1058 83.8983 11.4778C83.0439 11.8397 81.918 12.0206 80.5208 12.0206C79.1235 12.0206 77.9976 11.8397 77.1432 11.4778C76.2887 11.1058 75.8615 10.5329 75.8615 9.75883C75.8615 8.97475 76.2837 8.40177 77.1281 8.03988C77.9826 7.66795 79.1134 7.48198 80.5208 7.48198ZM80.5208 11.0707C81.5562 11.0707 82.4005 10.9601 83.0539 10.7389C83.7073 10.5178 84.034 10.1911 84.034 9.75883C84.034 9.32658 83.7073 8.99988 83.0539 8.77873C82.4005 8.55758 81.5562 8.447 80.5208 8.447C79.4854 8.447 78.636 8.55758 77.9725 8.77873C77.3191 8.99988 76.9924 9.32658 76.9924 9.75883C76.9924 10.1911 77.3191 10.5178 77.9725 10.7389C78.636 10.9601 79.4854 11.0707 80.5208 11.0707ZM90.863 4.602C90.4911 5.23529 89.9985 5.75299 89.3853 6.15508C88.7822 6.55717 88.0986 6.8135 87.3346 6.92408V5.91382C88.1891 5.77309 88.8927 5.40116 89.4456 4.79802C90.0085 4.19488 90.3554 3.44598 90.486 2.55133H87.4402V1.58631H90.5162V0.259402H91.6169V1.58631H94.6175V2.55133H91.6018C91.5415 2.99363 91.446 3.38567 91.3153 3.72745L94.7985 5.9289L94.2707 6.80345L90.863 4.602ZM97.2713 7.19549H96.1706V0.470501H97.2713V7.19549ZM97.2713 7.87402V11.8698H88.0282V7.87402H97.2713ZM96.1857 10.9199V8.82396H89.0988V10.9199H96.1857Z" fill="white"/>
</svg>
