<svg width="87" height="13" viewBox="0 0 87 13" fill="none" xmlns="http://www.w3.org/2000/svg">
<path d="M10.9222 12.0508H9.83656V5.82335H6.89626V4.75278H9.83656V0.470501H10.9222V12.0508ZM5.14716 0.802227C5.12706 2.44075 5.01648 3.89331 4.81543 5.1599L8.31364 10.7238L7.42401 11.3571L4.48371 6.59235C4.12182 8.01978 3.62424 9.14564 2.99094 9.96993C2.35765 10.7842 1.60875 11.2365 0.744251 11.327V10.181C1.45796 10.0503 2.0611 9.55276 2.55367 8.68826C3.04623 7.82376 3.41314 6.70795 3.65439 5.34084C3.9057 3.96368 4.03638 2.44075 4.04643 0.77207L5.14716 0.802227ZM22.7723 12.0508H21.6866V0.470501H22.7723V12.0508ZM19.4249 0.832383V11.327H13.2276V0.832383H14.3133V4.9488H18.3392V0.832383H19.4249ZM18.3392 5.98921H14.3133V10.2715H18.3392V5.98921ZM29.8274 4.20996C29.1941 5.2755 28.4251 6.12995 27.5204 6.77329C26.6257 7.40659 25.6909 7.72324 24.7158 7.72324V6.63759C25.5099 6.63759 26.2739 6.36115 27.0077 5.80827C27.7416 5.2554 28.3698 4.51655 28.8925 3.59174C29.4253 2.65688 29.7922 1.63657 29.9933 0.530814L31.1091 0.756992C30.9482 1.61144 30.6768 2.46086 30.2948 3.30525L35.1803 6.86377L34.5922 7.75339L29.8274 4.20996ZM35.4818 10.3921V11.4627H24.5047V10.3921H35.4818ZM48.5495 12.0508V0.470501H49.6503V12.0508H48.5495ZM43.2419 0.77207C44.2472 0.77207 45.0463 1.22442 45.6394 2.12913C46.2425 3.03384 46.5441 4.36577 46.5441 6.12492C46.5441 7.88407 46.2425 9.216 45.6394 10.1207C45.0463 11.0254 44.2472 11.4778 43.2419 11.4778C42.2367 11.4778 41.4325 11.0254 40.8294 10.1207C40.2363 9.216 39.9398 7.88407 39.9398 6.12492C39.9398 4.36577 40.2363 3.03384 40.8294 2.12913C41.4325 1.22442 42.2367 0.77207 43.2419 0.77207ZM43.2419 1.81248C42.5684 1.81248 42.0306 2.17437 41.6285 2.89813C41.2264 3.61185 41.0254 4.68744 41.0254 6.12492C41.0254 7.57245 41.2264 8.65308 41.6285 9.36679C42.0306 10.0805 42.5684 10.4374 43.2419 10.4374C43.8953 10.4374 44.4281 10.0805 44.8402 9.36679C45.2524 8.64302 45.4585 7.5624 45.4585 6.12492C45.4585 4.69749 45.2524 3.6219 44.8402 2.89813C44.4281 2.17437 43.8953 1.81248 43.2419 1.81248ZM62.3447 6.909H51.3676V5.97414H53.8556V4.42106C53.2826 4.25017 52.8353 4.01394 52.5136 3.71237C52.1919 3.4108 52.0311 3.04389 52.0311 2.61164C52.0311 1.87782 52.4834 1.32997 53.3881 0.96809C54.2928 0.596155 55.4489 0.410187 56.8562 0.410187C58.2635 0.410187 59.4145 0.596155 60.3092 0.96809C61.2139 1.32997 61.6662 1.87782 61.6662 2.61164C61.6662 3.04389 61.5054 3.4108 61.1837 3.71237C60.862 4.01394 60.4147 4.25017 59.8417 4.42106V5.97414H62.3447V6.909ZM56.8562 1.34505C55.7906 1.34505 54.906 1.4506 54.2024 1.6617C53.5088 1.8728 53.162 2.18944 53.162 2.61164C53.162 3.03384 53.5088 3.35049 54.2024 3.56158C54.896 3.77268 55.7806 3.87823 56.8562 3.87823C57.9217 3.87823 58.8013 3.77268 59.4949 3.56158C60.1885 3.35049 60.5353 3.03384 60.5353 2.61164C60.5353 2.18944 60.1835 1.8728 59.4798 1.6617C58.7862 1.4506 57.9117 1.34505 56.8562 1.34505ZM58.7561 5.97414V4.66231C58.2132 4.76283 57.58 4.8131 56.8562 4.8131C56.1425 4.8131 55.5041 4.76283 54.9412 4.66231V5.97414H58.7561ZM56.8562 7.91926C58.2836 7.91926 59.4396 8.08009 60.3242 8.40177C61.2088 8.71339 61.6511 9.23611 61.6511 9.96993C61.6511 10.7037 61.2088 11.2315 60.3242 11.5532C59.4396 11.8849 58.2836 12.0508 56.8562 12.0508C55.4288 12.0508 54.2677 11.8849 53.3731 11.5532C52.4885 11.2315 52.0462 10.7037 52.0462 9.96993C52.0462 9.23611 52.4885 8.71339 53.3731 8.40177C54.2677 8.08009 55.4288 7.91926 56.8562 7.91926ZM56.8562 11.131C57.9016 11.131 58.7711 11.0405 59.4648 10.8596C60.1584 10.6786 60.5052 10.3821 60.5052 9.96993C60.5052 9.56783 60.1584 9.28134 59.4648 9.11045C58.7711 8.92951 57.9016 8.83904 56.8562 8.83904C55.8107 8.83904 54.9362 8.92951 54.2325 9.11045C53.5389 9.28134 53.1921 9.56783 53.1921 9.96993C53.1921 10.3821 53.5389 10.6786 54.2325 10.8596C54.9362 11.0405 55.8107 11.131 56.8562 11.131ZM73.2147 4.75278H74.813V5.74796H73.2147V7.39151H72.1291V0.470501H73.2147V1.8728H74.813V2.88305H73.2147V4.75278ZM66.7461 6.99947C66.0625 6.99947 65.4644 6.86377 64.9517 6.59235C64.4391 6.31089 64.042 5.9289 63.7605 5.44639C63.4891 4.95383 63.3534 4.40598 63.3534 3.80284C63.3534 3.1997 63.4891 2.65688 63.7605 2.17437C64.042 1.6818 64.4391 1.29982 64.9517 1.0284C65.4644 0.746939 66.0625 0.606207 66.7461 0.606207C67.4296 0.606207 68.0227 0.746939 68.5253 1.0284C69.038 1.29982 69.43 1.67678 69.7014 2.15929C69.9829 2.6418 70.1236 3.18965 70.1236 3.80284C70.1236 4.41603 69.9829 4.96388 69.7014 5.44639C69.43 5.9289 69.038 6.31089 68.5253 6.59235C68.0227 6.86377 67.4296 6.99947 66.7461 6.99947ZM66.7461 1.57123C66.0625 1.57123 65.5096 1.77227 65.0874 2.17437C64.6652 2.57646 64.4541 3.11928 64.4541 3.80284C64.4541 4.4864 64.6652 5.02922 65.0874 5.43131C65.5096 5.8334 66.0625 6.03445 66.7461 6.03445C67.4296 6.03445 67.9825 5.8334 68.4047 5.43131C68.8269 5.01917 69.038 4.47634 69.038 3.80284C69.038 3.12933 68.8269 2.59154 68.4047 2.18944C67.9825 1.7773 67.4296 1.57123 66.7461 1.57123ZM73.2147 8.07004V12.0206H72.114V9.0803H64.1224V8.07004H73.2147ZM86.7536 4.79802H85.1854V9.27632H84.0847V0.470501H85.1854V3.72745H86.7536V4.79802ZM75.8066 1.69186V0.681599H81.9737V5.17498H80.8881V1.69186H75.8066ZM83.1046 6.83361C82.4512 7.14523 81.1846 7.30104 79.3048 7.30104H75.2487V6.30586H77.5406V3.42588H78.6263V6.30586H79.3501C81.1595 6.30586 82.411 6.15005 83.1046 5.83843V6.83361ZM85.5171 10.8746V11.8698H76.063V8.5224H77.1486V10.8746H85.5171Z" fill="white"/>
</svg>
