<svg width="272" height="34" viewBox="0 0 272 34" fill="none" xmlns="http://www.w3.org/2000/svg">
<path d="M0.608215 12.9037V10.667H4.21827V9.09743H6.76885V10.667H10.4181V12.9037H0.608215ZM14.2833 24.3028H11.8111V9.23477H14.2833V24.3028ZM6.74923 21.2421C8.63273 21.2421 10.0127 21.0328 10.889 20.6143V22.9294C10.4443 23.1256 9.86224 23.276 9.14285 23.3807C8.43654 23.4853 7.67136 23.5376 6.84733 23.5376H0.549356V21.2421H4.27713V19.6725C3.32229 19.5156 2.5702 19.1755 2.02084 18.6523C1.48457 18.1291 1.21643 17.462 1.21643 16.6511C1.21643 15.657 1.60883 14.8853 2.39362 14.3359C3.1915 13.7735 4.23789 13.4923 5.5328 13.4923C6.82771 13.4923 7.86756 13.7735 8.65235 14.3359C9.45023 14.8853 9.84916 15.657 9.84916 16.6511C9.84916 17.4751 9.57449 18.1487 9.02513 18.6719C8.47577 19.182 7.71714 19.5156 6.74923 19.6725V21.2421ZM3.55119 16.6511C3.55119 16.9781 3.72777 17.2397 4.08093 17.4359C4.43409 17.619 4.91804 17.7105 5.5328 17.7105C6.13447 17.7105 6.61189 17.619 6.96505 17.4359C7.33128 17.2397 7.5144 16.9781 7.5144 16.6511C7.5144 16.3241 7.33782 16.0625 6.98467 15.8663C6.63151 15.6701 6.14755 15.572 5.5328 15.572C4.91804 15.572 4.43409 15.6701 4.08093 15.8663C3.72777 16.0494 3.55119 16.311 3.55119 16.6511ZM29.3885 17.4359V24.3028H26.9164V9.23477H29.3885V14.9245H31.1739V17.4359H29.3885ZM22.6392 9.62717C22.6392 11.8769 22.4561 13.9305 22.0899 15.7878L26.367 22.0269L24.3265 23.518L21.207 18.8093C20.6446 20.3004 19.9252 21.4514 19.0488 22.2624C18.1855 23.0733 17.2111 23.4984 16.1254 23.5376V20.8693C16.9233 20.7516 17.6231 20.1957 18.2248 19.2017C18.8264 18.2076 19.2908 16.88 19.6178 15.2188C19.9579 13.5446 20.1279 11.6546 20.1279 9.54869L22.6392 9.62717ZM38.7254 14.6695C37.8883 15.8859 36.8746 16.8407 35.6844 17.534C34.4941 18.2272 33.2319 18.5738 31.8977 18.5738V16.1017C32.8656 16.1017 33.7943 15.8074 34.6838 15.2188C35.5732 14.6302 36.3253 13.8127 36.94 12.7663C37.5548 11.72 37.9537 10.5362 38.1368 9.21515L40.6678 9.62717C40.5108 10.6997 40.2362 11.6873 39.8438 12.5898L45.9652 16.5137L44.6703 18.6131L38.7254 14.6695ZM46.0633 21.2814V23.7142H31.6231V21.2814H37.5875V17.6713H40.0988V21.2814H46.0633ZM61.2666 24.3028H58.9122V17.3966H57.2838V24.0478H54.949V9.29363H57.2838V14.9245H58.9122V9.23477H61.2666V24.3028ZM53.5952 9.64679V14.0024C53.5952 16.0167 53.3205 17.7367 52.7712 19.1624C52.2349 20.5881 51.4959 21.6672 50.5541 22.3997C49.6255 23.1322 48.5791 23.5049 47.415 23.518V21.0852C48.1867 21.0328 48.8538 20.732 49.4162 20.1826C49.9917 19.6333 50.4364 18.842 50.7503 17.8086C51.0643 16.7753 51.2212 15.5458 51.2212 14.1201V12.0012H47.415V9.64679H53.5952Z" fill="white"/>
</svg>
