<svg width="115" height="13" viewBox="0 0 115 13" fill="none" xmlns="http://www.w3.org/2000/svg">
<path d="M9.67128 6.3511V12.0508H8.58563V0.470501H9.67128V5.26545H11.2696V6.3511H9.67128ZM6.38418 0.922854V11.327H0.32264V0.922854H6.38418ZM5.29853 10.2715V1.97835H1.40829V10.2715H5.29853ZM22.23 12.0508H21.1896V0.470501H22.23V12.0508ZM19.531 0.530814V11.8547H18.4906V6.33602H16.5153C16.3143 7.83381 15.8167 9.02501 15.0225 9.90961C14.2284 10.7942 13.2182 11.2566 11.9918 11.2968V10.2564C12.9769 10.1961 13.766 9.80406 14.3591 9.0803C14.9522 8.35653 15.3291 7.39654 15.49 6.20031H11.9918V5.17498H15.5804C15.5905 5.01414 15.5955 4.76283 15.5955 4.42106V1.94819H11.9918V0.922854H16.6359V4.3909C16.6359 4.58189 16.6259 4.86838 16.6058 5.25037H18.4906V0.530814H19.531ZM32.7683 7.37643V0.470501H33.869V7.37643H32.7683ZM31.8334 6.26063C31.4715 6.43152 30.9639 6.56722 30.3105 6.66775C29.6571 6.75822 28.9183 6.80345 28.094 6.80345H24.1887V0.787148H31.0192V1.70693H25.2743V3.35049H30.793V4.22504H25.2743V5.86859H28.1844C28.9786 5.86859 29.6973 5.82335 30.3407 5.73288C30.984 5.64241 31.4816 5.51173 31.8334 5.34084V6.26063ZM29.3002 7.78355C30.7377 7.78355 31.8837 7.95444 32.7381 8.29622C33.6026 8.62794 34.0349 9.16574 34.0349 9.90961C34.0349 10.6535 33.6026 11.1913 32.7381 11.523C31.8837 11.8547 30.7377 12.0206 29.3002 12.0206C27.8628 12.0206 26.7168 11.8547 25.8624 11.523C25.0079 11.1913 24.5807 10.6535 24.5807 9.90961C24.5807 9.16574 25.0079 8.62794 25.8624 8.29622C26.7168 7.95444 27.8628 7.78355 29.3002 7.78355ZM29.3002 11.1008C30.3758 11.1008 31.2403 11.0053 31.8937 10.8143C32.5471 10.6133 32.8738 10.3117 32.8738 9.90961C32.8738 9.49747 32.5471 9.1959 31.8937 9.00491C31.2403 8.81391 30.3758 8.71842 29.3002 8.71842C28.2247 8.71842 27.3602 8.81391 26.7068 9.00491C26.0534 9.1959 25.7267 9.49747 25.7267 9.90961C25.7267 10.3117 26.0534 10.6133 26.7068 10.8143C27.3602 11.0053 28.2247 11.1008 29.3002 11.1008ZM47.7811 0.470501H48.8668V6.98439H47.7811V3.72745H45.5194V2.73227H47.7811V0.470501ZM42.4132 4.20996C42.0513 4.87341 41.5588 5.41623 40.9355 5.83843C40.3123 6.25057 39.5986 6.50691 38.7944 6.60743V5.5821C39.7393 5.43131 40.4882 5.02419 41.0411 4.36074C41.604 3.68724 41.9257 2.82777 42.0061 1.78233H38.9301V0.802227H45.9717V1.78233H43.1068C43.0767 2.3352 42.9862 2.83782 42.8354 3.29017L46.3336 5.64241L45.7757 6.50188L42.4132 4.20996ZM44.2528 7.40659C45.6701 7.40659 46.8061 7.59758 47.6605 7.97957C48.525 8.35151 48.9573 8.92951 48.9573 9.71359C48.9573 10.4977 48.525 11.0807 47.6605 11.4627C46.8061 11.8346 45.6701 12.0206 44.2528 12.0206C42.8354 12.0206 41.6995 11.8346 40.845 11.4627C39.9906 11.0807 39.5634 10.4977 39.5634 9.71359C39.5634 8.92951 39.9906 8.35151 40.845 7.97957C41.6995 7.59758 42.8354 7.40659 44.2528 7.40659ZM44.2528 11.0707C45.3083 11.0707 46.1627 10.9551 46.8161 10.7238C47.4796 10.4926 47.8113 10.1559 47.8113 9.71359C47.8113 9.27129 47.4796 8.93454 46.8161 8.70334C46.1527 8.47213 45.2982 8.35653 44.2528 8.35653C43.2073 8.35653 42.3529 8.47213 41.6894 8.70334C41.036 8.93454 40.7093 9.27129 40.7093 9.71359C40.7093 10.1559 41.036 10.4926 41.6894 10.7238C42.3529 10.9551 43.2073 11.0707 44.2528 11.0707ZM61.4859 11.4627H50.5087V10.3921H55.4394V7.60261H51.2777V0.832383H52.3483V3.03384H59.6463V0.832383H60.7169V7.60261H56.5401V10.3921H61.4859V11.4627ZM59.6463 6.57727V4.05917H52.3483V6.57727H59.6463ZM70.7689 3.6219C70.1557 4.5266 69.3967 5.24534 68.492 5.77812C67.5873 6.31089 66.6525 6.57727 65.6874 6.57727V5.49163C66.4715 5.50168 67.2355 5.28053 67.9794 4.82817C68.7232 4.36577 69.3565 3.74253 69.8793 2.95845C70.402 2.17437 70.7438 1.31992 70.9046 0.395108L72.0204 0.591129C71.8897 1.27469 71.6485 1.9884 71.2966 2.73227L76.0765 5.62733L75.5638 6.5622L70.7689 3.6219ZM71.4625 8.94459V12.3222H70.3618V8.94459H65.4311V7.8891H76.4082V8.94459H71.4625ZM86.4941 9.0803V0.470501H87.5948V9.0803H86.4941ZM81.2167 4.46629C80.8045 5.23027 80.2868 5.86356 79.6636 6.36618C79.0403 6.85874 78.3367 7.16533 77.5526 7.28596V6.21539C78.2563 6.07466 78.8694 5.73288 79.3922 5.19006C79.9249 4.64723 80.3321 3.97373 80.6135 3.16954C80.895 2.36536 81.0357 1.50589 81.0357 0.591129L82.1214 0.651442C82.1214 1.68683 81.9656 2.63677 81.6539 3.50127L85.2577 6.33602L84.5942 7.18041L81.2167 4.46629ZM87.9115 11.8698H78.3518V8.26606H79.4525V10.8294H87.9115V11.8698ZM103.271 6.81853H92.294V5.88367H97.2398V4.55676H93.1233V0.636364H102.457V1.57123H94.209V3.6219H102.578V4.55676H98.3254V5.88367H103.271V6.81853ZM97.7826 7.8891C99.21 7.8891 100.366 8.05496 101.251 8.38669C102.145 8.70836 102.593 9.23611 102.593 9.96993C102.593 10.7037 102.145 11.2365 101.251 11.5682C100.366 11.9 99.21 12.0658 97.7826 12.0658C96.3551 12.0658 95.1941 11.9 94.2995 11.5682C93.4149 11.2365 92.9725 10.7037 92.9725 9.96993C92.9725 9.23611 93.4149 8.70836 94.2995 8.38669C95.1941 8.05496 96.3551 7.8891 97.7826 7.8891ZM97.7826 11.146C98.818 11.146 99.6875 11.0556 100.391 10.8746C101.095 10.6836 101.447 10.3821 101.447 9.96993C101.447 9.56783 101.095 9.27632 100.391 9.09538C99.6875 8.90438 98.818 8.80889 97.7826 8.80889C96.7472 8.80889 95.8726 8.90438 95.1589 9.09538C94.4553 9.27632 94.1034 9.56783 94.1034 9.96993C94.1034 10.3821 94.4553 10.6836 95.1589 10.8746C95.8626 11.0556 96.7371 11.146 97.7826 11.146ZM113.402 12.0508V0.470501H114.473V12.0508H113.402ZM108.019 0.741913C108.663 0.741913 109.241 0.897723 109.753 1.20934C110.266 1.51091 110.663 1.93814 110.944 2.49101C111.236 3.04389 111.382 3.67216 111.382 4.37582C111.382 5.06943 111.236 5.69267 110.944 6.24555C110.653 6.79843 110.251 7.23067 109.738 7.5423C109.236 7.84386 108.663 7.99465 108.019 7.99465C107.366 7.99465 106.783 7.84386 106.27 7.5423C105.757 7.23067 105.355 6.80345 105.064 6.26063C104.772 5.70775 104.627 5.07948 104.627 4.37582C104.627 3.67216 104.772 3.04389 105.064 2.49101C105.355 1.93814 105.757 1.51091 106.27 1.20934C106.783 0.897723 107.366 0.741913 108.019 0.741913ZM108.019 1.78233C107.326 1.78233 106.763 2.02861 106.33 2.52117C105.908 3.00368 105.697 3.6219 105.697 4.37582C105.697 5.11969 105.908 5.73791 106.33 6.23047C106.763 6.71298 107.326 6.95424 108.019 6.95424C108.703 6.95424 109.256 6.71298 109.678 6.23047C110.11 5.73791 110.326 5.11969 110.326 4.37582C110.326 3.63195 110.11 3.01373 109.678 2.52117C109.256 2.02861 108.703 1.78233 108.019 1.78233ZM112.407 10.7691C112.045 10.95 111.528 11.0908 110.854 11.1913C110.181 11.2818 109.417 11.327 108.562 11.327H104.235V10.2564H108.637C109.462 10.2564 110.201 10.2112 110.854 10.1207C111.517 10.0202 112.035 9.87946 112.407 9.69851V10.7691Z" fill="white"/>
</svg>
