<svg width="373" height="141" viewBox="0 0 373 141" fill="none" xmlns="http://www.w3.org/2000/svg">
<path d="M10.1386 7.03085V12.5931H9.07909V1.29205H10.1386V5.97138H11.6983V7.03085H10.1386ZM5.03249 1.61577C5.01287 3.46004 4.87063 5.03944 4.60576 6.35397L8.06376 11.2246L7.19558 11.8573L4.2526 7.66359C3.88963 8.92907 3.39423 9.92969 2.7664 10.6654C2.13856 11.3914 1.41263 11.7985 0.588595 11.8868V10.7831C1.30472 10.6556 1.91294 10.17 2.41324 9.32637C2.92336 8.48272 3.30594 7.38891 3.561 6.04495C3.81606 4.701 3.94849 3.21479 3.9583 1.58634L5.03249 1.61577ZM21.026 12.5931V1.29205H22.1002V12.5931H21.026ZM15.8464 1.58634C16.8274 1.58634 17.6073 2.02779 18.186 2.91068C18.7746 3.79358 19.0689 5.09339 19.0689 6.81013C19.0689 8.52687 18.7746 9.82668 18.186 10.7096C17.6073 11.5925 16.8274 12.0339 15.8464 12.0339C14.8654 12.0339 14.0806 11.5925 13.492 10.7096C12.9132 9.82668 12.6238 8.52687 12.6238 6.81013C12.6238 5.09339 12.9132 3.79358 13.492 2.91068C14.0806 2.02779 14.8654 1.58634 15.8464 1.58634ZM15.8464 2.60167C15.1891 2.60167 14.6643 2.95483 14.2719 3.66114C13.8795 4.35765 13.6833 5.40731 13.6833 6.81013C13.6833 8.22276 13.8795 9.27733 14.2719 9.97383C14.6643 10.6703 15.1891 11.0186 15.8464 11.0186C16.484 11.0186 17.004 10.6703 17.4062 9.97383C17.8084 9.26752 18.0095 8.21295 18.0095 6.81013C18.0095 5.41712 17.8084 4.36746 17.4062 3.66114C17.004 2.95483 16.484 2.60167 15.8464 2.60167ZM24.5413 8.88493V1.73349H33.7528V2.73411H25.5861V4.82362H33.6351V5.78009H25.5861V7.89903H33.9294V8.88493H24.5413ZM34.4886 12.0192H23.7762V10.9892H34.4886V12.0192ZM42.5508 6.03024V5.02963H44.4343V3.35213H42.5508V2.36623H44.4343V1.29205H45.4791V7.54587H44.4343V6.03024H42.5508ZM35.9291 6.83956V1.60106H41.8886V6.83956H35.9291ZM36.9591 2.55753V5.88309H40.8292V2.55753H36.9591ZM40.9763 7.95789C42.3693 7.95789 43.4827 8.14918 44.3166 8.53177C45.1602 8.90455 45.5821 9.48333 45.5821 10.2681C45.5821 11.0529 45.1602 11.6317 44.3166 12.0045C43.4827 12.3773 42.3693 12.5636 40.9763 12.5636C39.5931 12.5636 38.4846 12.3773 37.6507 12.0045C36.8169 11.6317 36.4 11.0529 36.4 10.2681C36.4 9.48333 36.8169 8.90455 37.6507 8.53177C38.4846 8.14918 39.5931 7.95789 40.9763 7.95789ZM40.9763 11.6366C41.9965 11.6366 42.8304 11.5189 43.4778 11.2835C44.1253 11.048 44.449 10.7096 44.449 10.2681C44.449 9.81687 44.1253 9.47352 43.4778 9.23809C42.8304 9.00265 41.9965 8.88493 40.9763 8.88493C39.9561 8.88493 39.1222 9.00265 38.4748 9.23809C37.8371 9.47352 37.5183 9.81687 37.5183 10.2681C37.5183 10.7096 37.8371 11.048 38.4748 11.2835C39.1222 11.5189 39.9561 11.6366 40.9763 11.6366ZM51.095 4.6029C50.8693 4.6029 50.6781 4.52932 50.5211 4.38217C50.3739 4.22521 50.3004 4.02902 50.3004 3.79358C50.3004 3.56795 50.3739 3.38156 50.5211 3.23441C50.6781 3.07745 50.8693 2.99897 51.095 2.99897C51.3206 2.99897 51.507 3.07745 51.6541 3.23441C51.8111 3.38156 51.8896 3.56795 51.8896 3.79358C51.8896 4.02902 51.8111 4.22521 51.6541 4.38217C51.507 4.52932 51.3206 4.6029 51.095 4.6029ZM51.095 10.8714C50.8693 10.8714 50.6781 10.7979 50.5211 10.6507C50.3739 10.4938 50.3004 10.3025 50.3004 10.0768C50.3004 9.8414 50.3739 9.6501 50.5211 9.50295C50.6781 9.3558 50.8693 9.28223 51.095 9.28223C51.3206 9.28223 51.507 9.3558 51.6541 9.50295C51.8111 9.6501 51.8896 9.8414 51.8896 10.0768C51.8896 10.3025 51.8111 10.4938 51.6541 10.6507C51.507 10.7979 51.3206 10.8714 51.095 10.8714ZM66.0943 12.5931H65.0348V7.11914H62.8276C62.7883 8.73778 62.4842 9.96402 61.9152 10.7979C61.3463 11.6219 60.5958 12.0339 59.6639 12.0339C58.6927 12.0339 57.9177 11.5925 57.3389 10.7096C56.7699 9.82668 56.4855 8.52687 56.4855 6.81013C56.4855 5.09339 56.7699 3.79358 57.3389 2.91068C57.9177 2.02779 58.6927 1.58634 59.6639 1.58634C60.5566 1.58634 61.2825 1.96403 61.8417 2.71939C62.4008 3.47475 62.7246 4.59309 62.8129 6.07438H65.0348V1.29205H66.0943V12.5931ZM59.6639 11.0186C60.3015 11.0186 60.8116 10.6703 61.1942 9.97383C61.5768 9.27733 61.7681 8.22276 61.7681 6.81013C61.7681 5.40731 61.5768 4.35765 61.1942 3.66114C60.8116 2.95483 60.3015 2.60167 59.6639 2.60167C59.0262 2.60167 58.5112 2.95483 58.1188 3.66114C57.7362 4.35765 57.5449 5.40731 57.5449 6.81013C57.5449 8.22276 57.7362 9.27733 58.1188 9.97383C58.5112 10.6703 59.0262 11.0186 59.6639 11.0186ZM73.0529 5.35336C71.6697 5.35336 70.5415 5.18659 69.6684 4.85305C68.7953 4.51951 68.3588 4.00449 68.3588 3.30799C68.3588 2.61148 68.7904 2.10137 69.6537 1.77764C70.5268 1.4441 71.6598 1.27733 73.0529 1.27733C74.4459 1.27733 75.574 1.4441 76.4373 1.77764C77.3006 2.10137 77.7322 2.61148 77.7322 3.30799C77.7322 4.00449 77.2956 4.51951 76.4226 4.85305C75.5593 5.18659 74.4361 5.35336 73.0529 5.35336ZM73.0529 2.14551C72.013 2.14551 71.1546 2.24361 70.4778 2.43981C69.8009 2.6262 69.4624 2.91559 69.4624 3.30799C69.4624 3.70038 69.796 3.99468 70.463 4.19088C71.1399 4.37727 72.0032 4.47046 73.0529 4.47046C74.0927 4.47046 74.9462 4.37727 75.6132 4.19088C76.2901 3.99468 76.6286 3.70038 76.6286 3.30799C76.6286 2.91559 76.2901 2.6262 75.6132 2.43981C74.9462 2.24361 74.0927 2.14551 73.0529 2.14551ZM73.5826 8.06089H77.6439V10.5919H69.5066V11.6219H77.8352V12.4312H68.4765V9.87083H76.5991V8.87021H68.4471V8.06089H72.5231V6.92785H67.6966V6.05967H78.4091V6.92785H73.5826V8.06089ZM88.2518 7.91375V1.29205H89.326V7.91375H88.2518ZM80.9385 4.95605V6.55998H83.7785C84.5633 6.55998 85.2647 6.51583 85.8827 6.42754C86.5105 6.32944 86.9961 6.19701 87.3395 6.03024V6.94256C86.9961 7.10933 86.5056 7.24177 85.868 7.33987C85.2303 7.42815 84.5142 7.4723 83.7196 7.4723H79.879V4.10259H85.1322V2.49867H79.8496V1.60106H86.1917V4.95605H80.9385ZM80.3057 12.4165V8.57592H89.326V12.4165H80.3057ZM88.2665 9.50295H81.3505V11.4895H88.2665V9.50295ZM96.1191 1.17433V14.9475H95.1038V1.17433H96.1191ZM111.438 12.5931H110.423V6.97199H108.481V12.4018H107.48V1.35091H108.481V5.92724H110.423V1.29205H111.438V12.5931ZM104.125 10.8862C104.586 10.8862 105.037 10.8469 105.479 10.7684C105.92 10.69 106.303 10.582 106.626 10.4447V11.4306C106.303 11.5778 105.91 11.6906 105.449 11.769C104.988 11.8475 104.503 11.8868 103.993 11.8868H101.535V1.73349H106.17V2.73411H102.565V10.8862H104.125ZM123.532 12.0192H112.82V11.0039H115.572V8.17861H113.394V7.16329H115.351V2.83711H113.497V1.82178H122.841V2.83711H121.001V7.16329H122.958V8.17861H120.781V11.0039H123.532V12.0192ZM119.942 7.16329V2.83711H116.41V7.16329H119.942ZM119.706 11.0039V8.17861H116.631V11.0039H119.706ZM134.14 7.03085V12.5931H133.081V1.29205H134.14V5.97138H135.7V7.03085H134.14ZM128.799 2.76354C128.779 4.18597 128.671 5.44164 128.475 6.53055L131.992 11.1363L131.153 11.7838L128.137 7.79603C127.783 9.00265 127.308 9.95911 126.709 10.6654C126.111 11.3619 125.414 11.769 124.62 11.8868V10.7831C125.257 10.6458 125.807 10.2191 126.268 9.50295C126.729 8.77702 127.082 7.83527 127.327 6.6777C127.582 5.52012 127.72 4.2154 127.739 2.76354H124.855V1.73349H131.609V2.76354H128.799ZM140.139 4.6029C139.913 4.6029 139.722 4.52932 139.565 4.38217C139.418 4.22521 139.344 4.02902 139.344 3.79358C139.344 3.56795 139.418 3.38156 139.565 3.23441C139.722 3.07745 139.913 2.99897 140.139 2.99897C140.364 2.99897 140.551 3.07745 140.698 3.23441C140.855 3.38156 140.933 3.56795 140.933 3.79358C140.933 4.02902 140.855 4.22521 140.698 4.38217C140.551 4.52932 140.364 4.6029 140.139 4.6029ZM140.139 10.8714C139.913 10.8714 139.722 10.7979 139.565 10.6507C139.418 10.4938 139.344 10.3025 139.344 10.0768C139.344 9.8414 139.418 9.6501 139.565 9.50295C139.722 9.3558 139.913 9.28223 140.139 9.28223C140.364 9.28223 140.551 9.3558 140.698 9.50295C140.855 9.6501 140.933 9.8414 140.933 10.0768C140.933 10.3025 140.855 10.4938 140.698 10.6507C140.551 10.7979 140.364 10.8714 140.139 10.8714ZM150.444 6.07438C149.071 6.07438 147.938 5.87328 147.045 5.47107C146.152 5.05906 145.706 4.45575 145.706 3.66114C145.706 2.87635 146.152 2.27794 147.045 1.86593C147.947 1.4441 149.08 1.23319 150.444 1.23319C151.798 1.23319 152.921 1.4441 153.814 1.86593C154.716 2.27794 155.167 2.87635 155.167 3.66114C155.167 4.45575 154.721 5.05906 153.828 5.47107C152.936 5.87328 151.808 6.07438 150.444 6.07438ZM150.444 2.16023C149.424 2.16023 148.565 2.29266 147.869 2.55753C147.172 2.82239 146.824 3.19027 146.824 3.66114C146.824 4.14183 147.172 4.51461 147.869 4.77947C148.565 5.03453 149.424 5.16206 150.444 5.16206C151.464 5.16206 152.318 5.03453 153.004 4.77947C153.701 4.51461 154.049 4.14183 154.049 3.66114C154.049 3.19027 153.701 2.82239 153.004 2.55753C152.308 2.29266 151.454 2.16023 150.444 2.16023ZM155.8 8.03146H153.107V10.1504H152.033V8.03146H149.885V10.1504H148.825V8.03146H145.088V7.08971H155.8V8.03146ZM155.226 11.4747V12.4312H145.853V9.23809H146.912V11.4747H155.226ZM163.009 4.26445V3.26384H165.731V1.29205H166.791V7.64888H165.731V4.26445H163.009ZM160.301 4.86776C159.929 5.54465 159.443 6.10381 158.845 6.54526C158.246 6.98671 157.56 7.26629 156.785 7.38401V6.36868C157.461 6.23134 158.045 5.92724 158.536 5.45636C159.036 4.97567 159.414 4.38708 159.669 3.69057C159.934 2.98426 160.071 2.22399 160.081 1.40977L161.14 1.46863C161.14 2.37114 161.008 3.20008 160.743 3.95544L164.083 6.36868L163.495 7.16329L160.301 4.86776ZM162.288 8.06089C163.671 8.06089 164.78 8.24728 165.613 8.62006C166.457 8.98303 166.879 9.5471 166.879 10.3123C166.879 11.0774 166.457 11.6464 165.613 12.0192C164.78 12.3822 163.671 12.5636 162.288 12.5636C160.905 12.5636 159.796 12.3822 158.962 12.0192C158.128 11.6464 157.712 11.0774 157.712 10.3123C157.712 9.5471 158.128 8.98303 158.962 8.62006C159.796 8.24728 160.905 8.06089 162.288 8.06089ZM162.288 11.6366C163.318 11.6366 164.152 11.5238 164.789 11.2982C165.437 11.0725 165.761 10.7439 165.761 10.3123C165.761 9.88064 165.437 9.552 164.789 9.32637C164.142 9.10075 163.308 8.98793 162.288 8.98793C161.268 8.98793 160.434 9.10075 159.786 9.32637C159.149 9.552 158.83 9.88064 158.83 10.3123C158.83 10.7439 159.149 11.0725 159.786 11.2982C160.434 11.5238 161.268 11.6366 162.288 11.6366ZM168.834 2.9254V2.04251H173.19V0.835885H174.264V2.04251H178.664V2.9254H168.834ZM169.261 5.35336C169.261 4.77457 169.663 4.33803 170.468 4.04373C171.282 3.74943 172.376 3.60228 173.749 3.60228C175.113 3.60228 176.197 3.74943 177.001 4.04373C177.806 4.33803 178.208 4.77457 178.208 5.35336C178.208 5.93214 177.806 6.36868 177.001 6.66298C176.197 6.95728 175.113 7.10443 173.749 7.10443C172.376 7.10443 171.282 6.95728 170.468 6.66298C169.663 6.36868 169.261 5.93214 169.261 5.35336ZM177.148 5.35336C177.148 5.04925 176.834 4.81871 176.207 4.66176C175.579 4.49499 174.76 4.4116 173.749 4.4116C172.739 4.4116 171.92 4.49499 171.292 4.66176C170.664 4.81871 170.35 5.04925 170.35 5.35336C170.35 5.65746 170.664 5.8929 171.292 6.05967C171.92 6.21663 172.739 6.29511 173.749 6.29511C174.76 6.29511 175.579 6.21663 176.207 6.05967C176.834 5.8929 177.148 5.65746 177.148 5.35336ZM179.105 8.79664H174.279V10.3123H173.22V8.79664H168.393V7.89903H179.105V8.79664ZM178.532 11.5042V12.4312H169.173V9.75311H170.247V11.5042H178.532ZM10.1386 33.0309V38.5931H9.07909V27.292H10.1386V31.9714H11.6983V33.0309H10.1386ZM5.03249 27.6158C5.01287 29.46 4.87063 31.0394 4.60576 32.354L8.06376 37.2246L7.19558 37.8573L4.2526 33.6636C3.88963 34.9291 3.39423 35.9297 2.7664 36.6654C2.13856 37.3914 1.41263 37.7985 0.588595 37.8868V36.7831C1.30472 36.6556 1.91294 36.17 2.41324 35.3264C2.92336 34.4827 3.30594 33.3889 3.561 32.045C3.81606 30.701 3.94849 29.2148 3.9583 27.5863L5.03249 27.6158ZM22.1738 33.178H21.1143V30.6765H18.7746C18.6667 31.373 18.3283 31.9321 17.7593 32.354C17.1903 32.7758 16.4546 32.9867 15.5521 32.9867C14.885 32.9867 14.3013 32.869 13.801 32.6336C13.3105 32.3981 12.9279 32.0695 12.6533 31.6477C12.3884 31.2258 12.2559 30.7451 12.2559 30.2056C12.2559 29.6759 12.3884 29.2001 12.6533 28.7782C12.9279 28.3564 13.3105 28.0278 13.801 27.7924C14.3013 27.5569 14.885 27.4392 15.5521 27.4392C16.4252 27.4392 17.1462 27.6403 17.7152 28.0425C18.2841 28.4447 18.6324 28.9794 18.7599 29.6464H21.1143V27.292H22.1738V33.178ZM15.5521 32.045C16.2192 32.045 16.7587 31.8831 17.1707 31.5594C17.5827 31.2258 17.7887 30.7746 17.7887 30.2056C17.7887 29.6464 17.5827 29.205 17.1707 28.8813C16.7587 28.5477 16.2192 28.3809 15.5521 28.3809C14.885 28.3809 14.3455 28.5477 13.9334 28.8813C13.5214 29.205 13.3154 29.6464 13.3154 30.2056C13.3154 30.7746 13.5214 31.2258 13.9334 31.5594C14.3455 31.8831 14.885 32.045 15.5521 32.045ZM22.1738 33.693V38.4165H13.2566V33.693H14.3013V35.0321H21.129V33.693H22.1738ZM21.129 35.9444H14.3013V37.4895H21.129V35.9444ZM33.4438 33.0309V38.5931H32.3844V27.292H33.4438V31.9714H35.0036V33.0309H33.4438ZM28.1023 28.7635C28.0827 30.186 27.9748 31.4416 27.7786 32.5305L31.2955 37.1363L30.4567 37.7838L27.4402 33.796C27.087 35.0026 26.6112 35.9591 26.0128 36.6654C25.4144 37.3619 24.7179 37.769 23.9233 37.8868V36.7831C24.5609 36.6458 25.1103 36.2191 25.5714 35.503C26.0324 34.777 26.3856 33.8353 26.6308 32.6777C26.8859 31.5201 27.0232 30.2154 27.0429 28.7635H24.1587V27.7335H30.9129V28.7635H28.1023ZM37.2976 28.3662V30.3675H45.4643V31.2798H36.2381V27.4539H45.3466V28.3662H37.2976ZM35.4288 33.4134V32.5011H46.1412V33.4134H35.4288ZM40.785 34.5318C42.178 34.5318 43.3062 34.6936 44.1694 35.0174C45.0425 35.3313 45.4791 35.8463 45.4791 36.5624C45.4791 37.2785 45.0425 37.7985 44.1694 38.1222C43.3062 38.4459 42.178 38.6078 40.785 38.6078C39.392 38.6078 38.259 38.4459 37.3859 38.1222C36.5226 37.7985 36.091 37.2785 36.091 36.5624C36.091 35.8463 36.5226 35.3313 37.3859 35.0174C38.259 34.6936 39.392 34.5318 40.785 34.5318ZM40.785 35.4294C39.7746 35.4294 38.9211 35.5226 38.2246 35.709C37.5379 35.8855 37.1946 36.17 37.1946 36.5624C37.1946 36.9646 37.5379 37.2589 38.2246 37.4453C38.9113 37.6219 39.7648 37.7102 40.785 37.7102C41.7954 37.7102 42.644 37.6219 43.3307 37.4453C44.0174 37.2589 44.3607 36.9646 44.3607 36.5624C44.3607 36.17 44.0174 35.8855 43.3307 35.709C42.644 35.5226 41.7954 35.4294 40.785 35.4294ZM57.7939 34.4729H47.0814V33.5606H51.9079V32.354H47.9055V29.514H55.9692V28.2779H47.8907V27.4539H56.9993V30.2792H48.9355V31.5446H57.1611V32.354H52.9674V33.5606H57.7939V34.4729ZM57.014 35.606V38.5784H55.9545V36.5183H47.7583V35.606H57.014ZM59.2197 33.8107V27.5128H60.2497V29.5581H64.3846V27.5128H65.4441V30.1173H67.7249V27.292H68.7843V35.6942H67.7249V31.1621H65.4441V33.8107H59.2197ZM64.3846 30.5146H60.2497V32.8543H64.3846V30.5146ZM69.0345 38.4165H59.7347V34.8702H60.8089V37.4012H69.0345V38.4165ZM70.7693 29.8524V28.8371H75.1838V27.1449H76.2579V28.8371H80.7018V29.8524H70.7693ZM81.0991 38.0192H70.3867V37.0186H75.2132V35.1204C74.0164 35.0713 73.0599 34.8702 72.3438 34.5171C71.6375 34.1541 71.2843 33.6244 71.2843 32.9278C71.2843 32.1725 71.6914 31.6133 72.5057 31.2504C73.3199 30.8874 74.399 30.7059 75.7429 30.7059C77.0771 30.7059 78.1513 30.8874 78.9655 31.2504C79.7797 31.6133 80.1868 32.1725 80.1868 32.9278C80.1868 33.6244 79.8288 34.1541 79.1126 34.5171C78.4063 34.8702 77.4597 35.0713 76.2727 35.1204V37.0186H81.0991V38.0192ZM72.3732 32.9278C72.3732 33.3595 72.6773 33.6783 73.2855 33.8843C73.9036 34.0903 74.7227 34.1933 75.7429 34.1933C76.7533 34.1933 77.5627 34.0903 78.1709 33.8843C78.7889 33.6783 79.0979 33.3595 79.0979 32.9278C79.0979 32.4864 78.7889 32.1627 78.1709 31.9567C77.5627 31.7507 76.7533 31.6477 75.7429 31.6477C74.7227 31.6477 73.9036 31.7507 73.2855 31.9567C72.6773 32.1627 72.3732 32.4864 72.3732 32.9278ZM86.0529 30.6029C85.8273 30.6029 85.636 30.5293 85.479 30.3822C85.3319 30.2252 85.2583 30.029 85.2583 29.7936C85.2583 29.5679 85.3319 29.3816 85.479 29.2344C85.636 29.0775 85.8273 28.999 86.0529 28.999C86.2785 28.999 86.4649 29.0775 86.6121 29.2344C86.769 29.3816 86.8475 29.5679 86.8475 29.7936C86.8475 30.029 86.769 30.2252 86.6121 30.3822C86.4649 30.5293 86.2785 30.6029 86.0529 30.6029ZM86.0529 36.8714C85.8273 36.8714 85.636 36.7979 85.479 36.6507C85.3319 36.4938 85.2583 36.3025 85.2583 36.0768C85.2583 35.8414 85.3319 35.6501 85.479 35.503C85.636 35.3558 85.8273 35.2822 86.0529 35.2822C86.2785 35.2822 86.4649 35.3558 86.6121 35.503C86.769 35.6501 86.8475 35.8414 86.8475 36.0768C86.8475 36.3025 86.769 36.4938 86.6121 36.6507C86.4649 36.7979 86.2785 36.8714 86.0529 36.8714ZM95.4458 31.9272C96.1227 31.9272 96.7211 32.0548 97.241 32.3098C97.7708 32.5649 98.1779 32.9229 98.4624 33.384C98.7567 33.8451 98.9038 34.3846 98.9038 35.0026C98.9038 35.6403 98.7518 36.1995 98.4477 36.6801C98.1435 37.1608 97.7217 37.5336 97.1822 37.7985C96.6524 38.0633 96.054 38.1958 95.387 38.1958C94.0234 38.1958 92.9737 37.7445 92.238 36.842C91.5022 35.9395 91.1344 34.6691 91.1344 33.0309C91.1344 31.8831 91.3306 30.9119 91.7229 30.1173C92.1153 29.3129 92.6647 28.7096 93.371 28.3074C94.0871 27.8954 94.9161 27.6893 95.8578 27.6893C96.8781 27.6893 97.6972 27.8855 98.3152 28.2779L97.8738 29.1167C97.3833 28.8028 96.7211 28.6458 95.8873 28.6458C94.818 28.6458 93.9645 28.9744 93.3269 29.6317C92.699 30.289 92.3557 31.2454 92.2968 32.5011C92.2772 32.9229 92.3017 33.3644 92.3704 33.8255C92.5764 33.2271 92.9541 32.7611 93.5035 32.4275C94.0626 32.094 94.7101 31.9272 95.4458 31.9272ZM95.3281 37.2982C96.0638 37.2982 96.6622 37.0971 97.1233 36.6949C97.5844 36.2828 97.8149 35.7384 97.8149 35.0615C97.8149 34.3748 97.5844 33.8304 97.1233 33.4282C96.6622 33.0161 96.0393 32.8101 95.2545 32.8101C94.7542 32.8101 94.303 32.9082 93.9008 33.1044C93.5084 33.3006 93.1993 33.5753 92.9737 33.9285C92.7579 34.2718 92.65 34.6544 92.65 35.0762C92.65 35.4686 92.753 35.8365 92.959 36.1798C93.165 36.5134 93.4691 36.7831 93.8713 36.9892C94.2833 37.1952 94.7689 37.2982 95.3281 37.2982ZM104.279 31.9272C104.956 31.9272 105.554 32.0548 106.074 32.3098C106.604 32.5649 107.011 32.9229 107.296 33.384C107.59 33.8451 107.737 34.3846 107.737 35.0026C107.737 35.6403 107.585 36.1995 107.281 36.6801C106.977 37.1608 106.555 37.5336 106.015 37.7985C105.486 38.0633 104.887 38.1958 104.22 38.1958C102.857 38.1958 101.807 37.7445 101.071 36.842C100.335 35.9395 99.9676 34.6691 99.9676 33.0309C99.9676 31.8831 100.164 30.9119 100.556 30.1173C100.949 29.3129 101.498 28.7096 102.204 28.3074C102.92 27.8954 103.749 27.6893 104.691 27.6893C105.711 27.6893 106.53 27.8855 107.148 28.2779L106.707 29.1167C106.217 28.8028 105.554 28.6458 104.72 28.6458C103.651 28.6458 102.798 28.9744 102.16 29.6317C101.532 30.289 101.189 31.2454 101.13 32.5011C101.11 32.9229 101.135 33.3644 101.204 33.8255C101.41 33.2271 101.787 32.7611 102.337 32.4275C102.896 32.094 103.543 31.9272 104.279 31.9272ZM104.161 37.2982C104.897 37.2982 105.495 37.0971 105.957 36.6949C106.418 36.2828 106.648 35.7384 106.648 35.0615C106.648 34.3748 106.418 33.8304 105.957 33.4282C105.495 33.0161 104.873 32.8101 104.088 32.8101C103.587 32.8101 103.136 32.9082 102.734 33.1044C102.342 33.3006 102.033 33.5753 101.807 33.9285C101.591 34.2718 101.483 34.6544 101.483 35.0762C101.483 35.4686 101.586 35.8365 101.792 36.1798C101.998 36.5134 102.302 36.7831 102.705 36.9892C103.117 37.1952 103.602 37.2982 104.161 37.2982ZM112.715 32.2215C113.794 32.2706 114.618 32.56 115.187 33.0897C115.756 33.6096 116.041 34.2914 116.041 35.1351C116.041 35.7237 115.898 36.2485 115.614 36.7096C115.329 37.1706 114.908 37.5336 114.348 37.7985C113.789 38.0633 113.107 38.1958 112.303 38.1958C111.557 38.1958 110.851 38.0781 110.184 37.8426C109.527 37.5974 109.002 37.2736 108.61 36.8714L109.095 36.0327C109.438 36.3858 109.89 36.6752 110.449 36.9009C111.018 37.1167 111.626 37.2246 112.274 37.2246C113.127 37.2246 113.779 37.0382 114.231 36.6654C114.692 36.2927 114.922 35.7825 114.922 35.1351C114.922 34.4876 114.692 33.9824 114.231 33.6194C113.779 33.2565 113.088 33.075 112.156 33.075H111.42V32.3245L114.26 28.7341H109.007V27.7924H115.629V28.5428L112.715 32.2215ZM121.784 32.4864V33.3987H117.914V32.4864H121.784ZM128.938 32.6924C129.625 32.8886 130.155 33.2074 130.527 33.6489C130.9 34.0903 131.086 34.6201 131.086 35.2381C131.086 36.1504 130.728 36.8714 130.012 37.4012C129.296 37.9309 128.32 38.1958 127.084 38.1958C125.838 38.1958 124.857 37.9309 124.141 37.4012C123.435 36.8714 123.082 36.1504 123.082 35.2381C123.082 34.6103 123.268 34.0805 123.641 33.6489C124.014 33.2074 124.543 32.8886 125.23 32.6924C124.661 32.506 124.22 32.2215 123.906 31.8389C123.602 31.4465 123.449 30.9757 123.449 30.4263C123.449 29.5827 123.778 28.9156 124.435 28.4251C125.102 27.9346 125.985 27.6893 127.084 27.6893C128.183 27.6893 129.061 27.9346 129.718 28.4251C130.385 28.9156 130.719 29.5827 130.719 30.4263C130.719 30.9757 130.562 31.4465 130.248 31.8389C129.944 32.2215 129.507 32.506 128.938 32.6924ZM127.084 28.5722C126.309 28.5722 125.696 28.7439 125.245 29.0873C124.803 29.4208 124.582 29.877 124.582 30.4557C124.582 31.0247 124.803 31.476 125.245 31.8095C125.686 32.1431 126.299 32.3098 127.084 32.3098C127.869 32.3098 128.487 32.1431 128.938 31.8095C129.389 31.476 129.615 31.0247 129.615 30.4557C129.615 29.877 129.384 29.4208 128.923 29.0873C128.462 28.7439 127.849 28.5722 127.084 28.5722ZM127.084 37.3129C127.977 37.3129 128.678 37.1265 129.188 36.7537C129.708 36.3809 129.968 35.8708 129.968 35.2234C129.968 34.5759 129.708 34.0658 129.188 33.693C128.678 33.3202 127.977 33.1339 127.084 33.1339C126.182 33.1339 125.48 33.3202 124.98 33.693C124.479 34.0658 124.229 34.5759 124.229 35.2234C124.229 35.8708 124.479 36.3809 124.98 36.7537C125.48 37.1265 126.182 37.3129 127.084 37.3129ZM136.418 31.9272C137.094 31.9272 137.693 32.0548 138.213 32.3098C138.743 32.5649 139.15 32.9229 139.434 33.384C139.728 33.8451 139.876 34.3846 139.876 35.0026C139.876 35.6403 139.724 36.1995 139.419 36.6801C139.115 37.1608 138.693 37.5336 138.154 37.7985C137.624 38.0633 137.026 38.1958 136.359 38.1958C134.995 38.1958 133.945 37.7445 133.21 36.842C132.474 35.9395 132.106 34.6691 132.106 33.0309C132.106 31.8831 132.302 30.9119 132.695 30.1173C133.087 29.3129 133.636 28.7096 134.343 28.3074C135.059 27.8954 135.888 27.6893 136.83 27.6893C137.85 27.6893 138.669 27.8855 139.287 28.2779L138.846 29.1167C138.355 28.8028 137.693 28.6458 136.859 28.6458C135.79 28.6458 134.936 28.9744 134.299 29.6317C133.671 30.289 133.327 31.2454 133.269 32.5011C133.249 32.9229 133.273 33.3644 133.342 33.8255C133.548 33.2271 133.926 32.7611 134.475 32.4275C135.034 32.094 135.682 31.9272 136.418 31.9272ZM136.3 37.2982C137.036 37.2982 137.634 37.0971 138.095 36.6949C138.556 36.2828 138.787 35.7384 138.787 35.0615C138.787 34.3748 138.556 33.8304 138.095 33.4282C137.634 33.0161 137.011 32.8101 136.226 32.8101C135.726 32.8101 135.275 32.9082 134.873 33.1044C134.48 33.3006 134.171 33.5753 133.945 33.9285C133.73 34.2718 133.622 34.6544 133.622 35.0762C133.622 35.4686 133.725 35.8365 133.931 36.1798C134.137 36.5134 134.441 36.7831 134.843 36.9892C135.255 37.1952 135.741 37.2982 136.3 37.2982ZM145.089 32.4864V33.3987H141.219V32.4864H145.089ZM150.389 38.1958C149.595 38.1958 148.883 37.9849 148.256 37.563C147.628 37.1314 147.137 36.5183 146.784 35.7237C146.441 34.9291 146.269 34.002 146.269 32.9426C146.269 31.8831 146.441 30.9561 146.784 30.1614C147.137 29.3668 147.628 28.7586 148.256 28.3368C148.883 27.9052 149.595 27.6893 150.389 27.6893C151.194 27.6893 151.905 27.9052 152.523 28.3368C153.151 28.7586 153.636 29.3668 153.98 30.1614C154.333 30.9462 154.509 31.8733 154.509 32.9426C154.509 34.0118 154.333 34.9438 153.98 35.7384C153.636 36.5232 153.151 37.1314 152.523 37.563C151.905 37.9849 151.194 38.1958 150.389 38.1958ZM150.389 37.2099C150.988 37.2099 151.513 37.0431 151.964 36.7096C152.415 36.376 152.763 35.8904 153.009 35.2528C153.264 34.6152 153.391 33.8451 153.391 32.9426C153.391 32.04 153.264 31.27 153.009 30.6323C152.763 29.9947 152.415 29.5091 151.964 29.1756C151.513 28.842 150.988 28.6752 150.389 28.6752C149.801 28.6752 149.281 28.842 148.83 29.1756C148.378 29.5091 148.025 29.9947 147.77 30.6323C147.525 31.27 147.402 32.04 147.402 32.9426C147.402 33.8451 147.525 34.6152 147.77 35.2528C148.025 35.8904 148.378 36.376 148.83 36.7096C149.281 37.0431 149.801 37.2099 150.389 37.2099ZM162.857 38.0928H155.617V37.3423L159.885 33.1339C160.424 32.6041 160.787 32.148 160.974 31.7654C161.16 31.3828 161.253 30.9904 161.253 30.5882C161.253 29.9898 161.047 29.5189 160.635 29.1756C160.223 28.8322 159.635 28.6605 158.869 28.6605C157.663 28.6605 156.741 29.0529 156.103 29.8377L155.294 29.2491C155.686 28.7488 156.191 28.3662 156.809 28.1014C157.437 27.8267 158.153 27.6893 158.958 27.6893C159.998 27.6893 160.826 27.9444 161.444 28.4545C162.072 28.9548 162.386 29.6366 162.386 30.4999C162.386 31.0296 162.264 31.5397 162.018 32.0302C161.783 32.5109 161.341 33.0652 160.694 33.693L157.236 37.1363H162.857V38.0928ZM170.675 35.3852V38.0928H169.571V35.3852H163.788V34.6201L169.204 27.7924H170.41L165.172 34.4435H169.601V32.0597H170.675V34.4435H172.72V35.3852H170.675ZM177.389 31.9272C178.066 31.9272 178.665 32.0548 179.185 32.3098C179.714 32.5649 180.121 32.9229 180.406 33.384C180.7 33.8451 180.847 34.3846 180.847 35.0026C180.847 35.6403 180.695 36.1995 180.391 36.6801C180.087 37.1608 179.665 37.5336 179.126 37.7985C178.596 38.0633 177.998 38.1958 177.33 38.1958C175.967 38.1958 174.917 37.7445 174.181 36.842C173.446 35.9395 173.078 34.6691 173.078 33.0309C173.078 31.8831 173.274 30.9119 173.666 30.1173C174.059 29.3129 174.608 28.7096 175.315 28.3074C176.031 27.8954 176.86 27.6893 177.801 27.6893C178.822 27.6893 179.641 27.8855 180.259 28.2779L179.817 29.1167C179.327 28.8028 178.665 28.6458 177.831 28.6458C176.762 28.6458 175.908 28.9744 175.27 29.6317C174.643 30.289 174.299 31.2454 174.24 32.5011C174.221 32.9229 174.245 33.3644 174.314 33.8255C174.52 33.2271 174.898 32.7611 175.447 32.4275C176.006 32.094 176.654 31.9272 177.389 31.9272ZM177.272 37.2982C178.007 37.2982 178.606 37.0971 179.067 36.6949C179.528 36.2828 179.758 35.7384 179.758 35.0615C179.758 34.3748 179.528 33.8304 179.067 33.4282C178.606 33.0161 177.983 32.8101 177.198 32.8101C176.698 32.8101 176.246 32.9082 175.844 33.1044C175.452 33.3006 175.143 33.5753 174.917 33.9285C174.701 34.2718 174.594 34.6544 174.594 35.0762C174.594 35.4686 174.697 35.8365 174.903 36.1798C175.109 36.5134 175.413 36.7831 175.815 36.9892C176.227 37.1952 176.712 37.2982 177.272 37.2982ZM189.357 38.0928H182.117V37.3423L186.384 33.1339C186.924 32.6041 187.287 32.148 187.473 31.7654C187.66 31.3828 187.753 30.9904 187.753 30.5882C187.753 29.9898 187.547 29.5189 187.135 29.1756C186.723 28.8322 186.134 28.6605 185.369 28.6605C184.162 28.6605 183.24 29.0529 182.603 29.8377L181.793 29.2491C182.186 28.7488 182.691 28.3662 183.309 28.1014C183.937 27.8267 184.653 27.6893 185.457 27.6893C186.497 27.6893 187.326 27.9444 187.944 28.4545C188.572 28.9548 188.886 29.6366 188.886 30.4999C188.886 31.0296 188.763 31.5397 188.518 32.0302C188.283 32.5109 187.841 33.0652 187.194 33.693L183.736 37.1363H189.357V38.0928ZM10.7419 63.5931H9.72654V57.972H7.78418V63.4018H6.78356V52.3509H7.78418V56.9272H9.72654V52.292H10.7419V63.5931ZM3.42857 61.8862C3.88964 61.8862 4.34089 61.8469 4.78234 61.7684C5.22378 61.69 5.60637 61.582 5.9301 61.4447V62.4306C5.60637 62.5778 5.21397 62.6906 4.75291 62.769C4.29184 62.8475 3.80625 62.8868 3.29613 62.8868H0.838749V52.7335H5.47394V53.7341H1.86879V61.8862H3.42857ZM22.836 63.0192H12.1235V62.0039H14.8752V59.1786H12.6974V58.1633H14.6545V53.8371H12.8004V52.8218H22.1444V53.8371H20.305V58.1633H22.2621V59.1786H20.0843V62.0039H22.836V63.0192ZM19.2455 58.1633V53.8371H15.7139V58.1633H19.2455ZM19.0101 62.0039V59.1786H15.9347V62.0039H19.0101ZM24.2617 58.8107V52.5128H25.2918V54.5581H29.4267V52.5128H30.4861V55.1173H32.7669V52.292H33.8264V60.6942H32.7669V56.1621H30.4861V58.8107H24.2617ZM29.4267 55.5146H25.2918V57.8543H29.4267V55.5146ZM34.0766 63.4165H24.7768V59.8702H25.851V62.4012H34.0766V63.4165ZM35.8114 54.8524V53.8371H40.2258V52.1449H41.3V53.8371H45.7439V54.8524H35.8114ZM46.1412 63.0192H35.4288V62.0186H40.2553V60.1204C39.0585 60.0713 38.102 59.8702 37.3859 59.5171C36.6796 59.1541 36.3264 58.6244 36.3264 57.9278C36.3264 57.1725 36.7335 56.6133 37.5477 56.2504C38.362 55.8874 39.4411 55.7059 40.785 55.7059C42.1192 55.7059 43.1933 55.8874 44.0076 56.2504C44.8218 56.6133 45.2289 57.1725 45.2289 57.9278C45.2289 58.6244 44.8708 59.1541 44.1547 59.5171C43.4484 59.8702 42.5017 60.0713 41.3147 60.1204V62.0186H46.1412V63.0192ZM37.4153 57.9278C37.4153 58.3595 37.7194 58.6783 38.3276 58.8843C38.9457 59.0903 39.7648 59.1933 40.785 59.1933C41.7954 59.1933 42.6048 59.0903 43.213 58.8843C43.831 58.6783 44.14 58.3595 44.14 57.9278C44.14 57.4864 43.831 57.1627 43.213 56.9567C42.6048 56.7507 41.7954 56.6477 40.785 56.6477C39.7648 56.6477 38.9457 56.7507 38.3276 56.9567C37.7194 57.1627 37.4153 57.4864 37.4153 57.9278ZM51.095 55.6029C50.8693 55.6029 50.6781 55.5293 50.5211 55.3822C50.3739 55.2252 50.3004 55.029 50.3004 54.7936C50.3004 54.5679 50.3739 54.3816 50.5211 54.2344C50.6781 54.0775 50.8693 53.999 51.095 53.999C51.3206 53.999 51.507 54.0775 51.6541 54.2344C51.8111 54.3816 51.8896 54.5679 51.8896 54.7936C51.8896 55.029 51.8111 55.2252 51.6541 55.3822C51.507 55.5293 51.3206 55.6029 51.095 55.6029ZM51.095 61.8714C50.8693 61.8714 50.6781 61.7979 50.5211 61.6507C50.3739 61.4938 50.3004 61.3025 50.3004 61.0768C50.3004 60.8414 50.3739 60.6501 50.5211 60.503C50.6781 60.3558 50.8693 60.2822 51.095 60.2822C51.3206 60.2822 51.507 60.3558 51.6541 60.503C51.8111 60.6501 51.8896 60.8414 51.8896 61.0768C51.8896 61.3025 51.8111 61.4938 51.6541 61.6507C51.507 61.7979 51.3206 61.8714 51.095 61.8714ZM60.9882 63.0928H59.8699V53.7341H57.4566V52.7924H60.9882V63.0928ZM68.1587 57.0155C71.0134 57.0155 72.4407 58.0358 72.4407 60.0762C72.4407 60.6648 72.2985 61.1946 72.014 61.6654C71.7393 62.1363 71.3175 62.5091 70.7485 62.7838C70.1893 63.0584 69.4977 63.1958 68.6737 63.1958C67.9379 63.1958 67.2365 63.0781 66.5695 62.8426C65.9024 62.5974 65.3776 62.2736 64.995 61.8714L65.4953 61.0327C65.8288 61.3858 66.2752 61.6752 66.8343 61.9009C67.4033 62.1167 68.0115 62.2246 68.659 62.2246C69.5026 62.2246 70.1501 62.0333 70.6013 61.6507C71.0624 61.2583 71.2929 60.7384 71.2929 60.0909C71.2929 59.3846 71.0379 58.8549 70.5278 58.5017C70.0176 58.1388 69.1446 57.9573 67.9085 57.9573H65.7013L66.231 52.7924H71.8668V53.7341H67.1728L66.8196 57.0155H68.1587ZM76.9919 57.0155C79.8466 57.0155 81.2739 58.0358 81.2739 60.0762C81.2739 60.6648 81.1317 61.1946 80.8472 61.6654C80.5725 62.1363 80.1507 62.5091 79.5817 62.7838C79.0226 63.0584 78.331 63.1958 77.5069 63.1958C76.7712 63.1958 76.0698 63.0781 75.4027 62.8426C74.7356 62.5974 74.2108 62.2736 73.8282 61.8714L74.3285 61.0327C74.662 61.3858 75.1084 61.6752 75.6676 61.9009C76.2365 62.1167 76.8448 62.2246 77.4922 62.2246C78.3359 62.2246 78.9833 62.0333 79.4346 61.6507C79.8956 61.2583 80.1262 60.7384 80.1262 60.0909C80.1262 59.3846 79.8711 58.8549 79.361 58.5017C78.8509 58.1388 77.9778 57.9573 76.7418 57.9573H74.5345L75.0643 52.7924H80.7001V53.7341H76.006L75.6529 57.0155H76.9919ZM87.4879 63.0928H86.3696V53.7341H83.9564V52.7924H87.4879V63.0928ZM95.659 57.4864V58.3987H91.789V57.4864H95.659ZM101.701 63.0928H100.583V53.7341H98.1697V52.7924H101.701V63.0928ZM108.872 57.0155C111.726 57.0155 113.154 58.0358 113.154 60.0762C113.154 60.6648 113.012 61.1946 112.727 61.6654C112.452 62.1363 112.031 62.5091 111.462 62.7838C110.902 63.0584 110.211 63.1958 109.387 63.1958C108.651 63.1958 107.95 63.0781 107.283 62.8426C106.615 62.5974 106.091 62.2736 105.708 61.8714L106.208 61.0327C106.542 61.3858 106.988 61.6752 107.547 61.9009C108.116 62.1167 108.725 62.2246 109.372 62.2246C110.216 62.2246 110.863 62.0333 111.314 61.6507C111.776 61.2583 112.006 60.7384 112.006 60.0909C112.006 59.3846 111.751 58.8549 111.241 58.5017C110.731 58.1388 109.858 57.9573 108.622 57.9573H106.414L106.944 52.7924H112.58V53.7341H107.886L107.533 57.0155H108.872ZM118.47 57.2215C119.549 57.2706 120.373 57.56 120.942 58.0897C121.511 58.6096 121.796 59.2914 121.796 60.1351C121.796 60.7237 121.654 61.2485 121.369 61.7096C121.085 62.1706 120.663 62.5336 120.104 62.7985C119.544 63.0633 118.863 63.1958 118.058 63.1958C117.313 63.1958 116.606 63.0781 115.939 62.8426C115.282 62.5974 114.757 62.2736 114.365 61.8714L114.85 61.0327C115.194 61.3858 115.645 61.6752 116.204 61.9009C116.773 62.1167 117.381 62.2246 118.029 62.2246C118.882 62.2246 119.535 62.0382 119.986 61.6654C120.447 61.2927 120.677 60.7825 120.677 60.1351C120.677 59.4876 120.447 58.9824 119.986 58.6194C119.535 58.2565 118.843 58.075 117.911 58.075H117.175V57.3245L120.015 53.7341H114.762V52.7924H121.384V53.5428L118.47 57.2215ZM128.201 63.0928H127.083V53.7341H124.669V52.7924H128.201V63.0928ZM5.54751 81.7795C5.0374 82.476 4.37032 83.0351 3.54629 83.457C2.72225 83.8788 1.81974 84.1339 0.838749 84.2221V83.1921C1.98651 83.0842 2.97241 82.7163 3.79644 82.0885C4.62047 81.4508 5.1404 80.6317 5.35622 79.6311H1.10362V78.6158H10.5506V79.6311H6.48927C6.43041 80.0824 6.30288 80.514 6.10668 80.926L10.8743 83.2362L10.4181 84.1633L5.54751 81.7795ZM6.34212 86.5618V89.8579H5.26793V86.5618H0.470876V85.5318H11.1833V86.5618H6.34212ZM17.3326 81.8678C16.7146 82.888 15.9641 83.6973 15.0812 84.2957C14.1983 84.8941 13.2811 85.1933 12.3295 85.1933V84.1339C13.1045 84.1339 13.8501 83.8788 14.5662 83.3687C15.2823 82.8488 15.8954 82.1473 16.4055 81.2645C16.9255 80.3816 17.2835 79.4104 17.4797 78.3509L18.5686 78.5716C18.4117 79.4055 18.1566 80.205 17.8035 80.9702L22.5417 84.3546L21.9678 85.2228L17.3326 81.8678ZM22.836 87.9744V89.0192H12.1235V87.9744H16.9353V84.6636H18.0095V87.9744H22.836ZM27.7897 81.6029C27.5641 81.6029 27.3728 81.5293 27.2158 81.3822C27.0687 81.2252 26.9951 81.029 26.9951 80.7936C26.9951 80.5679 27.0687 80.3816 27.2158 80.2344C27.3728 80.0775 27.5641 79.999 27.7897 79.999C28.0153 79.999 28.2017 80.0775 28.3489 80.2344C28.5058 80.3816 28.5843 80.5679 28.5843 80.7936C28.5843 81.029 28.5058 81.2252 28.3489 81.3822C28.2017 81.5293 28.0153 81.6029 27.7897 81.6029ZM27.7897 87.8714C27.5641 87.8714 27.3728 87.7979 27.2158 87.6507C27.0687 87.4938 26.9951 87.3025 26.9951 87.0768C26.9951 86.8414 27.0687 86.6501 27.2158 86.503C27.3728 86.3558 27.5641 86.2822 27.7897 86.2822C28.0153 86.2822 28.2017 86.3558 28.3489 86.503C28.5058 86.6501 28.5843 86.8414 28.5843 87.0768C28.5843 87.3025 28.5058 87.4938 28.3489 87.6507C28.2017 87.7979 28.0153 87.8714 27.7897 87.8714ZM33.5186 84.2663V78.5128H34.5634V80.2197H41.6265V78.5128H42.6713V84.2663H33.5186ZM41.6265 81.2056H34.5634V83.2657H41.6265V81.2056ZM38.6394 86.5765V89.8579H37.5505V86.5765H32.7387V85.5465H43.4512V86.5765H38.6394ZM55.6188 82.0149H54.059V86.6942H52.9996V78.292H54.059V80.9407H55.6188V82.0149ZM47.9524 82.2062C47.5698 82.9518 47.0793 83.5649 46.4809 84.0456C45.8825 84.5263 45.2007 84.8255 44.4355 84.9432V83.8984C45.1124 83.7611 45.701 83.4275 46.2013 82.8978C46.7114 82.3681 47.0989 81.7108 47.3638 80.926C47.6286 80.1412 47.7611 79.3025 47.7611 78.4098L48.8353 78.4686C48.8353 79.479 48.6881 80.4061 48.3938 81.2497L51.8518 84.0309L51.2044 84.8402L47.9524 82.2062ZM54.3828 88.4012V89.4165H45.1565V85.8996H46.2307V88.4012H54.3828ZM67.2715 81.9561H65.7411V85.0462H64.6669V78.292H65.7411V80.926H67.2715V81.9561ZM56.5885 79.4545V78.4981H62.6068V82.4564H61.5474V79.4545H56.5885ZM63.7105 83.8543C63.063 84.1486 61.827 84.2957 60.0023 84.2957H56.044V83.3687H58.2807V80.9113H59.3401V83.3687H60.0465C61.8024 83.3687 63.0238 83.2215 63.7105 82.9272V83.8543ZM61.3266 85.2816C62.7098 85.2816 63.8233 85.4631 64.6669 85.8261C65.5106 86.1792 65.9324 86.7237 65.9324 87.4594C65.9324 88.1952 65.5106 88.7396 64.6669 89.0928C63.8331 89.4459 62.7197 89.6225 61.3266 89.6225C59.9336 89.6225 58.8104 89.4459 57.9569 89.0928C57.1133 88.7396 56.6915 88.1952 56.6915 87.4594C56.6915 86.7237 57.1133 86.1792 57.9569 85.8261C58.8104 85.4631 59.9336 85.2816 61.3266 85.2816ZM61.3266 88.7249C62.3665 88.7249 63.2102 88.6219 63.8576 88.4159C64.5051 88.2099 64.8288 87.8911 64.8288 87.4594C64.8288 87.018 64.5051 86.6942 63.8576 86.4882C63.2102 86.2822 62.3665 86.1792 61.3266 86.1792C60.277 86.1792 59.4284 86.2822 58.781 86.4882C58.1335 86.6942 57.8098 87.018 57.8098 87.4594C57.8098 87.8911 58.1335 88.2099 58.781 88.4159C59.4284 88.6219 60.277 88.7249 61.3266 88.7249ZM77.7469 85.0462H76.7021V83.5158H74.6715L74.7451 82.5152H76.7021V80.5729H74.7451L74.6715 79.587H76.7021V78.292H77.7469V85.0462ZM74.3772 81.544C74.3772 82.1424 74.2448 82.6771 73.9799 83.148C73.715 83.6188 73.3324 83.9916 72.8321 84.2663C72.3416 84.5312 71.7629 84.6636 71.0958 84.6636C70.4385 84.6636 69.8597 84.5312 69.3594 84.2663C68.8689 83.9916 68.4863 83.6188 68.2117 83.148C67.9468 82.6673 67.8144 82.1326 67.8144 81.544C67.8144 80.9554 67.9468 80.4257 68.2117 79.9548C68.4863 79.4741 68.8689 79.1014 69.3594 78.8365C69.8597 78.5618 70.4385 78.4245 71.0958 78.4245C71.7629 78.4245 72.3416 78.5618 72.8321 78.8365C73.3324 79.1014 73.715 79.4692 73.9799 79.9401C74.2448 80.411 74.3772 80.9456 74.3772 81.544ZM68.8885 81.544C68.8885 82.2111 69.0896 82.7408 69.4919 83.1332C69.9039 83.5256 70.4385 83.7218 71.0958 83.7218C71.753 83.7218 72.2877 83.5256 72.6997 83.1332C73.1117 82.7408 73.3177 82.2111 73.3177 81.544C73.3177 80.877 73.1117 80.3472 72.6997 79.9548C72.2975 79.5624 71.7629 79.3662 71.0958 79.3662C70.4385 79.3662 69.9039 79.5624 69.4919 79.9548C69.0896 80.3472 68.8885 80.877 68.8885 81.544ZM77.7469 85.7083V89.5636H76.6727V86.6942H68.7267V85.7083H77.7469ZM89.326 89.5931H88.2518V78.292H89.326V89.5931ZM84.0875 78.6158C84.0679 80.4012 83.9158 81.9659 83.6313 83.3098L87.1776 88.2099L86.3241 88.8573L83.2929 84.6047C82.9103 85.8898 82.4002 86.9052 81.7625 87.6507C81.1347 88.3865 80.4038 88.7985 79.57 88.8868V87.7831C80.2959 87.6556 80.914 87.17 81.4241 86.3264C81.9342 85.4729 82.3217 84.3742 82.5866 83.0302C82.8514 81.6863 82.9888 80.205 82.9986 78.5863L84.0875 78.6158ZM94.6917 84.2663V78.5128H95.7365V80.2197H102.8V78.5128H103.844V84.2663H94.6917ZM102.8 81.2056H95.7365V83.2657H102.8V81.2056ZM99.8125 86.5765V89.8579H98.7236V86.5765H93.9118V85.5465H104.624V86.5765H99.8125ZM116.792 82.0149H115.232V86.6942H114.173V78.292H115.232V80.9407H116.792V82.0149ZM109.125 82.2062C108.743 82.9518 108.252 83.5649 107.654 84.0456C107.056 84.5263 106.374 84.8255 105.609 84.9432V83.8984C106.286 83.7611 106.874 83.4275 107.374 82.8978C107.885 82.3681 108.272 81.7108 108.537 80.926C108.802 80.1412 108.934 79.3025 108.934 78.4098L110.008 78.4686C110.008 79.479 109.861 80.4061 109.567 81.2497L113.025 84.0309L112.377 84.8402L109.125 82.2062ZM115.556 88.4012V89.4165H106.33V85.8996H107.404V88.4012H115.556ZM126.12 86.6942V78.292H127.194V86.6942H126.12ZM121.087 82.2798C120.724 83.0253 120.234 83.6286 119.616 84.0897C119.007 84.5508 118.306 84.8353 117.511 84.9432V83.9131C118.443 83.7562 119.194 83.2951 119.763 82.5299C120.332 81.7648 120.641 80.7838 120.69 79.587H117.644V78.6158H124.589V79.587H121.749C121.739 80.2246 121.651 80.8083 121.484 81.338L124.898 84.0309L124.31 84.8549L121.087 82.2798ZM127.503 89.4165H118.174V85.8996H119.248V88.4012H127.503V89.4165ZM129.606 79.6311V78.5863H138.788V83.6924H137.684V79.6311H129.606ZM134.697 85.7819V89.8579H133.623V85.7819H128.87V84.7077H139.582V85.7819H134.697ZM154.145 84.487H143.432V83.5747H148.259V82.2798H144.242V78.4539H153.35V79.3662H145.301V81.3675H153.468V82.2798H149.318V83.5747H154.145V84.487ZM148.789 85.5318C150.182 85.5318 151.31 85.6936 152.173 86.0174C153.046 86.3313 153.483 86.8463 153.483 87.5624C153.483 88.2785 153.046 88.7985 152.173 89.1222C151.31 89.4459 150.182 89.6078 148.789 89.6078C147.396 89.6078 146.262 89.4459 145.389 89.1222C144.526 88.7985 144.094 88.2785 144.094 87.5624C144.094 86.8463 144.526 86.3313 145.389 86.0174C146.262 85.6936 147.396 85.5318 148.789 85.5318ZM148.789 88.7102C149.799 88.7102 150.648 88.6219 151.334 88.4453C152.021 88.2589 152.364 87.9646 152.364 87.5624C152.364 87.17 152.021 86.8855 151.334 86.709C150.648 86.5226 149.799 86.4294 148.789 86.4294C147.778 86.4294 146.925 86.5226 146.228 86.709C145.541 86.8855 145.198 87.17 145.198 87.5624C145.198 87.9646 145.541 88.2589 146.228 88.4453C146.915 88.6219 147.768 88.7102 148.789 88.7102ZM158.764 82.8537C158.42 83.5404 157.949 84.0946 157.351 84.5164C156.753 84.9285 156.071 85.1884 155.306 85.2963V84.2957C156.198 84.1388 156.915 83.7316 157.454 83.0744C157.994 82.4171 158.298 81.5538 158.366 80.4846H155.423V79.5134H158.366V78.086H159.441V79.5134H162.325V80.4846H159.441C159.411 81.0143 159.328 81.495 159.19 81.9266L162.501 84.384L161.927 85.2375L158.764 82.8537ZM164.076 78.292H165.135V86.7384H164.076V82.5299H161.898V81.4999H164.076V78.292ZM165.385 89.4165H156.086V86.2969H157.16V88.4159H165.385V89.4165ZM177.45 89.0192H166.738V88.0039H171.535V85.6789H167.503V81.7059H175.67V79.7341H167.488V78.7335H176.729V82.6771H168.548V84.6783H176.891V85.6789H172.594V88.0039H177.45V89.0192ZM182.404 87.5624C182.639 87.5624 182.831 87.6409 182.978 87.7979C183.125 87.945 183.198 88.1314 183.198 88.357C183.198 88.4747 183.184 88.5925 183.154 88.7102C183.135 88.8279 183.086 88.9947 183.007 89.2105L182.374 91.2264H181.639L182.154 89.0928C181.987 89.0437 181.854 88.9554 181.756 88.8279C181.658 88.7004 181.609 88.5434 181.609 88.357C181.609 88.1314 181.683 87.945 181.83 87.7979C181.987 87.6409 182.178 87.5624 182.404 87.5624ZM193.916 86.3852V89.0928H192.812V86.3852H187.029V85.6201L192.444 78.7924H193.651L188.412 85.4435H192.841V83.0597H193.916V85.4435H195.961V86.3852H193.916ZM201.204 81.3675C200.684 81.8481 200.007 82.216 199.173 82.4711C198.349 82.7163 197.501 82.8488 196.628 82.8684V81.9855C197.618 81.9561 198.545 81.7599 199.409 81.3969C200.272 81.0339 200.816 80.5287 201.042 79.8813H196.848V78.9984H201.013V77.8359H202.087V78.9984H206.236V79.8813H202.19C202.15 80.1461 202.047 80.4012 201.881 80.6464L206.486 82.0296L206.222 82.8978L201.204 81.3675ZM206.898 84.7519H196.186V83.8396H206.898V84.7519ZM201.542 85.8555C202.935 85.8555 204.063 86.0026 204.927 86.2969C205.8 86.5814 206.236 87.0572 206.236 87.7243C206.236 88.3914 205.805 88.8671 204.941 89.1516C204.078 89.4459 202.945 89.5931 201.542 89.5931C200.139 89.5931 199.002 89.4459 198.128 89.1516C197.265 88.8671 196.834 88.3914 196.834 87.7243C196.834 87.0572 197.265 86.5814 198.128 86.2969C199.002 86.0026 200.139 85.8555 201.542 85.8555ZM201.542 88.7249C202.563 88.7249 203.416 88.6464 204.103 88.4895C204.799 88.3325 205.147 88.0774 205.147 87.7243C205.147 87.3711 204.804 87.121 204.117 86.9738C203.431 86.8169 202.572 86.7384 201.542 86.7384C200.512 86.7384 199.649 86.8169 198.952 86.9738C198.266 87.121 197.922 87.3711 197.922 87.7243C197.922 88.0774 198.271 88.3325 198.967 88.4895C199.664 88.6464 200.522 88.7249 201.542 88.7249ZM217.311 86.3852V89.0928H216.208V86.3852H210.425V85.6201L215.84 78.7924H217.047L211.808 85.4435H216.237V83.0597H217.311V85.4435H219.357V86.3852H217.311ZM223.525 89.1958C222.731 89.1958 222.02 88.9849 221.392 88.563C220.764 88.1314 220.273 87.5183 219.92 86.7237C219.577 85.9291 219.405 85.002 219.405 83.9426C219.405 82.8831 219.577 81.9561 219.92 81.1614C220.273 80.3668 220.764 79.7586 221.392 79.3368C222.02 78.9052 222.731 78.6893 223.525 78.6893C224.33 78.6893 225.041 78.9052 225.659 79.3368C226.287 79.7586 226.773 80.3668 227.116 81.1614C227.469 81.9462 227.646 82.8733 227.646 83.9426C227.646 85.0118 227.469 85.9438 227.116 86.7384C226.773 87.5232 226.287 88.1314 225.659 88.563C225.041 88.9849 224.33 89.1958 223.525 89.1958ZM223.525 88.2099C224.124 88.2099 224.649 88.0431 225.1 87.7096C225.551 87.376 225.899 86.8904 226.145 86.2528C226.4 85.6152 226.527 84.8451 226.527 83.9426C226.527 83.04 226.4 82.27 226.145 81.6323C225.899 80.9947 225.551 80.5091 225.1 80.1756C224.649 79.842 224.124 79.6752 223.525 79.6752C222.937 79.6752 222.417 79.842 221.966 80.1756C221.514 80.5091 221.161 80.9947 220.906 81.6323C220.661 82.27 220.538 83.04 220.538 83.9426C220.538 84.8451 220.661 85.6152 220.906 86.2528C221.161 86.8904 221.514 87.376 221.966 87.7096C222.417 88.0431 222.937 88.2099 223.525 88.2099ZM235.993 89.0928H228.754V88.3423L233.021 84.1339C233.56 83.6041 233.923 83.148 234.11 82.7654C234.296 82.3828 234.389 81.9904 234.389 81.5882C234.389 80.9898 234.183 80.5189 233.771 80.1756C233.359 79.8322 232.771 79.6605 232.006 79.6605C230.799 79.6605 229.877 80.0529 229.239 80.8377L228.43 80.2491C228.822 79.7488 229.327 79.3662 229.945 79.1014C230.573 78.8267 231.289 78.6893 232.094 78.6893C233.134 78.6893 233.963 78.9444 234.581 79.4545C235.208 79.9548 235.522 80.6366 235.522 81.4999C235.522 82.0296 235.4 82.5397 235.155 83.0302C234.919 83.5109 234.478 84.0652 233.83 84.693L230.372 88.1363H235.993V89.0928ZM244.915 79.5428L240.618 89.0928H239.397L243.62 79.7488H238.352V81.6618H237.322V78.7924H244.915V79.5428ZM246.464 80.8524V79.8371H250.879V78.1449H251.953V79.8371H256.397V80.8524H246.464ZM256.794 89.0192H246.082V88.0186H250.908V86.1204C249.711 86.0713 248.755 85.8702 248.039 85.5171C247.332 85.1541 246.979 84.6244 246.979 83.9278C246.979 83.1725 247.386 82.6133 248.201 82.2504C249.015 81.8874 250.094 81.7059 251.438 81.7059C252.772 81.7059 253.846 81.8874 254.66 82.2504C255.475 82.6133 255.882 83.1725 255.882 83.9278C255.882 84.6244 255.524 85.1541 254.808 85.5171C254.101 85.8702 253.155 86.0713 251.968 86.1204V88.0186H256.794V89.0192ZM248.068 83.9278C248.068 84.3595 248.372 84.6783 248.98 84.8843C249.598 85.0903 250.418 85.1933 251.438 85.1933C252.448 85.1933 253.258 85.0903 253.866 84.8843C254.484 84.6783 254.793 84.3595 254.793 83.9278C254.793 83.4864 254.484 83.1627 253.866 82.9567C253.258 82.7507 252.448 82.6477 251.438 82.6477C250.418 82.6477 249.598 82.7507 248.98 82.9567C248.372 83.1627 248.068 83.4864 248.068 83.9278ZM260.015 89.7991C259.544 89.0339 259.181 88.1559 258.926 87.1651C258.671 86.1645 258.544 85.0903 258.544 83.9426C258.544 82.7948 258.671 81.7206 258.926 80.72C259.181 79.7096 259.544 78.8316 260.015 78.086H260.898C260.407 78.9395 260.044 79.8469 259.809 80.8083C259.574 81.7697 259.456 82.8144 259.456 83.9426C259.456 85.0707 259.574 86.1155 259.809 87.0768C260.044 88.0382 260.407 88.9456 260.898 89.7991H260.015ZM270.851 78.292H271.91V86.709H270.851V82.0149H268.643V81.029H270.851V78.292ZM265.627 82.3828C265.274 83.1381 264.793 83.7464 264.185 84.2074C263.577 84.6685 262.875 84.9481 262.081 85.0462V84.0161C263.013 83.869 263.753 83.403 264.303 82.6182C264.862 81.8334 265.171 80.823 265.23 79.587H262.213V78.6158H269.085V79.587H266.289C266.26 80.2933 266.166 80.9064 266.009 81.4263L269.364 84.1339L268.761 84.9579L265.627 82.3828ZM272.16 89.4165H262.86V85.8996H263.935V88.4012H272.16V89.4165ZM284.225 89.0192H273.513V87.9744H278.31V85.2375H274.086V84.2221H276.043V79.8518H274.189V78.8218H283.533V79.8518H281.694V84.2221H283.651V85.2375H279.413V87.9744H284.225V89.0192ZM280.635 84.2221V79.8518H277.103V84.2221H280.635ZM295.878 84.487H285.165V83.5747H289.992V82.2798H285.974V78.4539H295.083V79.3662H287.034V81.3675H295.201V82.2798H291.051V83.5747H295.878V84.487ZM290.521 85.5318C291.914 85.5318 293.042 85.6936 293.906 86.0174C294.779 86.3313 295.215 86.8463 295.215 87.5624C295.215 88.2785 294.779 88.7985 293.906 89.1222C293.042 89.4459 291.914 89.6078 290.521 89.6078C289.128 89.6078 287.995 89.4459 287.122 89.1222C286.259 88.7985 285.827 88.2785 285.827 87.5624C285.827 86.8463 286.259 86.3313 287.122 86.0174C287.995 85.6936 289.128 85.5318 290.521 85.5318ZM290.521 88.7102C291.532 88.7102 292.38 88.6219 293.067 88.4453C293.754 88.2589 294.097 87.9646 294.097 87.5624C294.097 87.17 293.754 86.8855 293.067 86.709C292.38 86.5226 291.532 86.4294 290.521 86.4294C289.511 86.4294 288.657 86.5226 287.961 86.709C287.274 86.8855 286.931 87.17 286.931 87.5624C286.931 87.9646 287.274 88.2589 287.961 88.4453C288.648 88.6219 289.501 88.7102 290.521 88.7102ZM297.921 87.5624C298.157 87.5624 298.348 87.6409 298.495 87.7979C298.642 87.945 298.716 88.1314 298.716 88.357C298.716 88.4747 298.701 88.5925 298.672 88.7102C298.652 88.8279 298.603 88.9947 298.525 89.2105L297.892 91.2264H297.156L297.671 89.0928C297.504 89.0437 297.372 88.9554 297.274 88.8279C297.176 88.7004 297.127 88.5434 297.127 88.357C297.127 88.1314 297.2 87.945 297.348 87.7979C297.504 87.6409 297.696 87.5624 297.921 87.5624ZM309.937 89.5931H308.863V78.292H309.937V89.5931ZM304.463 79.7635C304.453 81.1173 304.341 82.3681 304.125 83.5158L307.701 88.1216L306.862 88.7838L303.786 84.7519C303.433 85.9683 302.953 86.9346 302.344 87.6507C301.736 88.357 301.03 88.769 300.225 88.8868V87.7831C300.873 87.6458 301.432 87.2191 301.903 86.503C302.374 85.777 302.737 84.8353 302.992 83.6777C303.247 82.5103 303.384 81.2056 303.404 79.7635H300.461V78.7335H307.318V79.7635H304.463ZM322.326 89.0192H311.613V87.9744H316.425V85.3846C315.571 85.3356 314.821 85.1639 314.174 84.8696C313.536 84.5655 313.04 84.1682 312.687 83.6777C312.344 83.1774 312.172 82.6084 312.172 81.9708C312.172 81.2841 312.368 80.6808 312.761 80.1608C313.163 79.6409 313.722 79.2387 314.438 78.9542C315.164 78.6697 316.008 78.5275 316.969 78.5275C317.931 78.5275 318.769 78.6697 319.486 78.9542C320.212 79.2387 320.771 79.6409 321.163 80.1608C321.565 80.6808 321.766 81.2841 321.766 81.9708C321.766 82.6084 321.59 83.1774 321.237 83.6777C320.893 84.1682 320.398 84.5655 319.75 84.8696C319.103 85.1639 318.353 85.3356 317.499 85.3846V87.9744H322.326V89.0192ZM313.276 81.9708C313.276 82.4515 313.428 82.8733 313.732 83.2362C314.036 83.5992 314.468 83.8837 315.027 84.0897C315.586 84.2859 316.234 84.384 316.969 84.384C317.705 84.384 318.353 84.2859 318.912 84.0897C319.471 83.8837 319.903 83.5992 320.207 83.2362C320.511 82.8733 320.663 82.4515 320.663 81.9708C320.663 81.4901 320.511 81.0683 320.207 80.7053C319.903 80.3325 319.471 80.048 318.912 79.8518C318.353 79.6458 317.705 79.5428 316.969 79.5428C316.234 79.5428 315.586 79.6458 315.027 79.8518C314.468 80.048 314.036 80.3325 313.732 80.7053C313.428 81.0683 313.276 81.4901 313.276 81.9708ZM323.899 82.2356V81.3822H325.87V79.3074H324.016V78.4539H333.228V79.3074H331.374V81.3822H333.331V82.2356H323.899ZM330.329 81.3822V79.3074H326.915V81.3822H330.329ZM333.978 84.1633H323.266V83.2804H333.978V84.1633ZM333.404 88.6513V89.4312H324.046V86.9444H332.183V85.9732H324.016V85.1933H333.213V87.6507H325.076V88.6513H333.404ZM345.189 89.5931H344.174V78.292H345.189V89.5931ZM342.6 78.3509V89.4018H341.584V84.075H340.157V83.0302H341.584V78.3509H342.6ZM337.273 87.9156C338.627 87.9156 339.706 87.7292 340.51 87.3564V88.357C339.755 88.7102 338.661 88.8868 337.229 88.8868H335.286V83.251H338.494V79.7047H335.286V78.7335H339.509V84.2221H336.287V87.9156H337.273ZM355.474 89.5931V78.292H356.548V89.5931H355.474ZM350.294 78.5863C351.275 78.5863 352.055 79.0278 352.634 79.9107C353.222 80.7936 353.516 82.0934 353.516 83.8101C353.516 85.5269 353.222 86.8267 352.634 87.7096C352.055 88.5925 351.275 89.0339 350.294 89.0339C349.313 89.0339 348.528 88.5925 347.94 87.7096C347.361 86.8267 347.071 85.5269 347.071 83.8101C347.071 82.0934 347.361 80.7936 347.94 79.9107C348.528 79.0278 349.313 78.5863 350.294 78.5863ZM350.294 79.6017C349.637 79.6017 349.112 79.9548 348.719 80.6611C348.327 81.3576 348.131 82.4073 348.131 83.8101C348.131 85.2228 348.327 86.2773 348.719 86.9738C349.112 87.6703 349.637 88.0186 350.294 88.0186C350.932 88.0186 351.451 87.6703 351.854 86.9738C352.256 86.2675 352.457 85.2129 352.457 83.8101C352.457 82.4171 352.256 81.3675 351.854 80.6611C351.451 79.9548 350.932 79.6017 350.294 79.6017ZM363.418 81.9413C362.8 82.9812 362.05 83.815 361.167 84.4429C360.294 85.0609 359.381 85.3699 358.43 85.3699V84.3104C359.205 84.3104 359.95 84.0407 360.666 83.5011C361.382 82.9616 361.996 82.2405 362.506 81.338C363.026 80.4257 363.384 79.43 363.58 78.3509L364.669 78.5716C364.512 79.4055 364.247 80.2344 363.874 81.0584L368.642 84.5312L368.068 85.3993L363.418 81.9413ZM368.936 87.9744V89.0192H358.224V87.9744H368.936ZM369.906 89.7991C370.396 88.9456 370.754 88.0382 370.98 87.0768C371.215 86.1155 371.333 85.0707 371.333 83.9426C371.333 82.8144 371.215 81.7697 370.98 80.8083C370.754 79.8469 370.396 78.9395 369.906 78.086H370.774C371.245 78.8316 371.603 79.7047 371.848 80.7053C372.103 81.7059 372.231 82.785 372.231 83.9426C372.231 85.0903 372.103 86.1645 371.848 87.1651C371.603 88.1559 371.245 89.0339 370.774 89.7991H369.906ZM10.7419 114.593H9.71183V108.972H7.68117V114.402H6.66584V103.351H7.68117V107.927H9.71183V103.292H10.7419V114.593ZM5.16493 103.733V106.706C5.16493 108.119 4.97854 109.364 4.60576 110.443C4.24279 111.523 3.72777 112.361 3.0607 112.96C2.39362 113.558 1.62354 113.857 0.750459 113.857V112.813C1.43715 112.803 2.03556 112.543 2.54568 112.033C3.05579 111.523 3.44819 110.816 3.72287 109.914C4.00735 109.001 4.1496 107.952 4.1496 106.765V104.749H0.750459V103.733H5.16493ZM21.026 111.694V103.292H22.1002V111.694H21.026ZM15.6404 103.424C16.3271 103.424 16.9255 103.567 17.4356 103.851C17.9457 104.126 18.3332 104.513 18.5981 105.014C18.8727 105.504 19.0101 106.063 19.0101 106.691C19.0101 107.319 18.8727 107.883 18.5981 108.383C18.3332 108.874 17.9457 109.261 17.4356 109.546C16.9255 109.821 16.3271 109.958 15.6404 109.958C14.9537 109.958 14.3553 109.821 13.8452 109.546C13.335 109.261 12.9426 108.874 12.668 108.383C12.3933 107.883 12.2559 107.319 12.2559 106.691C12.2559 106.063 12.3933 105.504 12.668 105.014C12.9426 104.513 13.335 104.126 13.8452 103.851C14.3553 103.567 14.9537 103.424 15.6404 103.424ZM15.6404 104.366C14.9439 104.366 14.3847 104.577 13.9629 104.999C13.541 105.421 13.3301 105.985 13.3301 106.691C13.3301 107.397 13.541 107.962 13.9629 108.383C14.3847 108.795 14.9439 109.001 15.6404 109.001C16.3369 109.001 16.896 108.795 17.3179 108.383C17.7397 107.962 17.9506 107.397 17.9506 106.691C17.9506 105.985 17.7397 105.421 17.3179 104.999C16.896 104.577 16.3369 104.366 15.6404 104.366ZM22.4092 113.401V114.417H13.1977V110.767H14.2719V113.401H22.4092ZM32.7669 103.292H33.8264V109.649H32.7669V106.47H30.5597V105.499H32.7669V103.292ZM27.5284 106.941C27.1753 107.589 26.6946 108.119 26.0864 108.531C25.4782 108.933 24.7817 109.183 23.9969 109.281V108.28C24.919 108.133 25.6498 107.736 26.1894 107.088C26.7388 106.431 27.0527 105.592 27.1311 104.572H24.1293V103.616H31.0012V104.572H28.2053C28.1759 105.112 28.0876 105.602 27.9405 106.044L31.3543 108.339L30.8099 109.178L27.5284 106.941ZM29.3237 110.061C30.7069 110.061 31.8154 110.247 32.6492 110.62C33.4929 110.983 33.9147 111.547 33.9147 112.312C33.9147 113.077 33.4929 113.646 32.6492 114.019C31.8154 114.382 30.7069 114.564 29.3237 114.564C27.9405 114.564 26.8319 114.382 25.9981 114.019C25.1643 113.646 24.7473 113.077 24.7473 112.312C24.7473 111.547 25.1643 110.983 25.9981 110.62C26.8319 110.247 27.9405 110.061 29.3237 110.061ZM29.3237 113.637C30.3537 113.637 31.1876 113.524 31.8252 113.298C32.4727 113.073 32.7964 112.744 32.7964 112.312C32.7964 111.881 32.4727 111.552 31.8252 111.326C31.1777 111.101 30.3439 110.988 29.3237 110.988C28.3034 110.988 27.4696 111.101 26.8221 111.326C26.1845 111.552 25.8657 111.881 25.8657 112.312C25.8657 112.744 26.1845 113.073 26.8221 113.298C27.4696 113.524 28.3034 113.637 29.3237 113.637ZM46.1412 114.019H35.4288V112.974H40.2406V110.252H36.1793V103.645H37.224V105.794H44.346V103.645H45.3908V110.252H41.3147V112.974H46.1412V114.019ZM44.346 109.252V106.794H37.224V109.252H44.346ZM52.846 107.795C52.2967 109.08 51.3844 109.825 50.1091 110.031V109.046C50.7958 108.889 51.3255 108.511 51.6983 107.913C52.0809 107.304 52.2918 106.485 52.331 105.455H50.2415V104.484H52.331V103.101H53.3758V104.484H55.4212V105.455H53.3758C53.366 105.877 53.3071 106.323 53.1992 106.794L55.686 109.252L55.0386 109.987L52.846 107.795ZM60.2623 110.399H59.247V107.059H57.3047V110.282H56.304V103.351H57.3047V106.014H59.247V103.292H60.2623V110.399ZM60.2623 111.062V114.564H59.2029V112.018H50.8743V111.062H60.2623ZM70.5465 109.443V103.292H71.6207V109.443H70.5465ZM65.1756 103.424C65.8525 103.424 66.441 103.547 66.9414 103.792C67.4515 104.028 67.839 104.361 68.1038 104.793C68.3785 105.225 68.5158 105.72 68.5158 106.279C68.5158 106.838 68.3785 107.334 68.1038 107.765C67.839 108.197 67.4515 108.535 66.9414 108.781C66.441 109.016 65.8525 109.134 65.1756 109.134C64.4987 109.134 63.9052 109.016 63.3951 108.781C62.8948 108.535 62.5073 108.197 62.2326 107.765C61.9677 107.334 61.8353 106.838 61.8353 106.279C61.8353 105.72 61.9677 105.225 62.2326 104.793C62.5073 104.361 62.8948 104.028 63.3951 103.792C63.9052 103.547 64.4987 103.424 65.1756 103.424ZM65.1756 104.352C64.4889 104.352 63.9346 104.523 63.5128 104.867C63.1008 105.21 62.8948 105.681 62.8948 106.279C62.8948 106.878 63.1008 107.348 63.5128 107.692C63.9346 108.035 64.4889 108.207 65.1756 108.207C65.8525 108.207 66.3969 108.035 66.8089 107.692C67.2307 107.348 67.4417 106.878 67.4417 106.279C67.4417 105.681 67.2307 105.21 66.8089 104.867C66.3969 104.523 65.8525 104.352 65.1756 104.352ZM62.7182 114.417V110.105H71.6207V114.417H62.7182ZM70.5465 111.062H63.7777V113.46H70.5465V111.062ZM84.5241 107.515H82.9937V111.886H81.9196V103.292H82.9937V106.47H84.5241V107.515ZM73.8411 104.484V103.498H79.8595V107.883H78.8V104.484H73.8411ZM80.9631 109.502C80.3254 109.806 79.0894 109.958 77.2549 109.958H73.2966V108.987H75.5333V106.176H76.5928V108.987H77.2991C79.0649 108.987 80.2862 108.835 80.9631 108.531V109.502ZM83.3175 113.445V114.417H74.0912V111.15H75.1507V113.445H83.3175ZM93.8518 114.593V103.292H94.926V114.593H93.8518ZM86.6562 109.222V112.871H89.9965C90.5066 112.871 91.0167 112.822 91.5268 112.724C92.0369 112.626 92.4539 112.494 92.7776 112.327V113.342C92.4539 113.519 92.0369 113.656 91.5268 113.754C91.0167 113.843 90.4968 113.887 89.967 113.887H85.5967V108.222H90.5704V104.749H85.582V103.733H91.6151V109.222H86.6562ZM106.27 109.031V114.593H105.21V103.292H106.27V107.971H107.829V109.031H106.27ZM100.928 104.764C100.908 106.186 100.801 107.442 100.604 108.531L104.121 113.136L103.282 113.784L100.266 109.796C99.9128 111.003 99.437 111.959 98.8386 112.665C98.2402 113.362 97.5437 113.769 96.7491 113.887V112.783C97.3867 112.646 97.9361 112.219 98.3971 111.503C98.8582 110.777 99.2114 109.835 99.4566 108.678C99.7117 107.52 99.849 106.215 99.8686 104.764H96.9845V103.733H103.739V104.764H100.928ZM112.268 106.603C112.042 106.603 111.851 106.529 111.694 106.382C111.547 106.225 111.473 106.029 111.473 105.794C111.473 105.568 111.547 105.382 111.694 105.234C111.851 105.077 112.042 104.999 112.268 104.999C112.494 104.999 112.68 105.077 112.827 105.234C112.984 105.382 113.063 105.568 113.063 105.794C113.063 106.029 112.984 106.225 112.827 106.382C112.68 106.529 112.494 106.603 112.268 106.603ZM112.268 112.871C112.042 112.871 111.851 112.798 111.694 112.651C111.547 112.494 111.473 112.302 111.473 112.077C111.473 111.841 111.547 111.65 111.694 111.503C111.851 111.356 112.042 111.282 112.268 111.282C112.494 111.282 112.68 111.356 112.827 111.503C112.984 111.65 113.063 111.841 113.063 112.077C113.063 112.302 112.984 112.494 112.827 112.651C112.68 112.798 112.494 112.871 112.268 112.871ZM122.573 108.074C121.2 108.074 120.067 107.873 119.174 107.471C118.281 107.059 117.835 106.456 117.835 105.661C117.835 104.876 118.281 104.278 119.174 103.866C120.077 103.444 121.21 103.233 122.573 103.233C123.927 103.233 125.05 103.444 125.943 103.866C126.846 104.278 127.297 104.876 127.297 105.661C127.297 106.456 126.85 107.059 125.958 107.471C125.065 107.873 123.937 108.074 122.573 108.074ZM122.573 104.16C121.553 104.16 120.695 104.293 119.998 104.558C119.302 104.822 118.953 105.19 118.953 105.661C118.953 106.142 119.302 106.515 119.998 106.779C120.695 107.035 121.553 107.162 122.573 107.162C123.594 107.162 124.447 107.035 125.134 106.779C125.83 106.515 126.178 106.142 126.178 105.661C126.178 105.19 125.83 104.822 125.134 104.558C124.437 104.293 123.584 104.16 122.573 104.16ZM127.93 110.031H125.237V112.15H124.163V110.031H122.014V112.15H120.955V110.031H117.217V109.09H127.93V110.031ZM127.356 113.475V114.431H117.982V111.238H119.042V113.475H127.356ZM135.138 106.264V105.264H137.861V103.292H138.92V109.649H137.861V106.264H135.138ZM132.431 106.868C132.058 107.545 131.572 108.104 130.974 108.545C130.376 108.987 129.689 109.266 128.914 109.384V108.369C129.591 108.231 130.174 107.927 130.665 107.456C131.165 106.976 131.543 106.387 131.798 105.691C132.063 104.984 132.2 104.224 132.21 103.41L133.27 103.469C133.27 104.371 133.137 105.2 132.872 105.955L136.212 108.369L135.624 109.163L132.431 106.868ZM134.417 110.061C135.8 110.061 136.909 110.247 137.743 110.62C138.586 110.983 139.008 111.547 139.008 112.312C139.008 113.077 138.586 113.646 137.743 114.019C136.909 114.382 135.8 114.564 134.417 114.564C133.034 114.564 131.926 114.382 131.092 114.019C130.258 113.646 129.841 113.077 129.841 112.312C129.841 111.547 130.258 110.983 131.092 110.62C131.926 110.247 133.034 110.061 134.417 110.061ZM134.417 113.637C135.447 113.637 136.281 113.524 136.919 113.298C137.566 113.073 137.89 112.744 137.89 112.312C137.89 111.881 137.566 111.552 136.919 111.326C136.271 111.101 135.438 110.988 134.417 110.988C133.397 110.988 132.563 111.101 131.916 111.326C131.278 111.552 130.959 111.881 130.959 112.312C130.959 112.744 131.278 113.073 131.916 113.298C132.563 113.524 133.397 113.637 134.417 113.637ZM140.964 104.925V104.043H145.319V102.836H146.394V104.043H150.793V104.925H140.964ZM141.391 107.353C141.391 106.775 141.793 106.338 142.597 106.044C143.411 105.749 144.505 105.602 145.879 105.602C147.242 105.602 148.326 105.749 149.131 106.044C149.935 106.338 150.337 106.775 150.337 107.353C150.337 107.932 149.935 108.369 149.131 108.663C148.326 108.957 147.242 109.104 145.879 109.104C144.505 109.104 143.411 108.957 142.597 108.663C141.793 108.369 141.391 107.932 141.391 107.353ZM149.278 107.353C149.278 107.049 148.964 106.819 148.336 106.662C147.708 106.495 146.889 106.412 145.879 106.412C144.868 106.412 144.049 106.495 143.421 106.662C142.793 106.819 142.479 107.049 142.479 107.353C142.479 107.657 142.793 107.893 143.421 108.06C144.049 108.217 144.868 108.295 145.879 108.295C146.889 108.295 147.708 108.217 148.336 108.06C148.964 107.893 149.278 107.657 149.278 107.353ZM151.235 110.797H146.408V112.312H145.349V110.797H140.522V109.899H151.235V110.797ZM150.661 113.504V114.431H141.302V111.753H142.376V113.504H150.661ZM154.456 114.799C153.985 114.034 153.622 113.156 153.367 112.165C153.112 111.165 152.984 110.09 152.984 108.943C152.984 107.795 153.112 106.721 153.367 105.72C153.622 104.71 153.985 103.832 154.456 103.086H155.339C154.848 103.94 154.485 104.847 154.25 105.808C154.014 106.77 153.897 107.814 153.897 108.943C153.897 110.071 154.014 111.115 154.25 112.077C154.485 113.038 154.848 113.946 155.339 114.799H154.456ZM160.921 106.279C161.598 106.279 162.211 106.446 162.761 106.779C163.31 107.113 163.741 107.579 164.055 108.177C164.379 108.776 164.541 109.458 164.541 110.223C164.541 110.988 164.379 111.67 164.055 112.268C163.741 112.867 163.31 113.333 162.761 113.666C162.211 114 161.598 114.166 160.921 114.166C160.283 114.166 159.715 114.014 159.214 113.71C158.714 113.396 158.326 112.96 158.052 112.401V114.093H157.051V103.174H158.096V108.001C158.371 107.461 158.753 107.039 159.244 106.735C159.744 106.431 160.303 106.279 160.921 106.279ZM160.789 113.239C161.299 113.239 161.76 113.117 162.172 112.871C162.584 112.616 162.908 112.258 163.143 111.797C163.379 111.336 163.496 110.811 163.496 110.223C163.496 109.634 163.379 109.114 163.143 108.663C162.908 108.202 162.584 107.849 162.172 107.604C161.76 107.348 161.299 107.221 160.789 107.221C160.279 107.221 159.818 107.348 159.406 107.604C158.993 107.849 158.67 108.202 158.434 108.663C158.199 109.114 158.081 109.634 158.081 110.223C158.081 110.811 158.199 111.336 158.434 111.797C158.67 112.258 158.993 112.616 159.406 112.871C159.818 113.117 160.279 113.239 160.789 113.239ZM168.851 106.279C169.812 106.279 170.548 106.534 171.058 107.044C171.578 107.554 171.838 108.305 171.838 109.296V114.093H170.867V112.739C170.641 113.19 170.308 113.543 169.866 113.798C169.435 114.044 168.915 114.166 168.307 114.166C167.473 114.166 166.815 113.96 166.335 113.548C165.864 113.136 165.628 112.597 165.628 111.93C165.628 111.272 165.854 110.748 166.305 110.355C166.766 109.953 167.487 109.752 168.468 109.752H170.808C170.808 109.438 170.788 109.178 170.749 108.972C170.7 108.383 170.504 107.942 170.161 107.648C169.827 107.344 169.351 107.191 168.733 107.191C168.262 107.191 167.811 107.275 167.38 107.442C166.958 107.608 166.595 107.834 166.291 108.119L165.864 107.353C166.237 107.01 166.683 106.745 167.203 106.559C167.733 106.372 168.282 106.279 168.851 106.279ZM168.498 113.372C169.067 113.372 169.543 113.239 169.925 112.974C170.318 112.7 170.612 112.302 170.808 111.783V110.458H168.542C167.875 110.458 167.389 110.586 167.085 110.841C166.791 111.096 166.644 111.439 166.644 111.871C166.644 112.332 166.806 112.7 167.129 112.974C167.463 113.239 167.919 113.372 168.498 113.372ZM177.406 114.196C176.612 114.196 175.901 113.985 175.273 113.563C174.645 113.131 174.154 112.518 173.801 111.724C173.458 110.929 173.286 110.002 173.286 108.943C173.286 107.883 173.458 106.956 173.801 106.161C174.154 105.367 174.645 104.759 175.273 104.337C175.901 103.905 176.612 103.689 177.406 103.689C178.211 103.689 178.922 103.905 179.54 104.337C180.168 104.759 180.653 105.367 180.997 106.161C181.35 106.946 181.527 107.873 181.527 108.943C181.527 110.012 181.35 110.944 180.997 111.738C180.653 112.523 180.168 113.131 179.54 113.563C178.922 113.985 178.211 114.196 177.406 114.196ZM177.406 113.21C178.005 113.21 178.53 113.043 178.981 112.71C179.432 112.376 179.78 111.89 180.026 111.253C180.281 110.615 180.408 109.845 180.408 108.943C180.408 108.04 180.281 107.27 180.026 106.632C179.78 105.995 179.432 105.509 178.981 105.176C178.53 104.842 178.005 104.675 177.406 104.675C176.818 104.675 176.298 104.842 175.847 105.176C175.395 105.509 175.042 105.995 174.787 106.632C174.542 107.27 174.419 108.04 174.419 108.943C174.419 109.845 174.542 110.615 174.787 111.253C175.042 111.89 175.395 112.376 175.847 112.71C176.298 113.043 176.818 113.21 177.406 113.21ZM186.24 114.196C185.445 114.196 184.734 113.985 184.106 113.563C183.478 113.131 182.988 112.518 182.634 111.724C182.291 110.929 182.119 110.002 182.119 108.943C182.119 107.883 182.291 106.956 182.634 106.161C182.988 105.367 183.478 104.759 184.106 104.337C184.734 103.905 185.445 103.689 186.24 103.689C187.044 103.689 187.755 103.905 188.373 104.337C189.001 104.759 189.487 105.367 189.83 106.161C190.183 106.946 190.36 107.873 190.36 108.943C190.36 110.012 190.183 110.944 189.83 111.738C189.487 112.523 189.001 113.131 188.373 113.563C187.755 113.985 187.044 114.196 186.24 114.196ZM186.24 113.21C186.838 113.21 187.363 113.043 187.814 112.71C188.265 112.376 188.614 111.89 188.859 111.253C189.114 110.615 189.241 109.845 189.241 108.943C189.241 108.04 189.114 107.27 188.859 106.632C188.614 105.995 188.265 105.509 187.814 105.176C187.363 104.842 186.838 104.675 186.24 104.675C185.651 104.675 185.131 104.842 184.68 105.176C184.229 105.509 183.875 105.995 183.62 106.632C183.375 107.27 183.252 108.04 183.252 108.943C183.252 109.845 183.375 110.615 183.62 111.253C183.875 111.89 184.229 112.376 184.68 112.71C185.131 113.043 185.651 113.21 186.24 113.21ZM196.073 114.093H194.955V104.734H192.542V103.792H196.073V114.093ZM203.479 103.689C204.843 103.689 205.888 104.141 206.614 105.043C207.349 105.946 207.717 107.216 207.717 108.854C207.717 110.002 207.521 110.978 207.129 111.783C206.736 112.577 206.187 113.18 205.481 113.592C204.774 113.995 203.945 114.196 202.994 114.196C201.974 114.196 201.154 114 200.536 113.607L200.978 112.768C201.468 113.082 202.135 113.239 202.979 113.239C204.039 113.239 204.882 112.916 205.51 112.268C206.148 111.611 206.491 110.659 206.54 109.413C206.55 109.315 206.555 109.158 206.555 108.943C206.555 108.619 206.535 108.32 206.496 108.045C206.29 108.643 205.907 109.114 205.348 109.458C204.789 109.791 204.142 109.958 203.406 109.958C202.729 109.958 202.126 109.83 201.596 109.575C201.076 109.32 200.669 108.962 200.375 108.501C200.09 108.04 199.948 107.501 199.948 106.882C199.948 106.245 200.1 105.686 200.404 105.205C200.708 104.724 201.13 104.352 201.669 104.087C202.209 103.822 202.812 103.689 203.479 103.689ZM203.612 109.075C204.112 109.075 204.558 108.977 204.951 108.781C205.353 108.585 205.662 108.315 205.878 107.971C206.103 107.618 206.216 107.231 206.216 106.809C206.216 106.417 206.108 106.054 205.893 105.72C205.687 105.377 205.382 105.102 204.98 104.896C204.578 104.69 204.092 104.587 203.523 104.587C202.788 104.587 202.189 104.793 201.728 105.205C201.277 105.607 201.051 106.147 201.051 106.824C201.051 107.51 201.277 108.06 201.728 108.472C202.189 108.874 202.817 109.075 203.612 109.075ZM212.313 103.689C213.676 103.689 214.721 104.141 215.447 105.043C216.183 105.946 216.55 107.216 216.55 108.854C216.55 110.002 216.354 110.978 215.962 111.783C215.569 112.577 215.02 113.18 214.314 113.592C213.608 113.995 212.779 114.196 211.827 114.196C210.807 114.196 209.988 114 209.37 113.607L209.811 112.768C210.302 113.082 210.969 113.239 211.812 113.239C212.872 113.239 213.715 112.916 214.343 112.268C214.981 111.611 215.324 110.659 215.373 109.413C215.383 109.315 215.388 109.158 215.388 108.943C215.388 108.619 215.368 108.32 215.329 108.045C215.123 108.643 214.741 109.114 214.181 109.458C213.622 109.791 212.975 109.958 212.239 109.958C211.562 109.958 210.959 109.83 210.429 109.575C209.909 109.32 209.502 108.962 209.208 108.501C208.923 108.04 208.781 107.501 208.781 106.882C208.781 106.245 208.933 105.686 209.237 105.205C209.541 104.724 209.963 104.352 210.503 104.087C211.042 103.822 211.646 103.689 212.313 103.689ZM212.445 109.075C212.945 109.075 213.392 108.977 213.784 108.781C214.186 108.585 214.495 108.315 214.711 107.971C214.937 107.618 215.05 107.231 215.05 106.809C215.05 106.417 214.942 106.054 214.726 105.72C214.52 105.377 214.216 105.102 213.814 104.896C213.411 104.69 212.926 104.587 212.357 104.587C211.621 104.587 211.023 104.793 210.562 105.205C210.11 105.607 209.885 106.147 209.885 106.824C209.885 107.51 210.11 108.06 210.562 108.472C211.023 108.874 211.65 109.075 212.445 109.075ZM224.81 103.704C226.124 103.704 227.297 103.979 228.327 104.528C229.357 105.077 230.161 105.843 230.74 106.824C231.319 107.805 231.608 108.928 231.608 110.193C231.608 111.439 231.387 112.41 230.946 113.107C230.504 113.803 229.916 114.152 229.18 114.152C228.739 114.152 228.376 114.039 228.091 113.813C227.807 113.578 227.635 113.254 227.576 112.842L227.547 112.298C227.272 112.886 226.87 113.342 226.34 113.666C225.82 113.99 225.212 114.152 224.516 114.152C223.848 114.152 223.24 113.99 222.691 113.666C222.151 113.342 221.725 112.896 221.411 112.327C221.097 111.748 220.94 111.091 220.94 110.355C220.94 109.629 221.097 108.982 221.411 108.413C221.725 107.834 222.151 107.383 222.691 107.059C223.24 106.735 223.848 106.573 224.516 106.573C225.173 106.573 225.756 106.726 226.267 107.03C226.787 107.334 227.184 107.76 227.459 108.31V106.647H228.43V112.239C228.43 112.611 228.513 112.891 228.68 113.077C228.847 113.254 229.067 113.342 229.342 113.342C229.793 113.342 230.156 113.073 230.431 112.533C230.706 111.984 230.843 111.209 230.843 110.208C230.843 109.07 230.588 108.065 230.078 107.191C229.568 106.318 228.856 105.642 227.944 105.161C227.032 104.68 225.987 104.44 224.81 104.44C223.623 104.44 222.568 104.69 221.646 105.19C220.734 105.691 220.023 106.387 219.512 107.28C219.002 108.172 218.747 109.198 218.747 110.355C218.747 111.513 218.997 112.543 219.498 113.445C220.008 114.338 220.714 115.035 221.617 115.535C222.529 116.045 223.574 116.3 224.751 116.3C225.212 116.3 225.693 116.246 226.193 116.138C226.693 116.03 227.15 115.868 227.562 115.653L227.826 116.359C227.405 116.584 226.914 116.756 226.355 116.874C225.806 116.992 225.271 117.05 224.751 117.05C223.417 117.05 222.23 116.761 221.19 116.182C220.15 115.613 219.341 114.824 218.762 113.813C218.193 112.793 217.909 111.64 217.909 110.355C217.909 109.06 218.198 107.913 218.777 106.912C219.365 105.901 220.18 105.117 221.219 104.558C222.269 103.989 223.466 103.704 224.81 103.704ZM224.692 113.313C225.222 113.313 225.698 113.19 226.119 112.945C226.541 112.7 226.87 112.352 227.105 111.9C227.351 111.449 227.473 110.934 227.473 110.355C227.473 109.776 227.351 109.266 227.105 108.825C226.87 108.383 226.541 108.04 226.119 107.795C225.698 107.55 225.222 107.427 224.692 107.427C224.162 107.427 223.687 107.55 223.265 107.795C222.853 108.04 222.524 108.383 222.279 108.825C222.043 109.266 221.926 109.776 221.926 110.355C221.926 110.934 222.043 111.449 222.279 111.9C222.524 112.342 222.853 112.69 223.265 112.945C223.687 113.19 224.162 113.313 224.692 113.313ZM237.24 106.279C238.152 106.279 238.878 106.564 239.418 107.133C239.957 107.692 240.227 108.511 240.227 109.59V114.093H239.182V109.722C239.182 108.918 238.991 108.305 238.608 107.883C238.235 107.461 237.701 107.25 237.004 107.25C236.229 107.25 235.611 107.501 235.15 108.001C234.699 108.491 234.473 109.173 234.473 110.046V114.093H233.429V106.367H234.429V107.913C234.684 107.402 235.052 107.005 235.533 106.721C236.023 106.426 236.592 106.279 237.24 106.279ZM244.819 106.279C245.781 106.279 246.517 106.534 247.027 107.044C247.547 107.554 247.807 108.305 247.807 109.296V114.093H246.835V112.739C246.61 113.19 246.276 113.543 245.835 113.798C245.403 114.044 244.883 114.166 244.275 114.166C243.441 114.166 242.784 113.96 242.303 113.548C241.832 113.136 241.597 112.597 241.597 111.93C241.597 111.272 241.823 110.748 242.274 110.355C242.735 109.953 243.456 109.752 244.437 109.752H246.777C246.777 109.438 246.757 109.178 246.718 108.972C246.669 108.383 246.472 107.942 246.129 107.648C245.796 107.344 245.32 107.191 244.702 107.191C244.231 107.191 243.78 107.275 243.348 107.442C242.926 107.608 242.563 107.834 242.259 108.119L241.832 107.353C242.205 107.01 242.651 106.745 243.171 106.559C243.701 106.372 244.251 106.279 244.819 106.279ZM244.466 113.372C245.035 113.372 245.511 113.239 245.894 112.974C246.286 112.7 246.58 112.302 246.777 111.783V110.458H244.51C243.843 110.458 243.358 110.586 243.054 110.841C242.759 111.096 242.612 111.439 242.612 111.871C242.612 112.332 242.774 112.7 243.098 112.974C243.431 113.239 243.888 113.372 244.466 113.372ZM252.842 114.093H251.782L248.53 106.367H249.605L252.342 112.886L255.079 106.367H256.109L252.842 114.093ZM263.622 110.488H257.486C257.515 111.027 257.652 111.508 257.898 111.93C258.153 112.352 258.491 112.68 258.913 112.916C259.345 113.141 259.825 113.254 260.355 113.254C260.816 113.254 261.238 113.171 261.621 113.004C262.003 112.837 262.327 112.582 262.592 112.239L263.18 112.901C262.847 113.313 262.435 113.627 261.944 113.843C261.454 114.058 260.919 114.166 260.34 114.166C259.585 114.166 258.913 114 258.324 113.666C257.736 113.323 257.275 112.852 256.941 112.253C256.618 111.655 256.456 110.978 256.456 110.223C256.456 109.467 256.613 108.791 256.927 108.192C257.24 107.594 257.672 107.128 258.221 106.794C258.771 106.451 259.384 106.279 260.061 106.279C260.738 106.279 261.346 106.446 261.885 106.779C262.435 107.103 262.862 107.564 263.166 108.163C263.48 108.751 263.637 109.428 263.637 110.193L263.622 110.488ZM260.076 107.162C259.359 107.162 258.761 107.407 258.28 107.898C257.809 108.378 257.545 109.006 257.486 109.781H262.665C262.597 109.016 262.322 108.388 261.841 107.898C261.37 107.407 260.782 107.162 260.076 107.162ZM266.34 107.942C266.565 107.412 266.909 107.005 267.37 106.721C267.841 106.426 268.41 106.279 269.077 106.279V107.309H268.827C268.061 107.309 267.463 107.554 267.031 108.045C266.6 108.535 266.384 109.232 266.384 110.134V114.093H265.339V106.367H266.34V107.942ZM270.426 114.166C270.2 114.166 270.009 114.093 269.852 113.946C269.705 113.789 269.631 113.592 269.631 113.357C269.631 113.131 269.705 112.945 269.852 112.798C270.009 112.641 270.2 112.562 270.426 112.562C270.651 112.562 270.838 112.641 270.985 112.798C271.142 112.945 271.22 113.131 271.22 113.357C271.22 113.592 271.142 113.789 270.985 113.946C270.838 114.093 270.651 114.166 270.426 114.166ZM276.291 114.166C275.565 114.166 274.913 114 274.334 113.666C273.755 113.333 273.299 112.867 272.965 112.268C272.642 111.66 272.48 110.978 272.48 110.223C272.48 109.467 272.642 108.791 272.965 108.192C273.299 107.584 273.755 107.113 274.334 106.779C274.913 106.446 275.565 106.279 276.291 106.279C276.919 106.279 277.483 106.412 277.983 106.676C278.493 106.941 278.895 107.324 279.19 107.824L278.395 108.354C278.15 107.971 277.846 107.687 277.483 107.501C277.12 107.314 276.718 107.221 276.276 107.221C275.756 107.221 275.285 107.348 274.863 107.604C274.451 107.849 274.123 108.202 273.878 108.663C273.642 109.114 273.524 109.634 273.524 110.223C273.524 110.821 273.642 111.351 273.878 111.812C274.123 112.263 274.451 112.616 274.863 112.871C275.285 113.117 275.756 113.239 276.276 113.239C276.718 113.239 277.12 113.146 277.483 112.96C277.846 112.773 278.15 112.489 278.395 112.106L279.19 112.621C278.895 113.122 278.493 113.504 277.983 113.769C277.483 114.034 276.919 114.166 276.291 114.166ZM283.825 114.166C283.109 114.166 282.462 114 281.883 113.666C281.314 113.323 280.868 112.852 280.544 112.253C280.22 111.655 280.058 110.978 280.058 110.223C280.058 109.467 280.22 108.791 280.544 108.192C280.868 107.594 281.314 107.128 281.883 106.794C282.462 106.451 283.109 106.279 283.825 106.279C284.532 106.279 285.169 106.451 285.738 106.794C286.307 107.128 286.754 107.594 287.077 108.192C287.401 108.791 287.563 109.467 287.563 110.223C287.563 110.978 287.401 111.655 287.077 112.253C286.754 112.852 286.307 113.323 285.738 113.666C285.169 114 284.532 114.166 283.825 114.166ZM283.825 113.239C284.336 113.239 284.797 113.117 285.209 112.871C285.621 112.616 285.944 112.258 286.18 111.797C286.415 111.336 286.533 110.811 286.533 110.223C286.533 109.634 286.415 109.114 286.18 108.663C285.944 108.202 285.621 107.849 285.209 107.604C284.797 107.348 284.336 107.221 283.825 107.221C283.305 107.221 282.839 107.348 282.427 107.604C282.015 107.849 281.692 108.202 281.456 108.663C281.221 109.114 281.103 109.634 281.103 110.223C281.103 110.811 281.221 111.336 281.456 111.797C281.692 112.258 282.015 112.616 282.427 112.871C282.839 113.117 283.305 113.239 283.825 113.239ZM298.344 106.279C299.247 106.279 299.958 106.564 300.478 107.133C301.008 107.692 301.273 108.511 301.273 109.59V114.093H300.243V109.722C300.243 108.918 300.061 108.305 299.698 107.883C299.335 107.461 298.82 107.25 298.153 107.25C297.407 107.25 296.814 107.501 296.373 108.001C295.931 108.491 295.71 109.163 295.71 110.017V114.093H294.68V109.722C294.68 108.918 294.499 108.305 294.136 107.883C293.773 107.461 293.263 107.25 292.606 107.25C291.85 107.25 291.252 107.501 290.81 108.001C290.379 108.491 290.163 109.163 290.163 110.017V114.093H289.118V106.367H290.119V107.898C290.354 107.388 290.707 106.99 291.178 106.706C291.649 106.421 292.198 106.279 292.826 106.279C293.474 106.279 294.023 106.436 294.474 106.75C294.935 107.054 295.264 107.505 295.46 108.104C295.696 107.545 296.064 107.103 296.564 106.779C297.074 106.446 297.667 106.279 298.344 106.279ZM302.835 114.799C303.326 113.946 303.684 113.038 303.909 112.077C304.145 111.115 304.263 110.071 304.263 108.943C304.263 107.814 304.145 106.77 303.909 105.808C303.684 104.847 303.326 103.94 302.835 103.086H303.703C304.174 103.832 304.532 104.705 304.778 105.705C305.033 106.706 305.16 107.785 305.16 108.943C305.16 110.09 305.033 111.165 304.778 112.165C304.532 113.156 304.174 114.034 303.703 114.799H302.835ZM1.14776 130.764V129.719H10.4329V137.179H9.34395V130.764H1.14776ZM11.1833 140.019H0.470876V138.974H4.57633V133.795H5.66523V138.974H11.1833V140.019ZM22.3945 136.267H21.3645V132.985H19.3632V136.149H18.3479V129.351H19.3632V131.941H21.3645V129.292H22.3945V136.267ZM16.9794 131.44C16.9794 132.353 16.7783 133.138 16.3761 133.795C15.9837 134.452 15.4393 134.957 14.7428 135.31C14.0561 135.654 13.2762 135.83 12.4031 135.84V134.854C13.0996 134.844 13.7127 134.707 14.2425 134.442C14.782 134.177 15.1989 133.795 15.4932 133.294C15.7973 132.784 15.9494 132.181 15.9494 131.485V130.558H12.4031V129.601H16.9794V131.44ZM22.3945 136.929V140.564H21.335V137.9H13.0064V136.929H22.3945ZM33.0318 137.797V129.292H34.0471V137.797H33.0318ZM28.3819 132.529V131.499H30.3831V129.351H31.3985V137.591H30.3831V132.529H28.3819ZM26.5278 133.604C25.9589 135.036 25.0465 135.889 23.7909 136.164V135.119C24.6443 134.854 25.2575 134.217 25.6302 133.206C26.003 132.196 26.1894 130.935 26.1894 129.424L27.2194 129.454C27.2194 130.661 27.1115 131.691 26.8957 132.544L29.5444 135.31L28.8381 136.046L26.5278 133.604ZM34.3414 140.417H24.7473V136.959H25.8362V139.401H34.3414V140.417ZM45.4791 140.593H44.4196V135.031H42.3301V133.986H44.4196V129.292H45.4791V140.593ZM40.1376 138.857C40.6477 138.857 41.1578 138.808 41.6679 138.71C42.178 138.611 42.5949 138.479 42.9187 138.312V139.342C42.5949 139.519 42.1829 139.656 41.6826 139.754C41.1823 139.843 40.6673 139.887 40.1376 139.887H36.0321V129.733H42.1682V130.764H37.0916V134.207H41.5502V135.222H37.0916V138.857H40.1376ZM51.095 132.603C50.8693 132.603 50.6781 132.529 50.5211 132.382C50.3739 132.225 50.3004 132.029 50.3004 131.794C50.3004 131.568 50.3739 131.382 50.5211 131.234C50.6781 131.077 50.8693 130.999 51.095 130.999C51.3206 130.999 51.507 131.077 51.6541 131.234C51.8111 131.382 51.8896 131.568 51.8896 131.794C51.8896 132.029 51.8111 132.225 51.6541 132.382C51.507 132.529 51.3206 132.603 51.095 132.603ZM51.095 138.871C50.8693 138.871 50.6781 138.798 50.5211 138.651C50.3739 138.494 50.3004 138.302 50.3004 138.077C50.3004 137.841 50.3739 137.65 50.5211 137.503C50.6781 137.356 50.8693 137.282 51.095 137.282C51.3206 137.282 51.507 137.356 51.6541 137.503C51.8111 137.65 51.8896 137.841 51.8896 138.077C51.8896 138.302 51.8111 138.494 51.6541 138.651C51.507 138.798 51.3206 138.871 51.095 138.871ZM60.9882 140.093H59.8699V130.734H57.4566V129.792H60.9882V140.093ZM68.1587 134.016C71.0134 134.016 72.4407 135.036 72.4407 137.076C72.4407 137.665 72.2985 138.195 72.014 138.665C71.7393 139.136 71.3175 139.509 70.7485 139.784C70.1893 140.058 69.4977 140.196 68.6737 140.196C67.9379 140.196 67.2365 140.078 66.5695 139.843C65.9024 139.597 65.3776 139.274 64.995 138.871L65.4953 138.033C65.8288 138.386 66.2752 138.675 66.8343 138.901C67.4033 139.117 68.0115 139.225 68.659 139.225C69.5026 139.225 70.1501 139.033 70.6013 138.651C71.0624 138.258 71.2929 137.738 71.2929 137.091C71.2929 136.385 71.0379 135.855 70.5278 135.502C70.0176 135.139 69.1446 134.957 67.9085 134.957H65.7013L66.231 129.792H71.8668V130.734H67.1728L66.8196 134.016H68.1587ZM76.9919 134.016C79.8466 134.016 81.2739 135.036 81.2739 137.076C81.2739 137.665 81.1317 138.195 80.8472 138.665C80.5725 139.136 80.1507 139.509 79.5817 139.784C79.0226 140.058 78.331 140.196 77.5069 140.196C76.7712 140.196 76.0698 140.078 75.4027 139.843C74.7356 139.597 74.2108 139.274 73.8282 138.871L74.3285 138.033C74.662 138.386 75.1084 138.675 75.6676 138.901C76.2365 139.117 76.8448 139.225 77.4922 139.225C78.3359 139.225 78.9833 139.033 79.4346 138.651C79.8956 138.258 80.1262 137.738 80.1262 137.091C80.1262 136.385 79.8711 135.855 79.361 135.502C78.8509 135.139 77.9778 134.957 76.7418 134.957H74.5345L75.0643 129.792H80.7001V130.734H76.006L75.6529 134.016H76.9919ZM87.4879 140.093H86.3696V130.734H83.9564V129.792H87.4879V140.093ZM95.659 134.486V135.399H91.789V134.486H95.659ZM101.701 140.093H100.583V130.734H98.1697V129.792H101.701V140.093ZM108.872 134.016C111.726 134.016 113.154 135.036 113.154 137.076C113.154 137.665 113.012 138.195 112.727 138.665C112.452 139.136 112.031 139.509 111.462 139.784C110.902 140.058 110.211 140.196 109.387 140.196C108.651 140.196 107.95 140.078 107.283 139.843C106.615 139.597 106.091 139.274 105.708 138.871L106.208 138.033C106.542 138.386 106.988 138.675 107.547 138.901C108.116 139.117 108.725 139.225 109.372 139.225C110.216 139.225 110.863 139.033 111.314 138.651C111.776 138.258 112.006 137.738 112.006 137.091C112.006 136.385 111.751 135.855 111.241 135.502C110.731 135.139 109.858 134.957 108.622 134.957H106.414L106.944 129.792H112.58V130.734H107.886L107.533 134.016H108.872ZM118.47 134.222C119.549 134.271 120.373 134.56 120.942 135.09C121.511 135.61 121.796 136.291 121.796 137.135C121.796 137.724 121.654 138.249 121.369 138.71C121.085 139.171 120.663 139.534 120.104 139.798C119.544 140.063 118.863 140.196 118.058 140.196C117.313 140.196 116.606 140.078 115.939 139.843C115.282 139.597 114.757 139.274 114.365 138.871L114.85 138.033C115.194 138.386 115.645 138.675 116.204 138.901C116.773 139.117 117.381 139.225 118.029 139.225C118.882 139.225 119.535 139.038 119.986 138.665C120.447 138.293 120.677 137.783 120.677 137.135C120.677 136.488 120.447 135.982 119.986 135.619C119.535 135.256 118.843 135.075 117.911 135.075H117.175V134.325L120.015 130.734H114.762V129.792H121.384V130.543L118.47 134.222ZM128.201 140.093H127.083V130.734H124.669V129.792H128.201V140.093Z" fill="white"/>
</svg>
