<svg width="769" height="316" viewBox="0 0 769 316" fill="none" xmlns="http://www.w3.org/2000/svg">
<path d="M19.9826 20.4249V24.7316C19.9826 31.5913 16.5618 36.1224 9.90091 36.1224C3.24004 36.1224 0 31.5913 0 24.7316V11.475C0 4.57317 3.32348 0 9.90091 0C16.4783 0 19.9826 4.58719 19.9826 11.475V15.4169M14.17 11.489C14.17 7.04212 12.4596 5.1343 9.90091 5.1343C7.4674 5.1343 5.7153 7.04212 5.7153 11.489V24.7456C5.7153 29.1925 7.42568 31.1003 9.90091 31.1003C12.3761 31.1003 14.17 29.1925 14.17 24.7456V11.489Z" fill="white"/>
<path d="M50.6068 24.594V20.4545H38.374C37.1368 20.4545 36.1221 19.4268 36.1221 18.1422C36.1221 16.8718 37.1229 15.8298 38.374 15.8298H68.4554C69.6926 15.8298 70.7073 16.8575 70.7073 18.1422C70.7073 19.4125 69.7065 20.4545 68.4554 20.4545H56.4034V24.594M59.0584 0C66.3008 0 69.1782 2.86907 69.1782 6.97996C69.1782 11.0908 66.3008 13.9028 59.0584 13.9028H48.1741C40.9735 13.9028 38.096 11.0338 38.096 6.97996C38.096 2.92616 40.9735 0 48.1741 0H59.0584ZM59.3226 9.37797C62.339 9.37797 63.1453 8.22179 63.1453 6.97996C63.1453 5.73813 62.339 4.62476 59.3226 4.62476H47.9517C44.8518 4.62476 44.0873 5.73813 44.0873 6.97996C44.0873 8.22179 44.8518 9.37797 47.9517 9.37797H59.3226Z" fill="white"/>
<path d="M79.5601 13.7037V15.9003C79.5601 16.1696 79.602 16.4105 79.7834 16.6797L80.2858 17.1332C80.5091 17.3174 80.6905 17.4025 80.9138 17.4025H93.4604C94.8002 17.4025 95.9027 18.5078 95.9027 19.8825V19.925C95.9027 21.2854 94.8141 22.405 93.4604 22.405H79.3786C77.7597 22.405 76.9922 22.0365 75.9873 20.9878L74.9545 19.8825C74.0055 18.8763 73.7822 18.2386 73.7822 16.4388V10.6144C73.7822 9.56569 74.3265 9.013 75.457 9.013H87.3755C87.7803 9.013 88.1013 8.68707 88.1013 8.2761V5.42764H76.3223C74.9825 5.42764 73.8799 4.32228 73.8799 2.94765C73.8799 1.5872 74.9685 0.467658 76.3223 0.467658H92.2183C93.0975 0.467658 93.7953 1.19041 93.7953 2.06903V9.82077C93.7953 12.1165 92.3439 13.6754 90.1388 13.6754H79.5741L79.5601 13.7037ZM106.83 2.93349V20.1234C106.83 21.7389 105.532 23.0569 103.941 23.0569C102.35 23.0569 101.053 21.7389 101.053 20.1234V2.93349C101.053 1.31795 102.35 0 103.941 0C105.532 0 106.83 1.31795 106.83 2.93349Z" fill="white"/>
<path fill-rule="evenodd" clip-rule="evenodd" d="M17.6768 18.4463C17.6768 17.1729 18.7486 16.1406 20.0709 16.1406H29.8853C31.2075 16.1406 32.2794 17.1729 32.2794 18.4463C32.2794 19.7197 31.2075 20.752 29.8853 20.752H20.0709C18.7486 20.752 17.6768 19.7197 17.6768 18.4463Z" fill="white"/>
<path d="M0.608215 73.9047V71.668H4.21827V70.0984H6.76885V71.668H10.4181V73.9047H0.608215ZM14.2833 85.3038H11.8111V70.2357H14.2833V85.3038ZM6.74923 82.2431C8.63273 82.2431 10.0127 82.0338 10.889 81.6153V83.9304C10.4443 84.1266 9.86224 84.277 9.14285 84.3817C8.43654 84.4863 7.67136 84.5386 6.84733 84.5386H0.549356V82.2431H4.27713V80.6735C3.32229 80.5166 2.5702 80.1765 2.02084 79.6533C1.48457 79.1301 1.21643 78.463 1.21643 77.6521C1.21643 76.658 1.60883 75.8863 2.39362 75.3369C3.1915 74.7745 4.23789 74.4933 5.5328 74.4933C6.82771 74.4933 7.86756 74.7745 8.65235 75.3369C9.45023 75.8863 9.84916 76.658 9.84916 77.6521C9.84916 78.4761 9.57449 79.1497 9.02513 79.6729C8.47577 80.183 7.71714 80.5166 6.74923 80.6735V82.2431ZM3.55119 77.6521C3.55119 77.979 3.72777 78.2406 4.08093 78.4368C4.43409 78.62 4.91804 78.7115 5.5328 78.7115C6.13447 78.7115 6.61189 78.62 6.96505 78.4368C7.33128 78.2406 7.5144 77.979 7.5144 77.6521C7.5144 77.3251 7.33782 77.0635 6.98467 76.8673C6.63151 76.6711 6.14755 76.573 5.5328 76.573C4.91804 76.573 4.43409 76.6711 4.08093 76.8673C3.72777 77.0504 3.55119 77.312 3.55119 77.6521ZM29.3885 78.4368V85.3038H26.9164V70.2357H29.3885V75.9255H31.1739V78.4368H29.3885ZM22.6392 70.6281C22.6392 72.8779 22.4561 74.9314 22.0899 76.7888L26.367 83.0279L24.3265 84.519L21.207 79.8102C20.6446 81.3013 19.9252 82.4524 19.0488 83.2633C18.1855 84.0743 17.2111 84.4994 16.1254 84.5386V81.8703C16.9233 81.7526 17.6231 81.1967 18.2248 80.2026C18.8264 79.2086 19.2908 77.881 19.6178 76.2198C19.9579 74.5456 20.1279 72.6555 20.1279 70.5497L22.6392 70.6281ZM38.7254 75.6704C37.8883 76.8869 36.8746 77.8417 35.6844 78.5349C34.4941 79.2282 33.2319 79.5748 31.8977 79.5748V77.1027C32.8656 77.1027 33.7943 76.8084 34.6838 76.2198C35.5732 75.6312 36.3253 74.8137 36.94 73.7673C37.5548 72.7209 37.9537 71.5372 38.1368 70.2161L40.6678 70.6281C40.5108 71.7007 40.2362 72.6882 39.8438 73.5907L45.9652 77.5147L44.6703 79.614L38.7254 75.6704ZM46.0633 82.2823V84.7152H31.6231V82.2823H37.5875V78.6723H40.0988V82.2823H46.0633ZM61.2666 85.3038H58.9122V78.3976H57.2838V85.0487H54.949V70.2946H57.2838V75.9255H58.9122V70.2357H61.2666V85.3038ZM53.5952 70.6478V75.0034C53.5952 77.0177 53.3205 78.7377 52.7712 80.1634C52.2349 81.5891 51.4959 82.6682 50.5541 83.4007C49.6255 84.1331 48.5791 84.5059 47.415 84.519V82.0861C48.1867 82.0338 48.8538 81.733 49.4162 81.1836C49.9917 80.6343 50.4364 79.8429 50.7503 78.8096C51.0643 77.7763 51.2212 76.5468 51.2212 75.1211V73.0021H47.415V70.6478H53.5952Z" fill="white"/>
<path d="M3.39423 135.942C2.72716 134.922 2.21704 133.744 1.86389 132.41C1.51073 131.076 1.33415 129.65 1.33415 128.133C1.33415 126.616 1.51073 125.184 1.86389 123.836C2.23012 122.489 2.74024 121.318 3.39423 120.324H5.57204C4.8788 121.528 4.36869 122.77 4.04169 124.052C3.72777 125.321 3.57081 126.681 3.57081 128.133C3.57081 129.585 3.72777 130.952 4.04169 132.234C4.36869 133.502 4.8788 134.738 5.57204 135.942H3.39423ZM13.3821 126.034C12.6104 126.858 11.6556 127.505 10.5176 127.976C9.39275 128.434 8.1894 128.676 6.90757 128.702V126.328C8.124 126.276 9.22925 125.968 10.2233 125.406C11.2305 124.843 11.9237 124.104 12.303 123.189H7.16262V120.834H20.0136V123.189H15.0498C14.9975 123.45 14.8994 123.751 14.7555 124.091L20.563 126.544L19.6016 128.702L13.3821 126.034ZM14.8536 132.391V136.02H12.3423V132.391H6.37783V129.977H20.818V132.391H14.8536ZM21.6596 135.942C22.3529 134.738 22.8564 133.502 23.1704 132.234C23.4843 130.952 23.6412 129.585 23.6412 128.133C23.6412 126.681 23.4843 125.321 23.1704 124.052C22.8564 122.77 22.3529 121.528 21.6596 120.324H23.8178C24.4849 121.318 24.995 122.489 25.3482 123.836C25.7013 125.17 25.8779 126.603 25.8779 128.133C25.8779 129.663 25.7013 131.096 25.3482 132.43C24.995 133.764 24.4849 134.935 23.8178 135.942H21.6596ZM41.8671 135.667H39.5519V120.599H41.8671V135.667ZM38.2963 120.658V135.412H35.9811V128.996H34.7058C34.6273 131.102 34.3003 132.646 33.7248 133.627C33.1493 134.595 32.3318 135.078 31.2724 135.078C30.1213 135.078 29.258 134.516 28.6825 133.391C28.107 132.253 27.8193 130.442 27.8193 127.956C27.8193 125.484 28.107 123.679 28.6825 122.541C29.258 121.403 30.1213 120.834 31.2724 120.834C32.2926 120.834 33.0905 121.292 33.666 122.208C34.2415 123.11 34.5816 124.536 34.6862 126.485H35.9811V120.658H38.2963ZM31.2724 132.724C31.6648 132.724 31.9525 132.345 32.1356 131.586C32.3187 130.814 32.4103 129.605 32.4103 127.956C32.4103 126.308 32.3187 125.105 32.1356 124.346C31.9525 123.575 31.6648 123.189 31.2724 123.189C30.8669 123.189 30.5726 123.575 30.3895 124.346C30.2063 125.105 30.1148 126.308 30.1148 127.956C30.1148 129.605 30.2063 130.814 30.3895 131.586C30.5726 132.345 30.8669 132.724 31.2724 132.724ZM50.3996 126.112C49.5494 127.368 48.5292 128.355 47.3389 129.075C46.1487 129.794 44.893 130.16 43.5719 130.174V127.701C44.5398 127.701 45.4685 127.394 46.3579 126.779C47.2474 126.151 47.9995 125.301 48.6142 124.229C49.229 123.143 49.6279 121.927 49.811 120.579L52.342 120.991C52.185 122.051 51.8973 123.078 51.4787 124.072L57.659 128.133L56.3444 130.232L50.3996 126.112ZM57.7375 132.646V135.078H43.2973V132.646H57.7375ZM72.9408 135.667H70.6256V120.599H72.9408V135.667ZM69.37 120.658V135.412H67.0548V128.996H65.7795C65.701 131.102 65.374 132.646 64.7985 133.627C64.223 134.595 63.4055 135.078 62.3461 135.078C61.195 135.078 60.3317 134.516 59.7562 133.391C59.1807 132.253 58.893 130.442 58.893 127.956C58.893 125.484 59.1807 123.679 59.7562 122.541C60.3317 121.403 61.195 120.834 62.3461 120.834C63.3663 120.834 64.1642 121.292 64.7397 122.208C65.3152 123.11 65.6553 124.536 65.7599 126.485H67.0548V120.658H69.37ZM62.3461 132.724C62.7385 132.724 63.0262 132.345 63.2093 131.586C63.3924 130.814 63.484 129.605 63.484 127.956C63.484 126.308 63.3924 125.105 63.2093 124.346C63.0262 123.575 62.7385 123.189 62.3461 123.189C61.9406 123.189 61.6463 123.575 61.4632 124.346C61.28 125.105 61.1885 126.308 61.1885 127.956C61.1885 129.605 61.28 130.814 61.4632 131.586C61.6463 132.345 61.9406 132.724 62.3461 132.724ZM85.5935 135.667V120.599H88.0852V135.667H85.5935ZM79.3152 120.834C80.6885 120.834 81.7676 121.43 82.5524 122.62C83.3503 123.797 83.7492 125.576 83.7492 127.956C83.7492 130.337 83.3503 132.122 82.5524 133.313C81.7676 134.49 80.6885 135.078 79.3152 135.078C77.9287 135.078 76.8365 134.49 76.0386 133.313C75.2538 132.122 74.8614 130.337 74.8614 127.956C74.8614 125.576 75.2538 123.797 76.0386 122.62C76.8365 121.43 77.9287 120.834 79.3152 120.834ZM79.3152 123.208C78.7004 123.208 78.2099 123.588 77.8437 124.346C77.4905 125.092 77.3139 126.295 77.3139 127.956C77.3139 129.631 77.4905 130.841 77.8437 131.586C78.2099 132.332 78.7004 132.704 79.3152 132.704C79.9168 132.704 80.4008 132.332 80.767 131.586C81.1333 130.828 81.3164 129.618 81.3164 127.956C81.3164 126.308 81.1333 125.105 80.767 124.346C80.4008 123.588 79.9168 123.208 79.3152 123.208ZM96.4608 124.974C96.3954 126.125 96.2843 127.106 96.1273 127.917L100.365 133.195L98.5405 134.902L95.2836 130.684C94.7081 131.992 93.9822 133.012 93.1058 133.744C92.2295 134.464 91.255 134.85 90.1825 134.902V132.351C90.8888 132.26 91.5166 131.894 92.066 131.253C92.6153 130.599 93.0535 129.735 93.3805 128.663C93.7075 127.577 93.9037 126.348 93.9691 124.974H90.4768V122.561H93.9495V120.54H96.4804V122.561H99.7962V124.974H96.4608ZM103.622 135.667H101.13V120.599H103.622V135.667ZM119.551 135.667H117.236V120.599H119.551V135.667ZM115.981 120.658V135.412H113.665V128.996H112.39C112.312 131.102 111.985 132.646 111.409 133.627C110.834 134.595 110.016 135.078 108.957 135.078C107.806 135.078 106.942 134.516 106.367 133.391C105.791 132.253 105.504 130.442 105.504 127.956C105.504 125.484 105.791 123.679 106.367 122.541C106.942 121.403 107.806 120.834 108.957 120.834C109.977 120.834 110.775 121.292 111.35 122.208C111.926 123.11 112.266 124.536 112.37 126.485H113.665V120.658H115.981ZM108.957 132.724C109.349 132.724 109.637 132.345 109.82 131.586C110.003 130.814 110.095 129.605 110.095 127.956C110.095 126.308 110.003 125.105 109.82 124.346C109.637 123.575 109.349 123.189 108.957 123.189C108.551 123.189 108.257 123.575 108.074 124.346C107.891 125.105 107.799 126.308 107.799 127.956C107.799 129.605 107.891 130.814 108.074 131.586C108.257 132.345 108.551 132.724 108.957 132.724ZM121.668 130.252V127.858H123.944V123.444H121.806V121.031H134.598V123.444H132.459V127.858H134.735V130.252H121.668ZM129.967 127.858V123.444H126.436V127.858H129.967ZM135.422 135.078H120.982V132.626H135.422V135.078ZM144.464 131.586V120.658H146.76V123.934H148.31V120.599H150.625V131.841H148.31V126.367H146.76V131.586H144.464ZM143.483 125.269C143.483 126.734 143.183 127.878 142.581 128.702C141.979 129.526 141.136 129.938 140.05 129.938C138.964 129.938 138.114 129.533 137.499 128.722C136.898 127.898 136.597 126.747 136.597 125.269C136.597 123.804 136.898 122.666 137.499 121.855C138.114 121.044 138.964 120.638 140.05 120.638C141.136 120.638 141.979 121.044 142.581 121.855C143.183 122.666 143.483 123.804 143.483 125.269ZM138.873 125.269C138.873 126.08 138.971 126.701 139.167 127.132C139.376 127.564 139.671 127.78 140.05 127.78C140.429 127.78 140.717 127.571 140.913 127.152C141.109 126.72 141.207 126.093 141.207 125.269C141.207 124.458 141.109 123.843 140.913 123.424C140.717 122.993 140.429 122.777 140.05 122.777C139.671 122.777 139.376 122.993 139.167 123.424C138.971 123.843 138.873 124.458 138.873 125.269ZM150.86 135.608H137.813V130.742H140.344V133.273H150.86V135.608ZM165.75 135.667H163.278V120.599H165.75V135.667ZM161.139 120.972V134.902H152.742V120.972H155.194V125.641H158.687V120.972H161.139ZM158.687 128.015H155.194V132.508H158.687V128.015Z" fill="white"/>
<path d="M10.1386 163.031V168.593H9.07909V157.292H10.1386V161.971H11.6983V163.031H10.1386ZM5.03249 157.616C5.01287 159.46 4.87063 161.039 4.60576 162.354L8.06376 167.225L7.19558 167.857L4.2526 163.664C3.88963 164.929 3.39423 165.93 2.7664 166.665C2.13856 167.391 1.41263 167.798 0.588595 167.887V166.783C1.30472 166.656 1.91294 166.17 2.41324 165.326C2.92336 164.483 3.30594 163.389 3.561 162.045C3.81606 160.701 3.94849 159.215 3.9583 157.586L5.03249 157.616ZM21.026 168.593V157.292H22.1002V168.593H21.026ZM15.8464 157.586C16.8274 157.586 17.6073 158.028 18.186 158.911C18.7746 159.794 19.0689 161.093 19.0689 162.81C19.0689 164.527 18.7746 165.827 18.186 166.71C17.6073 167.592 16.8274 168.034 15.8464 168.034C14.8654 168.034 14.0806 167.592 13.492 166.71C12.9132 165.827 12.6238 164.527 12.6238 162.81C12.6238 161.093 12.9132 159.794 13.492 158.911C14.0806 158.028 14.8654 157.586 15.8464 157.586ZM15.8464 158.602C15.1891 158.602 14.6643 158.955 14.2719 159.661C13.8795 160.358 13.6833 161.407 13.6833 162.81C13.6833 164.223 13.8795 165.277 14.2719 165.974C14.6643 166.67 15.1891 167.019 15.8464 167.019C16.484 167.019 17.004 166.67 17.4062 165.974C17.8084 165.268 18.0095 164.213 18.0095 162.81C18.0095 161.417 17.8084 160.367 17.4062 159.661C17.004 158.955 16.484 158.602 15.8464 158.602ZM24.5413 164.885V157.733H33.7528V158.734H25.5861V160.824H33.6351V161.78H25.5861V163.899H33.9294V164.885H24.5413ZM34.4886 168.019H23.7762V166.989H34.4886V168.019ZM42.5508 162.03V161.03H44.4343V159.352H42.5508V158.366H44.4343V157.292H45.4791V163.546H44.4343V162.03H42.5508ZM35.9291 162.84V157.601H41.8886V162.84H35.9291ZM36.9591 158.558V161.883H40.8292V158.558H36.9591ZM40.9763 163.958C42.3693 163.958 43.4827 164.149 44.3166 164.532C45.1602 164.905 45.5821 165.483 45.5821 166.268C45.5821 167.053 45.1602 167.632 44.3166 168.004C43.4827 168.377 42.3693 168.564 40.9763 168.564C39.5931 168.564 38.4846 168.377 37.6507 168.004C36.8169 167.632 36.4 167.053 36.4 166.268C36.4 165.483 36.8169 164.905 37.6507 164.532C38.4846 164.149 39.5931 163.958 40.9763 163.958ZM40.9763 167.637C41.9965 167.637 42.8304 167.519 43.4778 167.283C44.1253 167.048 44.449 166.71 44.449 166.268C44.449 165.817 44.1253 165.474 43.4778 165.238C42.8304 165.003 41.9965 164.885 40.9763 164.885C39.9561 164.885 39.1222 165.003 38.4748 165.238C37.8371 165.474 37.5183 165.817 37.5183 166.268C37.5183 166.71 37.8371 167.048 38.4748 167.283C39.1222 167.519 39.9561 167.637 40.9763 167.637ZM51.095 160.618C50.8595 160.618 50.6633 160.539 50.5064 160.382C50.3494 160.225 50.2709 160.029 50.2709 159.794C50.2709 159.558 50.3494 159.367 50.5064 159.22C50.6633 159.063 50.8595 158.984 51.095 158.984C51.3304 158.984 51.5266 159.063 51.6836 159.22C51.8405 159.367 51.919 159.558 51.919 159.794C51.919 160.029 51.8405 160.225 51.6836 160.382C51.5266 160.539 51.3304 160.618 51.095 160.618ZM51.095 166.901C50.8693 166.901 50.6731 166.822 50.5064 166.665C50.3494 166.508 50.2709 166.312 50.2709 166.077C50.2709 165.841 50.3494 165.645 50.5064 165.488C50.6731 165.331 50.8693 165.253 51.095 165.253C51.3206 165.253 51.5119 165.331 51.6689 165.488C51.8356 165.645 51.919 165.841 51.919 166.077C51.919 166.312 51.8356 166.508 51.6689 166.665C51.5119 166.822 51.3206 166.901 51.095 166.901ZM66.0943 168.593H65.0348V163.119H62.8276C62.7883 164.738 62.4842 165.964 61.9152 166.798C61.3463 167.622 60.5958 168.034 59.6639 168.034C58.6927 168.034 57.9177 167.592 57.3389 166.71C56.7699 165.827 56.4855 164.527 56.4855 162.81C56.4855 161.093 56.7699 159.794 57.3389 158.911C57.9177 158.028 58.6927 157.586 59.6639 157.586C60.5566 157.586 61.2825 157.964 61.8417 158.719C62.4008 159.475 62.7246 160.593 62.8129 162.074H65.0348V157.292H66.0943V168.593ZM59.6639 167.019C60.3015 167.019 60.8116 166.67 61.1942 165.974C61.5768 165.277 61.7681 164.223 61.7681 162.81C61.7681 161.407 61.5768 160.358 61.1942 159.661C60.8116 158.955 60.3015 158.602 59.6639 158.602C59.0262 158.602 58.5112 158.955 58.1188 159.661C57.7362 160.358 57.5449 161.407 57.5449 162.81C57.5449 164.223 57.7362 165.277 58.1188 165.974C58.5112 166.67 59.0262 167.019 59.6639 167.019ZM73.0529 161.353C71.6697 161.353 70.5415 161.187 69.6684 160.853C68.7953 160.52 68.3588 160.004 68.3588 159.308C68.3588 158.611 68.7904 158.101 69.6537 157.778C70.5268 157.444 71.6598 157.277 73.0529 157.277C74.4459 157.277 75.574 157.444 76.4373 157.778C77.3006 158.101 77.7322 158.611 77.7322 159.308C77.7322 160.004 77.2956 160.52 76.4226 160.853C75.5593 161.187 74.4361 161.353 73.0529 161.353ZM73.0529 158.146C72.013 158.146 71.1546 158.244 70.4778 158.44C69.8009 158.626 69.4624 158.916 69.4624 159.308C69.4624 159.7 69.796 159.995 70.463 160.191C71.1399 160.377 72.0032 160.47 73.0529 160.47C74.0927 160.47 74.9462 160.377 75.6132 160.191C76.2901 159.995 76.6286 159.7 76.6286 159.308C76.6286 158.916 76.2901 158.626 75.6132 158.44C74.9462 158.244 74.0927 158.146 73.0529 158.146ZM73.5826 164.061H77.6439V166.592H69.5066V167.622H77.8352V168.431H68.4765V165.871H76.5991V164.87H68.4471V164.061H72.5231V162.928H67.6966V162.06H78.4091V162.928H73.5826V164.061ZM88.2518 163.914V157.292H89.326V163.914H88.2518ZM80.9385 160.956V162.56H83.7785C84.5633 162.56 85.2647 162.516 85.8827 162.428C86.5105 162.329 86.9961 162.197 87.3395 162.03V162.943C86.9961 163.109 86.5056 163.242 85.868 163.34C85.2303 163.428 84.5142 163.472 83.7196 163.472H79.879V160.103H85.1322V158.499H79.8496V157.601H86.1917V160.956H80.9385ZM80.3057 168.417V164.576H89.326V168.417H80.3057ZM88.2665 165.503H81.3505V167.489H88.2665V165.503ZM96.1338 157.174V170.933H95.089V157.174H96.1338ZM111.438 168.593H110.423V162.972H108.481V168.402H107.48V157.351H108.481V161.927H110.423V157.292H111.438V168.593ZM104.125 166.886C104.586 166.886 105.037 166.847 105.479 166.768C105.92 166.69 106.303 166.582 106.626 166.445V167.431C106.303 167.578 105.91 167.691 105.449 167.769C104.988 167.848 104.503 167.887 103.993 167.887H101.535V157.733H106.17V158.734H102.565V166.886H104.125ZM123.532 168.019H112.82V167.004H115.572V164.179H113.394V163.163H115.351V158.837H113.497V157.822H122.841V158.837H121.001V163.163H122.958V164.179H120.781V167.004H123.532V168.019ZM119.942 163.163V158.837H116.41V163.163H119.942ZM119.706 167.004V164.179H116.631V167.004H119.706ZM134.14 163.031V168.593H133.081V157.292H134.14V161.971H135.7V163.031H134.14ZM128.799 158.764C128.779 160.186 128.671 161.442 128.475 162.531L131.992 167.136L131.153 167.784L128.137 163.796C127.783 165.003 127.308 165.959 126.709 166.665C126.111 167.362 125.414 167.769 124.62 167.887V166.783C125.257 166.646 125.807 166.219 126.268 165.503C126.729 164.777 127.082 163.835 127.327 162.678C127.582 161.52 127.72 160.215 127.739 158.764H124.855V157.733H131.609V158.764H128.799ZM140.139 160.618C139.903 160.618 139.707 160.539 139.55 160.382C139.393 160.225 139.315 160.029 139.315 159.794C139.315 159.558 139.393 159.367 139.55 159.22C139.707 159.063 139.903 158.984 140.139 158.984C140.374 158.984 140.57 159.063 140.727 159.22C140.884 159.367 140.963 159.558 140.963 159.794C140.963 160.029 140.884 160.225 140.727 160.382C140.57 160.539 140.374 160.618 140.139 160.618ZM140.139 166.901C139.913 166.901 139.717 166.822 139.55 166.665C139.393 166.508 139.315 166.312 139.315 166.077C139.315 165.841 139.393 165.645 139.55 165.488C139.717 165.331 139.913 165.253 140.139 165.253C140.364 165.253 140.556 165.331 140.713 165.488C140.879 165.645 140.963 165.841 140.963 166.077C140.963 166.312 140.879 166.508 140.713 166.665C140.556 166.822 140.364 166.901 140.139 166.901ZM150.444 162.074C149.071 162.074 147.938 161.873 147.045 161.471C146.152 161.059 145.706 160.456 145.706 159.661C145.706 158.876 146.152 158.278 147.045 157.866C147.947 157.444 149.08 157.233 150.444 157.233C151.798 157.233 152.921 157.444 153.814 157.866C154.716 158.278 155.167 158.876 155.167 159.661C155.167 160.456 154.721 161.059 153.828 161.471C152.936 161.873 151.808 162.074 150.444 162.074ZM150.444 158.16C149.424 158.16 148.565 158.293 147.869 158.558C147.172 158.822 146.824 159.19 146.824 159.661C146.824 160.142 147.172 160.515 147.869 160.779C148.565 161.035 149.424 161.162 150.444 161.162C151.464 161.162 152.318 161.035 153.004 160.779C153.701 160.515 154.049 160.142 154.049 159.661C154.049 159.19 153.701 158.822 153.004 158.558C152.308 158.293 151.454 158.16 150.444 158.16ZM155.8 164.031H153.107V166.15H152.033V164.031H149.885V166.15H148.825V164.031H145.088V163.09H155.8V164.031ZM155.226 167.475V168.431H145.853V165.238H146.912V167.475H155.226ZM163.009 160.264V159.264H165.731V157.292H166.791V163.649H165.731V160.264H163.009ZM160.301 160.868C159.929 161.545 159.443 162.104 158.845 162.545C158.246 162.987 157.56 163.266 156.785 163.384V162.369C157.461 162.231 158.045 161.927 158.536 161.456C159.036 160.976 159.414 160.387 159.669 159.691C159.934 158.984 160.071 158.224 160.081 157.41L161.14 157.469C161.14 158.371 161.008 159.2 160.743 159.955L164.083 162.369L163.495 163.163L160.301 160.868ZM162.288 164.061C163.671 164.061 164.78 164.247 165.613 164.62C166.457 164.983 166.879 165.547 166.879 166.312C166.879 167.077 166.457 167.646 165.613 168.019C164.78 168.382 163.671 168.564 162.288 168.564C160.905 168.564 159.796 168.382 158.962 168.019C158.128 167.646 157.712 167.077 157.712 166.312C157.712 165.547 158.128 164.983 158.962 164.62C159.796 164.247 160.905 164.061 162.288 164.061ZM162.288 167.637C163.318 167.637 164.152 167.524 164.789 167.298C165.437 167.073 165.761 166.744 165.761 166.312C165.761 165.881 165.437 165.552 164.789 165.326C164.142 165.101 163.308 164.988 162.288 164.988C161.268 164.988 160.434 165.101 159.786 165.326C159.149 165.552 158.83 165.881 158.83 166.312C158.83 166.744 159.149 167.073 159.786 167.298C160.434 167.524 161.268 167.637 162.288 167.637ZM168.834 158.925V158.043H173.19V156.836H174.264V158.043H178.664V158.925H168.834ZM169.261 161.353C169.261 160.775 169.663 160.338 170.468 160.044C171.282 159.749 172.376 159.602 173.749 159.602C175.113 159.602 176.197 159.749 177.001 160.044C177.806 160.338 178.208 160.775 178.208 161.353C178.208 161.932 177.806 162.369 177.001 162.663C176.197 162.957 175.113 163.104 173.749 163.104C172.376 163.104 171.282 162.957 170.468 162.663C169.663 162.369 169.261 161.932 169.261 161.353ZM177.148 161.353C177.148 161.049 176.834 160.819 176.207 160.662C175.579 160.495 174.76 160.412 173.749 160.412C172.739 160.412 171.92 160.495 171.292 160.662C170.664 160.819 170.35 161.049 170.35 161.353C170.35 161.657 170.664 161.893 171.292 162.06C171.92 162.217 172.739 162.295 173.749 162.295C174.76 162.295 175.579 162.217 176.207 162.06C176.834 161.893 177.148 161.657 177.148 161.353ZM179.105 164.797H174.279V166.312H173.22V164.797H168.393V163.899H179.105V164.797ZM178.532 167.504V168.431H169.173V165.753H170.247V167.504H178.532ZM10.1386 189.031V194.593H9.07909V183.292H10.1386V187.971H11.6983V189.031H10.1386ZM5.03249 183.616C5.01287 185.46 4.87063 187.039 4.60576 188.354L8.06376 193.225L7.19558 193.857L4.2526 189.664C3.88963 190.929 3.39423 191.93 2.7664 192.665C2.13856 193.391 1.41263 193.798 0.588595 193.887V192.783C1.30472 192.656 1.91294 192.17 2.41324 191.326C2.92336 190.483 3.30594 189.389 3.561 188.045C3.81606 186.701 3.94849 185.215 3.9583 183.586L5.03249 183.616ZM22.1738 189.178H21.1143V186.676H18.7746C18.6667 187.373 18.3283 187.932 17.7593 188.354C17.1903 188.776 16.4546 188.987 15.5521 188.987C14.885 188.987 14.3013 188.869 13.801 188.634C13.3105 188.398 12.9279 188.069 12.6533 187.648C12.3884 187.226 12.2559 186.745 12.2559 186.206C12.2559 185.676 12.3884 185.2 12.6533 184.778C12.9279 184.356 13.3105 184.028 13.801 183.792C14.3013 183.557 14.885 183.439 15.5521 183.439C16.4252 183.439 17.1462 183.64 17.7152 184.043C18.2841 184.445 18.6324 184.979 18.7599 185.646H21.1143V183.292H22.1738V189.178ZM15.5521 188.045C16.2192 188.045 16.7587 187.883 17.1707 187.559C17.5827 187.226 17.7887 186.775 17.7887 186.206C17.7887 185.646 17.5827 185.205 17.1707 184.881C16.7587 184.548 16.2192 184.381 15.5521 184.381C14.885 184.381 14.3455 184.548 13.9334 184.881C13.5214 185.205 13.3154 185.646 13.3154 186.206C13.3154 186.775 13.5214 187.226 13.9334 187.559C14.3455 187.883 14.885 188.045 15.5521 188.045ZM22.1738 189.693V194.417H13.2566V189.693H14.3013V191.032H21.129V189.693H22.1738ZM21.129 191.944H14.3013V193.489H21.129V191.944ZM33.4438 189.031V194.593H32.3844V183.292H33.4438V187.971H35.0036V189.031H33.4438ZM28.1023 184.764C28.0827 186.186 27.9748 187.442 27.7786 188.531L31.2955 193.136L30.4567 193.784L27.4402 189.796C27.087 191.003 26.6112 191.959 26.0128 192.665C25.4144 193.362 24.7179 193.769 23.9233 193.887V192.783C24.5609 192.646 25.1103 192.219 25.5714 191.503C26.0324 190.777 26.3856 189.835 26.6308 188.678C26.8859 187.52 27.0232 186.215 27.0429 184.764H24.1587V183.733H30.9129V184.764H28.1023ZM37.2976 184.366V186.367H45.4643V187.28H36.2381V183.454H45.3466V184.366H37.2976ZM35.4288 189.413V188.501H46.1412V189.413H35.4288ZM40.785 190.532C42.178 190.532 43.3062 190.694 44.1694 191.017C45.0425 191.331 45.4791 191.846 45.4791 192.562C45.4791 193.279 45.0425 193.798 44.1694 194.122C43.3062 194.446 42.178 194.608 40.785 194.608C39.392 194.608 38.259 194.446 37.3859 194.122C36.5226 193.798 36.091 193.279 36.091 192.562C36.091 191.846 36.5226 191.331 37.3859 191.017C38.259 190.694 39.392 190.532 40.785 190.532ZM40.785 191.429C39.7746 191.429 38.9211 191.523 38.2246 191.709C37.5379 191.886 37.1946 192.17 37.1946 192.562C37.1946 192.965 37.5379 193.259 38.2246 193.445C38.9113 193.622 39.7648 193.71 40.785 193.71C41.7954 193.71 42.644 193.622 43.3307 193.445C44.0174 193.259 44.3607 192.965 44.3607 192.562C44.3607 192.17 44.0174 191.886 43.3307 191.709C42.644 191.523 41.7954 191.429 40.785 191.429ZM57.7939 190.473H47.0814V189.561H51.9079V188.354H47.9055V185.514H55.9692V184.278H47.8907V183.454H56.9993V186.279H48.9355V187.545H57.1611V188.354H52.9674V189.561H57.7939V190.473ZM57.014 191.606V194.578H55.9545V192.518H47.7583V191.606H57.014ZM59.2197 189.811V183.513H60.2497V185.558H64.3846V183.513H65.4441V186.117H67.7249V183.292H68.7843V191.694H67.7249V187.162H65.4441V189.811H59.2197ZM64.3846 186.515H60.2497V188.854H64.3846V186.515ZM69.0345 194.417H59.7347V190.87H60.8089V193.401H69.0345V194.417ZM70.7693 185.852V184.837H75.1838V183.145H76.2579V184.837H80.7018V185.852H70.7693ZM81.0991 194.019H70.3867V193.019H75.2132V191.12C74.0164 191.071 73.0599 190.87 72.3438 190.517C71.6375 190.154 71.2843 189.624 71.2843 188.928C71.2843 188.172 71.6914 187.613 72.5057 187.25C73.3199 186.887 74.399 186.706 75.7429 186.706C77.0771 186.706 78.1513 186.887 78.9655 187.25C79.7797 187.613 80.1868 188.172 80.1868 188.928C80.1868 189.624 79.8288 190.154 79.1126 190.517C78.4063 190.87 77.4597 191.071 76.2727 191.12V193.019H81.0991V194.019ZM72.3732 188.928C72.3732 189.359 72.6773 189.678 73.2855 189.884C73.9036 190.09 74.7227 190.193 75.7429 190.193C76.7533 190.193 77.5627 190.09 78.1709 189.884C78.7889 189.678 79.0979 189.359 79.0979 188.928C79.0979 188.486 78.7889 188.163 78.1709 187.957C77.5627 187.751 76.7533 187.648 75.7429 187.648C74.7227 187.648 73.9036 187.751 73.2855 187.957C72.6773 188.163 72.3732 188.486 72.3732 188.928ZM86.0529 186.618C85.8174 186.618 85.6212 186.539 85.4643 186.382C85.3073 186.225 85.2289 186.029 85.2289 185.794C85.2289 185.558 85.3073 185.367 85.4643 185.22C85.6212 185.063 85.8174 184.984 86.0529 184.984C86.2883 184.984 86.4845 185.063 86.6415 185.22C86.7984 185.367 86.8769 185.558 86.8769 185.794C86.8769 186.029 86.7984 186.225 86.6415 186.382C86.4845 186.539 86.2883 186.618 86.0529 186.618ZM86.0529 192.901C85.8273 192.901 85.6311 192.822 85.4643 192.665C85.3073 192.508 85.2289 192.312 85.2289 192.077C85.2289 191.841 85.3073 191.645 85.4643 191.488C85.6311 191.331 85.8273 191.253 86.0529 191.253C86.2785 191.253 86.4698 191.331 86.6268 191.488C86.7935 191.645 86.8769 191.841 86.8769 192.077C86.8769 192.312 86.7935 192.508 86.6268 192.665C86.4698 192.822 86.2785 192.901 86.0529 192.901ZM95.4458 187.913C96.1227 187.913 96.7211 188.04 97.241 188.295C97.7708 188.55 98.1828 188.913 98.4771 189.384C98.7714 189.845 98.9185 190.385 98.9185 191.003C98.9185 191.64 98.7616 192.199 98.4477 192.68C98.1435 193.161 97.7217 193.534 97.1822 193.798C96.6524 194.063 96.054 194.196 95.387 194.196C94.0234 194.196 92.9688 193.745 92.2233 192.842C91.4875 191.939 91.1196 190.669 91.1196 189.031C91.1196 187.883 91.3158 186.912 91.7082 186.117C92.1006 185.313 92.6549 184.71 93.371 184.307C94.0871 183.895 94.9161 183.689 95.8578 183.689C96.8879 183.689 97.7168 183.886 98.3446 184.278L97.8738 185.146C97.3931 184.832 96.7309 184.675 95.8873 184.675C94.7689 184.675 93.8909 185.033 93.2533 185.749C92.6157 186.456 92.2968 187.486 92.2968 188.84C92.2968 189.095 92.3214 189.404 92.3704 189.767C92.596 189.178 92.9835 188.722 93.5329 188.398C94.0822 188.074 94.7199 187.913 95.4458 187.913ZM95.3281 193.269C96.0638 193.269 96.6573 193.068 97.1086 192.665C97.5697 192.253 97.8002 191.714 97.8002 191.047C97.8002 190.37 97.5697 189.83 97.1086 189.428C96.6573 189.026 96.0393 188.825 95.2545 188.825C94.7542 188.825 94.303 188.923 93.9008 189.119C93.5084 189.315 93.1993 189.585 92.9737 189.928C92.7579 190.272 92.65 190.649 92.65 191.062C92.65 191.444 92.753 191.807 92.959 192.15C93.165 192.484 93.4691 192.754 93.8713 192.96C94.2833 193.166 94.7689 193.269 95.3281 193.269ZM104.279 187.913C104.956 187.913 105.554 188.04 106.074 188.295C106.604 188.55 107.016 188.913 107.31 189.384C107.605 189.845 107.752 190.385 107.752 191.003C107.752 191.64 107.595 192.199 107.281 192.68C106.977 193.161 106.555 193.534 106.015 193.798C105.486 194.063 104.887 194.196 104.22 194.196C102.857 194.196 101.802 193.745 101.056 192.842C100.321 191.939 99.9529 190.669 99.9529 189.031C99.9529 187.883 100.149 186.912 100.541 186.117C100.934 185.313 101.488 184.71 102.204 184.307C102.92 183.895 103.749 183.689 104.691 183.689C105.721 183.689 106.55 183.886 107.178 184.278L106.707 185.146C106.226 184.832 105.564 184.675 104.72 184.675C103.602 184.675 102.724 185.033 102.087 185.749C101.449 186.456 101.13 187.486 101.13 188.84C101.13 189.095 101.155 189.404 101.204 189.767C101.429 189.178 101.817 188.722 102.366 188.398C102.915 188.074 103.553 187.913 104.279 187.913ZM104.161 193.269C104.897 193.269 105.491 193.068 105.942 192.665C106.403 192.253 106.633 191.714 106.633 191.047C106.633 190.37 106.403 189.83 105.942 189.428C105.491 189.026 104.873 188.825 104.088 188.825C103.587 188.825 103.136 188.923 102.734 189.119C102.342 189.315 102.033 189.585 101.807 189.928C101.591 190.272 101.483 190.649 101.483 191.062C101.483 191.444 101.586 191.807 101.792 192.15C101.998 192.484 102.302 192.754 102.705 192.96C103.117 193.166 103.602 193.269 104.161 193.269ZM112.744 188.207C113.824 188.256 114.643 188.545 115.202 189.075C115.771 189.595 116.055 190.282 116.055 191.135C116.055 191.724 115.913 192.249 115.629 192.71C115.344 193.171 114.917 193.534 114.348 193.798C113.789 194.063 113.107 194.196 112.303 194.196C111.548 194.196 110.836 194.078 110.169 193.843C109.512 193.597 108.987 193.269 108.595 192.857L109.095 191.989C109.438 192.342 109.89 192.631 110.449 192.857C111.018 193.073 111.626 193.18 112.274 193.18C113.117 193.18 113.765 192.999 114.216 192.636C114.677 192.273 114.908 191.773 114.908 191.135C114.908 190.488 114.682 189.987 114.231 189.634C113.779 189.281 113.088 189.104 112.156 189.104H111.405V188.31L114.231 184.764H109.007V183.792H115.643V184.558L112.744 188.207ZM121.798 188.472V189.413H117.899V188.472H121.798ZM129.012 188.692C129.679 188.898 130.194 189.222 130.557 189.664C130.92 190.095 131.101 190.615 131.101 191.223C131.101 192.146 130.738 192.871 130.012 193.401C129.296 193.931 128.32 194.196 127.084 194.196C125.838 194.196 124.857 193.931 124.141 193.401C123.435 192.871 123.082 192.146 123.082 191.223C123.082 190.605 123.258 190.081 123.611 189.649C123.974 189.217 124.484 188.898 125.142 188.692C124.602 188.506 124.185 188.217 123.891 187.824C123.597 187.432 123.449 186.966 123.449 186.426C123.449 185.583 123.778 184.916 124.435 184.425C125.102 183.935 125.985 183.689 127.084 183.689C128.193 183.689 129.075 183.935 129.733 184.425C130.4 184.916 130.733 185.583 130.733 186.426C130.733 186.966 130.581 187.432 130.277 187.824C129.983 188.207 129.561 188.496 129.012 188.692ZM127.084 184.602C126.309 184.602 125.696 184.768 125.245 185.102C124.803 185.436 124.582 185.892 124.582 186.47C124.582 187.03 124.803 187.476 125.245 187.81C125.686 188.133 126.299 188.295 127.084 188.295C127.869 188.295 128.482 188.133 128.923 187.81C129.375 187.476 129.6 187.03 129.6 186.47C129.6 185.901 129.37 185.45 128.909 185.117C128.457 184.773 127.849 184.602 127.084 184.602ZM127.084 193.269C127.977 193.269 128.678 193.087 129.188 192.724C129.698 192.352 129.953 191.846 129.953 191.209C129.953 190.581 129.698 190.085 129.188 189.722C128.678 189.35 127.977 189.163 127.084 189.163C126.191 189.163 125.49 189.35 124.98 189.722C124.479 190.085 124.229 190.581 124.229 191.209C124.229 191.846 124.479 192.352 124.98 192.724C125.48 193.087 126.182 193.269 127.084 193.269ZM136.418 187.913C137.094 187.913 137.693 188.04 138.213 188.295C138.743 188.55 139.155 188.913 139.449 189.384C139.743 189.845 139.89 190.385 139.89 191.003C139.89 191.64 139.733 192.199 139.419 192.68C139.115 193.161 138.693 193.534 138.154 193.798C137.624 194.063 137.026 194.196 136.359 194.196C134.995 194.196 133.941 193.745 133.195 192.842C132.459 191.939 132.091 190.669 132.091 189.031C132.091 187.883 132.288 186.912 132.68 186.117C133.072 185.313 133.627 184.71 134.343 184.307C135.059 183.895 135.888 183.689 136.83 183.689C137.86 183.689 138.689 183.886 139.316 184.278L138.846 185.146C138.365 184.832 137.703 184.675 136.859 184.675C135.741 184.675 134.863 185.033 134.225 185.749C133.587 186.456 133.269 187.486 133.269 188.84C133.269 189.095 133.293 189.404 133.342 189.767C133.568 189.178 133.955 188.722 134.505 188.398C135.054 188.074 135.692 187.913 136.418 187.913ZM136.3 193.269C137.036 193.269 137.629 193.068 138.08 192.665C138.541 192.253 138.772 191.714 138.772 191.047C138.772 190.37 138.541 189.83 138.08 189.428C137.629 189.026 137.011 188.825 136.226 188.825C135.726 188.825 135.275 188.923 134.873 189.119C134.48 189.315 134.171 189.585 133.945 189.928C133.73 190.272 133.622 190.649 133.622 191.062C133.622 191.444 133.725 191.807 133.931 192.15C134.137 192.484 134.441 192.754 134.843 192.96C135.255 193.166 135.741 193.269 136.3 193.269ZM145.104 188.472V189.413H141.204V188.472H145.104ZM150.389 194.196C149.595 194.196 148.883 193.985 148.256 193.563C147.628 193.131 147.137 192.518 146.784 191.724C146.431 190.929 146.254 190.002 146.254 188.943C146.254 187.883 146.431 186.956 146.784 186.161C147.137 185.367 147.628 184.759 148.256 184.337C148.883 183.905 149.595 183.689 150.389 183.689C151.194 183.689 151.905 183.905 152.523 184.337C153.151 184.759 153.641 185.367 153.994 186.161C154.348 186.946 154.524 187.873 154.524 188.943C154.524 190.012 154.348 190.944 153.994 191.738C153.641 192.523 153.151 193.131 152.523 193.563C151.905 193.985 151.194 194.196 150.389 194.196ZM150.389 193.18C150.988 193.18 151.508 193.019 151.949 192.695C152.4 192.361 152.749 191.876 152.994 191.238C153.249 190.6 153.376 189.835 153.376 188.943C153.376 188.05 153.249 187.285 152.994 186.647C152.749 186.009 152.4 185.529 151.949 185.205C151.508 184.871 150.988 184.705 150.389 184.705C149.801 184.705 149.281 184.871 148.83 185.205C148.378 185.529 148.03 186.009 147.785 186.647C147.54 187.285 147.417 188.05 147.417 188.943C147.417 189.835 147.54 190.6 147.785 191.238C148.03 191.876 148.378 192.361 148.83 192.695C149.281 193.019 149.801 193.18 150.389 193.18ZM162.872 194.093H155.603V193.313L159.87 189.104C160.41 188.575 160.773 188.123 160.959 187.751C161.155 187.378 161.253 186.995 161.253 186.603C161.253 186.004 161.047 185.539 160.635 185.205C160.223 184.862 159.635 184.69 158.869 184.69C157.663 184.69 156.741 185.082 156.103 185.867L155.279 185.249C155.671 184.749 156.181 184.366 156.809 184.101C157.437 183.827 158.153 183.689 158.958 183.689C159.998 183.689 160.826 183.944 161.444 184.455C162.072 184.955 162.386 185.637 162.386 186.5C162.386 187.039 162.269 187.55 162.033 188.03C161.798 188.511 161.356 189.07 160.709 189.708L157.265 193.107H162.872V194.093ZM170.69 191.4V194.093H169.571V191.4H163.774V190.605L169.204 183.792H170.44L165.201 190.414H169.586V188.045H170.69V190.414H172.735V191.4H170.69ZM177.389 187.913C178.066 187.913 178.665 188.04 179.185 188.295C179.714 188.55 180.126 188.913 180.421 189.384C180.715 189.845 180.862 190.385 180.862 191.003C180.862 191.64 180.705 192.199 180.391 192.68C180.087 193.161 179.665 193.534 179.126 193.798C178.596 194.063 177.998 194.196 177.33 194.196C175.967 194.196 174.912 193.745 174.167 192.842C173.431 191.939 173.063 190.669 173.063 189.031C173.063 187.883 173.259 186.912 173.652 186.117C174.044 185.313 174.598 184.71 175.315 184.307C176.031 183.895 176.86 183.689 177.801 183.689C178.831 183.689 179.66 183.886 180.288 184.278L179.817 185.146C179.337 184.832 178.674 184.675 177.831 184.675C176.712 184.675 175.834 185.033 175.197 185.749C174.559 186.456 174.24 187.486 174.24 188.84C174.24 189.095 174.265 189.404 174.314 189.767C174.54 189.178 174.927 188.722 175.476 188.398C176.026 188.074 176.663 187.913 177.389 187.913ZM177.272 193.269C178.007 193.269 178.601 193.068 179.052 192.665C179.513 192.253 179.744 191.714 179.744 191.047C179.744 190.37 179.513 189.83 179.052 189.428C178.601 189.026 177.983 188.825 177.198 188.825C176.698 188.825 176.246 188.923 175.844 189.119C175.452 189.315 175.143 189.585 174.917 189.928C174.701 190.272 174.594 190.649 174.594 191.062C174.594 191.444 174.697 191.807 174.903 192.15C175.109 192.484 175.413 192.754 175.815 192.96C176.227 193.166 176.712 193.269 177.272 193.269ZM189.372 194.093H182.102V193.313L186.37 189.104C186.909 188.575 187.272 188.123 187.459 187.751C187.655 187.378 187.753 186.995 187.753 186.603C187.753 186.004 187.547 185.539 187.135 185.205C186.723 184.862 186.134 184.69 185.369 184.69C184.162 184.69 183.24 185.082 182.603 185.867L181.779 185.249C182.171 184.749 182.681 184.366 183.309 184.101C183.937 183.827 184.653 183.689 185.457 183.689C186.497 183.689 187.326 183.944 187.944 184.455C188.572 184.955 188.886 185.637 188.886 186.5C188.886 187.039 188.768 187.55 188.533 188.03C188.297 188.511 187.856 189.07 187.208 189.708L183.765 193.107H189.372V194.093ZM10.7419 219.593H9.72654V213.972H7.78418V219.402H6.78356V208.351H7.78418V212.927H9.72654V208.292H10.7419V219.593ZM3.42857 217.886C3.88964 217.886 4.34089 217.847 4.78234 217.768C5.22378 217.69 5.60637 217.582 5.9301 217.445V218.431C5.60637 218.578 5.21397 218.691 4.75291 218.769C4.29184 218.848 3.80625 218.887 3.29613 218.887H0.838749V208.733H5.47394V209.734H1.86879V217.886H3.42857ZM22.836 219.019H12.1235V218.004H14.8752V215.179H12.6974V214.163H14.6545V209.837H12.8004V208.822H22.1444V209.837H20.305V214.163H22.2621V215.179H20.0843V218.004H22.836V219.019ZM19.2455 214.163V209.837H15.7139V214.163H19.2455ZM19.0101 218.004V215.179H15.9347V218.004H19.0101ZM24.2617 214.811V208.513H25.2918V210.558H29.4267V208.513H30.4861V211.117H32.7669V208.292H33.8264V216.694H32.7669V212.162H30.4861V214.811H24.2617ZM29.4267 211.515H25.2918V213.854H29.4267V211.515ZM34.0766 219.417H24.7768V215.87H25.851V218.401H34.0766V219.417ZM35.8114 210.852V209.837H40.2258V208.145H41.3V209.837H45.7439V210.852H35.8114ZM46.1412 219.019H35.4288V218.019H40.2553V216.12C39.0585 216.071 38.102 215.87 37.3859 215.517C36.6796 215.154 36.3264 214.624 36.3264 213.928C36.3264 213.172 36.7335 212.613 37.5477 212.25C38.362 211.887 39.4411 211.706 40.785 211.706C42.1192 211.706 43.1933 211.887 44.0076 212.25C44.8218 212.613 45.2289 213.172 45.2289 213.928C45.2289 214.624 44.8708 215.154 44.1547 215.517C43.4484 215.87 42.5017 216.071 41.3147 216.12V218.019H46.1412V219.019ZM37.4153 213.928C37.4153 214.359 37.7194 214.678 38.3276 214.884C38.9457 215.09 39.7648 215.193 40.785 215.193C41.7954 215.193 42.6048 215.09 43.213 214.884C43.831 214.678 44.14 214.359 44.14 213.928C44.14 213.486 43.831 213.163 43.213 212.957C42.6048 212.751 41.7954 212.648 40.785 212.648C39.7648 212.648 38.9457 212.751 38.3276 212.957C37.7194 213.163 37.4153 213.486 37.4153 213.928ZM51.095 211.618C50.8595 211.618 50.6633 211.539 50.5064 211.382C50.3494 211.225 50.2709 211.029 50.2709 210.794C50.2709 210.558 50.3494 210.367 50.5064 210.22C50.6633 210.063 50.8595 209.984 51.095 209.984C51.3304 209.984 51.5266 210.063 51.6836 210.22C51.8405 210.367 51.919 210.558 51.919 210.794C51.919 211.029 51.8405 211.225 51.6836 211.382C51.5266 211.539 51.3304 211.618 51.095 211.618ZM51.095 217.901C50.8693 217.901 50.6731 217.822 50.5064 217.665C50.3494 217.508 50.2709 217.312 50.2709 217.077C50.2709 216.841 50.3494 216.645 50.5064 216.488C50.6731 216.331 50.8693 216.253 51.095 216.253C51.3206 216.253 51.5119 216.331 51.6689 216.488C51.8356 216.645 51.919 216.841 51.919 217.077C51.919 217.312 51.8356 217.508 51.6689 217.665C51.5119 217.822 51.3206 217.901 51.095 217.901ZM61.0029 219.093H59.8699V209.764H57.4566V208.792H61.0029V219.093ZM68.1587 213.001C71.0134 213.001 72.4407 214.021 72.4407 216.062C72.4407 216.66 72.2985 217.195 72.014 217.665C71.7393 218.136 71.3175 218.509 70.7485 218.784C70.1893 219.058 69.4977 219.196 68.6737 219.196C67.9281 219.196 67.2218 219.073 66.5547 218.828C65.8877 218.583 65.3579 218.259 64.9655 217.857L65.4953 216.989C65.819 217.342 66.2604 217.631 66.8196 217.857C67.3886 218.073 68.0017 218.18 68.659 218.18C69.5026 218.18 70.1501 217.989 70.6013 217.607C71.0624 217.224 71.2929 216.719 71.2929 216.091C71.2929 215.394 71.0379 214.87 70.5278 214.516C70.0176 214.163 69.1446 213.987 67.9085 213.987H65.6866L66.231 208.792H71.8815V209.764H67.1875L66.8343 213.001H68.1587ZM76.9919 213.001C79.8466 213.001 81.2739 214.021 81.2739 216.062C81.2739 216.66 81.1317 217.195 80.8472 217.665C80.5725 218.136 80.1507 218.509 79.5817 218.784C79.0226 219.058 78.331 219.196 77.5069 219.196C76.7614 219.196 76.0551 219.073 75.388 218.828C74.7209 218.583 74.1912 218.259 73.7988 217.857L74.3285 216.989C74.6522 217.342 75.0937 217.631 75.6529 217.857C76.2218 218.073 76.8349 218.18 77.4922 218.18C78.3359 218.18 78.9833 217.989 79.4346 217.607C79.8956 217.224 80.1262 216.719 80.1262 216.091C80.1262 215.394 79.8711 214.87 79.361 214.516C78.8509 214.163 77.9778 213.987 76.7418 213.987H74.5198L75.0643 208.792H80.7148V209.764H76.0207L75.6676 213.001H76.9919ZM87.5026 219.093H86.3696V209.764H83.9564V208.792H87.5026V219.093ZM95.6737 213.472V214.413H91.7743V213.472H95.6737ZM101.716 219.093H100.583V209.764H98.1697V208.792H101.716V219.093ZM108.872 213.001C111.726 213.001 113.154 214.021 113.154 216.062C113.154 216.66 113.012 217.195 112.727 217.665C112.452 218.136 112.031 218.509 111.462 218.784C110.902 219.058 110.211 219.196 109.387 219.196C108.641 219.196 107.935 219.073 107.268 218.828C106.601 218.583 106.071 218.259 105.679 217.857L106.208 216.989C106.532 217.342 106.974 217.631 107.533 217.857C108.102 218.073 108.715 218.18 109.372 218.18C110.216 218.18 110.863 217.989 111.314 217.607C111.776 217.224 112.006 216.719 112.006 216.091C112.006 215.394 111.751 214.87 111.241 214.516C110.731 214.163 109.858 213.987 108.622 213.987H106.4L106.944 208.792H112.595V209.764H107.901L107.547 213.001H108.872ZM118.5 213.207C119.579 213.256 120.398 213.545 120.957 214.075C121.526 214.595 121.81 215.282 121.81 216.135C121.81 216.724 121.668 217.249 121.384 217.71C121.099 218.171 120.673 218.534 120.104 218.798C119.544 219.063 118.863 219.196 118.058 219.196C117.303 219.196 116.592 219.078 115.925 218.843C115.267 218.597 114.742 218.269 114.35 217.857L114.85 216.989C115.194 217.342 115.645 217.631 116.204 217.857C116.773 218.073 117.381 218.18 118.029 218.18C118.872 218.18 119.52 217.999 119.971 217.636C120.432 217.273 120.663 216.773 120.663 216.135C120.663 215.488 120.437 214.987 119.986 214.634C119.535 214.281 118.843 214.104 117.911 214.104H117.161V213.31L119.986 209.764H114.762V208.792H121.398V209.558L118.5 213.207ZM128.216 219.093H127.083V209.764H124.669V208.792H128.216V219.093ZM137.222 208.174V221.933H136.177V208.174H137.222ZM147.332 211.779C146.822 212.476 146.155 213.035 145.331 213.457C144.507 213.879 143.604 214.134 142.623 214.222V213.192C143.771 213.084 144.757 212.716 145.581 212.088C146.405 211.451 146.925 210.632 147.141 209.631H142.888V208.616H152.335V209.631H148.274C148.215 210.082 148.087 210.514 147.891 210.926L152.659 213.236L152.203 214.163L147.332 211.779ZM148.127 216.562V219.858H147.052V216.562H142.255V215.532H152.968V216.562H148.127ZM159.117 211.868C158.499 212.888 157.749 213.697 156.866 214.296C155.983 214.894 155.066 215.193 154.114 215.193V214.134C154.889 214.134 155.635 213.879 156.351 213.369C157.067 212.849 157.68 212.147 158.19 211.264C158.71 210.382 159.068 209.41 159.264 208.351L160.353 208.572C160.196 209.405 159.941 210.205 159.588 210.97L164.326 214.355L163.752 215.223L159.117 211.868ZM164.62 217.974V219.019H153.908V217.974H158.72V214.664H159.794V217.974H164.62ZM169.574 211.618C169.339 211.618 169.143 211.539 168.986 211.382C168.829 211.225 168.75 211.029 168.75 210.794C168.75 210.558 168.829 210.367 168.986 210.22C169.143 210.063 169.339 209.984 169.574 209.984C169.81 209.984 170.006 210.063 170.163 210.22C170.32 210.367 170.398 210.558 170.398 210.794C170.398 211.029 170.32 211.225 170.163 211.382C170.006 211.539 169.81 211.618 169.574 211.618ZM169.574 217.901C169.349 217.901 169.152 217.822 168.986 217.665C168.829 217.508 168.75 217.312 168.75 217.077C168.75 216.841 168.829 216.645 168.986 216.488C169.152 216.331 169.349 216.253 169.574 216.253C169.8 216.253 169.991 216.331 170.148 216.488C170.315 216.645 170.398 216.841 170.398 217.077C170.398 217.312 170.315 217.508 170.148 217.665C169.991 217.822 169.8 217.901 169.574 217.901ZM175.303 214.266V208.513H176.348V210.22H183.411V208.513H184.456V214.266H175.303ZM183.411 211.206H176.348V213.266H183.411V211.206ZM180.424 216.577V219.858H179.335V216.577H174.523V215.546H185.236V216.577H180.424ZM197.403 212.015H195.844V216.694H194.784V208.292H195.844V210.941H197.403V212.015ZM189.737 212.206C189.354 212.952 188.864 213.565 188.265 214.046C187.667 214.526 186.985 214.825 186.22 214.943V213.898C186.897 213.761 187.486 213.428 187.986 212.898C188.496 212.368 188.883 211.711 189.148 210.926C189.413 210.141 189.546 209.302 189.546 208.41L190.62 208.469C190.62 209.479 190.473 210.406 190.178 211.25L193.636 214.031L192.989 214.84L189.737 212.206ZM196.167 218.401V219.417H186.941V215.9H188.015V218.401H196.167ZM209.056 211.956H207.526V215.046H206.451V208.292H207.526V210.926H209.056V211.956ZM198.373 209.455V208.498H204.391V212.456H203.332V209.455H198.373ZM205.495 213.854C204.848 214.149 203.611 214.296 201.787 214.296H197.829V213.369H200.065V210.911H201.125V213.369H201.831C203.587 213.369 204.808 213.222 205.495 212.927V213.854ZM203.111 215.282C204.494 215.282 205.608 215.463 206.451 215.826C207.295 216.179 207.717 216.724 207.717 217.459C207.717 218.195 207.295 218.74 206.451 219.093C205.618 219.446 204.504 219.623 203.111 219.623C201.718 219.623 200.595 219.446 199.741 219.093C198.898 218.74 198.476 218.195 198.476 217.459C198.476 216.724 198.898 216.179 199.741 215.826C200.595 215.463 201.718 215.282 203.111 215.282ZM203.111 218.725C204.151 218.725 204.995 218.622 205.642 218.416C206.29 218.21 206.613 217.891 206.613 217.459C206.613 217.018 206.29 216.694 205.642 216.488C204.995 216.282 204.151 216.179 203.111 216.179C202.062 216.179 201.213 216.282 200.566 216.488C199.918 216.694 199.594 217.018 199.594 217.459C199.594 217.891 199.918 218.21 200.566 218.416C201.213 218.622 202.062 218.725 203.111 218.725ZM219.531 215.046H218.487V213.516H216.456L216.53 212.515H218.487V210.573H216.53L216.456 209.587H218.487V208.292H219.531V215.046ZM216.162 211.544C216.162 212.142 216.029 212.677 215.764 213.148C215.5 213.619 215.117 213.992 214.617 214.266C214.126 214.531 213.547 214.664 212.88 214.664C212.223 214.664 211.644 214.531 211.144 214.266C210.653 213.992 210.271 213.619 209.996 213.148C209.731 212.667 209.599 212.133 209.599 211.544C209.599 210.955 209.731 210.426 209.996 209.955C210.271 209.474 210.653 209.101 211.144 208.836C211.644 208.562 212.223 208.424 212.88 208.424C213.547 208.424 214.126 208.562 214.617 208.836C215.117 209.101 215.5 209.469 215.764 209.94C216.029 210.411 216.162 210.946 216.162 211.544ZM210.673 211.544C210.673 212.211 210.874 212.741 211.276 213.133C211.688 213.526 212.223 213.722 212.88 213.722C213.538 213.722 214.072 213.526 214.484 213.133C214.896 212.741 215.102 212.211 215.102 211.544C215.102 210.877 214.896 210.347 214.484 209.955C214.082 209.562 213.547 209.366 212.88 209.366C212.223 209.366 211.688 209.562 211.276 209.955C210.874 210.347 210.673 210.877 210.673 211.544ZM219.531 215.708V219.564H218.457V216.694H210.511V215.708H219.531ZM231.111 219.593H230.036V208.292H231.111V219.593ZM225.872 208.616C225.852 210.401 225.7 211.966 225.416 213.31L228.962 218.21L228.109 218.857L225.077 214.605C224.695 215.89 224.185 216.905 223.547 217.651C222.919 218.386 222.188 218.798 221.355 218.887V217.783C222.08 217.656 222.699 217.17 223.209 216.326C223.719 215.473 224.106 214.374 224.371 213.03C224.636 211.686 224.773 210.205 224.783 208.586L225.872 208.616ZM236.476 214.266V208.513H237.521V210.22H244.584V208.513H245.629V214.266H236.476ZM244.584 211.206H237.521V213.266H244.584V211.206ZM241.597 216.577V219.858H240.508V216.577H235.696V215.546H246.409V216.577H241.597ZM258.576 212.015H257.017V216.694H255.957V208.292H257.017V210.941H258.576V212.015ZM250.91 212.206C250.527 212.952 250.037 213.565 249.439 214.046C248.84 214.526 248.158 214.825 247.393 214.943V213.898C248.07 213.761 248.659 213.428 249.159 212.898C249.669 212.368 250.057 211.711 250.321 210.926C250.586 210.141 250.719 209.302 250.719 208.41L251.793 208.469C251.793 209.479 251.646 210.406 251.351 211.25L254.809 214.031L254.162 214.84L250.91 212.206ZM257.34 218.401V219.417H248.114V215.9H249.188V218.401H257.34ZM267.904 216.694V208.292H268.978V216.694H267.904ZM262.872 212.28C262.509 213.025 262.018 213.629 261.4 214.09C260.792 214.551 260.091 214.835 259.296 214.943V213.913C260.228 213.756 260.978 213.295 261.547 212.53C262.116 211.765 262.425 210.784 262.474 209.587H259.428V208.616H266.374V209.587H263.534C263.524 210.225 263.436 210.808 263.269 211.338L266.683 214.031L266.094 214.855L262.872 212.28ZM269.287 219.417H259.958V215.9H261.032V218.401H269.287V219.417ZM271.39 209.631V208.586H280.572V213.692H279.469V209.631H271.39ZM276.481 215.782V219.858H275.407V215.782H270.654V214.708H281.367V215.782H276.481ZM295.929 214.487H285.217V213.575H290.043V212.28H286.026V208.454H295.135V209.366H287.086V211.367H295.252V212.28H291.103V213.575H295.929V214.487ZM290.573 215.532C291.966 215.532 293.094 215.694 293.957 216.017C294.831 216.331 295.267 216.846 295.267 217.562C295.267 218.279 294.831 218.798 293.957 219.122C293.094 219.446 291.966 219.608 290.573 219.608C289.18 219.608 288.047 219.446 287.174 219.122C286.311 218.798 285.879 218.279 285.879 217.562C285.879 216.846 286.311 216.331 287.174 216.017C288.047 215.694 289.18 215.532 290.573 215.532ZM290.573 218.71C291.583 218.71 292.432 218.622 293.119 218.445C293.805 218.259 294.149 217.965 294.149 217.562C294.149 217.17 293.805 216.886 293.119 216.709C292.432 216.523 291.583 216.429 290.573 216.429C289.563 216.429 288.709 216.523 288.013 216.709C287.326 216.886 286.983 217.17 286.983 217.562C286.983 217.965 287.326 218.259 288.013 218.445C288.699 218.622 289.553 218.71 290.573 218.71ZM300.548 212.854C300.205 213.54 299.734 214.095 299.136 214.516C298.537 214.928 297.855 215.188 297.09 215.296V214.296C297.983 214.139 298.699 213.732 299.239 213.074C299.778 212.417 300.082 211.554 300.151 210.485H297.208V209.513H300.151V208.086H301.225V209.513H304.109V210.485H301.225C301.196 211.014 301.112 211.495 300.975 211.927L304.286 214.384L303.712 215.237L300.548 212.854ZM305.86 208.292H306.92V216.738H305.86V212.53H303.682V211.5H305.86V208.292ZM307.17 219.417H297.87V216.297H298.944V218.416H307.17V219.417ZM319.235 219.019H308.522V218.004H313.319V215.679H309.287V211.706H317.454V209.734H309.273V208.733H318.514V212.677H310.332V214.678H318.675V215.679H314.379V218.004H319.235V219.019ZM324.188 217.548C324.424 217.548 324.62 217.626 324.777 217.783C324.934 217.94 325.012 218.131 325.012 218.357C325.012 218.475 324.993 218.602 324.953 218.74C324.924 218.877 324.88 219.034 324.821 219.21L324.188 221.256H323.408L323.923 219.122C323.757 219.073 323.624 218.98 323.526 218.843C323.428 218.705 323.379 218.543 323.379 218.357C323.379 218.122 323.457 217.93 323.614 217.783C323.771 217.626 323.963 217.548 324.188 217.548ZM335.715 216.4V219.093H334.597V216.4H328.799V215.605L334.229 208.792H335.465L330.226 215.414H334.611V213.045H335.715V215.414H337.76V216.4H335.715ZM342.988 211.367C342.468 211.848 341.792 212.216 340.958 212.471C340.134 212.716 339.285 212.849 338.412 212.868V211.985C339.403 211.956 340.33 211.76 341.193 211.397C342.056 211.034 342.601 210.529 342.827 209.881H338.633V208.998H342.797V207.836H343.871V208.998H348.021V209.881H343.974C343.935 210.146 343.832 210.401 343.665 210.646L348.271 212.03L348.006 212.898L342.988 211.367ZM348.683 214.752H337.971V213.84H348.683V214.752ZM343.327 215.855C344.72 215.855 345.848 216.003 346.711 216.297C347.584 216.581 348.021 217.057 348.021 217.724C348.021 218.391 347.589 218.867 346.726 219.152C345.863 219.446 344.73 219.593 343.327 219.593C341.924 219.593 340.786 219.446 339.913 219.152C339.05 218.867 338.618 218.391 338.618 217.724C338.618 217.057 339.05 216.581 339.913 216.297C340.786 216.003 341.924 215.855 343.327 215.855ZM343.327 218.725C344.347 218.725 345.201 218.646 345.887 218.489C346.584 218.333 346.932 218.077 346.932 217.724C346.932 217.371 346.589 217.121 345.902 216.974C345.215 216.817 344.357 216.738 343.327 216.738C342.297 216.738 341.434 216.817 340.737 216.974C340.05 217.121 339.707 217.371 339.707 217.724C339.707 218.077 340.055 218.333 340.752 218.489C341.448 218.646 342.307 218.725 343.327 218.725ZM359.111 216.4V219.093H357.992V216.4H352.195V215.605L357.625 208.792H358.861L353.622 215.414H358.007V213.045H359.111V215.414H361.156V216.4H359.111ZM365.31 219.196C364.515 219.196 363.804 218.985 363.176 218.563C362.549 218.131 362.058 217.518 361.705 216.724C361.352 215.929 361.175 215.002 361.175 213.943C361.175 212.883 361.352 211.956 361.705 211.161C362.058 210.367 362.549 209.759 363.176 209.337C363.804 208.905 364.515 208.689 365.31 208.689C366.114 208.689 366.826 208.905 367.444 209.337C368.071 209.759 368.562 210.367 368.915 211.161C369.268 211.946 369.445 212.873 369.445 213.943C369.445 215.012 369.268 215.944 368.915 216.738C368.562 217.523 368.071 218.131 367.444 218.563C366.826 218.985 366.114 219.196 365.31 219.196ZM365.31 218.18C365.908 218.18 366.428 218.019 366.87 217.695C367.321 217.361 367.669 216.876 367.915 216.238C368.17 215.6 368.297 214.835 368.297 213.943C368.297 213.05 368.17 212.285 367.915 211.647C367.669 211.009 367.321 210.529 366.87 210.205C366.428 209.871 365.908 209.705 365.31 209.705C364.721 209.705 364.201 209.871 363.75 210.205C363.299 210.529 362.951 211.009 362.705 211.647C362.46 212.285 362.338 213.05 362.338 213.943C362.338 214.835 362.46 215.6 362.705 216.238C362.951 216.876 363.299 217.361 363.75 217.695C364.201 218.019 364.721 218.18 365.31 218.18ZM377.793 219.093H370.523V218.313L374.791 214.104C375.33 213.575 375.693 213.123 375.88 212.751C376.076 212.378 376.174 211.995 376.174 211.603C376.174 211.004 375.968 210.539 375.556 210.205C375.144 209.862 374.555 209.69 373.79 209.69C372.583 209.69 371.661 210.082 371.024 210.867L370.2 210.249C370.592 209.749 371.102 209.366 371.73 209.101C372.358 208.827 373.074 208.689 373.878 208.689C374.918 208.689 375.747 208.944 376.365 209.455C376.993 209.955 377.307 210.637 377.307 211.5C377.307 212.039 377.189 212.55 376.954 213.03C376.718 213.511 376.277 214.07 375.629 214.708L372.186 218.107H377.793V219.093ZM386.714 209.558L382.403 219.093H381.152L385.39 209.778H380.151V211.691H379.106V208.792H386.714V209.558ZM388.249 210.852V209.837H392.663V208.145H393.737V209.837H398.181V210.852H388.249ZM398.579 219.019H387.866V218.019H392.693V216.12C391.496 216.071 390.539 215.87 389.823 215.517C389.117 215.154 388.764 214.624 388.764 213.928C388.764 213.172 389.171 212.613 389.985 212.25C390.799 211.887 391.878 211.706 393.222 211.706C394.557 211.706 395.631 211.887 396.445 212.25C397.259 212.613 397.666 213.172 397.666 213.928C397.666 214.624 397.308 215.154 396.592 215.517C395.886 215.87 394.939 216.071 393.752 216.12V218.019H398.579V219.019ZM389.853 213.928C389.853 214.359 390.157 214.678 390.765 214.884C391.383 215.09 392.202 215.193 393.222 215.193C394.233 215.193 395.042 215.09 395.65 214.884C396.268 214.678 396.577 214.359 396.577 213.928C396.577 213.486 396.268 213.163 395.65 212.957C395.042 212.751 394.233 212.648 393.222 212.648C392.202 212.648 391.383 212.751 390.765 212.957C390.157 213.163 389.853 213.486 389.853 213.928ZM401.785 219.814C401.314 219.049 400.951 218.166 400.696 217.165C400.441 216.165 400.313 215.09 400.313 213.943C400.313 212.795 400.441 211.716 400.696 210.705C400.951 209.695 401.314 208.817 401.785 208.071H402.727C402.226 208.905 401.858 209.808 401.623 210.779C401.388 211.74 401.27 212.795 401.27 213.943C401.27 215.09 401.388 216.15 401.623 217.121C401.858 218.082 402.226 218.98 402.727 219.814H401.785ZM412.635 208.292H413.695V216.709H412.635V212.015H410.428V211.029H412.635V208.292ZM407.411 212.383C407.058 213.138 406.578 213.746 405.969 214.207C405.361 214.668 404.66 214.948 403.865 215.046V214.016C404.797 213.869 405.538 213.403 406.087 212.618C406.646 211.833 406.955 210.823 407.014 209.587H403.998V208.616H410.869V209.587H408.074C408.044 210.293 407.951 210.906 407.794 211.426L411.149 214.134L410.546 214.958L407.411 212.383ZM413.945 219.417H404.645V215.9H405.719V218.401H413.945V219.417ZM426.009 219.019H415.297V217.974H420.094V215.237H415.871V214.222H417.828V209.852H415.974V208.822H425.318V209.852H423.479V214.222H425.436V215.237H421.198V217.974H426.009V219.019ZM422.419 214.222V209.852H418.887V214.222H422.419ZM437.662 214.487H426.95V213.575H431.776V212.28H427.759V208.454H436.868V209.366H428.818V211.367H436.985V212.28H432.836V213.575H437.662V214.487ZM432.306 215.532C433.699 215.532 434.827 215.694 435.69 216.017C436.563 216.331 437 216.846 437 217.562C437 218.279 436.563 218.798 435.69 219.122C434.827 219.446 433.699 219.608 432.306 219.608C430.913 219.608 429.78 219.446 428.907 219.122C428.043 218.798 427.612 218.279 427.612 217.562C427.612 216.846 428.043 216.331 428.907 216.017C429.78 215.694 430.913 215.532 432.306 215.532ZM432.306 218.71C433.316 218.71 434.165 218.622 434.852 218.445C435.538 218.259 435.882 217.965 435.882 217.562C435.882 217.17 435.538 216.886 434.852 216.709C434.165 216.523 433.316 216.429 432.306 216.429C431.295 216.429 430.442 216.523 429.745 216.709C429.059 216.886 428.715 217.17 428.715 217.562C428.715 217.965 429.059 218.259 429.745 218.445C430.432 218.622 431.286 218.71 432.306 218.71ZM439.706 217.548C439.941 217.548 440.138 217.626 440.295 217.783C440.451 217.94 440.53 218.131 440.53 218.357C440.53 218.475 440.51 218.602 440.471 218.74C440.442 218.877 440.398 219.034 440.339 219.21L439.706 221.256H438.926L439.441 219.122C439.274 219.073 439.142 218.98 439.044 218.843C438.946 218.705 438.897 218.543 438.897 218.357C438.897 218.122 438.975 217.93 439.132 217.783C439.289 217.626 439.48 217.548 439.706 217.548ZM451.722 219.593H450.648V208.292H451.722V219.593ZM446.248 209.764C446.238 211.117 446.125 212.368 445.909 213.516L449.485 218.122L448.646 218.784L445.571 214.752C445.218 215.968 444.737 216.935 444.129 217.651C443.521 218.357 442.814 218.769 442.01 218.887V217.783C442.657 217.646 443.217 217.219 443.687 216.503C444.158 215.777 444.521 214.835 444.776 213.678C445.031 212.51 445.169 211.206 445.188 209.764H442.245V208.733H449.102V209.764H446.248ZM464.11 219.019H453.398V217.974H458.209V215.385C457.356 215.336 456.606 215.164 455.958 214.87C455.32 214.565 454.825 214.168 454.472 213.678C454.129 213.177 453.957 212.608 453.957 211.971C453.957 211.284 454.153 210.681 454.545 210.161C454.948 209.641 455.507 209.239 456.223 208.954C456.949 208.67 457.793 208.527 458.754 208.527C459.715 208.527 460.554 208.67 461.27 208.954C461.996 209.239 462.555 209.641 462.948 210.161C463.35 210.681 463.551 211.284 463.551 211.971C463.551 212.608 463.374 213.177 463.021 213.678C462.678 214.168 462.182 214.565 461.535 214.87C460.888 215.164 460.137 215.336 459.284 215.385V217.974H464.11V219.019ZM455.06 211.971C455.06 212.451 455.213 212.873 455.517 213.236C455.821 213.599 456.252 213.884 456.812 214.09C457.371 214.286 458.018 214.384 458.754 214.384C459.49 214.384 460.137 214.286 460.696 214.09C461.255 213.884 461.687 213.599 461.991 213.236C462.295 212.873 462.447 212.451 462.447 211.971C462.447 211.49 462.295 211.068 461.991 210.705C461.687 210.333 461.255 210.048 460.696 209.852C460.137 209.646 459.49 209.543 458.754 209.543C458.018 209.543 457.371 209.646 456.812 209.852C456.252 210.048 455.821 210.333 455.517 210.705C455.213 211.068 455.06 211.49 455.06 211.971ZM465.683 212.236V211.382H467.655V209.307H465.801V208.454H475.012V209.307H473.158V211.382H475.115V212.236H465.683ZM472.113 211.382V209.307H468.7V211.382H472.113ZM475.763 214.163H465.05V213.28H475.763V214.163ZM475.189 218.651V219.431H465.83V216.944H473.968V215.973H465.801V215.193H474.998V217.651H466.86V218.651H475.189ZM486.974 219.593H485.959V208.292H486.974V219.593ZM484.384 208.351V219.402H483.369V214.075H481.941V213.03H483.369V208.351H484.384ZM479.057 217.916C480.411 217.916 481.49 217.729 482.295 217.356V218.357C481.539 218.71 480.445 218.887 479.013 218.887H477.071V213.251H480.279V209.705H477.071V208.733H481.294V214.222H478.071V217.916H479.057ZM497.258 219.593V208.292H498.332V219.593H497.258ZM492.078 208.586C493.059 208.586 493.839 209.028 494.418 209.911C495.007 210.794 495.301 212.093 495.301 213.81C495.301 215.527 495.007 216.827 494.418 217.71C493.839 218.592 493.059 219.034 492.078 219.034C491.097 219.034 490.313 218.592 489.724 217.71C489.145 216.827 488.856 215.527 488.856 213.81C488.856 212.093 489.145 210.794 489.724 209.911C490.313 209.028 491.097 208.586 492.078 208.586ZM492.078 209.602C491.421 209.602 490.896 209.955 490.504 210.661C490.112 211.358 489.915 212.407 489.915 213.81C489.915 215.223 490.112 216.277 490.504 216.974C490.896 217.67 491.421 218.019 492.078 218.019C492.716 218.019 493.236 217.67 493.638 216.974C494.04 216.268 494.242 215.213 494.242 213.81C494.242 212.417 494.04 211.367 493.638 210.661C493.236 209.955 492.716 209.602 492.078 209.602ZM505.203 211.941C504.585 212.981 503.834 213.815 502.951 214.443C502.078 215.061 501.166 215.37 500.214 215.37V214.31C500.989 214.31 501.735 214.041 502.451 213.501C503.167 212.962 503.78 212.241 504.29 211.338C504.81 210.426 505.168 209.43 505.364 208.351L506.453 208.572C506.296 209.405 506.032 210.234 505.659 211.058L510.426 214.531L509.852 215.399L505.203 211.941ZM510.721 217.974V219.019H500.008V217.974H510.721ZM511.646 219.814C512.146 218.98 512.509 218.077 512.735 217.106C512.97 216.135 513.088 215.081 513.088 213.943C513.088 212.805 512.97 211.75 512.735 210.779C512.509 209.808 512.146 208.905 511.646 208.071H512.573C513.044 208.817 513.402 209.695 513.647 210.705C513.902 211.706 514.03 212.785 514.03 213.943C514.03 215.09 513.902 216.165 513.647 217.165C513.402 218.166 513.044 219.049 512.573 219.814H511.646ZM10.7419 245.593H9.71183V239.972H7.68117V245.402H6.66584V234.351H7.68117V238.927H9.71183V234.292H10.7419V245.593ZM5.16493 234.733V237.706C5.16493 239.119 4.97854 240.364 4.60576 241.443C4.24279 242.523 3.72777 243.361 3.0607 243.96C2.39362 244.558 1.62354 244.857 0.750459 244.857V243.813C1.43715 243.803 2.03556 243.543 2.54568 243.033C3.05579 242.523 3.44819 241.816 3.72287 240.914C4.00735 240.001 4.1496 238.952 4.1496 237.765V235.749H0.750459V234.733H5.16493ZM21.026 242.694V234.292H22.1002V242.694H21.026ZM15.6404 234.424C16.3271 234.424 16.9255 234.567 17.4356 234.851C17.9457 235.126 18.3332 235.513 18.5981 236.014C18.8727 236.504 19.0101 237.063 19.0101 237.691C19.0101 238.319 18.8727 238.883 18.5981 239.383C18.3332 239.874 17.9457 240.261 17.4356 240.546C16.9255 240.821 16.3271 240.958 15.6404 240.958C14.9537 240.958 14.3553 240.821 13.8452 240.546C13.335 240.261 12.9426 239.874 12.668 239.383C12.3933 238.883 12.2559 238.319 12.2559 237.691C12.2559 237.063 12.3933 236.504 12.668 236.014C12.9426 235.513 13.335 235.126 13.8452 234.851C14.3553 234.567 14.9537 234.424 15.6404 234.424ZM15.6404 235.366C14.9439 235.366 14.3847 235.577 13.9629 235.999C13.541 236.421 13.3301 236.985 13.3301 237.691C13.3301 238.397 13.541 238.962 13.9629 239.383C14.3847 239.795 14.9439 240.001 15.6404 240.001C16.3369 240.001 16.896 239.795 17.3179 239.383C17.7397 238.962 17.9506 238.397 17.9506 237.691C17.9506 236.985 17.7397 236.421 17.3179 235.999C16.896 235.577 16.3369 235.366 15.6404 235.366ZM22.4092 244.401V245.417H13.1977V241.767H14.2719V244.401H22.4092ZM32.7669 234.292H33.8264V240.649H32.7669V237.47H30.5597V236.499H32.7669V234.292ZM27.5284 237.941C27.1753 238.589 26.6946 239.119 26.0864 239.531C25.4782 239.933 24.7817 240.183 23.9969 240.281V239.28C24.919 239.133 25.6498 238.736 26.1894 238.088C26.7388 237.431 27.0527 236.592 27.1311 235.572H24.1293V234.616H31.0012V235.572H28.2053C28.1759 236.112 28.0876 236.602 27.9405 237.044L31.3543 239.339L30.8099 240.178L27.5284 237.941ZM29.3237 241.061C30.7069 241.061 31.8154 241.247 32.6492 241.62C33.4929 241.983 33.9147 242.547 33.9147 243.312C33.9147 244.077 33.4929 244.646 32.6492 245.019C31.8154 245.382 30.7069 245.564 29.3237 245.564C27.9405 245.564 26.8319 245.382 25.9981 245.019C25.1643 244.646 24.7473 244.077 24.7473 243.312C24.7473 242.547 25.1643 241.983 25.9981 241.62C26.8319 241.247 27.9405 241.061 29.3237 241.061ZM29.3237 244.637C30.3537 244.637 31.1876 244.524 31.8252 244.298C32.4727 244.073 32.7964 243.744 32.7964 243.312C32.7964 242.881 32.4727 242.552 31.8252 242.326C31.1777 242.101 30.3439 241.988 29.3237 241.988C28.3034 241.988 27.4696 242.101 26.8221 242.326C26.1845 242.552 25.8657 242.881 25.8657 243.312C25.8657 243.744 26.1845 244.073 26.8221 244.298C27.4696 244.524 28.3034 244.637 29.3237 244.637ZM46.1412 245.019H35.4288V243.974H40.2406V241.252H36.1793V234.645H37.224V236.794H44.346V234.645H45.3908V241.252H41.3147V243.974H46.1412V245.019ZM44.346 240.252V237.794H37.224V240.252H44.346ZM52.846 238.795C52.2967 240.08 51.3844 240.825 50.1091 241.031V240.046C50.7958 239.889 51.3255 239.511 51.6983 238.913C52.0809 238.304 52.2918 237.485 52.331 236.455H50.2415V235.484H52.331V234.101H53.3758V235.484H55.4212V236.455H53.3758C53.366 236.877 53.3071 237.323 53.1992 237.794L55.686 240.252L55.0386 240.987L52.846 238.795ZM60.2623 241.399H59.247V238.059H57.3047V241.282H56.304V234.351H57.3047V237.014H59.247V234.292H60.2623V241.399ZM60.2623 242.062V245.564H59.2029V243.018H50.8743V242.062H60.2623ZM70.5465 240.443V234.292H71.6207V240.443H70.5465ZM65.1756 234.424C65.8525 234.424 66.441 234.547 66.9414 234.792C67.4515 235.028 67.839 235.361 68.1038 235.793C68.3785 236.225 68.5158 236.72 68.5158 237.279C68.5158 237.838 68.3785 238.334 68.1038 238.765C67.839 239.197 67.4515 239.535 66.9414 239.781C66.441 240.016 65.8525 240.134 65.1756 240.134C64.4987 240.134 63.9052 240.016 63.3951 239.781C62.8948 239.535 62.5073 239.197 62.2326 238.765C61.9677 238.334 61.8353 237.838 61.8353 237.279C61.8353 236.72 61.9677 236.225 62.2326 235.793C62.5073 235.361 62.8948 235.028 63.3951 234.792C63.9052 234.547 64.4987 234.424 65.1756 234.424ZM65.1756 235.352C64.4889 235.352 63.9346 235.523 63.5128 235.867C63.1008 236.21 62.8948 236.681 62.8948 237.279C62.8948 237.878 63.1008 238.348 63.5128 238.692C63.9346 239.035 64.4889 239.207 65.1756 239.207C65.8525 239.207 66.3969 239.035 66.8089 238.692C67.2307 238.348 67.4417 237.878 67.4417 237.279C67.4417 236.681 67.2307 236.21 66.8089 235.867C66.3969 235.523 65.8525 235.352 65.1756 235.352ZM62.7182 245.417V241.105H71.6207V245.417H62.7182ZM70.5465 242.062H63.7777V244.46H70.5465V242.062ZM84.5241 238.515H82.9937V242.886H81.9196V234.292H82.9937V237.47H84.5241V238.515ZM73.8411 235.484V234.498H79.8595V238.883H78.8V235.484H73.8411ZM80.9631 240.502C80.3254 240.806 79.0894 240.958 77.2549 240.958H73.2966V239.987H75.5333V237.176H76.5928V239.987H77.2991C79.0649 239.987 80.2862 239.835 80.9631 239.531V240.502ZM83.3175 244.445V245.417H74.0912V242.15H75.1507V244.445H83.3175ZM93.8518 245.593V234.292H94.926V245.593H93.8518ZM86.6562 240.222V243.871H89.9965C90.5066 243.871 91.0167 243.822 91.5268 243.724C92.0369 243.626 92.4539 243.494 92.7776 243.327V244.342C92.4539 244.519 92.0369 244.656 91.5268 244.754C91.0167 244.843 90.4968 244.887 89.967 244.887H85.5967V239.222H90.5704V235.749H85.582V234.733H91.6151V240.222H86.6562ZM106.27 240.031V245.593H105.21V234.292H106.27V238.971H107.829V240.031H106.27ZM100.928 235.764C100.908 237.186 100.801 238.442 100.604 239.531L104.121 244.136L103.282 244.784L100.266 240.796C99.9128 242.003 99.437 242.959 98.8386 243.665C98.2402 244.362 97.5437 244.769 96.7491 244.887V243.783C97.3867 243.646 97.9361 243.219 98.3971 242.503C98.8582 241.777 99.2114 240.835 99.4566 239.678C99.7117 238.52 99.849 237.215 99.8686 235.764H96.9845V234.733H103.739V235.764H100.928ZM112.268 237.618C112.033 237.618 111.836 237.539 111.679 237.382C111.523 237.225 111.444 237.029 111.444 236.794C111.444 236.558 111.523 236.367 111.679 236.22C111.836 236.063 112.033 235.984 112.268 235.984C112.504 235.984 112.7 236.063 112.857 236.22C113.014 236.367 113.092 236.558 113.092 236.794C113.092 237.029 113.014 237.225 112.857 237.382C112.7 237.539 112.504 237.618 112.268 237.618ZM112.268 243.901C112.042 243.901 111.846 243.822 111.679 243.665C111.523 243.508 111.444 243.312 111.444 243.077C111.444 242.841 111.523 242.645 111.679 242.488C111.846 242.331 112.042 242.253 112.268 242.253C112.494 242.253 112.685 242.331 112.842 242.488C113.009 242.645 113.092 242.841 113.092 243.077C113.092 243.312 113.009 243.508 112.842 243.665C112.685 243.822 112.494 243.901 112.268 243.901ZM122.573 239.074C121.2 239.074 120.067 238.873 119.174 238.471C118.281 238.059 117.835 237.456 117.835 236.661C117.835 235.876 118.281 235.278 119.174 234.866C120.077 234.444 121.21 234.233 122.573 234.233C123.927 234.233 125.05 234.444 125.943 234.866C126.846 235.278 127.297 235.876 127.297 236.661C127.297 237.456 126.85 238.059 125.958 238.471C125.065 238.873 123.937 239.074 122.573 239.074ZM122.573 235.16C121.553 235.16 120.695 235.293 119.998 235.558C119.302 235.822 118.953 236.19 118.953 236.661C118.953 237.142 119.302 237.515 119.998 237.779C120.695 238.035 121.553 238.162 122.573 238.162C123.594 238.162 124.447 238.035 125.134 237.779C125.83 237.515 126.178 237.142 126.178 236.661C126.178 236.19 125.83 235.822 125.134 235.558C124.437 235.293 123.584 235.16 122.573 235.16ZM127.93 241.031H125.237V243.15H124.163V241.031H122.014V243.15H120.955V241.031H117.217V240.09H127.93V241.031ZM127.356 244.475V245.431H117.982V242.238H119.042V244.475H127.356ZM135.138 237.264V236.264H137.861V234.292H138.92V240.649H137.861V237.264H135.138ZM132.431 237.868C132.058 238.545 131.572 239.104 130.974 239.545C130.376 239.987 129.689 240.266 128.914 240.384V239.369C129.591 239.231 130.174 238.927 130.665 238.456C131.165 237.976 131.543 237.387 131.798 236.691C132.063 235.984 132.2 235.224 132.21 234.41L133.27 234.469C133.27 235.371 133.137 236.2 132.872 236.955L136.212 239.369L135.624 240.163L132.431 237.868ZM134.417 241.061C135.8 241.061 136.909 241.247 137.743 241.62C138.586 241.983 139.008 242.547 139.008 243.312C139.008 244.077 138.586 244.646 137.743 245.019C136.909 245.382 135.8 245.564 134.417 245.564C133.034 245.564 131.926 245.382 131.092 245.019C130.258 244.646 129.841 244.077 129.841 243.312C129.841 242.547 130.258 241.983 131.092 241.62C131.926 241.247 133.034 241.061 134.417 241.061ZM134.417 244.637C135.447 244.637 136.281 244.524 136.919 244.298C137.566 244.073 137.89 243.744 137.89 243.312C137.89 242.881 137.566 242.552 136.919 242.326C136.271 242.101 135.438 241.988 134.417 241.988C133.397 241.988 132.563 242.101 131.916 242.326C131.278 242.552 130.959 242.881 130.959 243.312C130.959 243.744 131.278 244.073 131.916 244.298C132.563 244.524 133.397 244.637 134.417 244.637ZM140.964 235.925V235.043H145.319V233.836H146.394V235.043H150.793V235.925H140.964ZM141.391 238.353C141.391 237.775 141.793 237.338 142.597 237.044C143.411 236.749 144.505 236.602 145.879 236.602C147.242 236.602 148.326 236.749 149.131 237.044C149.935 237.338 150.337 237.775 150.337 238.353C150.337 238.932 149.935 239.369 149.131 239.663C148.326 239.957 147.242 240.104 145.879 240.104C144.505 240.104 143.411 239.957 142.597 239.663C141.793 239.369 141.391 238.932 141.391 238.353ZM149.278 238.353C149.278 238.049 148.964 237.819 148.336 237.662C147.708 237.495 146.889 237.412 145.879 237.412C144.868 237.412 144.049 237.495 143.421 237.662C142.793 237.819 142.479 238.049 142.479 238.353C142.479 238.657 142.793 238.893 143.421 239.06C144.049 239.217 144.868 239.295 145.879 239.295C146.889 239.295 147.708 239.217 148.336 239.06C148.964 238.893 149.278 238.657 149.278 238.353ZM151.235 241.797H146.408V243.312H145.349V241.797H140.522V240.899H151.235V241.797ZM150.661 244.504V245.431H141.302V242.753H142.376V244.504H150.661ZM154.441 245.814C153.97 245.049 153.607 244.166 153.352 243.165C153.097 242.165 152.97 241.09 152.97 239.943C152.97 238.795 153.097 237.716 153.352 236.705C153.607 235.695 153.97 234.817 154.441 234.071H155.383C154.883 234.905 154.515 235.808 154.279 236.779C154.044 237.74 153.926 238.795 153.926 239.943C153.926 241.09 154.044 242.15 154.279 243.121C154.515 244.082 154.883 244.98 155.383 245.814H154.441ZM160.921 237.279C161.598 237.279 162.211 237.446 162.761 237.779C163.31 238.103 163.741 238.564 164.055 239.163C164.379 239.761 164.541 240.443 164.541 241.208C164.541 241.983 164.379 242.67 164.055 243.268C163.741 243.867 163.31 244.333 162.761 244.666C162.211 245 161.598 245.166 160.921 245.166C160.293 245.166 159.729 245.014 159.229 244.71C158.729 244.406 158.336 243.979 158.052 243.43V245.093H157.036V234.174H158.096V238.957C158.371 238.427 158.753 238.015 159.244 237.721C159.744 237.426 160.303 237.279 160.921 237.279ZM160.789 244.195C161.299 244.195 161.76 244.073 162.172 243.827C162.584 243.582 162.903 243.234 163.128 242.783C163.364 242.321 163.482 241.797 163.482 241.208C163.482 240.629 163.364 240.114 163.128 239.663C162.903 239.212 162.584 238.863 162.172 238.618C161.76 238.363 161.299 238.236 160.789 238.236C160.279 238.236 159.818 238.363 159.406 238.618C158.993 238.863 158.67 239.212 158.434 239.663C158.209 240.114 158.096 240.629 158.096 241.208C158.096 241.797 158.209 242.321 158.434 242.783C158.67 243.234 158.993 243.582 159.406 243.827C159.818 244.073 160.279 244.195 160.789 244.195ZM168.851 237.279C169.822 237.279 170.563 237.534 171.073 238.044C171.593 238.545 171.853 239.295 171.853 240.296V245.093H170.852V243.768C170.627 244.21 170.293 244.553 169.852 244.798C169.42 245.044 168.905 245.166 168.307 245.166C167.473 245.166 166.815 244.96 166.335 244.548C165.854 244.136 165.614 243.592 165.614 242.915C165.614 242.258 165.844 241.728 166.305 241.326C166.766 240.924 167.487 240.722 168.468 240.722H170.793C170.793 240.428 170.774 240.178 170.735 239.972C170.646 238.795 169.979 238.206 168.733 238.206C168.262 238.206 167.811 238.29 167.38 238.456C166.948 238.623 166.585 238.849 166.291 239.133L165.834 238.353C166.217 238.01 166.673 237.745 167.203 237.559C167.733 237.372 168.282 237.279 168.851 237.279ZM168.498 244.328C169.636 244.328 170.401 243.808 170.793 242.768V241.473H168.542C167.286 241.473 166.659 241.939 166.659 242.871C166.659 243.322 166.82 243.68 167.144 243.945C167.468 244.2 167.919 244.328 168.498 244.328ZM177.406 245.196C176.612 245.196 175.901 244.985 175.273 244.563C174.645 244.131 174.154 243.518 173.801 242.724C173.448 241.929 173.271 241.002 173.271 239.943C173.271 238.883 173.448 237.956 173.801 237.161C174.154 236.367 174.645 235.759 175.273 235.337C175.901 234.905 176.612 234.689 177.406 234.689C178.211 234.689 178.922 234.905 179.54 235.337C180.168 235.759 180.658 236.367 181.011 237.161C181.365 237.946 181.541 238.873 181.541 239.943C181.541 241.012 181.365 241.944 181.011 242.738C180.658 243.523 180.168 244.131 179.54 244.563C178.922 244.985 178.211 245.196 177.406 245.196ZM177.406 244.18C178.005 244.18 178.525 244.019 178.966 243.695C179.417 243.361 179.766 242.876 180.011 242.238C180.266 241.6 180.393 240.835 180.393 239.943C180.393 239.05 180.266 238.285 180.011 237.647C179.766 237.009 179.417 236.529 178.966 236.205C178.525 235.871 178.005 235.705 177.406 235.705C176.818 235.705 176.298 235.871 175.847 236.205C175.395 236.529 175.047 237.009 174.802 237.647C174.557 238.285 174.434 239.05 174.434 239.943C174.434 240.835 174.557 241.6 174.802 242.238C175.047 242.876 175.395 243.361 175.847 243.695C176.298 244.019 176.818 244.18 177.406 244.18ZM186.24 245.196C185.445 245.196 184.734 244.985 184.106 244.563C183.478 244.131 182.988 243.518 182.634 242.724C182.281 241.929 182.105 241.002 182.105 239.943C182.105 238.883 182.281 237.956 182.634 237.161C182.988 236.367 183.478 235.759 184.106 235.337C184.734 234.905 185.445 234.689 186.24 234.689C187.044 234.689 187.755 234.905 188.373 235.337C189.001 235.759 189.492 236.367 189.845 237.161C190.198 237.946 190.374 238.873 190.374 239.943C190.374 241.012 190.198 241.944 189.845 242.738C189.492 243.523 189.001 244.131 188.373 244.563C187.755 244.985 187.044 245.196 186.24 245.196ZM186.24 244.18C186.838 244.18 187.358 244.019 187.799 243.695C188.251 243.361 188.599 242.876 188.844 242.238C189.099 241.6 189.227 240.835 189.227 239.943C189.227 239.05 189.099 238.285 188.844 237.647C188.599 237.009 188.251 236.529 187.799 236.205C187.358 235.871 186.838 235.705 186.24 235.705C185.651 235.705 185.131 235.871 184.68 236.205C184.229 236.529 183.88 237.009 183.635 237.647C183.39 238.285 183.267 239.05 183.267 239.943C183.267 240.835 183.39 241.6 183.635 242.238C183.88 242.876 184.229 243.361 184.68 243.695C185.131 244.019 185.651 244.18 186.24 244.18ZM196.088 245.093H194.955V235.764H192.542V234.792H196.088V245.093ZM203.479 234.689C204.843 234.689 205.893 235.141 206.628 236.043C207.364 236.946 207.732 238.216 207.732 239.854C207.732 241.002 207.536 241.978 207.143 242.783C206.751 243.577 206.197 244.18 205.481 244.592C204.774 244.995 203.945 245.196 202.994 245.196C201.974 245.196 201.149 245 200.522 244.607L200.978 243.724C201.458 244.038 202.126 244.195 202.979 244.195C204.039 244.195 204.882 243.876 205.51 243.239C206.138 242.591 206.481 241.649 206.54 240.413L206.555 239.928C206.555 239.634 206.535 239.354 206.496 239.089C206.27 239.688 205.883 240.153 205.333 240.487C204.784 240.811 204.142 240.973 203.406 240.973C202.729 240.973 202.126 240.845 201.596 240.59C201.076 240.335 200.669 239.977 200.375 239.516C200.08 239.045 199.933 238.501 199.933 237.882C199.933 237.245 200.085 236.686 200.389 236.205C200.703 235.724 201.13 235.352 201.669 235.087C202.209 234.822 202.812 234.689 203.479 234.689ZM203.612 240.06C204.112 240.06 204.558 239.962 204.951 239.766C205.353 239.57 205.662 239.3 205.878 238.957C206.094 238.613 206.202 238.236 206.202 237.824C206.202 237.441 206.099 237.083 205.893 236.749C205.687 236.406 205.378 236.131 204.966 235.925C204.563 235.719 204.083 235.616 203.523 235.616C202.788 235.616 202.194 235.817 201.743 236.22C201.292 236.622 201.066 237.157 201.066 237.824C201.066 238.51 201.292 239.055 201.743 239.457C202.204 239.859 202.827 240.06 203.612 240.06ZM212.313 234.689C213.676 234.689 214.726 235.141 215.462 236.043C216.197 236.946 216.565 238.216 216.565 239.854C216.565 241.002 216.369 241.978 215.977 242.783C215.584 243.577 215.03 244.18 214.314 244.592C213.608 244.995 212.779 245.196 211.827 245.196C210.807 245.196 209.983 245 209.355 244.607L209.811 243.724C210.292 244.038 210.959 244.195 211.812 244.195C212.872 244.195 213.715 243.876 214.343 243.239C214.971 242.591 215.314 241.649 215.373 240.413L215.388 239.928C215.388 239.634 215.368 239.354 215.329 239.089C215.104 239.688 214.716 240.153 214.167 240.487C213.617 240.811 212.975 240.973 212.239 240.973C211.562 240.973 210.959 240.845 210.429 240.59C209.909 240.335 209.502 239.977 209.208 239.516C208.913 239.045 208.766 238.501 208.766 237.882C208.766 237.245 208.918 236.686 209.222 236.205C209.536 235.724 209.963 235.352 210.503 235.087C211.042 234.822 211.646 234.689 212.313 234.689ZM212.445 240.06C212.945 240.06 213.392 239.962 213.784 239.766C214.186 239.57 214.495 239.3 214.711 238.957C214.927 238.613 215.035 238.236 215.035 237.824C215.035 237.441 214.932 237.083 214.726 236.749C214.52 236.406 214.211 236.131 213.799 235.925C213.397 235.719 212.916 235.616 212.357 235.616C211.621 235.616 211.027 235.817 210.576 236.22C210.125 236.622 209.899 237.157 209.899 237.824C209.899 238.51 210.125 239.055 210.576 239.457C211.037 239.859 211.66 240.06 212.445 240.06ZM224.81 234.704C226.124 234.704 227.297 234.979 228.327 235.528C229.367 236.077 230.176 236.843 230.755 237.824C231.333 238.805 231.623 239.923 231.623 241.179C231.623 242.012 231.52 242.729 231.314 243.327C231.108 243.925 230.818 244.382 230.446 244.695C230.083 245 229.661 245.152 229.18 245.152C228.739 245.152 228.371 245.034 228.077 244.798C227.792 244.563 227.62 244.239 227.562 243.827C227.562 243.719 227.552 243.558 227.532 243.342C227.257 243.911 226.855 244.357 226.325 244.681C225.796 244.995 225.192 245.152 224.516 245.152C223.848 245.152 223.24 244.99 222.691 244.666C222.142 244.342 221.71 243.891 221.396 243.312C221.082 242.733 220.925 242.076 220.925 241.34C220.925 240.615 221.082 239.967 221.396 239.398C221.71 238.819 222.142 238.368 222.691 238.044C223.24 237.721 223.848 237.559 224.516 237.559C225.173 237.559 225.756 237.711 226.267 238.015C226.777 238.309 227.174 238.726 227.459 239.266V237.632H228.444V243.224C228.444 243.597 228.523 243.871 228.68 244.048C228.847 244.215 229.067 244.298 229.342 244.298C229.793 244.298 230.151 244.028 230.416 243.489C230.691 242.949 230.828 242.184 230.828 241.193C230.828 240.065 230.573 239.069 230.063 238.206C229.553 237.333 228.842 236.661 227.929 236.19C227.017 235.71 225.977 235.469 224.81 235.469C223.623 235.469 222.568 235.719 221.646 236.22C220.734 236.71 220.023 237.402 219.512 238.294C219.002 239.187 218.747 240.203 218.747 241.34C218.747 242.488 218.997 243.513 219.498 244.416C220.008 245.309 220.714 246.005 221.617 246.505C222.529 247.006 223.574 247.256 224.751 247.256C225.222 247.256 225.707 247.202 226.208 247.094C226.708 246.986 227.159 246.824 227.562 246.608L227.856 247.344C227.424 247.57 226.929 247.741 226.37 247.859C225.81 247.977 225.271 248.036 224.751 248.036C223.417 248.036 222.23 247.751 221.19 247.182C220.15 246.613 219.341 245.824 218.762 244.813C218.183 243.793 217.894 242.635 217.894 241.34C217.894 240.055 218.183 238.913 218.762 237.912C219.351 236.901 220.17 236.117 221.219 235.558C222.269 234.989 223.466 234.704 224.81 234.704ZM224.692 244.269C225.222 244.269 225.693 244.146 226.105 243.901C226.527 243.656 226.855 243.312 227.091 242.871C227.336 242.429 227.459 241.919 227.459 241.34C227.459 240.772 227.336 240.266 227.091 239.825C226.855 239.383 226.527 239.045 226.105 238.81C225.693 238.564 225.222 238.442 224.692 238.442C224.162 238.442 223.687 238.564 223.265 238.81C222.853 239.045 222.529 239.383 222.294 239.825C222.058 240.266 221.94 240.772 221.94 241.34C221.94 241.919 222.058 242.429 222.294 242.871C222.529 243.312 222.853 243.656 223.265 243.901C223.687 244.146 224.162 244.269 224.692 244.269ZM237.24 237.279C238.162 237.279 238.893 237.564 239.432 238.133C239.972 238.692 240.242 239.511 240.242 240.59V245.093H239.182V240.722C239.182 239.918 238.991 239.31 238.608 238.898C238.235 238.476 237.701 238.265 237.004 238.265C236.229 238.265 235.611 238.515 235.15 239.016C234.699 239.506 234.473 240.178 234.473 241.031V245.093H233.414V237.353H234.429V238.854C234.694 238.363 235.067 237.981 235.548 237.706C236.028 237.421 236.592 237.279 237.24 237.279ZM244.819 237.279C245.791 237.279 246.531 237.534 247.041 238.044C247.561 238.545 247.821 239.295 247.821 240.296V245.093H246.821V243.768C246.595 244.21 246.262 244.553 245.82 244.798C245.388 245.044 244.873 245.166 244.275 245.166C243.441 245.166 242.784 244.96 242.303 244.548C241.823 244.136 241.582 243.592 241.582 242.915C241.582 242.258 241.813 241.728 242.274 241.326C242.735 240.924 243.456 240.722 244.437 240.722H246.762C246.762 240.428 246.742 240.178 246.703 239.972C246.615 238.795 245.948 238.206 244.702 238.206C244.231 238.206 243.78 238.29 243.348 238.456C242.916 238.623 242.553 238.849 242.259 239.133L241.803 238.353C242.186 238.01 242.642 237.745 243.171 237.559C243.701 237.372 244.251 237.279 244.819 237.279ZM244.466 244.328C245.604 244.328 246.369 243.808 246.762 242.768V241.473H244.51C243.255 241.473 242.627 241.939 242.627 242.871C242.627 243.322 242.789 243.68 243.113 243.945C243.436 244.2 243.888 244.328 244.466 244.328ZM252.842 245.093H251.782L248.501 237.353H249.605L252.342 243.842L255.079 237.353H256.123L252.842 245.093ZM263.637 241.502H257.5C257.549 242.317 257.834 242.974 258.354 243.474C258.884 243.965 259.551 244.21 260.355 244.21C260.816 244.21 261.238 244.126 261.621 243.96C262.013 243.793 262.337 243.543 262.592 243.209L263.195 243.886C262.852 244.308 262.435 244.627 261.944 244.843C261.454 245.058 260.919 245.166 260.34 245.166C259.585 245.166 258.908 245 258.31 244.666C257.721 244.323 257.26 243.852 256.927 243.253C256.603 242.655 256.441 241.973 256.441 241.208C256.441 240.453 256.598 239.781 256.912 239.192C257.226 238.594 257.657 238.128 258.207 237.794C258.766 237.451 259.384 237.279 260.061 237.279C260.738 237.279 261.346 237.446 261.885 237.779C262.435 238.103 262.866 238.559 263.18 239.148C263.494 239.737 263.651 240.413 263.651 241.179L263.637 241.502ZM260.076 238.177C259.369 238.177 258.776 238.417 258.295 238.898C257.824 239.369 257.559 239.987 257.5 240.752H262.651C262.582 239.997 262.307 239.378 261.827 238.898C261.356 238.417 260.772 238.177 260.076 238.177ZM266.34 238.883C266.575 238.353 266.928 237.951 267.399 237.676C267.87 237.402 268.434 237.269 269.091 237.279V238.339C269.033 238.329 268.944 238.324 268.827 238.324C268.061 238.324 267.463 238.569 267.031 239.06C266.6 239.55 266.384 240.242 266.384 241.134V245.093H265.324V237.353H266.34V238.883ZM270.426 245.181C270.2 245.181 270.004 245.103 269.837 244.946C269.68 244.789 269.602 244.592 269.602 244.357C269.602 244.122 269.68 243.93 269.837 243.783C269.994 243.626 270.19 243.548 270.426 243.548C270.661 243.548 270.857 243.626 271.014 243.783C271.171 243.93 271.25 244.122 271.25 244.357C271.25 244.592 271.166 244.789 271 244.946C270.843 245.103 270.651 245.181 270.426 245.181ZM276.291 245.166C275.565 245.166 274.908 245 274.319 244.666C273.74 244.323 273.284 243.852 272.951 243.253C272.627 242.655 272.465 241.973 272.465 241.208C272.465 240.453 272.627 239.776 272.951 239.177C273.284 238.579 273.74 238.113 274.319 237.779C274.908 237.446 275.565 237.279 276.291 237.279C276.928 237.279 277.502 237.412 278.012 237.676C278.523 237.941 278.925 238.329 279.219 238.839L278.395 239.369C278.15 238.996 277.841 238.716 277.468 238.53C277.105 238.334 276.708 238.236 276.276 238.236C275.756 238.236 275.285 238.358 274.863 238.604C274.451 238.849 274.128 239.197 273.892 239.648C273.657 240.1 273.539 240.619 273.539 241.208C273.539 241.806 273.657 242.331 273.892 242.783C274.128 243.234 274.451 243.582 274.863 243.827C275.285 244.073 275.756 244.195 276.276 244.195C276.718 244.195 277.12 244.102 277.483 243.916C277.846 243.729 278.15 243.445 278.395 243.062L279.219 243.607C278.915 244.107 278.508 244.494 277.998 244.769C277.497 245.034 276.928 245.166 276.291 245.166ZM283.825 245.166C283.109 245.166 282.462 245 281.883 244.666C281.314 244.323 280.863 243.852 280.529 243.253C280.206 242.655 280.044 241.973 280.044 241.208C280.044 240.453 280.206 239.776 280.529 239.177C280.863 238.579 281.314 238.113 281.883 237.779C282.462 237.446 283.109 237.279 283.825 237.279C284.532 237.279 285.169 237.446 285.738 237.779C286.317 238.113 286.768 238.579 287.092 239.177C287.416 239.776 287.578 240.453 287.578 241.208C287.578 241.973 287.416 242.655 287.092 243.253C286.768 243.852 286.317 244.323 285.738 244.666C285.169 245 284.532 245.166 283.825 245.166ZM283.825 244.195C284.336 244.195 284.792 244.073 285.194 243.827C285.606 243.582 285.93 243.234 286.165 242.783C286.4 242.321 286.518 241.797 286.518 241.208C286.518 240.629 286.4 240.114 286.165 239.663C285.93 239.212 285.606 238.863 285.194 238.618C284.792 238.363 284.336 238.236 283.825 238.236C283.305 238.236 282.839 238.363 282.427 238.618C282.025 238.863 281.706 239.212 281.471 239.663C281.236 240.114 281.118 240.629 281.118 241.208C281.118 241.797 281.231 242.321 281.456 242.783C281.692 243.234 282.015 243.582 282.427 243.827C282.839 244.073 283.305 244.195 283.825 244.195ZM298.344 237.279C299.257 237.279 299.973 237.564 300.493 238.133C301.022 238.692 301.287 239.511 301.287 240.59V245.093H300.243V240.722C300.243 239.918 300.061 239.31 299.698 238.898C299.335 238.476 298.82 238.265 298.153 238.265C297.407 238.265 296.814 238.51 296.373 239.001C295.931 239.491 295.71 240.163 295.71 241.017V245.093H294.666V240.722C294.666 239.918 294.484 239.31 294.121 238.898C293.768 238.476 293.263 238.265 292.606 238.265C291.85 238.265 291.252 238.51 290.81 239.001C290.379 239.491 290.163 240.163 290.163 241.017V245.093H289.103V237.353H290.119V238.839C290.374 238.348 290.732 237.966 291.193 237.691C291.664 237.417 292.208 237.279 292.826 237.279C293.464 237.279 294.008 237.431 294.46 237.735C294.921 238.039 295.254 238.481 295.46 239.06C295.705 238.51 296.078 238.079 296.579 237.765C297.089 237.441 297.677 237.279 298.344 237.279ZM302.791 245.814C303.291 244.98 303.654 244.077 303.88 243.106C304.115 242.135 304.233 241.081 304.233 239.943C304.233 238.805 304.115 237.75 303.88 236.779C303.654 235.808 303.291 234.905 302.791 234.071H303.718C304.189 234.817 304.547 235.695 304.792 236.705C305.047 237.706 305.175 238.785 305.175 239.943C305.175 241.09 305.047 242.165 304.792 243.165C304.547 244.166 304.189 245.049 303.718 245.814H302.791ZM1.14776 260.764V259.719H10.4329V267.179H9.34395V260.764H1.14776ZM11.1833 270.019H0.470876V268.974H4.57633V263.795H5.66523V268.974H11.1833V270.019ZM22.3945 266.267H21.3645V262.985H19.3632V266.149H18.3479V259.351H19.3632V261.941H21.3645V259.292H22.3945V266.267ZM16.9794 261.44C16.9794 262.353 16.7783 263.138 16.3761 263.795C15.9837 264.452 15.4393 264.957 14.7428 265.31C14.0561 265.654 13.2762 265.83 12.4031 265.84V264.854C13.0996 264.844 13.7127 264.707 14.2425 264.442C14.782 264.177 15.1989 263.795 15.4932 263.294C15.7973 262.784 15.9494 262.181 15.9494 261.485V260.558H12.4031V259.601H16.9794V261.44ZM22.3945 266.929V270.564H21.335V267.9H13.0064V266.929H22.3945ZM33.0318 267.797V259.292H34.0471V267.797H33.0318ZM28.3819 262.529V261.499H30.3831V259.351H31.3985V267.591H30.3831V262.529H28.3819ZM26.5278 263.604C25.9589 265.036 25.0465 265.889 23.7909 266.164V265.119C24.6443 264.854 25.2575 264.217 25.6302 263.206C26.003 262.196 26.1894 260.935 26.1894 259.424L27.2194 259.454C27.2194 260.661 27.1115 261.691 26.8957 262.544L29.5444 265.31L28.8381 266.046L26.5278 263.604ZM34.3414 270.417H24.7473V266.959H25.8362V269.401H34.3414V270.417ZM45.4791 270.593H44.4196V265.031H42.3301V263.986H44.4196V259.292H45.4791V270.593ZM40.1376 268.857C40.6477 268.857 41.1578 268.808 41.6679 268.71C42.178 268.611 42.5949 268.479 42.9187 268.312V269.342C42.5949 269.519 42.1829 269.656 41.6826 269.754C41.1823 269.843 40.6673 269.887 40.1376 269.887H36.0321V259.733H42.1682V260.764H37.0916V264.207H41.5502V265.222H37.0916V268.857H40.1376ZM51.095 262.618C50.8595 262.618 50.6633 262.539 50.5064 262.382C50.3494 262.225 50.2709 262.029 50.2709 261.794C50.2709 261.558 50.3494 261.367 50.5064 261.22C50.6633 261.063 50.8595 260.984 51.095 260.984C51.3304 260.984 51.5266 261.063 51.6836 261.22C51.8405 261.367 51.919 261.558 51.919 261.794C51.919 262.029 51.8405 262.225 51.6836 262.382C51.5266 262.539 51.3304 262.618 51.095 262.618ZM51.095 268.901C50.8693 268.901 50.6731 268.822 50.5064 268.665C50.3494 268.508 50.2709 268.312 50.2709 268.077C50.2709 267.841 50.3494 267.645 50.5064 267.488C50.6731 267.331 50.8693 267.253 51.095 267.253C51.3206 267.253 51.5119 267.331 51.6689 267.488C51.8356 267.645 51.919 267.841 51.919 268.077C51.919 268.312 51.8356 268.508 51.6689 268.665C51.5119 268.822 51.3206 268.901 51.095 268.901ZM61.0029 270.093H59.8699V260.764H57.4566V259.792H61.0029V270.093ZM68.1587 264.001C71.0134 264.001 72.4407 265.021 72.4407 267.062C72.4407 267.66 72.2985 268.195 72.014 268.665C71.7393 269.136 71.3175 269.509 70.7485 269.784C70.1893 270.058 69.4977 270.196 68.6737 270.196C67.9281 270.196 67.2218 270.073 66.5547 269.828C65.8877 269.583 65.3579 269.259 64.9655 268.857L65.4953 267.989C65.819 268.342 66.2604 268.631 66.8196 268.857C67.3886 269.073 68.0017 269.18 68.659 269.18C69.5026 269.18 70.1501 268.989 70.6013 268.607C71.0624 268.224 71.2929 267.719 71.2929 267.091C71.2929 266.394 71.0379 265.87 70.5278 265.516C70.0176 265.163 69.1446 264.987 67.9085 264.987H65.6866L66.231 259.792H71.8815V260.764H67.1875L66.8343 264.001H68.1587ZM76.9919 264.001C79.8466 264.001 81.2739 265.021 81.2739 267.062C81.2739 267.66 81.1317 268.195 80.8472 268.665C80.5725 269.136 80.1507 269.509 79.5817 269.784C79.0226 270.058 78.331 270.196 77.5069 270.196C76.7614 270.196 76.0551 270.073 75.388 269.828C74.7209 269.583 74.1912 269.259 73.7988 268.857L74.3285 267.989C74.6522 268.342 75.0937 268.631 75.6529 268.857C76.2218 269.073 76.8349 269.18 77.4922 269.18C78.3359 269.18 78.9833 268.989 79.4346 268.607C79.8956 268.224 80.1262 267.719 80.1262 267.091C80.1262 266.394 79.8711 265.87 79.361 265.516C78.8509 265.163 77.9778 264.987 76.7418 264.987H74.5198L75.0643 259.792H80.7148V260.764H76.0207L75.6676 264.001H76.9919ZM87.5026 270.093H86.3696V260.764H83.9564V259.792H87.5026V270.093ZM95.6737 264.472V265.413H91.7743V264.472H95.6737ZM101.716 270.093H100.583V260.764H98.1697V259.792H101.716V270.093ZM108.872 264.001C111.726 264.001 113.154 265.021 113.154 267.062C113.154 267.66 113.012 268.195 112.727 268.665C112.452 269.136 112.031 269.509 111.462 269.784C110.902 270.058 110.211 270.196 109.387 270.196C108.641 270.196 107.935 270.073 107.268 269.828C106.601 269.583 106.071 269.259 105.679 268.857L106.208 267.989C106.532 268.342 106.974 268.631 107.533 268.857C108.102 269.073 108.715 269.18 109.372 269.18C110.216 269.18 110.863 268.989 111.314 268.607C111.776 268.224 112.006 267.719 112.006 267.091C112.006 266.394 111.751 265.87 111.241 265.516C110.731 265.163 109.858 264.987 108.622 264.987H106.4L106.944 259.792H112.595V260.764H107.901L107.547 264.001H108.872ZM118.5 264.207C119.579 264.256 120.398 264.545 120.957 265.075C121.526 265.595 121.81 266.282 121.81 267.135C121.81 267.724 121.668 268.249 121.384 268.71C121.099 269.171 120.673 269.534 120.104 269.798C119.544 270.063 118.863 270.196 118.058 270.196C117.303 270.196 116.592 270.078 115.925 269.843C115.267 269.597 114.742 269.269 114.35 268.857L114.85 267.989C115.194 268.342 115.645 268.631 116.204 268.857C116.773 269.073 117.381 269.18 118.029 269.18C118.872 269.18 119.52 268.999 119.971 268.636C120.432 268.273 120.663 267.773 120.663 267.135C120.663 266.488 120.437 265.987 119.986 265.634C119.535 265.281 118.843 265.104 117.911 265.104H117.161V264.31L119.986 260.764H114.762V259.792H121.398V260.558L118.5 264.207ZM128.216 270.093H127.083V260.764H124.669V259.792H128.216V270.093Z" fill="white"/>
<path fill-rule="evenodd" clip-rule="evenodd" d="M30.0397 0C31.3496 0 32.4115 1.06471 32.4115 2.37811V21.4725C32.4115 22.273 33.0556 22.9188 33.854 22.9188H64.8119C66.8974 22.9188 68.6261 24.6084 68.6261 26.7433V29.8167C68.6261 30.7308 68.3006 31.6813 67.862 32.4053C67.4991 33.0046 66.5215 34.3087 64.8119 34.3087H43.6543C43.7783 34.6296 43.9573 34.9469 44.1859 35.2268C44.6594 35.8064 45.1258 35.9776 45.4216 35.9776H101.318V29.2048H82.3574V32.3061C82.3574 33.6195 81.2956 34.6842 79.9857 34.6842C78.6758 34.6842 77.6139 33.6195 77.6139 32.3061V28.2035C77.6139 26.1097 79.3155 24.4486 81.3588 24.4486H102.316C104.405 24.4486 106.061 26.1548 106.061 28.2035V36.9789C106.061 39.0727 104.36 40.7338 102.316 40.7338H45.4216C43.3178 40.7338 41.6136 39.5838 40.5163 38.2407C39.4188 36.8974 38.7085 35.1129 38.7085 33.3074C38.7085 31.2136 40.4101 29.5525 42.4534 29.5525H63.8826V27.675H33.854C30.4359 27.675 27.668 24.8998 27.668 21.4725V2.37811C27.668 1.06471 28.7298 0 30.0397 0Z" fill="white"/>
</svg>
