<svg width="373" height="167" viewBox="0 0 373 167" fill="none" xmlns="http://www.w3.org/2000/svg">
<path d="M10.1386 7.02988V12.5921H9.07909V1.29107H10.1386V5.9704H11.6983V7.02988H10.1386ZM5.03249 1.6148C5.01287 3.45906 4.87063 5.03846 4.60576 6.35299L8.06376 11.2236L7.19558 11.8564L4.2526 7.66262C3.88963 8.9281 3.39423 9.92871 2.7664 10.6645C2.13856 11.3904 1.41263 11.7975 0.588595 11.8858V10.7822C1.30472 10.6546 1.91294 10.1691 2.41324 9.3254C2.92336 8.48174 3.30594 7.38794 3.561 6.04398C3.81606 4.70002 3.94849 3.21382 3.9583 1.58537L5.03249 1.6148ZM21.026 12.5921V1.29107H22.1002V12.5921H21.026ZM15.8464 1.58537C16.8274 1.58537 17.6073 2.02681 18.186 2.90971C18.7746 3.7926 19.0689 5.09242 19.0689 6.80915C19.0689 8.52589 18.7746 9.8257 18.186 10.7086C17.6073 11.5915 16.8274 12.0329 15.8464 12.0329C14.8654 12.0329 14.0806 11.5915 13.492 10.7086C12.9132 9.8257 12.6238 8.52589 12.6238 6.80915C12.6238 5.09242 12.9132 3.7926 13.492 2.90971C14.0806 2.02681 14.8654 1.58537 15.8464 1.58537ZM15.8464 2.60069C15.1891 2.60069 14.6643 2.95385 14.2719 3.66017C13.8795 4.35667 13.6833 5.40633 13.6833 6.80915C13.6833 8.22178 13.8795 9.27635 14.2719 9.97285C14.6643 10.6694 15.1891 11.0176 15.8464 11.0176C16.484 11.0176 17.004 10.6694 17.4062 9.97285C17.8084 9.26654 18.0095 8.21197 18.0095 6.80915C18.0095 5.41614 17.8084 4.36648 17.4062 3.66017C17.004 2.95385 16.484 2.60069 15.8464 2.60069ZM24.5413 8.88395V1.73252H33.7528V2.73313H25.5861V4.82264H33.6351V5.77911H25.5861V7.89805H33.9294V8.88395H24.5413ZM34.4886 12.0182H23.7762V10.9882H34.4886V12.0182ZM42.5508 6.02926V5.02865H44.4343V3.35115H42.5508V2.36526H44.4343V1.29107H45.4791V7.5449H44.4343V6.02926H42.5508ZM35.9291 6.83858V1.60008H41.8886V6.83858H35.9291ZM36.9591 2.55655V5.88211H40.8292V2.55655H36.9591ZM40.9763 7.95691C42.3693 7.95691 43.4827 8.14821 44.3166 8.53079C45.1602 8.90357 45.5821 9.48236 45.5821 10.2672C45.5821 11.0519 45.1602 11.6307 44.3166 12.0035C43.4827 12.3763 42.3693 12.5627 40.9763 12.5627C39.5931 12.5627 38.4846 12.3763 37.6507 12.0035C36.8169 11.6307 36.4 11.0519 36.4 10.2672C36.4 9.48236 36.8169 8.90357 37.6507 8.53079C38.4846 8.14821 39.5931 7.95691 40.9763 7.95691ZM40.9763 11.6356C41.9965 11.6356 42.8304 11.5179 43.4778 11.2825C44.1253 11.047 44.449 10.7086 44.449 10.2672C44.449 9.81589 44.1253 9.47255 43.4778 9.23711C42.8304 9.00167 41.9965 8.88395 40.9763 8.88395C39.9561 8.88395 39.1222 9.00167 38.4748 9.23711C37.8371 9.47255 37.5183 9.81589 37.5183 10.2672C37.5183 10.7086 37.8371 11.047 38.4748 11.2825C39.1222 11.5179 39.9561 11.6356 40.9763 11.6356ZM51.095 4.61663C50.8595 4.61663 50.6633 4.53815 50.5064 4.3812C50.3494 4.22424 50.2709 4.02804 50.2709 3.7926C50.2709 3.55716 50.3494 3.36587 50.5064 3.21872C50.6633 3.06176 50.8595 2.98328 51.095 2.98328C51.3304 2.98328 51.5266 3.06176 51.6836 3.21872C51.8405 3.36587 51.919 3.55716 51.919 3.7926C51.919 4.02804 51.8405 4.22424 51.6836 4.3812C51.5266 4.53815 51.3304 4.61663 51.095 4.61663ZM51.095 10.8999C50.8693 10.8999 50.6731 10.8214 50.5064 10.6645C50.3494 10.5075 50.2709 10.3113 50.2709 10.0759C50.2709 9.84042 50.3494 9.64422 50.5064 9.48726C50.6731 9.3303 50.8693 9.25182 51.095 9.25182C51.3206 9.25182 51.5119 9.3303 51.6689 9.48726C51.8356 9.64422 51.919 9.84042 51.919 10.0759C51.919 10.3113 51.8356 10.5075 51.6689 10.6645C51.5119 10.8214 51.3206 10.8999 51.095 10.8999ZM66.0943 12.5921H65.0348V7.11817H62.8276C62.7883 8.7368 62.4842 9.96304 61.9152 10.7969C61.3463 11.6209 60.5958 12.0329 59.6639 12.0329C58.6927 12.0329 57.9177 11.5915 57.3389 10.7086C56.7699 9.8257 56.4855 8.52589 56.4855 6.80915C56.4855 5.09242 56.7699 3.7926 57.3389 2.90971C57.9177 2.02681 58.6927 1.58537 59.6639 1.58537C60.5566 1.58537 61.2825 1.96305 61.8417 2.71841C62.4008 3.47378 62.7246 4.59211 62.8129 6.07341H65.0348V1.29107H66.0943V12.5921ZM59.6639 11.0176C60.3015 11.0176 60.8116 10.6694 61.1942 9.97285C61.5768 9.27635 61.7681 8.22178 61.7681 6.80915C61.7681 5.40633 61.5768 4.35667 61.1942 3.66017C60.8116 2.95385 60.3015 2.60069 59.6639 2.60069C59.0262 2.60069 58.5112 2.95385 58.1188 3.66017C57.7362 4.35667 57.5449 5.40633 57.5449 6.80915C57.5449 8.22178 57.7362 9.27635 58.1188 9.97285C58.5112 10.6694 59.0262 11.0176 59.6639 11.0176ZM73.0529 5.35238C71.6697 5.35238 70.5415 5.18561 69.6684 4.85207C68.7953 4.51854 68.3588 4.00351 68.3588 3.30701C68.3588 2.6105 68.7904 2.10039 69.6537 1.77666C70.5268 1.44312 71.6598 1.27636 73.0529 1.27636C74.4459 1.27636 75.574 1.44312 76.4373 1.77666C77.3006 2.10039 77.7322 2.6105 77.7322 3.30701C77.7322 4.00351 77.2956 4.51854 76.4226 4.85207C75.5593 5.18561 74.4361 5.35238 73.0529 5.35238ZM73.0529 2.14453C72.013 2.14453 71.1546 2.24263 70.4778 2.43883C69.8009 2.62522 69.4624 2.91461 69.4624 3.30701C69.4624 3.69941 69.796 3.9937 70.463 4.1899C71.1399 4.37629 72.0032 4.46949 73.0529 4.46949C74.0927 4.46949 74.9462 4.37629 75.6132 4.1899C76.2901 3.9937 76.6286 3.69941 76.6286 3.30701C76.6286 2.91461 76.2901 2.62522 75.6132 2.43883C74.9462 2.24263 74.0927 2.14453 73.0529 2.14453ZM73.5826 8.05992H77.6439V10.5909H69.5066V11.6209H77.8352V12.4302H68.4765V9.86985H76.5991V8.86924H68.4471V8.05992H72.5231V6.92687H67.6966V6.05869H78.4091V6.92687H73.5826V8.05992ZM88.2518 7.91277V1.29107H89.326V7.91277H88.2518ZM80.9385 4.95508V6.559H83.7785C84.5633 6.559 85.2647 6.51485 85.8827 6.42657C86.5105 6.32847 86.9961 6.19603 87.3395 6.02926V6.94159C86.9961 7.10836 86.5056 7.24079 85.868 7.33889C85.2303 7.42718 84.5142 7.47132 83.7196 7.47132H79.879V4.10161H85.1322V2.49769H79.8496V1.60008H86.1917V4.95508H80.9385ZM80.3057 12.4155V8.57494H89.326V12.4155H80.3057ZM88.2665 9.50198H81.3505V11.4885H88.2665V9.50198ZM96.1338 1.17335V14.9318H95.089V1.17335H96.1338ZM111.438 12.5921H110.423V6.97102H108.481V12.4008H107.48V1.34993H108.481V5.92626H110.423V1.29107H111.438V12.5921ZM104.125 10.8852C104.586 10.8852 105.037 10.8459 105.479 10.7675C105.92 10.689 106.303 10.5811 106.626 10.4437V11.4296C106.303 11.5768 105.91 11.6896 105.449 11.7681C104.988 11.8465 104.503 11.8858 103.993 11.8858H101.535V1.73252H106.17V2.73313H102.565V10.8852H104.125ZM123.532 12.0182H112.82V11.0029H115.572V8.17764H113.394V7.16231H115.351V2.83613H113.497V1.82081H122.841V2.83613H121.001V7.16231H122.958V8.17764H120.781V11.0029H123.532V12.0182ZM119.942 7.16231V2.83613H116.41V7.16231H119.942ZM119.706 11.0029V8.17764H116.631V11.0029H119.706ZM134.14 7.02988V12.5921H133.081V1.29107H134.14V5.9704H135.7V7.02988H134.14ZM128.799 2.76256C128.779 4.185 128.671 5.44067 128.475 6.52957L131.992 11.1353L131.153 11.7828L128.137 7.79505C127.783 9.00167 127.308 9.95814 126.709 10.6645C126.111 11.361 125.414 11.7681 124.62 11.8858V10.7822C125.257 10.6448 125.807 10.2181 126.268 9.50198C126.729 8.77604 127.082 7.83429 127.327 6.67672C127.582 5.51915 127.72 4.21443 127.739 2.76256H124.855V1.73252H131.609V2.76256H128.799ZM140.139 4.61663C139.903 4.61663 139.707 4.53815 139.55 4.3812C139.393 4.22424 139.315 4.02804 139.315 3.7926C139.315 3.55716 139.393 3.36587 139.55 3.21872C139.707 3.06176 139.903 2.98328 140.139 2.98328C140.374 2.98328 140.57 3.06176 140.727 3.21872C140.884 3.36587 140.963 3.55716 140.963 3.7926C140.963 4.02804 140.884 4.22424 140.727 4.3812C140.57 4.53815 140.374 4.61663 140.139 4.61663ZM140.139 10.8999C139.913 10.8999 139.717 10.8214 139.55 10.6645C139.393 10.5075 139.315 10.3113 139.315 10.0759C139.315 9.84042 139.393 9.64422 139.55 9.48726C139.717 9.3303 139.913 9.25182 140.139 9.25182C140.364 9.25182 140.556 9.3303 140.713 9.48726C140.879 9.64422 140.963 9.84042 140.963 10.0759C140.963 10.3113 140.879 10.5075 140.713 10.6645C140.556 10.8214 140.364 10.8999 140.139 10.8999ZM150.444 6.07341C149.071 6.07341 147.938 5.8723 147.045 5.4701C146.152 5.05808 145.706 4.45477 145.706 3.66017C145.706 2.87537 146.152 2.27697 147.045 1.86495C147.947 1.44312 149.08 1.23221 150.444 1.23221C151.798 1.23221 152.921 1.44312 153.814 1.86495C154.716 2.27697 155.167 2.87537 155.167 3.66017C155.167 4.45477 154.721 5.05808 153.828 5.4701C152.936 5.8723 151.808 6.07341 150.444 6.07341ZM150.444 2.15925C149.424 2.15925 148.565 2.29168 147.869 2.55655C147.172 2.82142 146.824 3.18929 146.824 3.66017C146.824 4.14085 147.172 4.51363 147.869 4.7785C148.565 5.03356 149.424 5.16108 150.444 5.16108C151.464 5.16108 152.318 5.03356 153.004 4.7785C153.701 4.51363 154.049 4.14085 154.049 3.66017C154.049 3.18929 153.701 2.82142 153.004 2.55655C152.308 2.29168 151.454 2.15925 150.444 2.15925ZM155.8 8.03049H153.107V10.1494H152.033V8.03049H149.885V10.1494H148.825V8.03049H145.088V7.08874H155.8V8.03049ZM155.226 11.4738V12.4302H145.853V9.23711H146.912V11.4738H155.226ZM163.009 4.26348V3.26286H165.731V1.29107H166.791V7.6479H165.731V4.26348H163.009ZM160.301 4.86679C159.929 5.54367 159.443 6.10284 158.845 6.54428C158.246 6.98573 157.56 7.26531 156.785 7.38303V6.36771C157.461 6.23037 158.045 5.92626 158.536 5.45538C159.036 4.9747 159.414 4.3861 159.669 3.6896C159.934 2.98328 160.071 2.22301 160.081 1.40879L161.14 1.46765C161.14 2.37016 161.008 3.1991 160.743 3.95446L164.083 6.36771L163.495 7.16231L160.301 4.86679ZM162.288 8.05992C163.671 8.05992 164.78 8.24631 165.613 8.61908C166.457 8.98205 166.879 9.54612 166.879 10.3113C166.879 11.0765 166.457 11.6454 165.613 12.0182C164.78 12.3812 163.671 12.5627 162.288 12.5627C160.905 12.5627 159.796 12.3812 158.962 12.0182C158.128 11.6454 157.712 11.0765 157.712 10.3113C157.712 9.54612 158.128 8.98205 158.962 8.61908C159.796 8.24631 160.905 8.05992 162.288 8.05992ZM162.288 11.6356C163.318 11.6356 164.152 11.5228 164.789 11.2972C165.437 11.0716 165.761 10.7429 165.761 10.3113C165.761 9.87966 165.437 9.55103 164.789 9.3254C164.142 9.09977 163.308 8.98696 162.288 8.98696C161.268 8.98696 160.434 9.09977 159.786 9.3254C159.149 9.55103 158.83 9.87966 158.83 10.3113C158.83 10.7429 159.149 11.0716 159.786 11.2972C160.434 11.5228 161.268 11.6356 162.288 11.6356ZM168.834 2.92442V2.04153H173.19V0.834909H174.264V2.04153H178.664V2.92442H168.834ZM169.261 5.35238C169.261 4.77359 169.663 4.33705 170.468 4.04275C171.282 3.74846 172.376 3.60131 173.749 3.60131C175.113 3.60131 176.197 3.74846 177.001 4.04275C177.806 4.33705 178.208 4.77359 178.208 5.35238C178.208 5.93116 177.806 6.36771 177.001 6.662C176.197 6.9563 175.113 7.10345 173.749 7.10345C172.376 7.10345 171.282 6.9563 170.468 6.662C169.663 6.36771 169.261 5.93116 169.261 5.35238ZM177.148 5.35238C177.148 5.04827 176.834 4.81774 176.207 4.66078C175.579 4.49401 174.76 4.41063 173.749 4.41063C172.739 4.41063 171.92 4.49401 171.292 4.66078C170.664 4.81774 170.35 5.04827 170.35 5.35238C170.35 5.65649 170.664 5.89192 171.292 6.05869C171.92 6.21565 172.739 6.29413 173.749 6.29413C174.76 6.29413 175.579 6.21565 176.207 6.05869C176.834 5.89192 177.148 5.65649 177.148 5.35238ZM179.105 8.79566H174.279V10.3113H173.22V8.79566H168.393V7.89805H179.105V8.79566ZM178.532 11.5032V12.4302H169.173V9.75213H170.247V11.5032H178.532ZM10.1386 33.0299V38.5921H9.07909V27.2911H10.1386V31.9704H11.6983V33.0299H10.1386ZM5.03249 27.6148C5.01287 29.4591 4.87063 31.0385 4.60576 32.353L8.06376 37.2236L7.19558 37.8564L4.2526 33.6626C3.88963 34.9281 3.39423 35.9287 2.7664 36.6645C2.13856 37.3904 1.41263 37.7975 0.588595 37.8858V36.7822C1.30472 36.6546 1.91294 36.1691 2.41324 35.3254C2.92336 34.4817 3.30594 33.3879 3.561 32.044C3.81606 30.7 3.94849 29.2138 3.9583 27.5854L5.03249 27.6148ZM22.1738 33.177H21.1143V30.6755H18.7746C18.6667 31.372 18.3283 31.9312 17.7593 32.353C17.1903 32.7748 16.4546 32.9857 15.5521 32.9857C14.885 32.9857 14.3013 32.868 13.801 32.6326C13.3105 32.3971 12.9279 32.0685 12.6533 31.6467C12.3884 31.2248 12.2559 30.7442 12.2559 30.2046C12.2559 29.6749 12.3884 29.1991 12.6533 28.7773C12.9279 28.3554 13.3105 28.0268 13.801 27.7914C14.3013 27.5559 14.885 27.4382 15.5521 27.4382C16.4252 27.4382 17.1462 27.6393 17.7152 28.0415C18.2841 28.4437 18.6324 28.9784 18.7599 29.6455H21.1143V27.2911H22.1738V33.177ZM15.5521 32.044C16.2192 32.044 16.7587 31.8821 17.1707 31.5584C17.5827 31.2248 17.7887 30.7736 17.7887 30.2046C17.7887 29.6455 17.5827 29.204 17.1707 28.8803C16.7587 28.5467 16.2192 28.38 15.5521 28.38C14.885 28.38 14.3455 28.5467 13.9334 28.8803C13.5214 29.204 13.3154 29.6455 13.3154 30.2046C13.3154 30.7736 13.5214 31.2248 13.9334 31.5584C14.3455 31.8821 14.885 32.044 15.5521 32.044ZM22.1738 33.692V38.4155H13.2566V33.692H14.3013V35.0311H21.129V33.692H22.1738ZM21.129 35.9434H14.3013V37.4885H21.129V35.9434ZM33.4438 33.0299V38.5921H32.3844V27.2911H33.4438V31.9704H35.0036V33.0299H33.4438ZM28.1023 28.7626C28.0827 30.185 27.9748 31.4407 27.7786 32.5296L31.2955 37.1353L30.4567 37.7828L27.4402 33.7951C27.087 35.0017 26.6112 35.9581 26.0128 36.6645C25.4144 37.361 24.7179 37.7681 23.9233 37.8858V36.7822C24.5609 36.6448 25.1103 36.2181 25.5714 35.502C26.0324 34.776 26.3856 33.8343 26.6308 32.6767C26.8859 31.5191 27.0232 30.2144 27.0429 28.7626H24.1587V27.7325H30.9129V28.7626H28.1023ZM37.2976 28.3653V30.3665H45.4643V31.2788H36.2381V27.4529H45.3466V28.3653H37.2976ZM35.4288 33.4125V32.5001H46.1412V33.4125H35.4288ZM40.785 34.5308C42.178 34.5308 43.3062 34.6927 44.1694 35.0164C45.0425 35.3303 45.4791 35.8453 45.4791 36.5614C45.4791 37.2776 45.0425 37.7975 44.1694 38.1212C43.3062 38.445 42.178 38.6068 40.785 38.6068C39.392 38.6068 38.259 38.445 37.3859 38.1212C36.5226 37.7975 36.091 37.2776 36.091 36.5614C36.091 35.8453 36.5226 35.3303 37.3859 35.0164C38.259 34.6927 39.392 34.5308 40.785 34.5308ZM40.785 35.4284C39.7746 35.4284 38.9211 35.5216 38.2246 35.708C37.5379 35.8846 37.1946 36.1691 37.1946 36.5614C37.1946 36.9637 37.5379 37.258 38.2246 37.4443C38.9113 37.6209 39.7648 37.7092 40.785 37.7092C41.7954 37.7092 42.644 37.6209 43.3307 37.4443C44.0174 37.258 44.3607 36.9637 44.3607 36.5614C44.3607 36.1691 44.0174 35.8846 43.3307 35.708C42.644 35.5216 41.7954 35.4284 40.785 35.4284ZM57.7939 34.4719H47.0814V33.5596H51.9079V32.353H47.9055V29.513H55.9692V28.277H47.8907V27.4529H56.9993V30.2782H48.9355V31.5437H57.1611V32.353H52.9674V33.5596H57.7939V34.4719ZM57.014 35.605V38.5774H55.9545V36.5173H47.7583V35.605H57.014ZM59.2197 33.8098V27.5118H60.2497V29.5572H64.3846V27.5118H65.4441V30.1163H67.7249V27.2911H68.7843V35.6933H67.7249V31.1611H65.4441V33.8098H59.2197ZM64.3846 30.5136H60.2497V32.8533H64.3846V30.5136ZM69.0345 38.4155H59.7347V34.8692H60.8089V37.4002H69.0345V38.4155ZM70.7693 29.8515V28.8361H75.1838V27.1439H76.2579V28.8361H80.7018V29.8515H70.7693ZM81.0991 38.0182H70.3867V37.0176H75.2132V35.1194C74.0164 35.0703 73.0599 34.8692 72.3438 34.5161C71.6375 34.1531 71.2843 33.6234 71.2843 32.9269C71.2843 32.1715 71.6914 31.6123 72.5057 31.2494C73.3199 30.8864 74.399 30.7049 75.7429 30.7049C77.0771 30.7049 78.1513 30.8864 78.9655 31.2494C79.7797 31.6123 80.1868 32.1715 80.1868 32.9269C80.1868 33.6234 79.8288 34.1531 79.1126 34.5161C78.4063 34.8692 77.4597 35.0703 76.2727 35.1194V37.0176H81.0991V38.0182ZM72.3732 32.9269C72.3732 33.3585 72.6773 33.6773 73.2855 33.8833C73.9036 34.0893 74.7227 34.1924 75.7429 34.1924C76.7533 34.1924 77.5627 34.0893 78.1709 33.8833C78.7889 33.6773 79.0979 33.3585 79.0979 32.9269C79.0979 32.4854 78.7889 32.1617 78.1709 31.9557C77.5627 31.7497 76.7533 31.6467 75.7429 31.6467C74.7227 31.6467 73.9036 31.7497 73.2855 31.9557C72.6773 32.1617 72.3732 32.4854 72.3732 32.9269ZM86.0529 30.6166C85.8174 30.6166 85.6212 30.5382 85.4643 30.3812C85.3073 30.2242 85.2289 30.028 85.2289 29.7926C85.2289 29.5572 85.3073 29.3659 85.4643 29.2187C85.6212 29.0618 85.8174 28.9833 86.0529 28.9833C86.2883 28.9833 86.4845 29.0618 86.6415 29.2187C86.7984 29.3659 86.8769 29.5572 86.8769 29.7926C86.8769 30.028 86.7984 30.2242 86.6415 30.3812C86.4845 30.5382 86.2883 30.6166 86.0529 30.6166ZM86.0529 36.8999C85.8273 36.8999 85.6311 36.8214 85.4643 36.6645C85.3073 36.5075 85.2289 36.3113 85.2289 36.0759C85.2289 35.8404 85.3073 35.6442 85.4643 35.4873C85.6311 35.3303 85.8273 35.2518 86.0529 35.2518C86.2785 35.2518 86.4698 35.3303 86.6268 35.4873C86.7935 35.6442 86.8769 35.8404 86.8769 36.0759C86.8769 36.3113 86.7935 36.5075 86.6268 36.6645C86.4698 36.8214 86.2785 36.8999 86.0529 36.8999ZM95.4458 31.9115C96.1227 31.9115 96.7211 32.0391 97.241 32.2941C97.7708 32.5492 98.1828 32.9122 98.4771 33.383C98.7714 33.8441 98.9185 34.3836 98.9185 35.0017C98.9185 35.6393 98.7616 36.1985 98.4477 36.6792C98.1435 37.1599 97.7217 37.5326 97.1822 37.7975C96.6524 38.0624 96.054 38.1948 95.387 38.1948C94.0234 38.1948 92.9688 37.7435 92.2233 36.841C91.4875 35.9385 91.1196 34.6681 91.1196 33.0299C91.1196 31.8821 91.3158 30.9109 91.7082 30.1163C92.1006 29.3119 92.6549 28.7086 93.371 28.3064C94.0871 27.8944 94.9161 27.6884 95.8578 27.6884C96.8879 27.6884 97.7168 27.8846 98.3446 28.277L97.8738 29.1451C97.3931 28.8312 96.7309 28.6743 95.8873 28.6743C94.7689 28.6743 93.8909 29.0323 93.2533 29.7485C92.6157 30.4548 92.2968 31.4848 92.2968 32.8386C92.2968 33.0936 92.3214 33.4027 92.3704 33.7656C92.596 33.177 92.9835 32.7209 93.5329 32.3971C94.0822 32.0734 94.7199 31.9115 95.4458 31.9115ZM95.3281 37.2678C96.0638 37.2678 96.6573 37.0667 97.1086 36.6645C97.5697 36.2524 97.8002 35.7129 97.8002 35.0458C97.8002 34.3689 97.5697 33.8294 97.1086 33.4272C96.6573 33.025 96.0393 32.8239 95.2545 32.8239C94.7542 32.8239 94.303 32.922 93.9008 33.1182C93.5084 33.3144 93.1993 33.5841 92.9737 33.9275C92.7579 34.2708 92.65 34.6485 92.65 35.0605C92.65 35.4431 92.753 35.8061 92.959 36.1494C93.165 36.483 93.4691 36.7527 93.8713 36.9588C94.2833 37.1648 94.7689 37.2678 95.3281 37.2678ZM104.279 31.9115C104.956 31.9115 105.554 32.0391 106.074 32.2941C106.604 32.5492 107.016 32.9122 107.31 33.383C107.605 33.8441 107.752 34.3836 107.752 35.0017C107.752 35.6393 107.595 36.1985 107.281 36.6792C106.977 37.1599 106.555 37.5326 106.015 37.7975C105.486 38.0624 104.887 38.1948 104.22 38.1948C102.857 38.1948 101.802 37.7435 101.056 36.841C100.321 35.9385 99.9529 34.6681 99.9529 33.0299C99.9529 31.8821 100.149 30.9109 100.541 30.1163C100.934 29.3119 101.488 28.7086 102.204 28.3064C102.92 27.8944 103.749 27.6884 104.691 27.6884C105.721 27.6884 106.55 27.8846 107.178 28.277L106.707 29.1451C106.226 28.8312 105.564 28.6743 104.72 28.6743C103.602 28.6743 102.724 29.0323 102.087 29.7485C101.449 30.4548 101.13 31.4848 101.13 32.8386C101.13 33.0936 101.155 33.4027 101.204 33.7656C101.429 33.177 101.817 32.7209 102.366 32.3971C102.915 32.0734 103.553 31.9115 104.279 31.9115ZM104.161 37.2678C104.897 37.2678 105.491 37.0667 105.942 36.6645C106.403 36.2524 106.633 35.7129 106.633 35.0458C106.633 34.3689 106.403 33.8294 105.942 33.4272C105.491 33.025 104.873 32.8239 104.088 32.8239C103.587 32.8239 103.136 32.922 102.734 33.1182C102.342 33.3144 102.033 33.5841 101.807 33.9275C101.591 34.2708 101.483 34.6485 101.483 35.0605C101.483 35.4431 101.586 35.8061 101.792 36.1494C101.998 36.483 102.302 36.7527 102.705 36.9588C103.117 37.1648 103.602 37.2678 104.161 37.2678ZM112.744 32.2058C113.824 32.2549 114.643 32.5443 115.202 33.074C115.771 33.5939 116.055 34.2806 116.055 35.1341C116.055 35.7227 115.913 36.2475 115.629 36.7086C115.344 37.1697 114.917 37.5326 114.348 37.7975C113.789 38.0624 113.107 38.1948 112.303 38.1948C111.548 38.1948 110.836 38.0771 110.169 37.8416C109.512 37.5964 108.987 37.2678 108.595 36.8557L109.095 35.9876C109.438 36.3407 109.89 36.6301 110.449 36.8557C111.018 37.0716 111.626 37.1795 112.274 37.1795C113.117 37.1795 113.765 36.998 114.216 36.635C114.677 36.2721 114.908 35.7717 114.908 35.1341C114.908 34.4866 114.682 33.9863 114.231 33.6332C113.779 33.28 113.088 33.1035 112.156 33.1035H111.405V32.3088L114.231 28.7626H109.007V27.7914H115.643V28.5566L112.744 32.2058ZM121.798 32.4707V33.4125H117.899V32.4707H121.798ZM129.012 32.6914C129.679 32.8974 130.194 33.2212 130.557 33.6626C130.92 34.0943 131.101 34.6142 131.101 35.2224C131.101 36.1445 130.738 36.8705 130.012 37.4002C129.296 37.9299 128.32 38.1948 127.084 38.1948C125.838 38.1948 124.857 37.9299 124.141 37.4002C123.435 36.8705 123.082 36.1445 123.082 35.2224C123.082 34.6044 123.258 34.0795 123.611 33.6479C123.974 33.2163 124.484 32.8974 125.142 32.6914C124.602 32.505 124.185 32.2157 123.891 31.8233C123.597 31.4309 123.449 30.9649 123.449 30.4253C123.449 29.5817 123.778 28.9146 124.435 28.4241C125.102 27.9336 125.985 27.6884 127.084 27.6884C128.193 27.6884 129.075 27.9336 129.733 28.4241C130.4 28.9146 130.733 29.5817 130.733 30.4253C130.733 30.9649 130.581 31.4309 130.277 31.8233C129.983 32.2058 129.561 32.4952 129.012 32.6914ZM127.084 28.6007C126.309 28.6007 125.696 28.7675 125.245 29.101C124.803 29.4345 124.582 29.8907 124.582 30.4695C124.582 31.0287 124.803 31.475 125.245 31.8085C125.686 32.1323 126.299 32.2941 127.084 32.2941C127.869 32.2941 128.482 32.1323 128.923 31.8085C129.375 31.475 129.6 31.0287 129.6 30.4695C129.6 29.9005 129.37 29.4493 128.909 29.1157C128.457 28.7724 127.849 28.6007 127.084 28.6007ZM127.084 37.2678C127.977 37.2678 128.678 37.0863 129.188 36.7233C129.698 36.3505 129.953 35.8453 129.953 35.2077C129.953 34.5798 129.698 34.0844 129.188 33.7215C128.678 33.3487 127.977 33.1623 127.084 33.1623C126.191 33.1623 125.49 33.3487 124.98 33.7215C124.479 34.0844 124.229 34.5798 124.229 35.2077C124.229 35.8453 124.479 36.3505 124.98 36.7233C125.48 37.0863 126.182 37.2678 127.084 37.2678ZM136.418 31.9115C137.094 31.9115 137.693 32.0391 138.213 32.2941C138.743 32.5492 139.155 32.9122 139.449 33.383C139.743 33.8441 139.89 34.3836 139.89 35.0017C139.89 35.6393 139.733 36.1985 139.419 36.6792C139.115 37.1599 138.693 37.5326 138.154 37.7975C137.624 38.0624 137.026 38.1948 136.359 38.1948C134.995 38.1948 133.941 37.7435 133.195 36.841C132.459 35.9385 132.091 34.6681 132.091 33.0299C132.091 31.8821 132.288 30.9109 132.68 30.1163C133.072 29.3119 133.627 28.7086 134.343 28.3064C135.059 27.8944 135.888 27.6884 136.83 27.6884C137.86 27.6884 138.689 27.8846 139.316 28.277L138.846 29.1451C138.365 28.8312 137.703 28.6743 136.859 28.6743C135.741 28.6743 134.863 29.0323 134.225 29.7485C133.587 30.4548 133.269 31.4848 133.269 32.8386C133.269 33.0936 133.293 33.4027 133.342 33.7656C133.568 33.177 133.955 32.7209 134.505 32.3971C135.054 32.0734 135.692 31.9115 136.418 31.9115ZM136.3 37.2678C137.036 37.2678 137.629 37.0667 138.08 36.6645C138.541 36.2524 138.772 35.7129 138.772 35.0458C138.772 34.3689 138.541 33.8294 138.08 33.4272C137.629 33.025 137.011 32.8239 136.226 32.8239C135.726 32.8239 135.275 32.922 134.873 33.1182C134.48 33.3144 134.171 33.5841 133.945 33.9275C133.73 34.2708 133.622 34.6485 133.622 35.0605C133.622 35.4431 133.725 35.8061 133.931 36.1494C134.137 36.483 134.441 36.7527 134.843 36.9588C135.255 37.1648 135.741 37.2678 136.3 37.2678ZM145.104 32.4707V33.4125H141.204V32.4707H145.104ZM150.389 38.1948C149.595 38.1948 148.883 37.9839 148.256 37.5621C147.628 37.1304 147.137 36.5173 146.784 35.7227C146.431 34.9281 146.254 34.0011 146.254 32.9416C146.254 31.8821 146.431 30.9551 146.784 30.1605C147.137 29.3659 147.628 28.7577 148.256 28.3358C148.883 27.9042 149.595 27.6884 150.389 27.6884C151.194 27.6884 151.905 27.9042 152.523 28.3358C153.151 28.7577 153.641 29.3659 153.994 30.1605C154.348 30.9453 154.524 31.8723 154.524 32.9416C154.524 34.0109 154.348 34.9428 153.994 35.7374C153.641 36.5222 153.151 37.1304 152.523 37.5621C151.905 37.9839 151.194 38.1948 150.389 38.1948ZM150.389 37.1795C150.988 37.1795 151.508 37.0176 151.949 36.6939C152.4 36.3603 152.749 35.8748 152.994 35.2371C153.249 34.5995 153.376 33.8343 153.376 32.9416C153.376 32.0489 153.249 31.2837 152.994 30.6461C152.749 30.0084 152.4 29.5277 151.949 29.204C151.508 28.8705 150.988 28.7037 150.389 28.7037C149.801 28.7037 149.281 28.8705 148.83 29.204C148.378 29.5277 148.03 30.0084 147.785 30.6461C147.54 31.2837 147.417 32.0489 147.417 32.9416C147.417 33.8343 147.54 34.5995 147.785 35.2371C148.03 35.8748 148.378 36.3603 148.83 36.6939C149.281 37.0176 149.801 37.1795 150.389 37.1795ZM162.872 38.0918H155.603V37.3119L159.87 33.1035C160.41 32.5737 160.773 32.1225 160.959 31.7497C161.155 31.3769 161.253 30.9943 161.253 30.6019C161.253 30.0035 161.047 29.5375 160.635 29.204C160.223 28.8607 159.635 28.689 158.869 28.689C157.663 28.689 156.741 29.0814 156.103 29.8662L155.279 29.2482C155.671 28.7478 156.181 28.3653 156.809 28.1004C157.437 27.8257 158.153 27.6884 158.958 27.6884C159.998 27.6884 160.826 27.9434 161.444 28.4535C162.072 28.9539 162.386 29.6356 162.386 30.4989C162.386 31.0385 162.269 31.5486 162.033 32.0293C161.798 32.5099 161.356 33.0691 160.709 33.7068L157.265 37.1059H162.872V38.0918ZM170.69 35.399V38.0918H169.571V35.399H163.774V34.6044L169.204 27.7914H170.44L165.201 34.4131H169.586V32.044H170.69V34.4131H172.735V35.399H170.69ZM177.389 31.9115C178.066 31.9115 178.665 32.0391 179.185 32.2941C179.714 32.5492 180.126 32.9122 180.421 33.383C180.715 33.8441 180.862 34.3836 180.862 35.0017C180.862 35.6393 180.705 36.1985 180.391 36.6792C180.087 37.1599 179.665 37.5326 179.126 37.7975C178.596 38.0624 177.998 38.1948 177.33 38.1948C175.967 38.1948 174.912 37.7435 174.167 36.841C173.431 35.9385 173.063 34.6681 173.063 33.0299C173.063 31.8821 173.259 30.9109 173.652 30.1163C174.044 29.3119 174.598 28.7086 175.315 28.3064C176.031 27.8944 176.86 27.6884 177.801 27.6884C178.831 27.6884 179.66 27.8846 180.288 28.277L179.817 29.1451C179.337 28.8312 178.674 28.6743 177.831 28.6743C176.712 28.6743 175.834 29.0323 175.197 29.7485C174.559 30.4548 174.24 31.4848 174.24 32.8386C174.24 33.0936 174.265 33.4027 174.314 33.7656C174.54 33.177 174.927 32.7209 175.476 32.3971C176.026 32.0734 176.663 31.9115 177.389 31.9115ZM177.272 37.2678C178.007 37.2678 178.601 37.0667 179.052 36.6645C179.513 36.2524 179.744 35.7129 179.744 35.0458C179.744 34.3689 179.513 33.8294 179.052 33.4272C178.601 33.025 177.983 32.8239 177.198 32.8239C176.698 32.8239 176.246 32.922 175.844 33.1182C175.452 33.3144 175.143 33.5841 174.917 33.9275C174.701 34.2708 174.594 34.6485 174.594 35.0605C174.594 35.4431 174.697 35.8061 174.903 36.1494C175.109 36.483 175.413 36.7527 175.815 36.9588C176.227 37.1648 176.712 37.2678 177.272 37.2678ZM189.372 38.0918H182.102V37.3119L186.37 33.1035C186.909 32.5737 187.272 32.1225 187.459 31.7497C187.655 31.3769 187.753 30.9943 187.753 30.6019C187.753 30.0035 187.547 29.5375 187.135 29.204C186.723 28.8607 186.134 28.689 185.369 28.689C184.162 28.689 183.24 29.0814 182.603 29.8662L181.779 29.2482C182.171 28.7478 182.681 28.3653 183.309 28.1004C183.937 27.8257 184.653 27.6884 185.457 27.6884C186.497 27.6884 187.326 27.9434 187.944 28.4535C188.572 28.9539 188.886 29.6356 188.886 30.4989C188.886 31.0385 188.768 31.5486 188.533 32.0293C188.297 32.5099 187.856 33.0691 187.208 33.7068L183.765 37.1059H189.372V38.0918ZM10.7419 63.5921H9.72654V57.971H7.78418V63.4008H6.78356V52.3499H7.78418V56.9263H9.72654V52.2911H10.7419V63.5921ZM3.42857 61.8852C3.88964 61.8852 4.34089 61.8459 4.78234 61.7675C5.22378 61.689 5.60637 61.5811 5.9301 61.4437V62.4296C5.60637 62.5768 5.21397 62.6896 4.75291 62.7681C4.29184 62.8465 3.80625 62.8858 3.29613 62.8858H0.838749V52.7325H5.47394V53.7331H1.86879V61.8852H3.42857ZM22.836 63.0182H12.1235V62.0029H14.8752V59.1776H12.6974V58.1623H14.6545V53.8361H12.8004V52.8208H22.1444V53.8361H20.305V58.1623H22.2621V59.1776H20.0843V62.0029H22.836V63.0182ZM19.2455 58.1623V53.8361H15.7139V58.1623H19.2455ZM19.0101 62.0029V59.1776H15.9347V62.0029H19.0101ZM24.2617 58.8098V52.5118H25.2918V54.5572H29.4267V52.5118H30.4861V55.1163H32.7669V52.2911H33.8264V60.6933H32.7669V56.1611H30.4861V58.8098H24.2617ZM29.4267 55.5136H25.2918V57.8533H29.4267V55.5136ZM34.0766 63.4155H24.7768V59.8692H25.851V62.4002H34.0766V63.4155ZM35.8114 54.8515V53.8361H40.2258V52.1439H41.3V53.8361H45.7439V54.8515H35.8114ZM46.1412 63.0182H35.4288V62.0176H40.2553V60.1194C39.0585 60.0703 38.102 59.8692 37.3859 59.5161C36.6796 59.1531 36.3264 58.6234 36.3264 57.9269C36.3264 57.1715 36.7335 56.6123 37.5477 56.2494C38.362 55.8864 39.4411 55.7049 40.785 55.7049C42.1192 55.7049 43.1933 55.8864 44.0076 56.2494C44.8218 56.6123 45.2289 57.1715 45.2289 57.9269C45.2289 58.6234 44.8708 59.1531 44.1547 59.5161C43.4484 59.8692 42.5017 60.0703 41.3147 60.1194V62.0176H46.1412V63.0182ZM37.4153 57.9269C37.4153 58.3585 37.7194 58.6773 38.3276 58.8833C38.9457 59.0893 39.7648 59.1924 40.785 59.1924C41.7954 59.1924 42.6048 59.0893 43.213 58.8833C43.831 58.6773 44.14 58.3585 44.14 57.9269C44.14 57.4854 43.831 57.1617 43.213 56.9557C42.6048 56.7497 41.7954 56.6467 40.785 56.6467C39.7648 56.6467 38.9457 56.7497 38.3276 56.9557C37.7194 57.1617 37.4153 57.4854 37.4153 57.9269ZM51.095 55.6166C50.8595 55.6166 50.6633 55.5382 50.5064 55.3812C50.3494 55.2242 50.2709 55.028 50.2709 54.7926C50.2709 54.5572 50.3494 54.3659 50.5064 54.2187C50.6633 54.0618 50.8595 53.9833 51.095 53.9833C51.3304 53.9833 51.5266 54.0618 51.6836 54.2187C51.8405 54.3659 51.919 54.5572 51.919 54.7926C51.919 55.028 51.8405 55.2242 51.6836 55.3812C51.5266 55.5382 51.3304 55.6166 51.095 55.6166ZM51.095 61.8999C50.8693 61.8999 50.6731 61.8214 50.5064 61.6645C50.3494 61.5075 50.2709 61.3113 50.2709 61.0759C50.2709 60.8404 50.3494 60.6442 50.5064 60.4873C50.6731 60.3303 50.8693 60.2518 51.095 60.2518C51.3206 60.2518 51.5119 60.3303 51.6689 60.4873C51.8356 60.6442 51.919 60.8404 51.919 61.0759C51.919 61.3113 51.8356 61.5075 51.6689 61.6645C51.5119 61.8214 51.3206 61.8999 51.095 61.8999ZM61.0029 63.0918H59.8699V53.7626H57.4566V52.7914H61.0029V63.0918ZM68.1587 56.9998C71.0134 56.9998 72.4407 58.0201 72.4407 60.0605C72.4407 60.6589 72.2985 61.1936 72.014 61.6645C71.7393 62.1353 71.3175 62.5081 70.7485 62.7828C70.1893 63.0575 69.4977 63.1948 68.6737 63.1948C67.9281 63.1948 67.2218 63.0722 66.5547 62.8269C65.8877 62.5817 65.3579 62.258 64.9655 61.8557L65.4953 60.9876C65.819 61.3407 66.2604 61.6301 66.8196 61.8557C67.3886 62.0716 68.0017 62.1795 68.659 62.1795C69.5026 62.1795 70.1501 61.9882 70.6013 61.6056C71.0624 61.223 71.2929 60.7178 71.2929 60.09C71.2929 59.3935 71.0379 58.8686 70.5278 58.5155C70.0176 58.1623 69.1446 57.9857 67.9085 57.9857H65.6866L66.231 52.7914H71.8815V53.7626H67.1875L66.8343 56.9998H68.1587ZM76.9919 56.9998C79.8466 56.9998 81.2739 58.0201 81.2739 60.0605C81.2739 60.6589 81.1317 61.1936 80.8472 61.6645C80.5725 62.1353 80.1507 62.5081 79.5817 62.7828C79.0226 63.0575 78.331 63.1948 77.5069 63.1948C76.7614 63.1948 76.0551 63.0722 75.388 62.8269C74.7209 62.5817 74.1912 62.258 73.7988 61.8557L74.3285 60.9876C74.6522 61.3407 75.0937 61.6301 75.6529 61.8557C76.2218 62.0716 76.8349 62.1795 77.4922 62.1795C78.3359 62.1795 78.9833 61.9882 79.4346 61.6056C79.8956 61.223 80.1262 60.7178 80.1262 60.09C80.1262 59.3935 79.8711 58.8686 79.361 58.5155C78.8509 58.1623 77.9778 57.9857 76.7418 57.9857H74.5198L75.0643 52.7914H80.7148V53.7626H76.0207L75.6676 56.9998H76.9919ZM87.5026 63.0918H86.3696V53.7626H83.9564V52.7914H87.5026V63.0918ZM95.6737 57.4707V58.4125H91.7743V57.4707H95.6737ZM101.716 63.0918H100.583V53.7626H98.1697V52.7914H101.716V63.0918ZM108.872 56.9998C111.726 56.9998 113.154 58.0201 113.154 60.0605C113.154 60.6589 113.012 61.1936 112.727 61.6645C112.452 62.1353 112.031 62.5081 111.462 62.7828C110.902 63.0575 110.211 63.1948 109.387 63.1948C108.641 63.1948 107.935 63.0722 107.268 62.8269C106.601 62.5817 106.071 62.258 105.679 61.8557L106.208 60.9876C106.532 61.3407 106.974 61.6301 107.533 61.8557C108.102 62.0716 108.715 62.1795 109.372 62.1795C110.216 62.1795 110.863 61.9882 111.314 61.6056C111.776 61.223 112.006 60.7178 112.006 60.09C112.006 59.3935 111.751 58.8686 111.241 58.5155C110.731 58.1623 109.858 57.9857 108.622 57.9857H106.4L106.944 52.7914H112.595V53.7626H107.901L107.547 56.9998H108.872ZM118.5 57.2058C119.579 57.2549 120.398 57.5443 120.957 58.074C121.526 58.5939 121.81 59.2806 121.81 60.1341C121.81 60.7227 121.668 61.2475 121.384 61.7086C121.099 62.1697 120.673 62.5326 120.104 62.7975C119.544 63.0624 118.863 63.1948 118.058 63.1948C117.303 63.1948 116.592 63.0771 115.925 62.8416C115.267 62.5964 114.742 62.2678 114.35 61.8557L114.85 60.9876C115.194 61.3407 115.645 61.6301 116.204 61.8557C116.773 62.0716 117.381 62.1795 118.029 62.1795C118.872 62.1795 119.52 61.998 119.971 61.635C120.432 61.2721 120.663 60.7717 120.663 60.1341C120.663 59.4866 120.437 58.9863 119.986 58.6332C119.535 58.28 118.843 58.1035 117.911 58.1035H117.161V57.3088L119.986 53.7626H114.762V52.7914H121.398V53.5566L118.5 57.2058ZM128.216 63.0918H127.083V53.7626H124.669V52.7914H128.216V63.0918ZM5.54751 81.7785C5.0374 82.475 4.37032 83.0342 3.54629 83.456C2.72225 83.8778 1.81974 84.1329 0.838749 84.2212V83.1911C1.98651 83.0832 2.97241 82.7153 3.79644 82.0875C4.62047 81.4499 5.1404 80.6307 5.35622 79.6301H1.10362V78.6148H10.5506V79.6301H6.48927C6.43041 80.0814 6.30288 80.513 6.10668 80.925L10.8743 83.2353L10.4181 84.1623L5.54751 81.7785ZM6.34212 86.5608V89.857H5.26793V86.5608H0.470876V85.5308H11.1833V86.5608H6.34212ZM17.3326 81.8668C16.7146 82.887 15.9641 83.6963 15.0812 84.2947C14.1983 84.8931 13.2811 85.1924 12.3295 85.1924V84.1329C13.1045 84.1329 13.8501 83.8778 14.5662 83.3677C15.2823 82.8478 15.8954 82.1464 16.4055 81.2635C16.9255 80.3806 17.2835 79.4094 17.4797 78.3499L18.5686 78.5707C18.4117 79.4045 18.1566 80.204 17.8035 80.9692L22.5417 84.3536L21.9678 85.2218L17.3326 81.8668ZM22.836 87.9735V89.0182H12.1235V87.9735H16.9353V84.6626H18.0095V87.9735H22.836ZM27.7897 81.6166C27.5543 81.6166 27.3581 81.5382 27.2011 81.3812C27.0441 81.2242 26.9657 81.028 26.9657 80.7926C26.9657 80.5572 27.0441 80.3659 27.2011 80.2187C27.3581 80.0618 27.5543 79.9833 27.7897 79.9833C28.0251 79.9833 28.2213 80.0618 28.3783 80.2187C28.5352 80.3659 28.6137 80.5572 28.6137 80.7926C28.6137 81.028 28.5352 81.2242 28.3783 81.3812C28.2213 81.5382 28.0251 81.6166 27.7897 81.6166ZM27.7897 87.8999C27.5641 87.8999 27.3679 87.8214 27.2011 87.6645C27.0441 87.5075 26.9657 87.3113 26.9657 87.0759C26.9657 86.8404 27.0441 86.6442 27.2011 86.4873C27.3679 86.3303 27.5641 86.2518 27.7897 86.2518C28.0153 86.2518 28.2066 86.3303 28.3636 86.4873C28.5303 86.6442 28.6137 86.8404 28.6137 87.0759C28.6137 87.3113 28.5303 87.5075 28.3636 87.6645C28.2066 87.8214 28.0153 87.8999 27.7897 87.8999ZM33.5186 84.2653V78.5118H34.5634V80.2187H41.6265V78.5118H42.6713V84.2653H33.5186ZM41.6265 81.2046H34.5634V83.2647H41.6265V81.2046ZM38.6394 86.5756V89.857H37.5505V86.5756H32.7387V85.5455H43.4512V86.5756H38.6394ZM55.6188 82.0139H54.059V86.6933H52.9996V78.2911H54.059V80.9397H55.6188V82.0139ZM47.9524 82.2052C47.5698 82.9508 47.0793 83.5639 46.4809 84.0446C45.8825 84.5253 45.2007 84.8245 44.4355 84.9422V83.8974C45.1124 83.7601 45.701 83.4266 46.2013 82.8968C46.7114 82.3671 47.0989 81.7098 47.3638 80.925C47.6286 80.1402 47.7611 79.3015 47.7611 78.4088L48.8353 78.4676C48.8353 79.4781 48.6881 80.4051 48.3938 81.2488L51.8518 84.0299L51.2044 84.8392L47.9524 82.2052ZM54.3828 88.4002V89.4155H45.1565V85.8987H46.2307V88.4002H54.3828ZM67.2715 81.9551H65.7411V85.0452H64.6669V78.2911H65.7411V80.925H67.2715V81.9551ZM56.5885 79.4535V78.4971H62.6068V82.4554H61.5474V79.4535H56.5885ZM63.7105 83.8533C63.063 84.1476 61.827 84.2947 60.0023 84.2947H56.044V83.3677H58.2807V80.9103H59.3401V83.3677H60.0465C61.8024 83.3677 63.0238 83.2206 63.7105 82.9263V83.8533ZM61.3266 85.2806C62.7098 85.2806 63.8233 85.4621 64.6669 85.8251C65.5106 86.1782 65.9324 86.7227 65.9324 87.4584C65.9324 88.1942 65.5106 88.7386 64.6669 89.0918C63.8331 89.445 62.7197 89.6215 61.3266 89.6215C59.9336 89.6215 58.8104 89.445 57.9569 89.0918C57.1133 88.7386 56.6915 88.1942 56.6915 87.4584C56.6915 86.7227 57.1133 86.1782 57.9569 85.8251C58.8104 85.4621 59.9336 85.2806 61.3266 85.2806ZM61.3266 88.7239C62.3665 88.7239 63.2102 88.6209 63.8576 88.4149C64.5051 88.2089 64.8288 87.8901 64.8288 87.4584C64.8288 87.017 64.5051 86.6933 63.8576 86.4873C63.2102 86.2813 62.3665 86.1782 61.3266 86.1782C60.277 86.1782 59.4284 86.2813 58.781 86.4873C58.1335 86.6933 57.8098 87.017 57.8098 87.4584C57.8098 87.8901 58.1335 88.2089 58.781 88.4149C59.4284 88.6209 60.277 88.7239 61.3266 88.7239ZM77.7469 85.0452H76.7021V83.5149H74.6715L74.7451 82.5142H76.7021V80.5719H74.7451L74.6715 79.586H76.7021V78.2911H77.7469V85.0452ZM74.3772 81.5431C74.3772 82.1415 74.2448 82.6761 73.9799 83.147C73.715 83.6179 73.3324 83.9906 72.8321 84.2653C72.3416 84.5302 71.7629 84.6626 71.0958 84.6626C70.4385 84.6626 69.8597 84.5302 69.3594 84.2653C68.8689 83.9906 68.4863 83.6179 68.2117 83.147C67.9468 82.6663 67.8144 82.1317 67.8144 81.5431C67.8144 80.9545 67.9468 80.4247 68.2117 79.9539C68.4863 79.4732 68.8689 79.1004 69.3594 78.8355C69.8597 78.5608 70.4385 78.4235 71.0958 78.4235C71.7629 78.4235 72.3416 78.5608 72.8321 78.8355C73.3324 79.1004 73.715 79.4683 73.9799 79.9391C74.2448 80.41 74.3772 80.9447 74.3772 81.5431ZM68.8885 81.5431C68.8885 82.2101 69.0896 82.7399 69.4919 83.1323C69.9039 83.5247 70.4385 83.7209 71.0958 83.7209C71.753 83.7209 72.2877 83.5247 72.6997 83.1323C73.1117 82.7399 73.3177 82.2101 73.3177 81.5431C73.3177 80.876 73.1117 80.3462 72.6997 79.9539C72.2975 79.5615 71.7629 79.3653 71.0958 79.3653C70.4385 79.3653 69.9039 79.5615 69.4919 79.9539C69.0896 80.3462 68.8885 80.876 68.8885 81.5431ZM77.7469 85.7074V89.5627H76.6727V86.6933H68.7267V85.7074H77.7469ZM89.326 89.5921H88.2518V78.2911H89.326V89.5921ZM84.0875 78.6148C84.0679 80.4002 83.9158 81.9649 83.6313 83.3088L87.1776 88.2089L86.3241 88.8564L83.2929 84.6038C82.9103 85.8889 82.4002 86.9042 81.7625 87.6497C81.1347 88.3855 80.4038 88.7975 79.57 88.8858V87.7822C80.2959 87.6546 80.914 87.1691 81.4241 86.3254C81.9342 85.4719 82.3217 84.3732 82.5866 83.0293C82.8514 81.6853 82.9888 80.204 82.9986 78.5854L84.0875 78.6148ZM94.6917 84.2653V78.5118H95.7365V80.2187H102.8V78.5118H103.844V84.2653H94.6917ZM102.8 81.2046H95.7365V83.2647H102.8V81.2046ZM99.8125 86.5756V89.857H98.7236V86.5756H93.9118V85.5455H104.624V86.5756H99.8125ZM116.792 82.0139H115.232V86.6933H114.173V78.2911H115.232V80.9397H116.792V82.0139ZM109.125 82.2052C108.743 82.9508 108.252 83.5639 107.654 84.0446C107.056 84.5253 106.374 84.8245 105.609 84.9422V83.8974C106.286 83.7601 106.874 83.4266 107.374 82.8968C107.885 82.3671 108.272 81.7098 108.537 80.925C108.802 80.1402 108.934 79.3015 108.934 78.4088L110.008 78.4676C110.008 79.4781 109.861 80.4051 109.567 81.2488L113.025 84.0299L112.377 84.8392L109.125 82.2052ZM115.556 88.4002V89.4155H106.33V85.8987H107.404V88.4002H115.556ZM126.12 86.6933V78.2911H127.194V86.6933H126.12ZM121.087 82.2788C120.724 83.0244 120.234 83.6277 119.616 84.0887C119.007 84.5498 118.306 84.8343 117.511 84.9422V83.9122C118.443 83.7552 119.194 83.2941 119.763 82.529C120.332 81.7638 120.641 80.7828 120.69 79.586H117.644V78.6148H124.589V79.586H121.749C121.739 80.2236 121.651 80.8073 121.484 81.3371L124.898 84.0299L124.31 84.8539L121.087 82.2788ZM127.503 89.4155H118.174V85.8987H119.248V88.4002H127.503V89.4155ZM129.606 79.6301V78.5854H138.788V83.6914H137.684V79.6301H129.606ZM134.697 85.7809V89.857H133.623V85.7809H128.87V84.7068H139.582V85.7809H134.697ZM154.145 84.486H143.432V83.5737H148.259V82.2788H144.242V78.4529H153.35V79.3653H145.301V81.3665H153.468V82.2788H149.318V83.5737H154.145V84.486ZM148.789 85.5308C150.182 85.5308 151.31 85.6927 152.173 86.0164C153.046 86.3303 153.483 86.8453 153.483 87.5614C153.483 88.2776 153.046 88.7975 152.173 89.1212C151.31 89.445 150.182 89.6068 148.789 89.6068C147.396 89.6068 146.262 89.445 145.389 89.1212C144.526 88.7975 144.094 88.2776 144.094 87.5614C144.094 86.8453 144.526 86.3303 145.389 86.0164C146.262 85.6927 147.396 85.5308 148.789 85.5308ZM148.789 88.7092C149.799 88.7092 150.648 88.6209 151.334 88.4443C152.021 88.258 152.364 87.9637 152.364 87.5614C152.364 87.1691 152.021 86.8846 151.334 86.708C150.648 86.5216 149.799 86.4284 148.789 86.4284C147.778 86.4284 146.925 86.5216 146.228 86.708C145.541 86.8846 145.198 87.1691 145.198 87.5614C145.198 87.9637 145.541 88.258 146.228 88.4443C146.915 88.6209 147.768 88.7092 148.789 88.7092ZM158.764 82.8527C158.42 83.5394 157.949 84.0936 157.351 84.5155C156.753 84.9275 156.071 85.1874 155.306 85.2954V84.2947C156.198 84.1378 156.915 83.7307 157.454 83.0734C157.994 82.4161 158.298 81.5529 158.366 80.4836H155.423V79.5124H158.366V78.0851H159.441V79.5124H162.325V80.4836H159.441C159.411 81.0133 159.328 81.494 159.19 81.9256L162.501 84.383L161.927 85.2365L158.764 82.8527ZM164.076 78.2911H165.135V86.7374H164.076V82.529H161.898V81.4989H164.076V78.2911ZM165.385 89.4155H156.086V86.296H157.16V88.4149H165.385V89.4155ZM177.45 89.0182H166.738V88.0029H171.535V85.6779H167.503V81.7049H175.67V79.7331H167.488V78.7325H176.729V82.6761H168.548V84.6773H176.891V85.6779H172.594V88.0029H177.45V89.0182ZM182.404 87.5467C182.639 87.5467 182.835 87.6252 182.992 87.7822C183.149 87.9391 183.228 88.1304 183.228 88.3561C183.228 88.4738 183.208 88.6013 183.169 88.7386C183.14 88.876 183.095 89.0329 183.037 89.2095L182.404 91.2549H181.624L182.139 89.1212C181.972 89.0722 181.84 88.979 181.742 88.8416C181.644 88.7043 181.594 88.5424 181.594 88.3561C181.594 88.1206 181.673 87.9293 181.83 87.7822C181.987 87.6252 182.178 87.5467 182.404 87.5467ZM193.93 86.399V89.0918H192.812V86.399H187.014V85.6044L192.444 78.7914H193.68L188.442 85.4131H192.827V83.044H193.93V85.4131H195.976V86.399H193.93ZM201.204 81.3665C200.684 81.8472 200.007 82.215 199.173 82.4701C198.349 82.7153 197.501 82.8478 196.628 82.8674V81.9845C197.618 81.9551 198.545 81.7589 199.409 81.3959C200.272 81.0329 200.816 80.5277 201.042 79.8803H196.848V78.9974H201.013V77.8349H202.087V78.9974H206.236V79.8803H202.19C202.15 80.1451 202.047 80.4002 201.881 80.6455L206.486 82.0287L206.222 82.8968L201.204 81.3665ZM206.898 84.7509H196.186V83.8386H206.898V84.7509ZM201.542 85.8545C202.935 85.8545 204.063 86.0017 204.927 86.296C205.8 86.5805 206.236 87.0562 206.236 87.7233C206.236 88.3904 205.805 88.8662 204.941 89.1507C204.078 89.445 202.945 89.5921 201.542 89.5921C200.139 89.5921 199.002 89.445 198.128 89.1507C197.265 88.8662 196.834 88.3904 196.834 87.7233C196.834 87.0562 197.265 86.5805 198.128 86.296C199.002 86.0017 200.139 85.8545 201.542 85.8545ZM201.542 88.7239C202.563 88.7239 203.416 88.6454 204.103 88.4885C204.799 88.3315 205.147 88.0765 205.147 87.7233C205.147 87.3702 204.804 87.12 204.117 86.9729C203.431 86.8159 202.572 86.7374 201.542 86.7374C200.512 86.7374 199.649 86.8159 198.952 86.9729C198.266 87.12 197.922 87.3702 197.922 87.7233C197.922 88.0765 198.271 88.3315 198.967 88.4885C199.664 88.6454 200.522 88.7239 201.542 88.7239ZM217.326 86.399V89.0918H216.208V86.399H210.41V85.6044L215.84 78.7914H217.076L211.838 85.4131H216.223V83.044H217.326V85.4131H219.372V86.399H217.326ZM223.525 89.1948C222.731 89.1948 222.02 88.9839 221.392 88.5621C220.764 88.1304 220.273 87.5173 219.92 86.7227C219.567 85.9281 219.391 85.0011 219.391 83.9416C219.391 82.8821 219.567 81.9551 219.92 81.1605C220.273 80.3659 220.764 79.7577 221.392 79.3358C222.02 78.9042 222.731 78.6884 223.525 78.6884C224.33 78.6884 225.041 78.9042 225.659 79.3358C226.287 79.7577 226.777 80.3659 227.131 81.1605C227.484 81.9453 227.66 82.8723 227.66 83.9416C227.66 85.0109 227.484 85.9428 227.131 86.7374C226.777 87.5222 226.287 88.1304 225.659 88.5621C225.041 88.9839 224.33 89.1948 223.525 89.1948ZM223.525 88.1795C224.124 88.1795 224.644 88.0176 225.085 87.6939C225.536 87.3603 225.885 86.8748 226.13 86.2371C226.385 85.5995 226.513 84.8343 226.513 83.9416C226.513 83.0489 226.385 82.2837 226.13 81.6461C225.885 81.0084 225.536 80.5277 225.085 80.204C224.644 79.8705 224.124 79.7037 223.525 79.7037C222.937 79.7037 222.417 79.8705 221.966 80.204C221.514 80.5277 221.166 81.0084 220.921 81.6461C220.676 82.2837 220.553 83.0489 220.553 83.9416C220.553 84.8343 220.676 85.5995 220.921 86.2371C221.166 86.8748 221.514 87.3603 221.966 87.6939C222.417 88.0176 222.937 88.1795 223.525 88.1795ZM236.008 89.0918H228.739V88.3119L233.006 84.1035C233.546 83.5737 233.909 83.1225 234.095 82.7497C234.291 82.3769 234.389 81.9943 234.389 81.6019C234.389 81.0035 234.183 80.5375 233.771 80.204C233.359 79.8607 232.771 79.689 232.006 79.689C230.799 79.689 229.877 80.0814 229.239 80.8662L228.415 80.2482C228.808 79.7478 229.318 79.3653 229.945 79.1004C230.573 78.8257 231.289 78.6884 232.094 78.6884C233.134 78.6884 233.963 78.9434 234.581 79.4535C235.208 79.9539 235.522 80.6356 235.522 81.4989C235.522 82.0385 235.405 82.5486 235.169 83.0293C234.934 83.5099 234.492 84.0691 233.845 84.7068L230.402 88.1059H236.008V89.0918ZM244.93 79.5566L240.618 89.0918H239.367L243.605 79.7773H238.367V81.6902H237.322V78.7914H244.93V79.5566ZM246.464 80.8515V79.8361H250.879V78.1439H251.953V79.8361H256.397V80.8515H246.464ZM256.794 89.0182H246.082V88.0176H250.908V86.1194C249.711 86.0703 248.755 85.8692 248.039 85.5161C247.332 85.1531 246.979 84.6234 246.979 83.9269C246.979 83.1715 247.386 82.6123 248.201 82.2494C249.015 81.8864 250.094 81.7049 251.438 81.7049C252.772 81.7049 253.846 81.8864 254.66 82.2494C255.475 82.6123 255.882 83.1715 255.882 83.9269C255.882 84.6234 255.524 85.1531 254.808 85.5161C254.101 85.8692 253.155 86.0703 251.968 86.1194V88.0176H256.794V89.0182ZM248.068 83.9269C248.068 84.3585 248.372 84.6773 248.98 84.8833C249.598 85.0893 250.418 85.1924 251.438 85.1924C252.448 85.1924 253.258 85.0893 253.866 84.8833C254.484 84.6773 254.793 84.3585 254.793 83.9269C254.793 83.4854 254.484 83.1617 253.866 82.9557C253.258 82.7497 252.448 82.6467 251.438 82.6467C250.418 82.6467 249.598 82.7497 248.98 82.9557C248.372 83.1617 248.068 83.4854 248.068 83.9269ZM260 89.8128C259.529 89.0477 259.166 88.1648 258.911 87.1641C258.656 86.1635 258.529 85.0893 258.529 83.9416C258.529 82.7938 258.656 81.7147 258.911 80.7043C259.166 79.6939 259.529 78.8159 260 78.0703H260.942C260.442 78.9042 260.074 79.8067 259.838 80.7779C259.603 81.7393 259.485 82.7938 259.485 83.9416C259.485 85.0893 259.603 86.1488 259.838 87.12C260.074 88.0814 260.442 88.979 260.942 89.8128H260ZM270.851 78.2911H271.91V86.708H270.851V82.0139H268.643V81.028H270.851V78.2911ZM265.627 82.3818C265.274 83.1372 264.793 83.7454 264.185 84.2065C263.577 84.6675 262.875 84.9471 262.081 85.0452V84.0152C263.013 83.868 263.753 83.402 264.303 82.6172C264.862 81.8325 265.171 80.822 265.23 79.586H262.213V78.6148H269.085V79.586H266.289C266.26 80.2923 266.166 80.9054 266.009 81.4253L269.364 84.1329L268.761 84.9569L265.627 82.3818ZM272.16 89.4155H262.86V85.8987H263.935V88.4002H272.16V89.4155ZM284.225 89.0182H273.513V87.9735H278.31V85.2365H274.086V84.2212H276.043V79.8508H274.189V78.8208H283.533V79.8508H281.694V84.2212H283.651V85.2365H279.413V87.9735H284.225V89.0182ZM280.635 84.2212V79.8508H277.103V84.2212H280.635ZM295.878 84.486H285.165V83.5737H289.992V82.2788H285.974V78.4529H295.083V79.3653H287.034V81.3665H295.201V82.2788H291.051V83.5737H295.878V84.486ZM290.521 85.5308C291.914 85.5308 293.042 85.6927 293.906 86.0164C294.779 86.3303 295.215 86.8453 295.215 87.5614C295.215 88.2776 294.779 88.7975 293.906 89.1212C293.042 89.445 291.914 89.6068 290.521 89.6068C289.128 89.6068 287.995 89.445 287.122 89.1212C286.259 88.7975 285.827 88.2776 285.827 87.5614C285.827 86.8453 286.259 86.3303 287.122 86.0164C287.995 85.6927 289.128 85.5308 290.521 85.5308ZM290.521 88.7092C291.532 88.7092 292.38 88.6209 293.067 88.4443C293.754 88.258 294.097 87.9637 294.097 87.5614C294.097 87.1691 293.754 86.8846 293.067 86.708C292.38 86.5216 291.532 86.4284 290.521 86.4284C289.511 86.4284 288.657 86.5216 287.961 86.708C287.274 86.8846 286.931 87.1691 286.931 87.5614C286.931 87.9637 287.274 88.258 287.961 88.4443C288.648 88.6209 289.501 88.7092 290.521 88.7092ZM297.921 87.5467C298.157 87.5467 298.353 87.6252 298.51 87.7822C298.667 87.9391 298.745 88.1304 298.745 88.3561C298.745 88.4738 298.726 88.6013 298.687 88.7386C298.657 88.876 298.613 89.0329 298.554 89.2095L297.921 91.2549H297.141L297.657 89.1212C297.49 89.0722 297.357 88.979 297.259 88.8416C297.161 88.7043 297.112 88.5424 297.112 88.3561C297.112 88.1206 297.191 87.9293 297.348 87.7822C297.504 87.6252 297.696 87.5467 297.921 87.5467ZM309.937 89.5921H308.863V78.2911H309.937V89.5921ZM304.463 79.7626C304.453 81.1163 304.341 82.3671 304.125 83.5149L307.701 88.1206L306.862 88.7828L303.786 84.7509C303.433 85.9673 302.953 86.9336 302.344 87.6497C301.736 88.3561 301.03 88.7681 300.225 88.8858V87.7822C300.873 87.6448 301.432 87.2181 301.903 86.502C302.374 85.776 302.737 84.8343 302.992 83.6767C303.247 82.5093 303.384 81.2046 303.404 79.7626H300.461V78.7325H307.318V79.7626H304.463ZM322.326 89.0182H311.613V87.9735H316.425V85.3836C315.571 85.3346 314.821 85.1629 314.174 84.8686C313.536 84.5645 313.04 84.1672 312.687 83.6767C312.344 83.1764 312.172 82.6074 312.172 81.9698C312.172 81.2831 312.368 80.6798 312.761 80.1599C313.163 79.6399 313.722 79.2377 314.438 78.9532C315.164 78.6688 316.008 78.5265 316.969 78.5265C317.931 78.5265 318.769 78.6688 319.486 78.9532C320.212 79.2377 320.771 79.6399 321.163 80.1599C321.565 80.6798 321.766 81.2831 321.766 81.9698C321.766 82.6074 321.59 83.1764 321.237 83.6767C320.893 84.1672 320.398 84.5645 319.75 84.8686C319.103 85.1629 318.353 85.3346 317.499 85.3836V87.9735H322.326V89.0182ZM313.276 81.9698C313.276 82.4505 313.428 82.8723 313.732 83.2353C314.036 83.5982 314.468 83.8827 315.027 84.0887C315.586 84.2849 316.234 84.383 316.969 84.383C317.705 84.383 318.353 84.2849 318.912 84.0887C319.471 83.8827 319.903 83.5982 320.207 83.2353C320.511 82.8723 320.663 82.4505 320.663 81.9698C320.663 81.4891 320.511 81.0673 320.207 80.7043C319.903 80.3315 319.471 80.047 318.912 79.8508C318.353 79.6448 317.705 79.5418 316.969 79.5418C316.234 79.5418 315.586 79.6448 315.027 79.8508C314.468 80.047 314.036 80.3315 313.732 80.7043C313.428 81.0673 313.276 81.4891 313.276 81.9698ZM323.899 82.2347V81.3812H325.87V79.3064H324.016V78.4529H333.228V79.3064H331.374V81.3812H333.331V82.2347H323.899ZM330.329 81.3812V79.3064H326.915V81.3812H330.329ZM333.978 84.1623H323.266V83.2794H333.978V84.1623ZM333.404 88.6504V89.4302H324.046V86.9434H332.183V85.9722H324.016V85.1924H333.213V87.6497H325.076V88.6504H333.404ZM345.189 89.5921H344.174V78.2911H345.189V89.5921ZM342.6 78.3499V89.4008H341.584V84.074H340.157V83.0293H341.584V78.3499H342.6ZM337.273 87.9146C338.627 87.9146 339.706 87.7282 340.51 87.3554V88.3561C339.755 88.7092 338.661 88.8858 337.229 88.8858H335.286V83.25H338.494V79.7037H335.286V78.7325H339.509V84.2212H336.287V87.9146H337.273ZM355.474 89.5921V78.2911H356.548V89.5921H355.474ZM350.294 78.5854C351.275 78.5854 352.055 79.0268 352.634 79.9097C353.222 80.7926 353.516 82.0924 353.516 83.8092C353.516 85.5259 353.222 86.8257 352.634 87.7086C352.055 88.5915 351.275 89.0329 350.294 89.0329C349.313 89.0329 348.528 88.5915 347.94 87.7086C347.361 86.8257 347.071 85.5259 347.071 83.8092C347.071 82.0924 347.361 80.7926 347.94 79.9097C348.528 79.0268 349.313 78.5854 350.294 78.5854ZM350.294 79.6007C349.637 79.6007 349.112 79.9539 348.719 80.6602C348.327 81.3567 348.131 82.4063 348.131 83.8092C348.131 85.2218 348.327 86.2763 348.719 86.9729C349.112 87.6694 349.637 88.0176 350.294 88.0176C350.932 88.0176 351.451 87.6694 351.854 86.9729C352.256 86.2665 352.457 85.212 352.457 83.8092C352.457 82.4161 352.256 81.3665 351.854 80.6602C351.451 79.9539 350.932 79.6007 350.294 79.6007ZM363.418 81.9404C362.8 82.9802 362.05 83.8141 361.167 84.4419C360.294 85.0599 359.381 85.3689 358.43 85.3689V84.3095C359.205 84.3095 359.95 84.0397 360.666 83.5001C361.382 82.9606 361.996 82.2396 362.506 81.3371C363.026 80.4247 363.384 79.429 363.58 78.3499L364.669 78.5707C364.512 79.4045 364.247 80.2334 363.874 81.0575L368.642 84.5302L368.068 85.3984L363.418 81.9404ZM368.936 87.9735V89.0182H358.224V87.9735H368.936ZM369.862 89.8128C370.362 88.979 370.725 88.0765 370.951 87.1053C371.186 86.1341 371.304 85.0795 371.304 83.9416C371.304 82.8036 371.186 81.7491 370.951 80.7779C370.725 79.8067 370.362 78.9042 369.862 78.0703H370.789C371.26 78.8159 371.618 79.6939 371.863 80.7043C372.118 81.7049 372.245 82.784 372.245 83.9416C372.245 85.0893 372.118 86.1635 371.863 87.1641C371.618 88.1648 371.26 89.0477 370.789 89.8128H369.862ZM10.7419 114.592H9.71183V108.971H7.68117V114.401H6.66584V103.35H7.68117V107.926H9.71183V103.291H10.7419V114.592ZM5.16493 103.733V106.705C5.16493 108.118 4.97854 109.363 4.60576 110.443C4.24279 111.522 3.72777 112.36 3.0607 112.959C2.39362 113.557 1.62354 113.856 0.750459 113.856V112.812C1.43715 112.802 2.03556 112.542 2.54568 112.032C3.05579 111.522 3.44819 110.815 3.72287 109.913C4.00735 109 4.1496 107.951 4.1496 106.764V104.748H0.750459V103.733H5.16493ZM21.026 111.693V103.291H22.1002V111.693H21.026ZM15.6404 103.424C16.3271 103.424 16.9255 103.566 17.4356 103.85C17.9457 104.125 18.3332 104.512 18.5981 105.013C18.8727 105.503 19.0101 106.062 19.0101 106.69C19.0101 107.318 18.8727 107.882 18.5981 108.382C18.3332 108.873 17.9457 109.26 17.4356 109.545C16.9255 109.82 16.3271 109.957 15.6404 109.957C14.9537 109.957 14.3553 109.82 13.8452 109.545C13.335 109.26 12.9426 108.873 12.668 108.382C12.3933 107.882 12.2559 107.318 12.2559 106.69C12.2559 106.062 12.3933 105.503 12.668 105.013C12.9426 104.512 13.335 104.125 13.8452 103.85C14.3553 103.566 14.9537 103.424 15.6404 103.424ZM15.6404 104.365C14.9439 104.365 14.3847 104.576 13.9629 104.998C13.541 105.42 13.3301 105.984 13.3301 106.69C13.3301 107.397 13.541 107.961 13.9629 108.382C14.3847 108.794 14.9439 109 15.6404 109C16.3369 109 16.896 108.794 17.3179 108.382C17.7397 107.961 17.9506 107.397 17.9506 106.69C17.9506 105.984 17.7397 105.42 17.3179 104.998C16.896 104.576 16.3369 104.365 15.6404 104.365ZM22.4092 113.4V114.416H13.1977V110.766H14.2719V113.4H22.4092ZM32.7669 103.291H33.8264V109.648H32.7669V106.469H30.5597V105.498H32.7669V103.291ZM27.5284 106.94C27.1753 107.588 26.6946 108.118 26.0864 108.53C25.4782 108.932 24.7817 109.182 23.9969 109.28V108.279C24.919 108.132 25.6498 107.735 26.1894 107.088C26.7388 106.43 27.0527 105.591 27.1311 104.571H24.1293V103.615H31.0012V104.571H28.2053C28.1759 105.111 28.0876 105.601 27.9405 106.043L31.3543 108.338L30.8099 109.177L27.5284 106.94ZM29.3237 110.06C30.7069 110.06 31.8154 110.246 32.6492 110.619C33.4929 110.982 33.9147 111.546 33.9147 112.311C33.9147 113.076 33.4929 113.645 32.6492 114.018C31.8154 114.381 30.7069 114.563 29.3237 114.563C27.9405 114.563 26.8319 114.381 25.9981 114.018C25.1643 113.645 24.7473 113.076 24.7473 112.311C24.7473 111.546 25.1643 110.982 25.9981 110.619C26.8319 110.246 27.9405 110.06 29.3237 110.06ZM29.3237 113.636C30.3537 113.636 31.1876 113.523 31.8252 113.297C32.4727 113.072 32.7964 112.743 32.7964 112.311C32.7964 111.88 32.4727 111.551 31.8252 111.325C31.1777 111.1 30.3439 110.987 29.3237 110.987C28.3034 110.987 27.4696 111.1 26.8221 111.325C26.1845 111.551 25.8657 111.88 25.8657 112.311C25.8657 112.743 26.1845 113.072 26.8221 113.297C27.4696 113.523 28.3034 113.636 29.3237 113.636ZM46.1412 114.018H35.4288V112.973H40.2406V110.251H36.1793V103.644H37.224V105.793H44.346V103.644H45.3908V110.251H41.3147V112.973H46.1412V114.018ZM44.346 109.251V106.793H37.224V109.251H44.346ZM52.846 107.794C52.2967 109.079 51.3844 109.824 50.1091 110.03V109.045C50.7958 108.888 51.3255 108.51 51.6983 107.912C52.0809 107.303 52.2918 106.484 52.331 105.454H50.2415V104.483H52.331V103.1H53.3758V104.483H55.4212V105.454H53.3758C53.366 105.876 53.3071 106.322 53.1992 106.793L55.686 109.251L55.0386 109.986L52.846 107.794ZM60.2623 110.398H59.247V107.058H57.3047V110.281H56.304V103.35H57.3047V106.013H59.247V103.291H60.2623V110.398ZM60.2623 111.061V114.563H59.2029V112.017H50.8743V111.061H60.2623ZM70.5465 109.442V103.291H71.6207V109.442H70.5465ZM65.1756 103.424C65.8525 103.424 66.441 103.546 66.9414 103.791C67.4515 104.027 67.839 104.36 68.1038 104.792C68.3785 105.224 68.5158 105.719 68.5158 106.278C68.5158 106.837 68.3785 107.333 68.1038 107.764C67.839 108.196 67.4515 108.534 66.9414 108.78C66.441 109.015 65.8525 109.133 65.1756 109.133C64.4987 109.133 63.9052 109.015 63.3951 108.78C62.8948 108.534 62.5073 108.196 62.2326 107.764C61.9677 107.333 61.8353 106.837 61.8353 106.278C61.8353 105.719 61.9677 105.224 62.2326 104.792C62.5073 104.36 62.8948 104.027 63.3951 103.791C63.9052 103.546 64.4987 103.424 65.1756 103.424ZM65.1756 104.351C64.4889 104.351 63.9346 104.522 63.5128 104.866C63.1008 105.209 62.8948 105.68 62.8948 106.278C62.8948 106.877 63.1008 107.347 63.5128 107.691C63.9346 108.034 64.4889 108.206 65.1756 108.206C65.8525 108.206 66.3969 108.034 66.8089 107.691C67.2307 107.347 67.4417 106.877 67.4417 106.278C67.4417 105.68 67.2307 105.209 66.8089 104.866C66.3969 104.522 65.8525 104.351 65.1756 104.351ZM62.7182 114.416V110.104H71.6207V114.416H62.7182ZM70.5465 111.061H63.7777V113.459H70.5465V111.061ZM84.5241 107.514H82.9937V111.885H81.9196V103.291H82.9937V106.469H84.5241V107.514ZM73.8411 104.483V103.497H79.8595V107.882H78.8V104.483H73.8411ZM80.9631 109.501C80.3254 109.805 79.0894 109.957 77.2549 109.957H73.2966V108.986H75.5333V106.175H76.5928V108.986H77.2991C79.0649 108.986 80.2862 108.834 80.9631 108.53V109.501ZM83.3175 113.444V114.416H74.0912V111.149H75.1507V113.444H83.3175ZM93.8518 114.592V103.291H94.926V114.592H93.8518ZM86.6562 109.221V112.87H89.9965C90.5066 112.87 91.0167 112.821 91.5268 112.723C92.0369 112.625 92.4539 112.493 92.7776 112.326V113.341C92.4539 113.518 92.0369 113.655 91.5268 113.753C91.0167 113.842 90.4968 113.886 89.967 113.886H85.5967V108.221H90.5704V104.748H85.582V103.733H91.6151V109.221H86.6562ZM106.27 109.03V114.592H105.21V103.291H106.27V107.97H107.829V109.03H106.27ZM100.928 104.763C100.908 106.185 100.801 107.441 100.604 108.53L104.121 113.135L103.282 113.783L100.266 109.795C99.9128 111.002 99.437 111.958 98.8386 112.664C98.2402 113.361 97.5437 113.768 96.7491 113.886V112.782C97.3867 112.645 97.9361 112.218 98.3971 111.502C98.8582 110.776 99.2114 109.834 99.4566 108.677C99.7117 107.519 99.849 106.214 99.8686 104.763H96.9845V103.733H103.739V104.763H100.928ZM112.268 106.617C112.033 106.617 111.836 106.538 111.679 106.381C111.523 106.224 111.444 106.028 111.444 105.793C111.444 105.557 111.523 105.366 111.679 105.219C111.836 105.062 112.033 104.983 112.268 104.983C112.504 104.983 112.7 105.062 112.857 105.219C113.014 105.366 113.092 105.557 113.092 105.793C113.092 106.028 113.014 106.224 112.857 106.381C112.7 106.538 112.504 106.617 112.268 106.617ZM112.268 112.9C112.042 112.9 111.846 112.821 111.679 112.664C111.523 112.507 111.444 112.311 111.444 112.076C111.444 111.84 111.523 111.644 111.679 111.487C111.846 111.33 112.042 111.252 112.268 111.252C112.494 111.252 112.685 111.33 112.842 111.487C113.009 111.644 113.092 111.84 113.092 112.076C113.092 112.311 113.009 112.507 112.842 112.664C112.685 112.821 112.494 112.9 112.268 112.9ZM122.573 108.073C121.2 108.073 120.067 107.872 119.174 107.47C118.281 107.058 117.835 106.455 117.835 105.66C117.835 104.875 118.281 104.277 119.174 103.865C120.077 103.443 121.21 103.232 122.573 103.232C123.927 103.232 125.05 103.443 125.943 103.865C126.846 104.277 127.297 104.875 127.297 105.66C127.297 106.455 126.85 107.058 125.958 107.47C125.065 107.872 123.937 108.073 122.573 108.073ZM122.573 104.159C121.553 104.159 120.695 104.292 119.998 104.557C119.302 104.821 118.953 105.189 118.953 105.66C118.953 106.141 119.302 106.514 119.998 106.778C120.695 107.034 121.553 107.161 122.573 107.161C123.594 107.161 124.447 107.034 125.134 106.778C125.83 106.514 126.178 106.141 126.178 105.66C126.178 105.189 125.83 104.821 125.134 104.557C124.437 104.292 123.584 104.159 122.573 104.159ZM127.93 110.03H125.237V112.149H124.163V110.03H122.014V112.149H120.955V110.03H117.217V109.089H127.93V110.03ZM127.356 113.474V114.43H117.982V111.237H119.042V113.474H127.356ZM135.138 106.263V105.263H137.861V103.291H138.92V109.648H137.861V106.263H135.138ZM132.431 106.867C132.058 107.544 131.572 108.103 130.974 108.544C130.376 108.986 129.689 109.265 128.914 109.383V108.368C129.591 108.23 130.174 107.926 130.665 107.455C131.165 106.975 131.543 106.386 131.798 105.69C132.063 104.983 132.2 104.223 132.21 103.409L133.27 103.468C133.27 104.37 133.137 105.199 132.872 105.954L136.212 108.368L135.624 109.162L132.431 106.867ZM134.417 110.06C135.8 110.06 136.909 110.246 137.743 110.619C138.586 110.982 139.008 111.546 139.008 112.311C139.008 113.076 138.586 113.645 137.743 114.018C136.909 114.381 135.8 114.563 134.417 114.563C133.034 114.563 131.926 114.381 131.092 114.018C130.258 113.645 129.841 113.076 129.841 112.311C129.841 111.546 130.258 110.982 131.092 110.619C131.926 110.246 133.034 110.06 134.417 110.06ZM134.417 113.636C135.447 113.636 136.281 113.523 136.919 113.297C137.566 113.072 137.89 112.743 137.89 112.311C137.89 111.88 137.566 111.551 136.919 111.325C136.271 111.1 135.438 110.987 134.417 110.987C133.397 110.987 132.563 111.1 131.916 111.325C131.278 111.551 130.959 111.88 130.959 112.311C130.959 112.743 131.278 113.072 131.916 113.297C132.563 113.523 133.397 113.636 134.417 113.636ZM140.964 104.924V104.042H145.319V102.835H146.394V104.042H150.793V104.924H140.964ZM141.391 107.352C141.391 106.774 141.793 106.337 142.597 106.043C143.411 105.748 144.505 105.601 145.879 105.601C147.242 105.601 148.326 105.748 149.131 106.043C149.935 106.337 150.337 106.774 150.337 107.352C150.337 107.931 149.935 108.368 149.131 108.662C148.326 108.956 147.242 109.103 145.879 109.103C144.505 109.103 143.411 108.956 142.597 108.662C141.793 108.368 141.391 107.931 141.391 107.352ZM149.278 107.352C149.278 107.048 148.964 106.818 148.336 106.661C147.708 106.494 146.889 106.411 145.879 106.411C144.868 106.411 144.049 106.494 143.421 106.661C142.793 106.818 142.479 107.048 142.479 107.352C142.479 107.656 142.793 107.892 143.421 108.059C144.049 108.216 144.868 108.294 145.879 108.294C146.889 108.294 147.708 108.216 148.336 108.059C148.964 107.892 149.278 107.656 149.278 107.352ZM151.235 110.796H146.408V112.311H145.349V110.796H140.522V109.898H151.235V110.796ZM150.661 113.503V114.43H141.302V111.752H142.376V113.503H150.661ZM154.441 114.813C153.97 114.048 153.607 113.165 153.352 112.164C153.097 111.164 152.97 110.089 152.97 108.942C152.97 107.794 153.097 106.715 153.352 105.704C153.607 104.694 153.97 103.816 154.441 103.07H155.383C154.883 103.904 154.515 104.807 154.279 105.778C154.044 106.739 153.926 107.794 153.926 108.942C153.926 110.089 154.044 111.149 154.279 112.12C154.515 113.081 154.883 113.979 155.383 114.813H154.441ZM160.921 106.278C161.598 106.278 162.211 106.445 162.761 106.778C163.31 107.102 163.741 107.563 164.055 108.162C164.379 108.76 164.541 109.442 164.541 110.207C164.541 110.982 164.379 111.669 164.055 112.267C163.741 112.866 163.31 113.332 162.761 113.665C162.211 113.999 161.598 114.165 160.921 114.165C160.293 114.165 159.729 114.013 159.229 113.709C158.729 113.405 158.336 112.978 158.052 112.429V114.092H157.036V103.173H158.096V107.956C158.371 107.426 158.753 107.014 159.244 106.72C159.744 106.425 160.303 106.278 160.921 106.278ZM160.789 113.194C161.299 113.194 161.76 113.072 162.172 112.826C162.584 112.581 162.903 112.233 163.128 111.782C163.364 111.32 163.482 110.796 163.482 110.207C163.482 109.628 163.364 109.113 163.128 108.662C162.903 108.211 162.584 107.862 162.172 107.617C161.76 107.362 161.299 107.235 160.789 107.235C160.279 107.235 159.818 107.362 159.406 107.617C158.993 107.862 158.67 108.211 158.434 108.662C158.209 109.113 158.096 109.628 158.096 110.207C158.096 110.796 158.209 111.32 158.434 111.782C158.67 112.233 158.993 112.581 159.406 112.826C159.818 113.072 160.279 113.194 160.789 113.194ZM168.851 106.278C169.822 106.278 170.563 106.533 171.073 107.043C171.593 107.544 171.853 108.294 171.853 109.295V114.092H170.852V112.767C170.627 113.209 170.293 113.552 169.852 113.797C169.42 114.043 168.905 114.165 168.307 114.165C167.473 114.165 166.815 113.959 166.335 113.547C165.854 113.135 165.614 112.591 165.614 111.914C165.614 111.257 165.844 110.727 166.305 110.325C166.766 109.923 167.487 109.721 168.468 109.721H170.793C170.793 109.427 170.774 109.177 170.735 108.971C170.646 107.794 169.979 107.205 168.733 107.205C168.262 107.205 167.811 107.289 167.38 107.455C166.948 107.622 166.585 107.848 166.291 108.132L165.834 107.352C166.217 107.009 166.673 106.744 167.203 106.558C167.733 106.371 168.282 106.278 168.851 106.278ZM168.498 113.327C169.636 113.327 170.401 112.807 170.793 111.767V110.472H168.542C167.286 110.472 166.659 110.938 166.659 111.87C166.659 112.321 166.82 112.679 167.144 112.944C167.468 113.199 167.919 113.327 168.498 113.327ZM177.406 114.195C176.612 114.195 175.901 113.984 175.273 113.562C174.645 113.13 174.154 112.517 173.801 111.723C173.448 110.928 173.271 110.001 173.271 108.942C173.271 107.882 173.448 106.955 173.801 106.16C174.154 105.366 174.645 104.758 175.273 104.336C175.901 103.904 176.612 103.688 177.406 103.688C178.211 103.688 178.922 103.904 179.54 104.336C180.168 104.758 180.658 105.366 181.011 106.16C181.365 106.945 181.541 107.872 181.541 108.942C181.541 110.011 181.365 110.943 181.011 111.737C180.658 112.522 180.168 113.13 179.54 113.562C178.922 113.984 178.211 114.195 177.406 114.195ZM177.406 113.179C178.005 113.179 178.525 113.018 178.966 112.694C179.417 112.36 179.766 111.875 180.011 111.237C180.266 110.599 180.393 109.834 180.393 108.942C180.393 108.049 180.266 107.284 180.011 106.646C179.766 106.008 179.417 105.528 178.966 105.204C178.525 104.87 178.005 104.704 177.406 104.704C176.818 104.704 176.298 104.87 175.847 105.204C175.395 105.528 175.047 106.008 174.802 106.646C174.557 107.284 174.434 108.049 174.434 108.942C174.434 109.834 174.557 110.599 174.802 111.237C175.047 111.875 175.395 112.36 175.847 112.694C176.298 113.018 176.818 113.179 177.406 113.179ZM186.24 114.195C185.445 114.195 184.734 113.984 184.106 113.562C183.478 113.13 182.988 112.517 182.634 111.723C182.281 110.928 182.105 110.001 182.105 108.942C182.105 107.882 182.281 106.955 182.634 106.16C182.988 105.366 183.478 104.758 184.106 104.336C184.734 103.904 185.445 103.688 186.24 103.688C187.044 103.688 187.755 103.904 188.373 104.336C189.001 104.758 189.492 105.366 189.845 106.16C190.198 106.945 190.374 107.872 190.374 108.942C190.374 110.011 190.198 110.943 189.845 111.737C189.492 112.522 189.001 113.13 188.373 113.562C187.755 113.984 187.044 114.195 186.24 114.195ZM186.24 113.179C186.838 113.179 187.358 113.018 187.799 112.694C188.251 112.36 188.599 111.875 188.844 111.237C189.099 110.599 189.227 109.834 189.227 108.942C189.227 108.049 189.099 107.284 188.844 106.646C188.599 106.008 188.251 105.528 187.799 105.204C187.358 104.87 186.838 104.704 186.24 104.704C185.651 104.704 185.131 104.87 184.68 105.204C184.229 105.528 183.88 106.008 183.635 106.646C183.39 107.284 183.267 108.049 183.267 108.942C183.267 109.834 183.39 110.599 183.635 111.237C183.88 111.875 184.229 112.36 184.68 112.694C185.131 113.018 185.651 113.179 186.24 113.179ZM196.088 114.092H194.955V104.763H192.542V103.791H196.088V114.092ZM203.479 103.688C204.843 103.688 205.893 104.14 206.628 105.042C207.364 105.945 207.732 107.215 207.732 108.853C207.732 110.001 207.536 110.977 207.143 111.782C206.751 112.576 206.197 113.179 205.481 113.591C204.774 113.994 203.945 114.195 202.994 114.195C201.974 114.195 201.149 113.999 200.522 113.606L200.978 112.723C201.458 113.037 202.126 113.194 202.979 113.194C204.039 113.194 204.882 112.875 205.51 112.238C206.138 111.59 206.481 110.649 206.54 109.412L206.555 108.927C206.555 108.633 206.535 108.353 206.496 108.088C206.27 108.687 205.883 109.152 205.333 109.486C204.784 109.81 204.142 109.972 203.406 109.972C202.729 109.972 202.126 109.844 201.596 109.589C201.076 109.334 200.669 108.976 200.375 108.515C200.08 108.044 199.933 107.5 199.933 106.882C199.933 106.244 200.085 105.685 200.389 105.204C200.703 104.723 201.13 104.351 201.669 104.086C202.209 103.821 202.812 103.688 203.479 103.688ZM203.612 109.059C204.112 109.059 204.558 108.961 204.951 108.765C205.353 108.569 205.662 108.299 205.878 107.956C206.094 107.612 206.202 107.235 206.202 106.823C206.202 106.44 206.099 106.082 205.893 105.748C205.687 105.405 205.378 105.13 204.966 104.924C204.563 104.718 204.083 104.615 203.523 104.615C202.788 104.615 202.194 104.817 201.743 105.219C201.292 105.621 201.066 106.156 201.066 106.823C201.066 107.509 201.292 108.054 201.743 108.456C202.204 108.858 202.827 109.059 203.612 109.059ZM212.313 103.688C213.676 103.688 214.726 104.14 215.462 105.042C216.197 105.945 216.565 107.215 216.565 108.853C216.565 110.001 216.369 110.977 215.977 111.782C215.584 112.576 215.03 113.179 214.314 113.591C213.608 113.994 212.779 114.195 211.827 114.195C210.807 114.195 209.983 113.999 209.355 113.606L209.811 112.723C210.292 113.037 210.959 113.194 211.812 113.194C212.872 113.194 213.715 112.875 214.343 112.238C214.971 111.59 215.314 110.649 215.373 109.412L215.388 108.927C215.388 108.633 215.368 108.353 215.329 108.088C215.104 108.687 214.716 109.152 214.167 109.486C213.617 109.81 212.975 109.972 212.239 109.972C211.562 109.972 210.959 109.844 210.429 109.589C209.909 109.334 209.502 108.976 209.208 108.515C208.913 108.044 208.766 107.5 208.766 106.882C208.766 106.244 208.918 105.685 209.222 105.204C209.536 104.723 209.963 104.351 210.503 104.086C211.042 103.821 211.646 103.688 212.313 103.688ZM212.445 109.059C212.945 109.059 213.392 108.961 213.784 108.765C214.186 108.569 214.495 108.299 214.711 107.956C214.927 107.612 215.035 107.235 215.035 106.823C215.035 106.44 214.932 106.082 214.726 105.748C214.52 105.405 214.211 105.13 213.799 104.924C213.397 104.718 212.916 104.615 212.357 104.615C211.621 104.615 211.027 104.817 210.576 105.219C210.125 105.621 209.899 106.156 209.899 106.823C209.899 107.509 210.125 108.054 210.576 108.456C211.037 108.858 211.66 109.059 212.445 109.059ZM224.81 103.703C226.124 103.703 227.297 103.978 228.327 104.527C229.367 105.076 230.176 105.842 230.755 106.823C231.333 107.804 231.623 108.922 231.623 110.178C231.623 111.011 231.52 111.728 231.314 112.326C231.108 112.924 230.818 113.381 230.446 113.694C230.083 113.999 229.661 114.151 229.18 114.151C228.739 114.151 228.371 114.033 228.077 113.797C227.792 113.562 227.62 113.238 227.562 112.826C227.562 112.718 227.552 112.557 227.532 112.341C227.257 112.91 226.855 113.356 226.325 113.68C225.796 113.994 225.192 114.151 224.516 114.151C223.848 114.151 223.24 113.989 222.691 113.665C222.142 113.341 221.71 112.89 221.396 112.311C221.082 111.733 220.925 111.075 220.925 110.34C220.925 109.614 221.082 108.966 221.396 108.397C221.71 107.818 222.142 107.367 222.691 107.043C223.24 106.72 223.848 106.558 224.516 106.558C225.173 106.558 225.756 106.71 226.267 107.014C226.777 107.308 227.174 107.725 227.459 108.265V106.631H228.444V112.223C228.444 112.596 228.523 112.87 228.68 113.047C228.847 113.214 229.067 113.297 229.342 113.297C229.793 113.297 230.151 113.027 230.416 112.488C230.691 111.948 230.828 111.183 230.828 110.192C230.828 109.064 230.573 108.069 230.063 107.205C229.553 106.332 228.842 105.66 227.929 105.189C227.017 104.709 225.977 104.468 224.81 104.468C223.623 104.468 222.568 104.718 221.646 105.219C220.734 105.709 220.023 106.401 219.512 107.294C219.002 108.186 218.747 109.202 218.747 110.34C218.747 111.487 218.997 112.512 219.498 113.415C220.008 114.308 220.714 115.004 221.617 115.504C222.529 116.005 223.574 116.255 224.751 116.255C225.222 116.255 225.707 116.201 226.208 116.093C226.708 115.985 227.159 115.823 227.562 115.607L227.856 116.343C227.424 116.569 226.929 116.74 226.37 116.858C225.81 116.976 225.271 117.035 224.751 117.035C223.417 117.035 222.23 116.75 221.19 116.181C220.15 115.612 219.341 114.823 218.762 113.812C218.183 112.792 217.894 111.634 217.894 110.34C217.894 109.054 218.183 107.912 218.762 106.911C219.351 105.901 220.17 105.116 221.219 104.557C222.269 103.988 223.466 103.703 224.81 103.703ZM224.692 113.268C225.222 113.268 225.693 113.145 226.105 112.9C226.527 112.655 226.855 112.311 227.091 111.87C227.336 111.428 227.459 110.918 227.459 110.34C227.459 109.771 227.336 109.265 227.091 108.824C226.855 108.382 226.527 108.044 226.105 107.809C225.693 107.563 225.222 107.441 224.692 107.441C224.162 107.441 223.687 107.563 223.265 107.809C222.853 108.044 222.529 108.382 222.294 108.824C222.058 109.265 221.94 109.771 221.94 110.34C221.94 110.918 222.058 111.428 222.294 111.87C222.529 112.311 222.853 112.655 223.265 112.9C223.687 113.145 224.162 113.268 224.692 113.268ZM237.24 106.278C238.162 106.278 238.893 106.563 239.432 107.132C239.972 107.691 240.242 108.51 240.242 109.589V114.092H239.182V109.721C239.182 108.917 238.991 108.309 238.608 107.897C238.235 107.475 237.701 107.264 237.004 107.264C236.229 107.264 235.611 107.514 235.15 108.015C234.699 108.505 234.473 109.177 234.473 110.03V114.092H233.414V106.352H234.429V107.853C234.694 107.362 235.067 106.98 235.548 106.705C236.028 106.42 236.592 106.278 237.24 106.278ZM244.819 106.278C245.791 106.278 246.531 106.533 247.041 107.043C247.561 107.544 247.821 108.294 247.821 109.295V114.092H246.821V112.767C246.595 113.209 246.262 113.552 245.82 113.797C245.388 114.043 244.873 114.165 244.275 114.165C243.441 114.165 242.784 113.959 242.303 113.547C241.823 113.135 241.582 112.591 241.582 111.914C241.582 111.257 241.813 110.727 242.274 110.325C242.735 109.923 243.456 109.721 244.437 109.721H246.762C246.762 109.427 246.742 109.177 246.703 108.971C246.615 107.794 245.948 107.205 244.702 107.205C244.231 107.205 243.78 107.289 243.348 107.455C242.916 107.622 242.553 107.848 242.259 108.132L241.803 107.352C242.186 107.009 242.642 106.744 243.171 106.558C243.701 106.371 244.251 106.278 244.819 106.278ZM244.466 113.327C245.604 113.327 246.369 112.807 246.762 111.767V110.472H244.51C243.255 110.472 242.627 110.938 242.627 111.87C242.627 112.321 242.789 112.679 243.113 112.944C243.436 113.199 243.888 113.327 244.466 113.327ZM252.842 114.092H251.782L248.501 106.352H249.605L252.342 112.841L255.079 106.352H256.123L252.842 114.092ZM263.637 110.501H257.5C257.549 111.316 257.834 111.973 258.354 112.473C258.884 112.964 259.551 113.209 260.355 113.209C260.816 113.209 261.238 113.126 261.621 112.959C262.013 112.792 262.337 112.542 262.592 112.208L263.195 112.885C262.852 113.307 262.435 113.626 261.944 113.842C261.454 114.057 260.919 114.165 260.34 114.165C259.585 114.165 258.908 113.999 258.31 113.665C257.721 113.322 257.26 112.851 256.927 112.252C256.603 111.654 256.441 110.972 256.441 110.207C256.441 109.452 256.598 108.78 256.912 108.191C257.226 107.593 257.657 107.127 258.207 106.793C258.766 106.45 259.384 106.278 260.061 106.278C260.738 106.278 261.346 106.445 261.885 106.778C262.435 107.102 262.866 107.558 263.18 108.147C263.494 108.736 263.651 109.412 263.651 110.178L263.637 110.501ZM260.076 107.176C259.369 107.176 258.776 107.416 258.295 107.897C257.824 108.368 257.559 108.986 257.5 109.751H262.651C262.582 108.996 262.307 108.378 261.827 107.897C261.356 107.416 260.772 107.176 260.076 107.176ZM266.34 107.882C266.575 107.352 266.928 106.95 267.399 106.675C267.87 106.401 268.434 106.268 269.091 106.278V107.338C269.033 107.328 268.944 107.323 268.827 107.323C268.061 107.323 267.463 107.568 267.031 108.059C266.6 108.549 266.384 109.241 266.384 110.133V114.092H265.324V106.352H266.34V107.882ZM270.426 114.18C270.2 114.18 270.004 114.102 269.837 113.945C269.68 113.788 269.602 113.591 269.602 113.356C269.602 113.121 269.68 112.929 269.837 112.782C269.994 112.625 270.19 112.547 270.426 112.547C270.661 112.547 270.857 112.625 271.014 112.782C271.171 112.929 271.25 113.121 271.25 113.356C271.25 113.591 271.166 113.788 271 113.945C270.843 114.102 270.651 114.18 270.426 114.18ZM276.291 114.165C275.565 114.165 274.908 113.999 274.319 113.665C273.74 113.322 273.284 112.851 272.951 112.252C272.627 111.654 272.465 110.972 272.465 110.207C272.465 109.452 272.627 108.775 272.951 108.176C273.284 107.578 273.74 107.112 274.319 106.778C274.908 106.445 275.565 106.278 276.291 106.278C276.928 106.278 277.502 106.411 278.012 106.675C278.523 106.94 278.925 107.328 279.219 107.838L278.395 108.368C278.15 107.995 277.841 107.715 277.468 107.529C277.105 107.333 276.708 107.235 276.276 107.235C275.756 107.235 275.285 107.357 274.863 107.603C274.451 107.848 274.128 108.196 273.892 108.647C273.657 109.099 273.539 109.618 273.539 110.207C273.539 110.805 273.657 111.33 273.892 111.782C274.128 112.233 274.451 112.581 274.863 112.826C275.285 113.072 275.756 113.194 276.276 113.194C276.718 113.194 277.12 113.101 277.483 112.915C277.846 112.728 278.15 112.444 278.395 112.061L279.219 112.606C278.915 113.106 278.508 113.493 277.998 113.768C277.497 114.033 276.928 114.165 276.291 114.165ZM283.825 114.165C283.109 114.165 282.462 113.999 281.883 113.665C281.314 113.322 280.863 112.851 280.529 112.252C280.206 111.654 280.044 110.972 280.044 110.207C280.044 109.452 280.206 108.775 280.529 108.176C280.863 107.578 281.314 107.112 281.883 106.778C282.462 106.445 283.109 106.278 283.825 106.278C284.532 106.278 285.169 106.445 285.738 106.778C286.317 107.112 286.768 107.578 287.092 108.176C287.416 108.775 287.578 109.452 287.578 110.207C287.578 110.972 287.416 111.654 287.092 112.252C286.768 112.851 286.317 113.322 285.738 113.665C285.169 113.999 284.532 114.165 283.825 114.165ZM283.825 113.194C284.336 113.194 284.792 113.072 285.194 112.826C285.606 112.581 285.93 112.233 286.165 111.782C286.4 111.32 286.518 110.796 286.518 110.207C286.518 109.628 286.4 109.113 286.165 108.662C285.93 108.211 285.606 107.862 285.194 107.617C284.792 107.362 284.336 107.235 283.825 107.235C283.305 107.235 282.839 107.362 282.427 107.617C282.025 107.862 281.706 108.211 281.471 108.662C281.236 109.113 281.118 109.628 281.118 110.207C281.118 110.796 281.231 111.32 281.456 111.782C281.692 112.233 282.015 112.581 282.427 112.826C282.839 113.072 283.305 113.194 283.825 113.194ZM298.344 106.278C299.257 106.278 299.973 106.563 300.493 107.132C301.022 107.691 301.287 108.51 301.287 109.589V114.092H300.243V109.721C300.243 108.917 300.061 108.309 299.698 107.897C299.335 107.475 298.82 107.264 298.153 107.264C297.407 107.264 296.814 107.509 296.373 108C295.931 108.49 295.71 109.162 295.71 110.016V114.092H294.666V109.721C294.666 108.917 294.484 108.309 294.121 107.897C293.768 107.475 293.263 107.264 292.606 107.264C291.85 107.264 291.252 107.509 290.81 108C290.379 108.49 290.163 109.162 290.163 110.016V114.092H289.103V106.352H290.119V107.838C290.374 107.347 290.732 106.965 291.193 106.69C291.664 106.416 292.208 106.278 292.826 106.278C293.464 106.278 294.008 106.43 294.46 106.734C294.921 107.038 295.254 107.48 295.46 108.059C295.705 107.509 296.078 107.078 296.579 106.764C297.089 106.44 297.677 106.278 298.344 106.278ZM302.791 114.813C303.291 113.979 303.654 113.076 303.88 112.105C304.115 111.134 304.233 110.08 304.233 108.942C304.233 107.804 304.115 106.749 303.88 105.778C303.654 104.807 303.291 103.904 302.791 103.07H303.718C304.189 103.816 304.547 104.694 304.792 105.704C305.047 106.705 305.175 107.784 305.175 108.942C305.175 110.089 305.047 111.164 304.792 112.164C304.547 113.165 304.189 114.048 303.718 114.813H302.791ZM1.14776 130.763V129.718H10.4329V137.178H9.34395V130.763H1.14776ZM11.1833 140.018H0.470876V138.973H4.57633V133.794H5.66523V138.973H11.1833V140.018ZM22.3945 136.266H21.3645V132.985H19.3632V136.148H18.3479V129.35H19.3632V131.94H21.3645V129.291H22.3945V136.266ZM16.9794 131.439C16.9794 132.352 16.7783 133.137 16.3761 133.794C15.9837 134.451 15.4393 134.956 14.7428 135.309C14.0561 135.653 13.2762 135.829 12.4031 135.839V134.853C13.0996 134.843 13.7127 134.706 14.2425 134.441C14.782 134.176 15.1989 133.794 15.4932 133.294C15.7973 132.783 15.9494 132.18 15.9494 131.484V130.557H12.4031V129.6H16.9794V131.439ZM22.3945 136.928V140.563H21.335V137.899H13.0064V136.928H22.3945ZM33.0318 137.796V129.291H34.0471V137.796H33.0318ZM28.3819 132.528V131.498H30.3831V129.35H31.3985V137.59H30.3831V132.528H28.3819ZM26.5278 133.603C25.9589 135.035 25.0465 135.888 23.7909 136.163V135.118C24.6443 134.853 25.2575 134.216 25.6302 133.205C26.003 132.195 26.1894 130.934 26.1894 129.424L27.2194 129.453C27.2194 130.66 27.1115 131.69 26.8957 132.543L29.5444 135.309L28.8381 136.045L26.5278 133.603ZM34.3414 140.416H24.7473V136.958H25.8362V139.4H34.3414V140.416ZM45.4791 140.592H44.4196V135.03H42.3301V133.985H44.4196V129.291H45.4791V140.592ZM40.1376 138.856C40.6477 138.856 41.1578 138.807 41.6679 138.709C42.178 138.61 42.5949 138.478 42.9187 138.311V139.341C42.5949 139.518 42.1829 139.655 41.6826 139.753C41.1823 139.842 40.6673 139.886 40.1376 139.886H36.0321V129.733H42.1682V130.763H37.0916V134.206H41.5502V135.221H37.0916V138.856H40.1376ZM51.095 132.617C50.8595 132.617 50.6633 132.538 50.5064 132.381C50.3494 132.224 50.2709 132.028 50.2709 131.793C50.2709 131.557 50.3494 131.366 50.5064 131.219C50.6633 131.062 50.8595 130.983 51.095 130.983C51.3304 130.983 51.5266 131.062 51.6836 131.219C51.8405 131.366 51.919 131.557 51.919 131.793C51.919 132.028 51.8405 132.224 51.6836 132.381C51.5266 132.538 51.3304 132.617 51.095 132.617ZM51.095 138.9C50.8693 138.9 50.6731 138.821 50.5064 138.664C50.3494 138.507 50.2709 138.311 50.2709 138.076C50.2709 137.84 50.3494 137.644 50.5064 137.487C50.6731 137.33 50.8693 137.252 51.095 137.252C51.3206 137.252 51.5119 137.33 51.6689 137.487C51.8356 137.644 51.919 137.84 51.919 138.076C51.919 138.311 51.8356 138.507 51.6689 138.664C51.5119 138.821 51.3206 138.9 51.095 138.9ZM61.0029 140.092H59.8699V130.763H57.4566V129.791H61.0029V140.092ZM68.1587 134C71.0134 134 72.4407 135.02 72.4407 137.061C72.4407 137.659 72.2985 138.194 72.014 138.664C71.7393 139.135 71.3175 139.508 70.7485 139.783C70.1893 140.057 69.4977 140.195 68.6737 140.195C67.9281 140.195 67.2218 140.072 66.5547 139.827C65.8877 139.582 65.3579 139.258 64.9655 138.856L65.4953 137.988C65.819 138.341 66.2604 138.63 66.8196 138.856C67.3886 139.072 68.0017 139.179 68.659 139.179C69.5026 139.179 70.1501 138.988 70.6013 138.606C71.0624 138.223 71.2929 137.718 71.2929 137.09C71.2929 136.393 71.0379 135.869 70.5278 135.515C70.0176 135.162 69.1446 134.986 67.9085 134.986H65.6866L66.231 129.791H71.8815V130.763H67.1875L66.8343 134H68.1587ZM76.9919 134C79.8466 134 81.2739 135.02 81.2739 137.061C81.2739 137.659 81.1317 138.194 80.8472 138.664C80.5725 139.135 80.1507 139.508 79.5817 139.783C79.0226 140.057 78.331 140.195 77.5069 140.195C76.7614 140.195 76.0551 140.072 75.388 139.827C74.7209 139.582 74.1912 139.258 73.7988 138.856L74.3285 137.988C74.6522 138.341 75.0937 138.63 75.6529 138.856C76.2218 139.072 76.8349 139.179 77.4922 139.179C78.3359 139.179 78.9833 138.988 79.4346 138.606C79.8956 138.223 80.1262 137.718 80.1262 137.09C80.1262 136.393 79.8711 135.869 79.361 135.515C78.8509 135.162 77.9778 134.986 76.7418 134.986H74.5198L75.0643 129.791H80.7148V130.763H76.0207L75.6676 134H76.9919ZM87.5026 140.092H86.3696V130.763H83.9564V129.791H87.5026V140.092ZM95.6737 134.471V135.412H91.7743V134.471H95.6737ZM101.716 140.092H100.583V130.763H98.1697V129.791H101.716V140.092ZM108.872 134C111.726 134 113.154 135.02 113.154 137.061C113.154 137.659 113.012 138.194 112.727 138.664C112.452 139.135 112.031 139.508 111.462 139.783C110.902 140.057 110.211 140.195 109.387 140.195C108.641 140.195 107.935 140.072 107.268 139.827C106.601 139.582 106.071 139.258 105.679 138.856L106.208 137.988C106.532 138.341 106.974 138.63 107.533 138.856C108.102 139.072 108.715 139.179 109.372 139.179C110.216 139.179 110.863 138.988 111.314 138.606C111.776 138.223 112.006 137.718 112.006 137.09C112.006 136.393 111.751 135.869 111.241 135.515C110.731 135.162 109.858 134.986 108.622 134.986H106.4L106.944 129.791H112.595V130.763H107.901L107.547 134H108.872ZM118.5 134.206C119.579 134.255 120.398 134.544 120.957 135.074C121.526 135.594 121.81 136.281 121.81 137.134C121.81 137.723 121.668 138.248 121.384 138.709C121.099 139.17 120.673 139.533 120.104 139.797C119.544 140.062 118.863 140.195 118.058 140.195C117.303 140.195 116.592 140.077 115.925 139.842C115.267 139.596 114.742 139.268 114.35 138.856L114.85 137.988C115.194 138.341 115.645 138.63 116.204 138.856C116.773 139.072 117.381 139.179 118.029 139.179C118.872 139.179 119.52 138.998 119.971 138.635C120.432 138.272 120.663 137.772 120.663 137.134C120.663 136.487 120.437 135.986 119.986 135.633C119.535 135.28 118.843 135.103 117.911 135.103H117.161V134.309L119.986 130.763H114.762V129.791H121.398V130.557L118.5 134.206ZM128.216 140.092H127.083V130.763H124.669V129.791H128.216V140.092ZM11.1833 162.045H0.470876V161.177H5.29736V160.044H1.29491V155.453H10.4623V156.248H2.33967V157.381H10.271V158.116H2.33967V159.264H10.5506V160.044H6.35683V161.177H11.1833V162.045ZM5.82709 162.928C7.20048 162.928 8.32372 163.075 9.1968 163.37C10.0699 163.664 10.5064 164.13 10.5064 164.767C10.5064 165.395 10.0699 165.856 9.1968 166.151C8.32372 166.455 7.20048 166.607 5.82709 166.607C4.45371 166.607 3.33047 166.455 2.45739 166.151C1.5843 165.856 1.14776 165.395 1.14776 164.767C1.14776 164.13 1.5843 163.664 2.45739 163.37C3.33047 163.075 4.45371 162.928 5.82709 162.928ZM5.82709 165.753C6.8179 165.753 7.65665 165.675 8.34334 165.518C9.03985 165.351 9.3881 165.101 9.3881 164.767C9.3881 164.434 9.03985 164.184 8.34334 164.017C7.64684 163.85 6.80809 163.767 5.82709 163.767C4.83629 163.767 3.99264 163.85 3.29613 164.017C2.59963 164.184 2.25138 164.434 2.25138 164.767C2.25138 165.101 2.59963 165.351 3.29613 165.518C3.99264 165.675 4.83629 165.753 5.82709 165.753ZM21.026 163.693V155.291H22.1002V163.693H21.026ZM15.8758 159.191C15.4736 159.936 14.9684 160.554 14.3602 161.045C13.752 161.525 13.0653 161.824 12.3001 161.942V160.897C12.9868 160.76 13.5852 160.427 14.0953 159.897C14.6152 159.367 15.0125 158.71 15.2872 157.925C15.5619 157.14 15.6992 156.301 15.6992 155.409L16.7587 155.468C16.7587 156.478 16.6067 157.405 16.3025 158.249L19.8194 161.015L19.1719 161.839L15.8758 159.191ZM22.4092 166.416H13.08V162.899H14.1542V165.4H22.4092V166.416ZM35.0036 159.176H33.4438V163.693H32.3844V155.291H33.4438V158.102H35.0036V159.176ZM31.5309 161.236C31.1679 161.403 30.6627 161.535 30.0153 161.633C29.3776 161.731 28.6517 161.78 27.8375 161.78H23.8056V160.824H25.2329V156.557H23.8203V155.6H31.0453V156.557H29.6327V160.736C30.3979 160.647 31.0306 160.495 31.5309 160.279V161.236ZM28.6026 160.809V156.557H26.263V160.824H27.499L28.6026 160.809ZM33.7676 165.4V166.416H24.5413V162.869H25.6155V165.4H33.7676ZM45.6998 166.592H44.6845V160.986H42.7421V166.401H41.7415V155.35H42.7421V159.926H44.6845V155.291H45.6998V166.592ZM40.3436 155.733V165.886H35.7967V155.733H40.3436ZM39.3282 164.87V156.748H36.7973V164.87H39.3282ZM57.1317 161.177H56.0722V158.675H53.7326C53.6246 159.372 53.2862 159.931 52.7172 160.353C52.1483 160.775 51.4125 160.986 50.51 160.986C49.8429 160.986 49.2592 160.868 48.7589 160.633C48.2684 160.397 47.8858 160.069 47.6112 159.647C47.3463 159.225 47.2139 158.744 47.2139 158.205C47.2139 157.675 47.3463 157.199 47.6112 156.777C47.8858 156.355 48.2684 156.027 48.7589 155.791C49.2592 155.556 49.8429 155.438 50.51 155.438C51.3831 155.438 52.1041 155.639 52.6731 156.042C53.2421 156.444 53.5903 156.978 53.7178 157.645H56.0722V155.291H57.1317V161.177ZM50.51 160.044C51.1771 160.044 51.7166 159.882 52.1286 159.558C52.5407 159.225 52.7467 158.774 52.7467 158.205C52.7467 157.645 52.5407 157.204 52.1286 156.88C51.7166 156.547 51.1771 156.38 50.51 156.38C49.8429 156.38 49.3034 156.547 48.8914 156.88C48.4793 157.204 48.2733 157.645 48.2733 158.205C48.2733 158.774 48.4793 159.225 48.8914 159.558C49.3034 159.882 49.8429 160.044 50.51 160.044ZM57.1317 161.692V166.416H48.2145V161.692H49.2592V163.031H56.0869V161.692H57.1317ZM56.0869 163.943H49.2592V165.488H56.0869V163.943ZM67.6366 163.693V155.291H68.7108V163.693H67.6366ZM62.4864 159.191C62.0842 159.936 61.5789 160.554 60.9707 161.045C60.3625 161.525 59.6758 161.824 58.9106 161.942V160.897C59.5973 160.76 60.1957 160.427 60.7059 159.897C61.2258 159.367 61.6231 158.71 61.8978 157.925C62.1724 157.14 62.3098 156.301 62.3098 155.409L63.3693 155.468C63.3693 156.478 63.2172 157.405 62.9131 158.249L66.43 161.015L65.7825 161.839L62.4864 159.191ZM69.0198 166.416H59.6905V162.899H60.7647V165.4H69.0198V166.416ZM71.0636 156.763V155.718H80.3487V163.178H79.2598V156.763H71.0636ZM81.0991 166.018H70.3867V164.973H74.4922V159.794H75.5811V164.973H81.0991V166.018ZM82.5249 161.81V155.512H83.555V157.557H87.6899V155.512H88.7493V158.116H91.0301V155.291H92.0896V163.693H91.0301V159.161H88.7493V161.81H82.5249ZM87.6899 158.514H83.555V160.853H87.6899V158.514ZM92.3398 166.416H83.04V162.869H84.1141V165.4H92.3398V166.416ZM94.0746 157.851V156.836H98.489V155.144H99.5632V156.836H104.007V157.851H94.0746ZM104.404 166.018H93.692V165.018H98.5185V163.119C97.3217 163.07 96.3652 162.869 95.6491 162.516C94.9427 162.153 94.5896 161.623 94.5896 160.927C94.5896 160.172 94.9967 159.612 95.8109 159.249C96.6252 158.886 97.7042 158.705 99.0482 158.705C100.382 158.705 101.457 158.886 102.271 159.249C103.085 159.612 103.492 160.172 103.492 160.927C103.492 161.623 103.134 162.153 102.418 162.516C101.712 162.869 100.765 163.07 99.5779 163.119V165.018H104.404V166.018ZM95.6785 160.927C95.6785 161.359 95.9826 161.677 96.5908 161.883C97.2088 162.089 98.028 162.192 99.0482 162.192C100.059 162.192 100.868 162.089 101.476 161.883C102.094 161.677 102.403 161.359 102.403 160.927C102.403 160.485 102.094 160.162 101.476 159.956C100.868 159.75 100.059 159.647 99.0482 159.647C98.028 159.647 97.2088 159.75 96.5908 159.956C95.9826 160.162 95.6785 160.485 95.6785 160.927ZM115.847 166.092H108.578V165.312L112.846 161.103C113.385 160.574 113.748 160.122 113.934 159.75C114.131 159.377 114.229 158.994 114.229 158.602C114.229 158.004 114.023 157.538 113.611 157.204C113.199 156.861 112.61 156.689 111.845 156.689C110.638 156.689 109.716 157.081 109.079 157.866L108.255 157.248C108.647 156.748 109.157 156.365 109.785 156.1C110.413 155.826 111.129 155.688 111.933 155.688C112.973 155.688 113.802 155.943 114.42 156.454C115.048 156.954 115.362 157.636 115.362 158.499C115.362 159.038 115.244 159.549 115.009 160.029C114.773 160.51 114.332 161.069 113.684 161.707L110.241 165.106H115.847V166.092ZM121.031 166.195C120.237 166.195 119.526 165.984 118.898 165.562C118.27 165.13 117.779 164.517 117.426 163.723C117.073 162.928 116.896 162.001 116.896 160.942C116.896 159.882 117.073 158.955 117.426 158.16C117.779 157.366 118.27 156.758 118.898 156.336C119.526 155.904 120.237 155.688 121.031 155.688C121.836 155.688 122.547 155.904 123.165 156.336C123.793 156.758 124.283 157.366 124.637 158.16C124.99 158.945 125.166 159.872 125.166 160.942C125.166 162.011 124.99 162.943 124.637 163.737C124.283 164.522 123.793 165.13 123.165 165.562C122.547 165.984 121.836 166.195 121.031 166.195ZM121.031 165.179C121.63 165.179 122.15 165.018 122.591 164.694C123.042 164.36 123.391 163.875 123.636 163.237C123.891 162.599 124.019 161.834 124.019 160.942C124.019 160.049 123.891 159.284 123.636 158.646C123.391 158.008 123.042 157.528 122.591 157.204C122.15 156.87 121.63 156.704 121.031 156.704C120.443 156.704 119.923 156.87 119.472 157.204C119.02 157.528 118.672 158.008 118.427 158.646C118.182 159.284 118.059 160.049 118.059 160.942C118.059 161.834 118.182 162.599 118.427 163.237C118.672 163.875 119.02 164.36 119.472 164.694C119.923 165.018 120.443 165.179 121.031 165.179ZM133.514 166.092H126.245V165.312L130.512 161.103C131.052 160.574 131.415 160.122 131.601 159.75C131.797 159.377 131.895 158.994 131.895 158.602C131.895 158.004 131.689 157.538 131.277 157.204C130.865 156.861 130.277 156.689 129.511 156.689C128.305 156.689 127.383 157.081 126.745 157.866L125.921 157.248C126.313 156.748 126.824 156.365 127.451 156.1C128.079 155.826 128.795 155.688 129.6 155.688C130.64 155.688 131.469 155.943 132.087 156.454C132.714 156.954 133.028 157.636 133.028 158.499C133.028 159.038 132.911 159.549 132.675 160.029C132.44 160.51 131.998 161.069 131.351 161.707L127.908 165.106H133.514V166.092ZM138.036 160C140.89 160 142.318 161.02 142.318 163.061C142.318 163.659 142.175 164.194 141.891 164.664C141.616 165.135 141.194 165.508 140.626 165.783C140.066 166.057 139.375 166.195 138.551 166.195C137.805 166.195 137.099 166.072 136.432 165.827C135.765 165.582 135.235 165.258 134.843 164.856L135.372 163.988C135.696 164.341 136.137 164.63 136.697 164.856C137.266 165.072 137.879 165.179 138.536 165.179C139.38 165.179 140.027 164.988 140.478 164.606C140.939 164.223 141.17 163.718 141.17 163.09C141.17 162.393 140.915 161.869 140.405 161.515C139.895 161.162 139.022 160.986 137.786 160.986H135.564L136.108 155.791H141.759V156.763H137.065L136.711 160H138.036ZM147.884 160.471V161.412H143.985V160.471H147.884ZM150.006 161.265V155.512H151.051V157.219H158.114V155.512H159.159V161.265H150.006ZM158.114 158.205H151.051V160.265H158.114V158.205ZM155.127 163.576V166.857H154.038V163.576H149.226V162.546H159.939V163.576H155.127ZM172.106 159.014H170.547V163.693H169.487V155.291H170.547V157.94H172.106V159.014ZM164.44 159.205C164.057 159.951 163.567 160.564 162.968 161.045C162.37 161.525 161.688 161.824 160.923 161.942V160.897C161.6 160.76 162.189 160.427 162.689 159.897C163.199 159.367 163.586 158.71 163.851 157.925C164.116 157.14 164.249 156.301 164.249 155.409L165.323 155.468C165.323 156.478 165.176 157.405 164.881 158.249L168.339 161.03L167.692 161.839L164.44 159.205ZM170.87 165.4V166.416H161.644V162.899H162.718V165.4H170.87ZM181.434 163.693V155.291H182.508V163.693H181.434ZM176.402 159.279C176.039 160.024 175.548 160.628 174.93 161.089C174.322 161.55 173.62 161.834 172.826 161.942V160.912C173.758 160.755 174.508 160.294 175.077 159.529C175.646 158.764 175.955 157.783 176.004 156.586H172.958V155.615H179.904V156.586H177.064C177.054 157.224 176.966 157.807 176.799 158.337L180.213 161.03L179.624 161.854L176.402 159.279ZM182.817 166.416H173.488V162.899H174.562V165.4H182.817V166.416ZM188.481 160.471V161.412H184.582V160.471H188.481ZM193.767 166.195C192.972 166.195 192.261 165.984 191.633 165.562C191.005 165.13 190.515 164.517 190.161 163.723C189.808 162.928 189.632 162.001 189.632 160.942C189.632 159.882 189.808 158.955 190.161 158.16C190.515 157.366 191.005 156.758 191.633 156.336C192.261 155.904 192.972 155.688 193.767 155.688C194.571 155.688 195.282 155.904 195.9 156.336C196.528 156.758 197.019 157.366 197.372 158.16C197.725 158.945 197.901 159.872 197.901 160.942C197.901 162.011 197.725 162.943 197.372 163.737C197.019 164.522 196.528 165.13 195.9 165.562C195.282 165.984 194.571 166.195 193.767 166.195ZM193.767 165.179C194.365 165.179 194.885 165.018 195.326 164.694C195.778 164.36 196.126 163.875 196.371 163.237C196.626 162.599 196.754 161.834 196.754 160.942C196.754 160.049 196.626 159.284 196.371 158.646C196.126 158.008 195.778 157.528 195.326 157.204C194.885 156.87 194.365 156.704 193.767 156.704C193.178 156.704 192.658 156.87 192.207 157.204C191.756 157.528 191.407 158.008 191.162 158.646C190.917 159.284 190.794 160.049 190.794 160.942C190.794 161.834 190.917 162.599 191.162 163.237C191.407 163.875 191.756 164.36 192.207 164.694C192.658 165.018 193.178 165.179 193.767 165.179ZM201.938 160C204.792 160 206.22 161.02 206.22 163.061C206.22 163.659 206.077 164.194 205.793 164.664C205.518 165.135 205.096 165.508 204.527 165.783C203.968 166.057 203.277 166.195 202.453 166.195C201.707 166.195 201.001 166.072 200.334 165.827C199.667 165.582 199.137 165.258 198.745 164.856L199.274 163.988C199.598 164.341 200.039 164.63 200.599 164.856C201.168 165.072 201.781 165.179 202.438 165.179C203.282 165.179 203.929 164.988 204.38 164.606C204.841 164.223 205.072 163.718 205.072 163.09C205.072 162.393 204.817 161.869 204.307 161.515C203.797 161.162 202.924 160.986 201.688 160.986H199.466L200.01 155.791H205.661V156.763H200.966L200.613 160H201.938ZM213.361 160.691C214.028 160.897 214.543 161.221 214.906 161.663C215.269 162.094 215.45 162.614 215.45 163.222C215.45 164.145 215.087 164.87 214.361 165.4C213.645 165.93 212.669 166.195 211.433 166.195C210.187 166.195 209.206 165.93 208.49 165.4C207.784 164.87 207.431 164.145 207.431 163.222C207.431 162.604 207.607 162.08 207.96 161.648C208.323 161.216 208.833 160.897 209.491 160.691C208.951 160.505 208.534 160.216 208.24 159.823C207.946 159.431 207.799 158.965 207.799 158.425C207.799 157.582 208.127 156.915 208.784 156.424C209.451 155.934 210.334 155.688 211.433 155.688C212.542 155.688 213.424 155.934 214.082 156.424C214.749 156.915 215.082 157.582 215.082 158.425C215.082 158.965 214.93 159.431 214.626 159.823C214.332 160.206 213.91 160.495 213.361 160.691ZM211.433 156.601C210.658 156.601 210.045 156.767 209.594 157.101C209.152 157.435 208.932 157.891 208.932 158.469C208.932 159.029 209.152 159.475 209.594 159.809C210.035 160.132 210.648 160.294 211.433 160.294C212.218 160.294 212.831 160.132 213.272 159.809C213.724 159.475 213.949 159.029 213.949 158.469C213.949 157.901 213.719 157.449 213.258 157.116C212.806 156.772 212.198 156.601 211.433 156.601ZM211.433 165.268C212.326 165.268 213.027 165.086 213.537 164.723C214.047 164.351 214.302 163.845 214.302 163.208C214.302 162.58 214.047 162.084 213.537 161.721C213.027 161.349 212.326 161.162 211.433 161.162C210.54 161.162 209.839 161.349 209.329 161.721C208.829 162.084 208.578 162.58 208.578 163.208C208.578 163.845 208.829 164.351 209.329 164.723C209.829 165.086 210.531 165.268 211.433 165.268ZM223.916 166.092H216.646V165.312L220.914 161.103C221.453 160.574 221.816 160.122 222.003 159.75C222.199 159.377 222.297 158.994 222.297 158.602C222.297 158.004 222.091 157.538 221.679 157.204C221.267 156.861 220.678 156.689 219.913 156.689C218.707 156.689 217.784 157.081 217.147 157.866L216.323 157.248C216.715 156.748 217.225 156.365 217.853 156.1C218.481 155.826 219.197 155.688 220.001 155.688C221.041 155.688 221.87 155.943 222.488 156.454C223.116 156.954 223.43 157.636 223.43 158.499C223.43 159.038 223.312 159.549 223.077 160.029C222.841 160.51 222.4 161.069 221.753 161.707L218.309 165.106H223.916V166.092ZM225.539 157.851V156.836H229.953V155.144H231.027V156.836H235.471V157.851H225.539ZM235.868 166.018H225.156V165.018H229.982V163.119C228.786 163.07 227.829 162.869 227.113 162.516C226.407 162.153 226.054 161.623 226.054 160.927C226.054 160.172 226.461 159.612 227.275 159.249C228.089 158.886 229.168 158.705 230.512 158.705C231.846 158.705 232.921 158.886 233.735 159.249C234.549 159.612 234.956 160.172 234.956 160.927C234.956 161.623 234.598 162.153 233.882 162.516C233.176 162.869 232.229 163.07 231.042 163.119V165.018H235.868V166.018ZM227.142 160.927C227.142 161.359 227.447 161.677 228.055 161.883C228.673 162.089 229.492 162.192 230.512 162.192C231.523 162.192 232.332 162.089 232.94 161.883C233.558 161.677 233.867 161.359 233.867 160.927C233.867 160.485 233.558 160.162 232.94 159.956C232.332 159.75 231.523 159.647 230.512 159.647C229.492 159.647 228.673 159.75 228.055 159.956C227.447 160.162 227.142 160.485 227.142 160.927Z" fill="white"/>
</svg>
