<svg width="165" height="17" viewBox="0 0 165 17" fill="none" xmlns="http://www.w3.org/2000/svg">
<path d="M2.39423 15.9418C1.72716 14.9215 1.21704 13.7443 0.863886 12.4102C0.510728 11.076 0.33415 9.65032 0.33415 8.13305C0.33415 6.61578 0.510728 5.18354 0.863886 3.83631C1.23012 2.48908 1.74024 1.31843 2.39423 0.324353H4.57204C3.8788 1.5277 3.36869 2.77029 3.04169 4.05212C2.72777 5.32087 2.57081 6.68118 2.57081 8.13305C2.57081 9.58492 2.72777 10.9518 3.04169 12.2336C3.36869 13.5024 3.8788 14.7384 4.57204 15.9418H2.39423ZM12.3821 6.03373C11.6104 6.85776 10.6556 7.50522 9.51762 7.97609C8.39275 8.43389 7.1894 8.67587 5.90757 8.70203V6.32803C7.124 6.27571 8.22925 5.96833 9.22332 5.40589C10.2305 4.84346 10.9237 4.10444 11.303 3.18885H6.16262V0.834469H19.0136V3.18885H14.0498C13.9975 3.45045 13.8994 3.75129 13.7555 4.09136L19.563 6.54385L18.6016 8.70203L12.3821 6.03373ZM13.8536 12.3906V16.0202H11.3423V12.3906H5.37783V9.97732H19.818V12.3906H13.8536ZM20.6596 15.9418C21.3529 14.7384 21.8564 13.5024 22.1704 12.2336C22.4843 10.9518 22.6412 9.58492 22.6412 8.13305C22.6412 6.68118 22.4843 5.32087 22.1704 4.05212C21.8564 2.77029 21.3529 1.5277 20.6596 0.324353H22.8178C23.4849 1.31843 23.995 2.48908 24.3482 3.83631C24.7013 5.17046 24.8779 6.6027 24.8779 8.13305C24.8779 9.6634 24.7013 11.0957 24.3482 12.4298C23.995 13.7639 23.4849 14.9346 22.8178 15.9418H20.6596ZM40.8671 15.6671H38.5519V0.599031H40.8671V15.6671ZM37.2963 0.65789V15.412H34.9811V8.99633H33.7058C33.6273 11.1022 33.3003 12.6456 32.7248 13.6266C32.1493 14.5945 31.3318 15.0785 30.2724 15.0785C29.1213 15.0785 28.258 14.516 27.6825 13.3912C27.107 12.2532 26.8193 10.4417 26.8193 7.95647C26.8193 5.48437 27.107 3.67935 27.6825 2.5414C28.258 1.40344 29.1213 0.834469 30.2724 0.834469C31.2926 0.834469 32.0905 1.29227 32.666 2.20786C33.2415 3.11037 33.5816 4.53608 33.6862 6.48499H34.9811V0.65789H37.2963ZM30.2724 12.7241C30.6648 12.7241 30.9525 12.3448 31.1356 11.5861C31.3187 10.8144 31.4103 9.60454 31.4103 7.95647C31.4103 6.30841 31.3187 5.10506 31.1356 4.34642C30.9525 3.57471 30.6648 3.18885 30.2724 3.18885C29.8669 3.18885 29.5726 3.57471 29.3895 4.34642C29.2063 5.10506 29.1148 6.30841 29.1148 7.95647C29.1148 9.60454 29.2063 10.8144 29.3895 11.5861C29.5726 12.3448 29.8669 12.7241 30.2724 12.7241ZM49.3996 6.11221C48.5494 7.36788 47.5292 8.35541 46.3389 9.07481C45.1487 9.7942 43.893 10.1604 42.5719 10.1735V7.70142C43.5398 7.70142 44.4685 7.39404 45.3579 6.77928C46.2474 6.15145 46.9995 5.30125 47.6142 4.2287C48.229 3.14307 48.6279 1.92664 48.811 0.579411L51.342 0.991428C51.185 2.0509 50.8973 3.07767 50.4787 4.07174L56.659 8.13305L55.3444 10.2324L49.3996 6.11221ZM56.7375 12.6456V15.0785H42.2973V12.6456H56.7375ZM71.9408 15.6671H69.6256V0.599031H71.9408V15.6671ZM68.37 0.65789V15.412H66.0548V8.99633H64.7795C64.701 11.1022 64.374 12.6456 63.7985 13.6266C63.223 14.5945 62.4055 15.0785 61.3461 15.0785C60.195 15.0785 59.3317 14.516 58.7562 13.3912C58.1807 12.2532 57.893 10.4417 57.893 7.95647C57.893 5.48437 58.1807 3.67935 58.7562 2.5414C59.3317 1.40344 60.195 0.834469 61.3461 0.834469C62.3663 0.834469 63.1642 1.29227 63.7397 2.20786C64.3152 3.11037 64.6553 4.53608 64.7599 6.48499H66.0548V0.65789H68.37ZM61.3461 12.7241C61.7385 12.7241 62.0262 12.3448 62.2093 11.5861C62.3924 10.8144 62.484 9.60454 62.484 7.95647C62.484 6.30841 62.3924 5.10506 62.2093 4.34642C62.0262 3.57471 61.7385 3.18885 61.3461 3.18885C60.9406 3.18885 60.6463 3.57471 60.4632 4.34642C60.28 5.10506 60.1885 6.30841 60.1885 7.95647C60.1885 9.60454 60.28 10.8144 60.4632 11.5861C60.6463 12.3448 60.9406 12.7241 61.3461 12.7241ZM84.5935 15.6671V0.599031H87.0852V15.6671H84.5935ZM78.3152 0.834469C79.6885 0.834469 80.7676 1.4296 81.5524 2.61988C82.3503 3.79707 82.7492 5.57593 82.7492 7.95647C82.7492 10.337 82.3503 12.1224 81.5524 13.3127C80.7676 14.4899 79.6885 15.0785 78.3152 15.0785C76.9287 15.0785 75.8365 14.4899 75.0386 13.3127C74.2538 12.1224 73.8614 10.337 73.8614 7.95647C73.8614 5.57593 74.2538 3.79707 75.0386 2.61988C75.8365 1.4296 76.9287 0.834469 78.3152 0.834469ZM78.3152 3.20847C77.7004 3.20847 77.2099 3.58779 76.8437 4.34642C76.4905 5.09198 76.3139 6.29533 76.3139 7.95647C76.3139 9.6307 76.4905 10.8406 76.8437 11.5861C77.2099 12.3317 77.7004 12.7045 78.3152 12.7045C78.9168 12.7045 79.4008 12.3317 79.767 11.5861C80.1333 10.8275 80.3164 9.61762 80.3164 7.95647C80.3164 6.30841 80.1333 5.10506 79.767 4.34642C79.4008 3.58779 78.9168 3.20847 78.3152 3.20847ZM95.4608 4.97426C95.3954 6.12529 95.2843 7.10628 95.1273 7.91723L99.3652 13.195L97.5405 14.9019L94.2836 10.6836C93.7081 11.9916 92.9822 13.0119 92.1058 13.7443C91.2295 14.4637 90.255 14.8496 89.1825 14.9019V12.3513C89.8888 12.2598 90.5166 11.8935 91.066 11.2526C91.6153 10.5986 92.0535 9.73534 92.3805 8.66279C92.7075 7.57716 92.9037 6.34765 92.9691 4.97426H89.4768V2.56102H92.9495V0.540171H95.4804V2.56102H98.7962V4.97426H95.4608ZM102.622 15.6671H100.13V0.599031H102.622V15.6671ZM118.551 15.6671H116.236V0.599031H118.551V15.6671ZM114.981 0.65789V15.412H112.665V8.99633H111.39C111.312 11.1022 110.985 12.6456 110.409 13.6266C109.834 14.5945 109.016 15.0785 107.957 15.0785C106.806 15.0785 105.942 14.516 105.367 13.3912C104.791 12.2532 104.504 10.4417 104.504 7.95647C104.504 5.48437 104.791 3.67935 105.367 2.5414C105.942 1.40344 106.806 0.834469 107.957 0.834469C108.977 0.834469 109.775 1.29227 110.35 2.20786C110.926 3.11037 111.266 4.53608 111.37 6.48499H112.665V0.65789H114.981ZM107.957 12.7241C108.349 12.7241 108.637 12.3448 108.82 11.5861C109.003 10.8144 109.095 9.60454 109.095 7.95647C109.095 6.30841 109.003 5.10506 108.82 4.34642C108.637 3.57471 108.349 3.18885 107.957 3.18885C107.551 3.18885 107.257 3.57471 107.074 4.34642C106.891 5.10506 106.799 6.30841 106.799 7.95647C106.799 9.60454 106.891 10.8144 107.074 11.5861C107.257 12.3448 107.551 12.7241 107.957 12.7241ZM120.668 10.252V7.85837H122.944V3.44391H120.806V1.03067H133.598V3.44391H131.459V7.85837H133.735V10.252H120.668ZM128.967 7.85837V3.44391H125.436V7.85837H128.967ZM134.422 15.0785H119.982V12.626H134.422V15.0785ZM143.464 11.5861V0.65789H145.76V3.93441H147.31V0.599031H149.625V11.8412H147.31V6.36727H145.76V11.5861H143.464ZM142.483 5.26856C142.483 6.7335 142.183 7.87799 141.581 8.70203C140.979 9.52606 140.136 9.93808 139.05 9.93808C137.964 9.93808 137.114 9.5326 136.499 8.72165C135.898 7.89761 135.597 6.74658 135.597 5.26856C135.597 3.80361 135.898 2.66565 136.499 1.8547C137.114 1.04375 137.964 0.638271 139.05 0.638271C140.136 0.638271 140.979 1.04375 141.581 1.8547C142.183 2.66565 142.483 3.80361 142.483 5.26856ZM137.873 5.26856C137.873 6.07951 137.971 6.7008 138.167 7.13244C138.376 7.56408 138.671 7.7799 139.05 7.7799C139.429 7.7799 139.717 7.57062 139.913 7.15206C140.109 6.72042 140.207 6.09259 140.207 5.26856C140.207 4.4576 140.109 3.84285 139.913 3.42429C139.717 2.99265 139.429 2.77683 139.05 2.77683C138.671 2.77683 138.376 2.99265 138.167 3.42429C137.971 3.84285 137.873 4.4576 137.873 5.26856ZM149.86 15.6082H136.813V10.7425H139.344V13.2735H149.86V15.6082ZM164.75 15.6671H162.278V0.599031H164.75V15.6671ZM160.139 0.971808V14.9019H151.742V0.971808H154.194V5.64133H157.687V0.971808H160.139ZM157.687 8.01533H154.194V12.5083H157.687V8.01533Z" fill="white"/>
</svg>
