<svg width="84" height="85" viewBox="0 0 84 85" fill="none" xmlns="http://www.w3.org/2000/svg">
<ellipse cx="42" cy="42.1731" rx="42" ry="42.1731" fill="#FAE100"/>
<path d="M41.7475 12.4043C33.4859 12.4043 26.7891 17.7192 26.7891 24.2791C26.7891 28.5475 29.6248 32.2883 33.8841 34.3813C33.5706 35.5527 32.7515 38.6298 32.5877 39.2878C32.3843 40.1046 32.8843 40.0933 33.2147 39.8749C33.4718 39.7019 37.3131 37.0785 38.971 35.9469C39.872 36.0802 40.7985 36.1511 41.7475 36.1511C50.0091 36.1511 56.7059 30.8362 56.7059 24.2791C56.7059 17.722 50.0091 12.4043 41.7475 12.4043ZM51.0231 27.7619L48.9923 24.9825L48.529 25.3568C48.529 25.3568 48.529 26.7295 48.529 27.4556C48.529 28.0795 46.9473 28.0795 46.9473 27.4556C46.9473 27.0613 46.9812 21.7294 46.9671 21.1395C46.9586 20.8134 47.3738 20.646 47.7806 20.646C48.159 20.646 48.5319 20.7935 48.5403 21.097C48.5629 21.8968 48.5403 23.3432 48.5403 23.3432C48.5403 23.3432 50.831 21.0403 51.1586 20.7141C51.4947 20.3766 52.537 21.4316 52.2009 21.7663C51.6247 22.342 50.1616 23.9303 50.1616 23.9303L52.3167 26.7806C52.7262 27.3251 51.4354 28.3064 51.0259 27.7619H51.0231ZM39.5981 21.1055C39.872 21.6897 41.3662 25.8191 41.8011 26.9649C42.1034 27.7675 40.6431 28.3234 40.3381 27.5208C39.9652 26.5281 40.0613 26.4856 40.0613 26.4856H37.2453L36.9374 27.5662C36.6098 28.3234 35.1919 27.7051 35.5223 26.9479C35.9771 25.8985 37.3441 21.9421 37.7226 21.1055C37.8723 20.7737 38.2254 20.6404 38.5869 20.6404C39.0247 20.6404 39.4738 20.8332 39.6009 21.1055H39.5981ZM35.9912 20.6404C36.9487 20.6404 36.9487 22.152 35.9912 22.152C34.9744 22.152 34.4603 22.1492 34.4603 22.1492L34.4547 27.3393C34.4547 28.0596 32.856 28.0511 32.856 27.3279C32.8645 26.3381 32.856 22.0925 32.856 22.0925H31.3167C30.4129 22.0925 30.41 20.612 31.3167 20.6092C31.3167 20.6092 34.9207 20.6404 35.9997 20.6404H35.9912ZM42.3463 27.0301C42.3463 27.0301 42.3406 22.6966 42.3378 21.3522C42.3378 20.8786 42.753 20.6432 43.171 20.6432C43.589 20.6432 44.0014 20.8786 44.0042 21.3494C44.0042 22.3222 44.0014 26.3325 44.0014 26.3325C44.0014 26.3325 45.3204 26.341 46.0463 26.341C46.7722 26.341 46.7722 27.8866 46.0492 27.8866C45.3261 27.8866 43.6935 27.8952 42.9592 27.8952C42.2248 27.8952 42.3463 27.033 42.3463 27.033V27.0301Z" fill="#371D1E"/>
<path d="M39.5351 25.0615L38.6793 22.3672L37.75 25.0615H39.5351Z" fill="#371D1E"/>
<path d="M31.3103 22.0927H32.8496C32.8496 22.0927 32.8581 26.3383 32.8496 27.3281C32.8496 28.0513 34.4511 28.0598 34.4483 27.3395L34.4539 22.1494C34.4539 22.1494 34.9708 22.1522 35.9848 22.1522C36.9423 22.1522 36.9423 20.6406 35.9848 20.6406C34.9058 20.6406 31.3018 20.6094 31.3018 20.6094C30.398 20.6094 30.4008 22.0927 31.3018 22.0927H31.3103Z" fill="#FAE100"/>
<path d="M37.7179 21.1057C37.3394 21.9424 35.9695 25.8988 35.5176 26.9481C35.19 27.7054 36.605 28.3265 36.9327 27.5664L37.2405 26.4859H40.0565C40.0565 26.4859 39.9605 26.5312 40.3333 27.521C40.6356 28.3237 42.0986 27.7678 41.7964 26.9652C41.3643 25.8194 39.8673 21.69 39.5933 21.1057C39.4662 20.8363 39.0171 20.6406 38.5793 20.6406C38.2178 20.6406 37.8648 20.7739 37.7151 21.1057H37.7179ZM38.6782 22.3678L39.534 25.0621H37.749L38.6782 22.3678Z" fill="#FAE100"/>
<path d="M46.0445 26.3384C45.3214 26.3384 43.9996 26.3299 43.9996 26.3299C43.9996 26.3299 44.0052 22.3224 44.0024 21.3468C44.0024 20.876 43.5844 20.6406 43.1692 20.6406C42.754 20.6406 42.3331 20.8789 42.336 21.3497C42.336 22.694 42.3444 27.0276 42.3444 27.0276C42.3444 27.0276 42.2201 27.8897 42.9573 27.8897C43.6945 27.8897 45.3242 27.8812 46.0473 27.8812C46.7704 27.8812 46.7676 26.3355 46.0445 26.3355V26.3384Z" fill="#FAE100"/>
<path d="M50.1596 23.9307C50.1596 23.9307 51.6226 22.3425 52.1988 21.7667C52.5349 21.4321 51.4927 20.3771 51.1566 20.7146C50.8318 21.0379 48.5383 23.3436 48.5383 23.3436C48.5383 23.3436 48.5581 21.8972 48.5383 21.0974C48.5298 20.794 48.1598 20.6465 47.7785 20.6465C47.3718 20.6465 46.9566 20.8138 46.9651 21.14C46.982 21.7299 46.9453 27.0618 46.9453 27.456C46.9453 28.0799 48.527 28.0771 48.527 27.456C48.527 26.7328 48.527 25.3573 48.527 25.3573L48.9902 24.9829L51.021 27.7623C51.4306 28.3068 52.7214 27.3227 52.3118 26.781L50.1567 23.9307H50.1596Z" fill="#FAE100"/>
<path d="M21.2005 48.457V52.1602H20.4952V44.6363H21.2005V47.7517H22.239V48.457H21.2005ZM18.9767 44.9302V47.0071C18.9767 47.9672 18.8101 48.7999 18.477 49.5053C18.1439 50.2041 17.6802 50.7397 17.0859 51.112C16.4915 51.4843 15.809 51.6704 15.0383 51.6704V50.9748C15.8351 50.9683 16.5013 50.743 17.0369 50.2988C17.5724 49.8482 17.9349 49.2049 18.1243 48.3689H15.0383V47.6929H18.2321C18.2582 47.51 18.2713 47.2945 18.2713 47.0463V45.6062H15.0383V44.9302H18.9767ZM28.9586 48.457V52.1602H28.2532V44.6363H28.9586V47.7517H29.997V48.457H28.9586ZM26.7347 44.9302V47.0071C26.7347 47.9672 26.5681 48.7999 26.2351 49.5053C25.902 50.2041 25.4382 50.7397 24.8439 51.112C24.2496 51.4843 23.5671 51.6704 22.7964 51.6704V50.9748C23.5932 50.9683 24.2594 50.743 24.7949 50.2988C25.3305 49.8482 25.693 49.2049 25.8824 48.3689H22.7964V47.6929H25.9901C26.0163 47.51 26.0293 47.2945 26.0293 47.0463V45.6062H22.7964V44.9302H26.7347ZM37.4122 51.7782H30.2801V51.0826H33.4837V49.3584C32.9154 49.3257 32.4158 49.2114 31.9847 49.0155C31.5602 48.813 31.2304 48.5485 30.9953 48.2219C30.7667 47.8888 30.6524 47.51 30.6524 47.0855C30.6524 46.6283 30.783 46.2266 31.0443 45.8805C31.312 45.5343 31.6843 45.2666 32.1611 45.0771C32.6444 44.8877 33.2061 44.793 33.8461 44.793C34.4862 44.793 35.0446 44.8877 35.5214 45.0771C36.0047 45.2666 36.377 45.5343 36.6382 45.8805C36.906 46.2266 37.0399 46.6283 37.0399 47.0855C37.0399 47.51 36.9223 47.8888 36.6872 48.2219C36.4586 48.5485 36.1288 48.813 35.6977 49.0155C35.2667 49.2114 34.767 49.3257 34.1988 49.3584V51.0826H37.4122V51.7782ZM31.3871 47.0855C31.3871 47.4055 31.4884 47.6864 31.6908 47.928C31.8933 48.1697 32.1807 48.3591 32.553 48.4962C32.9252 48.6269 33.3563 48.6922 33.8461 48.6922C34.336 48.6922 34.767 48.6269 35.1393 48.4962C35.5116 48.3591 35.799 48.1697 36.0014 47.928C36.2039 47.6864 36.3051 47.4055 36.3051 47.0855C36.3051 46.7655 36.2039 46.4846 36.0014 46.243C35.799 45.9948 35.5116 45.8054 35.1393 45.6748C34.767 45.5376 34.336 45.469 33.8461 45.469C33.3563 45.469 32.9252 45.5376 32.553 45.6748C32.1807 45.8054 31.8933 45.9948 31.6908 46.243C31.4884 46.4846 31.3871 46.7655 31.3871 47.0855ZM45.1702 49.4171H38.0381V48.8097H41.2515V47.9868H38.5868V44.7441H44.6902V45.2927H39.2823V46.1156H44.5628V46.6152H39.2823V47.448H44.7489V47.9868H41.9569V48.8097H45.1702V49.4171ZM44.651 50.1715V52.1504H43.9456V50.7789H38.4888V50.1715H44.651ZM53.6606 48.3395V44.6363H54.3758V48.3395H53.6606ZM50.2415 46.7328C49.9803 47.1247 49.6439 47.4512 49.2324 47.7125C48.821 47.9672 48.3605 48.137 47.8511 48.2219V47.5557C48.3083 47.4643 48.7067 47.2814 49.0463 47.0071C49.3925 46.7328 49.657 46.3965 49.8398 45.998C50.0227 45.5996 50.1174 45.1719 50.124 44.7147L50.8195 44.7539C50.8195 45.2568 50.7314 45.7303 50.555 46.1744L52.8866 47.5361L52.534 48.1044L50.2415 46.7328ZM54.5717 52.0427H48.3703V50.1519H53.6606V49.3486H48.3605V48.7803H54.3758V50.6711H49.0855V51.4745H54.5717V52.0427ZM62.1338 52.1602H61.4186V44.6363H62.1338V52.1602ZM58.6461 44.8518C58.6331 46.0405 58.5318 47.0822 58.3424 47.977L60.7035 51.2393L60.1353 51.6704L58.1171 48.8391C57.8624 49.6947 57.5228 50.3707 57.0982 50.8671C56.6802 51.3569 56.1937 51.6312 55.6385 51.69V50.9552C56.1218 50.8703 56.5333 50.547 56.8729 49.9853C57.2125 49.4171 57.4705 48.6856 57.6469 47.7909C57.8232 46.8961 57.9146 45.9099 57.9212 44.8322L58.6461 44.8518ZM70.7246 47.1933H69.6861V50.2303H68.9807V44.6363H69.6861V46.4879H70.7246V47.1933ZM67.5406 45.8217C67.5406 46.8602 67.1716 47.6537 66.4336 48.2023C65.7021 48.751 64.7093 49.0253 63.4553 49.0253V48.3493C64.5069 48.3493 65.3331 48.137 65.9339 47.7125C66.5348 47.288 66.8352 46.6838 66.8352 45.9001V45.4984H63.4553V44.842H67.5406V45.8217ZM69.9016 51.3667V52.0427H63.759V49.7306H64.4742V51.3667H69.9016Z" fill="#371D1E"/>
<path d="M20.535 68.8486H17.6494V58.6956H15.1556V56.38H20.535V68.8486ZM26.2045 61.1359C25.7177 61.1359 25.308 60.9696 24.9755 60.6371C24.643 60.3046 24.4767 59.889 24.4767 59.3903C24.4767 58.8796 24.643 58.47 24.9755 58.1612C25.308 57.8406 25.7177 57.6803 26.2045 57.6803C26.6914 57.6803 27.1011 57.8406 27.4336 58.1612C27.7661 58.47 27.9323 58.8796 27.9323 59.3903C27.9323 59.889 27.7661 60.3046 27.4336 60.6371C27.1011 60.9696 26.6914 61.1359 26.2045 61.1359ZM26.2045 67.5305C25.7177 67.5305 25.308 67.3643 24.9755 67.0318C24.643 66.6993 24.4767 66.2837 24.4767 65.7849C24.4767 65.2743 24.643 64.8646 24.9755 64.5559C25.308 64.2352 25.7177 64.0749 26.2045 64.0749C26.6914 64.0749 27.1011 64.2352 27.4336 64.5559C27.7661 64.8646 27.9323 65.2743 27.9323 65.7849C27.9323 66.2837 27.7661 66.6993 27.4336 67.0318C27.1011 67.3643 26.6914 67.5305 26.2045 67.5305ZM35.8929 68.8486H33.0073V58.6956H30.5136V56.38H35.8929V68.8486ZM56.9658 60.459H55.4339V63.309H52.869V55.7744H55.4339V57.8762H56.9658V60.459ZM47.8281 60.6193C47.2699 61.3912 46.5931 62.0087 45.7974 62.4718C45.0137 62.9349 44.1528 63.1902 43.2147 63.2377V60.8153C43.8915 60.7321 44.4853 60.4709 44.9959 60.0315C45.5184 59.5803 45.9221 58.9925 46.2071 58.2681C46.504 57.5437 46.6584 56.7303 46.6703 55.8278L49.253 55.9881C49.253 56.9143 49.1224 57.7753 48.8612 58.5709L52.388 60.9399L51.0877 62.8815L47.8281 60.6193ZM49.6984 63.5049C51.4796 63.5049 52.8986 63.7484 53.9555 64.2352C55.0243 64.7102 55.5586 65.4821 55.5586 66.5508C55.5586 67.6196 55.0243 68.3974 53.9555 68.8843C52.8986 69.3711 51.4796 69.6146 49.6984 69.6146C47.9171 69.6146 46.4921 69.3711 45.4234 68.8843C44.3665 68.3974 43.8381 67.6196 43.8381 66.5508C43.8381 65.4821 44.3665 64.7102 45.4234 64.2352C46.4921 63.7484 47.9171 63.5049 49.6984 63.5049ZM49.6984 67.4593C50.6246 67.4593 51.3668 67.388 51.9249 67.2455C52.4949 67.0911 52.7799 66.8596 52.7799 66.5508C52.7799 66.2421 52.4949 66.0165 51.9249 65.874C51.3668 65.7315 50.6246 65.6602 49.6984 65.6602C48.7721 65.6602 48.024 65.7315 47.454 65.874C46.884 66.0165 46.599 66.2421 46.599 66.5508C46.599 66.8596 46.884 67.0911 47.454 67.2455C48.024 67.388 48.7721 67.4593 49.6984 67.4593ZM69.5395 60.6728V63.1843H66.9745V55.7744H69.5395V58.0543H71.0713V60.6728H69.5395ZM66.3689 62.2759C66.0364 62.4302 65.5851 62.549 65.0151 62.6321C64.457 62.7152 63.8692 62.7568 63.2517 62.7568H57.6052V55.9347H65.6207V58.1612H60.188V60.5303H63.3586C63.9523 60.5303 64.5164 60.4946 65.0507 60.4234C65.5851 60.3403 66.0245 60.2274 66.3689 60.0849V62.2759ZM69.5395 63.6652V69.4543H58.0505V63.6652H69.5395ZM66.9745 67.2277V65.8918H60.6333V67.2277H66.9745Z" fill="#371D1E"/>
</svg>
