<svg width="84" height="85" viewBox="0 0 84 85" fill="none" xmlns="http://www.w3.org/2000/svg">
<ellipse cx="42" cy="42.8274" rx="42" ry="42.1731" fill="#EBEBEB"/>
<path d="M47.7105 31.9503H36.6874C36.0748 31.9503 35.5781 31.4516 35.5781 30.8365C35.5781 30.2214 36.0748 29.7227 36.6874 29.7227H47.7105C48.3231 29.7227 48.8197 30.2214 48.8197 30.8365C48.8197 31.4516 48.3231 31.9503 47.7105 31.9503Z" fill="black"/>
<path d="M47.7105 26.3809H36.6874C36.0748 26.3809 35.5781 25.8822 35.5781 25.2671C35.5781 24.652 36.0748 24.1533 36.6874 24.1533H47.7105C48.3231 24.1533 48.8197 24.652 48.8197 25.2671C48.8197 25.8822 48.3231 26.3809 47.7105 26.3809Z" fill="black"/>
<path d="M42.5456 37.5196H36.6874C36.0748 37.5196 35.5781 37.0209 35.5781 36.4058C35.5781 35.7907 36.0748 35.292 36.6874 35.292H42.5456C43.1581 35.292 43.6548 35.7907 43.6548 36.4058C43.6548 37.0209 43.1581 37.5196 42.5456 37.5196Z" fill="black"/>
<path d="M44.0346 44.4808H35.1753C33.0343 44.4808 31.293 42.7324 31.293 40.5825V21.0907C31.293 18.9409 33.0343 17.1924 35.1753 17.1924H49.2201C51.3612 17.1924 53.1025 18.9409 53.1025 21.0907V35.3756C53.1025 35.6709 52.9855 35.9543 52.7775 36.1631L44.8195 44.1545C44.6115 44.3634 44.3293 44.4808 44.0352 44.4808H44.0346ZM35.1753 19.42C34.2578 19.42 33.5115 20.1694 33.5115 21.0907V40.5825C33.5115 41.5038 34.2578 42.2532 35.1753 42.2532H43.5754L50.884 34.9144V21.0907C50.884 20.1694 50.1377 19.42 49.2201 19.42H35.1753Z" fill="black"/>
<path d="M22.1227 52.5776C21.9604 52.7794 21.7564 52.9461 21.5107 53.0778C21.265 53.2094 20.9864 53.2949 20.6749 53.3344V52.9132C20.9644 52.8694 21.2145 52.7685 21.4251 52.6105C21.6401 52.4482 21.8024 52.2595 21.9121 52.0446C22.0262 51.8296 22.0854 51.6146 22.0898 51.3996L22.557 51.4259C22.557 51.7023 22.4934 51.9656 22.3662 52.2157L23.7745 52.9067L23.5968 53.2884L22.1227 52.5776ZM24.9854 54.3874H24.5182V51.4391H24.9854V54.3874ZM20.5235 54.1176V53.7161H22.4386C23.2415 53.7161 23.7899 53.6503 24.0838 53.5187V53.9135C23.7943 54.0496 23.2415 54.1176 22.4254 54.1176H22.3925V54.6901H21.9253V54.1176H20.5235ZM24.9854 54.5782V56.4143H20.971V54.5782H21.4449V55.0915H24.5248V54.5782H24.9854ZM24.5248 55.4798H21.4449V56.026H24.5248V55.4798ZM26.0311 52.0972V51.63H30.1837V54.9665H29.6967V52.0972H26.0311ZM30.5193 56.2366H25.7284V55.7694H27.5645V53.4529H28.0515V55.7694H30.5193V56.2366ZM36.6768 54.0057V56.4933H36.2556V51.4391H36.6768V53.5318H37.2625V54.0057H36.6768ZM33.8996 51.597V56.1774H32.3794V51.597H32.7874V53.4134H33.5245V51.597H33.8996ZM35.7225 51.597V56.1774H34.2089V51.597H34.584V53.4134H35.3211V51.597H35.7225ZM33.5245 53.8477H32.7874V55.7431H33.5245V53.8477ZM35.3211 53.8477H34.584V55.7431H35.3211V53.8477ZM38.2819 52.8474V53.4529H41.9606V53.8346H37.8212V52.4921H41.4276V51.8932H37.8146V51.5115H41.8882V52.8474H38.2819ZM37.4526 54.7493V54.3413H42.2436V54.7493H37.4526ZM41.9869 55.9997V56.4209H37.8014V55.1771H38.2819V55.9997H41.9869ZM48.9868 52.9132H48.2892V54.236H47.8154V51.4391H48.2892V52.446H48.9868V52.9132ZM45.5844 52.979C45.4133 53.2905 45.1917 53.545 44.9197 53.7424C44.6477 53.9355 44.3362 54.0605 43.9852 54.1176V53.6635C44.2923 53.602 44.5578 53.4682 44.7815 53.262C45.0053 53.0558 45.1764 52.7992 45.2948 52.4921C45.4133 52.1849 45.4725 51.8515 45.4725 51.4918L45.9529 51.5181C45.9529 51.8998 45.8937 52.2529 45.7753 52.5776L47.302 53.6306L47.0585 53.9991L45.5844 52.979ZM46.3281 54.4203C46.9379 54.4203 47.4293 54.5058 47.8022 54.6769C48.1751 54.8437 48.3616 55.1025 48.3616 55.4535C48.3616 55.8045 48.1751 56.0633 47.8022 56.23C47.4293 56.3968 46.9379 56.4801 46.3281 56.4801C45.7182 56.4801 45.2268 56.3968 44.8539 56.23C44.481 56.0633 44.2945 55.8045 44.2945 55.4535C44.2945 55.1025 44.481 54.8437 44.8539 54.6769C45.2268 54.5058 45.7182 54.4203 46.3281 54.4203ZM46.3281 56.0655C46.78 56.0655 47.1485 56.0129 47.4337 55.9076C47.7188 55.8023 47.8614 55.6509 47.8614 55.4535C47.8614 55.2517 47.7188 55.0981 47.4337 54.9928C47.1485 54.8875 46.78 54.8349 46.3281 54.8349C45.8762 54.8349 45.5076 54.8875 45.2225 54.9928C44.9373 55.0981 44.7947 55.2517 44.7947 55.4535C44.7947 55.6509 44.9373 55.8023 45.2225 55.9076C45.5076 56.0129 45.8762 56.0655 46.3281 56.0655ZM53.5006 52.9922V54.1899H53.0268V51.4391H53.5006V52.5118H54.1982V52.9922H53.5006ZM52.6451 53.6898C52.4915 53.7644 52.2722 53.8214 51.987 53.8609C51.7018 53.9004 51.3794 53.9201 51.0196 53.9201H49.3612V51.5773H52.2897V52.0051H49.835V53.4924H51.0459C51.3969 53.4924 51.7106 53.4726 51.987 53.4331C52.2678 53.3936 52.4871 53.3366 52.6451 53.262V53.6898ZM53.5006 54.4861V56.4143H49.5191V54.4861H53.5006ZM53.0268 55.9865V54.9139H49.9995V55.9865H53.0268ZM58.3698 55.1968V51.4391H58.8503V55.1968H58.3698ZM56.0665 53.1831C55.8866 53.5165 55.6607 53.7929 55.3887 54.0123C55.1166 54.2272 54.8095 54.3611 54.4673 54.4137V53.9465C54.7744 53.885 55.0421 53.7359 55.2702 53.4989C55.5027 53.262 55.6804 52.9681 55.8033 52.6171C55.9261 52.2661 55.9875 51.891 55.9875 51.4918L56.4614 51.5181C56.4614 51.97 56.3934 52.3846 56.2574 52.7619L57.8302 53.9991L57.5406 54.3676L56.0665 53.1831ZM58.9885 56.4143H54.8161V54.8415H55.2965V55.9602H58.9885V56.4143ZM61.2253 53.2752C61.0673 53.5604 60.8567 53.7951 60.5935 53.9794C60.3303 54.1636 60.0319 54.2777 59.6985 54.3216V53.8872C60.0758 53.817 60.3829 53.6459 60.6198 53.3739C60.8611 53.0975 61.0059 52.7575 61.0542 52.3539H59.7511V51.9327H61.0673V51.347H61.5477V51.9327H62.8376V52.3539H61.5412C61.5192 52.5732 61.4819 52.7509 61.4293 52.8869L62.9166 53.907L62.6863 54.2821L61.2253 53.2752ZM63.6208 51.4391H64.0946V54.4532H63.6208V53.1633H62.6468V52.7224H63.6208V51.4391ZM62.0874 54.6309C62.7104 54.6309 63.2105 54.7055 63.5878 54.8546C63.9652 54.9994 64.1538 55.2341 64.1538 55.5588C64.1538 55.8791 63.9652 56.1138 63.5878 56.263C63.2149 56.4077 62.7148 56.4801 62.0874 56.4801C61.4644 56.4801 60.9642 56.4077 60.5869 56.263C60.214 56.1138 60.0275 55.8791 60.0275 55.5588C60.0275 55.2341 60.214 54.9994 60.5869 54.8546C60.9642 54.7055 61.4644 54.6309 62.0874 54.6309ZM62.0874 56.0787C62.5568 56.0787 62.9341 56.037 63.2193 55.9536C63.5089 55.8659 63.6537 55.7343 63.6537 55.5588C63.6537 55.3789 63.5089 55.2473 63.2193 55.1639C62.9341 55.0806 62.5568 55.0389 62.0874 55.0389C61.6223 55.0389 61.245 55.0828 60.9555 55.1705C60.6703 55.2539 60.5277 55.3833 60.5277 55.5588C60.5277 55.7343 60.6725 55.8659 60.962 55.9536C61.2516 56.037 61.6267 56.0787 62.0874 56.0787Z" fill="black"/>
<path d="M28.2566 62.1371H27.2276V65.3558H25.5046V58.5475H27.2276V60.3782H28.2566V62.1371ZM24.3918 60.1269C24.3918 60.9884 24.1684 61.7143 23.7217 62.3046C23.275 62.8949 22.6608 63.3376 21.8791 63.6328C21.0973 63.9199 20.1999 64.0635 19.1869 64.0635V62.4602C19.8649 62.4602 20.4632 62.3764 20.9817 62.2089C21.5002 62.0414 21.903 61.8061 22.1902 61.5029C22.4773 61.1918 22.6209 60.8329 22.6209 60.426V60.2226H19.1869V58.6552H24.3918V60.1269ZM27.3592 66.1096V67.7369H19.5099V64.5541H21.2688V66.1096H27.3592ZM34.5013 63.1661V61.6585H35.291V60.9645H34.5013V59.4568H35.291V58.5475H36.9901V65.3678H35.291V63.1661H34.5013ZM34.262 63.9199C34.0307 63.9917 33.7235 64.0516 33.3406 64.0994C32.9578 64.1393 32.5589 64.1592 32.1441 64.1592H28.5665V62.6636H29.2844V60.1508H28.6263V58.6552H34.1304V60.1508H33.4603V62.6157C33.8033 62.5758 34.0705 62.524 34.262 62.4602V63.9199ZM31.821 62.6636V60.1508H30.9236V62.6636H31.3424H31.821ZM37.1097 67.7369H29.1767V64.7097H30.9356V66.1216H37.1097V67.7369ZM47.2073 61.6944H46.1783V63.6088H44.4552V58.5475H46.1783V59.9594H47.2073V61.6944ZM41.069 61.8021C40.6941 62.3206 40.2394 62.7354 39.705 63.0465C39.1785 63.3576 38.6002 63.5291 37.97 63.561V61.9337C38.4247 61.8778 38.8235 61.7024 39.1665 61.4072C39.5175 61.1041 39.7887 60.7092 39.9802 60.2226C40.1796 59.736 40.2833 59.1896 40.2913 58.5834L42.0263 58.6911C42.0263 59.3133 41.9385 59.8916 41.763 60.426L44.1322 62.0174L43.2587 63.3217L41.069 61.8021ZM42.3254 63.7405C43.5219 63.7405 44.4752 63.904 45.1851 64.231C45.903 64.5501 46.262 65.0686 46.262 65.7865C46.262 66.5045 45.903 67.027 45.1851 67.354C44.4752 67.6811 43.5219 67.8446 42.3254 67.8446C41.1289 67.8446 40.1716 67.6811 39.4537 67.354C38.7438 67.027 38.3888 66.5045 38.3888 65.7865C38.3888 65.0686 38.7438 64.5501 39.4537 64.231C40.1716 63.904 41.1289 63.7405 42.3254 63.7405ZM42.3254 66.3968C42.9476 66.3968 43.4462 66.3489 43.8211 66.2532C44.204 66.1495 44.3954 65.9939 44.3954 65.7865C44.3954 65.5791 44.204 65.4276 43.8211 65.3319C43.4462 65.2361 42.9476 65.1883 42.3254 65.1883C41.7032 65.1883 41.2006 65.2361 40.8178 65.3319C40.4349 65.4276 40.2434 65.5791 40.2434 65.7865C40.2434 65.9939 40.4349 66.1495 40.8178 66.2532C41.2006 66.3489 41.7032 66.3968 42.3254 66.3968ZM55.6536 61.838V63.5251H53.9306V58.5475H55.6536V60.0791H56.6826V61.838H55.6536ZM53.5237 62.9148C53.3004 63.0185 52.9973 63.0983 52.6144 63.1542C52.2395 63.21 51.8446 63.2379 51.4298 63.2379H47.6368V58.6552H53.0212V60.1508H49.3717V61.7422H51.5016C51.9004 61.7422 52.2793 61.7183 52.6383 61.6704C52.9973 61.6146 53.2924 61.5388 53.5237 61.4431V62.9148ZM55.6536 63.8481V67.7369H47.9359V63.8481H55.6536ZM53.9306 66.2412V65.3438H49.6709V66.2412H53.9306ZM63.6452 65.3558V58.5475H65.3802V65.3558H63.6452ZM60.0795 62.2328C59.7046 62.7832 59.2539 63.2259 58.7274 63.561C58.2009 63.888 57.6386 64.0675 57.0403 64.0994V62.4123C57.495 62.3565 57.8978 62.1531 58.2488 61.8021C58.6078 61.4511 58.887 60.9964 59.0864 60.438C59.2938 59.8717 59.4015 59.2534 59.4095 58.5834L61.1564 58.6911C61.1564 59.409 61.0367 60.1149 60.7974 60.8089L63.3221 62.6755L62.317 63.9678L60.0795 62.2328ZM65.4998 67.7369H57.5668V64.5182H59.3257V66.1096H65.4998V67.7369ZM40.9853 75.52C40.6263 75.9428 40.2035 76.2818 39.7169 76.537C39.2303 76.7923 38.7039 76.9279 38.1375 76.9439V75.4123C38.6321 75.3724 39.0509 75.1929 39.3939 74.8739C39.7449 74.5468 39.9842 74.1559 40.1118 73.7013H38.2332V72.2295H40.1597V71.38H41.9186V72.2295H43.845V73.7013H41.8827C41.8587 73.789 41.8348 73.8767 41.8109 73.9645C41.7949 74.0443 41.771 74.124 41.7391 74.2038L44.0843 75.5439L43.3185 76.8721L40.9853 75.52ZM44.7424 71.5475H46.4654V77.0037H44.7424V74.9098H43.5937V73.2944H44.7424V71.5475ZM42.5527 77.1234C43.7732 77.1234 44.7424 77.2709 45.4603 77.5661C46.1862 77.8532 46.5492 78.3279 46.5492 78.99C46.5492 80.2264 45.217 80.8446 42.5527 80.8446C39.8964 80.8446 38.5683 80.2264 38.5683 78.99C38.5683 78.3279 38.9272 77.8532 39.6451 77.5661C40.3631 77.2709 41.3323 77.1234 42.5527 77.1234ZM42.5527 79.4566C43.2228 79.4566 43.7453 79.4247 44.1202 79.3609C44.5031 79.2891 44.6945 79.1654 44.6945 78.99C44.6945 78.6709 43.9806 78.5113 42.5527 78.5113C41.1328 78.5113 40.4229 78.6709 40.4229 78.99C40.4229 79.1654 40.6104 79.2891 40.9853 79.3609C41.3682 79.4247 41.8907 79.4566 42.5527 79.4566Z" fill="black"/>
</svg>
