<svg width="89" height="34" viewBox="0 0 89 34" fill="none" xmlns="http://www.w3.org/2000/svg">
<path d="M42.1455 21V17.6338H31.8883C30.8509 17.6338 30 16.798 30 15.7533C30 14.7203 30.8392 13.8729 31.8883 13.8729H57.1117C58.1491 13.8729 59 14.7087 59 15.7533C59 16.7864 58.1608 17.6338 57.1117 17.6338H47.006V21M49.2323 1C55.3051 1 57.7178 3.33315 57.7178 6.67615C57.7178 10.0192 55.3051 12.3059 49.2323 12.3059H40.1057C34.0679 12.3059 31.6552 9.97273 31.6552 6.67615C31.6552 3.37958 34.0679 1 40.1057 1H49.2323ZM49.4538 8.62623C51.9831 8.62623 52.6592 7.68602 52.6592 6.67615C52.6592 5.66629 51.9831 4.76089 49.4538 4.76089H39.9192C37.3199 4.76089 36.6789 5.66629 36.6789 6.67615C36.6789 7.68602 37.3199 8.62623 39.9192 8.62623H49.4538Z" fill="#3E3A39"/>
<path d="M17 17.9631V21.5398C17 27.2369 14.0898 31 8.4231 31C2.75643 31 0 27.2369 0 21.5398V10.5301C0 4.79806 2.82741 1 8.4231 1C14.0188 1 17 4.80971 17 10.5301V13.8039M12.055 10.5418C12.055 6.84855 10.5999 5.26408 8.4231 5.26408C6.35281 5.26408 4.86223 6.84855 4.86223 10.5418V21.5515C4.86223 25.2447 6.31732 26.8291 8.4231 26.8291C10.5289 26.8291 12.055 25.2447 12.055 21.5515V10.5418Z" fill="#3E3A39"/>
<path d="M66.7205 12.2926V14.1026C66.7205 14.3245 66.7547 14.523 66.9029 14.7449L67.3133 15.1186C67.4958 15.2704 67.644 15.3405 67.8264 15.3405H78.0768C79.1714 15.3405 80.0722 16.2514 80.0722 17.3841V17.4192C80.0722 18.5403 79.1828 19.4628 78.0768 19.4628H66.5722C65.2496 19.4628 64.6225 19.1592 63.8015 18.295L62.9578 17.3841C62.1824 16.555 62 16.0295 62 14.5464V9.74678C62 8.88261 62.4447 8.42717 63.3683 8.42717H73.1056C73.4362 8.42717 73.6985 8.15858 73.6985 7.81992V5.47265H64.0752C62.9806 5.47265 62.0798 4.56177 62.0798 3.42901C62.0798 2.30793 62.9692 1.38537 64.0752 1.38537H77.0621C77.7804 1.38537 78.3505 1.98095 78.3505 2.70499V9.09281C78.3505 10.9846 77.1647 12.2692 75.3632 12.2692H66.7319L66.7205 12.2926ZM89 3.41734V17.5827C89 18.914 87.9396 20 86.6398 20C85.3399 20 84.2795 18.914 84.2795 17.5827V3.41734C84.2795 2.08606 85.3399 1 86.6398 1C87.9396 1 89 2.08606 89 3.41734Z" fill="#3E3A39"/>
<path d="M25.0326 14L25.2337 14.0103C26.2259 14.1126 27 14.9643 27 16C27 17.0357 26.2259 17.8874 25.2337 17.9897L25.0326 18H16.9674C15.8808 18 15 17.1046 15 16C15 14.8954 15.8808 14 16.9674 14H25.0326Z" fill="#3E3A39"/>
<path d="M57.4836 24.8881C57.4835 25.651 57.2096 26.4445 56.8405 27.0488C56.5348 27.549 55.7114 28.6368 54.2723 28.6369H36.4609C36.5653 28.9046 36.7145 29.1698 36.9068 29.4033C37.3053 29.8869 37.6978 30.0301 37.9468 30.0301H85.0064V24.3769H69.0435V26.9649C69.0435 28.0612 68.1496 28.951 67.0468 28.951C65.9441 28.9508 65.05 28.0611 65.05 26.9649V23.5414C65.05 21.7937 66.4828 20.407 68.2031 20.407H85.848C87.606 20.4072 89 21.8315 89 23.5414V30.8656C89 32.6132 87.5681 33.9998 85.848 34H37.9468C36.1757 33.9999 34.7413 33.0397 33.8175 31.9187C32.8936 30.7975 32.2952 29.3084 32.2951 27.8015C32.2951 26.0538 33.728 24.6671 35.4483 24.6671H53.49V23.1005H28.2081C25.3305 23.1005 23.0003 20.7838 23 17.9233V1.98493C23 0.888658 23.894 0 24.9968 0C26.0996 0 26.9936 0.888658 26.9936 1.98493V17.9233C26.9939 18.5912 27.5361 19.1295 28.2081 19.1295H54.2723C56.0279 19.1297 57.4833 20.5401 57.4836 22.3217V24.8881Z" fill="#3E3A39"/>
</svg>
