<svg width="97" height="136" viewBox="0 0 97 136" fill="none" xmlns="http://www.w3.org/2000/svg">
<path d="M0 48.5C0 21.716 21.3056 0 47.5833 0C73.8611 0 95.1667 21.716 95.1667 48.5C95.1667 75.284 73.8611 97 47.5833 97C21.3056 97 0 75.3123 0 48.5Z" fill="#00479D"/>
<path d="M13 48.5C13 29.0207 28.5 13.2505 47.6111 13.2505C66.7222 13.2505 82.2222 29.0491 82.2222 48.5C82.2222 67.951 66.7222 83.7779 47.6111 83.7779C28.5 83.7779 13 67.9793 13 48.5Z" fill="white"/>
<path d="M13.6389 65.7142L12.7778 63.9305L12.0833 64.2703L12.9444 66.054L13.6389 65.7142ZM13 66.96L11.4167 63.6474L10.6944 64.0154L12.2778 67.328L13 66.96ZM11.4722 66.9034C11.4722 66.507 11.4167 66.1389 11.25 65.7708C11.0833 65.4028 10.8333 65.1196 10.5 64.8931C10.1944 64.6666 9.86111 64.6383 9.55556 64.8082C9.25 64.9498 9.08333 65.2329 9.05556 65.6293C9.02778 66.0257 9.08333 66.3937 9.27778 66.7618C9.44444 67.1299 9.69444 67.413 10.0278 67.6395C10.3333 67.866 10.6667 67.8943 10.9722 67.7244C11.2778 67.5829 11.4444 67.2997 11.4722 66.9317V66.9034ZM14.8056 67.6961L14.4167 66.875L8.22222 69.9611L8.61111 70.7822L14.8056 67.6961ZM10.25 66.8184C10.25 66.8184 10.0278 66.5919 9.97222 66.422C9.91667 66.2805 9.86111 66.1389 9.86111 65.969C9.86111 65.7991 9.88889 65.6859 10 65.6293C10.1111 65.5726 10.2222 65.6293 10.3333 65.7142C10.4444 65.8275 10.5556 65.9407 10.6111 66.0823C10.6944 66.2238 10.7222 66.3937 10.75 66.5353C10.75 66.7052 10.7222 66.7901 10.6111 66.8467C10.5 66.9034 10.3889 66.8467 10.2778 66.7618L10.25 66.8184ZM10.1389 68.772C10.0278 68.6021 9.86111 68.3756 9.66667 68.0642C9.47222 67.7527 9.30556 67.4696 9.16667 67.2431C8.97222 66.875 8.75 66.422 8.5 65.8841C8.25 65.3461 8.11111 65.063 8.08333 65.0064L7.25 65.4311C7.25 65.4311 7.36111 65.6859 7.58333 66.1106C7.77778 66.5353 7.97222 66.9034 8.16667 67.2714C8.38889 67.6678 8.61111 68.0359 8.83333 68.3756C9.05556 68.7154 9.25 68.9985 9.41667 69.1684L10.1944 68.772H10.1389Z" fill="white"/>
<path d="M12.1946 73.1039C12.4168 73.2172 12.6391 73.472 12.8891 73.8118C13.1391 74.1515 13.2779 74.4347 13.3057 74.7178C13.3613 74.9726 13.3057 75.1708 13.1391 75.2557C13.0002 75.3407 12.8335 75.3407 12.5835 75.2274C12.3613 75.1142 12.1113 74.8877 11.8891 74.5479C11.6391 74.2082 11.5279 73.8967 11.4724 73.6419C11.4446 73.3871 11.4724 73.1889 11.6391 73.1039C11.7779 72.9907 11.9724 73.019 12.1946 73.1323V73.1039ZM14.2224 74.9726C14.2224 74.4913 14.0002 73.925 13.5557 73.3021C13.1113 72.6793 12.6668 72.2829 12.2224 72.113C11.7779 71.9431 11.3891 71.9997 11.0279 72.2262C10.6946 72.4811 10.5279 72.8208 10.5557 73.3304C10.5557 73.8118 10.8057 74.378 11.2224 75.0009C11.6668 75.6238 12.1113 76.0202 12.5557 76.1901C13.0002 76.3599 13.3891 76.3033 13.7224 76.0768C14.0557 75.822 14.2224 75.4539 14.2224 74.9726ZM17.3057 74.2081L16.8613 73.557L18.1668 72.6226L17.6668 71.8865L14.3891 74.2648L14.9168 75.0009L16.1668 74.0949L16.6113 74.7461L17.3613 74.2081H17.3057ZM16.8335 71.3202L15.0557 68.8004L12.3613 70.754L14.1391 73.2738L16.8335 71.3202ZM13.6113 70.9522L14.8613 70.0462L15.6113 71.0937L14.3613 71.9997L13.6113 70.9522Z" fill="white"/>
<path d="M20.5555 77.4075C20.3333 77.2942 20.0833 77.096 19.7777 76.7846C19.4722 76.4731 19.2777 76.2183 19.1666 75.9918C19.0555 75.7653 19.0555 75.5954 19.1666 75.5105C19.2499 75.4256 19.4166 75.4256 19.6666 75.5105C19.9166 75.5954 20.1666 75.8219 20.4444 76.1051C20.7222 76.3882 20.9166 76.6713 21.0277 76.8978C21.1388 77.1243 21.1388 77.2942 21.0277 77.4075C20.9444 77.4924 20.7777 77.4924 20.5555 77.3792V77.4075ZM21.9166 77.0677C21.7777 76.6147 21.4444 76.1051 20.9444 75.5671C20.4444 75.0575 19.9444 74.7177 19.4999 74.5762C19.0555 74.4346 18.6944 74.4912 18.4444 74.7461C18.1666 75.0292 18.1111 75.3973 18.2499 75.8503C18.3888 76.3033 18.7222 76.7846 19.2499 77.3225C19.7777 77.8605 20.2499 78.2002 20.6944 78.3418C21.1388 78.4834 21.4999 78.4267 21.7777 78.1436C22.0277 77.8888 22.0833 77.5207 21.9444 77.0677H21.9166ZM21.0833 79.6725L16.9444 75.4256L16.3611 76.0201L20.4999 80.2671L21.0833 79.6725ZM18.2777 81.6827L15.7499 79.1062L15.9999 78.8514L18.4166 81.3146L19.7222 80.0123L16.5833 76.8129L16.0555 77.3508L18.4722 79.8141L18.2222 80.0689L15.8055 77.6057L14.4722 78.9364L17.7222 82.249L18.2777 81.6827Z" fill="white"/>
<path d="M25.5279 86.1279C25.1668 85.9863 24.8057 85.7881 24.4724 85.5899L23.3335 84.8821L25.8335 80.6635L26.5835 81.1165L24.5557 84.5424L24.9724 84.7972C25.2224 84.9387 25.5557 85.1086 25.9168 85.2785C26.2779 85.4484 26.5835 85.5899 26.8335 85.6749L26.3891 86.4393C26.1946 86.3827 25.9168 86.2694 25.5557 86.1279H25.5279ZM28.2502 85.8164L26.5557 88.676L25.8057 88.223L29.3613 82.1924L30.1113 82.6454L28.7224 84.9954L29.4168 85.4201L28.9168 86.2694L28.2224 85.8447L28.2502 85.8164Z" fill="white"/>
<path d="M34.8891 87.7983L30.6946 86.0996L31.6668 83.608L32.5002 83.9478L31.8613 85.5899L35.2502 86.949L34.9168 87.7983H34.8891ZM34.8057 89.8086L32.4446 88.8742L31.6113 90.9977L30.7502 90.6579L31.5835 88.5345L29.3335 87.6285L29.6668 86.7791L35.139 88.9592L34.8057 89.8086Z" fill="white"/>
<path d="M41.1113 89.582C40.7779 90.4597 40.6113 90.9127 40.6113 90.9127L39.7502 90.7145C39.7502 90.7145 39.8891 90.3465 40.1391 89.6953C40.3613 89.0441 40.5557 88.4778 40.6668 87.9682L37.1113 87.2037L37.3057 86.2977L41.8057 87.2604C41.6668 87.9116 41.4446 88.6477 41.1113 89.5254V89.582ZM35.6113 91.6206L35.8057 90.7145L37.6946 91.1109L38.1668 88.8459L39.0557 89.0441L38.5835 91.3091L41.5279 91.9603L41.3335 92.8663L35.5835 91.6206H35.6113Z" fill="white"/>
<path d="M48.8613 90.8844C48.3335 91.7904 47.7502 92.4416 47.0557 92.8663L46.3335 92.2717C47.0279 91.8754 47.5835 91.3374 47.9724 90.6296C48.3613 89.9218 48.5557 89.2423 48.5279 88.5911L46.5835 88.676V87.77L49.5557 87.6567C49.6113 88.9308 49.3613 90.0067 48.8613 90.9127V90.8844ZM51.4168 90.573L51.5279 93.8573H50.639L50.389 86.864H51.2779L51.3891 89.6103H52.2224L52.2502 90.5447H51.4168V90.573Z" fill="white"/>
<path d="M53.5555 87.5718L53.3888 86.7224L55.3055 86.326L55.4722 87.1754L53.5555 87.5718ZM58.1944 92.7247L56.8055 85.8164L57.6944 85.6465L59.0833 92.5548L58.1944 92.7247ZM56.8055 91.7904C56.5833 91.7054 56.3333 91.5356 56.0277 91.3374C55.7222 91.1392 55.4444 90.8844 55.1944 90.5446C55.1944 90.8844 55.0555 91.2241 54.8333 91.6205C54.6111 91.9886 54.4166 92.3 54.1666 92.4982L53.3611 91.932C53.7499 91.6205 54.0555 91.2524 54.2777 90.7711C54.4999 90.2898 54.5277 89.7519 54.4166 89.129V88.9308L53.1666 89.1856L52.9722 88.2796L56.3055 87.5718L56.4999 88.4778L55.3055 88.7326V88.9308C55.4722 89.5254 55.7222 89.95 56.0833 90.2615C56.4722 90.5729 56.8333 90.7994 57.2222 90.941L56.8055 91.8187V91.7904Z" fill="white"/>
<path d="M64.3336 86.1562L60.1114 87.8267L59.5003 86.2412L62.7225 84.9671L62.6114 84.6556L59.3892 85.9297L59.1392 85.2785L63.278 83.6364L63.8892 85.2219L60.6669 86.496L60.778 86.8074L64.0836 85.505L64.3336 86.1562ZM65.8336 90.0068L61.5558 91.6772L60.9447 90.0917L64.1669 88.8176L64.0558 88.5062L60.8336 89.7803L60.5836 89.1291L64.7225 87.4869L65.3336 89.0725L62.1114 90.3465L62.2225 90.658L65.5836 89.3273L65.8336 89.9785V90.0068ZM65.278 86.949L59.8058 89.1008L59.528 88.3929L65.0003 86.2412L65.278 86.949Z" fill="white"/>
<path d="M73.0834 83.6929C73.0834 83.6929 72.8612 83.8911 72.5001 84.2592C72.1389 84.6272 71.7501 84.9387 71.3334 85.2501L70.5001 85.8447L67.7778 81.9375L70.0834 80.2671L70.6112 81.0032L69.0278 82.1357L70.6945 84.5423L71.1667 84.2025C71.3889 84.0327 71.6667 83.8062 72.0001 83.4664C72.3334 83.155 72.5278 82.9851 72.5278 82.9568L73.0278 83.6929H73.0834ZM75.3056 84.2309L74.5834 84.7405L72.5001 81.7393L71.2778 82.617L70.7501 81.8526L71.9723 80.9749L70.5834 78.993L71.3056 78.4833L75.3056 84.2309Z" fill="white"/>
<path d="M77.5832 80.9466L77.2499 80.6068L78.9721 78.8514L79.3054 79.1912L77.5832 80.9466ZM74.111 75.737L72.6943 77.181L73.2221 77.7189L74.6388 76.3033L74.111 75.7653V75.737ZM75.4721 75.8786L72.8332 78.54L73.361 79.1063L75.9999 76.4449L75.4443 75.8786H75.4721ZM77.4166 74.8593L76.861 75.3973L75.6943 74.2081L75.0554 74.8593L77.8054 77.6906L78.4443 77.0394L77.4721 76.0485L78.0277 75.5105L77.3888 74.8593H77.4166ZM75.9443 77.2376C75.5832 77.3226 75.2499 77.5491 74.861 77.9171C74.4999 78.2852 74.2777 78.6249 74.1943 79.0213C74.111 79.3894 74.1666 79.7008 74.361 79.899C74.5554 80.1255 74.861 80.1822 75.2221 80.0972C75.611 80.0123 75.9721 79.7858 76.3054 79.446C76.6666 79.078 76.9166 78.6816 76.9721 78.3418C77.0554 77.9737 76.9721 77.6906 76.7499 77.4641C76.5277 77.2376 76.2499 77.181 75.9166 77.2659L75.9443 77.2376ZM78.7221 77.2942L78.0832 77.9454L78.4166 78.2852L76.6943 80.0406L76.361 79.7008L75.7221 80.3237L77.5277 82.1641L80.5277 79.1346L78.7221 77.2942ZM76.1388 78.4551C76.1388 78.4551 75.9721 78.7382 75.8055 78.9081C75.6388 79.078 75.4721 79.1912 75.3332 79.2478C75.1943 79.3045 75.0832 79.3045 74.9999 79.2195C74.9166 79.1346 74.9166 79.0213 74.9721 78.8798C75.0277 78.7382 75.1388 78.5966 75.3054 78.3984C75.4721 78.2286 75.611 78.1153 75.7499 78.0587C75.8888 78.0021 75.9999 78.0021 76.0554 78.087C76.1388 78.1719 76.1388 78.2852 76.111 78.4268L76.1388 78.4551Z" fill="white"/>
<path d="M82.9443 73.1606C82.861 73.3588 82.7499 73.6136 82.5832 73.9817C82.4166 74.3497 82.1943 74.6895 81.9721 75.0293L81.111 76.2467L77.1943 73.3588L77.7221 72.6227L80.8888 74.9726L81.2499 74.463C81.4166 74.2082 81.611 73.8967 81.8054 73.5287C81.9999 73.1606 82.1388 72.8492 82.2499 72.6227L82.9721 73.1606H82.9443ZM85.1666 73.1606L84.6388 73.8967L79.0554 69.7631L79.5832 69.0269L85.1666 73.1606Z" fill="white"/>
<path d="M86.417 67.1581C86.417 67.1581 86.3337 67.413 86.1948 67.866C86.0559 68.319 85.8614 68.8003 85.6114 69.3099L85.1114 70.3575L80.917 68.234L82.1948 65.6009L83.0003 65.9973L82.1114 67.8093L84.6948 69.1117L85.0003 68.4605C85.1114 68.1774 85.2503 67.8377 85.417 67.3846C85.5559 66.9316 85.6392 66.7051 85.6392 66.7051L86.4448 67.1015L86.417 67.1581ZM85.9726 64.5534L85.6114 65.2895L88.5281 66.7618L88.1392 67.5828L81.9448 64.4401L82.3337 63.619L84.7503 64.8365L85.1114 64.1004L85.9726 64.5251V64.5534Z" fill="white"/>
<path d="M95.0278 41.9598H91.4723C86.0556 41.9598 82.6945 43.517 78.6667 47.8772C73.5834 53.3699 69.5278 54.9271 63.8056 55.8331C58.6112 56.6542 54.3334 57.7018 52.0834 58.6644C51.1667 59.0608 50.6945 59.9951 50.9723 60.8728C51.1945 61.6089 51.9445 62.2884 53.1112 62.0619H53.2778C55.6945 61.524 58.3334 61.2126 61.139 61.1559C61.1945 61.1559 64.3334 61.0144 68.139 61.0427C90.6945 61.0993 96.639 44.0832 96.6667 43.9134L97.0001 41.9598H95.0556H95.0278Z" fill="white"/>
<path d="M91.4724 43.6302C86.4446 43.6302 83.5557 45.0175 79.8613 49.038C74.7502 54.559 70.4446 56.4842 64.0557 57.5035C58.9168 58.3246 54.8335 59.3155 52.7224 60.2216C52.4724 60.3348 52.4168 60.533 52.7779 60.4481C53.3613 60.3348 56.4168 59.627 61.0835 59.5137C61.0835 59.5137 64.2502 59.3722 68.1113 59.4005C89.1946 59.4571 95.0557 43.6019 95.0279 43.6585H91.4724V43.6302Z" fill="url(#paint0_linear_6_214)"/>
<path d="M64.0832 56.4276C55.5554 55.4083 50.4443 56.0595 50.4443 56.0595C43.2776 56.5974 37.4165 58.8058 31.1665 65.0913H35.7776C40.8887 65.0913 43.3332 64.4401 46.3054 62.4865C49.5832 60.3347 54.1665 57.9281 62.4721 56.8806C65.3609 56.5125 64.5276 56.4842 64.0832 56.4276Z" fill="url(#paint1_linear_6_214)"/>
<path d="M45.056 39.1284L41.1949 39.6664L40.8615 41.3651H39.6393L39.2227 43.5169H40.4449L39.5004 48.4717C39.4171 48.953 39.2782 49.6325 39.2782 50.1138C39.2782 51.5578 40.306 52.4072 42.056 52.4072C43.0838 52.4072 44.0004 52.1524 44.8615 51.9259L45.306 49.5759C44.9449 49.8307 44.556 50.0289 44.1671 50.0289C43.5838 50.0289 43.306 49.6325 43.306 48.9813C43.306 48.5566 43.3338 48.2735 43.4171 47.9337L44.2782 43.5169H46.0838L46.5004 41.3651H44.6949L45.1115 39.1284H45.056Z" fill="#00479D"/>
<path d="M30.5279 41.3652L27.1668 48.2169L26.8613 41.3652H23.7224L20.3891 48.2169L20.1391 41.3652H16.8335L17.2502 52.1524H19.6668C20.5835 52.0958 21.0279 51.6994 21.4168 50.935L23.9724 45.6405H24.0002L24.2779 52.1524H26.6946C27.6113 52.0958 28.0557 51.6994 28.4446 50.935L33.1391 41.3652H30.5002H30.5279Z" fill="#00479D"/>
<path d="M32.3057 52.1524H34.8057C35.7501 52.0958 36.1668 51.6145 36.3334 50.85L38.1946 41.3652H34.4168L32.3057 52.1524Z" fill="#00479D"/>
<path d="M34.6943 39.9212H36.9999C38.0554 39.9212 38.5554 39.4399 38.7221 38.6188L39.0832 36.8351H35.3054L34.6943 39.9495V39.9212Z" fill="#00479D"/>
<path d="M56.5002 41.1387C54.6391 41.1387 52.6669 43.3471 51.6391 45.1308L53.3613 36.8351H49.6113L46.6113 52.1807H49.1113C50.0558 52.1241 50.4724 51.6428 50.6391 50.8783L51.0558 48.8115C51.4169 48.047 53.7224 44.5645 54.4169 44.5645C54.5835 44.5645 54.6391 44.7627 54.6391 44.876C54.6391 45.0459 54.5558 45.2724 54.5558 45.4139L53.2502 52.1807H55.7502C56.6669 52.1241 57.1113 51.6428 57.278 50.8783L58.4447 44.9609C58.528 44.4513 58.6669 43.9417 58.6669 43.4037C58.6669 42.1579 57.8891 41.167 56.5558 41.167L56.5002 41.1387Z" fill="#00479D"/>
<path d="M71.25 42.8091L72.4167 36.8068H68.6667L67.5 42.8091H61.8889L61.25 46.0085H66.8611L65.6667 52.1524H68.1667C69.0833 52.0958 69.5278 51.6144 69.6944 50.85L70.6389 46.0085H76.3611L77 42.8091H71.25Z" fill="#00479D"/>
<path d="M6.19466 47.7073C5.75022 48.1603 5.75022 48.8681 6.19466 49.3211C6.63911 49.7741 7.33355 49.7741 7.77799 49.3211C8.22244 48.8681 8.22244 48.1603 7.77799 47.7073C7.33355 47.2543 6.63911 47.2543 6.19466 47.7073Z" fill="white"/>
<path d="M8.34475 113.332L7.87675 114.1C6.65275 113.704 5.72875 112.852 5.27275 111.784C4.81675 113.008 3.84475 113.968 2.56075 114.424L2.05675 113.644C3.67675 113.08 4.75675 111.688 4.75675 110.14V109.72H2.34475V108.928H8.11675V109.72H5.74075V110.14C5.74075 111.544 6.76075 112.804 8.34475 113.332ZM7.03675 118.096C8.62075 118.096 9.59275 117.652 9.59275 116.884C9.59275 116.128 8.62075 115.684 7.03675 115.684C5.42875 115.684 4.46875 116.128 4.46875 116.884C4.46875 117.652 5.42875 118.096 7.03675 118.096ZM7.03675 114.904C9.22075 114.904 10.5768 115.636 10.5768 116.884C10.5768 118.144 9.22075 118.876 7.03675 118.876C4.82875 118.876 3.48475 118.144 3.48475 116.884C3.48475 115.636 4.82875 114.904 7.03675 114.904ZM10.4568 110.848H12.0528V111.676H10.4568V114.628H9.47275V108.136H10.4568V110.848ZM15.5678 115.612C16.4198 115.612 16.9598 114.52 16.9598 112.768C16.9598 111.028 16.4198 109.936 15.5678 109.936C14.7278 109.936 14.1758 111.028 14.1758 112.768C14.1758 114.52 14.7278 115.612 15.5678 115.612ZM15.5678 109.024C16.9718 109.024 17.8718 110.464 17.8718 112.768C17.8718 115.084 16.9718 116.524 15.5678 116.524C14.1758 116.524 13.2758 115.084 13.2758 112.768C13.2758 110.464 14.1758 109.024 15.5678 109.024ZM21.3518 108.124H22.2878V118.888H21.3518V113.188H19.8998V118.36H18.9758V108.364H19.8998V112.384H21.3518V108.124ZM33.0149 108.136V115.996H32.0309V108.136H33.0149ZM25.3949 111.52C25.3949 112.588 26.1869 113.332 27.2309 113.332C28.2989 113.332 29.0909 112.588 29.0909 111.52C29.0909 110.476 28.2989 109.732 27.2309 109.732C26.1869 109.732 25.3949 110.476 25.3949 111.52ZM30.0509 111.52C30.0509 113.08 28.8389 114.184 27.2309 114.184C25.6349 114.184 24.4349 113.08 24.4349 111.52C24.4349 109.972 25.6349 108.88 27.2309 108.88C28.8389 108.88 30.0509 109.972 30.0509 111.52ZM27.0749 117.844H33.3389V118.648H26.0909V115.192H27.0749V117.844ZM42.2809 114.22V116.776H44.6209V114.22H42.2809ZM42.1129 109.912V113.428H44.7889V109.912H42.1129ZM45.6049 116.776H48.3529V117.58H38.5849V116.776H41.2969V114.22H39.4849V113.428H41.1289V109.912H39.4609V109.12H47.4409V109.912H45.7729V113.428H47.4289V114.22H45.6049V116.776ZM50.596 112.888L50.224 112.096C52.132 111.844 53.872 110.776 53.872 109.468V109.456H50.524V108.664H58.492V109.456H55.144V109.468C55.144 110.776 56.884 111.844 58.78 112.096L58.42 112.888C56.668 112.624 55.084 111.76 54.508 110.512C53.92 111.76 52.336 112.624 50.596 112.888ZM51.844 115.6V117.844H58.3V118.648H50.86V115.6H51.844ZM49.612 113.668H59.38V114.46H55.072V116.644H54.088V114.46H49.612V113.668ZM67.6621 109.06V110.992C67.6621 112.888 68.8861 114.844 70.3981 115.6L69.7861 116.38C68.6461 115.768 67.6741 114.508 67.1821 113.032C66.7141 114.604 65.7181 115.948 64.5061 116.596L63.9181 115.804C65.4661 115.012 66.6901 112.948 66.6901 110.992V109.06H67.6621ZM74.1061 112.492V113.308H72.3301V118.888H71.3461V108.136H72.3301V112.492H74.1061ZM82.9731 117.952V116.56H78.0411V117.952H82.9731ZM82.9731 115.792V114.424H83.9571V118.744H77.0691V114.424H78.0411V115.792H82.9731ZM78.0291 112.792C79.0971 112.792 79.8651 112.096 79.8651 111.112C79.8651 110.128 79.0971 109.444 78.0291 109.444C76.9611 109.444 76.1931 110.128 76.1931 111.112C76.1931 112.096 76.9611 112.792 78.0291 112.792ZM82.9611 108.136H83.9571V113.908H82.9611V111.496H80.7771C80.5851 112.768 79.5051 113.608 78.0291 113.608C76.4211 113.608 75.2571 112.6 75.2571 111.112C75.2571 109.636 76.4211 108.628 78.0291 108.628C79.4811 108.628 80.5611 109.444 80.7651 110.692H82.9611V108.136ZM92.3682 113.332L91.9002 114.1C90.6762 113.704 89.7522 112.852 89.2962 111.784C88.8402 113.008 87.8682 113.968 86.5842 114.424L86.0802 113.644C87.7002 113.08 88.7802 111.688 88.7802 110.14V109.72H86.3682V108.928H92.1402V109.72H89.7642V110.14C89.7642 111.544 90.7842 112.804 92.3682 113.332ZM91.0602 118.096C92.6442 118.096 93.6162 117.652 93.6162 116.884C93.6162 116.128 92.6442 115.684 91.0602 115.684C89.4522 115.684 88.4922 116.128 88.4922 116.884C88.4922 117.652 89.4522 118.096 91.0602 118.096ZM91.0602 114.904C93.2442 114.904 94.6002 115.636 94.6002 116.884C94.6002 118.144 93.2442 118.876 91.0602 118.876C88.8522 118.876 87.5082 118.144 87.5082 116.884C87.5082 115.636 88.8522 114.904 91.0602 114.904ZM94.4802 110.848H96.0762V111.676H94.4802V114.628H93.4962V108.136H94.4802V110.848Z" fill="#FD3941"/>
<path d="M14.3643 128.332L13.8963 129.1C12.6723 128.704 11.7483 127.852 11.2923 126.784C10.8363 128.008 9.86428 128.968 8.58028 129.424L8.07628 128.644C9.69628 128.08 10.7763 126.688 10.7763 125.14V124.72H8.36428V123.928H14.1363V124.72H11.7603V125.14C11.7603 126.544 12.7803 127.804 14.3643 128.332ZM13.0563 133.096C14.6403 133.096 15.6123 132.652 15.6123 131.884C15.6123 131.128 14.6403 130.684 13.0563 130.684C11.4483 130.684 10.4883 131.128 10.4883 131.884C10.4883 132.652 11.4483 133.096 13.0563 133.096ZM13.0563 129.904C15.2403 129.904 16.5963 130.636 16.5963 131.884C16.5963 133.144 15.2403 133.876 13.0563 133.876C10.8483 133.876 9.50428 133.144 9.50428 131.884C9.50428 130.636 10.8483 129.904 13.0563 129.904ZM16.4763 125.848H18.0723V126.676H16.4763V129.628H15.4923V123.136H16.4763V125.848ZM21.5873 130.612C22.4393 130.612 22.9793 129.52 22.9793 127.768C22.9793 126.028 22.4393 124.936 21.5873 124.936C20.7473 124.936 20.1953 126.028 20.1953 127.768C20.1953 129.52 20.7473 130.612 21.5873 130.612ZM21.5873 124.024C22.9913 124.024 23.8913 125.464 23.8913 127.768C23.8913 130.084 22.9913 131.524 21.5873 131.524C20.1953 131.524 19.2953 130.084 19.2953 127.768C19.2953 125.464 20.1953 124.024 21.5873 124.024ZM27.3713 123.124H28.3073V133.888H27.3713V128.188H25.9193V133.36H24.9953V123.364H25.9193V127.384H27.3713V123.124ZM39.0344 123.136V130.996H38.0504V123.136H39.0344ZM31.4144 126.52C31.4144 127.588 32.2064 128.332 33.2504 128.332C34.3184 128.332 35.1104 127.588 35.1104 126.52C35.1104 125.476 34.3184 124.732 33.2504 124.732C32.2064 124.732 31.4144 125.476 31.4144 126.52ZM36.0704 126.52C36.0704 128.08 34.8584 129.184 33.2504 129.184C31.6544 129.184 30.4544 128.08 30.4544 126.52C30.4544 124.972 31.6544 123.88 33.2504 123.88C34.8584 123.88 36.0704 124.972 36.0704 126.52ZM33.0944 132.844H39.3584V133.648H32.1104V130.192H33.0944V132.844ZM45.7205 126.508C45.7205 127.576 46.5005 128.344 47.5565 128.344C48.6005 128.344 49.3805 127.576 49.3805 126.508C49.3805 125.44 48.6005 124.672 47.5565 124.672C46.5005 124.672 45.7205 125.44 45.7205 126.508ZM52.4885 125.608H50.1725C50.2685 125.884 50.3165 126.184 50.3165 126.508C50.3165 126.82 50.2685 127.12 50.1725 127.396H52.4885V125.608ZM52.4885 128.188H49.7645C49.2605 128.824 48.4805 129.208 47.5565 129.208C45.9725 129.208 44.7845 128.08 44.7845 126.508C44.7845 124.936 45.9725 123.808 47.5565 123.808C48.4805 123.808 49.2485 124.192 49.7525 124.816H52.4885V123.136H53.4845V131.08H52.4885V128.188ZM47.5925 132.844H53.7845V133.648H46.5965V130.264H47.5925V132.844ZM61.7035 126.124V123.412H62.6395V133.336H61.7035V129.616H59.7595V128.812H61.7035V126.916H59.9275C59.4235 128.728 58.2595 130.348 56.2195 131.56L55.6435 130.864C57.9595 129.484 59.1115 127.552 59.2795 125.296H56.1235V124.492H60.2515C60.2515 125.044 60.2035 125.584 60.1075 126.124H61.7035ZM63.8635 123.124H64.7995V133.876H63.8635V123.124ZM77.6656 125.272V125.008H71.1016V124.204H78.6496V125.272C78.6496 126.604 78.6496 128.08 78.2416 130.252L77.2576 130.144C77.6656 128.08 77.6656 126.568 77.6656 125.272ZM74.8456 131.572H79.8136V132.376H70.0816V131.572H73.8616V127.72H74.8456V131.572ZM85.9687 133.12C87.6487 133.12 88.6567 132.7 88.6567 131.968C88.6567 131.236 87.6487 130.816 85.9687 130.816C84.2767 130.816 83.2807 131.236 83.2807 131.968C83.2807 132.7 84.2767 133.12 85.9687 133.12ZM85.9687 130.048C88.2847 130.048 89.6527 130.732 89.6527 131.968C89.6527 133.204 88.2847 133.876 85.9687 133.876C83.6647 133.876 82.2847 133.204 82.2847 131.968C82.2847 130.732 83.6647 130.048 85.9687 130.048ZM84.4807 127.192V128.452H87.4687V127.192C87.0247 127.264 86.5207 127.312 85.9687 127.312C85.4287 127.312 84.9247 127.264 84.4807 127.192ZM83.1967 125.32C83.1967 126.088 84.2527 126.556 85.9687 126.556C87.6847 126.556 88.7407 126.088 88.7407 125.32C88.7407 124.54 87.6847 124.084 85.9687 124.084C84.2527 124.084 83.1967 124.54 83.1967 125.32ZM88.4407 128.452H90.8407V129.244H81.0967V128.452H83.5087V126.94C82.6567 126.592 82.1887 126.052 82.1887 125.32C82.1887 124.06 83.6407 123.316 85.9687 123.316C88.3087 123.316 89.7487 124.06 89.7487 125.32C89.7487 126.04 89.2687 126.592 88.4407 126.928V128.452Z" fill="black"/>
<defs>
<linearGradient id="paint0_linear_6_214" x1="72.1513" y1="46.6806" x2="112.738" y2="32.2028" gradientUnits="userSpaceOnUse">
<stop stop-color="#00479D"/>
<stop offset="0.5" stop-color="#0075C2"/>
<stop offset="1" stop-color="#0097E0"/>
</linearGradient>
<linearGradient id="paint1_linear_6_214" x1="59.4615" y1="50.0974" x2="73.9631" y2="40.9274" gradientUnits="userSpaceOnUse">
<stop stop-color="#FABE00"/>
<stop offset="1" stop-color="#F39800"/>
</linearGradient>
</defs>
</svg>
