<svg width="118" height="48" viewBox="0 0 118 48" fill="none" xmlns="http://www.w3.org/2000/svg">
<rect width="118" height="48" rx="10" fill="#EBEBEB"/>
<path d="M20.7053 25.0612H10.1594C9.57331 25.0612 9.09814 24.5861 9.09814 24C9.09814 23.4139 9.57331 22.9388 10.1594 22.9388H20.7053C21.2913 22.9388 21.7665 23.4139 21.7665 24C21.7665 24.5861 21.2913 25.0612 20.7053 25.0612Z" fill="black"/>
<path d="M20.7053 19.7551H10.1594C9.57331 19.7551 9.09814 19.2799 9.09814 18.6939C9.09814 18.1078 9.57331 17.6326 10.1594 17.6326H20.7053C21.2913 17.6326 21.7665 18.1078 21.7665 18.6939C21.7665 19.2799 21.2913 19.7551 20.7053 19.7551Z" fill="black"/>
<path d="M15.764 30.3674H10.1594C9.57331 30.3674 9.09814 29.8922 9.09814 29.3062C9.09814 28.7201 9.57331 28.2449 10.1594 28.2449H15.764C16.35 28.2449 16.8252 28.7201 16.8252 29.3062C16.8252 29.8922 16.35 30.3674 15.764 30.3674Z" fill="black"/>
<path d="M17.1901 37H8.71429C6.66594 37 5 35.3341 5 33.2857V14.7143C5 12.6659 6.66594 11 8.71429 11H22.1511C24.1995 11 25.8654 12.6659 25.8654 14.7143V28.3247C25.8654 28.6061 25.7535 28.876 25.5545 29.075L17.9409 36.6891C17.7419 36.8881 17.472 37 17.1906 37H17.1901ZM8.71429 13.1224C7.8365 13.1224 7.12245 13.8365 7.12245 14.7143V33.2857C7.12245 34.1635 7.8365 34.8775 8.71429 34.8775H16.7507L23.7429 27.8853V14.7143C23.7429 13.8365 23.0289 13.1224 22.1511 13.1224H8.71429Z" fill="black"/>
<path d="M39.7932 12.5147C39.552 12.8145 39.2489 13.0622 38.8839 13.2578C38.5188 13.4533 38.1049 13.5804 37.6421 13.6391V13.0133C38.0723 12.9481 38.4439 12.7982 38.7568 12.5636C39.0762 12.3224 39.3173 12.0421 39.4803 11.7227C39.6498 11.4033 39.7378 11.0839 39.7443 10.7644L40.4385 10.8036C40.4385 11.2142 40.344 11.6053 40.155 11.9769L42.2474 13.0036L41.9834 13.5707L39.7932 12.5147ZM44.0465 15.2036H43.3523V10.8231H44.0465V15.2036ZM37.4172 14.8027V14.2062H40.2625C41.4554 14.2062 42.2702 14.1084 42.707 13.9129V14.4996C42.2768 14.7016 41.4554 14.8027 40.243 14.8027H40.1941V15.6533H39.4999V14.8027H37.4172ZM44.0465 15.4871V18.2151H38.0821V15.4871H38.7861V16.2498H43.3621V15.4871H44.0465ZM43.3621 16.8267H38.7861V17.6382H43.3621V16.8267ZM45.6002 11.8009V11.1067H51.7699V16.064H51.0464V11.8009H45.6002ZM52.2686 17.9511H45.1504V17.2569H47.8784V13.8151H48.6019V17.2569H52.2686V17.9511ZM61.4172 14.6364V18.3324H60.7914V10.8231H61.4172V13.9324H62.2874V14.6364H61.4172ZM57.291 11.0578V17.8631H55.0323V11.0578H55.6385V13.7564H56.7336V11.0578H57.291ZM59.9994 11.0578V17.8631H57.7505V11.0578H58.3078V13.7564H59.403V11.0578H59.9994ZM56.7336 14.4018H55.6385V17.2178H56.7336V14.4018ZM59.403 14.4018H58.3078V17.2178H59.403V14.4018ZM63.8019 12.9156V13.8151H69.2677V14.3822H63.1175V12.3876H68.4757V11.4978H63.1077V10.9307H69.1601V12.9156H63.8019ZM62.5699 15.7413V15.1351H69.6881V15.7413H62.5699ZM69.3068 17.5991V18.2249H63.0881V16.3769H63.8019V17.5991H69.3068ZM79.7069 13.0133H78.6705V14.9787H77.9665V10.8231H78.6705V12.3191H79.7069V13.0133ZM74.6518 13.1111C74.3976 13.5739 74.0684 13.952 73.6643 14.2453C73.2601 14.5321 72.7973 14.7179 72.2758 14.8027V14.128C72.7321 14.0367 73.1265 13.8379 73.4589 13.5316C73.7914 13.2252 74.0456 12.8439 74.2216 12.3876C74.3976 11.9313 74.4856 11.4359 74.4856 10.9013L75.1994 10.9404C75.1994 11.5076 75.1114 12.0323 74.9354 12.5147L77.2038 14.0791L76.842 14.6267L74.6518 13.1111ZM75.7567 15.2524C76.6628 15.2524 77.3929 15.3796 77.9469 15.6338C78.501 15.8815 78.778 16.2661 78.778 16.7876C78.778 17.309 78.501 17.6936 77.9469 17.9413C77.3929 18.189 76.6628 18.3129 75.7567 18.3129C74.8506 18.3129 74.1206 18.189 73.5665 17.9413C73.0124 17.6936 72.7354 17.309 72.7354 16.7876C72.7354 16.2661 73.0124 15.8815 73.5665 15.6338C74.1206 15.3796 74.8506 15.2524 75.7567 15.2524ZM75.7567 17.6969C76.4281 17.6969 76.9757 17.6187 77.3994 17.4622C77.8231 17.3058 78.0349 17.0809 78.0349 16.7876C78.0349 16.4877 77.8231 16.2596 77.3994 16.1031C76.9757 15.9467 76.4281 15.8684 75.7567 15.8684C75.0853 15.8684 74.5377 15.9467 74.114 16.1031C73.6903 16.2596 73.4785 16.4877 73.4785 16.7876C73.4785 17.0809 73.6903 17.3058 74.114 17.4622C74.5377 17.6187 75.0853 17.6969 75.7567 17.6969ZM86.4134 13.1307V14.9102H85.7094V10.8231H86.4134V12.4169H87.4499V13.1307H86.4134ZM85.1423 14.1671C84.9142 14.2779 84.5883 14.3627 84.1646 14.4213C83.7409 14.48 83.2617 14.5093 82.7272 14.5093H80.2632V11.0284H84.6143V11.664H80.9672V13.8738H82.7663C83.2878 13.8738 83.7539 13.8444 84.1646 13.7858C84.5817 13.7271 84.9077 13.6424 85.1423 13.5316V14.1671ZM86.4134 15.3502V18.2151H80.4979V15.3502H86.4134ZM85.7094 17.5796V15.9858H81.2117V17.5796H85.7094ZM93.648 16.4062V10.8231H94.3618V16.4062H93.648ZM90.2258 13.4142C89.9585 13.9096 89.6228 14.3203 89.2186 14.6462C88.8145 14.9656 88.3582 15.1644 87.8498 15.2427V14.5484C88.306 14.4572 88.7037 14.2356 89.0426 13.8836C89.3881 13.5316 89.6521 13.0948 89.8346 12.5733C90.0172 12.0519 90.1084 11.4945 90.1084 10.9013L90.8124 10.9404C90.8124 11.6119 90.7114 12.2279 90.5093 12.7884L92.8462 14.6267L92.416 15.1742L90.2258 13.4142ZM94.5671 18.2151H88.368V15.8782H89.0818V17.5404H94.5671V18.2151ZM97.8905 13.5511C97.6558 13.9748 97.3429 14.3236 96.9518 14.5973C96.5607 14.8711 96.1175 15.0406 95.6221 15.1058V14.4604C96.1826 14.3561 96.6389 14.1019 96.9909 13.6978C97.3495 13.2871 97.5646 12.7819 97.6363 12.1822H95.7003V11.5564H97.6558V10.6862H98.3696V11.5564H100.286V12.1822H98.3598C98.3272 12.5081 98.2718 12.7721 98.1936 12.9742L100.403 14.4898L100.061 15.0471L97.8905 13.5511ZM101.45 10.8231H102.154V15.3013H101.45V13.3849H100.002V12.7298H101.45V10.8231ZM99.1714 15.5653C100.097 15.5653 100.84 15.6761 101.401 15.8978C101.961 16.1129 102.242 16.4616 102.242 16.944C102.242 17.4199 101.961 17.7686 101.401 17.9902C100.847 18.2053 100.104 18.3129 99.1714 18.3129C98.2458 18.3129 97.5026 18.2053 96.9421 17.9902C96.388 17.7686 96.1109 17.4199 96.1109 16.944C96.1109 16.4616 96.388 16.1129 96.9421 15.8978C97.5026 15.6761 98.2458 15.5653 99.1714 15.5653ZM99.1714 17.7164C99.8689 17.7164 100.429 17.6545 100.853 17.5307C101.283 17.4003 101.498 17.2047 101.498 16.944C101.498 16.6767 101.283 16.4812 100.853 16.3573C100.429 16.2335 99.8689 16.1716 99.1714 16.1716C98.4804 16.1716 97.9198 16.2367 97.4896 16.3671C97.0659 16.491 96.8541 16.6833 96.8541 16.944C96.8541 17.2047 97.0692 17.4003 97.4994 17.5307C97.9296 17.6545 98.4869 17.7164 99.1714 17.7164Z" fill="black"/>
<path d="M42.4523 27.2844H40.9234V32.0667H38.3634V21.9511H40.9234V24.6711H42.4523V27.2844ZM36.7101 24.2978C36.7101 25.5778 36.3782 26.6563 35.7145 27.5333C35.0508 28.4104 34.1382 29.0681 32.9767 29.5067C31.8153 29.9333 30.4819 30.1467 28.9767 30.1467V27.7644C29.9841 27.7644 30.873 27.64 31.6434 27.3911C32.4138 27.1422 33.0123 26.7926 33.439 26.3422C33.8656 25.88 34.079 25.3467 34.079 24.7422V24.44H28.9767V22.1111H36.7101V24.2978ZM41.119 33.1867V35.6044H29.4567V30.8756H32.0701V33.1867H41.119ZM51.7304 28.8133V26.5733H52.9038V25.5422H51.7304V23.3022H52.9038V21.9511H55.4282V32.0844H52.9038V28.8133H51.7304ZM51.3749 29.9333C51.0312 30.04 50.5749 30.1289 50.006 30.2C49.4371 30.2593 48.8445 30.2889 48.2282 30.2889H42.9126V28.0667H43.9793V24.3333H43.0015V22.1111H51.1793V24.3333H50.1838V27.9956C50.6934 27.9363 51.0904 27.8593 51.3749 27.7644V29.9333ZM47.7482 28.0667V24.3333H46.4149V28.0667H47.0371H47.7482ZM55.606 35.6044H43.8193V31.1067H46.4326V33.2044H55.606V35.6044ZM70.6085 26.6267H69.0797V29.4711H66.5197V21.9511H69.0797V24.0489H70.6085V26.6267ZM61.4885 26.7867C60.9315 27.557 60.2559 28.1733 59.4619 28.6356C58.6797 29.0978 57.8204 29.3526 56.8841 29.4V26.9822C57.5597 26.8993 58.1522 26.6385 58.6619 26.2C59.1834 25.7496 59.5863 25.163 59.8708 24.44C60.1671 23.717 60.3211 22.9052 60.333 22.0044L62.9108 22.1644C62.9108 23.0889 62.7804 23.9481 62.5197 24.7422L66.0397 27.1067L64.7419 29.0444L61.4885 26.7867ZM63.3552 29.6667C65.133 29.6667 66.5493 29.9096 67.6041 30.3956C68.6708 30.8696 69.2041 31.64 69.2041 32.7067C69.2041 33.7733 68.6708 34.5496 67.6041 35.0356C66.5493 35.5215 65.133 35.7644 63.3552 35.7644C61.5774 35.7644 60.1552 35.5215 59.0885 35.0356C58.0337 34.5496 57.5063 33.7733 57.5063 32.7067C57.5063 31.64 58.0337 30.8696 59.0885 30.3956C60.1552 29.9096 61.5774 29.6667 63.3552 29.6667ZM63.3552 33.6133C64.2797 33.6133 65.0204 33.5422 65.5774 33.4C66.1463 33.2459 66.4308 33.0148 66.4308 32.7067C66.4308 32.3985 66.1463 32.1733 65.5774 32.0311C65.0204 31.8889 64.2797 31.8178 63.3552 31.8178C62.4308 31.8178 61.6841 31.8889 61.1152 32.0311C60.5463 32.1733 60.2619 32.3985 60.2619 32.7067C60.2619 33.0148 60.5463 33.2459 61.1152 33.4C61.6841 33.5422 62.4308 33.6133 63.3552 33.6133ZM83.1578 26.84V29.3467H80.5978V21.9511H83.1578V24.2267H84.6867V26.84H83.1578ZM79.9933 28.44C79.6615 28.5941 79.2111 28.7126 78.6422 28.7956C78.0852 28.8785 77.4985 28.92 76.8822 28.92H71.2467V22.1111H79.2467V24.3333H73.8244V26.6978H76.9889C77.5815 26.6978 78.1444 26.6622 78.6778 26.5911C79.2111 26.5081 79.6496 26.3956 79.9933 26.2533V28.44ZM83.1578 29.8267V35.6044H71.6911V29.8267H83.1578ZM80.5978 33.3822V32.0489H74.2689V33.3822H80.5978ZM95.0315 32.0667V21.9511H97.6092V32.0667H95.0315ZM89.7337 27.4267C89.1766 28.2444 88.507 28.9022 87.7248 29.4C86.9426 29.8859 86.107 30.1526 85.2181 30.2V27.6933C85.8937 27.6104 86.4922 27.3081 87.0137 26.7867C87.547 26.2652 87.9618 25.5896 88.2581 24.76C88.5663 23.9185 88.7263 23 88.7381 22.0044L91.3337 22.1644C91.3337 23.2311 91.1559 24.28 90.8003 25.3111L94.5515 28.0844L93.0581 30.0044L89.7337 27.4267ZM97.787 35.6044H86.0003V30.8222H88.6137V33.1867H97.787V35.6044ZM103.598 27.8533C103.065 28.4815 102.437 28.9852 101.714 29.3644C100.991 29.7437 100.209 29.9452 99.3674 29.9689V27.6933C100.102 27.6341 100.724 27.3674 101.234 26.8933C101.756 26.4074 102.111 25.8267 102.301 25.1511H99.5096V22.9644H102.372V21.7022H104.985V22.9644H107.847V25.1511H104.932C104.896 25.2815 104.861 25.4119 104.825 25.5422C104.801 25.6607 104.766 25.7793 104.718 25.8978L108.203 27.8889L107.065 29.8622L103.598 27.8533ZM109.181 21.9511H111.741V30.0578H109.181V26.9467H107.474V24.5467H109.181V21.9511ZM105.927 30.2356C107.741 30.2356 109.181 30.4548 110.247 30.8933C111.326 31.32 111.865 32.0252 111.865 33.0089C111.865 34.8459 109.886 35.7644 105.927 35.7644C101.981 35.7644 100.007 34.8459 100.007 33.0089C100.007 32.0252 100.541 31.32 101.607 30.8933C102.674 30.4548 104.114 30.2356 105.927 30.2356ZM105.927 33.7022C106.923 33.7022 107.699 33.6548 108.256 33.56C108.825 33.4533 109.11 33.2696 109.11 33.0089C109.11 32.5348 108.049 32.2978 105.927 32.2978C103.818 32.2978 102.763 32.5348 102.763 33.0089C102.763 33.2696 103.041 33.4533 103.598 33.56C104.167 33.6548 104.944 33.7022 105.927 33.7022Z" fill="black"/>
</svg>
