<svg width="118" height="48" viewBox="0 0 118 48" fill="none" xmlns="http://www.w3.org/2000/svg">
<rect width="118" height="48" rx="10" fill="#FAE100"/>
<path d="M27.5 10C18.9393 10 12 15.4847 12 22.2542C12 26.659 14.9384 30.5194 19.352 32.6793C19.0271 33.888 18.1783 37.0635 18.0086 37.7425C17.7979 38.5854 18.3159 38.5737 18.6583 38.3484C18.9247 38.1698 22.905 35.4626 24.623 34.2948C25.5566 34.4324 26.5166 34.5056 27.5 34.5056C36.0607 34.5056 43 29.0209 43 22.2542C43 15.4876 36.0607 10 27.5 10ZM37.1114 25.8483L35.0071 22.9801L34.5271 23.3664C34.5271 23.3664 34.5271 24.783 34.5271 25.5322C34.5271 26.1761 32.8881 26.1761 32.8881 25.5322C32.8881 25.1254 32.9232 19.6231 32.9086 19.0144C32.8998 18.6778 33.3301 18.5051 33.7515 18.5051C34.1437 18.5051 34.53 18.6573 34.5388 18.9704C34.5622 19.7958 34.5388 21.2884 34.5388 21.2884C34.5388 21.2884 36.9124 18.9119 37.2519 18.5753C37.6002 18.2271 38.6801 19.3158 38.3319 19.6612C37.7348 20.2553 36.2187 21.8943 36.2187 21.8943L38.4518 24.8356C38.8762 25.3976 37.5387 26.4102 37.1143 25.8483H37.1114ZM25.2728 18.9792C25.5566 19.5821 27.1049 23.8435 27.5556 25.0259C27.8688 25.8541 26.3556 26.4278 26.0396 25.5995C25.6532 24.5752 25.7527 24.5313 25.7527 24.5313H22.8348L22.5158 25.6463C22.1763 26.4278 20.707 25.7897 21.0495 25.0083C21.5207 23.9254 22.9372 19.8426 23.3294 18.9792C23.4845 18.6368 23.8504 18.4992 24.225 18.4992C24.6786 18.4992 25.144 18.6983 25.2757 18.9792H25.2728ZM21.5353 18.4992C22.5275 18.4992 22.5275 20.0592 21.5353 20.0592C20.4817 20.0592 19.949 20.0563 19.949 20.0563L19.9432 25.4122C19.9432 26.1556 18.2866 26.1468 18.2866 25.4005C18.2954 24.3791 18.2866 19.9977 18.2866 19.9977H16.6916C15.755 19.9977 15.7521 18.47 16.6916 18.4671C16.6916 18.4671 20.4261 18.4992 21.5441 18.4992H21.5353ZM28.1205 25.0932C28.1205 25.0932 28.1146 20.6211 28.1117 19.2339C28.1117 18.7451 28.5419 18.5022 28.9751 18.5022C29.4082 18.5022 29.8355 18.7451 29.8385 19.2309C29.8385 20.2348 29.8355 24.3732 29.8355 24.3732C29.8355 24.3732 31.2023 24.382 31.9545 24.382C32.7067 24.382 32.7067 25.9771 31.9574 25.9771C31.2082 25.9771 29.5165 25.9858 28.7556 25.9858C27.9946 25.9858 28.1205 25.0961 28.1205 25.0961V25.0932Z" fill="#371D1E"/>
<path d="M25.2086 23.062L24.3218 20.2816L23.3589 23.062H25.2086Z" fill="#371D1E"/>
<path d="M16.6857 19.9977H18.2808C18.2808 19.9977 18.2895 24.3791 18.2808 25.4005C18.2808 26.1468 19.9402 26.1556 19.9373 25.4122L19.9431 20.0563C19.9431 20.0563 20.4787 20.0592 21.5294 20.0592C22.5216 20.0592 22.5216 18.4992 21.5294 18.4992C20.4114 18.4992 16.6769 18.467 16.6769 18.467C15.7403 18.467 15.7433 19.9977 16.6769 19.9977H16.6857Z" fill="#FAE100"/>
<path d="M23.3267 18.9793C22.9345 19.8426 21.515 23.9254 21.0467 25.0083C20.7072 25.7898 22.1735 26.4307 22.513 25.6464L22.832 24.5313H25.75C25.75 24.5313 25.6505 24.5781 26.0368 25.5995C26.35 26.4278 27.866 25.8542 27.5529 25.0259C27.1051 23.8435 25.5539 19.5822 25.27 18.9793C25.1383 18.7012 24.673 18.4993 24.2193 18.4993C23.8447 18.4993 23.4789 18.6368 23.3237 18.9793H23.3267ZM24.3218 20.2817L25.2086 23.0621H23.3589L24.3218 20.2817Z" fill="#FAE100"/>
<path d="M31.9546 24.3791C31.2054 24.3791 29.8357 24.3703 29.8357 24.3703C29.8357 24.3703 29.8415 20.2348 29.8386 19.228C29.8386 18.7422 29.4054 18.4993 28.9752 18.4993C28.545 18.4993 28.1089 18.7451 28.1118 19.231C28.1118 20.6182 28.1206 25.0903 28.1206 25.0903C28.1206 25.0903 27.9918 25.98 28.7557 25.98C29.5196 25.98 31.2083 25.9712 31.9576 25.9712C32.7068 25.9712 32.7039 24.3762 31.9546 24.3762V24.3791Z" fill="#FAE100"/>
<path d="M36.2159 21.8943C36.2159 21.8943 37.7319 20.2553 38.329 19.6612C38.6773 19.3158 37.5973 18.2271 37.249 18.5754C36.9124 18.909 34.5359 21.2885 34.5359 21.2885C34.5359 21.2885 34.5564 19.7958 34.5359 18.9705C34.5272 18.6573 34.1438 18.5051 33.7486 18.5051C33.3272 18.5051 32.897 18.6778 32.9057 19.0144C32.9233 19.6231 32.8853 25.1254 32.8853 25.5322C32.8853 26.1761 34.5242 26.1732 34.5242 25.5322C34.5242 24.7859 34.5242 23.3664 34.5242 23.3664L35.0042 22.9801L37.1085 25.8483C37.5329 26.4102 38.8704 25.3947 38.4461 24.8357L36.213 21.8943H36.2159Z" fill="#FAE100"/>
<path d="M56.1697 14.6364V18.3324H55.4657V10.8231H56.1697V13.9324H57.2061V14.6364H56.1697ZM53.9501 11.1164V13.1893C53.9501 14.1476 53.7839 14.9787 53.4515 15.6827C53.119 16.3801 52.6562 16.9147 52.063 17.2862C51.4698 17.6578 50.7887 17.8436 50.0195 17.8436V17.1493C50.8147 17.1428 51.4796 16.9179 52.0141 16.4747C52.5487 16.0249 52.9104 15.3828 53.0995 14.5484H50.0195V13.8738H53.207C53.2331 13.6913 53.2461 13.4761 53.2461 13.2284V11.7911H50.0195V11.1164H53.9501ZM63.9127 14.6364V18.3324H63.2087V10.8231H63.9127V13.9324H64.9491V14.6364H63.9127ZM61.6931 11.1164V13.1893C61.6931 14.1476 61.5269 14.9787 61.1944 15.6827C60.862 16.3801 60.3992 16.9147 59.806 17.2862C59.2128 17.6578 58.5316 17.8436 57.7624 17.8436V17.1493C58.5577 17.1428 59.2226 16.9179 59.7571 16.4747C60.2916 16.0249 60.6534 15.3828 60.8424 14.5484H57.7624V13.8738H60.95C60.9761 13.6913 60.9891 13.4761 60.9891 13.2284V11.7911H57.7624V11.1164H61.6931ZM72.3499 17.9511H65.2316V17.2569H68.429V15.536C67.8619 15.5034 67.3632 15.3893 66.933 15.1938C66.5093 14.9917 66.1801 14.7277 65.9454 14.4018C65.7173 14.0693 65.6032 13.6913 65.6032 13.2676C65.6032 12.8113 65.7336 12.4104 65.9943 12.0649C66.2616 11.7194 66.6331 11.4521 67.109 11.2631C67.5913 11.0741 68.1519 10.9796 68.7907 10.9796C69.4296 10.9796 69.9869 11.0741 70.4627 11.2631C70.9451 11.4521 71.3167 11.7194 71.5774 12.0649C71.8447 12.4104 71.9783 12.8113 71.9783 13.2676C71.9783 13.6913 71.861 14.0693 71.6263 14.4018C71.3982 14.7277 71.069 14.9917 70.6388 15.1938C70.2085 15.3893 69.7099 15.5034 69.1428 15.536V17.2569H72.3499V17.9511ZM66.3365 13.2676C66.3365 13.587 66.4376 13.8673 66.6396 14.1084C66.8417 14.3496 67.1285 14.5387 67.5001 14.6756C67.8716 14.8059 68.3019 14.8711 68.7907 14.8711C69.2796 14.8711 69.7099 14.8059 70.0814 14.6756C70.453 14.5387 70.7398 14.3496 70.9419 14.1084C71.1439 13.8673 71.245 13.587 71.245 13.2676C71.245 12.9481 71.1439 12.6679 70.9419 12.4267C70.7398 12.179 70.453 11.9899 70.0814 11.8596C69.7099 11.7227 69.2796 11.6542 68.7907 11.6542C68.3019 11.6542 67.8716 11.7227 67.5001 11.8596C67.1285 11.9899 66.8417 12.179 66.6396 12.4267C66.4376 12.6679 66.3365 12.9481 66.3365 13.2676ZM80.0928 15.5947H72.9746V14.9884H76.1817V14.1671H73.5222V10.9307H79.6137V11.4782H74.2164V12.2996H79.4866V12.7982H74.2164V13.6293H79.6724V14.1671H76.8857V14.9884H80.0928V15.5947ZM79.5746 16.3476V18.3227H78.8706V16.9538H73.4244V16.3476H79.5746ZM88.5667 14.5191V10.8231H89.2805V14.5191H88.5667ZM85.1543 12.9156C84.8935 13.3067 84.5578 13.6326 84.1472 13.8933C83.7365 14.1476 83.277 14.317 82.7685 14.4018V13.7369C83.2248 13.6456 83.6224 13.4631 83.9614 13.1893C84.3069 12.9156 84.5709 12.5799 84.7534 12.1822C84.9359 11.7846 85.0304 11.3576 85.037 10.9013L85.7312 10.9404C85.7312 11.4424 85.6432 11.915 85.4672 12.3582L87.7943 13.7173L87.4423 14.2844L85.1543 12.9156ZM89.4761 18.2151H83.2867V16.328H88.5667V15.5262H83.277V14.9591H89.2805V16.8462H84.0005V17.648H89.4761V18.2151ZM97.0235 18.3324H96.3097V10.8231H97.0235V18.3324ZM93.5426 11.0382C93.5295 12.2246 93.4285 13.2643 93.2395 14.1573L95.5959 17.4133L95.0288 17.8436L93.0146 15.0178C92.7604 15.8717 92.4214 16.5464 91.9977 17.0418C91.5805 17.5307 91.0949 17.8044 90.5408 17.8631V17.1298C91.0232 17.045 91.4338 16.7224 91.7728 16.1618C92.1118 15.5947 92.3692 14.8646 92.5452 13.9716C92.7212 13.0785 92.8125 12.0942 92.819 11.0187L93.5426 11.0382ZM105.598 13.3751H104.561V16.4062H103.857V10.8231H104.561V12.6711H105.598V13.3751ZM102.42 12.0062C102.42 13.0427 102.051 13.8347 101.315 14.3822C100.585 14.9298 99.594 15.2036 98.3424 15.2036V14.5289C99.3919 14.5289 100.217 14.317 100.816 13.8933C101.416 13.4696 101.716 12.8667 101.716 12.0844V11.6836H98.3424V11.0284H102.42V12.0062ZM104.776 17.5404V18.2151H98.6456V15.9076H99.3593V17.5404H104.776Z" fill="#371D1E"/>
<path d="M55.5063 35H52.6263V24.8667H50.1374V22.5556H55.5063V35ZM61.1648 27.3022C60.6789 27.3022 60.27 27.1363 59.9382 26.8044C59.6063 26.4726 59.4404 26.0578 59.4404 25.56C59.4404 25.0504 59.6063 24.6415 59.9382 24.3333C60.27 24.0133 60.6789 23.8533 61.1648 23.8533C61.6508 23.8533 62.0596 24.0133 62.3915 24.3333C62.7233 24.6415 62.8893 25.0504 62.8893 25.56C62.8893 26.0578 62.7233 26.4726 62.3915 26.8044C62.0596 27.1363 61.6508 27.3022 61.1648 27.3022ZM61.1648 33.6844C60.6789 33.6844 60.27 33.5185 59.9382 33.1867C59.6063 32.8548 59.4404 32.44 59.4404 31.9422C59.4404 31.4326 59.6063 31.0237 59.9382 30.7156C60.27 30.3956 60.6789 30.2356 61.1648 30.2356C61.6508 30.2356 62.0596 30.3956 62.3915 30.7156C62.7233 31.0237 62.8893 31.4326 62.8893 31.9422C62.8893 32.44 62.7233 32.8548 62.3915 33.1867C62.0596 33.5185 61.6508 33.6844 61.1648 33.6844ZM70.8344 35H67.9544V24.8667H65.4655V22.5556H70.8344V35ZM91.8664 26.6267H90.3375V29.4711H87.7775V21.9511H90.3375V24.0489H91.8664V26.6267ZM82.7464 26.7867C82.1893 27.557 81.5138 28.1733 80.7197 28.6356C79.9375 29.0978 79.0782 29.3526 78.1419 29.4V26.9822C78.8175 26.8993 79.4101 26.6385 79.9197 26.2C80.4412 25.7496 80.8441 25.163 81.1286 24.44C81.4249 23.717 81.5789 22.9052 81.5908 22.0044L84.1686 22.1644C84.1686 23.0889 84.0382 23.9481 83.7775 24.7422L87.2975 27.1067L85.9997 29.0444L82.7464 26.7867ZM84.613 29.6667C86.3908 29.6667 87.8071 29.9096 88.8619 30.3956C89.9286 30.8696 90.4619 31.64 90.4619 32.7067C90.4619 33.7733 89.9286 34.5496 88.8619 35.0356C87.8071 35.5215 86.3908 35.7644 84.613 35.7644C82.8352 35.7644 81.413 35.5215 80.3464 35.0356C79.2915 34.5496 78.7641 33.7733 78.7641 32.7067C78.7641 31.64 79.2915 30.8696 80.3464 30.3956C81.413 29.9096 82.8352 29.6667 84.613 29.6667ZM84.613 33.6133C85.5375 33.6133 86.2782 33.5422 86.8352 33.4C87.4041 33.2459 87.6886 33.0148 87.6886 32.7067C87.6886 32.3985 87.4041 32.1733 86.8352 32.0311C86.2782 31.8889 85.5375 31.8178 84.613 31.8178C83.6886 31.8178 82.9419 31.8889 82.373 32.0311C81.8041 32.1733 81.5197 32.3985 81.5197 32.7067C81.5197 33.0148 81.8041 33.2459 82.373 33.4C82.9419 33.5422 83.6886 33.6133 84.613 33.6133ZM104.416 26.84V29.3467H101.856V21.9511H104.416V24.2267H105.944V26.84H104.416ZM101.251 28.44C100.919 28.5941 100.469 28.7126 99.9 28.7956C99.343 28.8785 98.7563 28.92 98.14 28.92H92.5045V22.1111H100.504V24.3333H95.0823V26.6978H98.2467C98.8393 26.6978 99.4023 26.6622 99.9356 26.5911C100.469 26.5081 100.907 26.3956 101.251 26.2533V28.44ZM104.416 29.8267V35.6044H92.9489V29.8267H104.416ZM101.856 33.3822V32.0489H95.5267V33.3822H101.856Z" fill="#371D1E"/>
</svg>
