<svg width="118" height="113" viewBox="0 0 118 113" fill="none" xmlns="http://www.w3.org/2000/svg">
<path d="M31.5633 88.256L31.1313 89.012C29.8953 88.724 28.9233 88.064 28.4553 87.176C28.0113 88.124 27.0393 88.844 25.7553 89.168L25.3233 88.412C26.8833 88.052 27.9393 87.08 27.9393 85.928V85.388H28.9593V85.928C28.9593 87.032 30.0273 87.932 31.5633 88.256ZM28.0593 92.156V90.608C26.9673 90.656 25.8993 90.656 24.9753 90.656L24.8553 89.84C26.8713 89.84 29.5353 89.84 31.8873 89.528L31.9593 90.248C30.9993 90.404 30.0153 90.5 29.0433 90.548V92.156H28.0593ZM32.6193 94.952V93.764H27.5073V94.952H32.6193ZM32.6193 92.996V91.844H33.5913V95.744H26.5233V91.844H27.5073V92.996H32.6193ZM32.6073 85.136H33.5913V91.316H32.6073V85.136ZM43.4664 87.272V87.008H36.9024V86.204H44.4504V87.272C44.4504 88.604 44.4504 90.08 44.0424 92.252L43.0584 92.144C43.4664 90.08 43.4664 88.568 43.4664 87.272ZM40.6464 93.572H45.6144V94.376H35.8824V93.572H39.6624V89.72H40.6464V93.572ZM52.6484 92.48V89.684H51.3284V92.48H52.6484ZM52.6484 88.892V86.132H53.4644V93.284H50.4884V86.132H51.3284V88.892H52.6484ZM56.1404 92.48V89.684H54.8684V92.48H56.1404ZM56.1404 88.892V86.132H56.9684V93.284H54.0404V86.132H54.8684V88.892H56.1404ZM60.2924 89.324V90.152H58.8524V95.888H57.8804V85.124H58.8524V89.324H60.2924ZM68.8595 87.428V86.252H62.5475V85.484H69.8315V88.16H63.5435V89.336H70.0595V90.104H62.5715V87.428H68.8595ZM63.5795 92.72V94.844H70.0595V95.648H62.5955V92.72H63.5795ZM61.3115 91.088H71.0795V91.892H61.3115V91.088ZM80.2346 87.452H77.5826C76.9106 89.144 75.2666 90.296 72.8906 90.86L72.5306 90.056C75.1586 89.444 76.6586 88.16 76.8386 86.456H73.0946V85.652H77.9066C77.9066 86.012 77.8706 86.348 77.7986 86.684H80.2346V85.124H81.2306V90.62H80.2346V89.504H77.4266V88.736H80.2346V87.452ZM75.2906 95H81.5906V95.78H74.3186V93.008H80.2466V91.904H74.2946V91.112H81.2306V93.752H75.2906V95ZM86.5576 87.188V88.16C86.5576 90.032 87.3616 91.904 88.8496 92.744L88.2496 93.464C87.2056 92.84 86.4616 91.688 86.0896 90.32C85.7176 91.796 84.9376 93.056 83.8696 93.728L83.2696 92.996C84.7696 92.096 85.6096 90.14 85.6096 88.16V87.188H83.5696V86.384H88.4776V87.188H86.5576ZM89.4376 88.988V85.364H90.3736V95.324H89.4376V89.792H87.6616V88.988H89.4376ZM91.5976 85.112H92.5456V95.876H91.5976V85.112Z" fill="#FD3941"/>
<path d="M6.70569 106.484H8.88969V100.124H9.87369V108.32H8.88969V107.216H6.70569V106.484ZM4.50969 101.288C3.48969 101.288 2.79369 101.744 2.79369 102.428C2.79369 103.124 3.48969 103.58 4.50969 103.58C5.52969 103.58 6.22569 103.124 6.22569 102.428C6.22569 101.744 5.52969 101.288 4.50969 101.288ZM4.50969 104.312C2.93769 104.312 1.85769 103.58 1.85769 102.428C1.85769 101.3 2.93769 100.556 4.50969 100.556C6.08169 100.556 7.16169 101.3 7.16169 102.428C7.16169 103.58 6.08169 104.312 4.50969 104.312ZM4.12569 107.936V105.86C3.05769 105.908 2.02569 105.92 1.13769 105.92L1.00569 105.104C2.99769 105.104 5.66169 105.08 7.94169 104.792L8.02569 105.5C7.07769 105.644 6.08169 105.752 5.10969 105.812V107.936H4.12569ZM3.52569 109.844H10.1497V110.648H2.54169V107.516H3.52569V109.844ZM15.2608 107.672C16.2448 107.672 16.9528 106.976 16.9528 106.016C16.9528 105.044 16.2448 104.348 15.2608 104.348C14.2888 104.348 13.5808 105.044 13.5808 106.016C13.5808 106.976 14.2888 107.672 15.2608 107.672ZM15.2608 103.532C16.7968 103.532 17.8888 104.564 17.8888 106.016C17.8888 107.48 16.7968 108.488 15.2608 108.488C13.7488 108.488 12.6568 107.48 12.6568 106.016C12.6568 104.564 13.7488 103.532 15.2608 103.532ZM15.7408 100.256V101.852H18.3928V102.644H12.0448V101.852H14.7568V100.256H15.7408ZM22.1608 104.552V105.38H20.3968V110.888H19.4128V100.136H20.3968V104.552H22.1608ZM31.7718 103.364V104.168H24.4518V100.52H25.4358V103.364H31.7718ZM25.3638 107.48V109.82H31.8318V110.624H24.3798V107.48H25.3638ZM23.1318 105.608H32.8878V106.4H23.1318V105.608ZM45.4299 102.452H42.7779C42.1059 104.144 40.4619 105.296 38.0859 105.86L37.7259 105.056C40.3539 104.444 41.8539 103.16 42.0339 101.456H38.2899V100.652H43.1019C43.1019 101.012 43.0659 101.348 42.9939 101.684H45.4299V100.124H46.4259V105.62H45.4299V104.504H42.6219V103.736H45.4299V102.452ZM40.4859 110H46.7859V110.78H39.5139V108.008H45.4419V106.904H39.4899V106.112H46.4259V108.752H40.4859V110ZM51.7529 102.188V103.16C51.7529 105.032 52.5569 106.904 54.0449 107.744L53.4449 108.464C52.4009 107.84 51.6569 106.688 51.2849 105.32C50.9129 106.796 50.1329 108.056 49.0649 108.728L48.4649 107.996C49.9649 107.096 50.8049 105.14 50.8049 103.16V102.188H48.7649V101.384H53.6729V102.188H51.7529ZM54.6329 103.988V100.364H55.5689V110.324H54.6329V104.792H52.8569V103.988H54.6329ZM56.7929 100.112H57.7409V110.876H56.7929V100.112ZM65 108.752H69.404V109.556H59.624V108.752H64.004V106.724H60.848V103.4H67.232V101.72H60.824V100.916H68.192V104.192H61.82V105.932H68.444V106.724H65V108.752ZM76.4141 107.48V104.684H75.0941V107.48H76.4141ZM76.4141 103.892V101.132H77.2301V108.284H74.2541V101.132H75.0941V103.892H76.4141ZM79.9061 107.48V104.684H78.6341V107.48H79.9061ZM79.9061 103.892V101.132H80.7341V108.284H77.8061V101.132H78.6341V103.892H79.9061ZM84.0581 104.324V105.152H82.6181V110.888H81.6461V100.124H82.6181V104.324H84.0581ZM92.6251 102.428V101.252H86.3131V100.484H93.5971V103.16H87.3091V104.336H93.8251V105.104H86.3371V102.428H92.6251ZM87.3451 107.72V109.844H93.8251V110.648H86.3611V107.72H87.3451ZM85.0771 106.088H94.8451V106.892H85.0771V106.088ZM99.8482 102.776V103.604C99.8482 105.392 101.024 107.144 102.608 107.852L102.068 108.608C100.844 108.044 99.8482 106.88 99.3682 105.464C98.9122 106.964 97.9162 108.212 96.6922 108.812L96.1402 108.056C97.7242 107.3 98.8762 105.464 98.8762 103.604V102.776H96.4402V101.984H98.8642V100.316H99.8482V101.984H102.236V102.776H99.8482ZM104.012 100.112H104.996V110.912H104.012V105.248H101.684V104.444H104.012V100.112ZM108.775 104.96V107.48C110.539 107.48 112.123 107.396 114.007 107.096L114.103 107.9C112.159 108.224 110.527 108.296 108.679 108.296H107.791V104.168H111.751V101.924H107.755V101.12H112.747V104.96H108.775ZM115.015 100.112H115.999V110.9H115.015V100.112Z" fill="black"/>
<path d="M41.2458 56.2685C40.4329 58.2592 39.1983 59.695 37.8787 61.4032C37.4482 61.9506 37.0365 62.9459 37.0389 63.8682L37.0985 72.3667C37.0985 72.688 36.838 72.9484 36.5168 72.9484L34.8246 73.278H23.0271C22.7059 73.278 22.4454 73.0175 22.4454 72.6962V64.8747C22.4454 64.0092 22.4713 63.1441 22.496 62.2789C22.5446 60.5745 22.4145 58.8662 22.1053 57.182L22.0413 56.8337C21.4433 53.5761 21.2878 50.2526 21.5791 46.9534L22.7993 33.1373C22.9197 31.7739 23.7792 30.5867 25.0368 30.0465L32.9145 26.6633C33.6498 26.3476 34.4417 26.1847 35.2418 26.1847H42.0909L42.3423 37.9258L41.2458 56.2685Z" fill="#F4B887"/>
<path d="M59.5373 73.0278L63.0091 71.0342C63.0988 70.9828 63.209 70.9828 63.2988 71.0342L67.0614 73.1947C67.1512 73.2462 67.2614 73.2462 67.3511 73.1947L71.1138 71.0342C71.2035 70.9828 71.3137 70.9828 71.4035 71.0342L75.1663 73.1947C75.256 73.2462 75.3662 73.2462 75.456 73.1947L79.2194 71.0341C79.3091 70.9826 79.4193 70.9826 79.5091 71.0341L80.5077 71.6075L82.5703 72.5368C82.7642 72.6481 83.006 72.5082 83.006 72.2846L82.7392 52.8621H59.1016L60.5861 58.6726L59.1016 63.0049V72.7754C59.1016 72.9991 59.3434 73.139 59.5373 73.0278Z" fill="#F5F8F9"/>
<path d="M89.6746 54.4852H89.6918C91.9132 54.4852 93.714 52.6844 93.714 50.463V14.2453C93.714 12.0239 91.9132 10.223 89.6918 10.223H89.6746C87.4532 10.223 85.6523 12.0239 85.6523 14.2453V50.463C85.6523 52.6844 87.4532 54.4852 89.6746 54.4852Z" fill="#5E5D5D"/>
<path d="M53.1072 54.4852H53.1244C55.3458 54.4852 57.1466 52.6844 57.1466 50.463V14.2453C57.1466 12.0239 55.3458 10.223 53.1244 10.223H53.1072C50.8858 10.223 49.085 12.0239 49.085 14.2453V50.463C49.085 52.6844 50.8858 54.4852 53.1072 54.4852Z" fill="#707070"/>
<path d="M83.4167 52.8627V72.7762C83.4167 72.9987 83.1752 73.1397 82.9818 73.0278L80.5081 71.6069V64.4251C80.5081 63.7422 79.9275 63.2047 79.2466 63.2564C76.3711 63.4752 73.3978 63.588 70.3979 63.588C70.3979 63.588 70.3979 63.588 70.3965 63.588C66.4568 63.588 62.6277 63.3888 59.1011 63.0049V52.8627H83.4167Z" fill="#E8EDF2"/>
<path d="M54.8212 59.4726C64.2775 61.113 76.5504 61.031 86.3132 59.5331C86.8683 59.4478 86.9102 58.921 87.4481 58.8267C88.4341 58.654 89.1508 57.7927 89.1512 56.7906L89.2197 5.53154C89.303 3.21458 87.4497 1.29086 85.1342 1.29086L83.0057 1H57.2156C54.9001 1 53.0466 2.92372 53.1301 5.24068L53.1157 57.4344C53.1154 58.438 53.8336 59.3013 54.8212 59.4726Z" fill="#7E8084"/>
<path d="M89.6784 5.24084L89.6566 57.2285C89.6566 58.2305 88.9397 59.0914 87.9537 59.2645C87.4156 59.359 86.8688 59.4477 86.3132 59.5335L86.3336 5.24084C86.4165 2.92417 84.5623 1.00015 82.2471 1.00015H85.5919C87.9071 1.00015 89.7613 2.92417 89.6784 5.24084Z" fill="#707070"/>
<path d="M59.297 24.5672H83.5108C83.8321 24.5672 84.0925 24.3067 84.0925 23.9855V9.26262C84.0925 8.94137 83.8321 8.68091 83.5108 8.68091H59.297C58.9758 8.68091 58.7153 8.94137 58.7153 9.26262V23.9856C58.7153 24.3067 58.9758 24.5672 59.297 24.5672Z" fill="#F5F8F9"/>
<path d="M78.6711 35.7105H83.2898C83.5308 35.7105 83.7261 35.5152 83.7261 35.2743V32.2126C83.7261 31.9716 83.5308 31.7763 83.2898 31.7763H78.6711C78.4302 31.7763 78.2349 31.9716 78.2349 32.2126V35.2743C78.2349 35.5152 78.4302 35.7105 78.6711 35.7105Z" fill="#707070"/>
<path d="M78.6711 43.7918H83.2898C83.5308 43.7918 83.7261 43.5965 83.7261 43.3555V40.2938C83.7261 40.0528 83.5308 39.8575 83.2898 39.8575H78.6711C78.4302 39.8575 78.2349 40.0528 78.2349 40.2938V43.3555C78.2349 43.5965 78.4302 43.7918 78.6711 43.7918Z" fill="#707070"/>
<path d="M78.6711 51.8732H83.2898C83.5308 51.8732 83.7261 51.6779 83.7261 51.4369V48.3752C83.7261 48.1343 83.5308 47.939 83.2898 47.939H78.6711C78.4302 47.939 78.2349 48.1343 78.2349 48.3752V51.4369C78.2349 51.6779 78.4302 51.8732 78.6711 51.8732Z" fill="#707070"/>
<path d="M68.9788 35.7105H73.5974C73.8384 35.7105 74.0337 35.5152 74.0337 35.2743V32.2126C74.0337 31.9716 73.8384 31.7763 73.5974 31.7763H68.9788C68.7378 31.7763 68.5425 31.9716 68.5425 32.2126V35.2743C68.5425 35.5152 68.7379 35.7105 68.9788 35.7105Z" fill="#707070"/>
<path d="M68.9788 43.7918H73.5974C73.8384 43.7918 74.0337 43.5965 74.0337 43.3555V40.2938C74.0337 40.0528 73.8384 39.8575 73.5974 39.8575H68.9788C68.7378 39.8575 68.5425 40.0528 68.5425 40.2938V43.3555C68.5425 43.5965 68.7379 43.7918 68.9788 43.7918Z" fill="#707070"/>
<path d="M68.9788 51.8732H73.5974C73.8384 51.8732 74.0337 51.6779 74.0337 51.4369V48.3752C74.0337 48.1343 73.8384 47.939 73.5974 47.939H68.9788C68.7378 47.939 68.5425 48.1343 68.5425 48.3752V51.4369C68.5425 51.6779 68.7379 51.8732 68.9788 51.8732Z" fill="#707070"/>
<path d="M59.1399 51.8732H63.7585C63.9995 51.8732 64.1948 51.6779 64.1948 51.4369V48.3752C64.1948 48.1343 63.9995 47.939 63.7585 47.939H59.1399C58.8989 47.939 58.7036 48.1343 58.7036 48.3752V51.4369C58.7036 51.6779 58.8989 51.8732 59.1399 51.8732Z" fill="#707070"/>
<path d="M30.0366 42.7248H58.7139L62.1701 42.1213C62.9733 42.1213 63.6244 41.4702 63.6244 40.667V21.45C63.6244 20.6468 62.9733 19.9957 62.1701 19.9957L58.7139 19.578H31.4909C30.6877 19.578 30.0366 20.2291 30.0366 21.0323V24.5672L31.3497 27.0382L30.0366 29.5091V42.7248Z" fill="#B3CBF4"/>
<path d="M64.1951 21.0329V24.5668L63.2959 27.0383L64.1951 29.5099V41.2706C64.1951 42.0734 63.5435 42.7249 62.7408 42.7249H58.7139V19.5786H62.7408C63.5435 19.5786 64.1951 20.2286 64.1951 21.0329Z" fill="#9EB3E8"/>
<path d="M30.0369 29.5092L63.4604 29.5092L63.4604 24.5672L30.0369 24.5672L30.0369 29.5092Z" fill="#F5F8F9"/>
<path d="M64.1951 24.5668H58.7139V29.5099H64.1951V24.5668Z" fill="#E8EDF2"/>
<path d="M60.1241 42.9425C60.1241 43.4239 59.7329 43.8151 59.2515 43.8151L54.8847 43.4996C52.4895 43.4996 50.1714 44.3431 48.3376 45.8832L44.8182 48.8383C42.7531 50.3989 41.6048 53.7347 40.6908 56.2685C21.9508 54.5626 29.1805 37.2583 29.1805 37.2583L33.1637 38.9904C34.1599 39.5197 35.1997 39.9647 36.2715 40.3225L37.4291 40.7079C39.2717 41.323 41.2539 41.2794 43.0543 40.5915C43.9603 40.2454 44.894 39.8876 45.768 39.5546C48.4555 38.5279 51.3073 38.0014 54.1839 38.0014H55.0943C55.6836 38.0014 56.2506 38.0968 56.7813 38.2719C57.5753 38.7713 58.2403 39.1973 58.8271 39.7841C59.8001 40.757 60.1241 41.4577 60.1241 42.9425Z" fill="#F4B887"/>
<path d="M60.4724 43.3793C60.4724 43.8607 60.0812 44.2519 59.5998 44.2519H55.3926C52.9974 44.2519 50.6793 45.0954 48.8454 46.6355L45.3261 49.5906C43.261 51.1512 42.6422 53.8483 41.7282 56.3821C40.9152 58.373 39.8362 60.249 38.5171 61.9563C38.099 62.5247 37.7011 63.3132 37.6766 64.4213V72.6962C37.6766 73.0176 37.4162 73.2779 37.0948 73.2779H34.8247V62.1992C34.8247 61.3063 35.1199 60.4395 35.6653 59.7342C36.6149 58.5024 37.441 57.1848 38.1332 55.8004C38.7167 54.6496 39.3443 53.0676 39.7649 51.5684C39.9947 50.7482 40.3452 49.9716 40.8018 49.2634C41.5371 47.8853 44.8005 45.479 45.9936 44.4119C47.8274 42.8718 50.1456 42.0283 52.5408 42.0283H56.0921C56.9952 42.0283 57.6962 41.2256 57.558 40.3326C57.4431 39.5837 57.1741 38.8856 56.7814 38.2719C57.5886 38.538 58.3099 38.9889 58.8974 39.5764C59.8703 40.5493 60.4724 41.8945 60.4724 43.3793Z" fill="#EAA978"/>
<path d="M29.4506 28.9814L24.6003 31.0644C23.3427 31.6045 22.4832 32.7916 22.3628 34.1551L21.1426 47.9712C20.8513 51.2704 21.0066 54.5939 21.6048 57.8515L21.6688 58.1998C21.978 59.884 22.1083 61.5923 22.0595 63.2967C22.0348 64.1619 22.0089 65.0269 22.0089 65.8925V74.2958" stroke="black" stroke-width="2.18142" stroke-miterlimit="10" stroke-linecap="round" stroke-linejoin="round"/>
<path d="M82.9801 61.2421V74.2957L78.9271 71.9689L74.874 74.2957L70.8223 71.9689L66.7693 74.2957L62.7176 71.9689L58.6646 74.2957V69.5504" stroke="black" stroke-width="2.18142" stroke-miterlimit="10" stroke-linecap="round" stroke-linejoin="round"/>
<path d="M58.6646 64.4605V61.3381" stroke="black" stroke-width="2.18142" stroke-miterlimit="10" stroke-linecap="round" stroke-linejoin="round"/>
<path d="M89.4102 55.5002C91.56 55.4191 93.278 53.6507 93.278 51.4809V15.2632C93.278 13.1034 91.5759 11.3414 89.44 11.2451" stroke="black" stroke-width="2.18142" stroke-miterlimit="10" stroke-linecap="round" stroke-linejoin="round"/>
<path d="M48.6489 47.6417V51.4808C48.6489 53.6463 50.36 55.4121 52.5039 55.4996" stroke="black" stroke-width="2.18142" stroke-miterlimit="10" stroke-linecap="round" stroke-linejoin="round"/>
<path d="M52.5998 11.2415C50.4114 11.2796 48.6489 13.0656 48.6489 15.2632V20.448" stroke="black" stroke-width="2.18142" stroke-miterlimit="10" stroke-linecap="round" stroke-linejoin="round"/>
<path d="M52.6904 20.4481L52.6933 6.25869C52.6104 3.94202 54.4647 2.01801 56.7799 2.01801H85.1558C87.471 2.01801 89.3252 3.94202 89.2423 6.25869L89.2263 43.4199" stroke="black" stroke-width="2.18142" stroke-miterlimit="10" stroke-linecap="round" stroke-linejoin="round"/>
<path d="M52.6831 45.7686L52.6802 58.4529C52.6787 59.4563 53.3971 60.3187 54.3846 60.4903C64.3784 62.2238 77.5193 62.0333 87.5175 60.2823C88.5035 60.1093 89.2204 59.2483 89.2204 58.2463L89.2248 48.5099" stroke="black" stroke-width="2.18142" stroke-miterlimit="10" stroke-linecap="round" stroke-linejoin="round"/>
<path d="M58.2793 20.4481V9.69806H71.1221" stroke="black" stroke-width="2.18142" stroke-miterlimit="10" stroke-linecap="round" stroke-linejoin="round"/>
<path d="M76.2118 9.69806H83.6562V25.5846H63.8867" stroke="black" stroke-width="2.18142" stroke-miterlimit="10" stroke-linecap="round" stroke-linejoin="round"/>
<path d="M77.7983 36.7284L83.2896 36.7284L83.2896 32.7941L77.7983 32.7941L77.7983 36.7284Z" stroke="black" stroke-width="2.18142" stroke-miterlimit="10" stroke-linecap="round" stroke-linejoin="round"/>
<path d="M77.7983 44.8096L83.2896 44.8096L83.2896 40.8754L77.7983 40.8754L77.7983 44.8096Z" stroke="black" stroke-width="2.18142" stroke-miterlimit="10" stroke-linecap="round" stroke-linejoin="round"/>
<path d="M77.7983 52.8911L83.2896 52.8911L83.2896 48.9568L77.7983 48.9568L77.7983 52.8911Z" stroke="black" stroke-width="2.18142" stroke-miterlimit="10" stroke-linecap="round" stroke-linejoin="round"/>
<path d="M68.1064 36.7284L73.5977 36.7284L73.5977 32.7941L68.1064 32.7941L68.1064 36.7284Z" stroke="black" stroke-width="2.18142" stroke-miterlimit="10" stroke-linecap="round" stroke-linejoin="round"/>
<path d="M68.1064 44.8096L73.5977 44.8096L73.5977 40.8754L68.1064 40.8754L68.1064 44.8096Z" stroke="black" stroke-width="2.18142" stroke-miterlimit="10" stroke-linecap="round" stroke-linejoin="round"/>
<path d="M68.1064 52.8911L73.5977 52.8911L73.5977 48.9568L68.1064 48.9568L68.1064 52.8911Z" stroke="black" stroke-width="2.18142" stroke-miterlimit="10" stroke-linecap="round" stroke-linejoin="round"/>
<path d="M58.2676 52.8911L63.7588 52.8911L63.7588 48.9568L58.2676 48.9568L58.2676 52.8911Z" stroke="black" stroke-width="2.18142" stroke-miterlimit="10" stroke-linecap="round" stroke-linejoin="round"/>
<path d="M65.8799 17.8855L70.0086 21.9088L75.4735 13.6874" stroke="black" stroke-width="2.18142" stroke-miterlimit="10" stroke-linecap="round" stroke-linejoin="round"/>
<path d="M60.2251 43.7426H62.3046C63.1078 43.7426 63.7589 43.0915 63.7589 42.2883V22.0501C63.7589 21.2469 63.1078 20.5959 62.3046 20.5959H31.0549C30.2517 20.5959 29.6006 21.2469 29.6006 22.0501V38.2578" stroke="black" stroke-width="2.18142" stroke-miterlimit="10" stroke-linecap="round" stroke-linejoin="round"/>
<path d="M77.1574 66.5157H64.147" stroke="black" stroke-width="2.18142" stroke-miterlimit="10" stroke-linecap="round" stroke-linejoin="round"/>
<path d="M63.491 25.5851H29.7891" stroke="black" stroke-width="2.18142" stroke-miterlimit="10" stroke-linecap="round" stroke-linejoin="round"/>
<path d="M29.7573 30.527H63.4913" stroke="black" stroke-width="2.18142" stroke-miterlimit="10" stroke-linecap="round" stroke-linejoin="round"/>
<path d="M51.2052 39.1574C52.0487 39.0658 52.8965 39.0193 53.7473 39.0193H54.6577C57.6273 39.0193 60.0356 41.4261 60.0356 44.3972C60.0356 44.6371 59.9382 44.8553 59.7796 45.0138C59.6226 45.1723 59.4044 45.2698 59.163 45.2698H54.9558C52.5606 45.2698 50.2425 46.1132 48.4086 47.6533L44.8893 50.6084C43.5833 51.7049 42.6395 53.1694 42.1799 54.8098C41.7655 56.2888 41.2099 57.7228 40.5235 59.0898C39.8371 60.4568 39.0198 61.7584 38.0803 62.9742C37.8084 63.3276 37.5975 63.7202 37.455 64.1376C37.3139 64.5535 37.2397 64.9942 37.2397 65.4392V74.2957" stroke="black" stroke-width="2.18142" stroke-miterlimit="10" stroke-linecap="round" stroke-linejoin="round"/>
<path d="M27.2681 37.4298L32.7274 40.0082C33.7236 40.5376 34.7634 40.9826 35.8352 41.3403L36.9928 41.7257C38.8354 42.3409 40.8176 42.2973 42.618 41.6094C43.524 41.2633 44.4577 40.9055 45.3317 40.5725C45.6298 40.459 45.9309 40.35 46.2333 40.2496" stroke="black" stroke-width="2.18142" stroke-miterlimit="10" stroke-linecap="round" stroke-linejoin="round"/>
</svg>
