<svg width="45" height="45" viewBox="0 0 45 45" fill="none" xmlns="http://www.w3.org/2000/svg">
<path d="M27.2903 22.8995H18.3663C17.8704 22.8995 17.4683 22.4974 17.4683 22.0015C17.4683 21.5055 17.8704 21.1035 18.3663 21.1035H27.2903C27.7863 21.1035 28.1884 21.5055 28.1884 22.0015C28.1884 22.4974 27.7863 22.8995 27.2903 22.8995Z" fill="black"/>
<circle cx="22.5" cy="22.5007" r="22.5" fill="#D9D9D9"/>
<path d="M27.2903 18.4113H18.3663C17.8704 18.4113 17.4683 18.0092 17.4683 17.5133C17.4683 17.0173 17.8704 16.6152 18.3663 16.6152H27.2903C27.7863 16.6152 28.1884 17.0173 28.1884 17.5133C28.1884 18.0092 27.7863 18.4113 27.2903 18.4113Z" fill="black"/>
<path d="M23.1089 27.3906H18.3663C17.8704 27.3906 17.4683 26.9885 17.4683 26.4926C17.4683 25.9966 17.8704 25.5945 18.3663 25.5945H23.1089C23.6049 25.5945 24.007 25.9966 24.007 26.4926C24.007 26.9885 23.6049 27.3906 23.1089 27.3906Z" fill="black"/>
<path d="M24.3151 33.0025H17.1428C15.4095 33.0025 13.9997 31.5928 13.9997 29.8594V14.1441C13.9997 12.4108 15.4095 11.001 17.1428 11.001H28.5132C30.2465 11.001 31.6563 12.4108 31.6563 14.1441V25.6614C31.6563 25.8995 31.5615 26.1279 31.3932 26.2963L24.9505 32.7394C24.7821 32.9078 24.5537 33.0025 24.3156 33.0025H24.3151ZM17.1428 12.7971C16.4 12.7971 15.7958 13.4013 15.7958 14.1441V29.8594C15.7958 30.6022 16.4 31.2065 17.1428 31.2065H23.9433L29.8602 25.2895V14.1441C29.8602 13.4013 29.256 12.7971 28.5132 12.7971H17.1428Z" fill="black"/>
</svg>
