<svg width="45" height="45" viewBox="0 0 45 45" fill="none" xmlns="http://www.w3.org/2000/svg">
<path d="M28.8313 17.3987H28.4618C28.2572 17.3987 28.0919 17.2186 28.0919 16.9968C28.0919 16.7749 28.2572 16.5948 28.4618 16.5948H28.8313C29.2393 16.5948 29.571 16.2343 29.571 15.7913V14.9878C29.571 14.5445 29.2393 14.1839 28.8313 14.1839H28.4618C28.2572 14.1839 28.0919 14.0039 28.0919 13.7824V12.9785C28.0919 10.3198 26.1015 8.15677 23.6549 8.15677C21.2083 8.15677 19.2179 10.3198 19.2179 12.9785V13.7824C19.2179 14.0043 19.0522 14.1839 18.848 14.1839C18.6439 14.1839 18.4785 14.0039 18.4785 13.7824V12.9785C18.4785 9.87678 20.8003 7.35327 23.6549 7.35327C26.5095 7.35327 28.8313 9.87678 28.8313 12.9785V13.3805C29.6469 13.3805 30.3104 14.1015 30.3104 14.9878V15.7913C30.3104 16.6777 29.6469 17.3987 28.8313 17.3987Z" fill="black"/>
<path d="M18.8486 17.3989H18.4791C17.6635 17.3989 17 16.6779 17 15.7915V14.988C17 14.1016 17.6635 13.3806 18.4791 13.3806H18.8486C19.0528 13.3806 19.2185 13.5607 19.2185 13.7826V16.9969C19.2185 17.2188 19.0528 17.3989 18.8486 17.3989ZM18.4791 14.1841C18.0711 14.1841 17.7394 14.5446 17.7394 14.988V15.7915C17.7394 16.2349 18.0711 16.595 18.4791 16.595V14.1841Z" fill="black"/>
<path d="M23.6561 22.6222C23.0447 22.6222 22.5469 22.0813 22.5469 21.4168C22.5469 20.7523 23.0447 20.2113 23.6561 20.2113C24.1383 20.2113 24.5494 20.5474 24.7023 21.0152H24.7654C26.6005 21.0152 28.0931 19.3932 28.0931 17.3989V15.3896C28.0931 15.1677 28.2585 14.988 28.463 14.988C28.6675 14.988 28.8325 15.1681 28.8325 15.3896V17.3989C28.8325 19.8358 27.0078 21.8187 24.7654 21.8187H24.3955C24.191 21.8187 24.026 21.639 24.026 21.4168C24.026 21.1945 23.8599 21.0152 23.6561 21.0152C23.4523 21.0152 23.2863 21.1953 23.2863 21.4168C23.2863 21.6383 23.4523 21.8187 23.6561 21.8187C23.8599 21.8187 24.026 21.9984 24.026 22.2207C24.026 22.4429 23.8603 22.6222 23.6561 22.6222Z" fill="black"/>
<path d="M26.9824 13.3785C26.7779 13.3785 26.6125 13.1985 26.6125 12.9766C26.6125 11.2042 25.2856 9.76224 23.6546 9.76224C22.0237 9.76224 20.6968 11.2042 20.6968 12.9766C20.6968 13.1985 20.5311 13.3785 20.3269 13.3785C20.1227 13.3785 19.957 13.1985 19.957 12.9766C19.957 10.7609 21.6157 8.95874 23.6546 8.95874C25.6936 8.95874 27.3523 10.7612 27.3523 12.9766C27.3523 13.1985 27.1869 13.3785 26.9824 13.3785Z" fill="black"/>
<path d="M21.8066 17.7986H22.546V18.6025H21.8066V17.7986Z" fill="black"/>
<path d="M23.2852 17.7986H24.0249V18.6025H23.2852V17.7986Z" fill="black"/>
<path d="M24.7656 17.7986H25.505V18.6025H24.7656V17.7986Z" fill="black"/>
<path d="M22.5 44.6716C34.9264 44.6716 45 34.6715 45 22.3358C45 10.0001 34.9264 6.10352e-05 22.5 6.10352e-05C10.0736 6.10352e-05 0 10.0001 0 22.3358C0 34.6715 10.0736 44.6716 22.5 44.6716Z" fill="#5DDFDE"/>
<path d="M16.6105 18.9939C16.6105 18.9939 17.6577 24.4694 24.9884 28.8354C24.9884 28.8354 26.5941 26.3402 29.1773 27.1722L34.0642 28.8354C34.0642 28.8354 36.8566 29.875 35.2508 32.7861C33.6451 35.6972 32.1789 36.0433 32.1789 36.0433C32.1789 36.0433 28.5484 38.2609 22.0558 34.5185C16.0375 31.0496 7.31931 20.4344 9.63607 12.4987C9.98745 11.296 10.7461 10.2598 11.7512 9.50394C13.1043 8.48559 15.205 7.33224 16.7831 8.4198C17.3243 8.7926 17.6639 9.39155 17.8062 10.0302L18.9839 15.3207C18.9839 15.3207 19.8219 17.3307 16.6098 18.9939H16.6105Z" fill="#3E3E3E"/>
</svg>
