<svg width="45" height="45" viewBox="0 0 45 45" fill="none" xmlns="http://www.w3.org/2000/svg">
<circle cx="22.5" cy="22.5007" r="22.5" fill="#FAE100"/>
<path d="M22.3863 10.0009C15.5454 10.0009 10.0001 14.7639 10.0001 20.6425C10.0001 24.4676 12.3483 27.82 15.8752 29.6957C15.6155 30.7454 14.9373 33.503 14.8016 34.0926C14.6333 34.8246 15.0472 34.8144 15.3209 34.6187C15.5337 34.4637 18.7144 32.1127 20.0873 31.0986C20.8334 31.2181 21.6005 31.2816 22.3863 31.2816C29.2273 31.2816 34.7725 26.5187 34.7725 20.6425C34.7725 14.7664 29.2273 10.0009 22.3863 10.0009ZM30.0669 23.7636L28.3853 21.2729L28.0018 21.6083C28.0018 21.6083 28.0018 22.8385 28.0018 23.4891C28.0018 24.0483 26.692 24.0483 26.692 23.4891C26.692 23.1358 26.7201 18.3577 26.7084 17.829C26.7014 17.5367 27.0452 17.3868 27.382 17.3868C27.6954 17.3868 28.0041 17.5189 28.0111 17.7909C28.0298 18.5076 28.0111 19.8038 28.0111 19.8038C28.0111 19.8038 29.9079 17.7401 30.1792 17.4478C30.4575 17.1453 31.3205 18.0908 31.0422 18.3907C30.5651 18.9066 29.3536 20.3299 29.3536 20.3299L31.1381 22.8842C31.4772 23.3722 30.4084 24.2516 30.0692 23.7636H30.0669ZM20.6065 17.7985C20.8334 18.3221 22.0706 22.0226 22.4308 23.0494C22.681 23.7687 21.4719 24.2668 21.2193 23.5476C20.9106 22.658 20.9901 22.6199 20.9901 22.6199H18.6583L18.4034 23.5882C18.1321 24.2668 16.958 23.7128 17.2316 23.0342C17.6082 22.0938 18.7402 18.5483 19.0536 17.7985C19.1775 17.5011 19.4699 17.3817 19.7692 17.3817C20.1317 17.3817 20.5036 17.5545 20.6089 17.7985H20.6065ZM17.6199 17.3817C18.4127 17.3817 18.4127 18.7364 17.6199 18.7364C16.7779 18.7364 16.3523 18.7338 16.3523 18.7338L16.3476 23.3849C16.3476 24.0305 15.0238 24.0229 15.0238 23.3748C15.0308 22.4877 15.0238 18.683 15.0238 18.683H13.7492C13.0008 18.683 12.9984 17.3563 13.7492 17.3537C13.7492 17.3537 16.7335 17.3817 17.6269 17.3817H17.6199ZM22.8822 23.1079C22.8822 23.1079 22.8775 19.2243 22.8751 18.0196C22.8751 17.5952 23.2189 17.3842 23.5651 17.3842C23.9112 17.3842 24.2527 17.5952 24.255 18.0171C24.255 18.8888 24.2527 22.4827 24.2527 22.4827C24.2527 22.4827 25.3449 22.4903 25.946 22.4903C26.547 22.4903 26.547 23.8754 25.9483 23.8754C25.3496 23.8754 23.9978 23.8831 23.3897 23.8831C22.7816 23.8831 22.8822 23.1104 22.8822 23.1104V23.1079Z" fill="#371D1E"/>
<path d="M20.5544 21.3461L19.8458 18.9316L19.0763 21.3461H20.5544Z" fill="#371D1E"/>
<path d="M13.7438 18.6838H15.0184C15.0184 18.6838 15.0254 22.4886 15.0184 23.3756C15.0184 24.0237 16.3445 24.0313 16.3422 23.3857L16.3468 18.7346C16.3468 18.7346 16.7748 18.7372 17.6145 18.7372C18.4073 18.7372 18.4073 17.3825 17.6145 17.3825C16.721 17.3825 13.7367 17.3546 13.7367 17.3546C12.9883 17.3546 12.9907 18.6838 13.7367 18.6838H13.7438Z" fill="#FAE100"/>
<path d="M19.0501 17.7967C18.7367 18.5465 17.6024 22.092 17.2281 23.0324C16.9568 23.711 18.1286 24.2676 18.3999 23.5864L18.6548 22.6181H20.9866C20.9866 22.6181 20.9071 22.6588 21.2158 23.5458C21.466 24.265 22.6775 23.7669 22.4273 23.0476C22.0694 22.0208 20.8299 18.3203 20.603 17.7967C20.4978 17.5553 20.1259 17.3799 19.7634 17.3799C19.464 17.3799 19.1717 17.4993 19.0477 17.7967H19.0501ZM19.8452 18.9277L20.5539 21.3422H19.0758L19.8452 18.9277Z" fill="#FAE100"/>
<path d="M25.9466 22.4859C25.3478 22.4859 24.2533 22.4783 24.2533 22.4783C24.2533 22.4783 24.258 18.887 24.2556 18.0127C24.2556 17.5908 23.9095 17.3799 23.5657 17.3799C23.2219 17.3799 22.8734 17.5934 22.8757 18.0153C22.8757 19.22 22.8828 23.1035 22.8828 23.1035C22.8828 23.1035 22.7799 23.8762 23.3903 23.8762C24.0007 23.8762 25.3502 23.8686 25.9489 23.8686C26.5476 23.8686 26.5453 22.4834 25.9466 22.4834V22.4859Z" fill="#FAE100"/>
<path d="M29.3493 20.3278C29.3493 20.3278 30.5608 18.9045 31.0379 18.3886C31.3163 18.0887 30.4532 17.1432 30.1749 17.4456C29.906 17.7354 28.0069 19.8017 28.0069 19.8017C28.0069 19.8017 28.0233 18.5055 28.0069 17.7888C27.9999 17.5168 27.6935 17.3846 27.3777 17.3846C27.041 17.3846 26.6972 17.5346 26.7042 17.8269C26.7182 18.3555 26.6878 23.1337 26.6878 23.487C26.6878 24.0461 27.9975 24.0436 27.9975 23.487C27.9975 22.8389 27.9975 21.6062 27.9975 21.6062L28.3811 21.2707L30.0627 23.7615C30.4018 24.2495 31.4706 23.3675 31.1315 22.8821L29.347 20.3278H29.3493Z" fill="#FAE100"/>
</svg>
