<svg width="77" height="30" viewBox="0 0 77 30" fill="none" xmlns="http://www.w3.org/2000/svg">
<path d="M14.37 15.02V18.09C14.37 22.98 11.91 26.21 7.12 26.21C2.33 26.21 0 22.98 0 18.09V8.64C0 3.72 2.39 0.459999 7.12 0.459999C11.85 0.459999 14.37 3.73 14.37 8.64V11.45M10.19 8.65C10.19 5.48 8.96 4.12 7.12 4.12C5.37 4.12 4.11002 5.48 4.11002 8.65V18.1C4.11002 21.27 5.34 22.63 7.12 22.63C8.9 22.63 10.19 21.27 10.19 18.1V8.65Z" fill="#3E3A39"/>
<path d="M36.2398 17.69V14.79H27.4398C26.5498 14.79 25.8198 14.07 25.8198 13.17C25.8198 12.28 26.5398 11.55 27.4398 11.55H49.0798C49.9698 11.55 50.6998 12.27 50.6998 13.17C50.6998 14.06 49.9798 14.79 49.0798 14.79H40.4098V17.69M42.3198 0.459999C47.5298 0.459999 49.5998 2.47001 49.5998 5.35001C49.5998 8.23001 47.5298 10.2 42.3198 10.2H34.4898C29.3098 10.2 27.2398 8.19001 27.2398 5.35001C27.2398 2.51001 29.3098 0.459999 34.4898 0.459999H42.3198ZM42.5098 7.03C44.6798 7.03 45.2598 6.22001 45.2598 5.35001C45.2598 4.48001 44.6798 3.7 42.5098 3.7H34.3298C32.0998 3.7 31.5498 4.48001 31.5498 5.35001C31.5498 6.22001 32.0998 7.03 34.3298 7.03H42.5098Z" fill="#3E3A39"/>
<path d="M57.2001 10.2V11.75C57.2001 11.94 57.2301 12.11 57.3601 12.3L57.7201 12.62C57.8801 12.75 58.0101 12.81 58.1701 12.81H67.1601C68.1201 12.81 68.9101 13.59 68.9101 14.56V14.59C68.9101 15.55 68.1301 16.34 67.1601 16.34H57.0701C55.9101 16.34 55.3601 16.08 54.6401 15.34L53.9001 14.56C53.2201 13.85 53.0601 13.4 53.0601 12.13V8.02C53.0601 7.28 53.4501 6.89 54.2601 6.89H62.8001C63.0901 6.89 63.3201 6.66 63.3201 6.37V4.36H54.8801C53.9201 4.36 53.1301 3.58 53.1301 2.61C53.1301 1.65 53.9101 0.860001 54.8801 0.860001H66.2701C66.9001 0.860001 67.4001 1.37001 67.4001 1.99001V7.46C67.4001 9.08 66.3601 10.18 64.7801 10.18H57.2101L57.2001 10.2ZM76.7401 2.60001V14.73C76.7401 15.87 75.8101 16.8 74.6701 16.8C73.5301 16.8 72.6001 15.87 72.6001 14.73V2.60001C72.6001 1.46001 73.5301 0.529999 74.6701 0.529999C75.8101 0.529999 76.7401 1.46001 76.7401 2.60001Z" fill="#3E3A39"/>
<path d="M21.5598 13.37H14.5498" stroke="#3E3A39" stroke-width="3.42" stroke-miterlimit="10" stroke-linecap="round"/>
<path d="M21.5601 1.89V15.62C21.5601 17.14 22.7901 18.37 24.3101 18.37H46.6301C47.2001 18.37 47.6701 18.83 47.6701 19.41V21.62C47.6701 22.19 47.2101 23.14 46.6301 23.14H30.5101C29.9701 23.14 29.5201 23.58 29.5201 24.13C29.5201 25.86 30.9201 27.76 32.6501 27.76H47.6601H58.1101H73.6701C74.2101 27.76 74.6601 27.32 74.6601 26.77V20.46C74.6601 19.92 74.2201 19.47 73.6701 19.47H58.5601C58.0201 19.47 57.5701 19.91 57.5701 20.46V23.41" stroke="#3E3A39" stroke-width="3.42" stroke-linecap="round" stroke-linejoin="round"/>
</svg>
