<svg width="150" height="27" viewBox="0 0 150 27" fill="none" xmlns="http://www.w3.org/2000/svg">
<path d="M23.7277 26.1333H18.9277V14.9333H15.6943C15.4943 18.4 14.7388 20.9889 13.4277 22.7C12.1166 24.3889 10.3832 25.2333 8.22767 25.2333C5.87211 25.2333 4.01656 24.2222 2.661 22.2C1.32767 20.1778 0.661003 17.1222 0.661003 13.0333C0.661003 8.94444 1.32767 5.88889 2.661 3.86667C4.01656 1.84444 5.87211 0.833333 8.22767 0.833333C10.2943 0.833333 11.9721 1.61111 13.261 3.16667C14.5499 4.7 15.3499 7.04444 15.661 10.2H18.9277V0.533333H23.7277V26.1333ZM8.22767 20.6C10.0721 20.6 10.9943 18.0778 10.9943 13.0333C10.9943 7.98889 10.0721 5.46667 8.22767 5.46667C6.361 5.46667 5.42767 7.98889 5.42767 13.0333C5.42767 18.0778 6.361 20.6 8.22767 20.6ZM38.7908 9.9C35.3686 9.9 32.6686 9.51111 30.6908 8.73333C28.713 7.93333 27.7242 6.68889 27.7242 5C27.7242 3.31111 28.713 2.07778 30.6908 1.3C32.6686 0.499999 35.3686 0.0999987 38.7908 0.0999987C42.213 0.0999987 44.9019 0.499999 46.8575 1.3C48.8353 2.07778 49.8242 3.31111 49.8242 5C49.8242 6.68889 48.8353 7.93333 46.8575 8.73333C44.9019 9.51111 42.213 9.9 38.7908 9.9ZM38.7908 3.7C36.9686 3.7 35.513 3.82222 34.4242 4.06667C33.3575 4.28889 32.8242 4.6 32.8242 5C32.8242 5.42222 33.3575 5.74444 34.4242 5.96667C35.4908 6.18889 36.9464 6.3 38.7908 6.3C40.6353 6.3 42.0797 6.18889 43.1242 5.96667C44.1908 5.74444 44.7242 5.42222 44.7242 5C44.7242 4.57778 44.1908 4.25555 43.1242 4.03333C42.0575 3.81111 40.613 3.7 38.7908 3.7ZM41.1908 15.3H49.6908V22.0333H32.6575V22.9333H49.9242V26.1333H27.9242V19.3667H44.9575V18.4667H27.8575V15.3H36.3908V14.1667H26.4575V10.5H51.0908V14.1667H41.1908V15.3ZM71.5873 15.4667V0.533333H76.4206V15.4667H71.5873ZM58.454 9.7V11.1667H64.7206C65.8095 11.1667 66.854 11.0889 67.854 10.9333C68.854 10.7778 69.6762 10.5556 70.3206 10.2667V14.1C69.6984 14.3889 68.8873 14.6111 67.8873 14.7667C66.8873 14.9222 65.8095 15 64.654 15H53.654V6.13333H63.6873V4.66667H53.6206V0.833333H68.454V9.7H58.454ZM54.654 26.1333V16.3667H76.4206V26.1333H54.654ZM71.6206 20.3333H59.4206V22.2H71.6206V20.3333Z" fill="#01A69F"/>
<path d="M97.9838 26.1333V0.533333H102.817V26.1333H97.9838ZM87.6505 0.833333C90.0282 0.833333 91.8949 1.84444 93.2505 3.86667C94.606 5.88889 95.2838 8.94444 95.2838 13.0333C95.2838 17.1222 94.606 20.1778 93.2505 22.2C91.8949 24.2222 90.0282 25.2333 87.6505 25.2333C85.2505 25.2333 83.3727 24.2222 82.0171 22.2C80.6616 20.1778 79.9838 17.1222 79.9838 13.0333C79.9838 8.94444 80.6616 5.88889 82.0171 3.86667C83.3727 1.84444 85.2505 0.833333 87.6505 0.833333ZM87.6505 5.46667C85.7171 5.46667 84.7505 7.98889 84.7505 13.0333C84.7505 18.0778 85.7171 20.6 87.6505 20.6C89.5838 20.6 90.5505 18.0778 90.5505 13.0333C90.5505 10.3444 90.2838 8.41111 89.7505 7.23333C89.2393 6.05556 88.5393 5.46667 87.6505 5.46667ZM131.38 11.1333H128.514V19.5667H123.714V0.533333H128.514V6.23333H131.38V11.1333ZM115.98 4.8H106.147V0.833333H120.747V10.5H110.98V12.5333H116.947C118.058 12.5333 119.114 12.4667 120.114 12.3333C121.114 12.1778 121.936 11.9667 122.58 11.7V15.6C121.958 15.8889 121.114 16.1111 120.047 16.2667C119.002 16.4222 117.902 16.5 116.747 16.5H106.18V6.8H115.98V4.8ZM128.88 21.6667V26.1333H107.014V18.1H111.914V21.6667H128.88ZM138.41 16.9C138.41 15.7444 138.666 14.7889 139.177 14.0333C139.71 13.2778 140.477 12.4444 141.477 11.5333C142.21 10.8667 142.743 10.3111 143.077 9.86667C143.432 9.4 143.61 8.87778 143.61 8.3C143.61 7.47778 143.277 6.83333 142.61 6.36667C141.966 5.87778 141.099 5.63333 140.01 5.63333C138.966 5.63333 138.032 5.85556 137.21 6.3C136.41 6.72222 135.732 7.32222 135.177 8.1L131.143 5.73333C132.077 4.31111 133.332 3.21111 134.91 2.43333C136.51 1.65556 138.399 1.26667 140.577 1.26667C143.132 1.26667 145.177 1.81111 146.71 2.9C148.266 3.98889 149.043 5.5 149.043 7.43333C149.043 8.34444 148.888 9.14444 148.577 9.83333C148.288 10.5222 147.921 11.1111 147.477 11.6C147.055 12.0667 146.499 12.6111 145.81 13.2333C144.988 13.9667 144.388 14.5889 144.01 15.1C143.632 15.5889 143.443 16.1889 143.443 16.9H138.41ZM140.943 25.2667C140.032 25.2667 139.266 24.9778 138.643 24.4C138.043 23.8 137.743 23.0778 137.743 22.2333C137.743 21.3889 138.043 20.6889 138.643 20.1333C139.243 19.5556 140.01 19.2667 140.943 19.2667C141.877 19.2667 142.643 19.5556 143.243 20.1333C143.843 20.6889 144.143 21.3889 144.143 22.2333C144.143 23.0778 143.832 23.8 143.21 24.4C142.61 24.9778 141.855 25.2667 140.943 25.2667Z" fill="black"/>
</svg>
