<svg width="458" height="219" viewBox="0 0 458 219" fill="none" xmlns="http://www.w3.org/2000/svg">
<path d="M16.2444 17.7556H13.4444V10.0889H11C10.8815 12.4296 10.3852 14.1852 9.51111 15.3556C8.65185 16.5111 7.5037 17.0889 6.06667 17.0889C4.52593 17.0889 3.31111 16.4222 2.42222 15.0889C1.53333 13.7407 1.08889 11.7185 1.08889 9.02222C1.08889 6.32593 1.53333 4.31111 2.42222 2.97778C3.31111 1.62963 4.52593 0.955555 6.06667 0.955555C7.42963 0.955555 8.54074 1.48889 9.4 2.55555C10.2593 3.60741 10.7852 5.2 10.9778 7.33333H13.4444V0.688889H16.2444V17.7556ZM6.06667 14.4C6.73333 14.4 7.25926 13.9778 7.64444 13.1333C8.04444 12.2889 8.24444 10.9185 8.24444 9.02222C8.24444 7.14074 8.04444 5.77778 7.64444 4.93333C7.25926 4.07407 6.73333 3.64444 6.06667 3.64444C5.38519 3.64444 4.84444 4.07407 4.44444 4.93333C4.05926 5.77778 3.86667 7.14074 3.86667 9.02222C3.86667 12.6074 4.6 14.4 6.06667 14.4ZM26.3977 6.91111C24.1754 6.91111 22.3977 6.65185 21.0643 6.13333C19.7458 5.61481 19.0865 4.8 19.0865 3.68889C19.0865 2.57778 19.7458 1.76296 21.0643 1.24444C22.3828 0.725925 24.1606 0.466666 26.3977 0.466666C28.6347 0.466666 30.4051 0.725925 31.7088 1.24444C33.0273 1.76296 33.6865 2.57778 33.6865 3.68889C33.6865 4.8 33.0273 5.61481 31.7088 6.13333C30.3902 6.65185 28.6199 6.91111 26.3977 6.91111ZM26.3977 2.6C25.0791 2.6 24.0273 2.6963 23.2421 2.88889C22.4569 3.06667 22.0643 3.33333 22.0643 3.68889C22.0643 4.04444 22.4569 4.31852 23.2421 4.51111C24.0273 4.68889 25.0791 4.77778 26.3977 4.77778C27.7162 4.77778 28.7606 4.68889 29.531 4.51111C30.3162 4.31852 30.7088 4.04444 30.7088 3.68889C30.7088 3.33333 30.3162 3.06667 29.531 2.88889C28.7606 2.6963 27.7162 2.6 26.3977 2.6ZM27.7977 10.6222H33.5754V14.9556H21.9977V15.7778H33.7754V17.6889H19.2421V13.3333H30.8199V12.5111H19.1977V10.6222H24.9977V9.62222H18.2199V7.46667H34.5754V9.62222H27.7977V10.6222ZM48.5286 10.6444V0.688889H51.3509V10.6444H48.5286ZM39.2175 6.64444V8H43.4175C44.262 8 45.0472 7.94074 45.7731 7.82222C46.499 7.7037 47.0916 7.54074 47.5509 7.33333V9.6C47.1064 9.80741 46.5138 9.97037 45.7731 10.0889C45.0472 10.1926 44.2398 10.2444 43.3509 10.2444H36.4175V4.55556H43.4175V3.2H36.3731V0.955555H46.1953V6.64444H39.2175ZM37.062 17.6889V11.3556H51.3509V17.6889H37.062ZM48.5509 13.6889H39.8398V15.3778H48.5509V13.6889ZM61.593 0.444444C63.7707 0.444444 65.5411 0.777777 66.9041 1.44444C68.2819 2.11111 68.9707 3.07407 68.9707 4.33333C68.9707 5.57778 68.2819 6.53333 66.9041 7.2C65.5411 7.85185 63.7707 8.17778 61.593 8.17778C59.4004 8.17778 57.6226 7.85185 56.2596 7.2C54.8967 6.53333 54.2152 5.57778 54.2152 4.33333C54.2152 3.07407 54.8967 2.11111 56.2596 1.44444C57.6226 0.777777 59.4004 0.444444 61.593 0.444444ZM61.593 2.75556C60.2893 2.75556 59.23 2.8963 58.4152 3.17778C57.6004 3.45926 57.193 3.84444 57.193 4.33333C57.193 4.80741 57.6004 5.18519 58.4152 5.46667C59.23 5.73333 60.2893 5.86667 61.593 5.86667C62.8967 5.86667 63.9485 5.73333 64.7485 5.46667C65.5633 5.18519 65.9707 4.80741 65.9707 4.33333C65.9707 3.84444 65.5633 3.45926 64.7485 3.17778C63.9337 2.8963 62.8819 2.75556 61.593 2.75556ZM53.4152 11.6444V9.2H69.7707V11.6444H53.4152ZM68.993 15.2V17.6889H54.4152V12.7111H57.2819V15.2H68.993ZM17.6667 45.6667H15.3111V50.1333H13.7111V40.6889H15.3111V44.0889H17.6667V45.6667ZM6.33333 46.0444C5.8 47.0519 5.06667 47.8815 4.13333 48.5333C3.21481 49.1704 2.15556 49.5704 0.955556 49.7333V48.2C2.33333 47.9926 3.43704 47.3926 4.26667 46.4C5.0963 45.3926 5.56296 44.1333 5.66667 42.6222H1.15556V41.1778H11.5111V42.6222H7.28889C7.24444 43.4074 7.12593 44.1111 6.93333 44.7333L12.0222 48.0889L11.2222 49.3556L6.33333 46.0444ZM8.68889 50.7556C10.7481 50.7556 12.4074 51.0444 13.6667 51.6222C14.9259 52.1852 15.5556 53.0593 15.5556 54.2444C15.5556 55.4296 14.9259 56.3037 13.6667 56.8667C12.4074 57.4296 10.7481 57.7111 8.68889 57.7111C6.62963 57.7111 4.97037 57.4296 3.71111 56.8667C2.45185 56.3037 1.82222 55.4296 1.82222 54.2444C1.82222 53.0593 2.45185 52.1852 3.71111 51.6222C4.97037 51.0444 6.62963 50.7556 8.68889 50.7556ZM8.68889 56.3111C10.2148 56.3111 11.4593 56.1333 12.4222 55.7778C13.3852 55.4222 13.8667 54.9111 13.8667 54.2444C13.8667 53.563 13.3852 53.0444 12.4222 52.6889C11.4593 52.3333 10.2148 52.1556 8.68889 52.1556C7.16296 52.1556 5.91852 52.3333 4.95556 52.6889C3.99259 53.0444 3.51111 53.563 3.51111 54.2444C3.51111 54.9111 3.99259 55.4222 4.95556 55.7778C5.91852 56.1333 7.16296 56.3111 8.68889 56.3111ZM33.8199 57.7556H32.2865V49.2889H29.3532V57.4667H27.8421V40.7778H29.3532V47.6889H32.2865V40.6889H33.8199V57.7556ZM22.3088 41.1333C23.5532 41.1333 24.4865 41.7778 25.1088 43.0667C25.731 44.3556 26.0421 46.3407 26.0421 49.0222C26.0421 51.7185 25.731 53.7111 25.1088 55C24.4865 56.2741 23.5532 56.9111 22.3088 56.9111C21.0791 56.9111 20.1458 56.2741 19.5088 55C18.8865 53.7111 18.5754 51.7185 18.5754 49.0222C18.5754 43.763 19.8199 41.1333 22.3088 41.1333ZM22.3088 55.3778C23.0495 55.3778 23.5977 54.8593 23.9532 53.8222C24.3236 52.7704 24.5088 51.1704 24.5088 49.0222C24.5088 46.8741 24.3236 45.2815 23.9532 44.2444C23.5977 43.1926 23.0495 42.6667 22.3088 42.6667C21.568 42.6667 21.0125 43.1926 20.6421 44.2444C20.2865 45.2815 20.1088 46.8741 20.1088 49.0222C20.1088 51.1704 20.2865 52.7704 20.6421 53.8222C21.0125 54.8593 21.568 55.3778 22.3088 55.3778ZM49.3509 53.3778V40.6889H50.9731V53.3778H49.3509ZM41.2175 40.8889C42.2546 40.8889 43.1583 41.1037 43.9286 41.5333C44.699 41.9481 45.2842 42.5333 45.6842 43.2889C46.099 44.0296 46.3064 44.8741 46.3064 45.8222C46.3064 46.7704 46.099 47.6222 45.6842 48.3778C45.2842 49.1185 44.699 49.7037 43.9286 50.1333C43.1583 50.5481 42.2546 50.7556 41.2175 50.7556C40.1805 50.7556 39.2768 50.5481 38.5064 50.1333C37.7361 49.7037 37.1435 49.1185 36.7286 48.3778C36.3138 47.6222 36.1064 46.7704 36.1064 45.8222C36.1064 44.8741 36.3138 44.0296 36.7286 43.2889C37.1435 42.5333 37.7361 41.9481 38.5064 41.5333C39.2768 41.1037 40.1805 40.8889 41.2175 40.8889ZM41.2175 42.3111C40.1657 42.3111 39.3212 42.6296 38.6842 43.2667C38.0472 43.9037 37.7286 44.7556 37.7286 45.8222C37.7286 46.8889 38.0472 47.7407 38.6842 48.3778C39.3212 49 40.1657 49.3111 41.2175 49.3111C42.2694 49.3111 43.1138 49 43.7509 48.3778C44.3879 47.7407 44.7064 46.8889 44.7064 45.8222C44.7064 44.7556 44.3879 43.9037 43.7509 43.2667C43.1138 42.6296 42.2694 42.3111 41.2175 42.3111ZM51.4398 55.9556V57.4889H37.5286V51.9778H39.1509V55.9556H51.4398ZM58.9208 42.9111V41.3333H72.9431V52.6H71.2986V42.9111H58.9208ZM74.0764 56.8889H57.8986V55.3111H64.0986V47.4889H65.7431V55.3111H74.0764V56.8889ZM91.674 50.1778H75.4963V48.8H79.1629V46.5111C78.3185 46.2593 77.6592 45.9111 77.1852 45.4667C76.7111 45.0222 76.474 44.4815 76.474 43.8444C76.474 42.763 77.1407 41.9556 78.474 41.4222C79.8074 40.8741 81.5111 40.6 83.5852 40.6C85.6592 40.6 87.3555 40.8741 88.674 41.4222C90.0074 41.9556 90.674 42.763 90.674 43.8444C90.674 44.4815 90.437 45.0222 89.9629 45.4667C89.4889 45.9111 88.8296 46.2593 87.9852 46.5111V48.8H91.674V50.1778ZM83.5852 41.9778C82.0148 41.9778 80.7111 42.1333 79.674 42.4444C78.6518 42.7556 78.1407 43.2222 78.1407 43.8444C78.1407 44.4667 78.6518 44.9333 79.674 45.2444C80.6963 45.5556 82 45.7111 83.5852 45.7111C85.1555 45.7111 86.4518 45.5556 87.474 45.2444C88.4963 44.9333 89.0074 44.4667 89.0074 43.8444C89.0074 43.2222 88.4889 42.7556 87.4518 42.4444C86.4296 42.1333 85.1407 41.9778 83.5852 41.9778ZM86.3852 48.8V46.8667C85.5852 47.0148 84.6518 47.0889 83.5852 47.0889C82.5333 47.0889 81.5926 47.0148 80.7629 46.8667V48.8H86.3852ZM83.5852 51.6667C85.6889 51.6667 87.3926 51.9037 88.6963 52.3778C90 52.837 90.6518 53.6074 90.6518 54.6889C90.6518 55.7704 90 56.5481 88.6963 57.0222C87.3926 57.5111 85.6889 57.7556 83.5852 57.7556C81.4815 57.7556 79.7703 57.5111 78.4518 57.0222C77.1481 56.5481 76.4963 55.7704 76.4963 54.6889C76.4963 53.6074 77.1481 52.837 78.4518 52.3778C79.7703 51.9037 81.4815 51.6667 83.5852 51.6667ZM83.5852 56.4C85.1259 56.4 86.4074 56.2667 87.4296 56C88.4518 55.7333 88.9629 55.2963 88.9629 54.6889C88.9629 54.0963 88.4518 53.6741 87.4296 53.4222C86.4074 53.1556 85.1259 53.0222 83.5852 53.0222C82.0444 53.0222 80.7555 53.1556 79.7185 53.4222C78.6963 53.6741 78.1852 54.0963 78.1852 54.6889C78.1852 55.2963 78.6963 55.7333 79.7185 56C80.7555 56.2667 82.0444 56.4 83.5852 56.4ZM101.183 40.6667C103.287 40.6667 104.99 40.9185 106.294 41.4222C107.598 41.9111 108.249 42.6815 108.249 43.7333C108.249 44.7852 107.598 45.5556 106.294 46.0444C104.99 46.5333 103.287 46.7778 101.183 46.7778C99.0791 46.7778 97.368 46.5333 96.0495 46.0444C94.7458 45.5556 94.0939 44.7852 94.0939 43.7333C94.0939 42.6815 94.7458 41.9111 96.0495 41.4222C97.368 40.9185 99.0791 40.6667 101.183 40.6667ZM101.183 41.9778C99.5976 41.9778 98.2939 42.1259 97.2717 42.4222C96.2643 42.7037 95.7606 43.1407 95.7606 43.7333C95.7606 44.3259 96.2643 44.763 97.2717 45.0444C98.2791 45.3259 99.5828 45.4667 101.183 45.4667C102.768 45.4667 104.064 45.3259 105.072 45.0444C106.079 44.763 106.583 44.3259 106.583 43.7333C106.583 43.1407 106.072 42.7037 105.049 42.4222C104.042 42.1259 102.753 41.9778 101.183 41.9778ZM93.0939 49.3333V48H109.272V49.3333H93.0939ZM95.8273 54.7111V56.2667H108.405V57.5111H94.2717V53.6444H106.538V52.1333H94.2273V50.9111H108.116V54.7111H95.8273ZM122.731 45.4667C121.945 46.2667 120.908 46.8963 119.619 47.3556C118.345 47.8 117.056 48.037 115.753 48.0667V46.6889C116.656 46.6593 117.568 46.5111 118.486 46.2444C119.405 45.963 120.212 45.5704 120.908 45.0667C121.605 44.5481 122.079 43.9407 122.331 43.2444H116.086V41.8667H122.375V40H123.997V41.8667H130.264V43.2444H124.131C124.027 43.6741 123.879 44.0519 123.686 44.3778L130.664 46.7778L130.197 48.0889L122.731 45.4667ZM131.264 51.1111H115.086V49.7111H122.375V47.4889H123.975V49.7111H131.264V51.1111ZM130.086 52.9111V57.7333H128.486V54.2889H116.108V52.9111H130.086ZM146.128 53.3778V40.6889H147.75V53.3778H146.128ZM138.528 46.7111C137.98 47.837 137.239 48.7481 136.306 49.4444C135.387 50.1407 134.328 50.5704 133.128 50.7333V49.1778C134.536 48.9407 135.669 48.2444 136.528 47.0889C137.387 45.9333 137.854 44.4519 137.928 42.6444H133.328V41.1778H143.817V42.6444H139.528C139.513 43.6074 139.38 44.4889 139.128 45.2889L144.284 49.3556L143.395 50.6L138.528 46.7111ZM148.217 57.4889H134.128V52.1778H135.75V55.9556H148.217V57.4889ZM161.193 43.4667V45H150.659V43.4667H155.104V40.6444H156.726V43.4667H161.193ZM164.881 49.3556V57.7556H163.281V40.6889H164.881V47.7556H167.237V49.3556H164.881ZM155.926 46.5111C156.77 46.5111 157.533 46.7259 158.215 47.1556C158.896 47.5852 159.43 48.1926 159.815 48.9778C160.2 49.763 160.393 50.6667 160.393 51.6889C160.393 52.7111 160.2 53.6222 159.815 54.4222C159.43 55.2074 158.896 55.8148 158.215 56.2444C157.533 56.6741 156.77 56.8889 155.926 56.8889C155.067 56.8889 154.296 56.6741 153.615 56.2444C152.933 55.8148 152.4 55.2074 152.015 54.4222C151.63 53.6222 151.437 52.7111 151.437 51.6889C151.437 50.6667 151.63 49.763 152.015 48.9778C152.4 48.1926 152.933 47.5852 153.615 47.1556C154.296 46.7259 155.067 46.5111 155.926 46.5111ZM155.926 55.4C156.459 55.4 156.941 55.2519 157.37 54.9556C157.815 54.6444 158.163 54.2074 158.415 53.6444C158.681 53.0815 158.815 52.4296 158.815 51.6889C158.815 50.9481 158.681 50.2963 158.415 49.7333C158.163 49.1704 157.815 48.7407 157.37 48.4444C156.941 48.1333 156.459 47.9778 155.926 47.9778C155.378 47.9778 154.881 48.1333 154.437 48.4444C154.007 48.7407 153.659 49.1704 153.393 49.7333C153.141 50.2963 153.015 50.9481 153.015 51.6889C153.015 52.4296 153.141 53.0815 153.393 53.6444C153.659 54.2074 154.007 54.6444 154.437 54.9556C154.881 55.2519 155.378 55.4 155.926 55.4ZM168.901 42.9111V41.3333H182.924V52.6H181.279V42.9111H168.901ZM184.057 56.8889H167.879V55.3111H174.079V47.4889H175.724V55.3111H184.057V56.8889ZM204.938 57.7556H203.316V40.6889H204.938V57.7556ZM196.671 42.9111C196.656 44.9556 196.486 46.8444 196.16 48.5778L201.56 55.5333L200.293 56.5333L195.649 50.4444C195.116 52.2815 194.39 53.7407 193.471 54.8222C192.553 55.8889 191.486 56.5111 190.271 56.6889V55.0222C191.249 54.8148 192.093 54.1704 192.805 53.0889C193.516 51.9926 194.064 50.5704 194.449 48.8222C194.834 47.0593 195.042 45.0889 195.071 42.9111H190.627V41.3556H200.982V42.9111H196.671ZM215.358 44.0889C214.484 45.1259 213.387 45.9556 212.069 46.5778C210.765 47.1852 209.439 47.5037 208.091 47.5333V46.0667C209.158 46.0222 210.224 45.763 211.291 45.2889C212.358 44.8 213.269 44.1259 214.024 43.2667C214.795 42.3926 215.284 41.4 215.491 40.2889L217.091 40.5556C216.943 41.3704 216.654 42.1556 216.224 42.9111L223.113 46.3333L222.469 47.6222L215.358 44.0889ZM223.647 50.7333H207.469V49.3333H214.758V46.6H216.358V49.3333H223.647V50.7333ZM222.469 52.6V57.7333H220.869V54H208.491V52.6H222.469ZM244.061 49.3556V57.7556H242.461V40.6889H244.061V47.7556H246.417V49.3556H244.061ZM238.839 41.3556V45.3556C238.839 47.6074 238.491 49.5852 237.794 51.2889C237.098 52.9926 236.091 54.3111 234.772 55.2444C233.454 56.1778 231.891 56.6444 230.083 56.6444V55.0444C231.58 55.0444 232.861 54.6519 233.928 53.8667C235.009 53.0815 235.831 51.963 236.394 50.5111C236.957 49.0593 237.239 47.363 237.239 45.4222V42.8889H230.083V41.3556H238.839ZM262.214 45.2667V46.6444H248.281V40.7111H249.881V45.2667H262.214ZM247.059 49.9111V48.5111H263.237V49.9111H247.059ZM255.148 51.6C257.237 51.6 258.933 51.8444 260.237 52.3333C261.555 52.8222 262.214 53.6 262.214 54.6667C262.214 55.763 261.562 56.5481 260.259 57.0222C258.955 57.5111 257.251 57.7556 255.148 57.7556C253.044 57.7556 251.333 57.5111 250.014 57.0222C248.711 56.5333 248.059 55.7481 248.059 54.6667C248.059 53.6 248.718 52.8222 250.037 52.3333C251.355 51.8444 253.059 51.6 255.148 51.6ZM255.148 52.9556C253.637 52.9556 252.355 53.0963 251.303 53.3778C250.266 53.6444 249.748 54.0741 249.748 54.6667C249.748 55.2741 250.266 55.7185 251.303 56C252.34 56.2667 253.622 56.4 255.148 56.4C256.674 56.4 257.948 56.2667 258.97 56C260.007 55.7185 260.525 55.2741 260.525 54.6667C260.525 54.0741 260.007 53.6444 258.97 53.3778C257.933 53.0963 256.659 52.9556 255.148 52.9556ZM264.634 43.8V42.4H269.323V40.3778H270.945V42.4H275.634V43.8H264.634ZM281.612 47.1111H279.256V53.4889H277.656V40.6889H279.256V45.5111H281.612V47.1111ZM270.145 51.8444C268.753 51.8444 267.605 51.5333 266.701 50.9111C265.812 50.2889 265.368 49.437 265.368 48.3556C265.368 47.2741 265.812 46.4222 266.701 45.8C267.605 45.1778 268.753 44.8667 270.145 44.8667C271.538 44.8667 272.679 45.1778 273.568 45.8C274.456 46.4222 274.901 47.2741 274.901 48.3556C274.901 49.437 274.456 50.2889 273.568 50.9111C272.679 51.5333 271.538 51.8444 270.145 51.8444ZM270.145 46.1778C269.168 46.1778 268.382 46.3852 267.79 46.8C267.212 47.2 266.923 47.7185 266.923 48.3556C266.923 48.9926 267.212 49.5185 267.79 49.9333C268.382 50.3333 269.168 50.5333 270.145 50.5333C271.108 50.5333 271.879 50.3333 272.456 49.9333C273.049 49.5185 273.345 48.9926 273.345 48.3556C273.345 47.7185 273.049 47.2 272.456 46.8C271.879 46.3852 271.108 46.1778 270.145 46.1778ZM279.745 56V57.4889H265.812V52.9333H267.434V56H279.745ZM300.093 49.0889V40.6889H301.715V49.0889H300.093ZM292.004 40.8889C293.012 40.8889 293.893 41.0593 294.649 41.4C295.404 41.7407 295.982 42.2074 296.382 42.8C296.782 43.3926 296.982 44.0741 296.982 44.8444C296.982 45.6 296.782 46.2815 296.382 46.8889C295.982 47.4815 295.404 47.9481 294.649 48.2889C293.893 48.6148 293.012 48.7778 292.004 48.7778C290.982 48.7778 290.093 48.6148 289.338 48.2889C288.597 47.9481 288.026 47.4815 287.626 46.8889C287.226 46.2963 287.026 45.6148 287.026 44.8444C287.026 44.0741 287.226 43.3926 287.626 42.8C288.026 42.2074 288.597 41.7407 289.338 41.4C290.093 41.0593 290.982 40.8889 292.004 40.8889ZM292.004 42.2667C290.982 42.2667 290.16 42.4963 289.538 42.9556C288.915 43.4 288.604 44.0296 288.604 44.8444C288.604 45.6593 288.915 46.2889 289.538 46.7333C290.16 47.1778 290.982 47.4 292.004 47.4C293.026 47.4 293.849 47.1778 294.471 46.7333C295.093 46.2889 295.404 45.6593 295.404 44.8444C295.404 44.0296 295.093 43.4 294.471 42.9556C293.849 42.4963 293.026 42.2667 292.004 42.2667ZM289.893 54.4V56.2H302.16V57.4889H288.293V53.2H300.115V51.3778H288.249V50.0889H301.715V54.4H289.893ZM318.846 49.3556V57.7556H317.246V40.6889H318.846V47.7556H321.202V49.3556H318.846ZM310.78 42.9111C310.75 45.0593 310.587 46.9556 310.291 48.6L315.602 55.5556L314.335 56.5333L309.78 50.5111C309.246 52.3333 308.528 53.7778 307.624 54.8444C306.72 55.8963 305.668 56.5111 304.468 56.6889V55.0222C305.431 54.8148 306.261 54.1704 306.957 53.0889C307.654 51.9926 308.187 50.5704 308.557 48.8222C308.943 47.0741 309.15 45.1037 309.18 42.9111H304.824V41.3556H315.024V42.9111H310.78ZM335.288 57.7556V40.6889H336.911V57.7556H335.288ZM324.422 49.6444V55.1556H329.466C330.237 55.1556 331.007 55.0815 331.777 54.9333C332.548 54.7852 333.177 54.5852 333.666 54.3333V55.8667C333.177 56.1333 332.548 56.3407 331.777 56.4889C331.007 56.6222 330.222 56.6889 329.422 56.6889H322.822V48.1333H330.333V42.8889H322.799V41.3556H331.911V49.6444H324.422ZM342.242 44.6V46.0889H354.664V47.2444H340.686V43.5333H352.886V42.0889H340.664V40.9333H354.419V44.6H342.242ZM339.442 49.9111V48.6444H355.619V49.9111H339.442ZM342.153 54.9111V56.3556H354.753V57.5111H340.619V53.8444H352.908V52.4444H340.575V51.3111H354.464V54.9111H342.153ZM6.08889 86.8444C5.55556 87.7778 4.84444 88.5481 3.95556 89.1556C3.08148 89.7481 2.08148 90.1185 0.955556 90.2667V88.8C2.21481 88.5778 3.23704 88.0222 4.02222 87.1333C4.82222 86.2444 5.31852 85.1259 5.51111 83.7778H1.11111V82.3556H5.55556V80.3778H7.17778V82.3556H11.5556V83.7778H7.15556C7.0963 84.4148 6.97037 85 6.77778 85.5333L11.8222 88.7778L11.0444 90.0444L6.08889 86.8444ZM17.6667 86.2H15.3111V90.8444H13.7111V80.6889H15.3111V84.6H17.6667V86.2ZM8.68889 91.3778C10.763 91.3778 12.4222 91.637 13.6667 92.1556C14.9259 92.6593 15.5556 93.4593 15.5556 94.5556C15.5556 95.6519 14.9333 96.4519 13.6889 96.9556C12.4444 97.4593 10.7778 97.7111 8.68889 97.7111C6.6 97.7111 4.93333 97.4593 3.68889 96.9556C2.44444 96.4519 1.82222 95.6519 1.82222 94.5556C1.82222 93.4593 2.44444 92.6593 3.68889 92.1556C4.94815 91.637 6.61481 91.3778 8.68889 91.3778ZM8.68889 96.3556C10.2296 96.3556 11.4741 96.2074 12.4222 95.9111C13.3852 95.6148 13.8667 95.163 13.8667 94.5556C13.8667 93.9481 13.3852 93.4963 12.4222 93.2C11.4741 92.9037 10.2296 92.7556 8.68889 92.7556C7.14815 92.7556 5.8963 92.9037 4.93333 93.2C3.98519 93.4963 3.51111 93.9481 3.51111 94.5556C3.51111 95.163 3.98519 95.6148 4.93333 95.9111C5.8963 96.2074 7.14815 96.3556 8.68889 96.3556ZM25.9532 84.9556C25.1828 85.637 24.168 86.1556 22.9088 86.5111C21.6643 86.8667 20.3532 87.0593 18.9754 87.0889V85.8C20.4865 85.7556 21.8865 85.4963 23.1754 85.0222C24.4643 84.5333 25.2791 83.837 25.6199 82.9333H19.3088V81.6444H25.5977V80H27.2199V81.6444H33.4865V82.9333H27.3754C27.331 83.2 27.2125 83.5185 27.0199 83.8889L33.8421 85.8444L33.4199 87.1111L25.9532 84.9556ZM27.1977 91.2222H33.331V94.8667H21.0421V96.3333H33.6199V97.5111H19.4865V93.8222H31.7754V92.3778H19.4421V91.2222H25.5977V89.5778H18.3088V88.2667H34.4865V89.5778H27.1977V91.2222ZM46.8175 83.4667V85H36.2842V83.4667H40.7286V80.6444H42.3509V83.4667H46.8175ZM50.5064 89.3556V97.7556H48.9064V80.6889H50.5064V87.7556H52.862V89.3556H50.5064ZM41.5509 86.5111C42.3953 86.5111 43.1583 86.7259 43.8398 87.1556C44.5212 87.5852 45.0546 88.1926 45.4398 88.9778C45.8249 89.763 46.0175 90.6667 46.0175 91.6889C46.0175 92.7111 45.8249 93.6222 45.4398 94.4222C45.0546 95.2074 44.5212 95.8148 43.8398 96.2444C43.1583 96.6741 42.3953 96.8889 41.5509 96.8889C40.6916 96.8889 39.9212 96.6741 39.2398 96.2444C38.5583 95.8148 38.0249 95.2074 37.6398 94.4222C37.2546 93.6222 37.062 92.7111 37.062 91.6889C37.062 90.6667 37.2546 89.763 37.6398 88.9778C38.0249 88.1926 38.5583 87.5852 39.2398 87.1556C39.9212 86.7259 40.6916 86.5111 41.5509 86.5111ZM41.5509 95.4C42.0842 95.4 42.5657 95.2519 42.9953 94.9556C43.4398 94.6444 43.7879 94.2074 44.0398 93.6444C44.3064 93.0815 44.4398 92.4296 44.4398 91.6889C44.4398 90.9481 44.3064 90.2963 44.0398 89.7333C43.7879 89.1704 43.4398 88.7407 42.9953 88.4444C42.5657 88.1333 42.0842 87.9778 41.5509 87.9778C41.0027 87.9778 40.5064 88.1333 40.062 88.4444C39.6323 88.7407 39.2842 89.1704 39.0175 89.7333C38.7657 90.2963 38.6398 90.9481 38.6398 91.6889C38.6398 92.4296 38.7657 93.0815 39.0175 93.6444C39.2842 94.2074 39.6323 94.6444 40.062 94.9556C40.5064 95.2519 41.0027 95.4 41.5509 95.4ZM66.9485 97.7556V80.6889H68.5707V97.7556H66.9485ZM63.2374 85.3556C63.2374 87.6222 62.8745 89.6074 62.1485 91.3111C61.4226 93 60.3856 94.3111 59.0374 95.2444C57.7041 96.1778 56.1263 96.6444 54.3041 96.6444V95.0444C55.8004 95.0444 57.0967 94.6519 58.193 93.8667C59.2893 93.0815 60.1263 91.9704 60.7041 90.5333C61.2967 89.0815 61.593 87.3778 61.593 85.4222V82.8889H54.3041V81.3556H63.2374V85.3556ZM90.5852 97.7556H89.0074V80.6889H90.5852V97.7556ZM81.074 89.7333C80.1407 89.7333 79.3111 89.5481 78.5852 89.1778C77.8592 88.8074 77.2963 88.2889 76.8963 87.6222C76.4963 86.9556 76.2963 86.2 76.2963 85.3556C76.2963 84.5259 76.4963 83.7778 76.8963 83.1111C77.3111 82.4444 77.874 81.9259 78.5852 81.5556C79.3111 81.1852 80.1407 81 81.074 81C81.9926 81 82.8074 81.1852 83.5185 81.5556C84.2444 81.9259 84.8074 82.4444 85.2074 83.1111C85.6222 83.7778 85.8296 84.5259 85.8296 85.3556C85.8296 86.2 85.6222 86.9556 85.2074 87.6222C84.8074 88.2889 84.2444 88.8074 83.5185 89.1778C82.8074 89.5481 81.9926 89.7333 81.074 89.7333ZM81.074 82.4222C80.0963 82.4222 79.3111 82.7037 78.7185 83.2667C78.1259 83.8148 77.8296 84.5111 77.8296 85.3556C77.8296 86.2148 78.1259 86.9259 78.7185 87.4889C79.3111 88.037 80.0963 88.3111 81.074 88.3111C82.037 88.3111 82.8148 88.037 83.4074 87.4889C84 86.9259 84.2963 86.2148 84.2963 85.3556C84.2963 84.5111 83.9926 83.8148 83.3852 83.2667C82.7926 82.7037 82.0222 82.4222 81.074 82.4222ZM81.9852 91.4667C84.5629 91.4667 86.4148 91.237 87.5407 90.7778V92.3333C86.3407 92.7778 84.4963 93 82.0074 93H81.8518V97.7556H80.2518V93H75.5185V91.4667H81.9852ZM101.405 83.4667V84.9778H92.7606V83.4667H96.2717V80.6444H97.8717V83.4667H101.405ZM108.605 97.7556H107.094V89.2667H104.227V97.4667H102.716V80.7778H104.227V87.6889H107.094V80.6889H108.605V97.7556ZM97.1606 86.4667C97.8865 86.4667 98.531 86.6741 99.0939 87.0889C99.6717 87.4889 100.116 88.0815 100.427 88.8667C100.753 89.637 100.916 90.5704 100.916 91.6667C100.916 92.763 100.753 93.7037 100.427 94.4889C100.116 95.2741 99.6717 95.8741 99.0939 96.2889C98.531 96.6889 97.8865 96.8889 97.1606 96.8889C96.0495 96.8889 95.1532 96.4296 94.4717 95.5111C93.7902 94.5926 93.4495 93.3111 93.4495 91.6667C93.4495 90.0222 93.7902 88.7481 94.4717 87.8444C95.1532 86.9259 96.0495 86.4667 97.1606 86.4667ZM97.1606 95.4C97.8273 95.4 98.368 95.0667 98.7828 94.4C99.1976 93.7333 99.405 92.8222 99.405 91.6667C99.405 90.5111 99.1976 89.6 98.7828 88.9333C98.368 88.2667 97.8273 87.9333 97.1606 87.9333C96.4939 87.9333 95.9532 88.2667 95.5384 88.9333C95.1384 89.5852 94.9384 90.4963 94.9384 91.6667C94.9384 92.837 95.1384 93.7556 95.5384 94.4222C95.9532 95.0741 96.4939 95.4 97.1606 95.4ZM124.553 84.8V83.2889H128.664V80.6889H130.264V89.2222H128.664V84.8H124.553ZM120.442 85.5333C119.894 86.4519 119.168 87.2148 118.264 87.8222C117.36 88.4296 116.323 88.8296 115.153 89.0222V87.5111C116.175 87.3037 117.056 86.8815 117.797 86.2444C118.553 85.5926 119.123 84.8074 119.508 83.8889C119.908 82.9556 120.116 81.9481 120.131 80.8667L121.731 80.9556C121.731 82.1259 121.538 83.2222 121.153 84.2444L126.175 87.6L125.353 88.8222L120.442 85.5333ZM130.708 97.4889H116.664V93.2444H128.686V91.4889H116.619V90.2222H130.264V94.4444H118.264V96.2222H130.708V97.4889ZM147.75 90.2444H146.128V80.6889H147.75V90.2444ZM141.417 82.4889H133.439V81.1556H143.017V86.1333H135.084V88.4667H139.373C140.558 88.4667 141.617 88.4 142.55 88.2667C143.499 88.1185 144.232 87.9185 144.75 87.6667V89.0222C144.232 89.2741 143.491 89.4741 142.528 89.6222C141.565 89.7556 140.484 89.8222 139.284 89.8222H133.484V84.8444H141.417V82.4889ZM147.75 91V97.4889H134.128V91H135.706V92.8222H146.15V91H147.75ZM146.15 94.1556H135.706V96.1333H146.15V94.1556ZM163.77 93.6889V80.6889H165.37V93.6889H163.77ZM162.326 90.8444C161.348 91.3037 159.481 91.5333 156.726 91.5333H150.281V90.1111H155.126V87.6222H151.281V81.0667H160.659V82.4444H152.881V86.2444H160.859V87.6222H156.726V90.1111C159.437 90.1111 161.304 89.8815 162.326 89.4222V90.8444ZM165.837 97.4889H151.748V92.9556H153.37V96.0222H165.837V97.4889ZM297.321 89.5778H295.699V80.6889H297.321V89.5778ZM292.632 85.0889C292.632 85.9185 292.424 86.6519 292.01 87.2889C291.61 87.9259 291.024 88.4222 290.254 88.7778C289.499 89.1333 288.61 89.3111 287.587 89.3111C286.565 89.3111 285.669 89.1333 284.899 88.7778C284.143 88.4222 283.558 87.9259 283.143 87.2889C282.743 86.6519 282.543 85.9185 282.543 85.0889C282.543 84.2741 282.743 83.5481 283.143 82.9111C283.558 82.2741 284.143 81.7778 284.899 81.4222C285.669 81.0667 286.565 80.8889 287.587 80.8889C288.61 80.8889 289.499 81.0667 290.254 81.4222C291.024 81.7778 291.61 82.2741 292.01 82.9111C292.424 83.5481 292.632 84.2741 292.632 85.0889ZM284.143 85.0889C284.143 85.963 284.461 86.6519 285.099 87.1556C285.736 87.6593 286.565 87.9111 287.587 87.9111C288.624 87.9111 289.454 87.6593 290.076 87.1556C290.699 86.6519 291.01 85.963 291.01 85.0889C291.01 84.2148 290.699 83.5259 290.076 83.0222C289.454 82.5185 288.624 82.2667 287.587 82.2667C286.565 82.2667 285.736 82.5259 285.099 83.0444C284.461 83.5481 284.143 84.2296 284.143 85.0889ZM297.321 90.3556V97.4889H283.876V90.3556H285.476V92.3778H295.721V90.3556H297.321ZM295.721 93.7556H285.476V96.0889H295.721V93.7556ZM313.296 97.7778V80.6889H314.918V97.7556L313.296 97.7778ZM307.474 95.1333C308.244 95.1333 309.007 95.0593 309.763 94.9111C310.533 94.7481 311.17 94.5407 311.674 94.2889V95.8444C311.185 96.1111 310.555 96.3185 309.785 96.4667C309.03 96.6148 308.259 96.6889 307.474 96.6889H300.83V81.2444H302.474V95.1333H307.474ZM332.049 89.3556V97.7556H330.449V80.6889H332.049V87.7556H334.405V89.3556H332.049ZM324.694 95.1556C325.464 95.1556 326.235 95.0815 327.005 94.9333C327.775 94.7704 328.405 94.563 328.894 94.3111V95.8667C328.42 96.1185 327.79 96.3185 327.005 96.4667C326.22 96.6148 325.427 96.6889 324.627 96.6889H318.272V81.3556H327.627V82.8889H319.894V95.1556H324.694ZM336.714 97.1111C336.373 97.1111 336.084 97 335.847 96.7778C335.625 96.5407 335.514 96.2444 335.514 95.8889C335.514 95.5481 335.625 95.2667 335.847 95.0444C336.084 94.8074 336.373 94.6889 336.714 94.6889C337.054 94.6889 337.336 94.8074 337.558 95.0444C337.795 95.2667 337.914 95.5481 337.914 95.8889C337.914 96.2444 337.795 96.5407 337.558 96.7778C337.336 97 337.054 97.1111 336.714 97.1111ZM15.3111 169.356V177.756H13.7111V160.689H15.3111V167.756H17.6667V169.356H15.3111ZM7.95556 175.156C8.72593 175.156 9.4963 175.081 10.2667 174.933C11.037 174.77 11.6667 174.563 12.1556 174.311V175.867C11.6815 176.119 11.0519 176.319 10.2667 176.467C9.48148 176.615 8.68889 176.689 7.88889 176.689H1.53333V161.356H10.8889V162.889H3.15556V175.156H7.95556ZM32.9088 166.556H35.2643V168H32.9088V170.133H31.3088V160.689H32.9088V162.444H35.2643V163.911H32.9088V166.556ZM23.3977 169.511C22.3902 169.511 21.5088 169.333 20.7532 168.978C20.0125 168.607 19.4347 168.096 19.0199 167.444C18.6199 166.793 18.4199 166.044 18.4199 165.2C18.4199 164.356 18.6199 163.607 19.0199 162.956C19.4347 162.304 20.0125 161.8 20.7532 161.444C21.5088 161.074 22.3902 160.889 23.3977 160.889C24.4051 160.889 25.2791 161.074 26.0199 161.444C26.7754 161.8 27.3532 162.304 27.7532 162.956C28.1532 163.607 28.3532 164.356 28.3532 165.2C28.3532 166.044 28.1532 166.793 27.7532 167.444C27.3532 168.096 26.7754 168.607 26.0199 168.978C25.2791 169.333 24.4051 169.511 23.3977 169.511ZM23.3977 162.289C22.3754 162.289 21.5532 162.548 20.931 163.067C20.3236 163.585 20.0199 164.296 20.0199 165.2C20.0199 166.104 20.3236 166.815 20.931 167.333C21.5532 167.852 22.3754 168.111 23.3977 168.111C24.4051 168.111 25.2125 167.852 25.8199 167.333C26.4421 166.815 26.7532 166.104 26.7532 165.2C26.7532 164.296 26.4421 163.585 25.8199 163.067C25.2125 162.548 24.4051 162.289 23.3977 162.289ZM26.3754 170.756C28.4051 170.756 30.0421 171.044 31.2865 171.622C32.531 172.2 33.1532 173.074 33.1532 174.244C33.1532 175.415 32.531 176.289 31.2865 176.867C30.0421 177.43 28.4051 177.711 26.3754 177.711C24.3606 177.711 22.7236 177.43 21.4643 176.867C20.2199 176.289 19.5977 175.415 19.5977 174.244C19.5977 173.074 20.2199 172.2 21.4643 171.622C22.7236 171.044 24.3606 170.756 26.3754 170.756ZM26.3754 176.311C27.8717 176.311 29.094 176.133 30.0421 175.778C30.9902 175.422 31.4643 174.911 31.4643 174.244C31.4643 173.563 30.9902 173.044 30.0421 172.689C29.094 172.333 27.8717 172.156 26.3754 172.156C24.8791 172.156 23.6569 172.333 22.7088 172.689C21.7606 173.044 21.2865 173.563 21.2865 174.244C21.2865 174.911 21.7606 175.422 22.7088 175.778C23.6569 176.133 24.8791 176.311 26.3754 176.311ZM35.8842 163.8V162.4H40.5731V160.378H42.1953V162.4H46.8842V163.8H35.8842ZM52.862 167.111H50.5064V173.489H48.9064V160.689H50.5064V165.511H52.862V167.111ZM41.3953 171.844C40.0027 171.844 38.8546 171.533 37.9509 170.911C37.062 170.289 36.6175 169.437 36.6175 168.356C36.6175 167.274 37.062 166.422 37.9509 165.8C38.8546 165.178 40.0027 164.867 41.3953 164.867C42.7879 164.867 43.9286 165.178 44.8175 165.8C45.7064 166.422 46.1509 167.274 46.1509 168.356C46.1509 169.437 45.7064 170.289 44.8175 170.911C43.9286 171.533 42.7879 171.844 41.3953 171.844ZM41.3953 166.178C40.4175 166.178 39.6323 166.385 39.0398 166.8C38.462 167.2 38.1731 167.719 38.1731 168.356C38.1731 168.993 38.462 169.519 39.0398 169.933C39.6323 170.333 40.4175 170.533 41.3953 170.533C42.3583 170.533 43.1286 170.333 43.7064 169.933C44.299 169.519 44.5953 168.993 44.5953 168.356C44.5953 167.719 44.299 167.2 43.7064 166.8C43.1286 166.385 42.3583 166.178 41.3953 166.178ZM50.9953 176V177.489H37.062V172.933H38.6842V176H50.9953ZM67.3208 170.111V160.778H68.8319V164.022H71.8764V160.689H73.4097V170.667H71.8764V165.578H68.8319V170.111H67.3208ZM62.2319 166.222C61.3727 168.356 59.9356 169.652 57.9208 170.111V168.556C60.3356 167.815 61.5431 165.259 61.5431 160.889L63.0986 160.933C63.0986 162.281 62.9875 163.511 62.7653 164.622L66.6542 168.511L65.6097 169.622L62.2319 166.222ZM66.4764 171.067C68.5801 171.067 70.2986 171.333 71.6319 171.867C72.9801 172.4 73.6542 173.244 73.6542 174.4C73.6542 175.556 72.9875 176.4 71.6542 176.933C70.3208 177.452 68.5949 177.711 66.4764 177.711C64.3579 177.711 62.6319 177.452 61.2986 176.933C59.9801 176.4 59.3208 175.556 59.3208 174.4C59.3208 173.244 59.9875 172.4 61.3208 171.867C62.6542 171.333 64.3727 171.067 66.4764 171.067ZM66.4764 176.311C68.0319 176.311 69.3356 176.163 70.3875 175.867C71.4394 175.556 71.9653 175.067 71.9653 174.4C71.9653 173.733 71.4394 173.252 70.3875 172.956C69.3356 172.644 68.0319 172.489 66.4764 172.489C64.9208 172.489 63.6171 172.644 62.5653 172.956C61.5282 173.252 61.0097 173.733 61.0097 174.4C61.0097 175.067 61.5282 175.556 62.5653 175.867C63.6171 176.163 64.9208 176.311 66.4764 176.311ZM92.4518 166.311H90.0963V173.378H88.4963V160.689H90.0963V164.689H92.4518V166.311ZM80.874 166.6C80.2963 167.726 79.5555 168.652 78.6518 169.378C77.7481 170.104 76.7185 170.556 75.5629 170.733V169.156C76.5852 168.948 77.474 168.444 78.2296 167.644C79 166.844 79.5852 165.852 79.9852 164.667C80.3852 163.481 80.5852 162.215 80.5852 160.867L82.2074 160.956C82.2074 162.481 81.9852 163.881 81.5407 165.156L86.7629 169.356L85.7852 170.578L80.874 166.6ZM90.5852 175.956V177.489H76.6518V172.178H78.274V175.956H90.5852ZM98.7107 166.444V160.933H112.466V166.444H98.7107ZM100.288 162.244V165.133H110.866V162.244H100.288ZM106.377 170.911H112.511V174.733H100.222V176.289H112.8V177.511H98.6662V173.644H110.933V172.133H98.6218V170.911H104.777V169.2H97.4885V167.889H113.666V169.2H106.377V170.911ZM116.042 167.222V165.867H119.019V162.289H116.219V160.933H130.131V162.289H127.331V165.867H130.286V167.222H116.042ZM125.731 165.867V162.289H120.619V165.867H125.731ZM123.975 172.2H130.086V177.511H116.264V172.2H122.375V170.244H115.086V168.889H131.264V170.244H123.975V172.2ZM117.864 173.533V176.178H128.508V173.533H117.864ZM140.773 160.667C142.876 160.667 144.58 160.919 145.884 161.422C147.187 161.911 147.839 162.681 147.839 163.733C147.839 164.785 147.187 165.556 145.884 166.044C144.58 166.533 142.876 166.778 140.773 166.778C138.669 166.778 136.958 166.533 135.639 166.044C134.336 165.556 133.684 164.785 133.684 163.733C133.684 162.681 134.336 161.911 135.639 161.422C136.958 160.919 138.669 160.667 140.773 160.667ZM140.773 161.978C139.187 161.978 137.884 162.126 136.862 162.422C135.854 162.704 135.35 163.141 135.35 163.733C135.35 164.326 135.854 164.763 136.862 165.044C137.869 165.326 139.173 165.467 140.773 165.467C142.358 165.467 143.654 165.326 144.662 165.044C145.669 164.763 146.173 164.326 146.173 163.733C146.173 163.141 145.662 162.704 144.639 162.422C143.632 162.126 142.343 161.978 140.773 161.978ZM132.684 169.333V168H148.862V169.333H132.684ZM135.417 174.711V176.267H147.995V177.511H133.862V173.644H146.128V172.133H133.817V170.911H147.706V174.711H135.417ZM170.187 177.756H168.654V160.689H170.187V177.756ZM165.943 160.778V177.467H164.432V168.844H161.743V167.267H164.432V160.778H165.943ZM159.765 162.889C159.735 165.022 159.632 166.822 159.454 168.289L163.432 175.689L162.143 176.467L159.032 170.556C158.276 174.2 156.883 176.244 154.854 176.689V175.044C155.95 174.689 156.78 173.444 157.343 171.311C157.906 169.163 158.194 166.356 158.209 162.889H155.12V161.356H162.743V162.889H159.765ZM173.385 162.378V160.933H187.229V166.733H185.629V162.378H173.385ZM188.451 169.444H172.274V168.022H178.518V164.533H180.14V168.022H188.451V169.444ZM180.362 171.178C182.422 171.178 184.111 171.452 185.429 172C186.763 172.533 187.429 173.348 187.429 174.444C187.429 175.556 186.763 176.385 185.429 176.933C184.111 177.467 182.422 177.733 180.362 177.733C178.303 177.733 176.607 177.467 175.274 176.933C173.94 176.385 173.274 175.556 173.274 174.444C173.274 173.304 173.933 172.474 175.251 171.956C176.57 171.437 178.274 171.178 180.362 171.178ZM180.362 176.356C181.844 176.356 183.111 176.193 184.162 175.867C185.214 175.541 185.74 175.067 185.74 174.444C185.74 173.837 185.207 173.37 184.14 173.044C183.088 172.719 181.829 172.556 180.362 172.556C178.851 172.556 177.57 172.711 176.518 173.022C175.481 173.333 174.963 173.807 174.963 174.444C174.963 175.067 175.488 175.541 176.54 175.867C177.607 176.193 178.881 176.356 180.362 176.356ZM200.782 163.467V165H190.249V163.467H194.693V160.644H196.316V163.467H200.782ZM204.471 169.356V177.756H202.871V160.689H204.471V167.756H206.827V169.356H204.471ZM195.516 166.511C196.36 166.511 197.123 166.726 197.805 167.156C198.486 167.585 199.019 168.193 199.405 168.978C199.79 169.763 199.982 170.667 199.982 171.689C199.982 172.711 199.79 173.622 199.405 174.422C199.019 175.207 198.486 175.815 197.805 176.244C197.123 176.674 196.36 176.889 195.516 176.889C194.656 176.889 193.886 176.674 193.205 176.244C192.523 175.815 191.99 175.207 191.605 174.422C191.219 173.622 191.027 172.711 191.027 171.689C191.027 170.667 191.219 169.763 191.605 168.978C191.99 168.193 192.523 167.585 193.205 167.156C193.886 166.726 194.656 166.511 195.516 166.511ZM195.516 175.4C196.049 175.4 196.531 175.252 196.96 174.956C197.405 174.644 197.753 174.207 198.005 173.644C198.271 173.081 198.405 172.43 198.405 171.689C198.405 170.948 198.271 170.296 198.005 169.733C197.753 169.17 197.405 168.741 196.96 168.444C196.531 168.133 196.049 167.978 195.516 167.978C194.968 167.978 194.471 168.133 194.027 168.444C193.597 168.741 193.249 169.17 192.982 169.733C192.731 170.296 192.605 170.948 192.605 171.689C192.605 172.43 192.731 173.081 192.982 173.644C193.249 174.207 193.597 174.644 194.027 174.956C194.471 175.252 194.968 175.4 195.516 175.4ZM222.647 177.756H221.069V172.4H218.091V170.822H221.069V166.6H218.091V165.022H221.069V160.689H222.647V177.756ZM217.158 161.356V176.689H208.38V161.356H217.158ZM215.58 175.133V162.911H209.98V175.133H215.58ZM226.733 174.689C227.089 174.689 227.378 174.807 227.6 175.044C227.822 175.267 227.933 175.548 227.933 175.889C227.933 176.067 227.911 176.244 227.867 176.422C227.837 176.6 227.763 176.852 227.644 177.178L226.689 180.222H225.578L226.355 177C226.104 176.926 225.904 176.793 225.755 176.6C225.607 176.407 225.533 176.17 225.533 175.889C225.533 175.548 225.644 175.267 225.867 175.044C226.104 174.807 226.393 174.689 226.733 174.689ZM150.259 203.289V202H154.948V200.378H156.57V202H161.259V203.289H150.259ZM167.237 205.844H164.881V209.622H163.281V200.689H164.881V204.333H167.237V205.844ZM155.77 209.511C154.393 209.511 153.259 209.281 152.37 208.822C151.496 208.363 151.059 207.704 151.059 206.844C151.059 206 151.496 205.348 152.37 204.889C153.259 204.43 154.393 204.2 155.77 204.2C157.133 204.2 158.252 204.43 159.126 204.889C160.015 205.348 160.459 206 160.459 206.844C160.459 207.704 160.022 208.363 159.148 208.822C158.274 209.281 157.148 209.511 155.77 209.511ZM155.77 205.4C154.793 205.4 154.015 205.533 153.437 205.8C152.859 206.067 152.57 206.415 152.57 206.844C152.57 207.289 152.859 207.644 153.437 207.911C154.015 208.178 154.793 208.311 155.77 208.311C156.733 208.311 157.504 208.178 158.081 207.911C158.659 207.644 158.948 207.289 158.948 206.844C158.948 206.415 158.659 206.067 158.081 205.8C157.518 205.533 156.748 205.4 155.77 205.4ZM165.326 216.244V217.489H151.459V213.444H163.304V211.822H151.415V210.6H164.881V214.622H153.059V216.244H165.326ZM180.14 205.333C179.237 206.667 178.118 207.726 176.785 208.511C175.451 209.296 174.074 209.689 172.651 209.689V208.089C173.807 208.104 174.933 207.778 176.029 207.111C177.125 206.43 178.059 205.511 178.829 204.356C179.6 203.2 180.103 201.941 180.34 200.578L181.985 200.867C181.792 201.874 181.437 202.926 180.918 204.022L187.962 208.289L187.207 209.667L180.14 205.333ZM181.163 213.178V218.156H179.54V213.178H172.274V211.622H188.451V213.178H181.163ZM207.71 210.2V200.689H209.332V210.2H207.71ZM204.644 205.289C204.644 206.163 204.436 206.933 204.021 207.6C203.621 208.267 203.036 208.785 202.266 209.156C201.51 209.526 200.621 209.711 199.599 209.711C198.577 209.711 197.681 209.526 196.91 209.156C196.155 208.785 195.57 208.267 195.155 207.6C194.755 206.933 194.555 206.163 194.555 205.289C194.555 204.43 194.755 203.667 195.155 203C195.57 202.333 196.155 201.815 196.91 201.444C197.681 201.074 198.577 200.889 199.599 200.889C200.621 200.889 201.51 201.074 202.266 201.444C203.036 201.815 203.621 202.333 204.021 203C204.436 203.667 204.644 204.43 204.644 205.289ZM196.155 205.289C196.155 206.222 196.466 206.963 197.088 207.511C197.725 208.044 198.562 208.311 199.599 208.311C200.621 208.311 201.444 208.044 202.066 207.511C202.703 206.963 203.021 206.222 203.021 205.289C203.021 204.356 202.703 203.622 202.066 203.089C201.444 202.556 200.621 202.289 199.599 202.289C198.577 202.289 197.747 202.556 197.11 203.089C196.473 203.622 196.155 204.356 196.155 205.289ZM206.444 214.689C205.984 215.489 205.407 216.141 204.71 216.644C204.014 217.133 203.266 217.415 202.466 217.489L199.599 214.756C199.125 215.556 198.547 216.193 197.866 216.667C197.184 217.141 196.451 217.415 195.666 217.489V215.956C196.273 215.896 196.844 215.622 197.377 215.133C197.925 214.644 198.37 214.007 198.71 213.222C199.066 212.437 199.273 211.593 199.332 210.689L200.866 210.911C200.836 211.667 200.658 212.526 200.332 213.489L202.888 215.867C203.718 215.644 204.436 215.044 205.044 214.067C205.651 213.089 205.999 211.963 206.088 210.689L207.644 210.933C207.54 211.896 207.37 212.711 207.132 213.378L210.644 216.356L209.688 217.556L206.444 214.689ZM219.775 203.689C218.9 204.637 217.804 205.393 216.486 205.956C215.182 206.504 213.849 206.793 212.486 206.822V205.4C213.552 205.356 214.619 205.119 215.686 204.689C216.752 204.244 217.663 203.644 218.419 202.889C219.189 202.119 219.678 201.252 219.886 200.289L221.486 200.578C221.323 201.319 221.056 201.978 220.686 202.556L227.486 205.578L226.908 206.844L219.775 203.689ZM228.041 209.689H211.863V208.311H228.041V209.689ZM226.863 211.067V217.511H213.041V211.067H214.619V212.867H225.286V211.067H226.863ZM225.286 214.178H214.619V216.178H225.286V214.178ZM242.906 217.778V200.689H244.528V217.756L242.906 217.778ZM237.083 215.133C237.854 215.133 238.617 215.059 239.372 214.911C240.143 214.748 240.78 214.541 241.283 214.289V215.844C240.794 216.111 240.165 216.319 239.394 216.467C238.639 216.615 237.869 216.689 237.083 216.689H230.439V201.244H232.083V215.133H237.083ZM261.659 209.356V217.756H260.059V200.689H261.659V207.756H264.014V209.356H261.659ZM254.303 215.156C255.074 215.156 255.844 215.081 256.614 214.933C257.385 214.77 258.014 214.563 258.503 214.311V215.867C258.029 216.119 257.4 216.319 256.614 216.467C255.829 216.615 255.037 216.689 254.237 216.689H247.881V201.356H257.237V202.889H249.503V215.156H254.303ZM266.323 217.111C265.982 217.111 265.693 217 265.456 216.778C265.234 216.541 265.123 216.244 265.123 215.889C265.123 215.548 265.234 215.267 265.456 215.044C265.693 214.807 265.982 214.689 266.323 214.689C266.664 214.689 266.945 214.807 267.168 215.044C267.405 215.267 267.523 215.548 267.523 215.889C267.523 216.244 267.405 216.541 267.168 216.778C266.945 217 266.664 217.111 266.323 217.111Z" fill="black"/>
<path d="M185.718 93.3778V80.6889H187.34V93.3778H185.718ZM177.585 80.8889C178.622 80.8889 179.525 81.1037 180.296 81.5333C181.066 81.9481 181.651 82.5333 182.051 83.2889C182.466 84.0296 182.674 84.8741 182.674 85.8222C182.674 86.7704 182.466 87.6222 182.051 88.3778C181.651 89.1185 181.066 89.7037 180.296 90.1333C179.525 90.5481 178.622 90.7556 177.585 90.7556C176.548 90.7556 175.644 90.5481 174.874 90.1333C174.103 89.7037 173.511 89.1185 173.096 88.3778C172.681 87.6222 172.474 86.7704 172.474 85.8222C172.474 84.8741 172.681 84.0296 173.096 83.2889C173.511 82.5333 174.103 81.9481 174.874 81.5333C175.644 81.1037 176.548 80.8889 177.585 80.8889ZM177.585 82.3111C176.533 82.3111 175.688 82.6296 175.051 83.2667C174.414 83.9037 174.096 84.7556 174.096 85.8222C174.096 86.8889 174.414 87.7407 175.051 88.3778C175.688 89 176.533 89.3111 177.585 89.3111C178.637 89.3111 179.481 89 180.118 88.3778C180.755 87.7407 181.074 86.8889 181.074 85.8222C181.074 84.7556 180.755 83.9037 180.118 83.2667C179.481 82.6296 178.637 82.3111 177.585 82.3111ZM187.807 95.9556V97.4889H173.896V91.9778H175.518V95.9556H187.807ZM197.627 84.8667C196.856 85.5778 195.849 86.1333 194.605 86.5333C193.375 86.9185 192.086 87.1259 190.738 87.1556V85.7556C191.716 85.7259 192.679 85.5778 193.627 85.3111C194.59 85.0296 195.412 84.637 196.093 84.1333C196.775 83.6148 197.197 83.0074 197.36 82.3111H191.027V80.9333H204.893V82.3111H199.093C199.019 82.8593 198.871 83.3185 198.649 83.6889L205.338 85.8889L204.893 87.2222L197.627 84.8667ZM206.049 90H189.871V88.6H206.049V90ZM197.96 91.6667C200.064 91.6667 201.768 91.9037 203.071 92.3778C204.375 92.837 205.027 93.6074 205.027 94.6889C205.027 95.7704 204.375 96.5481 203.071 97.0222C201.768 97.5111 200.064 97.7556 197.96 97.7556C195.856 97.7556 194.145 97.5111 192.827 97.0222C191.523 96.5481 190.871 95.7704 190.871 94.6889C190.871 93.6074 191.523 92.837 192.827 92.3778C194.145 91.9037 195.856 91.6667 197.96 91.6667ZM197.96 96.4C199.501 96.4 200.782 96.2667 201.805 96C202.827 95.7333 203.338 95.2963 203.338 94.6889C203.338 94.0963 202.827 93.6741 201.805 93.4222C200.782 93.1556 199.501 93.0222 197.96 93.0222C196.419 93.0222 195.131 93.1556 194.093 93.4222C193.071 93.6741 192.56 94.0963 192.56 94.6889C192.56 95.2963 193.071 95.7333 194.093 96C195.131 96.2667 196.419 96.4 197.96 96.4ZM220.958 93.6889V80.6889H222.558V93.6889H220.958ZM219.513 90.8444C218.536 91.3037 216.669 91.5333 213.913 91.5333H207.469V90.1111H212.313V87.6222H208.469V81.0667H217.847V82.4444H210.069V86.2444H218.047V87.6222H213.913V90.1111C216.624 90.1111 218.491 89.8815 219.513 89.4222V90.8444ZM223.024 97.4889H208.936V92.9556H210.558V96.0222H223.024V97.4889ZM244.061 89.3556V97.7556H242.461V80.6889H244.061V87.7556H246.417V89.3556H244.061ZM236.35 81.1778C236.32 83.963 236.106 86.3481 235.706 88.3333L240.928 95.6889L239.617 96.6444L235.172 90.3111C234.624 92.2222 233.876 93.7333 232.928 94.8444C231.98 95.9407 230.883 96.5556 229.639 96.6889V95.0222C230.72 94.8296 231.639 94.0963 232.394 92.8222C233.165 91.5481 233.743 89.8963 234.128 87.8667C234.513 85.837 234.713 83.5926 234.728 81.1333L236.35 81.1778ZM262.237 89.5778H260.637V85.8H257.103C256.94 86.8519 256.429 87.6963 255.57 88.3333C254.711 88.9704 253.6 89.2889 252.237 89.2889C251.229 89.2889 250.348 89.1111 249.592 88.7556C248.851 88.4 248.274 87.9037 247.859 87.2667C247.459 86.6296 247.259 85.9037 247.259 85.0889C247.259 84.2889 247.459 83.5704 247.859 82.9333C248.274 82.2963 248.851 81.8 249.592 81.4444C250.348 81.0889 251.229 80.9111 252.237 80.9111C253.555 80.9111 254.644 81.2148 255.503 81.8222C256.362 82.4296 256.888 83.237 257.081 84.2444H260.637V80.6889H262.237V89.5778ZM252.237 87.8667C253.244 87.8667 254.059 87.6222 254.681 87.1333C255.303 86.6296 255.614 85.9481 255.614 85.0889C255.614 84.2444 255.303 83.5778 254.681 83.0889C254.059 82.5852 253.244 82.3333 252.237 82.3333C251.229 82.3333 250.414 82.5852 249.792 83.0889C249.17 83.5778 248.859 84.2444 248.859 85.0889C248.859 85.9481 249.17 86.6296 249.792 87.1333C250.414 87.6222 251.229 87.8667 252.237 87.8667ZM262.237 90.3556V97.4889H248.77V90.3556H250.348V92.3778H260.659V90.3556H262.237ZM260.659 93.7556H250.348V96.0889H260.659V93.7556ZM281.612 85.6667H279.256V90.1333H277.656V80.6889H279.256V84.0889H281.612V85.6667ZM270.279 86.0444C269.745 87.0519 269.012 87.8815 268.079 88.5333C267.16 89.1704 266.101 89.5704 264.901 89.7333V88.2C266.279 87.9926 267.382 87.3926 268.212 86.4C269.042 85.3926 269.508 84.1333 269.612 82.6222H265.101V81.1778H275.456V82.6222H271.234C271.19 83.4074 271.071 84.1111 270.879 84.7333L275.968 88.0889L275.168 89.3556L270.279 86.0444ZM272.634 90.7556C274.693 90.7556 276.353 91.0444 277.612 91.6222C278.871 92.1852 279.501 93.0593 279.501 94.2444C279.501 95.4296 278.871 96.3037 277.612 96.8667C276.353 97.4296 274.693 97.7111 272.634 97.7111C270.575 97.7111 268.916 97.4296 267.656 96.8667C266.397 96.3037 265.768 95.4296 265.768 94.2444C265.768 93.0593 266.397 92.1852 267.656 91.6222C268.916 91.0444 270.575 90.7556 272.634 90.7556ZM272.634 96.3111C274.16 96.3111 275.405 96.1333 276.368 95.7778C277.33 95.4222 277.812 94.9111 277.812 94.2444C277.812 93.563 277.33 93.0444 276.368 92.6889C275.405 92.3333 274.16 92.1556 272.634 92.1556C271.108 92.1556 269.864 92.3333 268.901 92.6889C267.938 93.0444 267.456 93.563 267.456 94.2444C267.456 94.9111 267.938 95.4222 268.901 95.7778C269.864 96.1333 271.108 96.3111 272.634 96.3111ZM247.652 177.756V160.689H249.274V177.756H247.652ZM243.941 165.356C243.941 167.622 243.578 169.607 242.852 171.311C242.126 173 241.089 174.311 239.741 175.244C238.407 176.178 236.829 176.644 235.007 176.644V175.044C236.504 175.044 237.8 174.652 238.896 173.867C239.992 173.081 240.829 171.97 241.407 170.533C242 169.081 242.296 167.378 242.296 165.422V162.889H235.007V161.356H243.941V165.356ZM266.983 169.578H265.383V165.8H261.849C261.686 166.852 261.175 167.696 260.316 168.333C259.457 168.97 258.346 169.289 256.983 169.289C255.975 169.289 255.094 169.111 254.338 168.756C253.597 168.4 253.02 167.904 252.605 167.267C252.205 166.63 252.005 165.904 252.005 165.089C252.005 164.289 252.205 163.57 252.605 162.933C253.02 162.296 253.597 161.8 254.338 161.444C255.094 161.089 255.975 160.911 256.983 160.911C258.301 160.911 259.39 161.215 260.249 161.822C261.109 162.43 261.634 163.237 261.827 164.244H265.383V160.689H266.983V169.578ZM256.983 167.867C257.99 167.867 258.805 167.622 259.427 167.133C260.049 166.63 260.36 165.948 260.36 165.089C260.36 164.244 260.049 163.578 259.427 163.089C258.805 162.585 257.99 162.333 256.983 162.333C255.975 162.333 255.16 162.585 254.538 163.089C253.916 163.578 253.605 164.244 253.605 165.089C253.605 165.948 253.916 166.63 254.538 167.133C255.16 167.622 255.975 167.867 256.983 167.867ZM266.983 170.356V177.489H253.516V170.356H255.094V172.378H265.405V170.356H266.983ZM265.405 173.756H255.094V176.089H265.405V173.756ZM284.047 169.2V177.756H282.447V160.689H284.047V167.578H286.358V169.2H284.047ZM270.025 162.956V161.378H279.247V172.289H277.625V162.956H270.025ZM275.447 175.111C278.054 175.111 279.899 174.867 280.98 174.378V175.956C279.854 176.444 278.017 176.689 275.469 176.689H269.403V175.111H272.425V167.644H274.025V175.111H275.447ZM304.839 177.756V160.689H306.461V177.756H304.839ZM301.128 165.356C301.128 167.622 300.765 169.607 300.039 171.311C299.313 173 298.276 174.311 296.928 175.244C295.595 176.178 294.017 176.644 292.195 176.644V175.044C293.691 175.044 294.987 174.652 296.084 173.867C297.18 173.081 298.017 171.97 298.595 170.533C299.187 169.081 299.484 167.378 299.484 165.422V162.889H292.195V161.356H301.128V165.356ZM325.948 167.067H323.637V173.667H322.015V160.689H323.637V165.489H325.948V167.067ZM309.815 162.489V161H318.903V167.622H317.303V162.489H309.815ZM320.57 170.067C319.607 170.526 317.741 170.756 314.97 170.756H308.992V169.289H312.37V165.044H313.97V169.289H315.037C317.703 169.289 319.548 169.059 320.57 168.6V170.067ZM324.126 176.022V177.489H310.192V172.556H311.792V176.022H324.126ZM342.101 177.756H340.568V160.689H342.101V177.756ZM338.19 160.778V177.467H336.657V169.533H334.323C334.279 172.037 333.946 173.896 333.323 175.111C332.701 176.311 331.79 176.911 330.59 176.911C329.36 176.911 328.427 176.274 327.79 175C327.168 173.711 326.857 171.719 326.857 169.022C326.857 163.763 328.101 161.133 330.59 161.133C332.916 161.133 334.153 163.393 334.301 167.911H336.657V160.778H338.19ZM330.59 175.378C331.331 175.378 331.879 174.859 332.234 173.822C332.605 172.77 332.79 171.17 332.79 169.022C332.79 166.874 332.605 165.281 332.234 164.244C331.879 163.193 331.331 162.667 330.59 162.667C329.849 162.667 329.294 163.193 328.923 164.244C328.568 165.281 328.39 166.874 328.39 169.022C328.39 171.17 328.568 172.77 328.923 173.822C329.294 174.859 329.849 175.378 330.59 175.378ZM359.365 177.756H357.765V168.578H353.432V167H357.765V160.689H359.365V177.756ZM350.854 161.178C350.825 163.593 350.662 165.733 350.365 167.6L355.521 175.8L354.21 176.733L349.877 169.711C349.343 171.815 348.61 173.474 347.677 174.689C346.743 175.889 345.64 176.556 344.365 176.689V175C345.417 174.807 346.306 174.074 347.032 172.8C347.758 171.526 348.299 169.881 348.654 167.867C349.025 165.837 349.217 163.593 349.232 161.133L350.854 161.178ZM379.624 169.289V160.689H381.247V169.289H379.624ZM378.358 167.756C377.839 168.007 377.106 168.207 376.158 168.356C375.224 168.489 374.135 168.556 372.891 168.556H366.38V167.2H368.602V162.511H366.424V161.156H377.624V162.511H375.424V167.089C376.654 166.956 377.632 166.711 378.358 166.356V167.756ZM372.202 167.2C372.972 167.2 373.535 167.185 373.891 167.156V162.511H370.135V167.2H372.202ZM381.691 177.489H367.624V173.311H379.647V171.578H367.602V170.289H381.247V174.467H369.224V176.222H381.691V177.489ZM399.955 176.889H383.778V175.333H387.622V170.467C386.659 170.037 385.918 169.459 385.4 168.733C384.881 167.993 384.622 167.141 384.622 166.178C384.622 165.141 384.918 164.237 385.511 163.467C386.103 162.696 386.948 162.104 388.044 161.689C389.14 161.259 390.415 161.044 391.866 161.044C393.318 161.044 394.592 161.259 395.689 161.689C396.785 162.104 397.629 162.696 398.222 163.467C398.815 164.237 399.111 165.141 399.111 166.178C399.111 167.141 398.852 167.993 398.333 168.733C397.815 169.459 397.074 170.037 396.111 170.467V175.333H399.955V176.889ZM391.866 162.578C390.755 162.578 389.778 162.726 388.933 163.022C388.089 163.319 387.437 163.741 386.978 164.289C386.518 164.837 386.289 165.467 386.289 166.178C386.289 166.889 386.518 167.519 386.978 168.067C387.437 168.615 388.089 169.037 388.933 169.333C389.778 169.63 390.755 169.778 391.866 169.778C392.978 169.778 393.955 169.63 394.8 169.333C395.644 169.037 396.296 168.615 396.755 168.067C397.215 167.519 397.444 166.889 397.444 166.178C397.444 165.467 397.215 164.837 396.755 164.289C396.296 163.741 395.644 163.319 394.8 163.022C393.955 162.726 392.978 162.578 391.866 162.578ZM394.511 175.333V171.022C393.666 171.215 392.785 171.311 391.866 171.311C390.874 171.311 389.992 171.215 389.222 171.022V175.333H394.511ZM417.553 176.889H401.375V175.356H408.62V171.844H402.531V165.844H414.864V162.867H402.509V161.356H416.464V167.311H404.109V170.333H416.709V171.844H410.22V175.356H417.553V176.889ZM434.278 163.467V165H423.745V163.467H428.19V160.644H429.812V163.467H434.278ZM437.967 169.356V177.756H436.367V160.689H437.967V167.756H440.323V169.356H437.967ZM429.012 166.511C429.856 166.511 430.619 166.726 431.301 167.156C431.982 167.585 432.516 168.193 432.901 168.978C433.286 169.763 433.478 170.667 433.478 171.689C433.478 172.711 433.286 173.622 432.901 174.422C432.516 175.207 431.982 175.815 431.301 176.244C430.619 176.674 429.856 176.889 429.012 176.889C428.153 176.889 427.382 176.674 426.701 176.244C426.019 175.815 425.486 175.207 425.101 174.422C424.716 173.622 424.523 172.711 424.523 171.689C424.523 170.667 424.716 169.763 425.101 168.978C425.486 168.193 426.019 167.585 426.701 167.156C427.382 166.726 428.153 166.511 429.012 166.511ZM429.012 175.4C429.545 175.4 430.027 175.252 430.456 174.956C430.901 174.644 431.249 174.207 431.501 173.644C431.767 173.081 431.901 172.43 431.901 171.689C431.901 170.948 431.767 170.296 431.501 169.733C431.249 169.17 430.901 168.741 430.456 168.444C430.027 168.133 429.545 167.978 429.012 167.978C428.464 167.978 427.967 168.133 427.523 168.444C427.093 168.741 426.745 169.17 426.478 169.733C426.227 170.296 426.101 170.948 426.101 171.689C426.101 172.43 426.227 173.081 426.478 173.644C426.745 174.207 427.093 174.644 427.523 174.956C427.967 175.252 428.464 175.4 429.012 175.4ZM456.121 165.778V167.244H442.187V160.711H443.787V165.778H456.121ZM440.965 170.8V169.356H457.143V170.8H440.965ZM456.276 176.044V177.511H442.143V172.467H443.765V176.044H456.276ZM15.3111 209.356V217.756H13.7111V200.689H15.3111V207.756H17.6667V209.356H15.3111ZM7.95556 215.156C8.72593 215.156 9.4963 215.081 10.2667 214.933C11.037 214.77 11.6667 214.563 12.1556 214.311V215.867C11.6815 216.119 11.0519 216.319 10.2667 216.467C9.48148 216.615 8.68889 216.689 7.88889 216.689H1.53333V201.356H10.8889V202.889H3.15556V215.156H7.95556ZM32.9088 206.556H35.2643V208H32.9088V210.133H31.3088V200.689H32.9088V202.444H35.2643V203.911H32.9088V206.556ZM23.3977 209.511C22.3902 209.511 21.5088 209.333 20.7532 208.978C20.0125 208.607 19.4347 208.096 19.0199 207.444C18.6199 206.793 18.4199 206.044 18.4199 205.2C18.4199 204.356 18.6199 203.607 19.0199 202.956C19.4347 202.304 20.0125 201.8 20.7532 201.444C21.5088 201.074 22.3902 200.889 23.3977 200.889C24.4051 200.889 25.2791 201.074 26.0199 201.444C26.7754 201.8 27.3532 202.304 27.7532 202.956C28.1532 203.607 28.3532 204.356 28.3532 205.2C28.3532 206.044 28.1532 206.793 27.7532 207.444C27.3532 208.096 26.7754 208.607 26.0199 208.978C25.2791 209.333 24.4051 209.511 23.3977 209.511ZM23.3977 202.289C22.3754 202.289 21.5532 202.548 20.931 203.067C20.3236 203.585 20.0199 204.296 20.0199 205.2C20.0199 206.104 20.3236 206.815 20.931 207.333C21.5532 207.852 22.3754 208.111 23.3977 208.111C24.4051 208.111 25.2125 207.852 25.8199 207.333C26.4421 206.815 26.7532 206.104 26.7532 205.2C26.7532 204.296 26.4421 203.585 25.8199 203.067C25.2125 202.548 24.4051 202.289 23.3977 202.289ZM26.3754 210.756C28.4051 210.756 30.0421 211.044 31.2865 211.622C32.531 212.2 33.1532 213.074 33.1532 214.244C33.1532 215.415 32.531 216.289 31.2865 216.867C30.0421 217.43 28.4051 217.711 26.3754 217.711C24.3606 217.711 22.7236 217.43 21.4643 216.867C20.2199 216.289 19.5977 215.415 19.5977 214.244C19.5977 213.074 20.2199 212.2 21.4643 211.622C22.7236 211.044 24.3606 210.756 26.3754 210.756ZM26.3754 216.311C27.8717 216.311 29.094 216.133 30.0421 215.778C30.9902 215.422 31.4643 214.911 31.4643 214.244C31.4643 213.563 30.9902 213.044 30.0421 212.689C29.094 212.333 27.8717 212.156 26.3754 212.156C24.8791 212.156 23.6569 212.333 22.7088 212.689C21.7606 213.044 21.2865 213.563 21.2865 214.244C21.2865 214.911 21.7606 215.422 22.7088 215.778C23.6569 216.133 24.8791 216.311 26.3754 216.311ZM35.8842 203.8V202.4H40.5731V200.378H42.1953V202.4H46.8842V203.8H35.8842ZM52.862 207.111H50.5064V213.489H48.9064V200.689H50.5064V205.511H52.862V207.111ZM41.3953 211.844C40.0027 211.844 38.8546 211.533 37.9509 210.911C37.062 210.289 36.6175 209.437 36.6175 208.356C36.6175 207.274 37.062 206.422 37.9509 205.8C38.8546 205.178 40.0027 204.867 41.3953 204.867C42.7879 204.867 43.9286 205.178 44.8175 205.8C45.7064 206.422 46.1509 207.274 46.1509 208.356C46.1509 209.437 45.7064 210.289 44.8175 210.911C43.9286 211.533 42.7879 211.844 41.3953 211.844ZM41.3953 206.178C40.4175 206.178 39.6323 206.385 39.0398 206.8C38.462 207.2 38.1731 207.719 38.1731 208.356C38.1731 208.993 38.462 209.519 39.0398 209.933C39.6323 210.333 40.4175 210.533 41.3953 210.533C42.3583 210.533 43.1286 210.333 43.7064 209.933C44.299 209.519 44.5953 208.993 44.5953 208.356C44.5953 207.719 44.299 207.2 43.7064 206.8C43.1286 206.385 42.3583 206.178 41.3953 206.178ZM50.9953 216V217.489H37.062V212.933H38.6842V216H50.9953ZM73.4097 217.756H71.8764V200.689H73.4097V217.756ZM69.1653 200.778V217.467H67.6542V208.844H64.9653V207.267H67.6542V200.778H69.1653ZM62.9875 202.889C62.9579 205.022 62.8542 206.822 62.6764 208.289L66.6542 215.689L65.3653 216.467L62.2542 210.556C61.4986 214.2 60.106 216.244 58.0764 216.689V215.044C59.1727 214.689 60.0023 213.444 60.5653 211.311C61.1282 209.163 61.4171 206.356 61.4319 202.889H58.3431V201.356H65.9653V202.889H62.9875ZM76.4518 207.222V205.867H79.4296V202.289H76.6296V200.933H90.5407V202.289H87.7407V205.867H90.6963V207.222H76.4518ZM86.1407 205.867V202.289H81.0296V205.867H86.1407ZM84.3852 212.2H90.4963V217.511H76.674V212.2H82.7852V210.244H75.4963V208.889H91.674V210.244H84.3852V212.2ZM78.274 213.533V216.178H88.9185V213.533H78.274ZM101.183 200.667C103.287 200.667 104.99 200.919 106.294 201.422C107.598 201.911 108.249 202.681 108.249 203.733C108.249 204.785 107.598 205.556 106.294 206.044C104.99 206.533 103.287 206.778 101.183 206.778C99.0791 206.778 97.368 206.533 96.0495 206.044C94.7458 205.556 94.0939 204.785 94.0939 203.733C94.0939 202.681 94.7458 201.911 96.0495 201.422C97.368 200.919 99.0791 200.667 101.183 200.667ZM101.183 201.978C99.5976 201.978 98.2939 202.126 97.2717 202.422C96.2643 202.704 95.7606 203.141 95.7606 203.733C95.7606 204.326 96.2643 204.763 97.2717 205.044C98.2791 205.326 99.5828 205.467 101.183 205.467C102.768 205.467 104.064 205.326 105.072 205.044C106.079 204.763 106.583 204.326 106.583 203.733C106.583 203.141 106.072 202.704 105.049 202.422C104.042 202.126 102.753 201.978 101.183 201.978ZM93.0939 209.333V208H109.272V209.333H93.0939ZM95.8273 214.711V216.267H108.405V217.511H94.2717V213.644H106.538V212.133H94.2273V210.911H108.116V214.711H95.8273ZM116.197 202.711V201.133H130.064V208.844H128.397V202.711H116.197ZM123.886 212V218.156H122.264V212H115.086V210.378H131.264V212H123.886ZM148.195 217.756H146.662V209.289H143.728V217.467H142.217V200.778H143.728V207.689H146.662V200.689H148.195V217.756ZM140.106 201.356V216.689H133.239V201.356H140.106ZM138.573 215.156V202.889H134.75V215.156H138.573Z" fill="#01A69F"/>
</svg>
