<svg width="717" height="48" viewBox="0 0 717 48" fill="none" xmlns="http://www.w3.org/2000/svg">
<path d="M15.2444 17.7556H12.4444V10.0889H10C9.88148 12.4296 9.38519 14.1852 8.51111 15.3556C7.65185 16.5111 6.5037 17.0889 5.06667 17.0889C3.52593 17.0889 2.31111 16.4222 1.42222 15.0889C0.533333 13.7407 0.0888889 11.7185 0.0888889 9.02222C0.0888889 6.32593 0.533333 4.31111 1.42222 2.97778C2.31111 1.62963 3.52593 0.955555 5.06667 0.955555C6.42963 0.955555 7.54074 1.48889 8.4 2.55555C9.25926 3.60741 9.78519 5.2 9.97778 7.33333H12.4444V0.688889H15.2444V17.7556ZM5.06667 14.4C5.73333 14.4 6.25926 13.9778 6.64444 13.1333C7.04444 12.2889 7.24444 10.9185 7.24444 9.02222C7.24444 7.14074 7.04444 5.77778 6.64444 4.93333C6.25926 4.07407 5.73333 3.64444 5.06667 3.64444C4.38519 3.64444 3.84444 4.07407 3.44444 4.93333C3.05926 5.77778 2.86667 7.14074 2.86667 9.02222C2.86667 12.6074 3.6 14.4 5.06667 14.4ZM25.3977 6.91111C23.1754 6.91111 21.3977 6.65185 20.0643 6.13333C18.7458 5.61481 18.0865 4.8 18.0865 3.68889C18.0865 2.57778 18.7458 1.76296 20.0643 1.24444C21.3828 0.725925 23.1606 0.466666 25.3977 0.466666C27.6347 0.466666 29.4051 0.725925 30.7088 1.24444C32.0273 1.76296 32.6865 2.57778 32.6865 3.68889C32.6865 4.8 32.0273 5.61481 30.7088 6.13333C29.3902 6.65185 27.6199 6.91111 25.3977 6.91111ZM25.3977 2.6C24.0791 2.6 23.0273 2.6963 22.2421 2.88889C21.4569 3.06667 21.0643 3.33333 21.0643 3.68889C21.0643 4.04444 21.4569 4.31852 22.2421 4.51111C23.0273 4.68889 24.0791 4.77778 25.3977 4.77778C26.7162 4.77778 27.7606 4.68889 28.531 4.51111C29.3162 4.31852 29.7088 4.04444 29.7088 3.68889C29.7088 3.33333 29.3162 3.06667 28.531 2.88889C27.7606 2.6963 26.7162 2.6 25.3977 2.6ZM26.7977 10.6222H32.5754V14.9556H20.9977V15.7778H32.7754V17.6889H18.2421V13.3333H29.8199V12.5111H18.1977V10.6222H23.9977V9.62222H17.2199V7.46667H33.5754V9.62222H26.7977V10.6222ZM47.5286 10.6444V0.688889H50.3509V10.6444H47.5286ZM38.2175 6.64444V8H42.4175C43.262 8 44.0472 7.94074 44.7731 7.82222C45.499 7.7037 46.0916 7.54074 46.5509 7.33333V9.6C46.1064 9.80741 45.5138 9.97037 44.7731 10.0889C44.0472 10.1926 43.2398 10.2444 42.3509 10.2444H35.4175V4.55556H42.4175V3.2H35.3731V0.955555H45.1953V6.64444H38.2175ZM36.062 17.6889V11.3556H50.3509V17.6889H36.062ZM47.5509 13.6889H38.8398V15.3778H47.5509V13.6889ZM73.8986 6.31111H71.8764V10.0889H69.0764V0.688889H71.8764V3.51111H73.8986V6.31111ZM62.5653 6.86667C61.9282 7.74074 61.1282 8.45185 60.1653 9C59.2171 9.54815 58.1653 9.85185 57.0097 9.91111V7.31111C58.106 7.22222 59.0171 6.80741 59.7431 6.06667C60.469 5.32593 60.8986 4.44444 61.0319 3.42222H57.2319V0.955555H67.5875V3.42222H63.8764C63.8616 3.71852 63.7949 4.13333 63.6764 4.66667L68.1208 7.37778L66.7875 9.55556L62.5653 6.86667ZM64.8542 10.4444C67.0468 10.4444 68.7949 10.7407 70.0986 11.3333C71.4023 11.9259 72.0542 12.8667 72.0542 14.1556C72.0542 15.4593 71.4023 16.4074 70.0986 17C68.7949 17.5926 67.0468 17.8889 64.8542 17.8889C62.6764 17.8889 60.9282 17.5926 59.6097 17C58.306 16.4074 57.6542 15.4593 57.6542 14.1556C57.6542 12.8667 58.306 11.9259 59.6097 11.3333C60.9282 10.7407 62.6764 10.4444 64.8542 10.4444ZM64.8542 15.5333C66.0986 15.5333 67.106 15.4222 67.8764 15.2C68.6468 14.963 69.0319 14.6148 69.0319 14.1556C69.0319 13.6963 68.6468 13.3556 67.8764 13.1333C67.106 12.9111 66.0986 12.8 64.8542 12.8C63.6097 12.8 62.6023 12.9111 61.8319 13.1333C61.0616 13.3556 60.6764 13.6963 60.6764 14.1556C60.6764 14.6148 61.0616 14.963 61.8319 15.2C62.6023 15.4222 63.6097 15.5333 64.8542 15.5333ZM90.3852 17.7556H87.7629V9.93333H86.0074V17.4667H83.4074V0.755555H86.0074V7.13333H87.7629V0.688889H90.3852V17.7556ZM78.3852 0.955555C79.6889 0.955555 80.6666 1.6 81.3185 2.88889C81.9703 4.17778 82.2963 6.22222 82.2963 9.02222C82.2963 11.837 81.9703 13.8889 81.3185 15.1778C80.6666 16.4519 79.6889 17.0889 78.3852 17.0889C77.0815 17.0889 76.1037 16.4519 75.4518 15.1778C74.8 13.8889 74.474 11.837 74.474 9.02222C74.474 6.22222 74.8 4.17778 75.4518 2.88889C76.1037 1.6 77.0815 0.955555 78.3852 0.955555ZM78.3852 14.4222C78.8296 14.4222 79.1555 13.9926 79.3629 13.1333C79.5703 12.2593 79.674 10.8889 79.674 9.02222C79.674 7.15556 79.5703 5.79259 79.3629 4.93333C79.1555 4.05926 78.8296 3.62222 78.3852 3.62222C77.9259 3.62222 77.5926 4.05926 77.3852 4.93333C77.1777 5.79259 77.074 7.15556 77.074 9.02222C77.074 10.8889 77.1777 12.2593 77.3852 13.1333C77.5926 13.9926 77.9259 14.4222 78.3852 14.4222ZM104.716 13.3333V0.688889H107.538V13.3333H104.716ZM97.2939 0.755555C98.3458 0.755555 99.2643 0.97037 100.049 1.4C100.849 1.81481 101.464 2.40741 101.894 3.17778C102.338 3.94815 102.561 4.82963 102.561 5.82222C102.561 6.82963 102.338 7.71852 101.894 8.48889C101.464 9.24444 100.849 9.83704 100.049 10.2667C99.2643 10.6815 98.3458 10.8889 97.2939 10.8889C96.2421 10.8889 95.3161 10.6815 94.5161 10.2667C93.7161 9.83704 93.0939 9.24444 92.6495 8.48889C92.2198 7.71852 92.005 6.82963 92.005 5.82222C92.005 4.82963 92.2198 3.94815 92.6495 3.17778C93.0939 2.40741 93.7161 1.81481 94.5161 1.4C95.3161 0.97037 96.2421 0.755555 97.2939 0.755555ZM97.2939 3.22222C96.5532 3.22222 95.9532 3.45185 95.4939 3.91111C95.0495 4.37037 94.8273 5.00741 94.8273 5.82222C94.8273 6.63704 95.0495 7.27407 95.4939 7.73333C95.9532 8.19259 96.5532 8.42222 97.2939 8.42222C98.0347 8.42222 98.6347 8.19259 99.0939 7.73333C99.5532 7.25926 99.7828 6.62222 99.7828 5.82222C99.7828 5.02222 99.5532 4.39259 99.0939 3.93333C98.6347 3.45926 98.0347 3.22222 97.2939 3.22222ZM107.827 15.0444V17.6889H93.4273V11.8222H96.2939V15.0444H107.827ZM125.958 17.0889H109.603V14.4H113.269V11.2222H110.38V8.53333H112.958V3.86667H110.536V1.17778H125.025V3.86667H122.603V8.53333H125.18V11.2222H122.292V14.4H125.958V17.0889ZM119.803 8.53333V3.86667H115.758V8.53333H119.803ZM119.469 14.4V11.2222H116.069V14.4H119.469ZM135 6C134.141 6.66667 133.097 7.18519 131.867 7.55556C130.637 7.91111 129.341 8.1037 127.978 8.13333V5.71111C129.297 5.68148 130.526 5.44444 131.667 5C132.823 4.54074 133.593 3.92593 133.978 3.15556H128.178V0.755555H142.578V3.15556H137C136.926 3.40741 136.823 3.6963 136.689 4.02222L143.023 5.88889L142.267 8.22222L135 6ZM143.556 11.5333H136.778V14.0222H133.956V11.5333H127.2V9.08889H143.556V11.5333ZM142.778 15.2222V17.6889H128.2V12.7111H131.067V15.2222H142.778ZM159.865 9.97778V17.7556H157.065V0.688889H159.865V7.13333H161.887V9.97778H159.865ZM152.22 1.13333C152.22 3.68148 152.013 6.00741 151.598 8.11111L156.442 15.1778L154.131 16.8667L150.598 11.5333C149.961 13.2222 149.146 14.5259 148.154 15.4444C147.176 16.363 146.072 16.8444 144.842 16.8889V13.8667C145.746 13.7333 146.539 13.1037 147.22 11.9778C147.902 10.8519 148.428 9.34815 148.798 7.46667C149.183 5.57037 149.376 3.42963 149.376 1.04444L152.22 1.13333ZM178.018 9.53333H175.218V6.42222H172.462C172.181 7.35556 171.603 8.0963 170.729 8.64444C169.87 9.17778 168.81 9.44444 167.551 9.44444C166.529 9.44444 165.625 9.26667 164.84 8.91111C164.07 8.54074 163.47 8.02963 163.04 7.37778C162.61 6.72593 162.396 5.97037 162.396 5.11111C162.396 4.25185 162.61 3.4963 163.04 2.84444C163.47 2.17778 164.07 1.66667 164.84 1.31111C165.625 0.94074 166.529 0.755555 167.551 0.755555C168.781 0.755555 169.825 1.01481 170.685 1.53333C171.559 2.05185 172.144 2.76296 172.44 3.66667H175.218V0.688889H178.018V9.53333ZM167.551 7.04444C168.262 7.04444 168.825 6.87407 169.24 6.53333C169.67 6.17778 169.885 5.7037 169.885 5.11111C169.885 4.51852 169.67 4.04444 169.24 3.68889C168.825 3.33333 168.262 3.15556 167.551 3.15556C166.84 3.15556 166.27 3.33333 165.84 3.68889C165.41 4.04444 165.196 4.51852 165.196 5.11111C165.196 5.7037 165.41 6.17778 165.84 6.53333C166.27 6.87407 166.84 7.04444 167.551 7.04444ZM178.018 10.1778V17.6889H163.907V10.1778H166.662V11.5333H175.262V10.1778H178.018ZM175.262 13.8444H166.662V15.3333H175.262V13.8444ZM197.082 6.31111H195.06V10.0889H192.26V0.688889H195.06V3.51111H197.082V6.31111ZM185.749 6.86667C185.112 7.74074 184.312 8.45185 183.349 9C182.401 9.54815 181.349 9.85185 180.193 9.91111V7.31111C181.29 7.22222 182.201 6.80741 182.927 6.06667C183.653 5.32593 184.082 4.44444 184.216 3.42222H180.416V0.955555H190.771V3.42222H187.06C187.045 3.71852 186.979 4.13333 186.86 4.66667L191.304 7.37778L189.971 9.55556L185.749 6.86667ZM188.038 10.4444C190.23 10.4444 191.979 10.7407 193.282 11.3333C194.586 11.9259 195.238 12.8667 195.238 14.1556C195.238 15.4593 194.586 16.4074 193.282 17C191.979 17.5926 190.23 17.8889 188.038 17.8889C185.86 17.8889 184.112 17.5926 182.793 17C181.49 16.4074 180.838 15.4593 180.838 14.1556C180.838 12.8667 181.49 11.9259 182.793 11.3333C184.112 10.7407 185.86 10.4444 188.038 10.4444ZM188.038 15.5333C189.282 15.5333 190.29 15.4222 191.06 15.2C191.83 14.963 192.216 14.6148 192.216 14.1556C192.216 13.6963 191.83 13.3556 191.06 13.1333C190.29 12.9111 189.282 12.8 188.038 12.8C186.793 12.8 185.786 12.9111 185.016 13.1333C184.245 13.3556 183.86 13.6963 183.86 14.1556C183.86 14.6148 184.245 14.963 185.016 15.2C185.786 15.4222 186.793 15.5333 188.038 15.5333ZM213.569 17.7556H210.947V0.688889H213.569V17.7556ZM209.524 0.755555V17.4667H206.902V10.2H205.458C205.369 12.5852 204.998 14.3333 204.347 15.4444C203.695 16.5407 202.769 17.0889 201.569 17.0889C200.265 17.0889 199.287 16.4519 198.635 15.1778C197.984 13.8889 197.658 11.837 197.658 9.02222C197.658 6.22222 197.984 4.17778 198.635 2.88889C199.287 1.6 200.265 0.955555 201.569 0.955555C202.724 0.955555 203.628 1.47407 204.28 2.51111C204.932 3.53333 205.317 5.14815 205.435 7.35556H206.902V0.755555H209.524ZM201.569 14.4222C202.013 14.4222 202.339 13.9926 202.547 13.1333C202.754 12.2593 202.858 10.8889 202.858 9.02222C202.858 7.15556 202.754 5.79259 202.547 4.93333C202.339 4.05926 202.013 3.62222 201.569 3.62222C201.109 3.62222 200.776 4.05926 200.569 4.93333C200.361 5.79259 200.258 7.15556 200.258 9.02222C200.258 10.8889 200.361 12.2593 200.569 13.1333C200.776 13.9926 201.109 14.4222 201.569 14.4222ZM230.811 17.7556H228.011V9.15556H224.366V6.4H228.011V0.688889H230.811V17.7556ZM222.389 1.13333C222.389 3.38518 222.24 5.46667 221.944 7.37778L226.766 15.2889L224.344 16.8889L220.989 11.0667C220.366 12.9037 219.559 14.3259 218.566 15.3333C217.589 16.3259 216.478 16.8444 215.233 16.8889V13.8222C216.107 13.7037 216.863 13.0889 217.5 11.9778C218.152 10.8519 218.655 9.34815 219.011 7.46667C219.366 5.57037 219.544 3.42963 219.544 1.04444L222.389 1.13333ZM253.159 17.7556H250.536V0.688889H253.159V17.7556ZM249.025 0.755555V17.4667H246.403V9.66667H244.181V6.88889H246.403V0.755555H249.025ZM242.759 3.82222C242.729 5.48148 242.64 6.97778 242.492 8.31111L246.27 15.3333L244.047 16.6444L241.692 12.1778C241.247 13.6593 240.647 14.8 239.892 15.6C239.151 16.3852 238.262 16.8148 237.225 16.8889V14C238.099 13.8222 238.788 12.837 239.292 11.0444C239.796 9.23704 240.062 6.82963 240.092 3.82222H237.536V1.15555H245.203V3.82222H242.759ZM255.645 7.44444V5.22222H258.245V2.97778H255.823V0.755555H270.09V2.97778H267.645V5.22222H270.245V7.44444H255.645ZM264.867 5.22222V2.97778H261.045V5.22222H264.867ZM264.356 11.8889H270.134V17.6889H255.778V11.8889H261.556V10.7333H254.778V8.46667H271.134V10.7333H264.356V11.8889ZM258.556 14.0889V15.5111H267.334V14.0889H258.556ZM280.554 0.466666C282.791 0.466666 284.561 0.718518 285.865 1.22222C287.184 1.72593 287.843 2.53333 287.843 3.64444C287.843 4.75556 287.184 5.56296 285.865 6.06667C284.561 6.57037 282.791 6.82222 280.554 6.82222C278.302 6.82222 276.517 6.57037 275.198 6.06667C273.895 5.56296 273.243 4.75556 273.243 3.64444C273.243 2.53333 273.902 1.72593 275.221 1.22222C276.539 0.718518 278.317 0.466666 280.554 0.466666ZM280.554 2.6C279.221 2.6 278.161 2.68889 277.376 2.86667C276.606 3.02963 276.221 3.28889 276.221 3.64444C276.221 4 276.606 4.26667 277.376 4.44444C278.146 4.60741 279.206 4.68889 280.554 4.68889C283.428 4.68889 284.865 4.34074 284.865 3.64444C284.865 3.28889 284.48 3.02963 283.709 2.86667C282.939 2.68889 281.887 2.6 280.554 2.6ZM272.376 9.73333V7.55556H288.732V9.73333H272.376ZM276.154 14.9111V15.7333H287.932V17.6889H273.398V13.3333H284.976V12.5111H273.354V10.6222H287.732V14.9111H276.154ZM295.324 3.68889V0.955555H309.724V8.93333H306.813V3.68889H295.324ZM303.902 12.8444V18.1556H300.991V12.8444H294.368V10.0667H310.724V12.8444H303.902ZM327.944 17.7556H325.322V9.93333H323.566V17.4667H320.966V0.755555H323.566V7.13333H325.322V0.688889H327.944V17.7556ZM319.566 1.15555V16.8889H312.322V1.15555H319.566ZM316.944 14.2222V3.82222H314.944V14.2222H316.944ZM340.453 2.91111V5.62222H329.919V2.91111H333.741V0.622222H336.608V2.91111H340.453ZM344.63 9.97778V17.7556H341.83V0.688889H344.63V7.13333H346.653V9.97778H344.63ZM335.186 6.53333C336.104 6.53333 336.912 6.76296 337.608 7.22222C338.319 7.66667 338.867 8.28889 339.253 9.08889C339.638 9.88889 339.83 10.7926 339.83 11.8C339.83 12.8222 339.638 13.7333 339.253 14.5333C338.867 15.3333 338.319 15.963 337.608 16.4222C336.912 16.8667 336.104 17.0889 335.186 17.0889C334.253 17.0889 333.43 16.8667 332.719 16.4222C332.023 15.963 331.482 15.3333 331.097 14.5333C330.712 13.7333 330.519 12.8222 330.519 11.8C330.519 10.7926 330.712 9.88889 331.097 9.08889C331.482 8.28889 332.023 7.66667 332.719 7.22222C333.43 6.76296 334.253 6.53333 335.186 6.53333ZM335.186 14.5556C335.778 14.5556 336.253 14.3037 336.608 13.8C336.964 13.2963 337.141 12.6296 337.141 11.8C337.141 10.9704 336.964 10.3111 336.608 9.82222C336.253 9.31852 335.778 9.06667 335.186 9.06667C334.578 9.06667 334.097 9.31852 333.741 9.82222C333.386 10.3111 333.208 10.9704 333.208 11.8C333.208 12.6296 333.386 13.2963 333.741 13.8C334.112 14.3037 334.593 14.5556 335.186 14.5556ZM358.028 9.04444V6.44444H360.028V4.73333H358.028V2.13333H360.028V0.688889H362.784V13.3556H360.028V9.04444H358.028ZM347.695 10.5111V0.955555H357.184V10.5111H347.695ZM350.45 3.44444V8H354.428V3.44444H350.45ZM363.05 17.6889H348.472V11.8444H351.339V15.0444H363.05V17.6889ZM566.491 0.466666C568.728 0.466666 570.499 0.718518 571.803 1.22222C573.121 1.72593 573.78 2.53333 573.78 3.64444C573.78 4.75556 573.121 5.56296 571.803 6.06667C570.499 6.57037 568.728 6.82222 566.491 6.82222C564.24 6.82222 562.454 6.57037 561.136 6.06667C559.832 5.56296 559.18 4.75556 559.18 3.64444C559.18 2.53333 559.84 1.72593 561.158 1.22222C562.477 0.718518 564.254 0.466666 566.491 0.466666ZM566.491 2.6C565.158 2.6 564.099 2.68889 563.314 2.86667C562.543 3.02963 562.158 3.28889 562.158 3.64444C562.158 4 562.543 4.26667 563.314 4.44444C564.084 4.60741 565.143 4.68889 566.491 4.68889C569.365 4.68889 570.803 4.34074 570.803 3.64444C570.803 3.28889 570.417 3.02963 569.647 2.86667C568.877 2.68889 567.825 2.6 566.491 2.6ZM558.314 9.73333V7.55556H574.669V9.73333H558.314ZM562.091 14.9111V15.7333H573.869V17.6889H559.336V13.3333H570.914V12.5111H559.291V10.6222H573.669V14.9111H562.091ZM597.395 6.64444H595.372V10.2889H592.572V0.688889H595.372V3.77778H597.395V6.64444ZM580.728 9.66667V0.91111H583.461V2.88889H587.772V0.91111H590.506V9.66667H580.728ZM587.772 5.22222H583.461V7.28889H587.772V5.22222ZM595.55 15.2889V17.6889H581.261V11H595.372V13.4H584.106V15.2889H595.55ZM606.081 0.466666C608.318 0.466666 610.089 0.718518 611.392 1.22222C612.711 1.72593 613.37 2.53333 613.37 3.64444C613.37 4.75556 612.711 5.56296 611.392 6.06667C610.089 6.57037 608.318 6.82222 606.081 6.82222C603.829 6.82222 602.044 6.57037 600.726 6.06667C599.422 5.56296 598.77 4.75556 598.77 3.64444C598.77 2.53333 599.429 1.72593 600.748 1.22222C602.066 0.718518 603.844 0.466666 606.081 0.466666ZM606.081 2.6C604.748 2.6 603.689 2.68889 602.903 2.86667C602.133 3.02963 601.748 3.28889 601.748 3.64444C601.748 4 602.133 4.26667 602.903 4.44444C603.674 4.60741 604.733 4.68889 606.081 4.68889C608.955 4.68889 610.392 4.34074 610.392 3.64444C610.392 3.28889 610.007 3.02963 609.237 2.86667C608.466 2.68889 607.415 2.6 606.081 2.6ZM597.903 9.73333V7.55556H614.259V9.73333H597.903ZM601.681 14.9111V15.7333H613.459V17.6889H598.926V13.3333H610.503V12.5111H598.881V10.6222H613.259V14.9111H601.681ZM627.94 5.97778C626.992 7.19259 625.844 8.14815 624.496 8.84444C623.162 9.52593 621.755 9.86667 620.273 9.86667V7.06667C621.355 7.06667 622.399 6.78518 623.407 6.22222C624.414 5.65926 625.259 4.87407 625.94 3.86667C626.636 2.85926 627.081 1.72593 627.273 0.466666L630.14 0.91111C629.992 1.82963 629.703 2.77037 629.273 3.73333L636.096 7.4L634.762 9.86667L627.94 5.97778ZM629.518 14.0444V18.1556H626.629V14.0444H619.896V11.3111H636.251V14.0444H629.518ZM654.599 10.1556V0.688889H657.421V10.1556H654.599ZM652.399 5.31111C652.399 6.21481 652.184 7.01481 651.755 7.71111C651.325 8.39259 650.717 8.92593 649.932 9.31111C649.147 9.68148 648.236 9.86667 647.199 9.86667C646.162 9.86667 645.243 9.68148 644.443 9.31111C643.658 8.92593 643.051 8.39259 642.621 7.71111C642.192 7.01481 641.977 6.21481 641.977 5.31111C641.977 4.40741 642.192 3.61481 642.621 2.93333C643.051 2.23704 643.658 1.7037 644.443 1.33333C645.243 0.948148 646.162 0.755555 647.199 0.755555C648.236 0.755555 649.147 0.948148 649.932 1.33333C650.717 1.7037 651.325 2.23704 651.755 2.93333C652.184 3.61481 652.399 4.40741 652.399 5.31111ZM644.777 5.31111C644.777 5.96296 644.999 6.48148 645.443 6.86667C645.888 7.23704 646.473 7.42222 647.199 7.42222C647.925 7.42222 648.51 7.23704 648.955 6.86667C649.399 6.48148 649.621 5.96296 649.621 5.31111C649.621 4.64444 649.399 4.12593 648.955 3.75555C648.51 3.37037 647.925 3.17778 647.199 3.17778C646.473 3.17778 645.888 3.37037 645.443 3.75555C644.999 4.12593 644.777 4.64444 644.777 5.31111ZM654.177 15.4444C653.629 16.1407 652.984 16.6815 652.243 17.0667C651.517 17.4667 650.732 17.6741 649.888 17.6889L647.332 15.4667C646.769 16.163 646.125 16.7037 645.399 17.0889C644.688 17.4741 643.932 17.6741 643.132 17.6889V15.0222C643.666 15.0074 644.162 14.8074 644.621 14.4222C645.095 14.0222 645.488 13.4963 645.799 12.8444C646.11 12.1778 646.303 11.4519 646.377 10.6667L649.088 11.1333C649.029 11.7852 648.866 12.5185 648.599 13.3333L650.555 14.8889C651.221 14.6667 651.799 14.163 652.288 13.3778C652.777 12.5926 653.073 11.6889 653.177 10.6667L655.866 11.1333C655.777 11.9185 655.621 12.637 655.399 13.2889L658.599 15.7333L657.021 17.8444L654.177 15.4444ZM667.574 4.24444C666.656 5.07407 665.53 5.73333 664.197 6.22222C662.878 6.6963 661.478 6.94815 659.997 6.97778V4.6C661.048 4.55556 662.071 4.34815 663.063 3.97778C664.056 3.60741 664.893 3.0963 665.574 2.44444C666.256 1.79259 666.678 1.05185 666.841 0.222222L669.686 0.733333C669.552 1.31111 669.352 1.85926 669.086 2.37778L675.53 4.8L674.597 7L667.574 4.24444ZM675.841 10.1111H659.486V7.84444H675.841V10.1111ZM674.841 11.0667V17.6889H660.486V11.0667H663.241V12.1778H672.086V11.0667H674.841ZM672.086 14.3111H663.241V15.5333H672.086V14.3111ZM689.794 17.7556V0.688889H692.616V17.7556H689.794ZM684.572 14.2C685.328 14.2 686.091 14.1259 686.861 13.9778C687.631 13.8296 688.268 13.6296 688.772 13.3778V16.0667C688.283 16.3333 687.654 16.5407 686.883 16.6889C686.128 16.8222 685.357 16.8889 684.572 16.8889H677.861V1.04444H680.772V14.2H684.572ZM709.747 9.97778V17.7556H706.947V0.688889H709.747V7.13333H711.77V9.97778H709.747ZM701.792 14.2222C702.562 14.2222 703.333 14.1481 704.103 14C704.873 13.8519 705.503 13.6593 705.992 13.4222V16.0889C705.533 16.3407 704.888 16.5407 704.059 16.6889C703.244 16.8222 702.422 16.8889 701.592 16.8889H695.303V1.15555H704.725V3.82222H698.147V14.2222H701.792ZM714.434 17.1556C713.901 17.1556 713.449 16.9778 713.078 16.6222C712.708 16.2519 712.523 15.7852 712.523 15.2222C712.523 14.6593 712.701 14.2 713.056 13.8444C713.427 13.4889 713.886 13.3111 714.434 13.3111C714.982 13.3111 715.434 13.4889 715.79 13.8444C716.16 14.2 716.345 14.6593 716.345 15.2222C716.345 15.7852 716.16 16.2519 715.79 16.6222C715.419 16.9778 714.967 17.1556 714.434 17.1556ZM12.3333 47.7556V30.6889H15.1556V47.7556H12.3333ZM5.22222 30.9556C6.77778 30.9556 8 31.6296 8.88889 32.9778C9.79259 34.3111 10.2444 36.3259 10.2444 39.0222C10.2444 41.7185 9.79259 43.7407 8.88889 45.0889C8 46.4222 6.77778 47.0889 5.22222 47.0889C3.65185 47.0889 2.41481 46.4222 1.51111 45.0889C0.622222 43.7407 0.177778 41.7185 0.177778 39.0222C0.177778 36.3259 0.622222 34.3111 1.51111 32.9778C2.41481 31.6296 3.65185 30.9556 5.22222 30.9556ZM5.22222 33.6444C4.52593 33.6444 3.97037 34.0741 3.55556 34.9333C3.15556 35.7778 2.95556 37.1407 2.95556 39.0222C2.95556 40.9185 3.15556 42.2889 3.55556 43.1333C3.97037 43.9778 4.52593 44.4 5.22222 44.4C5.9037 44.4 6.45185 43.9778 6.86667 43.1333C7.28148 42.2741 7.48889 40.9037 7.48889 39.0222C7.48889 37.1556 7.28148 35.7926 6.86667 34.9333C6.45185 34.0741 5.9037 33.6444 5.22222 33.6444ZM32.6865 35V37.4667H18.2643V30.6H21.0865V35H32.6865ZM17.2199 41.3556V38.8667H33.5754V41.3556H17.2199ZM32.7977 45.2V47.6889H18.2199V42.4667H21.0865V45.2H32.7977ZM56.301 36.3111H54.2787V40.0889H51.4787V30.6889H54.2787V33.5111H56.301V36.3111ZM44.9676 36.8667C44.3306 37.7407 43.5306 38.4519 42.5676 39C41.6195 39.5481 40.5676 39.8519 39.4121 39.9111V37.3111C40.5084 37.2222 41.4195 36.8074 42.1454 36.0667C42.8713 35.3259 43.301 34.4444 43.4343 33.4222H39.6343V30.9556H49.9898V33.4222H46.2787C46.2639 33.7185 46.1973 34.1333 46.0787 34.6667L50.5232 37.3778L49.1898 39.5556L44.9676 36.8667ZM47.2565 40.4444C49.4491 40.4444 51.1973 40.7407 52.501 41.3333C53.8047 41.9259 54.4565 42.8667 54.4565 44.1556C54.4565 45.4593 53.8047 46.4074 52.501 47C51.1973 47.5926 49.4491 47.8889 47.2565 47.8889C45.0787 47.8889 43.3306 47.5926 42.0121 47C40.7084 46.4074 40.0565 45.4593 40.0565 44.1556C40.0565 42.8667 40.7084 41.9259 42.0121 41.3333C43.3306 40.7407 45.0787 40.4444 47.2565 40.4444ZM47.2565 45.5333C48.501 45.5333 49.5084 45.4222 50.2787 45.2C51.0491 44.963 51.4343 44.6148 51.4343 44.1556C51.4343 43.6963 51.0491 43.3556 50.2787 43.1333C49.5084 42.9111 48.501 42.8 47.2565 42.8C46.0121 42.8 45.0047 42.9111 44.2343 43.1333C43.4639 43.3556 43.0787 43.6963 43.0787 44.1556C43.0787 44.6148 43.4639 44.963 44.2343 45.2C45.0047 45.4222 46.0121 45.5333 47.2565 45.5333ZM72.7875 47.7556H70.1653V39.9333H68.4097V47.4667H65.8097V30.7556H68.4097V37.1333H70.1653V30.6889H72.7875V47.7556ZM60.7875 30.9556C62.0912 30.9556 63.069 31.6 63.7208 32.8889C64.3727 34.1778 64.6986 36.2222 64.6986 39.0222C64.6986 41.837 64.3727 43.8889 63.7208 45.1778C63.069 46.4519 62.0912 47.0889 60.7875 47.0889C59.4838 47.0889 58.506 46.4519 57.8542 45.1778C57.2023 43.8889 56.8764 41.837 56.8764 39.0222C56.8764 36.2222 57.2023 34.1778 57.8542 32.8889C58.506 31.6 59.4838 30.9556 60.7875 30.9556ZM60.7875 44.4222C61.2319 44.4222 61.5579 43.9926 61.7653 43.1333C61.9727 42.2593 62.0764 40.8889 62.0764 39.0222C62.0764 37.1556 61.9727 35.7926 61.7653 34.9333C61.5579 34.0593 61.2319 33.6222 60.7875 33.6222C60.3282 33.6222 59.9949 34.0593 59.7875 34.9333C59.5801 35.7926 59.4764 37.1556 59.4764 39.0222C59.4764 40.8889 59.5801 42.2593 59.7875 43.1333C59.9949 43.9926 60.3282 44.4222 60.7875 44.4222ZM87.1185 43.3333V30.6889H89.9407V43.3333H87.1185ZM79.6963 30.7556C80.7481 30.7556 81.6666 30.9704 82.4518 31.4C83.2518 31.8148 83.8666 32.4074 84.2963 33.1778C84.7407 33.9481 84.9629 34.8296 84.9629 35.8222C84.9629 36.8296 84.7407 37.7185 84.2963 38.4889C83.8666 39.2444 83.2518 39.837 82.4518 40.2667C81.6666 40.6815 80.7481 40.8889 79.6963 40.8889C78.6444 40.8889 77.7185 40.6815 76.9185 40.2667C76.1185 39.837 75.4963 39.2444 75.0518 38.4889C74.6222 37.7185 74.4074 36.8296 74.4074 35.8222C74.4074 34.8296 74.6222 33.9481 75.0518 33.1778C75.4963 32.4074 76.1185 31.8148 76.9185 31.4C77.7185 30.9704 78.6444 30.7556 79.6963 30.7556ZM79.6963 33.2222C78.9555 33.2222 78.3555 33.4519 77.8963 33.9111C77.4518 34.3704 77.2296 35.0074 77.2296 35.8222C77.2296 36.637 77.4518 37.2741 77.8963 37.7333C78.3555 38.1926 78.9555 38.4222 79.6963 38.4222C80.437 38.4222 81.037 38.1926 81.4963 37.7333C81.9555 37.2593 82.1852 36.6222 82.1852 35.8222C82.1852 35.0222 81.9555 34.3926 81.4963 33.9333C81.037 33.4593 80.437 33.2222 79.6963 33.2222ZM90.2296 45.0444V47.6889H75.8296V41.8222H78.6963V45.0444H90.2296ZM97.2885 33.8889V31.1556H111.8V42.4H108.866V33.8889H97.2885ZM112.755 47.0889H96.3996V44.3333H101.911V37.3778H104.822V44.3333H112.755V47.0889ZM130.353 40.5778H113.997V38.2889H117.175V36.5333C115.619 35.9556 114.842 35.0667 114.842 33.8667C114.842 32.7111 115.508 31.8519 116.842 31.2889C118.175 30.7259 119.953 30.4444 122.175 30.4444C124.382 30.4444 126.153 30.7259 127.486 31.2889C128.834 31.8519 129.508 32.7111 129.508 33.8667C129.508 35.0667 128.731 35.9556 127.175 36.5333V38.2889H130.353V40.5778ZM122.175 32.6889C120.842 32.6889 119.782 32.7852 118.997 32.9778C118.212 33.1704 117.819 33.4667 117.819 33.8667C117.819 34.2667 118.212 34.563 118.997 34.7556C119.782 34.9333 120.842 35.0222 122.175 35.0222C123.508 35.0222 124.56 34.9333 125.331 34.7556C126.116 34.563 126.508 34.2667 126.508 33.8667C126.508 33.4667 126.116 33.1704 125.331 32.9778C124.56 32.7852 123.508 32.6889 122.175 32.6889ZM124.375 38.2889V37.1556C123.827 37.2296 123.094 37.2667 122.175 37.2667C121.271 37.2667 120.538 37.2296 119.975 37.1556V38.2889H124.375ZM122.175 41.3778C127.049 41.3778 129.486 42.4667 129.486 44.6444C129.486 45.8 128.834 46.6296 127.531 47.1333C126.227 47.6519 124.442 47.9111 122.175 47.9111C119.908 47.9111 118.116 47.6519 116.797 47.1333C115.494 46.6148 114.842 45.7852 114.842 44.6444C114.842 42.4667 117.286 41.3778 122.175 41.3778ZM122.175 45.6889C125.064 45.6889 126.508 45.3407 126.508 44.6444C126.508 43.9481 125.064 43.6 122.175 43.6C120.842 43.6 119.782 43.6815 118.997 43.8444C118.212 44.0074 117.819 44.2741 117.819 44.6444C117.819 45.0148 118.212 45.2815 118.997 45.4444C119.782 45.6074 120.842 45.6889 122.175 45.6889ZM139.773 30.4667C142.01 30.4667 143.78 30.7185 145.084 31.2222C146.402 31.7259 147.062 32.5333 147.062 33.6444C147.062 34.7556 146.402 35.563 145.084 36.0667C143.78 36.5704 142.01 36.8222 139.773 36.8222C137.521 36.8222 135.736 36.5704 134.417 36.0667C133.113 35.563 132.462 34.7556 132.462 33.6444C132.462 32.5333 133.121 31.7259 134.439 31.2222C135.758 30.7185 137.536 30.4667 139.773 30.4667ZM139.773 32.6C138.439 32.6 137.38 32.6889 136.595 32.8667C135.825 33.0296 135.439 33.2889 135.439 33.6444C135.439 34 135.825 34.2667 136.595 34.4444C137.365 34.6074 138.425 34.6889 139.773 34.6889C142.647 34.6889 144.084 34.3407 144.084 33.6444C144.084 33.2889 143.699 33.0296 142.928 32.8667C142.158 32.6889 141.106 32.6 139.773 32.6ZM131.595 39.7333V37.5556H147.95V39.7333H131.595ZM135.373 44.9111V45.7333H147.15V47.6889H132.617V43.3333H144.195V42.5111H132.573V40.6222H146.95V44.9111H135.373ZM170.676 36.3111H168.654V40.0889H165.854V30.6889H168.654V33.5111H170.676V36.3111ZM159.343 36.8667C158.706 37.7407 157.906 38.4519 156.943 39C155.994 39.5481 154.943 39.8519 153.787 39.9111V37.3111C154.883 37.2222 155.794 36.8074 156.52 36.0667C157.246 35.3259 157.676 34.4444 157.809 33.4222H154.009V30.9556H164.365V33.4222H160.654C160.639 33.7185 160.572 34.1333 160.454 34.6667L164.898 37.3778L163.565 39.5556L159.343 36.8667ZM161.632 40.4444C163.824 40.4444 165.572 40.7407 166.876 41.3333C168.18 41.9259 168.832 42.8667 168.832 44.1556C168.832 45.4593 168.18 46.4074 166.876 47C165.572 47.5926 163.824 47.8889 161.632 47.8889C159.454 47.8889 157.706 47.5926 156.387 47C155.083 46.4074 154.432 45.4593 154.432 44.1556C154.432 42.8667 155.083 41.9259 156.387 41.3333C157.706 40.7407 159.454 40.4444 161.632 40.4444ZM161.632 45.5333C162.876 45.5333 163.883 45.4222 164.654 45.2C165.424 44.963 165.809 44.6148 165.809 44.1556C165.809 43.6963 165.424 43.3556 164.654 43.1333C163.883 42.9111 162.876 42.8 161.632 42.8C160.387 42.8 159.38 42.9111 158.609 43.1333C157.839 43.3556 157.454 43.6963 157.454 44.1556C157.454 44.6148 157.839 44.963 158.609 45.2C159.38 45.4222 160.387 45.5333 161.632 45.5333ZM186.807 47.7556H184.029V41.8667H181.451V39.1111H184.029V36.8222H181.451V34.0667H184.029V30.6889H186.807V47.7556ZM178.074 44.2444C178.829 44.2444 179.592 44.1778 180.363 44.0444C181.133 43.9111 181.77 43.7407 182.274 43.5333V46.1556C181.8 46.3926 181.163 46.5778 180.363 46.7111C179.563 46.8296 178.755 46.8889 177.94 46.8889H171.896V37.6667H177.607V33.8222H171.851V31.1556H180.34V40.2889H174.696V44.2444H178.074ZM199.671 32.9111V35.6222H189.138V32.9111H192.96V30.6222H195.827V32.9111H199.671ZM203.849 39.9778V47.7556H201.049V30.6889H203.849V37.1333H205.871V39.9778H203.849ZM194.405 36.5333C195.323 36.5333 196.131 36.763 196.827 37.2222C197.538 37.6667 198.086 38.2889 198.471 39.0889C198.856 39.8889 199.049 40.7926 199.049 41.8C199.049 42.8222 198.856 43.7333 198.471 44.5333C198.086 45.3333 197.538 45.963 196.827 46.4222C196.131 46.8667 195.323 47.0889 194.405 47.0889C193.471 47.0889 192.649 46.8667 191.938 46.4222C191.242 45.963 190.701 45.3333 190.316 44.5333C189.931 43.7333 189.738 42.8222 189.738 41.8C189.738 40.7926 189.931 39.8889 190.316 39.0889C190.701 38.2889 191.242 37.6667 191.938 37.2222C192.649 36.763 193.471 36.5333 194.405 36.5333ZM194.405 44.5556C194.997 44.5556 195.471 44.3037 195.827 43.8C196.182 43.2963 196.36 42.6296 196.36 41.8C196.36 40.9704 196.182 40.3111 195.827 39.8222C195.471 39.3185 194.997 39.0667 194.405 39.0667C193.797 39.0667 193.316 39.3185 192.96 39.8222C192.605 40.3111 192.427 40.9704 192.427 41.8C192.427 42.6296 192.605 43.2963 192.96 43.8C193.331 44.3037 193.812 44.5556 194.405 44.5556ZM207.269 33.8889V31.1556H221.78V42.4H218.847V33.8889H207.269ZM222.736 47.0889H206.38V44.3333H211.891V37.3778H214.802V44.3333H222.736V47.0889ZM243.439 39.9778V47.7556H240.639V30.6889H243.439V37.1333H245.461V39.9778H243.439ZM235.794 31.1333C235.794 33.6815 235.587 36.0074 235.172 38.1111L240.017 45.1778L237.706 46.8667L234.172 41.5333C233.535 43.2222 232.72 44.5259 231.728 45.4444C230.75 46.363 229.646 46.8444 228.417 46.8889V43.8667C229.32 43.7333 230.113 43.1037 230.794 41.9778C231.476 40.8519 232.002 39.3481 232.372 37.4667C232.757 35.5704 232.95 33.4296 232.95 31.0444L235.794 31.1333ZM246.037 34.8444V32.3111H250.125V30.5333H253.014V32.3111H257.148V34.8444H246.037ZM261.525 47.7556H258.725V30.6889H261.525V47.7556ZM252.992 44.2889C255.125 44.2889 256.688 44.0519 257.681 43.5778V46.2C257.177 46.4222 256.518 46.5926 255.703 46.7111C254.903 46.8296 254.037 46.8889 253.103 46.8889H245.97V44.2889H250.192V42.5111C249.111 42.3333 248.259 41.9481 247.637 41.3556C247.029 40.763 246.725 40.0074 246.725 39.0889C246.725 37.963 247.17 37.0889 248.059 36.4667C248.962 35.8296 250.148 35.5111 251.614 35.5111C253.081 35.5111 254.259 35.8296 255.148 36.4667C256.051 37.0889 256.503 37.963 256.503 39.0889C256.503 40.0222 256.192 40.7852 255.57 41.3778C254.948 41.9556 254.088 42.3333 252.992 42.5111V44.2889ZM249.37 39.0889C249.37 39.4593 249.57 39.7556 249.97 39.9778C250.37 40.1852 250.918 40.2889 251.614 40.2889C252.296 40.2889 252.837 40.1852 253.237 39.9778C253.651 39.7556 253.859 39.4593 253.859 39.0889C253.859 38.7185 253.659 38.4222 253.259 38.2C252.859 37.9778 252.311 37.8667 251.614 37.8667C250.918 37.8667 250.37 37.9778 249.97 38.2C249.57 38.4074 249.37 38.7037 249.37 39.0889ZM279.168 41.0444H276.368V36.8889H273.923V34.3333H276.368V30.6889H279.168V41.0444ZM269.301 37.5778C268.664 38.4963 267.879 39.237 266.945 39.8C266.027 40.363 265.005 40.6741 263.879 40.7333V38.0667C265.005 37.9481 265.923 37.4593 266.634 36.6C267.36 35.7407 267.79 34.6963 267.923 33.4667H264.079V30.9556H274.434V33.4667H270.745C270.73 33.9259 270.627 34.5259 270.434 35.2667L275.034 38.4444L273.545 40.6L269.301 37.5778ZM279.168 41.7556V47.8889H276.301V44.2889H264.79V41.7556H279.168ZM300.626 39.9778V47.7556H297.826V30.6889H300.626V37.1333H302.649V39.9778H300.626ZM295.137 31.1556V35.6222C295.137 37.9037 294.767 39.8889 294.026 41.5778C293.3 43.2667 292.249 44.5704 290.871 45.4889C289.508 46.4074 287.9 46.8667 286.049 46.8667V44.0667C288.049 44.0667 289.582 43.3259 290.649 41.8444C291.73 40.3481 292.271 38.2815 292.271 35.6444V33.8444H286.049V31.1556H295.137ZM310.58 35.6444C310.506 36.9481 310.38 38.0593 310.202 38.9778L315.002 44.9556L312.935 46.8889L309.246 42.1111C308.594 43.5926 307.772 44.7481 306.78 45.5778C305.787 46.3926 304.683 46.8296 303.468 46.8889V44C304.268 43.8963 304.98 43.4815 305.602 42.7556C306.224 42.0148 306.72 41.037 307.091 39.8222C307.461 38.5926 307.683 37.2 307.757 35.6444H303.802V32.9111H307.735V30.6222H310.602V32.9111H314.357V35.6444H310.58ZM318.691 47.7556H315.868V30.6889H318.691V47.7556ZM324.555 34.8889V35.7111H336.244V37.4667H321.822V33.3111H333.355V32.5111H321.777V30.7556H336.066V34.8889H324.555ZM320.755 40.2222V38.2444H337.111V40.2222H320.755ZM324.488 45.1333V45.9333H336.311V47.6889H321.777V43.5556H333.399V42.7556H321.733V41.0222H336.111V45.1333H324.488ZM355.458 39.0444V30.6889H358.281V39.0444H355.458ZM348.569 36.0889C347.903 36.9185 347.088 37.5926 346.125 38.1111C345.162 38.6296 344.11 38.9407 342.969 39.0444V36.4444C344.332 36.237 345.436 35.6222 346.281 34.6C347.125 33.563 347.555 32.2889 347.569 30.7778L350.392 30.9556C350.392 32.0074 350.199 33.0222 349.814 34L354.481 36.6222L353.169 38.7778L348.569 36.0889ZM358.525 47.6889H343.992V42.8H355.503V41.8222H343.969V39.7556H358.281V44.6444H346.792V45.6222H358.525V47.6889ZM360.3 34.2667V32H364.367V30.3778H367.234V32H370.834V34.2667H360.3ZM371.367 40.6444V38.1556H373.212V36.4444H371.367V33.9778H373.212V30.6889H375.967V43.4222H373.212V40.6444H371.367ZM365.789 41.9556C364.397 41.9556 363.241 41.6519 362.323 41.0444C361.419 40.4222 360.967 39.5556 360.967 38.4444C360.967 37.3333 361.419 36.4667 362.323 35.8444C363.241 35.2222 364.397 34.9111 365.789 34.9111C367.197 34.9111 368.352 35.2222 369.256 35.8444C370.175 36.4667 370.634 37.3333 370.634 38.4444C370.634 39.5556 370.175 40.4222 369.256 41.0444C368.352 41.6519 367.197 41.9556 365.789 41.9556ZM365.789 37.0667C365.137 37.0667 364.612 37.2 364.212 37.4667C363.826 37.7333 363.634 38.0593 363.634 38.4444C363.634 38.8296 363.826 39.1556 364.212 39.4222C364.597 39.6741 365.123 39.8 365.789 39.8C366.456 39.8 366.982 39.6741 367.367 39.4222C367.767 39.1556 367.967 38.8296 367.967 38.4444C367.967 38.0593 367.767 37.7333 367.367 37.4667C366.982 37.2 366.456 37.0667 365.789 37.0667ZM376.234 47.6889H361.656V42.5556H364.5V45.1111H376.234V47.6889ZM388.831 32.9111V35.6222H378.298V32.9111H382.12V30.6222H384.987V32.9111H388.831ZM393.009 39.9778V47.7556H390.209V30.6889H393.009V37.1333H395.031V39.9778H393.009ZM383.565 36.5333C384.483 36.5333 385.291 36.763 385.987 37.2222C386.698 37.6667 387.246 38.2889 387.631 39.0889C388.017 39.8889 388.209 40.7926 388.209 41.8C388.209 42.8222 388.017 43.7333 387.631 44.5333C387.246 45.3333 386.698 45.963 385.987 46.4222C385.291 46.8667 384.483 47.0889 383.565 47.0889C382.631 47.0889 381.809 46.8667 381.098 46.4222C380.402 45.963 379.861 45.3333 379.476 44.5333C379.091 43.7333 378.898 42.8222 378.898 41.8C378.898 40.7926 379.091 39.8889 379.476 39.0889C379.861 38.2889 380.402 37.6667 381.098 37.2222C381.809 36.763 382.631 36.5333 383.565 36.5333ZM383.565 44.5556C384.157 44.5556 384.631 44.3037 384.987 43.8C385.343 43.2963 385.52 42.6296 385.52 41.8C385.52 40.9704 385.343 40.3111 384.987 39.8222C384.631 39.3185 384.157 39.0667 383.565 39.0667C382.957 39.0667 382.476 39.3185 382.12 39.8222C381.765 40.3111 381.587 40.9704 381.587 41.8C381.587 42.6296 381.765 43.2963 382.12 43.8C382.491 44.3037 382.972 44.5556 383.565 44.5556ZM411.007 35V37.4667H396.585V30.6H399.407V35H411.007ZM395.54 41.3556V38.8667H411.896V41.3556H395.54ZM411.118 45.2V47.6889H396.54V42.4667H399.407V45.2H411.118ZM433.51 47.7556H430.888V30.6889H433.51V47.7556ZM429.466 30.7556V47.4667H426.843V39.9111H423.399V37.1333H426.843V30.7556H429.466ZM422.066 44.2889C422.718 44.2889 423.384 44.2296 424.066 44.1111C424.747 43.9778 425.34 43.8074 425.843 43.6V46.1556C425.369 46.3778 424.755 46.5556 423.999 46.6889C423.258 46.8222 422.525 46.8889 421.799 46.8889H417.888V31.1556H425.132V33.7556H420.577V44.2889H422.066ZM452.236 47.7556V30.6889H455.058V47.7556H452.236ZM449.458 35.6222C449.458 37.9037 449.08 39.8963 448.325 41.6C447.569 43.2889 446.488 44.5926 445.08 45.5111C443.688 46.4148 442.058 46.8667 440.191 46.8667V44.0667C441.539 44.0667 442.688 43.7259 443.636 43.0444C444.584 42.363 445.302 41.3926 445.791 40.1333C446.295 38.8593 446.547 37.363 446.547 35.6444V33.8444H440.191V31.1556H449.458V35.6222ZM472.744 47.7556H469.989V43.4444H467.856L468.033 40.6889H469.989V37.2667H468.033L467.856 34.5111H469.989V30.6889H472.744V47.7556ZM462.544 30.9556C464.07 30.9556 465.27 31.6296 466.144 32.9778C467.019 34.3111 467.456 36.3259 467.456 39.0222C467.456 41.7185 467.019 43.7407 466.144 45.0889C465.27 46.4222 464.07 47.0889 462.544 47.0889C461.004 47.0889 459.789 46.4222 458.9 45.0889C458.026 43.7407 457.589 41.7185 457.589 39.0222C457.589 36.3259 458.026 34.3111 458.9 32.9778C459.789 31.6296 461.004 30.9556 462.544 30.9556ZM462.544 44.4C463.211 44.4 463.73 43.9778 464.1 43.1333C464.485 42.2889 464.678 40.9185 464.678 39.0222C464.678 37.1407 464.485 35.7778 464.1 34.9333C463.715 34.0741 463.196 33.6444 462.544 33.6444C461.078 33.6444 460.344 35.437 460.344 39.0222C460.344 42.6074 461.078 44.4 462.544 44.4ZM485.609 32.9111V35.6222H475.075V32.9111H478.898V30.6222H481.764V32.9111H485.609ZM489.787 39.9778V47.7556H486.987V30.6889H489.787V37.1333H491.809V39.9778H489.787ZM480.342 36.5333C481.261 36.5333 482.068 36.763 482.764 37.2222C483.475 37.6667 484.024 38.2889 484.409 39.0889C484.794 39.8889 484.987 40.7926 484.987 41.8C484.987 42.8222 484.794 43.7333 484.409 44.5333C484.024 45.3333 483.475 45.963 482.764 46.4222C482.068 46.8667 481.261 47.0889 480.342 47.0889C479.409 47.0889 478.587 46.8667 477.875 46.4222C477.179 45.963 476.638 45.3333 476.253 44.5333C475.868 43.7333 475.675 42.8222 475.675 41.8C475.675 40.7926 475.868 39.8889 476.253 39.0889C476.638 38.2889 477.179 37.6667 477.875 37.2222C478.587 36.763 479.409 36.5333 480.342 36.5333ZM480.342 44.5556C480.935 44.5556 481.409 44.3037 481.764 43.8C482.12 43.2963 482.298 42.6296 482.298 41.8C482.298 40.9704 482.12 40.3111 481.764 39.8222C481.409 39.3185 480.935 39.0667 480.342 39.0667C479.735 39.0667 479.253 39.3185 478.898 39.8222C478.542 40.3111 478.364 40.9704 478.364 41.8C478.364 42.6296 478.542 43.2963 478.898 43.8C479.268 44.3037 479.75 44.5556 480.342 44.5556ZM507.784 35V37.4667H493.362V30.6H496.184V35H507.784ZM492.318 41.3556V38.8667H508.673V41.3556H492.318ZM507.895 45.2V47.6889H493.318V42.4667H496.184V45.2H507.895ZM522.065 35.5111C521.221 36.0593 520.184 36.4889 518.954 36.8C517.725 37.0963 516.436 37.2593 515.088 37.2889V34.9778C516.362 34.9481 517.562 34.763 518.688 34.4222C519.813 34.0667 520.584 33.6 520.999 33.0222H515.287V30.7556H529.688V33.0222H524.132C524.117 33.2148 524.043 33.4296 523.91 33.6667L530.11 35.1333L529.465 37.3556L522.065 35.5111ZM523.887 41.4222C525.739 41.5111 527.184 41.8148 528.221 42.3333C529.273 42.8519 529.799 43.6222 529.799 44.6444C529.799 45.8 529.147 46.6296 527.843 47.1333C526.539 47.6519 524.754 47.9111 522.487 47.9111C520.221 47.9111 518.428 47.6519 517.11 47.1333C515.806 46.6148 515.154 45.7852 515.154 44.6444C515.154 43.6222 515.68 42.8519 516.732 42.3333C517.784 41.8148 519.236 41.5111 521.088 41.4222V40.3778H514.31V38.0667H530.665V40.3778H523.887V41.4222ZM526.821 44.6444C526.821 43.9481 525.376 43.6 522.487 43.6C521.154 43.6 520.095 43.6815 519.31 43.8444C518.525 44.0074 518.132 44.2741 518.132 44.6444C518.132 45.0148 518.525 45.2815 519.31 45.4444C520.095 45.6074 521.154 45.6889 522.487 45.6889C525.376 45.6889 526.821 45.3407 526.821 44.6444ZM548.263 47.0889H531.907V44.3778H535.241V40.3778C534.396 39.9037 533.744 39.3037 533.285 38.5778C532.826 37.8519 532.596 37.037 532.596 36.1333C532.596 35.0815 532.907 34.1556 533.53 33.3556C534.152 32.5407 535.026 31.9111 536.152 31.4667C537.293 31.0222 538.604 30.8 540.085 30.8C541.567 30.8 542.87 31.0222 543.996 31.4667C545.137 31.9111 546.018 32.5407 546.641 33.3556C547.263 34.1556 547.574 35.0815 547.574 36.1333C547.574 37.0519 547.344 37.8741 546.885 38.6C546.426 39.3111 545.767 39.9037 544.907 40.3778V44.3778H548.263V47.0889ZM540.085 33.4444C538.737 33.4444 537.641 33.6963 536.796 34.2C535.967 34.6889 535.552 35.3333 535.552 36.1333C535.552 36.9481 535.967 37.6074 536.796 38.1111C537.641 38.6 538.737 38.8444 540.085 38.8444C541.433 38.8444 542.522 38.6 543.352 38.1111C544.196 37.6074 544.618 36.9481 544.618 36.1333C544.618 35.3333 544.196 34.6889 543.352 34.2C542.522 33.6963 541.433 33.4444 540.085 33.4444ZM542.107 44.3778V41.3333C541.53 41.437 540.856 41.4889 540.085 41.4889C539.315 41.4889 538.641 41.437 538.063 41.3333V44.3778H542.107ZM549.394 34.3111V31.9778H553.483V30.3778H556.349V31.9778H560.461V34.3111H549.394ZM566.594 37.7333H564.572V43.4444H561.772V30.6889H564.572V34.8667H566.594V37.7333ZM554.927 41.9556C553.505 41.9556 552.327 41.6444 551.394 41.0222C550.461 40.4 549.994 39.5407 549.994 38.4444C549.994 37.3481 550.461 36.4889 551.394 35.8667C552.327 35.2444 553.505 34.9333 554.927 34.9333C556.335 34.9333 557.505 35.2444 558.438 35.8667C559.387 36.4889 559.861 37.3481 559.861 38.4444C559.861 39.5407 559.387 40.4 558.438 41.0222C557.505 41.6444 556.335 41.9556 554.927 41.9556ZM554.927 37.0889C554.246 37.0889 553.698 37.2222 553.283 37.4889C552.883 37.7407 552.683 38.0593 552.683 38.4444C552.683 38.8444 552.883 39.1704 553.283 39.4222C553.698 39.6741 554.246 39.8 554.927 39.8C555.594 39.8 556.135 39.6741 556.549 39.4222C556.964 39.1704 557.172 38.8444 557.172 38.4444C557.172 38.0593 556.964 37.7407 556.549 37.4889C556.135 37.2222 555.594 37.0889 554.927 37.0889ZM564.883 45.1111V47.6889H550.461V42.6222H553.327V45.1111H564.883ZM587.475 47.7556H584.853V30.6889H587.475V47.7556ZM583.342 30.7556V47.4667H580.719V39.6667H578.497V36.8889H580.719V30.7556H583.342ZM577.075 33.8222C577.045 35.4815 576.956 36.9778 576.808 38.3111L580.586 45.3333L578.364 46.6444L576.008 42.1778C575.564 43.6593 574.964 44.8 574.208 45.6C573.468 46.3852 572.579 46.8148 571.542 46.8889V44C572.416 43.8222 573.105 42.837 573.608 41.0444C574.112 39.237 574.379 36.8296 574.408 33.8222H571.853V31.1556H579.519V33.8222H577.075ZM605.45 47.0889H589.095V44.3556H595.85V41.1333H590.028V31.1556H604.495V33.8889H592.895V38.4H604.673V41.1333H598.695V44.3556H605.45V47.0889ZM622.226 39.5333H619.404V30.6889H622.226V39.5333ZM617.204 35.1111C617.204 35.9704 616.989 36.7333 616.559 37.4C616.13 38.0519 615.522 38.563 614.737 38.9333C613.952 39.2889 613.041 39.4667 612.004 39.4667C610.967 39.4667 610.048 39.2889 609.248 38.9333C608.463 38.563 607.855 38.0519 607.426 37.4C606.996 36.7333 606.781 35.9704 606.781 35.1111C606.781 34.2519 606.996 33.4963 607.426 32.8444C607.855 32.1778 608.463 31.6667 609.248 31.3111C610.048 30.9407 610.967 30.7556 612.004 30.7556C613.041 30.7556 613.952 30.9407 614.737 31.3111C615.522 31.6667 616.13 32.1778 616.559 32.8444C616.989 33.4963 617.204 34.2519 617.204 35.1111ZM609.581 35.1111C609.581 35.7037 609.796 36.1778 610.226 36.5333C610.67 36.8889 611.263 37.0667 612.004 37.0667C612.744 37.0667 613.33 36.8889 613.759 36.5333C614.204 36.1778 614.426 35.7037 614.426 35.1111C614.426 34.5037 614.204 34.0222 613.759 33.6667C613.33 33.3111 612.744 33.1333 612.004 33.1333C611.263 33.1333 610.67 33.3111 610.226 33.6667C609.796 34.0222 609.581 34.5037 609.581 35.1111ZM622.226 40.1778V47.6889H608.115V40.1778H610.893V41.5333H619.47V40.1778H622.226ZM619.47 43.8444H610.893V45.3333H619.47V43.8444ZM637.001 47.7556V30.6889H639.824V47.7556H637.001ZM631.779 44.2C632.535 44.2 633.298 44.1259 634.068 43.9778C634.838 43.8296 635.475 43.6296 635.979 43.3778V46.0667C635.49 46.3333 634.861 46.5407 634.09 46.6889C633.335 46.8222 632.564 46.8889 631.779 46.8889H625.068V31.0444H627.979V44.2H631.779ZM656.955 39.9778V47.7556H654.155V30.6889H656.955V37.1333H658.977V39.9778H656.955ZM648.999 44.2222C649.769 44.2222 650.54 44.1481 651.31 44C652.08 43.8519 652.71 43.6593 653.199 43.4222V46.0889C652.74 46.3407 652.095 46.5407 651.266 46.6889C650.451 46.8222 649.629 46.8889 648.799 46.8889H642.51V31.1556H651.932V33.8222H645.355V44.2222H648.999ZM661.641 47.1556C661.108 47.1556 660.656 46.9778 660.286 46.6222C659.915 46.2519 659.73 45.7852 659.73 45.2222C659.73 44.6593 659.908 44.2 660.263 43.8444C660.634 43.4889 661.093 43.3111 661.641 43.3111C662.189 43.3111 662.641 43.4889 662.997 43.8444C663.367 44.2 663.552 44.6593 663.552 45.2222C663.552 45.7852 663.367 46.2519 662.997 46.6222C662.626 46.9778 662.174 47.1556 661.641 47.1556Z" fill="#01A69F"/>
<path d="M386.242 6.31111H384.22V10.0889H381.42V0.688889H384.22V3.51111H386.242V6.31111ZM374.909 6.86667C374.272 7.74074 373.472 8.45185 372.509 9C371.561 9.54815 370.509 9.85185 369.353 9.91111V7.31111C370.45 7.22222 371.361 6.80741 372.087 6.06667C372.813 5.32593 373.242 4.44444 373.376 3.42222H369.576V0.955555H379.931V3.42222H376.22C376.205 3.71852 376.139 4.13333 376.02 4.66667L380.465 7.37778L379.131 9.55556L374.909 6.86667ZM377.198 10.4444C379.391 10.4444 381.139 10.7407 382.442 11.3333C383.746 11.9259 384.398 12.8667 384.398 14.1556C384.398 15.4593 383.746 16.4074 382.442 17C381.139 17.5926 379.391 17.8889 377.198 17.8889C375.02 17.8889 373.272 17.5926 371.953 17C370.65 16.4074 369.998 15.4593 369.998 14.1556C369.998 12.8667 370.65 11.9259 371.953 11.3333C373.272 10.7407 375.02 10.4444 377.198 10.4444ZM377.198 15.5333C378.442 15.5333 379.45 15.4222 380.22 15.2C380.991 14.963 381.376 14.6148 381.376 14.1556C381.376 13.6963 380.991 13.3556 380.22 13.1333C379.45 12.9111 378.442 12.8 377.198 12.8C375.953 12.8 374.946 12.9111 374.176 13.1333C373.405 13.3556 373.02 13.6963 373.02 14.1556C373.02 14.6148 373.405 14.963 374.176 15.2C374.946 15.4222 375.953 15.5333 377.198 15.5333ZM402.729 17.7556H400.107V9.93333H398.351V17.4667H395.751V0.755555H398.351V7.13333H400.107V0.688889H402.729V17.7556ZM390.729 0.955555C392.033 0.955555 393.01 1.6 393.662 2.88889C394.314 4.17778 394.64 6.22222 394.64 9.02222C394.64 11.837 394.314 13.8889 393.662 15.1778C393.01 16.4519 392.033 17.0889 390.729 17.0889C389.425 17.0889 388.447 16.4519 387.796 15.1778C387.144 13.8889 386.818 11.837 386.818 9.02222C386.818 6.22222 387.144 4.17778 387.796 2.88889C388.447 1.6 389.425 0.955555 390.729 0.955555ZM390.729 14.4222C391.173 14.4222 391.499 13.9926 391.707 13.1333C391.914 12.2593 392.018 10.8889 392.018 9.02222C392.018 7.15556 391.914 5.79259 391.707 4.93333C391.499 4.05926 391.173 3.62222 390.729 3.62222C390.27 3.62222 389.936 4.05926 389.729 4.93333C389.521 5.79259 389.418 7.15556 389.418 9.02222C389.418 10.8889 389.521 12.2593 389.729 13.1333C389.936 13.9926 390.27 14.4222 390.729 14.4222ZM417.06 13.3333V0.688889H419.882V13.3333H417.06ZM409.638 0.755555C410.69 0.755555 411.608 0.97037 412.393 1.4C413.193 1.81481 413.808 2.40741 414.238 3.17778C414.682 3.94815 414.904 4.82963 414.904 5.82222C414.904 6.82963 414.682 7.71852 414.238 8.48889C413.808 9.24444 413.193 9.83704 412.393 10.2667C411.608 10.6815 410.69 10.8889 409.638 10.8889C408.586 10.8889 407.66 10.6815 406.86 10.2667C406.06 9.83704 405.438 9.24444 404.993 8.48889C404.564 7.71852 404.349 6.82963 404.349 5.82222C404.349 4.82963 404.564 3.94815 404.993 3.17778C405.438 2.40741 406.06 1.81481 406.86 1.4C407.66 0.97037 408.586 0.755555 409.638 0.755555ZM409.638 3.22222C408.897 3.22222 408.297 3.45185 407.838 3.91111C407.393 4.37037 407.171 5.00741 407.171 5.82222C407.171 6.63704 407.393 7.27407 407.838 7.73333C408.297 8.19259 408.897 8.42222 409.638 8.42222C410.378 8.42222 410.978 8.19259 411.438 7.73333C411.897 7.25926 412.127 6.62222 412.127 5.82222C412.127 5.02222 411.897 4.39259 411.438 3.93333C410.978 3.45926 410.378 3.22222 409.638 3.22222ZM420.171 15.0444V17.6889H405.771V11.8222H408.638V15.0444H420.171ZM427.341 9.86667V0.91111H430.097V2.71111H438.941V0.91111H441.697V9.86667H427.341ZM438.941 5.28889H430.097V7.24444H438.941V5.28889ZM435.963 14.0444V18.1556H433.074V14.0444H426.341V11.3333H442.697V14.0444H435.963ZM459.005 6.57778V9.93333H456.205V0.688889H459.005V3.73333H461.028V6.57778H459.005ZM455.316 8.66667C454.872 8.85926 454.265 9.01481 453.494 9.13333C452.724 9.25185 451.902 9.31111 451.028 9.31111H444.361V0.955555H454.316V3.4H447.161V6.86667H451.161C452.005 6.86667 452.79 6.81481 453.516 6.71111C454.257 6.60741 454.857 6.45926 455.316 6.26667V8.66667ZM459.005 10.6444V17.6889H444.894V10.6444H459.005ZM456.205 15.2444V13.0889H447.716V15.2444H456.205ZM473.981 6.42222V3.2H462.536V0.755555H476.825V6.42222H473.981ZM461.536 9.62222V7.2H477.892V9.62222H461.536ZM462.536 17.6889V10.8667H476.892V17.6889H462.536ZM474.092 13.2H465.314V15.3778H474.092V13.2ZM498.595 6.57778V9.93333H495.795V0.688889H498.595V3.73333H500.617V6.57778H498.595ZM493.44 3.13333C493.44 5.37037 492.58 7.02222 490.862 8.08889C489.158 9.14074 486.825 9.66667 483.862 9.66667V7.15556C485.936 7.12593 487.573 6.82222 488.773 6.24444C489.973 5.65185 490.573 4.81481 490.573 3.73333V3.42222H483.862V0.955555H493.44V3.13333ZM498.595 10.6444V17.6889H484.484V10.6444H498.595ZM495.795 15.2444V13.0889H487.306V15.2444H495.795ZM511.993 9.04444V6.44444H513.993V4.73333H511.993V2.13333H513.993V0.688889H516.748V13.3556H513.993V9.04444H511.993ZM501.659 10.5111V0.955555H511.148V10.5111H501.659ZM504.415 3.44444V8H508.393V3.44444H504.415ZM517.015 17.6889H502.437V11.8444H505.304V15.0444H517.015V17.6889ZM530.918 2.95556V5.6H522.696V2.95556H525.541V0.622222H528.341V2.95556H530.918ZM539.096 17.7556H536.585V0.688889H539.096V17.7556ZM535.229 0.755555V17.4667H532.763V13.2889H531.341V10.5556H532.763V8.17778H531.341V5.42222H532.763V0.755555H535.229ZM526.985 6.48889C528.111 6.48889 529.022 6.94815 529.718 7.86667C530.429 8.77037 530.785 10.0741 530.785 11.7778C530.785 13.4815 530.429 14.7926 529.718 15.7111C529.022 16.6296 528.111 17.0889 526.985 17.0889C525.844 17.0889 524.926 16.637 524.229 15.7333C523.533 14.8148 523.185 13.4963 523.185 11.7778C523.185 10.0741 523.533 8.77037 524.229 7.86667C524.926 6.94815 525.844 6.48889 526.985 6.48889ZM526.985 14.5556C527.385 14.5556 527.704 14.3111 527.941 13.8222C528.178 13.3333 528.296 12.6519 528.296 11.7778C528.296 10.9037 528.178 10.2296 527.941 9.75556C527.704 9.26667 527.385 9.02222 526.985 9.02222C526.6 9.02222 526.281 9.26667 526.029 9.75556C525.792 10.2296 525.674 10.9037 525.674 11.7778C525.674 12.6519 525.792 13.3333 526.029 13.8222C526.281 14.3111 526.6 14.5556 526.985 14.5556ZM556.694 11.5778H554.072V7.11111H552.316V11.4H549.716V0.755555H552.316V4.4H554.072V0.688889H556.694V11.5778ZM548.827 10.4222C548.383 10.6296 547.79 10.7852 547.049 10.8889C546.323 10.9926 545.538 11.0444 544.694 11.0444H541.072V0.955555H548.294V3.28889H543.694V4.86667H548.072V7.08889H543.694V8.71111H544.872C545.657 8.71111 546.39 8.65926 547.072 8.55556C547.768 8.45185 548.353 8.31111 548.827 8.13333V10.4222ZM556.694 12.2667V17.8889H553.938V14.7111H541.916V12.2667H556.694Z" fill="#FD3941"/>
</svg>
