<svg width="443" height="49" viewBox="0 0 443 49" fill="none" xmlns="http://www.w3.org/2000/svg">
<path d="M47.2686 16.2167H42.0131V25.9944H33.2131V0.144444H42.0131V7.35555H47.2686V16.2167ZM16.0408 17.9278C14.2075 20.2093 11.9464 22.063 9.25751 23.4889C6.60936 24.9148 3.73714 25.6481 0.640842 25.6889V17.5611C3.37047 17.3981 5.67232 16.4204 7.5464 14.6278C9.46121 12.8352 10.6427 10.7574 11.0908 8.39444H1.25195V0.694443H29.7297V8.39444H20.0131C19.9723 9.00555 19.8297 9.88148 19.5853 11.0222L31.2575 17.8667L27.102 24.7111L16.0408 17.9278ZM22.3353 26.6667C28.4464 26.6667 33.3149 27.5019 36.9408 29.1722C40.6075 30.8019 42.4408 33.45 42.4408 37.1167C42.4408 40.7833 40.6075 43.4519 36.9408 45.1222C33.3149 46.7926 28.4464 47.6278 22.3353 47.6278C16.2242 47.6278 11.3353 46.7926 7.66862 45.1222C4.04269 43.4519 2.22973 40.7833 2.22973 37.1167C2.22973 33.45 4.04269 30.8019 7.66862 29.1722C11.3353 27.5019 16.2242 26.6667 22.3353 26.6667ZM22.3353 40.2333C25.5131 40.2333 28.0594 39.9889 29.9742 39.5C31.9297 38.9704 32.9075 38.1759 32.9075 37.1167C32.9075 36.0574 31.9297 35.2833 29.9742 34.7944C28.0594 34.3056 25.5131 34.0611 22.3353 34.0611C19.1575 34.0611 16.5908 34.3056 14.6353 34.7944C12.6797 35.2833 11.702 36.0574 11.702 37.1167C11.702 38.1759 12.6797 38.9704 14.6353 39.5C16.5908 39.9889 19.1575 40.2333 22.3353 40.2333ZM92.9122 47.0778H84.6622V26.1778H80.9344V46.2833H72.8066V0.327777H80.9344V17.3778H84.6622V0.144444H92.9122V47.0778ZM59.4233 0.694443C63.0492 0.694443 65.7788 2.46667 67.6122 6.01111C69.4455 9.55555 70.3622 15.2389 70.3622 23.0611C70.3622 30.8833 69.4455 36.5667 67.6122 40.1111C65.7788 43.6556 63.0492 45.4278 59.4233 45.4278C55.7974 45.4278 53.0677 43.6556 51.2344 40.1111C49.4011 36.5667 48.4844 30.8833 48.4844 23.0611C48.4844 15.2389 49.4011 9.55555 51.2344 6.01111C53.0677 2.46667 55.7974 0.694443 59.4233 0.694443ZM59.4233 37.0556C60.4011 37.0556 61.0937 35.9556 61.5011 33.7556C61.9492 31.5148 62.1733 27.95 62.1733 23.0611C62.1733 18.1722 61.9492 14.6278 61.5011 12.4278C61.0937 10.187 60.4011 9.06666 59.4233 9.06666C58.4455 9.06666 57.7325 10.187 57.2844 12.4278C56.877 14.6278 56.6733 18.1722 56.6733 23.0611C56.6733 27.95 56.877 31.5148 57.2844 33.7556C57.7325 35.9556 58.4455 37.0556 59.4233 37.0556ZM131.222 34.9167V0.144444H140.084V34.9167H131.222ZM111.422 0.205553C114.315 0.205553 116.861 0.796294 119.061 1.97778C121.302 3.11852 123.034 4.74815 124.256 6.86667C125.478 8.98518 126.089 11.45 126.089 14.2611C126.089 17.0722 125.478 19.537 124.256 21.6556C123.034 23.7741 121.302 25.4241 119.061 26.6056C116.861 27.7463 114.315 28.3167 111.422 28.3167C108.53 28.3167 105.963 27.7463 103.722 26.6056C101.522 25.4241 99.7909 23.7741 98.528 21.6556C97.3057 19.537 96.6946 17.0722 96.6946 14.2611C96.6946 11.45 97.3057 8.98518 98.528 6.86667C99.7909 4.74815 101.522 3.11852 103.722 1.97778C105.963 0.796294 108.53 0.205553 111.422 0.205553ZM111.422 7.96667C109.671 7.96667 108.245 8.51667 107.145 9.61666C106.085 10.7167 105.556 12.2648 105.556 14.2611C105.556 16.2574 106.085 17.8259 107.145 18.9667C108.245 20.0667 109.671 20.6167 111.422 20.6167C113.174 20.6167 114.6 20.0667 115.7 18.9667C116.8 17.8259 117.35 16.2574 117.35 14.2611C117.35 12.2648 116.8 10.7167 115.7 9.61666C114.6 8.51667 113.174 7.96667 111.422 7.96667ZM140.695 38.7667V47.0778H100.667V30.6389H109.65V38.7667H140.695ZM159.984 25.5056V0.694443H168.662V4.91111H191.273V0.694443H199.951V25.5056H159.984ZM191.273 12.9778H168.662V17.3167H191.273V12.9778ZM184.49 37.6667V48.1778H175.445V37.6667H157.356V29.1722H202.518V37.6667H184.49ZM247.672 16.95V25.5667H238.872V0.144444H247.672V7.96667H252.928V16.95H247.672ZM236.794 22.45C235.654 22.9796 234.106 23.387 232.15 23.6722C230.235 23.9574 228.219 24.1 226.1 24.1H206.728V0.694443H234.228V8.33333H215.589V16.4611H226.467C228.504 16.4611 230.439 16.3389 232.272 16.0944C234.106 15.8093 235.613 15.4222 236.794 14.9333V22.45ZM247.672 27.2167V47.0778H208.256V27.2167H247.672ZM238.872 39.4389V34.8556H217.117V39.4389H238.872ZM287.571 15.7278V7.78333H256.771V0.144444H296.494V15.7278H287.571ZM254.144 25.0778V17.5H299.305V25.0778H254.144ZM256.771 47.0778V27.8889H296.738V47.0778H256.771ZM287.938 35.1611H265.51V39.8667H287.938V35.1611Z" fill="#01A69F"/>
<path d="M348.967 47.0778V0.144444H357.828V47.0778H348.967ZM330.022 0.694443C334.381 0.694443 337.804 2.54815 340.289 6.25555C342.774 9.96296 344.017 15.5648 344.017 23.0611C344.017 30.5574 342.774 36.1593 340.289 39.8667C337.804 43.5741 334.381 45.4278 330.022 45.4278C325.622 45.4278 322.179 43.5741 319.694 39.8667C317.209 36.1593 315.967 30.5574 315.967 23.0611C315.967 15.5648 317.209 9.96296 319.694 6.25555C322.179 2.54815 325.622 0.694443 330.022 0.694443ZM330.022 9.18889C326.478 9.18889 324.705 13.813 324.705 23.0611C324.705 32.3093 326.478 36.9333 330.022 36.9333C333.567 36.9333 335.339 32.3093 335.339 23.0611C335.339 18.1315 334.85 14.587 333.872 12.4278C332.935 10.2685 331.652 9.18889 330.022 9.18889ZM410.193 19.5778H404.938V35.0389H396.138V0.144444H404.938V10.5944H410.193V19.5778ZM381.96 7.96667H363.932V0.694443H390.699V18.4167H372.793V22.1444H383.732C385.769 22.1444 387.705 22.0222 389.538 21.7778C391.371 21.4926 392.879 21.1056 394.06 20.6167V27.7667C392.919 28.2963 391.371 28.7037 389.416 28.9889C387.501 29.2741 385.484 29.4167 383.366 29.4167H363.993V11.6333H381.96V7.96667ZM405.61 38.8889V47.0778H365.521V32.35H374.505V38.8889H405.61ZM423.081 30.15C423.081 28.0315 423.55 26.2796 424.487 24.8944C425.465 23.5093 426.87 21.9815 428.704 20.3111C430.048 19.0889 431.026 18.0704 431.637 17.2556C432.289 16.4 432.615 15.4426 432.615 14.3833C432.615 12.8759 432.004 11.6944 430.781 10.8389C429.6 9.94259 428.011 9.49444 426.015 9.49444C424.1 9.49444 422.389 9.90185 420.881 10.7167C419.415 11.4907 418.172 12.5907 417.154 14.0167L409.759 9.67778C411.47 7.07037 413.772 5.0537 416.665 3.62778C419.598 2.20185 423.061 1.48889 427.054 1.48889C431.739 1.48889 435.487 2.48704 438.298 4.48333C441.15 6.47963 442.576 9.25 442.576 12.7944C442.576 14.4648 442.291 15.9315 441.72 17.1944C441.191 18.4574 440.518 19.537 439.704 20.4333C438.93 21.2889 437.911 22.287 436.648 23.4278C435.141 24.7722 434.041 25.913 433.348 26.85C432.655 27.7463 432.309 28.8463 432.309 30.15H423.081ZM427.726 45.4889C426.055 45.4889 424.65 44.9593 423.509 43.9C422.409 42.8 421.859 41.4759 421.859 39.9278C421.859 38.3796 422.409 37.0963 423.509 36.0778C424.609 35.0185 426.015 34.4889 427.726 34.4889C429.437 34.4889 430.843 35.0185 431.943 36.0778C433.043 37.0963 433.593 38.3796 433.593 39.9278C433.593 41.4759 433.022 42.8 431.881 43.9C430.781 44.9593 429.396 45.4889 427.726 45.4889Z" fill="black"/>
</svg>
