<svg width="1073" height="224" viewBox="0 0 1073 224" fill="none" xmlns="http://www.w3.org/2000/svg">
<path d="M50.3478 59.2982C50.3478 59.2982 50.2615 59.2366 50.2246 59.2119C47.4883 61.184 44.1357 62.3673 40.4997 62.3673C36.8637 62.3673 33.5234 61.184 30.7748 59.2119C30.7255 59.2366 30.6886 59.2735 30.6516 59.2982C16.4526 64.4256 0.922363 66.1019 0.922363 82.0758V134.287C0.922363 138.736 4.52142 142.335 8.97095 142.335C13.4205 142.335 17.0195 138.736 17.0195 134.287V84.923H19.7065V207.106C19.7065 212.48 24.0574 216.831 29.4314 216.831C34.8053 216.831 39.1562 212.48 39.1562 207.106V135.618H41.8432V207.106C41.8432 212.48 46.1941 216.831 51.568 216.831C56.942 216.831 61.2929 212.48 61.2929 207.106V84.923H63.9799V134.287C63.9799 138.736 67.5789 142.335 72.0285 142.335C76.478 142.335 80.077 138.736 80.077 134.287V82.0758C80.077 66.1019 64.5468 64.4256 50.3478 59.2982Z" fill="#333333"/>
<path d="M40.4995 59.631C48.1907 59.631 54.4151 53.3943 54.4151 45.7155V37.2725C54.4151 29.5813 48.1783 23.3569 40.4995 23.3569C32.8207 23.3569 26.584 29.5937 26.584 37.2725V45.7155C26.584 53.4066 32.8207 59.631 40.4995 59.631Z" fill="#333333"/>
<path d="M160.082 59.2982C160.082 59.2982 159.996 59.2366 159.959 59.2119C157.223 61.184 153.87 62.3673 150.234 62.3673C146.598 62.3673 143.258 61.184 140.509 59.2119C140.46 59.2366 140.423 59.2735 140.386 59.2982C126.187 64.4256 110.657 66.1019 110.657 82.0758V134.287C110.657 138.736 114.256 142.335 118.705 142.335C123.155 142.335 126.754 138.736 126.754 134.287V84.923H129.441V207.106C129.441 212.48 133.792 216.831 139.166 216.831C144.54 216.831 148.891 212.48 148.891 207.106V135.618H151.578V207.106C151.578 212.48 155.928 216.831 161.302 216.831C166.676 216.831 171.027 212.48 171.027 207.106V84.923H173.714V134.287C173.714 138.736 177.313 142.335 181.763 142.335C186.212 142.335 189.811 138.736 189.811 134.287V82.0758C189.811 66.1019 174.281 64.4256 160.082 59.2982Z" fill="#333333"/>
<path d="M150.234 59.631C157.925 59.631 164.149 53.3943 164.149 45.7155V37.2725C164.149 29.5813 157.913 23.3569 150.234 23.3569C142.555 23.3569 136.318 29.5937 136.318 37.2725V45.7155C136.318 53.4066 142.555 59.631 150.234 59.631Z" fill="#333333"/>
<path d="M269.804 59.2982C269.804 59.2982 269.718 59.2366 269.681 59.2119C266.945 61.184 263.592 62.3673 259.956 62.3673C256.32 62.3673 252.98 61.184 250.231 59.2119C250.182 59.2366 250.145 59.2735 250.108 59.2982C235.909 64.4256 220.379 66.1019 220.379 82.0758V134.287C220.379 138.736 223.978 142.335 228.427 142.335C232.877 142.335 236.476 138.736 236.476 134.287V84.923H239.163V207.106C239.163 212.48 243.514 216.831 248.888 216.831C254.262 216.831 258.613 212.48 258.613 207.106V135.618H261.3V207.106C261.3 212.48 265.651 216.831 271.025 216.831C276.399 216.831 280.749 212.48 280.749 207.106V84.923H283.436V134.287C283.436 138.736 287.035 142.335 291.485 142.335C295.935 142.335 299.534 138.736 299.534 134.287V82.0758C299.534 66.1019 284.003 64.4256 269.804 59.2982Z" fill="#333333"/>
<path d="M259.956 59.631C267.647 59.631 273.872 53.3943 273.872 45.7155V37.2725C273.872 29.5813 267.635 23.3569 259.956 23.3569C252.277 23.3569 246.041 29.5937 246.041 37.2725V45.7155C246.041 53.4066 252.277 59.631 259.956 59.631Z" fill="#333333"/>
<path d="M379.538 59.2982C379.538 59.2982 379.452 59.2366 379.415 59.2119C376.679 61.184 373.326 62.3673 369.69 62.3673C366.054 62.3673 362.714 61.184 359.965 59.2119C359.916 59.2366 359.879 59.2735 359.842 59.2982C345.643 64.4256 330.113 66.1019 330.113 82.0758V134.287C330.113 138.736 333.712 142.335 338.161 142.335C342.611 142.335 346.21 138.736 346.21 134.287V84.923H348.897V207.106C348.897 212.48 353.248 216.831 358.622 216.831C363.996 216.831 368.347 212.48 368.347 207.106V135.618H371.034V207.106C371.034 212.48 375.385 216.831 380.759 216.831C386.132 216.831 390.483 212.48 390.483 207.106V84.923H393.17V134.287C393.17 138.736 396.769 142.335 401.219 142.335C405.668 142.335 409.267 138.736 409.267 134.287V82.0758C409.267 66.1019 393.737 64.4256 379.538 59.2982Z" fill="#333333"/>
<path d="M369.69 59.631C377.381 59.631 383.606 53.3943 383.606 45.7155V37.2725C383.606 29.5813 377.369 23.3569 369.69 23.3569C362.011 23.3569 355.774 29.5937 355.774 37.2725V45.7155C355.774 53.4066 362.011 59.631 369.69 59.631Z" fill="#333333"/>
<path d="M489.273 59.2982C489.273 59.2982 489.187 59.2366 489.15 59.2119C486.414 61.184 483.061 62.3673 479.425 62.3673C475.789 62.3673 472.449 61.184 469.7 59.2119C469.651 59.2366 469.614 59.2735 469.577 59.2982C455.378 64.4256 439.848 66.1019 439.848 82.0758V134.287C439.848 138.736 443.447 142.335 447.896 142.335C452.346 142.335 455.945 138.736 455.945 134.287V84.923H458.632V207.106C458.632 212.48 462.983 216.831 468.357 216.831C473.731 216.831 478.082 212.48 478.082 207.106V135.618H480.768V207.106C480.768 212.48 485.119 216.831 490.493 216.831C495.867 216.831 500.218 212.48 500.218 207.106V84.923H502.905V134.287C502.905 138.736 506.504 142.335 510.954 142.335C515.403 142.335 519.002 138.736 519.002 134.287V82.0758C519.002 66.1019 503.472 64.4256 489.273 59.2982Z" fill="#333333"/>
<path d="M479.413 59.631C487.104 59.631 493.328 53.3943 493.328 45.7155V37.2725C493.328 29.5813 487.091 23.3569 479.413 23.3569C471.734 23.3569 465.497 29.5937 465.497 37.2725V45.7155C465.497 53.4066 471.734 59.631 479.413 59.631Z" fill="#333333"/>
<path d="M598.995 59.2982C598.995 59.2982 598.909 59.2366 598.872 59.2119C596.135 61.184 592.783 62.3673 589.147 62.3673C585.511 62.3673 582.17 61.184 579.422 59.2119C579.373 59.2366 579.336 59.2735 579.299 59.2982C565.1 64.4256 549.569 66.1019 549.569 82.0758V134.287C549.569 138.736 553.168 142.335 557.618 142.335C562.067 142.335 565.667 138.736 565.667 134.287V84.923H568.353V207.106C568.353 212.48 572.704 216.831 578.078 216.831C583.452 216.831 587.803 212.48 587.803 207.106V135.618H590.49V207.106C590.49 212.48 594.841 216.831 600.215 216.831C605.589 216.831 609.94 212.48 609.94 207.106V84.923H612.627V134.287C612.627 138.736 616.226 142.335 620.675 142.335C625.125 142.335 628.724 138.736 628.724 134.287V82.0758C628.724 66.1019 613.194 64.4256 598.995 59.2982Z" fill="#333333"/>
<path d="M589.147 59.631C596.838 59.631 603.063 53.3943 603.063 45.7155V37.2725C603.063 29.5813 596.826 23.3569 589.147 23.3569C581.468 23.3569 575.231 29.5937 575.231 37.2725V45.7155C575.231 53.4066 581.468 59.631 589.147 59.631Z" fill="#333333"/>
<path d="M708.729 59.2982C708.729 59.2982 708.643 59.2366 708.606 59.2119C705.87 61.184 702.517 62.3673 698.881 62.3673C695.245 62.3673 691.905 61.184 689.156 59.2119C689.107 59.2366 689.07 59.2735 689.033 59.2982C674.834 64.4256 659.304 66.1019 659.304 82.0758V134.287C659.304 138.736 662.903 142.335 667.352 142.335C671.802 142.335 675.401 138.736 675.401 134.287V84.923H678.088V207.106C678.088 212.48 682.439 216.831 687.813 216.831C693.187 216.831 697.538 212.48 697.538 207.106V135.618H700.225V207.106C700.225 212.48 704.575 216.831 709.949 216.831C715.323 216.831 719.674 212.48 719.674 207.106V84.923H722.361V134.287C722.361 138.736 725.96 142.335 730.41 142.335C734.859 142.335 738.458 138.736 738.458 134.287V82.0758C738.458 66.1019 722.928 64.4256 708.729 59.2982Z" fill="#333333"/>
<path d="M698.881 59.631C706.573 59.631 712.797 53.3943 712.797 45.7155V37.2725C712.797 29.5813 706.56 23.3569 698.881 23.3569C691.203 23.3569 684.966 29.5937 684.966 37.2725V45.7155C684.966 53.4066 691.203 59.631 698.881 59.631Z" fill="#333333"/>
<path d="M818.451 59.2982C818.451 59.2982 818.365 59.2366 818.328 59.2119C815.592 61.184 812.239 62.3673 808.603 62.3673C804.967 62.3673 801.627 61.184 798.878 59.2119C798.829 59.2366 798.792 59.2735 798.755 59.2982C784.556 64.4256 769.026 66.1019 769.026 82.0758V134.287C769.026 138.736 772.625 142.335 777.074 142.335C781.524 142.335 785.123 138.736 785.123 134.287V84.923H787.81V207.106C787.81 212.48 792.161 216.831 797.535 216.831C802.909 216.831 807.26 212.48 807.26 207.106V135.618H809.947V207.106C809.947 212.48 814.298 216.831 819.672 216.831C825.046 216.831 829.396 212.48 829.396 207.106V84.923H832.083V134.287C832.083 138.736 835.682 142.335 840.132 142.335C844.581 142.335 848.181 138.736 848.181 134.287V82.0758C848.181 66.1019 832.65 64.4256 818.451 59.2982Z" fill="#333333"/>
<path d="M808.603 59.631C816.294 59.631 822.519 53.3943 822.519 45.7155V37.2725C822.519 29.5813 816.282 23.3569 808.603 23.3569C800.924 23.3569 794.688 29.5937 794.688 37.2725V45.7155C794.688 53.4066 800.924 59.631 808.603 59.631Z" fill="#333333"/>
<path d="M928.186 59.2983C928.186 59.2983 928.099 59.2367 928.062 59.212C925.326 61.1841 921.974 62.3674 918.338 62.3674C914.702 62.3674 911.361 61.1841 908.613 59.212C908.563 59.2367 908.526 59.2737 908.489 59.2983C894.29 64.4257 878.76 66.102 878.76 82.0759V134.287C878.76 138.736 882.359 142.336 886.809 142.336C891.258 142.336 894.857 138.736 894.857 134.287V84.9231H897.544V207.106C897.544 212.48 901.895 216.831 907.269 216.831C912.643 216.831 916.994 212.48 916.994 207.106V135.618H919.681V207.106C919.681 212.48 924.032 216.831 929.406 216.831C934.78 216.831 939.131 212.48 939.131 207.106V84.9231H941.818V134.287C941.818 138.736 945.417 142.336 949.866 142.336C954.316 142.336 957.915 138.736 957.915 134.287V82.0759C957.915 66.102 942.385 64.4257 928.186 59.2983Z" fill="#333333"/>
<path d="M918.338 59.6313C926.029 59.6313 932.253 53.3945 932.253 45.7157V37.2727C932.253 29.5816 926.017 23.3572 918.338 23.3572C910.659 23.3572 904.422 29.5939 904.422 37.2727V45.7157C904.422 53.4069 910.659 59.6313 918.338 59.6313Z" fill="#333333"/>
<path d="M1037.91 59.2982C1037.91 59.2982 1037.82 59.2366 1037.78 59.2119C1035.05 61.184 1031.7 62.3673 1028.06 62.3673C1024.42 62.3673 1021.08 61.184 1018.33 59.2119C1018.29 59.2366 1018.25 59.2735 1018.21 59.2982C1004.01 64.4256 988.482 66.1019 988.482 82.0758V134.287C988.482 138.736 992.082 142.335 996.531 142.335C1000.98 142.335 1004.58 138.736 1004.58 134.287V84.923H1007.27V207.106C1007.27 212.48 1011.62 216.831 1016.99 216.831C1022.37 216.831 1026.72 212.48 1026.72 207.106V135.618H1029.4V207.106C1029.4 212.48 1033.75 216.831 1039.13 216.831C1044.5 216.831 1048.85 212.48 1048.85 207.106V84.923H1051.54V134.287C1051.54 138.736 1055.14 142.335 1059.59 142.335C1064.04 142.335 1067.64 138.736 1067.64 134.287V82.0758C1067.64 66.1019 1052.11 64.4256 1037.91 59.2982Z" fill="#333333"/>
<path d="M1028.06 59.631C1035.75 59.631 1041.98 53.3943 1041.98 45.7155V37.2725C1041.98 29.5813 1035.74 23.3569 1028.06 23.3569C1020.38 23.3569 1014.14 29.5937 1014.14 37.2725V45.7155C1014.14 53.4066 1020.38 59.631 1028.06 59.631Z" fill="#333333"/>
<path d="M28.236 15.4194H26.2885V3.06924H23.1455V1.47925H28.2483V15.4194H28.236Z" fill="black"/>
<path d="M35.6557 14.7045C34.8052 14.1252 34.1273 13.2994 33.6466 12.2271C33.1659 11.1548 32.9194 9.88522 32.9194 8.44313C32.9194 7.00104 33.1659 5.71919 33.6466 4.63454C34.1273 3.56222 34.8052 2.7364 35.6557 2.16943C36.5062 1.60245 37.4922 1.30664 38.5892 1.30664C39.6862 1.30664 40.6969 1.59013 41.5473 2.16943C42.3978 2.74873 43.0757 3.56222 43.5441 4.63454C44.0248 5.70686 44.2589 6.97639 44.2589 8.44313C44.2589 9.90987 44.0248 11.1671 43.5441 12.2517C43.0634 13.3364 42.3978 14.1499 41.535 14.7168C40.6722 15.2838 39.6862 15.5673 38.5892 15.5673C37.4922 15.5673 36.5062 15.2838 35.6557 14.7045ZM41.3008 12.4859C41.9787 11.5368 42.3115 10.1934 42.3115 8.44313C42.3115 6.69291 41.9787 5.34942 41.3008 4.40035C40.6229 3.46361 39.7231 2.98292 38.5892 2.98292C37.4552 2.98292 36.5555 3.45129 35.8899 4.40035C35.2243 5.34942 34.8792 6.69291 34.8792 8.44313C34.8792 10.1934 35.212 11.5492 35.8899 12.4859C36.5555 13.4227 37.4552 13.9034 38.5892 13.9034C39.7231 13.9034 40.6229 13.435 41.3008 12.4859Z" fill="black"/>
<path d="M45.7749 8.38148V1.15871H53.996V8.39381H45.7749V8.38148ZM57.3116 10.5015C58.4702 11.0192 59.0495 11.8203 59.0495 12.9173C59.0495 14.0143 58.4702 14.8277 57.3116 15.3454C56.153 15.8631 54.6246 16.1219 52.7142 16.1219C50.8037 16.1219 49.2877 15.8631 48.1414 15.3454C46.9951 14.8277 46.4158 14.0143 46.4158 12.9173C46.4158 11.8203 46.9951 11.0192 48.1414 10.5015C49.2877 9.9838 50.8161 9.72497 52.7142 9.72497C54.6123 9.72497 56.1653 9.9838 57.3116 10.5015ZM47.5498 2.74871V6.76684H52.2335V2.74871H47.5498ZM55.8942 14.1375C56.72 13.854 57.1267 13.4473 57.1267 12.905C57.1267 12.3626 56.72 11.9559 55.9065 11.6847C55.093 11.4136 54.0207 11.278 52.7142 11.278C51.4077 11.278 50.36 11.4136 49.5465 11.6847C48.733 11.9559 48.3263 12.3626 48.3263 12.905C48.3263 13.4473 48.733 13.8664 49.5465 14.1375C50.36 14.421 51.4077 14.5566 52.7142 14.5566C54.0207 14.5566 55.0807 14.421 55.9065 14.1375H55.8942ZM54.8465 7.34614V5.69451H57.1514V3.72242H54.8465V2.08313H57.1514V0.80127H58.9263V9.24427H57.1514V7.34614H54.8465Z" fill="black"/>
<path d="M137.958 15.4194H136.01V3.06924H132.867V1.47925H137.97V15.4194H137.958Z" fill="black"/>
<path d="M145.378 14.7045C144.527 14.1252 143.85 13.2994 143.369 12.2271C142.888 11.1548 142.642 9.88522 142.642 8.44313C142.642 7.00104 142.888 5.71919 143.369 4.63454C143.85 3.56222 144.527 2.7364 145.378 2.16943C146.228 1.60245 147.214 1.30664 148.311 1.30664C149.408 1.30664 150.419 1.59013 151.269 2.16943C152.12 2.74873 152.798 3.56222 153.266 4.63454C153.747 5.70686 153.981 6.97639 153.981 8.44313C153.981 9.90987 153.747 11.1671 153.266 12.2517C152.786 13.3364 152.12 14.1499 151.257 14.7168C150.394 15.2838 149.408 15.5673 148.311 15.5673C147.214 15.5673 146.228 15.2838 145.378 14.7045ZM151.023 12.4859C151.701 11.5368 152.034 10.1934 152.034 8.44313C152.034 6.69291 151.701 5.34942 151.023 4.40035C150.345 3.46361 149.445 2.98292 148.311 2.98292C147.177 2.98292 146.278 3.45129 145.612 4.40035C144.946 5.34942 144.601 6.69291 144.601 8.44313C144.601 10.1934 144.934 11.5492 145.612 12.4859C146.278 13.4227 147.177 13.9034 148.311 13.9034C149.445 13.9034 150.345 13.435 151.023 12.4859Z" fill="black"/>
<path d="M155.509 8.38148V1.15871H163.73V8.39381H155.509V8.38148ZM167.046 10.5015C168.205 11.0192 168.784 11.8203 168.784 12.9173C168.784 14.0143 168.205 14.8277 167.046 15.3454C165.887 15.8631 164.359 16.1219 162.449 16.1219C160.538 16.1219 159.022 15.8631 157.876 15.3454C156.73 14.8277 156.15 14.0143 156.15 12.9173C156.15 11.8203 156.73 11.0192 157.876 10.5015C159.022 9.9838 160.55 9.72497 162.449 9.72497C164.347 9.72497 165.9 9.9838 167.046 10.5015ZM157.284 2.74871V6.76684H161.968V2.74871H157.284ZM165.629 14.1375C166.454 13.854 166.861 13.4473 166.861 12.905C166.861 12.3626 166.454 11.9559 165.641 11.6847C164.827 11.4136 163.755 11.278 162.449 11.278C161.142 11.278 160.094 11.4136 159.281 11.6847C158.467 11.9559 158.061 12.3626 158.061 12.905C158.061 13.4473 158.467 13.8664 159.281 14.1375C160.094 14.421 161.142 14.5566 162.449 14.5566C163.755 14.5566 164.815 14.421 165.641 14.1375H165.629ZM164.569 7.34614V5.69451H166.873V3.72242H164.569V2.08313H166.873V0.80127H168.648V9.24427H166.873V7.34614H164.569Z" fill="black"/>
<path d="M247.692 15.4194H245.745V3.06924H242.602V1.47925H247.704V15.4194H247.692Z" fill="black"/>
<path d="M255.112 14.7045C254.262 14.1252 253.584 13.2994 253.103 12.2271C252.623 11.1548 252.376 9.88522 252.376 8.44313C252.376 7.00104 252.623 5.71919 253.103 4.63454C253.584 3.56222 254.262 2.7364 255.112 2.16943C255.963 1.60245 256.949 1.30664 258.046 1.30664C259.143 1.30664 260.153 1.59013 261.004 2.16943C261.854 2.74873 262.532 3.56222 263.001 4.63454C263.481 5.70686 263.715 6.97639 263.715 8.44313C263.715 9.90987 263.481 11.1671 263.001 12.2517C262.52 13.3364 261.854 14.1499 260.992 14.7168C260.129 15.2838 259.143 15.5673 258.046 15.5673C256.949 15.5673 255.963 15.2838 255.112 14.7045ZM260.757 12.4859C261.435 11.5368 261.768 10.1934 261.768 8.44313C261.768 6.69291 261.435 5.34942 260.757 4.40035C260.079 3.46361 259.18 2.98292 258.046 2.98292C256.912 2.98292 256.012 3.45129 255.346 4.40035C254.681 5.34942 254.336 6.69291 254.336 8.44313C254.336 10.1934 254.669 11.5492 255.346 12.4859C256.012 13.4227 256.912 13.9034 258.046 13.9034C259.18 13.9034 260.079 13.435 260.757 12.4859Z" fill="black"/>
<path d="M265.231 8.38148V1.15871H273.453V8.39381H265.231V8.38148ZM276.768 10.5015C277.927 11.0192 278.506 11.8203 278.506 12.9173C278.506 14.0143 277.927 14.8277 276.768 15.3454C275.61 15.8631 274.081 16.1219 272.171 16.1219C270.26 16.1219 268.744 15.8631 267.598 15.3454C266.452 14.8277 265.872 14.0143 265.872 12.9173C265.872 11.8203 266.452 11.0192 267.598 10.5015C268.744 9.9838 270.273 9.72497 272.171 9.72497C274.069 9.72497 275.622 9.9838 276.768 10.5015ZM267.006 2.74871V6.76684H271.69V2.74871H267.006ZM275.351 14.1375C276.177 13.854 276.583 13.4473 276.583 12.905C276.583 12.3626 276.177 11.9559 275.363 11.6847C274.55 11.4136 273.477 11.278 272.171 11.278C270.864 11.278 269.817 11.4136 269.003 11.6847C268.19 11.9559 267.783 12.3626 267.783 12.905C267.783 13.4473 268.19 13.8664 269.003 14.1375C269.817 14.421 270.864 14.5566 272.171 14.5566C273.477 14.5566 274.537 14.421 275.363 14.1375H275.351ZM274.303 7.34614V5.69451H276.608V3.72242H274.303V2.08313H276.608V0.80127H278.383V9.24427H276.608V7.34614H274.303Z" fill="black"/>
<path d="M357.414 15.4194H355.467V3.06924H352.324V1.47925H357.426V15.4194H357.414Z" fill="black"/>
<path d="M364.834 14.7045C363.983 14.1252 363.306 13.2994 362.825 12.2271C362.344 11.1548 362.098 9.88522 362.098 8.44313C362.098 7.00104 362.344 5.71919 362.825 4.63454C363.306 3.56222 363.983 2.7364 364.834 2.16943C365.684 1.60245 366.67 1.30664 367.767 1.30664C368.864 1.30664 369.875 1.59013 370.726 2.16943C371.576 2.74873 372.254 3.56222 372.722 4.63454C373.203 5.70686 373.437 6.97639 373.437 8.44313C373.437 9.90987 373.203 11.1671 372.722 12.2517C372.242 13.3364 371.576 14.1499 370.713 14.7168C369.85 15.2838 368.864 15.5673 367.767 15.5673C366.67 15.5673 365.684 15.2838 364.834 14.7045ZM370.479 12.4859C371.157 11.5368 371.49 10.1934 371.49 8.44313C371.49 6.69291 371.157 5.34942 370.479 4.40035C369.801 3.46361 368.901 2.98292 367.767 2.98292C366.633 2.98292 365.734 3.45129 365.068 4.40035C364.403 5.34942 364.057 6.69291 364.057 8.44313C364.057 10.1934 364.39 11.5492 365.068 12.4859C365.734 13.4227 366.633 13.9034 367.767 13.9034C368.901 13.9034 369.801 13.435 370.479 12.4859Z" fill="black"/>
<path d="M374.966 8.38148V1.15871H383.187V8.39381H374.966V8.38148ZM386.503 10.5015C387.661 11.0192 388.24 11.8203 388.24 12.9173C388.24 14.0143 387.661 14.8277 386.503 15.3454C385.344 15.8631 383.816 16.1219 381.905 16.1219C379.995 16.1219 378.479 15.8631 377.332 15.3454C376.186 14.8277 375.607 14.0143 375.607 12.9173C375.607 11.8203 376.186 11.0192 377.332 10.5015C378.479 9.9838 380.007 9.72497 381.905 9.72497C383.803 9.72497 385.356 9.9838 386.503 10.5015ZM376.741 2.74871V6.76684H381.424V2.74871H376.741ZM385.085 14.1375C385.911 13.854 386.318 13.4473 386.318 12.905C386.318 12.3626 385.911 11.9559 385.097 11.6847C384.284 11.4136 383.212 11.278 381.905 11.278C380.599 11.278 379.551 11.4136 378.737 11.6847C377.924 11.9559 377.517 12.3626 377.517 12.905C377.517 13.4473 377.924 13.8664 378.737 14.1375C379.551 14.421 380.599 14.5566 381.905 14.5566C383.212 14.5566 384.272 14.421 385.097 14.1375H385.085ZM384.025 7.34614V5.69451H386.33V3.72242H384.025V2.08313H386.33V0.80127H388.105V9.24427H386.33V7.34614H384.025Z" fill="black"/>
<path d="M467.149 15.4194H465.201V3.06924H462.058V1.47925H467.161V15.4194H467.149Z" fill="black"/>
<path d="M474.569 14.7045C473.718 14.1252 473.04 13.2994 472.56 12.2271C472.079 11.1548 471.833 9.88522 471.833 8.44313C471.833 7.00104 472.079 5.71919 472.56 4.63454C473.04 3.56222 473.718 2.7364 474.569 2.16943C475.419 1.60245 476.405 1.30664 477.502 1.30664C478.599 1.30664 479.61 1.59013 480.46 2.16943C481.311 2.74873 481.989 3.56222 482.457 4.63454C482.938 5.70686 483.172 6.97639 483.172 8.44313C483.172 9.90987 482.938 11.1671 482.457 12.2517C481.976 13.3364 481.311 14.1499 480.448 14.7168C479.585 15.2838 478.599 15.5673 477.502 15.5673C476.405 15.5673 475.419 15.2838 474.569 14.7045ZM480.214 12.4859C480.892 11.5368 481.225 10.1934 481.225 8.44313C481.225 6.69291 480.892 5.34942 480.214 4.40035C479.536 3.46361 478.636 2.98292 477.502 2.98292C476.368 2.98292 475.469 3.45129 474.803 4.40035C474.137 5.34942 473.792 6.69291 473.792 8.44313C473.792 10.1934 474.125 11.5492 474.803 12.4859C475.469 13.4227 476.368 13.9034 477.502 13.9034C478.636 13.9034 479.536 13.435 480.214 12.4859Z" fill="black"/>
<path d="M484.7 8.38148V1.15871H492.921V8.39381H484.7V8.38148ZM496.225 10.5015C497.383 11.0192 497.962 11.8203 497.962 12.9173C497.962 14.0143 497.383 14.8277 496.225 15.3454C495.066 15.8631 493.538 16.1219 491.627 16.1219C489.717 16.1219 488.201 15.8631 487.054 15.3454C485.908 14.8277 485.329 14.0143 485.329 12.9173C485.329 11.8203 485.908 11.0192 487.054 10.5015C488.201 9.9838 489.729 9.72497 491.627 9.72497C493.525 9.72497 495.078 9.9838 496.225 10.5015ZM486.463 2.74871V6.76684H491.146V2.74871H486.463ZM494.807 14.1375C495.633 13.854 496.04 13.4473 496.04 12.905C496.04 12.3626 495.633 11.9559 494.819 11.6847C494.006 11.4136 492.934 11.278 491.627 11.278C490.321 11.278 489.273 11.4136 488.459 11.6847C487.646 11.9559 487.239 12.3626 487.239 12.905C487.239 13.4473 487.646 13.8664 488.459 14.1375C489.273 14.421 490.321 14.5566 491.627 14.5566C492.934 14.5566 493.994 14.421 494.819 14.1375H494.807ZM493.759 7.34614V5.69451H496.064V3.72242H493.759V2.08313H496.064V0.80127H497.839V9.24427H496.064V7.34614H493.759Z" fill="black"/>
<path d="M576.883 15.4194H574.935V3.06924H571.792V1.47925H576.895V15.4194H576.883Z" fill="black"/>
<path d="M584.291 14.7045C583.44 14.1252 582.763 13.2994 582.282 12.2271C581.801 11.1548 581.555 9.88522 581.555 8.44313C581.555 7.00104 581.801 5.71919 582.282 4.63454C582.763 3.56222 583.44 2.7364 584.291 2.16943C585.141 1.60245 586.127 1.30664 587.224 1.30664C588.321 1.30664 589.332 1.59013 590.183 2.16943C591.033 2.74873 591.711 3.56222 592.179 4.63454C592.66 5.70686 592.894 6.97639 592.894 8.44313C592.894 9.90987 592.66 11.1671 592.179 12.2517C591.699 13.3364 591.033 14.1499 590.17 14.7168C589.307 15.2838 588.321 15.5673 587.224 15.5673C586.127 15.5673 585.141 15.2838 584.291 14.7045ZM589.948 12.4859C590.626 11.5368 590.959 10.1934 590.959 8.44313C590.959 6.69291 590.626 5.34942 589.948 4.40035C589.271 3.46361 588.371 2.98292 587.237 2.98292C586.103 2.98292 585.203 3.45129 584.537 4.40035C583.872 5.34942 583.527 6.69291 583.527 8.44313C583.527 10.1934 583.86 11.5492 584.537 12.4859C585.203 13.4227 586.103 13.9034 587.237 13.9034C588.371 13.9034 589.271 13.435 589.948 12.4859Z" fill="black"/>
<path d="M594.422 8.38148V1.15871H602.644V8.39381H594.422V8.38148ZM605.959 10.5015C607.118 11.0192 607.697 11.8203 607.697 12.9173C607.697 14.0143 607.118 14.8277 605.959 15.3454C604.8 15.8631 603.272 16.1219 601.362 16.1219C599.451 16.1219 597.935 15.8631 596.789 15.3454C595.643 14.8277 595.063 14.0143 595.063 12.9173C595.063 11.8203 595.643 11.0192 596.789 10.5015C597.935 9.9838 599.464 9.72497 601.362 9.72497C603.26 9.72497 604.813 9.9838 605.959 10.5015ZM596.197 2.74871V6.76684H600.881V2.74871H596.197ZM604.542 14.1375C605.367 13.854 605.774 13.4473 605.774 12.905C605.774 12.3626 605.367 11.9559 604.554 11.6847C603.74 11.4136 602.668 11.278 601.362 11.278C600.055 11.278 599.007 11.4136 598.194 11.6847C597.38 11.9559 596.974 12.3626 596.974 12.905C596.974 13.4473 597.38 13.8664 598.194 14.1375C599.007 14.421 600.055 14.5566 601.362 14.5566C602.668 14.5566 603.728 14.421 604.554 14.1375H604.542ZM603.482 7.34614V5.69451H605.787V3.72242H603.482V2.08313H605.787V0.80127H607.561V9.24427H605.787V7.34614H603.482Z" fill="black"/>
<path d="M686.605 15.4194H684.658V3.06924H681.515V1.47925H686.617V15.4194H686.605Z" fill="black"/>
<path d="M694.025 14.7045C693.174 14.1252 692.497 13.2994 692.016 12.2271C691.535 11.1548 691.289 9.88522 691.289 8.44313C691.289 7.00104 691.535 5.71919 692.016 4.63454C692.497 3.56222 693.174 2.7364 694.025 2.16943C694.875 1.60245 695.861 1.30664 696.958 1.30664C698.055 1.30664 699.066 1.59013 699.916 2.16943C700.767 2.74873 701.445 3.56222 701.913 4.63454C702.394 5.70686 702.628 6.97639 702.628 8.44313C702.628 9.90987 702.394 11.1671 701.913 12.2517C701.432 13.3364 700.767 14.1499 699.904 14.7168C699.041 15.2838 698.055 15.5673 696.958 15.5673C695.861 15.5673 694.875 15.2838 694.025 14.7045ZM699.67 12.4859C700.348 11.5368 700.681 10.1934 700.681 8.44313C700.681 6.69291 700.348 5.34942 699.67 4.40035C698.992 3.46361 698.092 2.98292 696.958 2.98292C695.824 2.98292 694.925 3.45129 694.259 4.40035C693.593 5.34942 693.248 6.69291 693.248 8.44313C693.248 10.1934 693.581 11.5492 694.259 12.4859C694.925 13.4227 695.824 13.9034 696.958 13.9034C698.092 13.9034 698.992 13.435 699.67 12.4859Z" fill="black"/>
<path d="M704.157 8.38148V1.15871H712.378V8.39381H704.157V8.38148ZM715.681 10.5015C716.84 11.0192 717.419 11.8203 717.419 12.9173C717.419 14.0143 716.84 14.8277 715.681 15.3454C714.523 15.8631 712.994 16.1219 711.084 16.1219C709.173 16.1219 707.657 15.8631 706.511 15.3454C705.365 14.8277 704.785 14.0143 704.785 12.9173C704.785 11.8203 705.365 11.0192 706.511 10.5015C707.657 9.9838 709.186 9.72497 711.084 9.72497C712.982 9.72497 714.535 9.9838 715.681 10.5015ZM705.932 2.74871V6.76684H710.615V2.74871H705.932ZM714.276 14.1375C715.102 13.854 715.509 13.4473 715.509 12.905C715.509 12.3626 715.102 11.9559 714.288 11.6847C713.475 11.4136 712.403 11.278 711.096 11.278C709.79 11.278 708.742 11.4136 707.928 11.6847C707.115 11.9559 706.708 12.3626 706.708 12.905C706.708 13.4473 707.115 13.8664 707.928 14.1375C708.742 14.421 709.79 14.5566 711.096 14.5566C712.403 14.5566 713.463 14.421 714.288 14.1375H714.276ZM713.216 7.34614V5.69451H715.521V3.72242H713.216V2.08313H715.521V0.80127H717.296V9.24427H715.521V7.34614H713.216Z" fill="black"/>
<path d="M796.339 15.4194H794.392V3.06924H791.249V1.47925H796.352V15.4194H796.339Z" fill="black"/>
<path d="M803.759 14.7045C802.909 14.1252 802.231 13.2994 801.75 12.2271C801.269 11.1548 801.023 9.88522 801.023 8.44313C801.023 7.00104 801.269 5.71919 801.75 4.63454C802.231 3.56222 802.909 2.7364 803.759 2.16943C804.61 1.60245 805.596 1.30664 806.693 1.30664C807.79 1.30664 808.8 1.59013 809.651 2.16943C810.501 2.74873 811.179 3.56222 811.648 4.63454C812.128 5.70686 812.362 6.97639 812.362 8.44313C812.362 9.90987 812.128 11.1671 811.648 12.2517C811.167 13.3364 810.501 14.1499 809.638 14.7168C808.776 15.2838 807.79 15.5673 806.693 15.5673C805.596 15.5673 804.61 15.2838 803.759 14.7045ZM809.404 12.4859C810.082 11.5368 810.415 10.1934 810.415 8.44313C810.415 6.69291 810.082 5.34942 809.404 4.40035C808.726 3.46361 807.827 2.98292 806.693 2.98292C805.559 2.98292 804.659 3.45129 803.993 4.40035C803.328 5.34942 802.983 6.69291 802.983 8.44313C802.983 10.1934 803.315 11.5492 803.993 12.4859C804.659 13.4227 805.559 13.9034 806.693 13.9034C807.827 13.9034 808.726 13.435 809.404 12.4859Z" fill="black"/>
<path d="M813.879 8.38148V1.15871H822.1V8.39381H813.879V8.38148ZM825.416 10.5015C826.574 11.0192 827.154 11.8203 827.154 12.9173C827.154 14.0143 826.574 14.8277 825.416 15.3454C824.257 15.8631 822.729 16.1219 820.818 16.1219C818.908 16.1219 817.392 15.8631 816.245 15.3454C815.099 14.8277 814.52 14.0143 814.52 12.9173C814.52 11.8203 815.099 11.0192 816.245 10.5015C817.392 9.9838 818.92 9.72497 820.818 9.72497C822.716 9.72497 824.269 9.9838 825.416 10.5015ZM815.654 2.74871V6.76684H820.337V2.74871H815.654ZM823.998 14.1375C824.824 13.854 825.231 13.4473 825.231 12.905C825.231 12.3626 824.824 11.9559 824.01 11.6847C823.197 11.4136 822.125 11.278 820.818 11.278C819.512 11.278 818.464 11.4136 817.651 11.6847C816.837 11.9559 816.43 12.3626 816.43 12.905C816.43 13.4473 816.837 13.8664 817.651 14.1375C818.464 14.421 819.512 14.5566 820.818 14.5566C822.125 14.5566 823.185 14.421 824.01 14.1375H823.998ZM822.938 7.34614V5.69451H825.243V3.72242H822.938V2.08313H825.243V0.80127H827.018V9.24427H825.243V7.34614H822.938Z" fill="black"/>
<path d="M906.061 15.4194H904.114V3.06924H900.971V1.47925H906.073V15.4194H906.061Z" fill="black"/>
<path d="M913.481 14.7045C912.63 14.1252 911.953 13.2994 911.472 12.2271C910.991 11.1548 910.745 9.88522 910.745 8.44313C910.745 7.00104 910.991 5.71919 911.472 4.63454C911.953 3.56222 912.63 2.7364 913.481 2.16943C914.331 1.60245 915.317 1.30664 916.414 1.30664C917.511 1.30664 918.522 1.59013 919.373 2.16943C920.223 2.74873 920.901 3.56222 921.369 4.63454C921.85 5.70686 922.084 6.97639 922.084 8.44313C922.084 9.90987 921.85 11.1671 921.369 12.2517C920.889 13.3364 920.223 14.1499 919.36 14.7168C918.497 15.2838 917.511 15.5673 916.414 15.5673C915.317 15.5673 914.331 15.2838 913.481 14.7045ZM919.126 12.4859C919.804 11.5368 920.137 10.1934 920.137 8.44313C920.137 6.69291 919.804 5.34942 919.126 4.40035C918.448 3.46361 917.548 2.98292 916.414 2.98292C915.28 2.98292 914.381 3.45129 913.715 4.40035C913.05 5.34942 912.704 6.69291 912.704 8.44313C912.704 10.1934 913.037 11.5492 913.715 12.4859C914.381 13.4227 915.28 13.9034 916.414 13.9034C917.548 13.9034 918.448 13.435 919.126 12.4859Z" fill="black"/>
<path d="M923.613 8.38148V1.15871H931.834V8.39381H923.613V8.38148ZM935.15 10.5015C936.308 11.0192 936.887 11.8203 936.887 12.9173C936.887 14.0143 936.308 14.8277 935.15 15.3454C933.991 15.8631 932.463 16.1219 930.552 16.1219C928.642 16.1219 927.126 15.8631 925.979 15.3454C924.833 14.8277 924.254 14.0143 924.254 12.9173C924.254 11.8203 924.833 11.0192 925.979 10.5015C927.126 9.9838 928.654 9.72497 930.552 9.72497C932.45 9.72497 934.003 9.9838 935.15 10.5015ZM925.388 2.74871V6.76684H930.071V2.74871H925.388ZM933.732 14.1375C934.558 13.854 934.965 13.4473 934.965 12.905C934.965 12.3626 934.558 11.9559 933.744 11.6847C932.931 11.4136 931.859 11.278 930.552 11.278C929.246 11.278 928.198 11.4136 927.384 11.6847C926.571 11.9559 926.164 12.3626 926.164 12.905C926.164 13.4473 926.571 13.8664 927.384 14.1375C928.198 14.421 929.246 14.5566 930.552 14.5566C931.859 14.5566 932.919 14.421 933.744 14.1375H933.732ZM932.672 7.34614V5.69451H934.977V3.72242H932.672V2.08313H934.977V0.80127H936.752V9.24427H934.977V7.34614H932.672Z" fill="black"/>
<path d="M1000.64 2.74854L994.978 15.4192H992.87L998.404 3.09365H991.909V5.60806H990.134V1.479H1000.64V2.74854Z" fill="black"/>
<path d="M1001.95 8.38148V1.15871H1010.18V8.39381H1001.95V8.38148ZM1013.48 10.5015C1014.64 11.0192 1015.22 11.8203 1015.22 12.9173C1015.22 14.0143 1014.64 14.8277 1013.48 15.3454C1012.32 15.8631 1010.79 16.1219 1008.88 16.1219C1006.97 16.1219 1005.45 15.8631 1004.31 15.3454C1003.16 14.8277 1002.58 14.0143 1002.58 12.9173C1002.58 11.8203 1003.16 11.0192 1004.31 10.5015C1005.45 9.9838 1006.98 9.72497 1008.88 9.72497C1010.78 9.72497 1012.33 9.9838 1013.48 10.5015ZM1003.73 2.74871V6.76684H1008.41V2.74871H1003.73ZM1012.07 14.1375C1012.9 13.854 1013.31 13.4473 1013.31 12.905C1013.31 12.3626 1012.9 11.9559 1012.09 11.6847C1011.27 11.4136 1010.2 11.278 1008.89 11.278C1007.59 11.278 1006.54 11.4136 1005.73 11.6847C1004.91 11.9559 1004.51 12.3626 1004.51 12.905C1004.51 13.4473 1004.91 13.8664 1005.73 14.1375C1006.54 14.421 1007.59 14.5566 1008.89 14.5566C1010.2 14.5566 1011.26 14.421 1012.09 14.1375H1012.07ZM1011.01 7.34614V5.69451H1013.32V3.72242H1011.01V2.08313H1013.32V0.80127H1015.09V9.24427H1013.32V7.34614H1011.01Z" fill="black"/>
<path d="M1025.98 0L1020.06 16.886H1018.54L1024.46 0H1025.98Z" fill="black"/>
<path d="M1037.48 8.59085C1038.22 9.30573 1038.59 10.2178 1038.59 11.3518C1038.59 12.1529 1038.39 12.8678 1037.99 13.5087C1037.6 14.1497 1037.02 14.655 1036.23 15.0248C1035.44 15.3945 1034.48 15.5794 1033.35 15.5794C1032.35 15.5794 1031.4 15.4192 1030.49 15.1111C1029.58 14.8029 1028.84 14.3839 1028.27 13.8662L1029.08 12.3871C1029.56 12.8555 1030.17 13.2253 1030.92 13.4964C1031.66 13.7676 1032.46 13.9032 1033.31 13.9032C1034.37 13.9032 1035.2 13.6813 1035.78 13.2253C1036.35 12.7692 1036.64 12.1529 1036.64 11.3518C1036.64 10.5506 1036.35 9.93433 1035.79 9.49061C1035.22 9.04689 1034.36 8.82503 1033.19 8.82503H1032.05V7.53085L1035.65 3.069H1028.84V1.479H1037.99V2.74854L1034.25 7.38294C1035.65 7.48155 1036.72 7.87596 1037.46 8.59085H1037.48Z" fill="#229A73"/>
<path d="M1039.31 15.1483C1039.07 14.9018 1038.93 14.5936 1038.93 14.2239C1038.93 13.8541 1039.05 13.546 1039.31 13.2995C1039.57 13.0529 1039.87 12.9297 1040.22 12.9297C1040.58 12.9297 1040.89 13.0529 1041.14 13.2995C1041.38 13.546 1041.52 13.8541 1041.52 14.2239C1041.52 14.5936 1041.4 14.9018 1041.14 15.1483C1040.88 15.3948 1040.58 15.5181 1040.22 15.5181C1039.87 15.5181 1039.56 15.3948 1039.31 15.1483Z" fill="#229A73"/>
<path d="M1048.26 15.4192H1046.31V3.069H1043.17V1.479H1048.27V15.4192H1048.26Z" fill="#229A73"/>
<path d="M1052.06 8.38148V1.15871H1060.28V8.39381H1052.06V8.38148ZM1063.59 10.5015C1064.75 11.0192 1065.33 11.8203 1065.33 12.9173C1065.33 14.0143 1064.75 14.8277 1063.59 15.3454C1062.44 15.8631 1060.91 16.1219 1059 16.1219C1057.09 16.1219 1055.57 15.8631 1054.42 15.3454C1053.28 14.8277 1052.7 14.0143 1052.7 12.9173C1052.7 11.8203 1053.28 11.0192 1054.42 10.5015C1055.57 9.9838 1057.1 9.72497 1059 9.72497C1060.89 9.72497 1062.45 9.9838 1063.59 10.5015ZM1053.83 2.74871V6.76684H1058.52V2.74871H1053.83ZM1062.18 14.1375C1063 13.854 1063.41 13.4473 1063.41 12.905C1063.41 12.3626 1063 11.9559 1062.19 11.6847C1061.38 11.4136 1060.3 11.278 1059 11.278C1057.69 11.278 1056.64 11.4136 1055.83 11.6847C1055.02 11.9559 1054.61 12.3626 1054.61 12.905C1054.61 13.4473 1055.02 13.8664 1055.83 14.1375C1056.64 14.421 1057.69 14.5566 1059 14.5566C1060.3 14.5566 1061.36 14.421 1062.19 14.1375H1062.18ZM1061.13 7.34614V5.69451H1063.43V3.72242H1061.13V2.08313H1063.43V0.80127H1065.21V9.24427H1063.43V7.34614H1061.13Z" fill="#229A73"/>
<mask id="mask0_6_984" style="mask-type:luminance" maskUnits="userSpaceOnUse" x="1043" y="23" width="30" height="201">
<path d="M1072.36 23.3446H1043.1V223.77H1072.36V23.3446Z" fill="white"/>
</mask>
<g mask="url(#mask0_6_984)">
<path d="M1037.91 59.2982C1037.91 59.2982 1037.82 59.2366 1037.78 59.2119C1035.05 61.184 1031.7 62.3673 1028.06 62.3673C1024.42 62.3673 1021.08 61.184 1018.33 59.2119C1018.29 59.2366 1018.25 59.2735 1018.21 59.2982C1004.01 64.4256 988.482 66.1019 988.482 82.0758V134.287C988.482 138.736 992.082 142.335 996.531 142.335C1000.98 142.335 1004.58 138.736 1004.58 134.287V84.923H1007.27V207.106C1007.27 212.48 1011.62 216.831 1016.99 216.831C1022.37 216.831 1026.72 212.48 1026.72 207.106V135.618H1029.4V207.106C1029.4 212.48 1033.75 216.831 1039.13 216.831C1044.5 216.831 1048.85 212.48 1048.85 207.106V84.923H1051.54V134.287C1051.54 138.736 1055.14 142.335 1059.59 142.335C1064.04 142.335 1067.64 138.736 1067.64 134.287V82.0758C1067.64 66.1019 1052.11 64.4256 1037.91 59.2982Z" fill="#229A73"/>
</g>
</svg>
