<svg width="895" height="123" viewBox="0 0 895 123" fill="none" xmlns="http://www.w3.org/2000/svg">
<path d="M262.965 7.06917H260.02V12.6525H258.02V0.846951H260.02V5.09695H262.965V7.06917ZM248.603 7.34695C247.881 8.66177 246.946 9.73584 245.798 10.5692C244.65 11.384 243.335 11.9118 241.853 12.1525V10.2358C243.15 9.97658 244.27 9.41177 245.215 8.54139C246.159 7.67102 246.881 6.58769 247.381 5.29139C247.881 3.9951 248.131 2.58769 248.131 1.06917L250.159 1.18028C250.159 2.7914 249.909 4.28214 249.409 5.65251L255.853 10.097L254.826 11.6525L248.603 7.34695ZM251.742 13.4303C254.316 13.4303 256.39 13.7914 257.965 14.5136C259.539 15.2173 260.326 16.3099 260.326 17.7914C260.326 19.2729 259.539 20.3655 257.965 21.0692C256.39 21.7729 254.316 22.1247 251.742 22.1247C249.168 22.1247 247.094 21.7729 245.52 21.0692C243.946 20.3655 243.159 19.2729 243.159 17.7914C243.159 16.3099 243.946 15.2173 245.52 14.5136C247.094 13.7914 249.168 13.4303 251.742 13.4303ZM251.742 20.3747C253.65 20.3747 255.205 20.1525 256.409 19.7081C257.613 19.2636 258.215 18.6247 258.215 17.7914C258.215 16.9395 257.613 16.2914 256.409 15.847C255.205 15.4025 253.65 15.1803 251.742 15.1803C249.835 15.1803 248.279 15.4025 247.076 15.847C245.872 16.2914 245.27 16.9395 245.27 17.7914C245.27 18.6247 245.872 19.2636 247.076 19.7081C248.279 20.1525 249.835 20.3747 251.742 20.3747ZM282.6 22.1803H280.573V0.846951H282.6V22.1803ZM272.712 1.45806C272.675 4.82843 272.388 7.78214 271.85 10.3192L278.545 19.5692L276.934 20.7914L271.212 12.7636C270.489 15.1895 269.526 17.1062 268.323 18.5136C267.138 19.9025 265.758 20.6803 264.184 20.847V18.7636C265.554 18.5229 266.721 17.6062 267.684 16.0136C268.647 14.4025 269.378 12.3284 269.878 9.79139C270.378 7.25436 270.638 4.45806 270.656 1.40251L272.712 1.45806ZM307.98 9.31917V3.01362H292.646V1.15251H309.98V9.31917H307.98ZM291.257 12.6803V10.8192H311.48V12.6803H291.257ZM310.396 20.0414V21.8747H292.73V14.9858H294.757V20.0414H310.396ZM333.477 21.097H313.254V19.1803H322.31V14.7914H314.699V7.2914H330.116V3.56917H314.671V1.68028H332.116V9.12473H316.671V12.9025H332.421V14.7914H324.31V19.1803H333.477V21.097ZM353.502 11.6803V22.1803H351.502V0.846951H353.502V9.68028H356.446V11.6803H353.502ZM343.418 3.62473C343.381 6.30991 343.177 8.68028 342.807 10.7358L349.446 19.4303L347.863 20.6525L342.168 13.1247C341.502 15.4025 340.603 17.2081 339.474 18.5414C338.344 19.8562 337.029 20.6247 335.529 20.847V18.7636C336.733 18.5044 337.77 17.6988 338.64 16.347C339.511 14.9766 340.177 13.1988 340.64 11.0136C341.122 8.82843 341.381 6.36547 341.418 3.62473H335.974V1.68028H348.724V3.62473H343.418ZM372.575 6.65251C371.445 8.31917 370.047 9.64325 368.381 10.6247C366.714 11.6062 364.992 12.097 363.214 12.097V10.097C364.658 10.1155 366.066 9.70806 367.436 8.87473C368.807 8.02288 369.973 6.87473 370.936 5.43028C371.899 3.98584 372.529 2.41177 372.825 0.708061L374.881 1.06917C374.64 2.32843 374.195 3.64325 373.547 5.01362L382.353 10.347L381.408 12.0692L372.575 6.65251ZM373.853 16.4581V22.6803H371.825V16.4581H362.742V14.5136H382.964V16.4581H373.853ZM402.989 11.6803V22.1803H400.989V0.846951H402.989V9.68028H405.933V11.6803H402.989ZM396.461 1.68028V6.68028C396.461 9.4951 396.026 11.9673 395.156 14.097C394.285 16.2266 393.026 17.8747 391.378 19.0414C389.73 20.2081 387.776 20.7914 385.517 20.7914V18.7914C387.387 18.7914 388.989 18.3007 390.322 17.3192C391.674 16.3377 392.702 14.9395 393.406 13.1247C394.109 11.3099 394.461 9.18954 394.461 6.76362V3.59695H385.517V1.68028H396.461ZM646.164 7.20806V9.04139H628.747V0.874728H630.747V7.20806H646.164ZM627.219 13.4858V11.6803H647.442V13.4858H627.219ZM646.358 20.0414V21.8747H628.692V15.5692H630.719V20.0414H646.358ZM160.359 60.1525C162.396 60.2451 163.951 60.7914 165.025 61.7914C166.099 62.7729 166.636 64.0599 166.636 65.6525C166.636 66.7636 166.368 67.7544 165.831 68.6247C165.294 69.4951 164.498 70.1803 163.442 70.6803C162.386 71.1803 161.099 71.4303 159.581 71.4303C158.173 71.4303 156.84 71.2081 155.581 70.7636C154.34 70.3007 153.349 69.6895 152.609 68.9303L153.525 67.347C154.173 68.0136 155.025 68.5599 156.081 68.9858C157.155 69.3932 158.303 69.597 159.525 69.597C161.136 69.597 162.368 69.2451 163.22 68.5414C164.09 67.8377 164.525 66.8747 164.525 65.6525C164.525 64.4303 164.09 63.4766 163.22 62.7914C162.368 62.1062 161.062 61.7636 159.303 61.7636H157.914V60.347L163.275 53.5692H153.359V51.7914H165.859V53.2081L160.359 60.1525ZM171.478 71.3747C171.052 71.3747 170.691 71.2358 170.395 70.9581C170.117 70.6618 169.978 70.2914 169.978 69.847C169.978 69.421 170.117 69.0692 170.395 68.7914C170.691 68.4951 171.052 68.347 171.478 68.347C171.904 68.347 172.256 68.4951 172.533 68.7914C172.83 69.0692 172.978 69.421 172.978 69.847C172.978 70.2914 172.83 70.6618 172.533 70.9581C172.256 71.2358 171.904 71.3747 171.478 71.3747ZM184.661 71.2358H182.549V53.5692H177.994V51.7914H184.661V71.2358ZM196.669 62.4581C195.761 62.4581 194.956 62.2266 194.252 61.7636C193.548 61.3007 192.993 60.6525 192.585 59.8192C192.196 58.9858 192.002 58.0229 192.002 56.9303C192.002 55.8377 192.196 54.8747 192.585 54.0414C192.993 53.2081 193.548 52.5599 194.252 52.097C194.956 51.634 195.761 51.4025 196.669 51.4025C197.576 51.4025 198.382 51.634 199.085 52.097C199.789 52.5414 200.335 53.1803 200.724 54.0136C201.113 54.847 201.308 55.8192 201.308 56.9303C201.308 58.0414 201.113 59.0136 200.724 59.847C200.335 60.6803 199.789 61.3284 199.085 61.7914C198.382 62.2358 197.576 62.4581 196.669 62.4581ZM210.808 51.5414L197.169 71.4858H194.863L208.502 51.5414H210.808ZM196.669 60.7081C197.483 60.7081 198.132 60.3747 198.613 59.7081C199.113 59.0414 199.363 58.1155 199.363 56.9303C199.363 55.7451 199.113 54.8192 198.613 54.1525C198.132 53.4858 197.483 53.1525 196.669 53.1525C195.854 53.1525 195.196 53.4858 194.696 54.1525C194.196 54.8192 193.946 55.7451 193.946 56.9303C193.946 58.1155 194.196 59.0414 194.696 59.7081C195.196 60.3747 195.854 60.7081 196.669 60.7081ZM209.002 71.6247C208.095 71.6247 207.289 71.3932 206.585 70.9303C205.882 70.4673 205.326 69.8192 204.919 68.9858C204.53 68.1525 204.335 67.1895 204.335 66.097C204.335 65.0044 204.53 64.0414 204.919 63.2081C205.326 62.3747 205.882 61.7266 206.585 61.2636C207.289 60.8007 208.095 60.5692 209.002 60.5692C209.909 60.5692 210.715 60.8007 211.419 61.2636C212.141 61.7266 212.696 62.3747 213.085 63.2081C213.493 64.0414 213.696 65.0044 213.696 66.097C213.696 67.1895 213.493 68.1525 213.085 68.9858C212.696 69.8192 212.141 70.4673 211.419 70.9303C210.715 71.3932 209.909 71.6247 209.002 71.6247ZM209.002 69.8747C209.817 69.8747 210.474 69.5414 210.974 68.8747C211.474 68.2081 211.724 67.2821 211.724 66.097C211.724 64.9118 211.474 63.9858 210.974 63.3192C210.474 62.6525 209.817 62.3192 209.002 62.3192C208.187 62.3192 207.53 62.6525 207.03 63.3192C206.548 63.9858 206.308 64.9118 206.308 66.097C206.308 67.2821 206.548 68.2081 207.03 68.8747C207.53 69.5414 208.187 69.8747 209.002 69.8747ZM232.328 72.1803V50.847H234.301V72.1803H232.328ZM222.412 51.347C223.597 51.347 224.662 51.634 225.606 52.2081C226.551 52.7636 227.282 53.5507 227.801 54.5692C228.338 55.5877 228.606 56.7451 228.606 58.0414C228.606 59.3192 228.338 60.4673 227.801 61.4858C227.264 62.5044 226.523 63.3007 225.578 63.8747C224.652 64.4303 223.597 64.7081 222.412 64.7081C221.208 64.7081 220.134 64.4303 219.19 63.8747C218.245 63.3007 217.504 62.5136 216.967 61.5136C216.43 60.4951 216.162 59.3377 216.162 58.0414C216.162 56.7451 216.43 55.5877 216.967 54.5692C217.504 53.5507 218.245 52.7636 219.19 52.2081C220.134 51.634 221.208 51.347 222.412 51.347ZM222.412 53.2636C221.134 53.2636 220.097 53.7173 219.301 54.6247C218.523 55.5136 218.134 56.6525 218.134 58.0414C218.134 59.4118 218.523 60.5507 219.301 61.4581C220.097 62.347 221.134 62.7914 222.412 62.7914C223.671 62.7914 224.69 62.347 225.467 61.4581C226.264 60.5507 226.662 59.4118 226.662 58.0414C226.662 56.671 226.264 55.5321 225.467 54.6247C224.69 53.7173 223.671 53.2636 222.412 53.2636ZM230.495 69.8192C229.828 70.1525 228.875 70.4118 227.634 70.597C226.393 70.7636 224.986 70.847 223.412 70.847H215.44V68.8747H223.551C225.069 68.8747 226.43 68.7914 227.634 68.6247C228.856 68.4395 229.81 68.1803 230.495 67.847V69.8192ZM264.124 57.0692H261.18V62.6525H259.18V50.847H261.18V55.097H264.124V57.0692ZM249.958 57.5414C249.291 58.8007 248.374 59.8377 247.208 60.6525C246.059 61.4488 244.735 61.9488 243.235 62.1525V60.2358C244.958 59.9766 246.337 59.2266 247.374 57.9858C248.411 56.7266 248.995 55.1525 249.124 53.2636H243.485V51.4581H256.43V53.2636H251.152C251.096 54.2451 250.948 55.1247 250.708 55.9025L257.069 60.097L256.069 61.6803L249.958 57.5414ZM252.902 63.4303C255.476 63.4303 257.55 63.7914 259.124 64.5136C260.698 65.2173 261.485 66.3099 261.485 67.7914C261.485 69.2729 260.698 70.3655 259.124 71.0692C257.55 71.7729 255.476 72.1247 252.902 72.1247C250.328 72.1247 248.254 71.7729 246.68 71.0692C245.106 70.3655 244.319 69.2729 244.319 67.7914C244.319 66.3099 245.106 65.2173 246.68 64.5136C248.254 63.7914 250.328 63.4303 252.902 63.4303ZM252.902 70.3747C254.809 70.3747 256.365 70.1525 257.569 69.7081C258.772 69.2636 259.374 68.6247 259.374 67.7914C259.374 66.9395 258.772 66.2914 257.569 65.847C256.365 65.4025 254.809 65.1803 252.902 65.1803C250.995 65.1803 249.439 65.4025 248.235 65.847C247.032 66.2914 246.43 66.9395 246.43 67.7914C246.43 68.6247 247.032 69.2636 248.235 69.7081C249.439 70.1525 250.995 70.3747 252.902 70.3747ZM284.316 72.1803H282.399V61.597H278.732V71.8192H276.843V50.9581H278.732V59.597H282.399V50.847H284.316V72.1803ZM269.927 51.4025C271.482 51.4025 272.649 52.2081 273.427 53.8192C274.205 55.4303 274.593 57.9118 274.593 61.2636C274.593 64.634 274.205 67.1247 273.427 68.7358C272.649 70.3284 271.482 71.1247 269.927 71.1247C268.39 71.1247 267.223 70.3284 266.427 68.7358C265.649 67.1247 265.26 64.634 265.26 61.2636C265.26 54.6895 266.816 51.4025 269.927 51.4025ZM269.927 69.2081C270.853 69.2081 271.538 68.5599 271.982 67.2636C272.445 65.9488 272.677 63.9488 272.677 61.2636C272.677 58.5784 272.445 56.5877 271.982 55.2914C271.538 53.9766 270.853 53.3192 269.927 53.3192C269.001 53.3192 268.306 53.9766 267.843 55.2914C267.399 56.5877 267.177 58.5784 267.177 61.2636C267.177 63.9488 267.399 65.9488 267.843 67.2636C268.306 68.5599 269.001 69.2081 269.927 69.2081ZM303.729 66.7081V50.847H305.757V66.7081H303.729ZM293.563 51.097C294.859 51.097 295.989 51.3655 296.952 51.9025C297.915 52.421 298.646 53.1525 299.146 54.097C299.665 55.0229 299.924 56.0784 299.924 57.2636C299.924 58.4488 299.665 59.5136 299.146 60.4581C298.646 61.384 297.915 62.1155 296.952 62.6525C295.989 63.171 294.859 63.4303 293.563 63.4303C292.266 63.4303 291.137 63.171 290.174 62.6525C289.211 62.1155 288.47 61.384 287.952 60.4581C287.433 59.5136 287.174 58.4488 287.174 57.2636C287.174 56.0784 287.433 55.0229 287.952 54.097C288.47 53.1525 289.211 52.421 290.174 51.9025C291.137 51.3655 292.266 51.097 293.563 51.097ZM293.563 52.8747C292.248 52.8747 291.192 53.2729 290.396 54.0692C289.6 54.8655 289.202 55.9303 289.202 57.2636C289.202 58.597 289.6 59.6618 290.396 60.4581C291.192 61.2358 292.248 61.6247 293.563 61.6247C294.878 61.6247 295.933 61.2358 296.729 60.4581C297.526 59.6618 297.924 58.597 297.924 57.2636C297.924 55.9303 297.526 54.8655 296.729 54.0692C295.933 53.2729 294.878 52.8747 293.563 52.8747ZM306.341 69.9303V71.847H288.952V64.9581H290.979V69.9303H306.341ZM319.032 50.8192C321.662 50.8192 323.791 51.134 325.421 51.7636C327.051 52.3747 327.865 53.3377 327.865 54.6525C327.865 55.9673 327.051 56.9303 325.421 57.5414C323.791 58.1525 321.662 58.4581 319.032 58.4581C316.402 58.4581 314.264 58.1525 312.615 57.5414C310.986 56.9303 310.171 55.9673 310.171 54.6525C310.171 53.3377 310.986 52.3747 312.615 51.7636C314.264 51.134 316.402 50.8192 319.032 50.8192ZM319.032 52.4581C317.051 52.4581 315.421 52.6432 314.143 53.0136C312.884 53.3655 312.254 53.9118 312.254 54.6525C312.254 55.3932 312.884 55.9395 314.143 56.2914C315.402 56.6432 317.032 56.8192 319.032 56.8192C321.014 56.8192 322.634 56.6432 323.893 56.2914C325.152 55.9395 325.782 55.3932 325.782 54.6525C325.782 53.9118 325.143 53.3655 323.865 53.0136C322.606 52.6432 320.995 52.4581 319.032 52.4581ZM308.921 61.6525V59.9858H329.143V61.6525H308.921ZM312.338 68.3747V70.3192H328.06V71.8747H310.393V67.0414H325.727V65.1525H310.338V63.6247H327.699V68.3747H312.338ZM353.3 72.1803V50.847H355.272V72.1803H353.3ZM343.383 51.347C344.569 51.347 345.633 51.634 346.578 52.2081C347.522 52.7636 348.254 53.5507 348.772 54.5692C349.309 55.5877 349.578 56.7451 349.578 58.0414C349.578 59.3192 349.309 60.4673 348.772 61.4858C348.235 62.5044 347.495 63.3007 346.55 63.8747C345.624 64.4303 344.569 64.7081 343.383 64.7081C342.18 64.7081 341.106 64.4303 340.161 63.8747C339.217 63.3007 338.476 62.5136 337.939 61.5136C337.402 60.4951 337.133 59.3377 337.133 58.0414C337.133 56.7451 337.402 55.5877 337.939 54.5692C338.476 53.5507 339.217 52.7636 340.161 52.2081C341.106 51.634 342.18 51.347 343.383 51.347ZM343.383 53.2636C342.106 53.2636 341.069 53.7173 340.272 54.6247C339.495 55.5136 339.106 56.6525 339.106 58.0414C339.106 59.4118 339.495 60.5507 340.272 61.4581C341.069 62.347 342.106 62.7914 343.383 62.7914C344.643 62.7914 345.661 62.347 346.439 61.4581C347.235 60.5507 347.633 59.4118 347.633 58.0414C347.633 56.671 347.235 55.5321 346.439 54.6247C345.661 53.7173 344.643 53.2636 343.383 53.2636ZM351.467 69.8192C350.8 70.1525 349.846 70.4118 348.606 70.597C347.365 70.7636 345.957 70.847 344.383 70.847H336.411V68.8747H344.522C346.041 68.8747 347.402 68.7914 348.606 68.6247C349.828 68.4395 350.782 68.1803 351.467 67.847V69.8192ZM359.88 61.7358V51.5692H377.158V61.7358H359.88ZM361.88 53.4858V59.7914H375.158V53.4858H361.88ZM369.547 66.4858V72.6803H367.492V66.4858H358.408V64.4858H378.63V66.4858H369.547ZM399.35 63.847H397.35V57.7081H393.211V55.8747H397.35V50.847H399.35V63.847ZM387.461 58.4025C386.794 59.7358 385.887 60.8192 384.739 61.6525C383.609 62.4673 382.303 62.9673 380.822 63.1525V61.2081C382.6 60.9303 384.007 60.097 385.044 58.7081C386.081 57.3007 386.655 55.4951 386.766 53.2914H381.072V51.4581H394.044V53.2914H388.766C388.711 54.421 388.535 55.5414 388.239 56.6525L394.6 61.4025L393.516 62.9858L387.461 58.4025ZM399.35 65.097V72.1247H397.322V66.9581H382.1V65.097H399.35ZM412.514 51.347C414.328 51.347 415.921 51.6247 417.291 52.1803C418.662 52.7358 419.717 53.5229 420.458 54.5414C421.199 55.5599 421.569 56.7358 421.569 58.0692C421.569 59.4025 421.199 60.5784 420.458 61.597C419.717 62.597 418.662 63.3747 417.291 63.9303C415.921 64.4858 414.328 64.7636 412.514 64.7636C410.699 64.7636 409.106 64.4858 407.736 63.9303C406.365 63.3747 405.31 62.597 404.569 61.597C403.828 60.5784 403.458 59.4025 403.458 58.0692C403.458 56.7358 403.828 55.5599 404.569 54.5414C405.31 53.5229 406.365 52.7358 407.736 52.1803C409.106 51.6247 410.699 51.347 412.514 51.347ZM412.514 53.2636C411.125 53.2636 409.902 53.4673 408.847 53.8747C407.81 54.2636 407.004 54.8192 406.43 55.5414C405.856 56.2636 405.569 57.1062 405.569 58.0692C405.569 59.0136 405.856 59.847 406.43 60.5692C407.004 61.2914 407.81 61.8562 408.847 62.2636C409.902 62.6525 411.125 62.847 412.514 62.847C413.902 62.847 415.115 62.6525 416.152 62.2636C417.208 61.8562 418.023 61.2914 418.597 60.5692C419.171 59.847 419.458 59.0136 419.458 58.0692C419.458 57.1062 419.171 56.2636 418.597 55.5414C418.023 54.8192 417.208 54.2636 416.152 53.8747C415.115 53.4673 413.902 53.2636 412.514 53.2636ZM402.402 71.097V69.1247H422.625V71.097H402.402ZM444.622 71.097H424.399V69.1803H433.455V64.7914H425.844V57.2914H441.261V53.5692H425.816V51.6803H443.261V59.1247H427.816V62.9025H443.566V64.7914H435.455V69.1803H444.622V71.097ZM453.167 53.6247V51.6525H470.695V65.7358H468.64V53.6247H453.167ZM472.112 71.097H451.89V69.1247H459.64V59.347H461.695V69.1247H472.112V71.097ZM494.109 62.7081H473.887V60.9858H478.47V58.1247C477.415 57.8099 476.591 57.3747 475.998 56.8192C475.405 56.2636 475.109 55.5877 475.109 54.7914C475.109 53.4395 475.942 52.4303 477.609 51.7636C479.276 51.0784 481.405 50.7358 483.998 50.7358C486.591 50.7358 488.711 51.0784 490.359 51.7636C492.026 52.4303 492.859 53.4395 492.859 54.7914C492.859 55.5877 492.563 56.2636 491.97 56.8192C491.378 57.3747 490.553 57.8099 489.498 58.1247V60.9858H494.109V62.7081ZM483.998 52.4581C482.035 52.4581 480.405 52.6525 479.109 53.0414C477.831 53.4303 477.192 54.0136 477.192 54.7914C477.192 55.5692 477.831 56.1525 479.109 56.5414C480.387 56.9303 482.016 57.1247 483.998 57.1247C485.961 57.1247 487.581 56.9303 488.859 56.5414C490.137 56.1525 490.776 55.5692 490.776 54.7914C490.776 54.0136 490.128 53.4303 488.831 53.0414C487.553 52.6525 485.942 52.4581 483.998 52.4581ZM487.498 60.9858V58.5692C486.498 58.7544 485.331 58.847 483.998 58.847C482.683 58.847 481.507 58.7544 480.47 58.5692V60.9858H487.498ZM483.998 64.5692C486.628 64.5692 488.757 64.8655 490.387 65.4581C492.016 66.0321 492.831 66.9951 492.831 68.347C492.831 69.6988 492.016 70.671 490.387 71.2636C488.757 71.8747 486.628 72.1803 483.998 72.1803C481.368 72.1803 479.229 71.8747 477.581 71.2636C475.952 70.671 475.137 69.6988 475.137 68.347C475.137 66.9951 475.952 66.0321 477.581 65.4581C479.229 64.8655 481.368 64.5692 483.998 64.5692ZM483.998 70.4858C485.924 70.4858 487.526 70.3192 488.803 69.9858C490.081 69.6525 490.72 69.1062 490.72 68.347C490.72 67.6062 490.081 67.0784 488.803 66.7636C487.526 66.4303 485.924 66.2636 483.998 66.2636C482.072 66.2636 480.461 66.4303 479.165 66.7636C477.887 67.0784 477.248 67.6062 477.248 68.347C477.248 69.1062 477.887 69.6525 479.165 69.9858C480.461 70.3192 482.072 70.4858 483.998 70.4858ZM506.273 54.3192V56.2081H495.467V54.3192H499.856V50.7914H501.856V54.3192H506.273ZM515.273 72.1803H513.384V61.5692H509.801V71.8192H507.912V50.9581H509.801V59.597H513.384V50.847H515.273V72.1803ZM500.967 58.0692C501.875 58.0692 502.68 58.3284 503.384 58.847C504.106 59.347 504.662 60.0877 505.051 61.0692C505.458 62.0321 505.662 63.1988 505.662 64.5692C505.662 65.9395 505.458 67.1155 505.051 68.097C504.662 69.0784 504.106 69.8284 503.384 70.347C502.68 70.847 501.875 71.097 500.967 71.097C499.578 71.097 498.458 70.5229 497.606 69.3747C496.754 68.2266 496.328 66.6247 496.328 64.5692C496.328 62.5136 496.754 60.921 497.606 59.7914C498.458 58.6432 499.578 58.0692 500.967 58.0692ZM500.967 69.2358C501.801 69.2358 502.476 68.8192 502.995 67.9858C503.514 67.1525 503.773 66.0136 503.773 64.5692C503.773 63.1247 503.514 61.9858 502.995 61.1525C502.476 60.3192 501.801 59.9025 500.967 59.9025C500.134 59.9025 499.458 60.3192 498.939 61.1525C498.439 61.9673 498.189 63.1062 498.189 64.5692C498.189 66.0321 498.439 67.1803 498.939 68.0136C499.458 68.8284 500.134 69.2358 500.967 69.2358ZM536.131 63.4858H539.075V65.4303H536.131V72.1803H534.131V50.847H536.131V56.2636H539.075V58.2081H536.131V63.4858ZM524.603 51.4025C526.418 51.4025 527.862 52.2358 528.937 53.9025C530.029 55.5692 530.575 58.0229 530.575 61.2636C530.575 64.5044 530.029 66.9581 528.937 68.6247C527.862 70.2914 526.418 71.1247 524.603 71.1247C522.77 71.1247 521.307 70.2914 520.214 68.6247C519.14 66.9581 518.603 64.5044 518.603 61.2636C518.603 58.0229 519.14 55.5692 520.214 53.9025C521.307 52.2358 522.77 51.4025 524.603 51.4025ZM524.603 69.2081C525.788 69.2081 526.742 68.5507 527.464 67.2358C528.205 65.9025 528.575 63.9118 528.575 61.2636C528.575 58.6155 528.205 56.634 527.464 55.3192C526.742 53.9858 525.788 53.3192 524.603 53.3192C523.381 53.3192 522.409 53.9858 521.687 55.3192C520.964 56.634 520.603 58.6155 520.603 61.2636C520.603 63.9303 520.964 65.921 521.687 67.2358C522.409 68.5507 523.381 69.2081 524.603 69.2081ZM559.01 54.3192V56.2358H545.843V54.3192H551.399V50.7914H553.427V54.3192H559.01ZM563.621 61.6803V72.1803H561.621V50.847H563.621V59.6803H566.566V61.6803H563.621ZM552.427 58.1247C553.482 58.1247 554.436 58.3932 555.288 58.9303C556.14 59.4673 556.806 60.2266 557.288 61.2081C557.769 62.1895 558.01 63.3192 558.01 64.597C558.01 65.8747 557.769 67.0136 557.288 68.0136C556.806 68.9951 556.14 69.7544 555.288 70.2914C554.436 70.8284 553.482 71.097 552.427 71.097C551.353 71.097 550.39 70.8284 549.538 70.2914C548.686 69.7544 548.019 68.9951 547.538 68.0136C547.056 67.0136 546.816 65.8747 546.816 64.597C546.816 63.3192 547.056 62.1895 547.538 61.2081C548.019 60.2266 548.686 59.4673 549.538 58.9303C550.39 58.3932 551.353 58.1247 552.427 58.1247ZM552.427 69.2358C553.093 69.2358 553.695 69.0507 554.232 68.6803C554.788 68.2914 555.223 67.7451 555.538 67.0414C555.871 66.3377 556.038 65.5229 556.038 64.597C556.038 63.671 555.871 62.8562 555.538 62.1525C555.223 61.4488 554.788 60.9118 554.232 60.5414C553.695 60.1525 553.093 59.9581 552.427 59.9581C551.742 59.9581 551.121 60.1525 550.566 60.5414C550.029 60.9118 549.593 61.4488 549.26 62.1525C548.945 62.8562 548.788 63.671 548.788 64.597C548.788 65.5229 548.945 66.3377 549.26 67.0414C549.593 67.7451 550.029 68.2914 550.566 68.6803C551.121 69.0507 551.742 69.2358 552.427 69.2358ZM586.313 57.2081V59.0414H568.896V50.8747H570.896V57.2081H586.313ZM567.368 63.4858V61.6803H587.59V63.4858H567.368ZM586.507 70.0414V71.8747H568.84V65.5692H570.868V70.0414H586.507ZM608.754 72.1803H606.838V50.847H608.754V72.1803ZM603.865 50.9581V71.8192H601.949V61.5692H596.532V59.597H601.949V50.9581H603.865ZM595.199 68.9581C596.051 68.9581 596.884 68.8747 597.699 68.7081C598.532 68.5414 599.273 68.3099 599.921 68.0136V69.8747C599.31 70.171 598.56 70.4118 597.671 70.597C596.801 70.7636 595.893 70.847 594.949 70.847H590.06V51.6803H599.032V53.5692H592.004V68.9581H595.199ZM613.446 68.347C613.89 68.347 614.251 68.4951 614.529 68.7914C614.807 69.0692 614.946 69.421 614.946 69.847C614.946 70.0692 614.918 70.2914 614.862 70.5136C614.825 70.7358 614.733 71.0507 614.585 71.4581L613.39 75.2636H612.001L612.974 71.2358C612.659 71.1432 612.409 70.9766 612.224 70.7358C612.038 70.4951 611.946 70.1988 611.946 69.847C611.946 69.421 612.085 69.0692 612.362 68.7914C612.659 68.4951 613.02 68.347 613.446 68.347ZM639.51 66.4303V53.6247H624.066V51.6525H641.594V66.4303H639.51ZM622.788 71.097V69.1247H643.01V71.097H622.788ZM658.063 55.9858V54.1247H661.757V50.847H663.757V62.1247H661.757V55.9858H658.063ZM654.646 53.0136H645.646V51.4303H656.619V56.9025H647.674V59.3192H652.535C654.017 59.3192 655.341 59.2358 656.507 59.0692C657.674 58.884 658.591 58.634 659.257 58.3192V59.9303C658.609 60.2451 657.683 60.4858 656.48 60.6525C655.276 60.8192 653.906 60.9025 652.369 60.9025H645.702V55.4025H654.646V53.0136ZM664.424 65.3192H646.119V63.7358H654.285V61.8747H656.285V63.7358H664.424V65.3192ZM655.285 66.5692C658.193 66.5692 660.304 66.8007 661.619 67.2636C662.933 67.7081 663.591 68.4303 663.591 69.4303C663.591 70.4118 662.933 71.1247 661.619 71.5692C660.304 72.0321 658.193 72.2636 655.285 72.2636C652.396 72.2636 650.285 72.0321 648.952 71.5692C647.637 71.1247 646.98 70.4118 646.98 69.4303C646.98 68.4488 647.637 67.7266 648.952 67.2636C650.285 66.8007 652.396 66.5692 655.285 66.5692ZM655.285 70.8192C659.47 70.8192 661.563 70.3562 661.563 69.4303C661.563 68.9488 661.035 68.597 659.98 68.3747C658.943 68.1525 657.378 68.0414 655.285 68.0414C653.193 68.0414 651.628 68.1525 650.591 68.3747C649.554 68.597 649.035 68.9488 649.035 69.4303C649.035 70.3562 651.119 70.8192 655.285 70.8192ZM685.616 72.1803H683.588V50.847H685.616V72.1803ZM675.282 53.6247C675.264 56.1803 675.051 58.5414 674.643 60.7081L681.393 69.4025L679.81 70.6525L674.005 63.0414C673.338 65.3377 672.43 67.1618 671.282 68.5136C670.134 69.847 668.801 70.6247 667.282 70.847V68.7636C668.505 68.5044 669.56 67.6988 670.449 66.347C671.338 64.9766 672.023 63.1988 672.505 61.0136C672.986 58.8099 673.245 56.347 673.282 53.6247H667.727V51.6803H680.671V53.6247H675.282ZM715.467 57.2914H712.523V61.4581H710.523V50.847H712.523V55.2636H715.467V57.2914ZM706.828 56.347C706.828 57.384 706.578 58.3007 706.078 59.097C705.578 59.8747 704.856 60.4858 703.911 60.9303C702.986 61.3747 701.893 61.597 700.634 61.597C699.374 61.597 698.273 61.3747 697.328 60.9303C696.402 60.4858 695.68 59.8747 695.161 59.097C694.661 58.3007 694.411 57.384 694.411 56.347C694.411 55.3284 694.661 54.421 695.161 53.6247C695.68 52.8284 696.402 52.2081 697.328 51.7636C698.273 51.3192 699.374 51.097 700.634 51.097C701.893 51.097 702.986 51.3192 703.911 51.7636C704.856 52.2081 705.578 52.8284 706.078 53.6247C706.578 54.421 706.828 55.3284 706.828 56.347ZM696.411 56.347C696.411 57.4395 696.791 58.3007 697.55 58.9303C698.328 59.5599 699.356 59.8747 700.634 59.8747C701.893 59.8747 702.902 59.5599 703.661 58.9303C704.439 58.3007 704.828 57.4395 704.828 56.347C704.828 55.2544 704.439 54.3932 703.661 53.7636C702.902 53.134 701.893 52.8192 700.634 52.8192C699.374 52.8192 698.356 53.134 697.578 53.7636C696.8 54.3932 696.411 55.2544 696.411 56.347ZM713.745 64.1525V65.7358H703.161V64.1525H707.467V62.0692H709.439V64.1525H713.745ZM703.356 70.097V71.847H695.939V63.1525H697.911V70.097H703.356ZM708.467 66.7358C709.856 66.7358 710.958 66.9766 711.773 67.4581C712.587 67.921 712.995 68.597 712.995 69.4858C712.995 70.3747 712.587 71.0507 711.773 71.5136C710.958 71.9951 709.856 72.2358 708.467 72.2358C707.097 72.2358 706.004 71.9951 705.189 71.5136C704.374 71.0507 703.967 70.3747 703.967 69.4858C703.967 68.597 704.374 67.921 705.189 67.4581C706.004 66.9766 707.097 66.7358 708.467 66.7358ZM708.467 70.7914C709.3 70.7914 709.967 70.6803 710.467 70.4581C710.967 70.2358 711.217 69.9118 711.217 69.4858C711.217 69.0599 710.967 68.7358 710.467 68.5136C709.967 68.2914 709.3 68.1803 708.467 68.1803C707.652 68.1803 706.995 68.2914 706.495 68.5136C706.013 68.7358 705.773 69.0599 705.773 69.4858C705.773 69.9118 706.013 70.2358 706.495 70.4581C706.995 70.6803 707.652 70.7914 708.467 70.7914ZM717.547 53.6247V51.6525H735.075V65.7358H733.02V53.6247H717.547ZM736.492 71.097H716.27V69.1247H724.02V59.347H726.075V69.1247H736.492V71.097ZM17.2527 122.18V100.847H19.2249V122.18H17.2527ZM7.33606 101.347C8.52124 101.347 9.58606 101.634 10.5305 102.208C11.4749 102.764 12.2064 103.551 12.7249 104.569C13.262 105.588 13.5305 106.745 13.5305 108.041C13.5305 109.319 13.262 110.467 12.7249 111.486C12.1879 112.504 11.4472 113.301 10.5027 113.875C9.5768 114.43 8.52124 114.708 7.33606 114.708C6.13235 114.708 5.05828 114.43 4.11383 113.875C3.16939 113.301 2.42865 112.514 1.89161 111.514C1.35457 110.495 1.08606 109.338 1.08606 108.041C1.08606 106.745 1.35457 105.588 1.89161 104.569C2.42865 103.551 3.16939 102.764 4.11383 102.208C5.05828 101.634 6.13235 101.347 7.33606 101.347ZM7.33606 103.264C6.05828 103.264 5.02124 103.717 4.22495 104.625C3.44717 105.514 3.05828 106.653 3.05828 108.041C3.05828 109.412 3.44717 110.551 4.22495 111.458C5.02124 112.347 6.05828 112.791 7.33606 112.791C8.59532 112.791 9.61383 112.347 10.3916 111.458C11.1879 110.551 11.5861 109.412 11.5861 108.041C11.5861 106.671 11.1879 105.532 10.3916 104.625C9.61383 103.717 8.59532 103.264 7.33606 103.264ZM15.4194 119.819C14.7527 120.153 13.799 120.412 12.5583 120.597C11.3175 120.764 9.91013 120.847 8.33606 120.847H0.363834V118.875H8.47495C9.99346 118.875 11.3546 118.791 12.5583 118.625C13.7805 118.44 14.7342 118.18 15.4194 117.847V119.819ZM23.8331 111.736V101.569H41.1109V111.736H23.8331ZM25.8331 103.486V109.791H39.1109V103.486H25.8331ZM33.4998 116.486V122.68H31.4442V116.486H22.3609V114.486H42.5831V116.486H33.4998ZM45.6358 103.625V101.653H63.1635V115.736H61.108V103.625H45.6358ZM64.5802 121.097H44.358V119.125H52.108V109.347H54.1635V119.125H64.5802V121.097ZM86.5773 112.708H66.355V110.986H70.9384V108.125C69.8828 107.81 69.0587 107.375 68.4662 106.819C67.8736 106.264 67.5773 105.588 67.5773 104.791C67.5773 103.44 68.4106 102.43 70.0773 101.764C71.7439 101.078 73.8736 100.736 76.4662 100.736C79.0587 100.736 81.1791 101.078 82.8273 101.764C84.4939 102.43 85.3273 103.44 85.3273 104.791C85.3273 105.588 85.031 106.264 84.4384 106.819C83.8458 107.375 83.0217 107.81 81.9662 108.125V110.986H86.5773V112.708ZM76.4662 102.458C74.5032 102.458 72.8736 102.653 71.5773 103.041C70.2995 103.43 69.6606 104.014 69.6606 104.791C69.6606 105.569 70.2995 106.153 71.5773 106.541C72.855 106.93 74.4847 107.125 76.4662 107.125C78.4291 107.125 80.0495 106.93 81.3273 106.541C82.605 106.153 83.2439 105.569 83.2439 104.791C83.2439 104.014 82.5958 103.43 81.2995 103.041C80.0217 102.653 78.4106 102.458 76.4662 102.458ZM79.9662 110.986V108.569C78.9662 108.754 77.7995 108.847 76.4662 108.847C75.1513 108.847 73.9754 108.754 72.9384 108.569V110.986H79.9662ZM76.4662 114.569C79.0958 114.569 81.2254 114.865 82.855 115.458C84.4847 116.032 85.2995 116.995 85.2995 118.347C85.2995 119.699 84.4847 120.671 82.855 121.264C81.2254 121.875 79.0958 122.18 76.4662 122.18C73.8365 122.18 71.6976 121.875 70.0495 121.264C68.4199 120.671 67.605 119.699 67.605 118.347C67.605 116.995 68.4199 116.032 70.0495 115.458C71.6976 114.865 73.8365 114.569 76.4662 114.569ZM76.4662 120.486C78.3921 120.486 79.9939 120.319 81.2717 119.986C82.5495 119.653 83.1884 119.106 83.1884 118.347C83.1884 117.606 82.5495 117.078 81.2717 116.764C79.9939 116.43 78.3921 116.264 76.4662 116.264C74.5402 116.264 72.9291 116.43 71.6328 116.764C70.355 117.078 69.7162 117.606 69.7162 118.347C69.7162 119.106 70.355 119.653 71.6328 119.986C72.9291 120.319 74.5402 120.486 76.4662 120.486ZM110.651 116.708V100.847H112.679V116.708H110.651ZM100.484 101.097C101.78 101.097 102.91 101.365 103.873 101.903C104.836 102.421 105.568 103.153 106.068 104.097C106.586 105.023 106.845 106.078 106.845 107.264C106.845 108.449 106.586 109.514 106.068 110.458C105.568 111.384 104.836 112.115 103.873 112.653C102.91 113.171 101.78 113.43 100.484 113.43C99.1879 113.43 98.0582 113.171 97.0953 112.653C96.1323 112.115 95.3916 111.384 94.8731 110.458C94.3545 109.514 94.0953 108.449 94.0953 107.264C94.0953 106.078 94.3545 105.023 94.8731 104.097C95.3916 103.153 96.1323 102.421 97.0953 101.903C98.0582 101.365 99.1879 101.097 100.484 101.097ZM100.484 102.875C99.1694 102.875 98.1138 103.273 97.3175 104.069C96.5212 104.865 96.1231 105.93 96.1231 107.264C96.1231 108.597 96.5212 109.662 97.3175 110.458C98.1138 111.236 99.1694 111.625 100.484 111.625C101.799 111.625 102.855 111.236 103.651 110.458C104.447 109.662 104.845 108.597 104.845 107.264C104.845 105.93 104.447 104.865 103.651 104.069C102.855 103.273 101.799 102.875 100.484 102.875ZM113.262 119.93V121.847H95.8731V114.958H97.9008V119.93H113.262ZM132.815 100.847H134.815V117.569H132.815V115.986H126.453V114.375H132.815V100.847ZM123.092 109.18C121.296 109.18 119.852 108.819 118.759 108.097C117.666 107.356 117.12 106.338 117.12 105.041C117.12 103.764 117.666 102.764 118.759 102.041C119.87 101.301 121.315 100.93 123.092 100.93C124.87 100.93 126.305 101.301 127.398 102.041C128.49 102.764 129.037 103.764 129.037 105.041C129.037 106.356 128.49 107.375 127.398 108.097C126.324 108.819 124.889 109.18 123.092 109.18ZM123.092 102.625C121.889 102.625 120.916 102.838 120.176 103.264C119.453 103.671 119.092 104.264 119.092 105.041C119.092 105.838 119.453 106.449 120.176 106.875C120.916 107.301 121.889 107.514 123.092 107.514C124.278 107.514 125.231 107.301 125.953 106.875C126.694 106.449 127.065 105.838 127.065 105.041C127.065 104.264 126.694 103.671 125.953 103.264C125.231 102.838 124.278 102.625 123.092 102.625ZM115.87 112.597V110.847H124.065C127.453 110.847 129.759 110.56 130.981 109.986V111.736C129.759 112.31 127.305 112.597 123.62 112.597V116.597H121.62V112.597H115.87ZM135.398 121.847H117.759V115.43H119.787V120.014H135.398V121.847ZM157.228 122.18H155.312V100.847H157.228V122.18ZM152.339 100.958V121.819H150.423V111.903H147.506C147.451 115.032 147.034 117.356 146.256 118.875C145.478 120.375 144.339 121.125 142.839 121.125C141.302 121.125 140.136 120.328 139.339 118.736C138.562 117.125 138.173 114.634 138.173 111.264C138.173 104.69 139.728 101.403 142.839 101.403C145.747 101.403 147.293 104.227 147.478 109.875H150.423V100.958H152.339ZM142.839 119.208C143.765 119.208 144.451 118.56 144.895 117.264C145.358 115.949 145.589 113.949 145.589 111.264C145.589 108.578 145.358 106.588 144.895 105.291C144.451 103.977 143.765 103.319 142.839 103.319C141.913 103.319 141.219 103.977 140.756 105.291C140.312 106.588 140.089 108.578 140.089 111.264C140.089 113.949 140.312 115.949 140.756 117.264C141.219 118.56 141.913 119.208 142.839 119.208ZM303.107 122.18V100.847H305.135V122.18H303.107ZM287.524 120.847V101.68H298.94V120.847H287.524ZM296.912 103.653H289.524V118.875H296.912V103.653ZM329.493 106.791H326.548V111.347H324.548V100.847H326.548V104.847H329.493V106.791ZM322.937 109.458C322.289 109.773 321.363 110.014 320.16 110.18C318.956 110.347 317.595 110.43 316.076 110.43H309.076V101.43H321.437V103.236H311.076V108.653H316.187C317.669 108.653 318.993 108.569 320.16 108.403C321.345 108.217 322.271 107.967 322.937 107.653V109.458ZM327.104 120.236V121.847H309.771V116.486H324.548V114.208H309.715V112.597H326.548V117.986H311.826V120.236H327.104ZM343.934 104.319V106.236H330.768V104.319H336.323V100.791H338.351V104.319H343.934ZM348.545 111.68V122.18H346.545V100.847H348.545V109.68H351.49V111.68H348.545ZM337.351 108.125C338.407 108.125 339.36 108.393 340.212 108.93C341.064 109.467 341.731 110.227 342.212 111.208C342.694 112.19 342.934 113.319 342.934 114.597C342.934 115.875 342.694 117.014 342.212 118.014C341.731 118.995 341.064 119.754 340.212 120.291C339.36 120.828 338.407 121.097 337.351 121.097C336.277 121.097 335.314 120.828 334.462 120.291C333.61 119.754 332.944 118.995 332.462 118.014C331.981 117.014 331.74 115.875 331.74 114.597C331.74 113.319 331.981 112.19 332.462 111.208C332.944 110.227 333.61 109.467 334.462 108.93C335.314 108.393 336.277 108.125 337.351 108.125ZM337.351 119.236C338.018 119.236 338.62 119.051 339.157 118.68C339.712 118.291 340.147 117.745 340.462 117.041C340.795 116.338 340.962 115.523 340.962 114.597C340.962 113.671 340.795 112.856 340.462 112.153C340.147 111.449 339.712 110.912 339.157 110.541C338.62 110.153 338.018 109.958 337.351 109.958C336.666 109.958 336.045 110.153 335.49 110.541C334.953 110.912 334.518 111.449 334.184 112.153C333.87 112.856 333.712 113.671 333.712 114.597C333.712 115.523 333.87 116.338 334.184 117.041C334.518 117.745 334.953 118.291 335.49 118.68C336.045 119.051 336.666 119.236 337.351 119.236ZM371.237 107.208V109.041H353.82V100.875H355.82V107.208H371.237ZM352.293 113.486V111.68H372.515V113.486H352.293ZM371.431 120.041V121.875H353.765V115.569H355.793V120.041H371.431ZM389.616 106.653C388.486 108.319 387.088 109.643 385.422 110.625C383.755 111.606 382.033 112.097 380.255 112.097V110.097C381.699 110.115 383.107 109.708 384.477 108.875C385.848 108.023 387.014 106.875 387.977 105.43C388.94 103.986 389.57 102.412 389.866 100.708L391.922 101.069C391.681 102.328 391.236 103.643 390.588 105.014L399.394 110.347L398.449 112.069L389.616 106.653ZM390.894 116.458V122.68H388.866V116.458H379.783V114.514H400.005V116.458H390.894ZM421.169 122.18H419.252V100.847H421.169V122.18ZM416.28 100.958V121.819H414.363V111.903H411.447C411.391 115.032 410.974 117.356 410.197 118.875C409.419 120.375 408.28 121.125 406.78 121.125C405.243 121.125 404.076 120.328 403.28 118.736C402.502 117.125 402.113 114.634 402.113 111.264C402.113 104.69 403.669 101.403 406.78 101.403C409.687 101.403 411.234 104.227 411.419 109.875H414.363V100.958H416.28ZM406.78 119.208C407.706 119.208 408.391 118.56 408.835 117.264C409.298 115.949 409.53 113.949 409.53 111.264C409.53 108.578 409.298 106.588 408.835 105.291C408.391 103.977 407.706 103.319 406.78 103.319C405.854 103.319 405.159 103.977 404.697 105.291C404.252 106.588 404.03 108.578 404.03 111.264C404.03 113.949 404.252 115.949 404.697 117.264C405.159 118.56 405.854 119.208 406.78 119.208ZM447.631 111.68V122.18H445.687V100.847H447.631V109.68H450.465V111.68H447.631ZM433.131 118.93C433.65 118.93 434.187 118.893 434.742 118.819C435.316 118.727 435.807 118.597 436.215 118.43V120.319C435.752 120.486 435.196 120.615 434.548 120.708C433.9 120.801 433.261 120.847 432.631 120.847H430.02V101.68H436.103V103.597H431.992V118.93H433.131ZM440.326 118.93C441.715 118.93 442.881 118.68 443.826 118.18V120.153C442.789 120.615 441.511 120.847 439.992 120.847H437.103V101.68H443.298V103.597H439.048V118.93H440.326ZM469.517 111.68V122.18H467.517V100.847H469.517V109.68H472.462V111.68H469.517ZM460.323 118.93C461.286 118.93 462.249 118.838 463.212 118.653C464.175 118.467 464.962 118.227 465.573 117.93V119.819C464.98 120.153 464.202 120.412 463.239 120.597C462.276 120.764 461.295 120.847 460.295 120.847H452.267V110.153H461.434V103.597H452.212V101.68H463.434V112.041H454.267V118.93H460.323ZM785.817 100.819C788.446 100.819 790.576 101.134 792.206 101.764C793.835 102.375 794.65 103.338 794.65 104.653C794.65 105.967 793.835 106.93 792.206 107.541C790.576 108.153 788.446 108.458 785.817 108.458C783.187 108.458 781.048 108.153 779.4 107.541C777.77 106.93 776.956 105.967 776.956 104.653C776.956 103.338 777.77 102.375 779.4 101.764C781.048 101.134 783.187 100.819 785.817 100.819ZM785.817 102.458C783.835 102.458 782.206 102.643 780.928 103.014C779.669 103.365 779.039 103.912 779.039 104.653C779.039 105.393 779.669 105.94 780.928 106.291C782.187 106.643 783.817 106.819 785.817 106.819C787.798 106.819 789.419 106.643 790.678 106.291C791.937 105.94 792.567 105.393 792.567 104.653C792.567 103.912 791.928 103.365 790.65 103.014C789.391 102.643 787.78 102.458 785.817 102.458ZM775.706 111.653V109.986H795.928V111.653H775.706ZM779.122 118.375V120.319H794.845V121.875H777.178V117.041H792.511V115.153H777.122V113.625H794.483V118.375H779.122ZM824.39 106.791H821.446V111.347H819.446V100.847H821.446V104.847H824.39V106.791ZM803.974 110.43V101.43H815.724V110.43H803.974ZM805.974 103.18V108.68H813.724V103.18H805.974ZM822.001 120.236V121.847H804.668V116.486H819.446V114.208H804.613V112.597H821.446V117.958H806.668V120.236H822.001ZM825.165 104.403V102.736H831.026V100.458H833.054V102.736H838.915V104.403H825.165ZM843.443 107.43V113.014H841.443V100.847H843.443V105.486H846.387V107.43H843.443ZM832.054 113.097C830.332 113.097 828.915 112.754 827.804 112.069C826.693 111.384 826.137 110.477 826.137 109.347C826.137 108.217 826.693 107.31 827.804 106.625C828.915 105.94 830.332 105.597 832.054 105.597C833.165 105.597 834.165 105.754 835.054 106.069C835.961 106.365 836.665 106.801 837.165 107.375C837.684 107.93 837.943 108.588 837.943 109.347C837.943 110.106 837.684 110.773 837.165 111.347C836.665 111.903 835.961 112.338 835.054 112.653C834.165 112.949 833.165 113.097 832.054 113.097ZM832.054 107.18C830.85 107.18 829.878 107.384 829.137 107.791C828.415 108.199 828.054 108.717 828.054 109.347C828.054 109.977 828.415 110.495 829.137 110.903C829.878 111.31 830.85 111.514 832.054 111.514C833.258 111.514 834.221 111.31 834.943 110.903C835.665 110.495 836.026 109.977 836.026 109.347C836.026 108.717 835.665 108.199 834.943 107.791C834.221 107.384 833.258 107.18 832.054 107.18ZM843.443 113.958V121.847H826.637V113.958H828.61V116.125H841.471V113.958H843.443ZM841.471 117.736H828.61V120.18H841.471V117.736ZM863.996 122.208V100.847H866.023V122.18L863.996 122.208ZM856.718 118.903C857.681 118.903 858.634 118.81 859.579 118.625C860.542 118.421 861.338 118.162 861.968 117.847V119.791C861.357 120.125 860.57 120.384 859.607 120.569C858.662 120.754 857.699 120.847 856.718 120.847H848.412V101.541H850.468V118.903H856.718ZM887.437 111.68V122.18H885.437V100.847H887.437V109.68H890.382V111.68H887.437ZM878.243 118.93C879.206 118.93 880.169 118.838 881.132 118.653C882.095 118.449 882.882 118.19 883.493 117.875V119.819C882.9 120.134 882.113 120.384 881.132 120.569C880.15 120.754 879.159 120.847 878.159 120.847H870.215V101.68H881.909V103.597H872.243V118.93H878.243ZM893.268 121.375C892.842 121.375 892.48 121.236 892.184 120.958C891.906 120.662 891.768 120.291 891.768 119.847C891.768 119.421 891.906 119.069 892.184 118.791C892.48 118.495 892.842 118.347 893.268 118.347C893.693 118.347 894.045 118.495 894.323 118.791C894.619 119.069 894.768 119.421 894.768 119.847C894.768 120.291 894.619 120.662 894.323 120.958C894.045 121.236 893.693 121.375 893.268 121.375Z" fill="black"/>
<path d="M421.562 21.2358H419.451V3.56917H414.896V1.7914H421.562V21.2358ZM436.348 21.4303C434.848 21.4303 433.506 21.0321 432.321 20.2358C431.135 19.421 430.209 18.2636 429.543 16.7636C428.895 15.2636 428.571 13.5136 428.571 11.5136C428.571 9.51362 428.895 7.76362 429.543 6.26362C430.209 4.76362 431.135 3.61547 432.321 2.81917C433.506 2.00436 434.848 1.59695 436.348 1.59695C437.867 1.59695 439.209 2.00436 440.376 2.81917C441.561 3.61547 442.478 4.76362 443.126 6.26362C443.793 7.7451 444.126 9.4951 444.126 11.5136C444.126 13.5321 443.793 15.2914 443.126 16.7914C442.478 18.2729 441.561 19.421 440.376 20.2358C439.209 21.0321 437.867 21.4303 436.348 21.4303ZM436.348 19.5692C437.478 19.5692 438.469 19.2544 439.321 18.6247C440.172 17.9951 440.83 17.0784 441.293 15.8747C441.774 14.671 442.015 13.2173 442.015 11.5136C442.015 9.80991 441.774 8.35621 441.293 7.15251C440.83 5.9488 440.172 5.03214 439.321 4.40251C438.469 3.77288 437.478 3.45806 436.348 3.45806C435.237 3.45806 434.256 3.77288 433.404 4.40251C432.552 5.03214 431.885 5.9488 431.404 7.15251C430.941 8.35621 430.709 9.80991 430.709 11.5136C430.709 13.2173 430.941 14.671 431.404 15.8747C431.885 17.0784 432.552 17.9951 433.404 18.6247C434.256 19.2544 435.237 19.5692 436.348 19.5692ZM453.023 21.4303C451.523 21.4303 450.181 21.0321 448.995 20.2358C447.81 19.421 446.884 18.2636 446.218 16.7636C445.569 15.2636 445.245 13.5136 445.245 11.5136C445.245 9.51362 445.569 7.76362 446.218 6.26362C446.884 4.76362 447.81 3.61547 448.995 2.81917C450.181 2.00436 451.523 1.59695 453.023 1.59695C454.542 1.59695 455.884 2.00436 457.051 2.81917C458.236 3.61547 459.153 4.76362 459.801 6.26362C460.468 7.7451 460.801 9.4951 460.801 11.5136C460.801 13.5321 460.468 15.2914 459.801 16.7914C459.153 18.2729 458.236 19.421 457.051 20.2358C455.884 21.0321 454.542 21.4303 453.023 21.4303ZM453.023 19.5692C454.153 19.5692 455.143 19.2544 455.995 18.6247C456.847 17.9951 457.505 17.0784 457.968 15.8747C458.449 14.671 458.69 13.2173 458.69 11.5136C458.69 9.80991 458.449 8.35621 457.968 7.15251C457.505 5.9488 456.847 5.03214 455.995 4.40251C455.143 3.77288 454.153 3.45806 453.023 3.45806C451.912 3.45806 450.931 3.77288 450.079 4.40251C449.227 5.03214 448.56 5.9488 448.079 7.15251C447.616 8.35621 447.384 9.80991 447.384 11.5136C447.384 13.2173 447.616 14.671 448.079 15.8747C448.56 17.0784 449.227 17.9951 450.079 18.6247C450.931 19.2544 451.912 19.5692 453.023 19.5692ZM479.059 16.7081V0.846951H481.087V16.7081H479.059ZM468.892 1.09695C470.189 1.09695 471.318 1.36547 472.281 1.90251C473.244 2.42102 473.976 3.15251 474.476 4.09695C474.994 5.02288 475.253 6.07843 475.253 7.26362C475.253 8.4488 474.994 9.51362 474.476 10.4581C473.976 11.384 473.244 12.1155 472.281 12.6525C471.318 13.171 470.189 13.4303 468.892 13.4303C467.596 13.4303 466.466 13.171 465.503 12.6525C464.541 12.1155 463.8 11.384 463.281 10.4581C462.763 9.51362 462.503 8.4488 462.503 7.26362C462.503 6.07843 462.763 5.02288 463.281 4.09695C463.8 3.15251 464.541 2.42102 465.503 1.90251C466.466 1.36547 467.596 1.09695 468.892 1.09695ZM468.892 2.87473C467.578 2.87473 466.522 3.27288 465.726 4.06917C464.929 4.86547 464.531 5.93028 464.531 7.26362C464.531 8.59695 464.929 9.66177 465.726 10.4581C466.522 11.2358 467.578 11.6247 468.892 11.6247C470.207 11.6247 471.263 11.2358 472.059 10.4581C472.855 9.66177 473.253 8.59695 473.253 7.26362C473.253 5.93028 472.855 4.86547 472.059 4.06917C471.263 3.27288 470.207 2.87473 468.892 2.87473ZM481.67 19.9303V21.847H464.281V14.9581H466.309V19.9303H481.67ZM506.549 22.1803V0.846951H508.577V22.1803H506.549ZM496.772 1.40251C498.623 1.40251 500.096 2.23584 501.188 3.90251C502.299 5.56917 502.855 8.02288 502.855 11.2636C502.855 14.5044 502.299 16.9581 501.188 18.6247C500.096 20.2914 498.623 21.1247 496.772 21.1247C494.92 21.1247 493.438 20.2914 492.327 18.6247C491.234 16.9581 490.688 14.5044 490.688 11.2636C490.688 8.02288 491.234 5.56917 492.327 3.90251C493.438 2.23584 494.92 1.40251 496.772 1.40251ZM496.772 3.31917C495.531 3.31917 494.54 3.98584 493.799 5.31917C493.059 6.63399 492.688 8.61547 492.688 11.2636C492.688 13.9303 493.059 15.921 493.799 17.2358C494.54 18.5507 495.531 19.2081 496.772 19.2081C497.975 19.2081 498.957 18.5507 499.716 17.2358C500.475 15.9025 500.855 13.9118 500.855 11.2636C500.855 8.63399 500.475 6.65251 499.716 5.31917C498.957 3.98584 497.975 3.31917 496.772 3.31917ZM532.935 7.06917H529.991V12.6525H527.991V0.846951H529.991V5.09695H532.935V7.06917ZM518.574 7.34695C517.852 8.66177 516.917 9.73584 515.769 10.5692C514.62 11.384 513.306 11.9118 511.824 12.1525V10.2358C513.12 9.97658 514.241 9.41177 515.185 8.54139C516.13 7.67102 516.852 6.58769 517.352 5.29139C517.852 3.9951 518.102 2.58769 518.102 1.06917L520.13 1.18028C520.13 2.7914 519.88 4.28214 519.38 5.65251L525.824 10.097L524.796 11.6525L518.574 7.34695ZM521.713 13.4303C524.287 13.4303 526.361 13.7914 527.935 14.5136C529.509 15.2173 530.296 16.3099 530.296 17.7914C530.296 19.2729 529.509 20.3655 527.935 21.0692C526.361 21.7729 524.287 22.1247 521.713 22.1247C519.139 22.1247 517.065 21.7729 515.491 21.0692C513.917 20.3655 513.13 19.2729 513.13 17.7914C513.13 16.3099 513.917 15.2173 515.491 14.5136C517.065 13.7914 519.139 13.4303 521.713 13.4303ZM521.713 20.3747C523.62 20.3747 525.176 20.1525 526.38 19.7081C527.583 19.2636 528.185 18.6247 528.185 17.7914C528.185 16.9395 527.583 16.2914 526.38 15.847C525.176 15.4025 523.62 15.1803 521.713 15.1803C519.806 15.1803 518.25 15.4025 517.046 15.847C515.843 16.2914 515.241 16.9395 515.241 17.7914C515.241 18.6247 515.843 19.2636 517.046 19.7081C518.25 20.1525 519.806 20.3747 521.713 20.3747ZM550.543 16.7081V0.846951H552.571V16.7081H550.543ZM540.377 1.09695C541.673 1.09695 542.803 1.36547 543.766 1.90251C544.729 2.42102 545.46 3.15251 545.96 4.09695C546.479 5.02288 546.738 6.07843 546.738 7.26362C546.738 8.4488 546.479 9.51362 545.96 10.4581C545.46 11.384 544.729 12.1155 543.766 12.6525C542.803 13.171 541.673 13.4303 540.377 13.4303C539.08 13.4303 537.951 13.171 536.988 12.6525C536.025 12.1155 535.284 11.384 534.766 10.4581C534.247 9.51362 533.988 8.4488 533.988 7.26362C533.988 6.07843 534.247 5.02288 534.766 4.09695C535.284 3.15251 536.025 2.42102 536.988 1.90251C537.951 1.36547 539.08 1.09695 540.377 1.09695ZM540.377 2.87473C539.062 2.87473 538.006 3.27288 537.21 4.06917C536.414 4.86547 536.016 5.93028 536.016 7.26362C536.016 8.59695 536.414 9.66177 537.21 10.4581C538.006 11.2358 539.062 11.6247 540.377 11.6247C541.692 11.6247 542.747 11.2358 543.543 10.4581C544.34 9.66177 544.738 8.59695 544.738 7.26362C544.738 5.93028 544.34 4.86547 543.543 4.06917C542.747 3.27288 541.692 2.87473 540.377 2.87473ZM553.155 19.9303V21.847H535.766V14.9581H537.793V19.9303H553.155ZM579.478 11.6803V22.1803H577.478V0.846951H579.478V9.68028H582.423V11.6803H579.478ZM569.839 1.45806C569.802 4.93954 569.534 7.92102 569.034 10.4025L575.561 19.597L573.923 20.7914L568.367 12.8747C567.682 15.2636 566.747 17.1525 565.561 18.5414C564.376 19.9118 563.006 20.6803 561.45 20.847V18.7636C562.802 18.5229 563.95 17.6062 564.895 16.0136C565.858 14.421 566.58 12.3562 567.061 9.81917C567.543 7.28214 567.793 4.47658 567.811 1.40251L569.839 1.45806ZM602.197 11.9581H600.197V7.23584H595.781C595.577 8.55065 594.938 9.60621 593.864 10.4025C592.79 11.1988 591.401 11.597 589.697 11.597C588.438 11.597 587.336 11.3747 586.392 10.9303C585.466 10.4858 584.744 9.86547 584.225 9.06917C583.725 8.27288 583.475 7.36547 583.475 6.34695C583.475 5.34695 583.725 4.4488 584.225 3.65251C584.744 2.85621 585.466 2.23584 586.392 1.7914C587.336 1.34695 588.438 1.12473 589.697 1.12473C591.346 1.12473 592.707 1.50436 593.781 2.26362C594.855 3.02288 595.512 4.03214 595.753 5.29139H600.197V0.846951H602.197V11.9581ZM589.697 9.81917C590.957 9.81917 591.975 9.51362 592.753 8.90251C593.531 8.27288 593.92 7.42102 593.92 6.34695C593.92 5.2914 593.531 4.45806 592.753 3.84695C591.975 3.21732 590.957 2.90251 589.697 2.90251C588.438 2.90251 587.42 3.21732 586.642 3.84695C585.864 4.45806 585.475 5.2914 585.475 6.34695C585.475 7.42102 585.864 8.27288 586.642 8.90251C587.42 9.51362 588.438 9.81917 589.697 9.81917ZM602.197 12.9303V21.847H585.364V12.9303H587.336V15.4581H600.225V12.9303H602.197ZM600.225 17.1803H587.336V20.097H600.225V17.1803ZM611.389 6.06917C611.37 7.77288 611.269 9.41177 611.083 10.9858L616.028 19.6525L614.444 20.6247L610.556 13.7081C610.111 15.8192 609.454 17.4766 608.583 18.6803C607.713 19.884 606.639 20.6062 605.361 20.847V18.847C606.694 18.4951 607.694 17.1988 608.361 14.9581C609.046 12.7173 609.407 9.75436 609.444 6.06917H605.556V4.18028H609.444V0.791395H611.389V4.18028H615.222V6.06917H611.389ZM624.611 22.1803H622.694V0.846951H624.611V22.1803ZM619.306 0.958061V21.8192H617.417V11.5692H614.444V9.59695H617.417V0.958061H619.306ZM182.135 122.18V100.847H184.163V122.18H182.135ZM166.552 120.847V101.68H177.969V120.847H166.552ZM175.941 103.653H168.552V118.875H175.941V103.653ZM208.521 106.791H205.577V111.347H203.577V100.847H205.577V104.847H208.521V106.791ZM201.966 109.458C201.317 109.773 200.392 110.014 199.188 110.18C197.984 110.347 196.623 110.43 195.105 110.43H188.105V101.43H200.466V103.236H190.105V108.653H195.216C196.697 108.653 198.021 108.569 199.188 108.403C200.373 108.217 201.299 107.967 201.966 107.653V109.458ZM206.132 120.236V121.847H188.799V116.486H203.577V114.208H188.743V112.597H205.577V117.986H190.855V120.236H206.132ZM209.296 104.097V102.486H215.157V100.458H217.185V102.486H223.046V104.097H209.296ZM230.518 107.291H227.574V112.014H225.574V100.847H227.574V105.403H230.518V107.291ZM216.185 111.875C214.463 111.875 213.046 111.588 211.935 111.014C210.842 110.44 210.296 109.615 210.296 108.541C210.296 107.486 210.842 106.671 211.935 106.097C213.046 105.523 214.463 105.236 216.185 105.236C217.889 105.236 219.287 105.523 220.379 106.097C221.49 106.671 222.046 107.486 222.046 108.541C222.046 109.615 221.5 110.44 220.407 111.014C219.315 111.588 217.907 111.875 216.185 111.875ZM216.185 106.736C214.963 106.736 213.99 106.903 213.268 107.236C212.546 107.569 212.185 108.004 212.185 108.541C212.185 109.097 212.546 109.541 213.268 109.875C213.99 110.208 214.963 110.375 216.185 110.375C217.389 110.375 218.352 110.208 219.074 109.875C219.796 109.541 220.157 109.097 220.157 108.541C220.157 108.004 219.796 107.569 219.074 107.236C218.37 106.903 217.407 106.736 216.185 106.736ZM228.129 120.291V121.847H210.796V116.791H225.602V114.764H210.74V113.236H227.574V118.264H212.796V120.291H228.129ZM249.203 110.125V108.264H253.814V105.125H249.981V103.264H253.814V100.847H255.786V112.653H253.814V110.125H249.203ZM248.981 103.625C248.981 106.421 247.981 108.504 245.981 109.875C243.981 111.227 241.157 111.903 237.508 111.903V110.041C240.527 110.023 242.86 109.514 244.508 108.514C246.157 107.495 246.981 105.967 246.981 103.93V103.236H237.508V101.43H248.981V103.625ZM247.37 113.43C249.962 113.43 252.064 113.782 253.675 114.486C255.286 115.19 256.092 116.291 256.092 117.791C256.092 119.291 255.286 120.393 253.675 121.097C252.064 121.782 249.962 122.125 247.37 122.125C244.777 122.125 242.666 121.782 241.036 121.097C239.425 120.393 238.62 119.291 238.62 117.791C238.62 116.291 239.425 115.19 241.036 114.486C242.647 113.782 244.758 113.43 247.37 113.43ZM247.37 120.375C249.296 120.375 250.879 120.162 252.12 119.736C253.379 119.291 254.008 118.643 254.008 117.791C254.008 116.921 253.379 116.273 252.12 115.847C250.879 115.403 249.296 115.18 247.37 115.18C245.444 115.18 243.851 115.403 242.592 115.847C241.351 116.273 240.731 116.921 240.731 117.791C240.731 118.643 241.351 119.291 242.592 119.736C243.851 120.162 245.444 120.375 247.37 120.375ZM268.922 112.375C267.126 112.375 265.552 112.153 264.2 111.708C262.848 111.264 261.802 110.615 261.061 109.764C260.32 108.912 259.95 107.903 259.95 106.736C259.95 105.569 260.32 104.56 261.061 103.708C261.802 102.856 262.848 102.208 264.2 101.764C265.552 101.319 267.126 101.097 268.922 101.097C270.719 101.097 272.283 101.319 273.617 101.764C274.969 102.208 276.015 102.856 276.756 103.708C277.496 104.56 277.867 105.569 277.867 106.736C277.867 107.903 277.496 108.912 276.756 109.764C276.015 110.615 274.969 111.264 273.617 111.708C272.283 112.153 270.719 112.375 268.922 112.375ZM268.922 103.014C266.848 103.014 265.181 103.338 263.922 103.986C262.681 104.634 262.061 105.551 262.061 106.736C262.061 107.903 262.681 108.819 263.922 109.486C265.181 110.134 266.848 110.458 268.922 110.458C270.978 110.458 272.635 110.134 273.894 109.486C275.154 108.819 275.783 107.903 275.783 106.736C275.783 105.551 275.154 104.634 273.894 103.986C272.654 103.338 270.996 103.014 268.922 103.014ZM269.922 116.458V122.68H267.894V116.458H258.811V114.514H279.033V116.458H269.922ZM497.007 111.68V122.18H495.007V100.847H497.007V109.68H499.952V111.68H497.007ZM487.369 101.458C487.331 104.94 487.063 107.921 486.563 110.403L493.091 119.597L491.452 120.791L485.896 112.875C485.211 115.264 484.276 117.153 483.091 118.541C481.906 119.912 480.535 120.68 478.98 120.847V118.764C480.331 118.523 481.48 117.606 482.424 116.014C483.387 114.421 484.109 112.356 484.591 109.819C485.072 107.282 485.322 104.477 485.341 101.403L487.369 101.458ZM519.727 111.958H517.727V107.236H513.31C513.106 108.551 512.467 109.606 511.393 110.403C510.319 111.199 508.93 111.597 507.227 111.597C505.967 111.597 504.866 111.375 503.921 110.93C502.995 110.486 502.273 109.865 501.754 109.069C501.254 108.273 501.004 107.365 501.004 106.347C501.004 105.347 501.254 104.449 501.754 103.653C502.273 102.856 502.995 102.236 503.921 101.791C504.866 101.347 505.967 101.125 507.227 101.125C508.875 101.125 510.236 101.504 511.31 102.264C512.384 103.023 513.042 104.032 513.282 105.291H517.727V100.847H519.727V111.958ZM507.227 109.819C508.486 109.819 509.504 109.514 510.282 108.903C511.06 108.273 511.449 107.421 511.449 106.347C511.449 105.291 511.06 104.458 510.282 103.847C509.504 103.217 508.486 102.903 507.227 102.903C505.967 102.903 504.949 103.217 504.171 103.847C503.393 104.458 503.004 105.291 503.004 106.347C503.004 107.421 503.393 108.273 504.171 108.903C504.949 109.514 505.967 109.819 507.227 109.819ZM519.727 112.93V121.847H502.893V112.93H504.866V115.458H517.754V112.93H519.727ZM517.754 117.18H504.866V120.097H517.754V117.18ZM532.335 107.43C531.372 108.745 530.113 109.801 528.557 110.597C527.002 111.393 525.298 111.875 523.446 112.041V110.097C525.613 109.893 527.474 109.199 529.029 108.014C530.585 106.81 531.566 105.264 531.974 103.375H523.946V101.458H541.779V103.375H534.113C534.002 104.227 533.761 105.041 533.39 105.819L542.39 110.18L541.529 111.93L532.335 107.43ZM533.835 116.458V122.68H531.807V116.458H522.752V114.514H542.974V116.458H533.835ZM562.999 111.68V122.18H560.999V100.847H562.999V109.68H565.943V111.68H562.999ZM556.471 101.68V106.68C556.471 109.495 556.036 111.967 555.165 114.097C554.295 116.227 553.036 117.875 551.388 119.041C549.739 120.208 547.786 120.791 545.526 120.791V118.791C547.397 118.791 548.999 118.301 550.332 117.319C551.684 116.338 552.712 114.94 553.415 113.125C554.119 111.31 554.471 109.19 554.471 106.764V103.597H545.526V101.68H556.471ZM573.711 112.125V101.264H575.683V104.486H589.017V101.264H590.989V112.125H573.711ZM589.017 106.347H575.683V110.236H589.017V106.347ZM583.378 116.486V122.68H581.322V116.486H572.239V114.541H592.461V116.486H583.378ZM612.486 107.403V112.458H610.486V100.847H612.486V105.375H615.43V107.403H612.486ZM608.875 110.347C608.227 110.662 607.301 110.903 606.097 111.069C604.893 111.236 603.532 111.319 602.014 111.319H595.014V101.43H607.375V103.236H597.014V109.514H602.125C603.606 109.514 604.93 109.43 606.097 109.264C607.282 109.097 608.208 108.856 608.875 108.541V110.347ZM612.486 113.708V121.847H595.68V113.708H612.486ZM610.486 120.041V115.514H597.708V120.041H610.486ZM629.872 104.319V106.236H616.705V104.319H622.261V100.791H624.289V104.319H629.872ZM634.483 111.68V122.18H632.483V100.847H634.483V109.68H637.427V111.68H634.483ZM623.289 108.125C624.344 108.125 625.298 108.393 626.15 108.93C627.002 109.467 627.668 110.227 628.15 111.208C628.631 112.19 628.872 113.319 628.872 114.597C628.872 115.875 628.631 117.014 628.15 118.014C627.668 118.995 627.002 119.754 626.15 120.291C625.298 120.828 624.344 121.097 623.289 121.097C622.214 121.097 621.252 120.828 620.4 120.291C619.548 119.754 618.881 118.995 618.4 118.014C617.918 117.014 617.677 115.875 617.677 114.597C617.677 113.319 617.918 112.19 618.4 111.208C618.881 110.227 619.548 109.467 620.4 108.93C621.252 108.393 622.214 108.125 623.289 108.125ZM623.289 119.236C623.955 119.236 624.557 119.051 625.094 118.68C625.65 118.291 626.085 117.745 626.4 117.041C626.733 116.338 626.9 115.523 626.9 114.597C626.9 113.671 626.733 112.856 626.4 112.153C626.085 111.449 625.65 110.912 625.094 110.541C624.557 110.153 623.955 109.958 623.289 109.958C622.603 109.958 621.983 110.153 621.427 110.541C620.89 110.912 620.455 111.449 620.122 112.153C619.807 112.856 619.65 113.671 619.65 114.597C619.65 115.523 619.807 116.338 620.122 117.041C620.455 117.745 620.89 118.291 621.427 118.68C621.983 119.051 622.603 119.236 623.289 119.236ZM657.175 107.208V109.041H639.758V100.875H641.758V107.208H657.175ZM638.23 113.486V111.68H658.452V113.486H638.23ZM657.369 120.041V121.875H639.702V115.569H641.73V120.041H657.369ZM666.998 103.625V101.653H684.526V115.736H682.47V103.625H666.998ZM685.943 121.097H665.72V119.125H673.47V109.347H675.526V119.125H685.943V121.097ZM707.94 112.708H687.717V110.986H692.301V108.125C691.245 107.81 690.421 107.375 689.828 106.819C689.236 106.264 688.94 105.588 688.94 104.791C688.94 103.44 689.773 102.43 691.44 101.764C693.106 101.078 695.236 100.736 697.828 100.736C700.421 100.736 702.541 101.078 704.19 101.764C705.856 102.43 706.69 103.44 706.69 104.791C706.69 105.588 706.393 106.264 705.801 106.819C705.208 107.375 704.384 107.81 703.328 108.125V110.986H707.94V112.708ZM697.828 102.458C695.866 102.458 694.236 102.653 692.94 103.041C691.662 103.43 691.023 104.014 691.023 104.791C691.023 105.569 691.662 106.153 692.94 106.541C694.217 106.93 695.847 107.125 697.828 107.125C699.791 107.125 701.412 106.93 702.69 106.541C703.967 106.153 704.606 105.569 704.606 104.791C704.606 104.014 703.958 103.43 702.662 103.041C701.384 102.653 699.773 102.458 697.828 102.458ZM701.328 110.986V108.569C700.328 108.754 699.162 108.847 697.828 108.847C696.514 108.847 695.338 108.754 694.301 108.569V110.986H701.328ZM697.828 114.569C700.458 114.569 702.588 114.865 704.217 115.458C705.847 116.032 706.662 116.995 706.662 118.347C706.662 119.699 705.847 120.671 704.217 121.264C702.588 121.875 700.458 122.18 697.828 122.18C695.199 122.18 693.06 121.875 691.412 121.264C689.782 120.671 688.967 119.699 688.967 118.347C688.967 116.995 689.782 116.032 691.412 115.458C693.06 114.865 695.199 114.569 697.828 114.569ZM697.828 120.486C699.754 120.486 701.356 120.319 702.634 119.986C703.912 119.653 704.551 119.106 704.551 118.347C704.551 117.606 703.912 117.078 702.634 116.764C701.356 116.43 699.754 116.264 697.828 116.264C695.903 116.264 694.291 116.43 692.995 116.764C691.717 117.078 691.078 117.606 691.078 118.347C691.078 119.106 691.717 119.653 692.995 119.986C694.291 120.319 695.903 120.486 697.828 120.486ZM711.187 112.125V101.264H713.159V104.486H726.492V101.264H728.464V112.125H711.187ZM726.492 106.347H713.159V110.236H726.492V106.347ZM720.853 116.486V122.68H718.798V116.486H709.714V114.541H729.937V116.486H720.853ZM749.962 107.403V112.458H747.962V100.847H749.962V105.375H752.906V107.403H749.962ZM746.35 110.347C745.702 110.662 744.776 110.903 743.573 111.069C742.369 111.236 741.008 111.319 739.489 111.319H732.489V101.43H744.85V103.236H734.489V109.514H739.6C741.082 109.514 742.406 109.43 743.573 109.264C744.758 109.097 745.684 108.856 746.35 108.541V110.347ZM749.962 113.708V121.847H733.156V113.708H749.962ZM747.962 120.041V115.514H735.184V120.041H747.962ZM770.375 108.319V102.958H755.125V101.153H772.403V108.319H770.375ZM753.709 111.486V109.708H773.931V111.486H753.709ZM755.181 121.875V113.875H772.459V121.875H755.181ZM770.486 115.625H757.181V120.125H770.486V115.625Z" fill="#01A69F"/>
</svg>
