<svg width="551" height="55" viewBox="0 0 551 55" fill="none" xmlns="http://www.w3.org/2000/svg">
<path d="M193.296 4.08333V5.97222H182.491V4.08333H186.88V0.555555H188.88V4.08333H193.296ZM202.296 21.9444H200.407V11.3333H196.824V21.5833H194.935V0.722221H196.824V9.36111H200.407V0.611111H202.296V21.9444ZM187.991 7.83333C188.898 7.83333 189.704 8.09259 190.407 8.61111C191.13 9.11111 191.685 9.85185 192.074 10.8333C192.482 11.7963 192.685 12.963 192.685 14.3333C192.685 15.7037 192.482 16.8796 192.074 17.8611C191.685 18.8426 191.13 19.5926 190.407 20.1111C189.704 20.6111 188.898 20.8611 187.991 20.8611C186.602 20.8611 185.482 20.287 184.63 19.1389C183.778 17.9907 183.352 16.3889 183.352 14.3333C183.352 12.2778 183.778 10.6852 184.63 9.55556C185.482 8.40741 186.602 7.83333 187.991 7.83333ZM187.991 19C188.824 19 189.5 18.5833 190.019 17.75C190.537 16.9167 190.796 15.7778 190.796 14.3333C190.796 12.8889 190.537 11.75 190.019 10.9167C189.5 10.0833 188.824 9.66667 187.991 9.66667C187.157 9.66667 186.482 10.0833 185.963 10.9167C185.463 11.7315 185.213 12.8704 185.213 14.3333C185.213 15.7963 185.463 16.9444 185.963 17.7778C186.482 18.5926 187.157 19 187.991 19ZM226.099 7.16667H223.155V12.4167H221.155V0.611111H223.155V5.13889H226.099V7.16667ZM219.543 10.1111C218.895 10.4259 217.969 10.6667 216.766 10.8333C215.562 11 214.201 11.0833 212.682 11.0833H205.682V1.19444H218.043V3H207.682V9.30556H212.793C214.275 9.30556 215.599 9.22222 216.766 9.05556C217.951 8.87037 218.877 8.62037 219.543 8.30555V10.1111ZM214.877 13.1944C217.451 13.1944 219.525 13.5556 221.099 14.2778C222.673 14.9815 223.46 16.0741 223.46 17.5556C223.46 19.037 222.673 20.1296 221.099 20.8333C219.525 21.537 217.451 21.8889 214.877 21.8889C212.303 21.8889 210.229 21.537 208.655 20.8333C207.08 20.1296 206.293 19.037 206.293 17.5556C206.293 16.0741 207.08 14.9815 208.655 14.2778C210.229 13.5556 212.303 13.1944 214.877 13.1944ZM214.877 20.1389C216.784 20.1389 218.34 19.9167 219.543 19.4722C220.747 19.0278 221.349 18.3889 221.349 17.5556C221.349 16.7037 220.747 16.0556 219.543 15.6111C218.34 15.1667 216.784 14.9444 214.877 14.9444C212.969 14.9444 211.414 15.1667 210.21 15.6111C209.006 16.0556 208.405 16.7037 208.405 17.5556C208.405 18.3889 209.006 19.0278 210.21 19.4722C211.414 19.9167 212.969 20.1389 214.877 20.1389ZM233.867 11.8889V1.02778H235.839V4.25H249.173V1.02778H251.145V11.8889H233.867ZM249.173 6.11111H235.839V10H249.173V6.11111ZM243.534 16.25V22.4444H241.478V16.25H232.395V14.3056H252.617V16.25H243.534ZM272.642 7.16667V12.2222H270.642V0.611111H272.642V5.13889H275.586V7.16667H272.642ZM269.031 10.1111C268.383 10.4259 267.457 10.6667 266.253 10.8333C265.049 11 263.688 11.0833 262.17 11.0833H255.17V1.19444H267.531V3H257.17V9.27778H262.281C263.762 9.27778 265.086 9.19444 266.253 9.02778C267.438 8.86111 268.364 8.62037 269.031 8.30555V10.1111ZM272.642 13.4722V21.6111H255.836V13.4722H272.642ZM270.642 19.8056V15.2778H257.864V19.8056H270.642ZM293.056 8.08333V2.72222H277.806V0.916666H295.083V8.08333H293.056ZM276.389 11.25V9.47222H296.611V11.25H276.389ZM277.861 21.6389V13.6389H295.139V21.6389H277.861ZM293.167 15.3889H279.861V19.8889H293.167V15.3889ZM308.497 0.5C310.145 0.5 311.645 0.675926 312.997 1.02778C314.349 1.37963 315.423 1.90741 316.219 2.61111C317.016 3.2963 317.414 4.13889 317.414 5.13889C317.414 6.13889 317.016 6.99074 316.219 7.69444C315.423 8.37963 314.349 8.89815 312.997 9.25C311.645 9.58333 310.145 9.75 308.497 9.75C305.923 9.75 303.784 9.35185 302.08 8.55556C300.395 7.75926 299.553 6.62037 299.553 5.13889C299.553 4.13889 299.951 3.2963 300.747 2.61111C301.543 1.90741 302.617 1.37963 303.969 1.02778C305.34 0.675926 306.849 0.5 308.497 0.5ZM308.497 2.25C306.59 2.25 304.969 2.50926 303.636 3.02778C302.321 3.5463 301.664 4.25 301.664 5.13889C301.664 6.02778 302.321 6.73148 303.636 7.25C304.951 7.75 306.571 8 308.497 8C310.404 8 312.016 7.75 313.33 7.25C314.645 6.73148 315.303 6.02778 315.303 5.13889C315.303 4.25 314.645 3.5463 313.33 3.02778C312.016 2.50926 310.404 2.25 308.497 2.25ZM298.386 13.6389V11.8333H318.608V13.6389H298.386ZM317.525 19.8056V21.6389H299.858V15.6111H301.886V19.8056H317.525ZM327.348 11.5V1.33333H344.626V11.5H327.348ZM329.348 3.25V9.55556H342.626V3.25H329.348ZM337.015 16.25V22.4444H334.96V16.25H325.876V14.25H346.098V16.25H337.015ZM366.845 21.9444H364.845V13.8611H360.79V11.8889H364.845V7.58333H360.79V5.61111H364.845V0.611111H366.845V21.9444ZM356.651 18.6944C357.595 18.6944 358.549 18.6111 359.512 18.4444C360.475 18.2778 361.271 18.0648 361.901 17.8056V19.6944C361.29 19.9722 360.503 20.1944 359.54 20.3611C358.577 20.5278 357.595 20.6111 356.595 20.6111H349.012V9.97222H357.095V3.36111H348.957V1.44444H359.068V11.8611H351.012V18.6944H356.651ZM21.7966 39.6389H19.2688V44.3611H15.7688V32.6111H19.2688V36.1389H21.7966V39.6389ZM7.62994 40.3333C6.83364 41.4259 5.83364 42.3148 4.62994 43C3.44475 43.6852 2.12994 44.0648 0.685493 44.1389V40.8889C2.05586 40.7778 3.19475 40.2593 4.10216 39.3333C5.00957 38.4074 5.5466 37.3056 5.71327 36.0278H0.96327V32.9444H13.9077V36.0278H9.26883C9.25031 36.3981 9.16697 36.9167 9.01883 37.5833L14.5744 40.9722L12.9077 43.6944L7.62994 40.3333ZM10.491 44.8056C13.2318 44.8056 15.417 45.1759 17.0466 45.9167C18.6762 46.6574 19.491 47.8333 19.491 49.4444C19.491 51.0741 18.6762 52.2593 17.0466 53C15.417 53.7407 13.2318 54.1111 10.491 54.1111C7.76883 54.1111 5.58364 53.7407 3.93549 53C2.30586 52.2593 1.49105 51.0741 1.49105 49.4444C1.49105 47.8333 2.30586 46.6574 3.93549 45.9167C5.58364 45.1759 7.76883 44.8056 10.491 44.8056ZM10.491 51.1667C12.0466 51.1667 13.3059 51.0278 14.2688 50.75C15.2318 50.4537 15.7133 50.0185 15.7133 49.4444C15.7133 48.8704 15.2318 48.4444 14.2688 48.1667C13.3059 47.8889 12.0466 47.75 10.491 47.75C8.93549 47.75 7.67623 47.8889 6.71327 48.1667C5.75031 48.4444 5.26883 48.8704 5.26883 49.4444C5.26883 50.0185 5.75031 50.4537 6.71327 50.75C7.67623 51.0278 8.93549 51.1667 10.491 51.1667ZM42.4048 53.9444H39.127V44.1667H36.9326V53.5833H33.6826V32.6944H36.9326V40.6667H39.127V32.6111H42.4048V53.9444ZM27.4048 32.9444C29.0344 32.9444 30.2566 33.75 31.0715 35.3611C31.8863 36.9722 32.2937 39.5278 32.2937 43.0278C32.2937 46.5463 31.8863 49.1111 31.0715 50.7222C30.2566 52.3148 29.0344 53.1111 27.4048 53.1111C25.7752 53.1111 24.5529 52.3148 23.7381 50.7222C22.9233 49.1111 22.5159 46.5463 22.5159 43.0278C22.5159 39.5278 22.9233 36.9722 23.7381 35.3611C24.5529 33.75 25.7752 32.9444 27.4048 32.9444ZM27.4048 49.7778C27.9603 49.7778 28.3677 49.2407 28.627 48.1667C28.8863 47.0741 29.0159 45.3611 29.0159 43.0278C29.0159 40.6944 28.8863 38.9907 28.627 37.9167C28.3677 36.8241 27.9603 36.2778 27.4048 36.2778C26.8307 36.2778 26.414 36.8241 26.1548 37.9167C25.8955 38.9907 25.7659 40.6944 25.7659 43.0278C25.7659 45.3611 25.8955 47.0741 26.1548 48.1667C26.414 49.2407 26.8307 49.7778 27.4048 49.7778ZM60.3185 48.4167V32.6111H63.8463V48.4167H60.3185ZM51.0407 32.6944C52.3556 32.6944 53.5037 32.963 54.4852 33.5C55.4852 34.0185 56.2537 34.7593 56.7907 35.7222C57.3463 36.6852 57.6241 37.787 57.6241 39.0278C57.6241 40.287 57.3463 41.3981 56.7907 42.3611C56.2537 43.3056 55.4852 44.0463 54.4852 44.5833C53.5037 45.1019 52.3556 45.3611 51.0407 45.3611C49.7259 45.3611 48.5685 45.1019 47.5685 44.5833C46.5685 44.0463 45.7907 43.3056 45.2352 42.3611C44.6982 41.3981 44.4296 40.287 44.4296 39.0278C44.4296 37.787 44.6982 36.6852 45.2352 35.7222C45.7907 34.7593 46.5685 34.0185 47.5685 33.5C48.5685 32.963 49.7259 32.6944 51.0407 32.6944ZM51.0407 35.7778C50.1148 35.7778 49.3648 36.0648 48.7907 36.6389C48.2352 37.213 47.9574 38.0093 47.9574 39.0278C47.9574 40.0463 48.2352 40.8426 48.7907 41.4167C49.3648 41.9907 50.1148 42.2778 51.0407 42.2778C51.9667 42.2778 52.7167 41.9907 53.2907 41.4167C53.8648 40.8241 54.1519 40.0278 54.1519 39.0278C54.1519 38.0278 53.8648 37.2407 53.2907 36.6667C52.7167 36.0741 51.9667 35.7778 51.0407 35.7778ZM64.2074 50.5556V53.8611H46.2074V46.5278H49.7907V50.5556H64.2074ZM82.3088 53H78.3921V36.6944H74.3365V33.5556H82.3088V53ZM102.178 42.1944V39.0278H104.678V37.1389H102.178V33.9722H104.678V32.6111H108.122V44.3611H104.678V42.1944H102.178ZM89.2613 43.3889V32.9444H101.122V43.3889H89.2613ZM92.7058 36V40.3333H97.678V36H92.7058ZM99.178 44.8056C101.956 44.8056 104.169 45.1759 105.817 45.9167C107.484 46.6574 108.317 47.8333 108.317 49.4444C108.317 51.0741 107.484 52.2593 105.817 53C104.169 53.7407 101.956 54.1111 99.178 54.1111C96.4187 54.1111 94.215 53.7407 92.5669 53C90.9187 52.2593 90.0947 51.0741 90.0947 49.4444C90.0947 47.8333 90.9187 46.6574 92.5669 45.9167C94.215 45.1759 96.4187 44.8056 99.178 44.8056ZM99.178 51.1667C100.771 51.1667 102.058 51.0278 103.039 50.75C104.039 50.4537 104.539 50.0185 104.539 49.4444C104.539 48.8704 104.039 48.4444 103.039 48.1667C102.058 47.8889 100.771 47.75 99.178 47.75C97.6039 47.75 96.3262 47.8889 95.3447 48.1667C94.3632 48.4444 93.8725 48.8704 93.8725 49.4444C93.8725 50.0185 94.3632 50.4537 95.3447 50.75C96.3262 51.0278 97.6039 51.1667 99.178 51.1667ZM131.953 39.9722H129.425V44.3611H125.925V32.6111H129.425V36.4167H131.953V39.9722ZM124.814 42.5833C124.258 42.8241 123.499 43.0185 122.536 43.1667C121.573 43.3148 120.545 43.3889 119.453 43.3889H111.12V32.9444H123.564V36H114.62V40.3611H119.62C120.694 40.3611 121.684 40.2963 122.592 40.1667C123.518 40.0185 124.258 39.8241 124.814 39.5833V42.5833ZM120.647 44.8056C123.388 44.8056 125.573 45.1759 127.203 45.9167C128.832 46.6574 129.647 47.8333 129.647 49.4444C129.647 51.0741 128.832 52.2593 127.203 53C125.573 53.7407 123.388 54.1111 120.647 54.1111C117.925 54.1111 115.74 53.7407 114.092 53C112.462 52.2593 111.647 51.0741 111.647 49.4444C111.647 47.8333 112.462 46.6574 114.092 45.9167C115.74 45.1759 117.925 44.8056 120.647 44.8056ZM120.647 51.1667C122.203 51.1667 123.462 51.0278 124.425 50.75C125.388 50.4537 125.87 50.0185 125.87 49.4444C125.87 48.8704 125.388 48.4444 124.425 48.1667C123.462 47.8889 122.203 47.75 120.647 47.75C119.092 47.75 117.832 47.8889 116.87 48.1667C115.907 48.4444 115.425 48.8704 115.425 49.4444C115.425 50.0185 115.907 50.4537 116.87 50.75C117.832 51.0278 119.092 51.1667 120.647 51.1667ZM395.936 32.8611C397.788 32.8611 399.418 33.1574 400.825 33.75C402.251 34.3241 403.343 35.1389 404.103 36.1944C404.88 37.25 405.269 38.463 405.269 39.8333C405.269 41.2037 404.88 42.4167 404.103 43.4722C403.343 44.5278 402.251 45.3519 400.825 45.9444C399.418 46.5185 397.788 46.8056 395.936 46.8056C394.084 46.8056 392.445 46.5185 391.019 45.9444C389.612 45.3519 388.519 44.5278 387.742 43.4722C386.982 42.4167 386.603 41.2037 386.603 39.8333C386.603 38.463 386.982 37.25 387.742 36.1944C388.519 35.1389 389.612 34.3241 391.019 33.75C392.445 33.1574 394.084 32.8611 395.936 32.8611ZM395.936 36.2222C394.269 36.2222 392.918 36.5556 391.88 37.2222C390.843 37.8889 390.325 38.7593 390.325 39.8333C390.325 40.537 390.556 41.1667 391.019 41.7222C391.501 42.2593 392.168 42.6852 393.019 43C393.871 43.2963 394.843 43.4444 395.936 43.4444C397.029 43.4444 398.001 43.2963 398.853 43C399.705 42.6852 400.362 42.2593 400.825 41.7222C401.306 41.1667 401.547 40.537 401.547 39.8333C401.547 38.7593 401.029 37.8889 399.992 37.2222C398.955 36.5556 397.603 36.2222 395.936 36.2222ZM385.714 53.1111V49.6667H406.158V53.1111H385.714ZM428.155 53.1111H407.711V49.75H416.155V46.8333H408.905V38.4444H423.489V36.4444H408.878V33.1944H426.989V41.5556H412.405V43.6111H427.211V46.8333H419.683V49.75H428.155V53.1111ZM436.451 44.0833V32.8889H439.896V35.1389H450.951V32.8889H454.396V44.0833H436.451ZM450.951 38.3611H439.896V40.8056H450.951V38.3611ZM447.229 49.3056V54.4444H443.618V49.3056H435.201V45.9167H455.646V49.3056H447.229ZM476.087 44.0278V53.9444H472.587V32.6111H476.087V40.4444H478.559V44.0278H476.087ZM457.865 36.7222V33.2778H469.726V46.7222H466.198V36.7222H457.865ZM465.587 49.4167C466.717 49.4167 467.791 49.3519 468.809 49.2222C469.828 49.0741 470.643 48.8519 471.254 48.5556V52C470.032 52.5741 468.124 52.8611 465.532 52.8611H457.198V49.4167H460.059V41.2778H463.615V49.4167H465.587ZM498.64 45.1389H495.14V32.6111H498.64V45.1389ZM493.834 44.1667C492.63 44.7037 490.714 44.9722 488.084 44.9722H479.195V42.1667H484.473V40.5278H480.195V32.8333H492.167V35.5556H483.612V37.7778H492.39V40.5278H487.89V42.1667C490.63 42.1667 492.612 41.8981 493.834 41.3611V44.1667ZM498.64 45.9722V53.8611H480.779V45.9722H484.279V47.25H495.195V45.9722H498.64ZM495.195 49.8611H484.279V51.1944H495.195V49.8611ZM517.081 53.9444V32.6111H520.609V53.9444H517.081ZM510.553 49.5C511.498 49.5 512.452 49.4074 513.415 49.2222C514.378 49.037 515.174 48.787 515.803 48.4722V51.8333C515.192 52.1667 514.405 52.4259 513.442 52.6111C512.498 52.7778 511.535 52.8611 510.553 52.8611H502.165V33.0556H505.803V49.5H510.553ZM542.023 44.2222V53.9444H538.523V32.6111H542.023V40.6667H544.551V44.2222H542.023ZM532.078 49.5278C533.041 49.5278 534.004 49.4352 534.967 49.25C535.93 49.0648 536.717 48.8241 537.328 48.5278V51.8611C536.754 52.1759 535.949 52.4259 534.912 52.6111C533.893 52.7778 532.865 52.8611 531.828 52.8611H523.967V33.1944H535.745V36.5278H527.523V49.5278H532.078ZM547.881 53.1944C547.214 53.1944 546.649 52.9722 546.186 52.5278C545.724 52.0648 545.492 51.4815 545.492 50.7778C545.492 50.0741 545.714 49.5 546.159 49.0556C546.622 48.6111 547.196 48.3889 547.881 48.3889C548.566 48.3889 549.131 48.6111 549.575 49.0556C550.038 49.5 550.27 50.0741 550.27 50.7778C550.27 51.4815 550.038 52.0648 549.575 52.5278C549.112 52.9722 548.548 53.1944 547.881 53.1944Z" fill="black"/>
<path d="M148.471 53H144.554V36.6944H140.499V33.5556H148.471V53ZM170.646 48.4167V32.6111H174.173V48.4167H170.646ZM161.368 32.6944C162.683 32.6944 163.831 32.963 164.812 33.5C165.812 34.0185 166.581 34.7593 167.118 35.7222C167.673 36.6852 167.951 37.787 167.951 39.0278C167.951 40.287 167.673 41.3981 167.118 42.3611C166.581 43.3056 165.812 44.0463 164.812 44.5833C163.831 45.1019 162.683 45.3611 161.368 45.3611C160.053 45.3611 158.896 45.1019 157.896 44.5833C156.896 44.0463 156.118 43.3056 155.562 42.3611C155.025 41.3981 154.757 40.287 154.757 39.0278C154.757 37.787 155.025 36.6852 155.562 35.7222C156.118 34.7593 156.896 34.0185 157.896 33.5C158.896 32.963 160.053 32.6944 161.368 32.6944ZM161.368 35.7778C160.442 35.7778 159.692 36.0648 159.118 36.6389C158.562 37.213 158.285 38.0093 158.285 39.0278C158.285 40.0463 158.562 40.8426 159.118 41.4167C159.692 41.9907 160.442 42.2778 161.368 42.2778C162.294 42.2778 163.044 41.9907 163.618 41.4167C164.192 40.8241 164.479 40.0278 164.479 39.0278C164.479 38.0278 164.192 37.2407 163.618 36.6667C163.044 36.0741 162.294 35.7778 161.368 35.7778ZM174.535 50.5556V53.8611H156.535V46.5278H160.118V50.5556H174.535ZM192.337 40.7778V35.8333H177.921V32.6944H195.893V40.7778H192.337ZM176.754 45V41.8333H197.198V45H176.754ZM196.226 50.75V53.8611H178.004V46.75H181.587V50.75H196.226ZM219.195 53.1111H198.751V49.75H207.195V46.8333H199.945V38.4444H214.529V36.4444H199.918V33.1944H218.029V41.5556H203.445V43.6111H218.251V46.8333H210.723V49.75H219.195V53.1111ZM239.581 44.2222V53.9444H236.081V32.6111H239.581V40.6667H242.109V44.2222H239.581ZM229.72 36.5833C229.665 38.75 229.489 40.6759 229.192 42.3611L235.192 50.5833L232.415 52.75L227.998 46.5278C227.202 48.5093 226.202 50.0463 224.998 51.1389C223.794 52.213 222.442 52.787 220.942 52.8611V49.1389C221.961 48.9907 222.859 48.3796 223.637 47.3056C224.415 46.213 225.017 44.75 225.442 42.9167C225.887 41.0648 226.128 38.9537 226.165 36.5833H221.47V33.1944H234.22V36.5833H229.72ZM258.717 53.9444V32.6111H262.19V53.9444H258.717ZM249.773 32.8333C250.995 32.8333 252.088 33.1204 253.051 33.6944C254.032 34.2685 254.791 35.0741 255.328 36.1111C255.884 37.1481 256.162 38.3426 256.162 39.6944C256.162 41.0463 255.884 42.25 255.328 43.3056C254.791 44.3426 254.032 45.1481 253.051 45.7222C252.088 46.2963 250.995 46.5833 249.773 46.5833C248.532 46.5833 247.421 46.2963 246.44 45.7222C245.458 45.1481 244.69 44.3426 244.134 43.3056C243.597 42.25 243.328 41.0463 243.328 39.6944C243.328 38.3426 243.597 37.1481 244.134 36.1111C244.69 35.0741 245.458 34.2685 246.44 33.6944C247.421 33.1204 248.532 32.8333 249.773 32.8333ZM249.773 36.1389C248.847 36.1389 248.106 36.4815 247.551 37.1667C247.014 37.8333 246.745 38.6759 246.745 39.6944C246.745 40.75 247.014 41.6111 247.551 42.2778C248.106 42.9259 248.847 43.25 249.773 43.25C250.68 43.25 251.412 42.9167 251.967 42.25C252.523 41.5833 252.801 40.7315 252.801 39.6944C252.801 38.6759 252.523 37.8333 251.967 37.1667C251.412 36.4815 250.68 36.1389 249.773 36.1389ZM257.384 51.9444C256.754 52.2407 255.921 52.4722 254.884 52.6389C253.847 52.787 252.736 52.8611 251.551 52.8611H242.745V49.4167H251.69C252.819 49.4167 253.884 49.3426 254.884 49.1944C255.902 49.0463 256.736 48.8241 257.384 48.5278V51.9444ZM286.319 37.75H283.708L283.485 34.5H286.319V32.6111H289.763V48.4444H286.319V43.5H283.485L283.708 40.25H286.319V37.75ZM283.096 39.0278C283.096 40.287 282.828 41.3981 282.291 42.3611C281.754 43.3056 280.995 44.0463 280.013 44.5833C279.05 45.1019 277.92 45.3611 276.624 45.3611C275.346 45.3611 274.217 45.1019 273.235 44.5833C272.272 44.0463 271.522 43.3056 270.985 42.3611C270.448 41.3981 270.18 40.287 270.18 39.0278C270.18 37.787 270.448 36.6852 270.985 35.7222C271.522 34.7593 272.272 34.0185 273.235 33.5C274.217 32.963 275.346 32.6944 276.624 32.6944C277.92 32.6944 279.05 32.963 280.013 33.5C280.995 34.0185 281.754 34.7593 282.291 35.7222C282.828 36.6852 283.096 37.787 283.096 39.0278ZM273.652 39.0278C273.652 40.0463 273.92 40.8426 274.458 41.4167C274.995 41.9907 275.717 42.2778 276.624 42.2778C277.532 42.2778 278.254 41.9907 278.791 41.4167C279.328 40.8426 279.596 40.0463 279.596 39.0278C279.596 38.0093 279.328 37.213 278.791 36.6389C278.254 36.0648 277.532 35.7778 276.624 35.7778C275.717 35.7778 274.995 36.0648 274.458 36.6389C273.92 37.213 273.652 38.0093 273.652 39.0278ZM290.096 53.8611H272.124V46.5278H275.68V50.5556H290.096V53.8611ZM312.677 45.3889H292.232V42.5833H300.705V41.1389H293.538V32.6389H296.982V34.2222H307.927V32.6389H311.371V41.1389H304.205V42.5833H312.677V45.3889ZM307.927 38.4444V36.8889H296.982V38.4444H307.927ZM302.455 46.4167C305.288 46.4167 307.519 46.7222 309.149 47.3333C310.797 47.9444 311.621 48.9259 311.621 50.2778C311.621 52.8519 308.566 54.1389 302.455 54.1389C299.621 54.1389 297.381 53.8333 295.732 53.2222C294.103 52.6111 293.288 51.6296 293.288 50.2778C293.288 48.9259 294.103 47.9444 295.732 47.3333C297.381 46.7222 299.621 46.4167 302.455 46.4167ZM302.455 51.4167C306.084 51.4167 307.899 51.037 307.899 50.2778C307.899 49.537 306.084 49.1667 302.455 49.1667C298.806 49.1667 296.982 49.537 296.982 50.2778C296.982 51.037 298.806 51.4167 302.455 51.4167ZM330.118 53.9444V32.6111H333.646V53.9444H330.118ZM321.229 32.9444C323.174 32.9444 324.702 33.787 325.813 35.4722C326.942 37.1389 327.507 39.6574 327.507 43.0278C327.507 46.3981 326.942 48.9259 325.813 50.6111C324.702 52.2778 323.174 53.1111 321.229 53.1111C319.266 53.1111 317.72 52.2778 316.591 50.6111C315.479 48.9259 314.924 46.3981 314.924 43.0278C314.924 39.6574 315.479 37.1389 316.591 35.4722C317.72 33.787 319.266 32.9444 321.229 32.9444ZM321.229 36.3056C320.359 36.3056 319.665 36.8426 319.146 37.9167C318.646 38.9722 318.396 40.6759 318.396 43.0278C318.396 45.3981 318.646 47.1111 319.146 48.1667C319.665 49.2222 320.359 49.75 321.229 49.75C322.081 49.75 322.766 49.2222 323.285 48.1667C323.804 47.0926 324.063 45.3796 324.063 43.0278C324.063 40.6944 323.804 38.9907 323.285 37.9167C322.766 36.8426 322.081 36.3056 321.229 36.3056ZM342.386 42.75V32.8889H345.775V34.9167H351.164V32.8889H354.609V36.0278H357.747V32.6111H361.247V43.3056H357.747V39.4167H354.609V42.75H342.386ZM351.164 37.7222H345.775V39.8889H351.164V37.7222ZM361.553 53.8611H343.386V47.8611H357.775V46.7222H343.359V44.1944H361.247V50.1944H346.886V51.3611H361.553V53.8611ZM379.272 39.7778V35.75H364.967V32.6944H382.828V39.7778H379.272ZM363.717 43.7778V40.75H384.161V43.7778H363.717ZM364.967 53.8611V45.3333H382.911V53.8611H364.967ZM379.411 48.25H368.439V50.9722H379.411V48.25Z" fill="#01A69F"/>
</svg>
