<svg width="140" height="13" viewBox="0 0 140 13" fill="none" xmlns="http://www.w3.org/2000/svg">
<path d="M5.31033 4.36251L4.97699 4.93585L3.31033 3.96251L3.32366 5.84251H2.68366V3.97585L1.03033 4.93585L0.710326 4.36251L2.35033 3.42918L0.710326 2.49585L1.03033 1.93585L2.68366 2.89585V1.01585H3.32366L3.31033 2.89585L4.97699 1.93585L5.31033 2.49585L3.65699 3.42918L5.31033 4.36251ZM9.35829 5.44251C9.03829 6.02029 8.61163 6.49585 8.07829 6.86918C7.54496 7.24251 6.92274 7.47807 6.21163 7.57585V6.65585C7.02052 6.52251 7.66052 6.15362 8.13163 5.54918C8.60274 4.93585 8.87829 4.19807 8.95829 3.33585H6.41163V2.41585H8.97163V0.989179H9.94496V2.41585H12.4783V3.33585H9.93163C9.90496 3.82474 9.82941 4.2514 9.70496 4.61585L12.7983 6.80251L12.265 7.56251L9.35829 5.44251ZM15.065 11.3625H14.105V1.12251H15.065V11.3625ZM9.90496 9.78918C11.4694 9.78918 12.5805 9.64251 13.2383 9.34918V10.2825C12.5539 10.5758 11.4472 10.7225 9.91829 10.7225H6.01163V9.78918H8.86496V7.45585H9.82496V9.78918H9.90496ZM25.6769 11.3625H24.7169V5.97585H22.2236V5.04251H24.7169V1.12251H25.6769V11.3625ZM20.4902 2.45585C20.4724 3.70029 20.3791 4.81585 20.2102 5.80251L23.4502 10.0425L22.6902 10.6158L19.9036 6.94918C19.5924 8.06029 19.1613 8.94029 18.6102 9.58918C18.068 10.2292 17.4324 10.607 16.7036 10.7225V9.72251C17.2813 9.59807 17.7791 9.2114 18.1969 8.56251C18.6147 7.90474 18.9347 7.0514 19.1569 6.00251C19.388 4.95362 19.5124 3.7714 19.5302 2.45585H16.9169V1.52251H23.0769V2.45585H20.4902ZM36.1688 11.3625H35.1955V1.12251H36.1688V11.3625ZM31.4221 1.41585C31.4044 3.03362 31.2666 4.4514 31.0088 5.66918L34.2221 10.1092L33.4488 10.6958L30.7021 6.84251C30.3555 8.00696 29.8933 8.92696 29.3155 9.60251C28.7466 10.2692 28.0844 10.6425 27.3288 10.7225V9.72251C27.9866 9.60696 28.5466 9.16696 29.0088 8.40251C29.471 7.62918 29.8221 6.63362 30.0621 5.41585C30.3021 4.19807 30.4266 2.85585 30.4355 1.38918L31.4221 1.41585ZM38.3807 2.13585V1.26918H46.6607V4.57585H45.6874V2.13585H38.3807ZM47.3941 6.08251H37.6874V5.21585H47.3941V6.08251ZM46.6874 6.92251V11.2158H38.3941V6.92251H39.3407V8.20251H45.7407V6.92251H46.6874ZM45.7407 8.98918H39.3407V10.4158H45.7407V8.98918ZM49.246 9.52251C49.4593 9.52251 49.6327 9.59362 49.766 9.73585C49.8993 9.86918 49.966 10.0381 49.966 10.2425C49.966 10.3492 49.9527 10.4558 49.926 10.5625C49.9082 10.6692 49.8638 10.8203 49.7927 11.0158L49.2193 12.8425H48.5527L49.0193 10.9092C48.8682 10.8647 48.7482 10.7847 48.6593 10.6692C48.5704 10.5536 48.526 10.4114 48.526 10.2425C48.526 10.0381 48.5927 9.86918 48.726 9.73585C48.8682 9.59362 49.0416 9.52251 49.246 9.52251ZM61.797 11.3625V1.12251H62.7704V11.3625H61.797ZM59.5704 3.92251C59.5704 5.28251 59.3526 6.47362 58.917 7.49585C58.4815 8.50918 57.8593 9.29585 57.0504 9.85585C56.2504 10.4158 55.3037 10.6958 54.2104 10.6958V9.73585C55.1082 9.73585 55.8859 9.50029 56.5437 9.02918C57.2015 8.55807 57.7037 7.8914 58.0504 7.02918C58.4059 6.15807 58.5837 5.13585 58.5837 3.96251V2.44251H54.2104V1.52251H59.5704V3.92251ZM73.9956 7.72251H64.289V6.85585H68.6623V5.54918H65.0223V1.20251H65.969V2.53585H72.3156V1.20251H73.2756V5.54918H69.6223V6.85585H73.9956V7.72251ZM72.3156 4.73585V3.32251H65.969V4.73585H72.3156ZM73.4756 10.3492V11.2158H64.9956V8.52251H65.969V10.3492H73.4756ZM82.8742 5.18918V2.16251H75.5142V1.26918H83.8342V5.18918H82.8742ZM74.8476 6.80251V5.90918H84.5542V6.80251H74.8476ZM84.0342 10.3358V11.2158H75.5542V7.90918H76.5276V10.3358H84.0342ZM95.1128 10.8425H85.4062V9.92251H89.7528V7.81585H86.0995V4.21585H93.4995V2.42918H86.0862V1.52251H94.4595V5.09585H87.0462V6.90918H94.6062V7.81585H90.7128V9.92251H95.1128V10.8425ZM105.005 11.3625H104.031V1.12251H105.005V11.3625ZM100.258 1.41585C100.24 3.03362 100.103 4.4514 99.8448 5.66918L103.058 10.1092L102.285 10.6958L99.5381 6.84251C99.1914 8.00696 98.7292 8.92696 98.1514 9.60251C97.5825 10.2692 96.9203 10.6425 96.1648 10.7225V9.72251C96.8225 9.60696 97.3825 9.16696 97.8448 8.40251C98.307 7.62918 98.6581 6.63362 98.8981 5.41585C99.1381 4.19807 99.2625 2.85585 99.2714 1.38918L100.258 1.41585ZM116.697 4.60251H115.283V8.73585H114.323V1.12251H115.283V3.64251H116.697V4.60251ZM112.363 2.73585C112.363 4.14918 111.861 5.22918 110.857 5.97585C109.861 6.72251 108.51 7.09585 106.803 7.09585V6.17585C108.234 6.17585 109.359 5.88696 110.177 5.30918C110.994 4.7314 111.403 3.90918 111.403 2.84251V2.29585H106.803V1.40251H112.363V2.73585ZM115.577 10.2825V11.2025H107.217V8.05585H108.19V10.2825H115.577ZM127.785 11.3625V1.12251H128.759V11.3625H127.785ZM125.559 3.92251C125.559 5.28251 125.341 6.47362 124.905 7.49585C124.47 8.50918 123.848 9.29585 123.039 9.85585C122.239 10.4158 121.292 10.6958 120.199 10.6958V9.73585C121.096 9.73585 121.874 9.50029 122.532 9.02918C123.19 8.55807 123.692 7.8914 124.039 7.02918C124.394 6.15807 124.572 5.13585 124.572 3.96251V2.44251H120.199V1.52251H125.559V3.92251ZM134.917 3.89585C134.455 4.40251 133.851 4.79362 133.104 5.06918C132.366 5.34474 131.597 5.4914 130.797 5.50918V4.64251C131.384 4.62474 131.966 4.51807 132.544 4.32251C133.122 4.11807 133.615 3.82918 134.024 3.45585C134.442 3.08251 134.695 2.64251 134.784 2.13585H130.971V1.26918H139.291V2.13585H135.797C135.744 2.51807 135.637 2.86474 135.477 3.17585L139.544 4.74918L139.237 5.56251L134.917 3.89585ZM139.984 7.30918H135.611V9.14918H134.651V7.30918H130.277V6.44251H139.984V7.30918ZM139.464 10.3358V11.2158H130.984V8.32251H131.957V10.3358H139.464Z" fill="black"/>
</svg>
