<svg width="830" height="202" viewBox="0 0 830 202" fill="none" xmlns="http://www.w3.org/2000/svg">
<g clip-path="url(#clip0_6_5736)">
<path d="M34.5861 80.3042C26.4759 80.3042 19.8984 83.8902 19.8984 88.3158C19.8984 92.7438 26.4759 96.3274 34.5861 96.3274C42.7027 96.3274 49.2746 92.7438 49.2746 88.3158C49.2746 83.8902 42.7027 80.3042 34.5861 80.3042Z" fill="#333333"/>
<path d="M34.5861 101.668C28.656 101.668 23.5029 100.112 19.8984 97.5576V103.739C23.9923 105.81 29.0212 107.009 34.5861 107.009C40.1518 107.009 45.1799 105.81 49.2746 103.739V97.5576C45.6727 100.112 40.5139 101.668 34.5861 101.668Z" fill="#333333"/>
<path d="M34.5861 112.35C28.656 112.35 23.5029 110.794 19.8984 108.24V114.421C23.9923 116.492 29.0212 117.692 34.5861 117.692C40.1518 117.692 45.1799 116.492 49.2746 114.421V108.24C45.6727 110.794 40.5139 112.35 34.5861 112.35Z" fill="#333333"/>
<path d="M34.5861 123.032C28.656 123.032 23.5029 121.476 19.8984 118.922V125.103C23.9923 127.174 29.0212 128.373 34.5861 128.373C40.1518 128.373 45.1799 127.174 49.2746 125.103V118.922C45.6727 121.476 40.5139 123.032 34.5861 123.032Z" fill="#333333"/>
<path d="M69.3037 64.281C61.1927 64.281 54.6152 67.867 54.6152 72.2926C54.6152 76.7206 61.1927 80.3042 69.3037 80.3042C77.4195 80.3042 83.9914 76.7206 83.9914 72.2926C83.9914 67.867 77.4195 64.281 69.3037 64.281Z" fill="#333333"/>
<path d="M69.3037 85.6455C63.3735 85.6455 58.2197 84.0888 54.6152 81.5347V87.7157C58.7099 89.7866 63.738 90.986 69.3037 90.986C74.8685 90.986 79.8975 89.7866 83.9914 87.7157V81.5347C80.3902 84.0888 75.2307 85.6455 69.3037 85.6455Z" fill="#333333"/>
<path d="M69.3037 96.3273C63.3735 96.3273 58.2197 94.7707 54.6152 92.2173V98.3983C58.7099 100.468 63.738 101.669 69.3037 101.669C74.8685 101.669 79.8975 100.468 83.9914 98.3983V92.2173C80.3902 94.7707 75.2307 96.3273 69.3037 96.3273Z" fill="#333333"/>
<path d="M69.3037 107.009C63.3735 107.009 58.2197 105.453 54.6152 102.899V109.08C58.7099 111.151 63.738 112.351 69.3037 112.351C74.8685 112.351 79.8975 111.151 83.9914 109.08V102.899C80.3902 105.453 75.2307 107.009 69.3037 107.009Z" fill="#333333"/>
<path d="M69.3037 117.692C63.3735 117.692 58.2197 116.135 54.6152 113.581V119.762C58.7099 121.833 63.738 123.032 69.3037 123.032C74.8685 123.032 79.8975 121.833 83.9914 119.762V113.581C80.3902 116.135 75.2307 117.692 69.3037 117.692Z" fill="#333333"/>
</g>
<path d="M48.1878 153.033H46.9712V140.233H48.1878V153.033ZM42.2545 140.6C42.2323 142.622 42.06 144.395 41.7378 145.917L45.7545 151.467L44.7878 152.2L41.3545 147.383C40.9212 148.839 40.3434 149.989 39.6212 150.833C38.91 151.667 38.0823 152.133 37.1378 152.233V150.983C37.96 150.839 38.66 150.289 39.2378 149.333C39.8156 148.367 40.2545 147.122 40.5545 145.6C40.8545 144.078 41.01 142.4 41.0212 140.567L42.2545 140.6ZM54.2486 141.5V140.417H64.5986V144.55H63.382V141.5H54.2486ZM65.5153 146.433H53.382V145.35H65.5153V146.433ZM64.632 147.483V152.85H54.2653V147.483H55.4486V149.083H63.4486V147.483H64.632ZM63.4486 150.067H55.4486V151.85H63.4486V150.067ZM20.9628 156.541C22.9191 156.541 24.418 157.189 25.4595 158.483C26.515 159.778 27.0428 161.601 27.0428 163.951C27.0428 165.598 26.7613 166.998 26.1984 168.152C25.6354 169.292 24.8473 170.158 23.8339 170.749C22.8206 171.326 21.6313 171.615 20.2661 171.615C18.8024 171.615 17.6273 171.333 16.7406 170.77L17.3739 169.567C18.0776 170.017 19.0347 170.242 20.245 170.242C21.765 170.242 22.9754 169.778 23.8761 168.849C24.791 167.906 25.2836 166.541 25.3539 164.753C25.368 164.613 25.375 164.388 25.375 164.078C25.375 163.613 25.3469 163.184 25.2906 162.79C24.995 163.649 24.4461 164.324 23.6439 164.817C22.8417 165.295 21.9128 165.535 20.8573 165.535C19.8861 165.535 19.0206 165.352 18.2606 164.986C17.5147 164.62 16.9306 164.106 16.5084 163.445C16.1002 162.783 15.8961 162.009 15.8961 161.122C15.8961 160.208 16.1143 159.405 16.5506 158.716C16.9869 158.026 17.5921 157.491 18.3661 157.111C19.1402 156.731 20.0058 156.541 20.9628 156.541ZM21.1528 164.268C21.8706 164.268 22.511 164.127 23.0739 163.846C23.651 163.564 24.0943 163.177 24.4039 162.685C24.7276 162.178 24.8895 161.622 24.8895 161.017C24.8895 160.454 24.7347 159.933 24.425 159.455C24.1295 158.962 23.6932 158.568 23.1161 158.272C22.5391 157.977 21.8424 157.829 21.0261 157.829C19.9706 157.829 19.1121 158.125 18.4506 158.716C17.8032 159.293 17.4795 160.067 17.4795 161.038C17.4795 162.023 17.8032 162.811 18.4506 163.402C19.1121 163.979 20.0128 164.268 21.1528 164.268ZM30.1734 169.271C30.5112 169.271 30.7857 169.384 30.9968 169.609C31.2079 169.82 31.3134 170.088 31.3134 170.411C31.3134 170.58 31.2923 170.749 31.2501 170.918C31.222 171.087 31.1516 171.326 31.039 171.636L30.1312 174.528H29.0757L29.8146 171.467C29.5753 171.396 29.3853 171.27 29.2446 171.087C29.1038 170.904 29.0334 170.679 29.0334 170.411C29.0334 170.088 29.139 169.82 29.3501 169.609C29.5753 169.384 29.8497 169.271 30.1734 169.271ZM41.4167 163.719C42.4019 164.001 43.1619 164.458 43.6967 165.091C44.2315 165.725 44.4989 166.485 44.4989 167.371C44.4989 168.68 43.9852 169.715 42.9578 170.475C41.9304 171.235 40.53 171.615 38.7567 171.615C36.9693 171.615 35.5619 171.235 34.5345 170.475C33.5211 169.715 33.0145 168.68 33.0145 167.371C33.0145 166.471 33.2819 165.711 33.8167 165.091C34.3515 164.458 35.1115 164.001 36.0967 163.719C35.2804 163.452 34.647 163.043 34.1967 162.495C33.7604 161.932 33.5422 161.256 33.5422 160.468C33.5422 159.258 34.0137 158.301 34.9567 157.597C35.9137 156.893 37.1804 156.541 38.7567 156.541C40.333 156.541 41.5926 156.893 42.5356 157.597C43.4926 158.301 43.9711 159.258 43.9711 160.468C43.9711 161.256 43.7459 161.932 43.2956 162.495C42.8593 163.043 42.233 163.452 41.4167 163.719ZM38.7567 157.808C37.6448 157.808 36.7652 158.054 36.1178 158.547C35.4845 159.025 35.1678 159.68 35.1678 160.51C35.1678 161.326 35.4845 161.974 36.1178 162.452C36.7511 162.931 37.6307 163.17 38.7567 163.17C39.8826 163.17 40.7693 162.931 41.4167 162.452C42.0641 161.974 42.3878 161.326 42.3878 160.51C42.3878 159.68 42.057 159.025 41.3956 158.547C40.7341 158.054 39.8545 157.808 38.7567 157.808ZM38.7567 170.348C40.0374 170.348 41.0437 170.081 41.7756 169.546C42.5215 169.011 42.8945 168.279 42.8945 167.35C42.8945 166.421 42.5215 165.689 41.7756 165.155C41.0437 164.62 40.0374 164.352 38.7567 164.352C37.4619 164.352 36.4556 164.62 35.7378 165.155C35.02 165.689 34.6611 166.421 34.6611 167.35C34.6611 168.279 35.02 169.011 35.7378 169.546C36.4556 170.081 37.4619 170.348 38.7567 170.348ZM52.1473 162.621C53.1184 162.621 53.9769 162.804 54.7229 163.17C55.4829 163.536 56.0669 164.05 56.4751 164.711C56.8973 165.373 57.1084 166.147 57.1084 167.033C57.1084 167.948 56.8903 168.751 56.454 169.44C56.0177 170.13 55.4125 170.665 54.6384 171.045C53.8784 171.425 53.0199 171.615 52.0629 171.615C50.1066 171.615 48.6006 170.967 47.5451 169.672C46.4895 168.378 45.9617 166.555 45.9617 164.205C45.9617 162.558 46.2432 161.165 46.8062 160.025C47.3692 158.871 48.1573 158.005 49.1706 157.428C50.198 156.837 51.3873 156.541 52.7384 156.541C54.2021 156.541 55.3773 156.823 56.264 157.386L55.6306 158.589C54.9269 158.139 53.9769 157.913 52.7806 157.913C51.2466 157.913 50.0221 158.385 49.1073 159.328C48.2066 160.271 47.714 161.643 47.6295 163.445C47.6014 164.05 47.6366 164.683 47.7351 165.345C48.0306 164.486 48.5725 163.818 49.3606 163.339C50.1629 162.861 51.0917 162.621 52.1473 162.621ZM51.9784 170.327C53.034 170.327 53.8925 170.038 54.554 169.461C55.2155 168.87 55.5462 168.089 55.5462 167.118C55.5462 166.133 55.2155 165.352 54.554 164.775C53.8925 164.183 52.9988 163.888 51.8729 163.888C51.1551 163.888 50.5077 164.029 49.9306 164.31C49.3677 164.592 48.9243 164.986 48.6006 165.492C48.291 165.985 48.1362 166.534 48.1362 167.139C48.1362 167.702 48.284 168.23 48.5795 168.722C48.8751 169.201 49.3114 169.588 49.8884 169.883C50.4795 170.179 51.1762 170.327 51.9784 170.327ZM64.1024 171.615C62.9624 171.615 61.942 171.312 61.0413 170.707C60.1405 170.088 59.4368 169.208 58.9302 168.068C58.4376 166.928 58.1913 165.598 58.1913 164.078C58.1913 162.558 58.4376 161.228 58.9302 160.088C59.4368 158.948 60.1405 158.075 61.0413 157.47C61.942 156.851 62.9624 156.541 64.1024 156.541C65.2565 156.541 66.2768 156.851 67.1635 157.47C68.0642 158.075 68.7609 158.948 69.2535 160.088C69.7602 161.214 70.0135 162.544 70.0135 164.078C70.0135 165.612 69.7602 166.949 69.2535 168.089C68.7609 169.215 68.0642 170.088 67.1635 170.707C66.2768 171.312 65.2565 171.615 64.1024 171.615ZM64.1024 170.2C64.9609 170.2 65.7139 169.961 66.3613 169.482C67.0087 169.004 67.5083 168.307 67.8602 167.392C68.2261 166.478 68.409 165.373 68.409 164.078C68.409 162.783 68.2261 161.678 67.8602 160.763C67.5083 159.849 67.0087 159.152 66.3613 158.673C65.7139 158.195 64.9609 157.956 64.1024 157.956C63.2579 157.956 62.512 158.195 61.8646 158.673C61.2172 159.152 60.7105 159.849 60.3446 160.763C59.9927 161.678 59.8168 162.783 59.8168 164.078C59.8168 165.373 59.9927 166.478 60.3446 167.392C60.7105 168.307 61.2172 169.004 61.8646 169.482C62.512 169.961 63.2579 170.2 64.1024 170.2ZM84.0163 155.971H85.5363V168.68H84.0163V167.477H79.1819V166.252H84.0163V155.971ZM76.6275 162.305C75.2623 162.305 74.1645 162.03 73.3341 161.481C72.5037 160.918 72.0886 160.144 72.0886 159.159C72.0886 158.188 72.5037 157.428 73.3341 156.879C74.1786 156.316 75.2763 156.035 76.6275 156.035C77.9786 156.035 79.0693 156.316 79.8997 156.879C80.73 157.428 81.1452 158.188 81.1452 159.159C81.1452 160.158 80.73 160.932 79.8997 161.481C79.0834 162.03 77.9926 162.305 76.6275 162.305ZM76.6275 157.322C75.7126 157.322 74.9737 157.484 74.4108 157.808C73.8619 158.118 73.5875 158.568 73.5875 159.159C73.5875 159.764 73.8619 160.229 74.4108 160.552C74.9737 160.876 75.7126 161.038 76.6275 161.038C77.5282 161.038 78.253 160.876 78.8019 160.552C79.3649 160.229 79.6463 159.764 79.6463 159.159C79.6463 158.568 79.3649 158.118 78.8019 157.808C78.253 157.484 77.5282 157.322 76.6275 157.322ZM71.1386 164.901V163.571H77.3663C79.9419 163.571 81.6941 163.353 82.623 162.917V164.247C81.6941 164.683 79.8293 164.901 77.0286 164.901V167.941H75.5086V164.901H71.1386ZM85.9797 171.931H72.5741V167.055H74.1152V170.538H85.9797V171.931Z" fill="black"/>
<g clip-path="url(#clip1_6_5736)">
<path fill-rule="evenodd" clip-rule="evenodd" d="M156.431 122.406H158.225C158.21 117.033 160.211 111.878 163.144 107.489C166.457 102.536 170.975 98.5451 175.113 96.3271C170.975 94.1051 166.457 90.1142 163.144 85.1616C160.212 80.7728 158.211 75.6175 158.225 70.2486H156.431C155.488 70.2307 154.59 69.8435 153.93 69.1702C153.269 68.497 152.899 67.5915 152.899 66.6483C152.899 65.7052 153.269 64.7997 153.93 64.1264C154.59 63.4532 155.488 63.066 156.431 63.0481H206.296C207.239 63.066 208.137 63.4532 208.798 64.1264C209.458 64.7997 209.828 65.7052 209.828 66.6483C209.828 67.5915 209.458 68.497 208.798 69.1702C208.137 69.8435 207.239 70.2307 206.296 70.2486H204.501C204.52 75.6174 202.515 80.7728 199.582 85.1616C196.269 90.1144 191.751 94.1053 187.613 96.3271C191.751 98.5455 196.269 102.536 199.582 107.489C202.515 111.878 204.52 117.033 204.501 122.406H206.296C207.247 122.411 208.157 122.793 208.828 123.468C209.498 124.142 209.875 125.055 209.875 126.006C209.875 126.957 209.498 127.869 208.828 128.544C208.157 129.219 207.247 129.6 206.296 129.606H156.431C155.48 129.6 154.57 129.219 153.899 128.544C153.229 127.869 152.852 126.957 152.852 126.006C152.852 125.055 153.229 124.142 153.899 123.468C154.57 122.793 155.48 122.411 156.431 122.406ZM167.175 122.406C167.819 120.631 168.865 118.943 170.109 117.427C172.324 114.726 175.954 111.756 179.591 110.451L181.363 109.818L183.139 110.452C186.773 111.756 190.403 114.726 192.617 117.427C193.862 118.943 194.908 120.631 195.552 122.406H202.689C202.703 117.424 200.828 112.615 198.075 108.499C194.49 103.141 189.452 98.9843 185.17 97.1602C185.007 97.0905 184.867 96.9742 184.769 96.8258C184.671 96.6774 184.619 96.5035 184.619 96.3256C184.619 96.1477 184.671 95.9738 184.769 95.8254C184.867 95.677 185.007 95.5607 185.17 95.4909C189.452 93.671 194.49 89.5103 198.075 84.1523C200.828 80.0399 202.703 75.2273 202.689 70.249H160.038C160.024 75.2278 161.899 80.0399 164.652 84.1523C168.237 89.5103 173.278 93.6706 177.557 95.4909C177.72 95.5607 177.86 95.677 177.958 95.8254C178.056 95.9738 178.108 96.1477 178.108 96.3256C178.108 96.5035 178.056 96.6774 177.958 96.8258C177.86 96.9742 177.72 97.0905 177.557 97.1602C173.278 98.9843 168.237 103.141 164.652 108.499C161.899 112.615 160.024 117.424 160.038 122.406L167.175 122.406ZM177.678 90.21C178.292 90.5575 178.801 91.0639 179.151 91.6759C179.501 92.288 179.68 92.9831 179.668 93.6882C179.639 101.102 183.033 100.708 183.058 93.747C183.05 93.0315 183.235 92.3269 183.596 91.7085C183.956 91.0901 184.477 90.581 185.104 90.2353C188.645 88.227 191.361 85.7138 193.981 81.9183C173.087 81.3103 191.294 74.5226 165.385 75.0348C167.298 81.613 171.919 86.8198 177.678 90.21ZM179.668 103.697C179.668 104.032 179.768 104.36 179.954 104.639C180.14 104.918 180.405 105.135 180.715 105.263C181.024 105.391 181.365 105.425 181.694 105.36C182.023 105.294 182.325 105.133 182.562 104.896C182.799 104.659 182.96 104.357 183.026 104.028C183.091 103.699 183.058 103.358 182.929 103.048C182.801 102.739 182.584 102.474 182.305 102.288C182.026 102.101 181.699 102.002 181.363 102.002C180.914 102.003 180.484 102.182 180.166 102.5C179.848 102.817 179.669 103.248 179.668 103.697Z" fill="#3E3E3E"/>
</g>
<path d="M177.501 153.033H176.285V140.233H177.501V153.033ZM171.568 140.6C171.546 142.622 171.374 144.395 171.051 145.917L175.068 151.467L174.101 152.2L170.668 147.383C170.235 148.839 169.657 149.989 168.935 150.833C168.224 151.667 167.396 152.133 166.451 152.233V150.983C167.274 150.839 167.974 150.289 168.551 149.333C169.129 148.367 169.568 147.122 169.868 145.6C170.168 144.078 170.324 142.4 170.335 140.567L171.568 140.6ZM195.412 144.583H193.645V149.75H192.445V140.233H193.645V143.383H195.412V144.583ZM189.995 142.25C189.995 144.017 189.368 145.367 188.112 146.3C186.868 147.233 185.179 147.7 183.045 147.7V146.55C184.834 146.55 186.24 146.189 187.262 145.467C188.284 144.745 188.795 143.717 188.795 142.383V141.7H183.045V140.583H189.995V142.25ZM194.012 151.683V152.833H183.562V148.9H184.779V151.683H194.012ZM164.694 171.467H154.307V170.39L160.429 164.352C161.203 163.592 161.724 162.938 161.992 162.389C162.259 161.84 162.393 161.277 162.393 160.7C162.393 159.842 162.097 159.166 161.506 158.673C160.915 158.181 160.07 157.935 158.973 157.935C157.242 157.935 155.919 158.498 155.004 159.623L153.843 158.779C154.406 158.061 155.13 157.512 156.017 157.132C156.918 156.738 157.945 156.541 159.099 156.541C160.591 156.541 161.78 156.907 162.667 157.639C163.568 158.357 164.018 159.335 164.018 160.573C164.018 161.333 163.842 162.065 163.49 162.769C163.153 163.459 162.519 164.254 161.59 165.155L156.629 170.095H164.694V171.467ZM172.152 171.615C171.012 171.615 169.992 171.312 169.091 170.707C168.19 170.088 167.487 169.208 166.98 168.068C166.487 166.928 166.241 165.598 166.241 164.078C166.241 162.558 166.487 161.228 166.98 160.088C167.487 158.948 168.19 158.075 169.091 157.47C169.992 156.851 171.012 156.541 172.152 156.541C173.306 156.541 174.327 156.851 175.213 157.47C176.114 158.075 176.811 158.948 177.303 160.088C177.81 161.214 178.063 162.544 178.063 164.078C178.063 165.612 177.81 166.949 177.303 168.089C176.811 169.215 176.114 170.088 175.213 170.707C174.327 171.312 173.306 171.615 172.152 171.615ZM172.152 170.2C173.011 170.2 173.764 169.961 174.411 169.482C175.058 169.004 175.558 168.307 175.91 167.392C176.276 166.478 176.459 165.373 176.459 164.078C176.459 162.783 176.276 161.678 175.91 160.763C175.558 159.849 175.058 159.152 174.411 158.673C173.764 158.195 173.011 157.956 172.152 157.956C171.308 157.956 170.562 158.195 169.914 158.673C169.267 159.152 168.76 159.849 168.394 160.763C168.043 161.678 167.867 162.783 167.867 164.078C167.867 165.373 168.043 166.478 168.394 167.392C168.76 168.307 169.267 169.004 169.914 169.482C170.562 169.961 171.308 170.2 172.152 170.2ZM184.213 156.541C186.169 156.541 187.668 157.189 188.709 158.483C189.765 159.778 190.293 161.601 190.293 163.951C190.293 165.598 190.011 166.998 189.448 168.152C188.885 169.292 188.097 170.158 187.084 170.749C186.071 171.326 184.881 171.615 183.516 171.615C182.052 171.615 180.877 171.333 179.991 170.77L180.624 169.567C181.328 170.017 182.285 170.242 183.495 170.242C185.015 170.242 186.225 169.778 187.126 168.849C188.041 167.906 188.534 166.541 188.604 164.753C188.618 164.613 188.625 164.388 188.625 164.078C188.625 163.613 188.597 163.184 188.541 162.79C188.245 163.649 187.696 164.324 186.894 164.817C186.092 165.295 185.163 165.535 184.107 165.535C183.136 165.535 182.271 165.352 181.511 164.986C180.765 164.62 180.181 164.106 179.758 163.445C179.35 162.783 179.146 162.009 179.146 161.122C179.146 160.208 179.364 159.405 179.801 158.716C180.237 158.026 180.842 157.491 181.616 157.111C182.39 156.731 183.256 156.541 184.213 156.541ZM184.403 164.268C185.121 164.268 185.761 164.127 186.324 163.846C186.901 163.564 187.344 163.177 187.654 162.685C187.978 162.178 188.139 161.622 188.139 161.017C188.139 160.454 187.985 159.933 187.675 159.455C187.379 158.962 186.943 158.568 186.366 158.272C185.789 157.977 185.092 157.829 184.276 157.829C183.221 157.829 182.362 158.125 181.701 158.716C181.053 159.293 180.729 160.067 180.729 161.038C180.729 162.023 181.053 162.811 181.701 163.402C182.362 163.979 183.263 164.268 184.403 164.268ZM204.739 155.971H206.259V168.68H204.739V167.477H199.905V166.252H204.739V155.971ZM197.35 162.305C195.985 162.305 194.887 162.03 194.057 161.481C193.226 160.918 192.811 160.144 192.811 159.159C192.811 158.188 193.226 157.428 194.057 156.879C194.901 156.316 195.999 156.035 197.35 156.035C198.701 156.035 199.792 156.316 200.622 156.879C201.453 157.428 201.868 158.188 201.868 159.159C201.868 160.158 201.453 160.932 200.622 161.481C199.806 162.03 198.715 162.305 197.35 162.305ZM197.35 157.322C196.435 157.322 195.696 157.484 195.133 157.808C194.585 158.118 194.31 158.568 194.31 159.159C194.31 159.764 194.585 160.229 195.133 160.552C195.696 160.876 196.435 161.038 197.35 161.038C198.251 161.038 198.976 160.876 199.525 160.552C200.088 160.229 200.369 159.764 200.369 159.159C200.369 158.568 200.088 158.118 199.525 157.808C198.976 157.484 198.251 157.322 197.35 157.322ZM191.861 164.901V163.571H198.089C200.665 163.571 202.417 163.353 203.346 162.917V164.247C202.417 164.683 200.552 164.901 197.751 164.901V167.941H196.231V164.901H191.861ZM206.702 171.931H193.297V167.055H194.838V170.538H206.702V171.931Z" fill="black"/>
<path d="M116.631 97.3721L112.933 102.49H111.107L115.718 96.1747L111.318 90.1646H113.19L116.654 94.9304L120.141 90.1646H121.943L117.543 96.1512L122.2 102.49H120.281L116.631 97.3721Z" fill="black"/>
<path d="M246.689 93.8623V95.1497H235.596V93.8623H246.689ZM246.689 98.7377V100.025H235.596V98.7377H246.689Z" fill="black"/>
<g clip-path="url(#clip2_6_5736)">
<path d="M302 120.128H327.416V123.444H302V120.128Z" fill="#333333"/>
<path d="M352.832 101.343C355.273 101.343 357.252 99.3635 357.252 96.9224C357.248 96.5577 357.197 96.1953 357.103 95.8428C355.661 97.2385 353.734 98.0214 351.727 98.0275H338.466V101.343H352.832Z" fill="#333333"/>
<path d="M302 114.603H327.416V117.918H302V114.603Z" fill="#333333"/>
<path d="M302 109.078H327.416V112.393H302V109.078Z" fill="#333333"/>
<path d="M327.416 93.6003V78.1362C325.266 80.1295 324.061 82.9402 324.101 85.8716C324.081 88.7972 325.282 91.5988 327.416 93.6003Z" fill="#333333"/>
<path d="M302 103.553H327.416V106.868H302V103.553Z" fill="#333333"/>
<path d="M338.466 78.1362V93.6069C340.602 91.6037 341.804 88.7994 341.781 85.8716C341.821 82.9402 340.616 80.1286 338.466 78.1362Z" fill="#333333"/>
<path d="M348.411 75.9263H339.295C342.315 78.3367 344.048 82.0082 343.991 85.8717C344.052 89.7372 342.314 93.4109 339.288 95.8172H351.727C353.368 95.8111 354.921 95.0773 355.97 93.8145C355.141 92.9747 354.011 92.502 352.832 92.502H349.516C348.906 92.502 348.411 92.0075 348.411 91.397V75.9263Z" fill="#333333"/>
<path d="M354.002 90.4025C354.036 90.4091 354.071 90.4124 354.103 90.4177C354.461 90.4903 354.811 90.5906 355.152 90.7199L355.29 90.7704C355.613 90.9011 355.926 91.0569 356.225 91.2379L356.367 91.3241C356.657 91.5075 356.934 91.7144 357.192 91.941C357.211 91.9573 357.233 91.9694 357.252 91.986V63.7708C357.252 61.3297 355.273 59.3506 352.832 59.3506H350.622V90.292H352.832C353.225 90.2942 353.616 90.3312 354.002 90.4025Z" fill="#333333"/>
<path d="M338.466 70.4014H348.412V73.7165H338.466V70.4014Z" fill="#333333"/>
<path d="M338.466 120.128H363.882V123.444H338.466V120.128Z" fill="#333333"/>
<path d="M338.466 109.078H363.882V112.393H338.466V109.078Z" fill="#333333"/>
<path d="M329.625 70.4014H336.256V101.343H329.625V70.4014Z" fill="#333333"/>
<path d="M338.466 114.603H363.882V117.918H338.466V114.603Z" fill="#333333"/>
<path d="M347.307 103.553H338.466V106.868H363.882V103.553H347.307Z" fill="#333333"/>
<path d="M359.462 70.4014V96.9226C359.462 98.5558 358.855 100.131 357.76 101.343H363.882V70.4014H359.462Z" fill="#333333"/>
<path d="M302 101.343H327.416V98.0276H310.84C310.229 98.0276 309.735 97.5331 309.735 96.9226C309.735 95.092 308.25 93.6074 306.42 93.6074C305.809 93.6074 305.315 93.1129 305.315 92.5024V79.2418C305.315 78.6312 305.809 78.1367 306.42 78.1367C308.25 78.1367 309.735 76.6521 309.735 74.8216C309.735 74.211 310.229 73.7165 310.84 73.7165H327.416V70.4014H302V101.343Z" fill="#333333"/>
<path d="M326.588 75.9263H311.835C311.388 78.0949 309.694 79.7898 307.525 80.236V91.5075C309.694 91.9536 311.388 93.6485 311.835 95.8172H326.594C323.568 93.4109 321.83 89.7372 321.891 85.8717C321.832 82.0082 323.567 78.3353 326.588 75.9263ZM314.155 90.2919C311.714 90.2919 309.735 88.3128 309.735 85.8717C309.735 83.4307 311.714 81.4515 314.155 81.4515C316.596 81.4515 318.575 83.4307 318.575 85.8717C318.575 88.3128 316.596 90.2919 314.155 90.2919Z" fill="#333333"/>
<path d="M316.365 85.872C316.365 87.0928 315.376 88.0821 314.155 88.0821C312.934 88.0821 311.945 87.0928 311.945 85.872C311.945 84.6512 312.934 83.6619 314.155 83.6619C315.376 83.6619 316.365 84.6512 316.365 85.872Z" fill="#333333"/>
<path d="M329.625 103.553H336.256V123.444H329.625V103.553Z" fill="#333333"/>
</g>
<path d="M307.704 141.334V140.284H311.221V138.767H312.437V140.284H315.954V141.334H307.704ZM320.437 143.817H318.671V148.601H317.471V139.001H318.671V142.617H320.437V143.817ZM311.838 147.367C310.793 147.367 309.932 147.134 309.254 146.667C308.588 146.201 308.254 145.562 308.254 144.751C308.254 143.94 308.588 143.301 309.254 142.834C309.932 142.367 310.793 142.134 311.838 142.134C312.882 142.134 313.738 142.367 314.404 142.834C315.071 143.301 315.404 143.94 315.404 144.751C315.404 145.562 315.071 146.201 314.404 146.667C313.738 147.134 312.882 147.367 311.838 147.367ZM311.838 143.117C311.104 143.117 310.515 143.273 310.071 143.584C309.637 143.884 309.421 144.273 309.421 144.751C309.421 145.229 309.637 145.623 310.071 145.934C310.515 146.234 311.104 146.384 311.838 146.384C312.56 146.384 313.138 146.234 313.571 145.934C314.015 145.623 314.237 145.229 314.237 144.751C314.237 144.273 314.015 143.884 313.571 143.584C313.138 143.273 312.56 143.117 311.838 143.117ZM319.038 150.484V151.601H308.588V148.184H309.804V150.484H319.038ZM333.636 142.567H331.869V145.301H330.669V139.001H331.869V141.401H333.636V142.567ZM329.702 144.167C329.314 144.356 328.758 144.501 328.036 144.601C327.314 144.701 326.497 144.751 325.586 144.751H321.386V139.351H328.802V140.434H322.586V143.684H325.652C326.541 143.684 327.336 143.634 328.036 143.534C328.747 143.423 329.302 143.273 329.702 143.084V144.167ZM332.202 150.634V151.601H321.802V148.384H330.669V147.017H321.769V146.051H331.869V149.284H323.036V150.634H332.202ZM344.151 144.084V140.301H334.951V139.184H345.351V144.084H344.151ZM334.117 146.101V144.984H346.251V146.101H334.117ZM345.601 150.517V151.617H335.001V147.484H336.217V150.517H345.601ZM348.199 145.534V139.434H358.566V145.534H348.199ZM349.399 140.584V144.367H357.366V140.584H349.399ZM353.999 148.384V152.101H352.766V148.384H347.316V147.184H359.449V148.384H353.999Z" fill="black"/>
<path d="M285.054 172.49H274.266V170.843L280.177 165.122C280.867 164.447 281.331 163.87 281.57 163.391C281.824 162.913 281.95 162.434 281.95 161.956C281.95 161.224 281.704 160.661 281.212 160.267C280.719 159.859 280.001 159.654 279.058 159.654C277.524 159.654 276.349 160.175 275.533 161.217L273.717 159.992C274.294 159.218 275.054 158.613 275.997 158.177C276.954 157.74 278.045 157.522 279.269 157.522C280.846 157.522 282.105 157.902 283.048 158.662C283.991 159.408 284.463 160.421 284.463 161.702C284.463 162.49 284.294 163.236 283.956 163.94C283.632 164.63 282.992 165.432 282.035 166.347L277.834 170.421H285.054V172.49ZM288.501 169.429C288.966 169.429 289.346 169.584 289.641 169.893C289.937 170.189 290.084 170.562 290.084 171.012C290.084 171.237 290.056 171.463 290 171.688C289.944 171.899 289.831 172.23 289.662 172.68L288.607 175.657H287.023L287.868 172.448C287.572 172.335 287.333 172.152 287.15 171.899C286.981 171.646 286.897 171.35 286.897 171.012C286.897 170.548 287.044 170.168 287.34 169.872C287.65 169.577 288.037 169.429 288.501 169.429ZM297.329 172.68C296.147 172.68 295.092 172.377 294.163 171.772C293.234 171.167 292.509 170.294 291.988 169.154C291.468 168.014 291.207 166.663 291.207 165.101C291.207 163.539 291.468 162.188 291.988 161.048C292.509 159.908 293.234 159.035 294.163 158.43C295.092 157.825 296.147 157.522 297.329 157.522C298.526 157.522 299.581 157.825 300.496 158.43C301.425 159.035 302.15 159.908 302.671 161.048C303.191 162.188 303.452 163.539 303.452 165.101C303.452 166.663 303.191 168.014 302.671 169.154C302.15 170.294 301.425 171.167 300.496 171.772C299.581 172.377 298.526 172.68 297.329 172.68ZM297.329 170.548C298.427 170.548 299.3 170.083 299.947 169.154C300.595 168.226 300.918 166.874 300.918 165.101C300.918 163.328 300.595 161.977 299.947 161.048C299.3 160.119 298.427 159.654 297.329 159.654C296.232 159.654 295.359 160.119 294.712 161.048C294.078 161.977 293.762 163.328 293.762 165.101C293.762 166.874 294.078 168.226 294.712 169.154C295.359 170.083 296.232 170.548 297.329 170.548ZM310.91 163.433C311.867 163.433 312.726 163.623 313.486 164.003C314.246 164.369 314.844 164.897 315.28 165.587C315.716 166.262 315.935 167.05 315.935 167.951C315.935 168.894 315.702 169.724 315.238 170.442C314.773 171.16 314.133 171.716 313.317 172.11C312.5 172.49 311.593 172.68 310.593 172.68C308.595 172.68 307.033 172.04 305.907 170.759C304.795 169.478 304.239 167.67 304.239 165.333C304.239 163.673 304.535 162.258 305.126 161.09C305.731 159.922 306.575 159.035 307.659 158.43C308.743 157.825 309.995 157.522 311.417 157.522C312.149 157.522 312.845 157.6 313.507 157.754C314.182 157.909 314.759 158.134 315.238 158.43L314.288 160.309C313.556 159.83 312.613 159.591 311.459 159.591C310.164 159.591 309.116 159.964 308.313 160.71C307.511 161.442 307.04 162.511 306.899 163.919C306.857 164.186 306.836 164.503 306.836 164.869C306.836 165.122 306.843 165.312 306.857 165.439C307.237 164.791 307.779 164.299 308.482 163.961C309.186 163.609 309.995 163.433 310.91 163.433ZM310.467 170.78C311.367 170.78 312.092 170.534 312.641 170.041C313.204 169.549 313.486 168.887 313.486 168.057C313.486 167.226 313.204 166.565 312.641 166.072C312.078 165.58 311.325 165.333 310.382 165.333C309.467 165.333 308.715 165.594 308.123 166.114C307.532 166.635 307.237 167.29 307.237 168.078C307.237 168.838 307.525 169.478 308.102 169.999C308.679 170.52 309.467 170.78 310.467 170.78ZM322.675 172.68C321.493 172.68 320.437 172.377 319.508 171.772C318.58 171.167 317.855 170.294 317.334 169.154C316.813 168.014 316.553 166.663 316.553 165.101C316.553 163.539 316.813 162.188 317.334 161.048C317.855 159.908 318.58 159.035 319.508 158.43C320.437 157.825 321.493 157.522 322.675 157.522C323.871 157.522 324.927 157.825 325.842 158.43C326.771 159.035 327.496 159.908 328.016 161.048C328.537 162.188 328.797 163.539 328.797 165.101C328.797 166.663 328.537 168.014 328.016 169.154C327.496 170.294 326.771 171.167 325.842 171.772C324.927 172.377 323.871 172.68 322.675 172.68ZM322.675 170.548C323.773 170.548 324.646 170.083 325.293 169.154C325.94 168.226 326.264 166.874 326.264 165.101C326.264 163.328 325.94 161.977 325.293 161.048C324.646 160.119 323.773 159.654 322.675 159.654C321.577 159.654 320.705 160.119 320.057 161.048C319.424 161.977 319.107 163.328 319.107 165.101C319.107 166.874 319.424 168.226 320.057 169.154C320.705 170.083 321.577 170.548 322.675 170.548ZM331.548 169.429C332.012 169.429 332.392 169.584 332.688 169.893C332.984 170.189 333.131 170.562 333.131 171.012C333.131 171.237 333.103 171.463 333.047 171.688C332.991 171.899 332.878 172.23 332.709 172.68L331.654 175.657H330.07L330.915 172.448C330.619 172.335 330.38 172.152 330.197 171.899C330.028 171.646 329.944 171.35 329.944 171.012C329.944 170.548 330.091 170.168 330.387 169.872C330.697 169.577 331.084 169.429 331.548 169.429ZM345.971 159.359L340.144 172.49H337.4L343.1 159.781H336.872V162.357H334.613V157.712H345.971V159.359ZM357.271 169.007V172.49H354.822V169.007H346.674V167.297L354.041 157.712H356.722L349.714 166.938H354.886V163.834H357.271V166.938H359.952V169.007H357.271ZM365.722 172.68C364.54 172.68 363.484 172.377 362.555 171.772C361.626 171.167 360.902 170.294 360.381 169.154C359.86 168.014 359.6 166.663 359.6 165.101C359.6 163.539 359.86 162.188 360.381 161.048C360.902 159.908 361.626 159.035 362.555 158.43C363.484 157.825 364.54 157.522 365.722 157.522C366.918 157.522 367.974 157.825 368.889 158.43C369.818 159.035 370.542 159.908 371.063 161.048C371.584 162.188 371.844 163.539 371.844 165.101C371.844 166.663 371.584 168.014 371.063 169.154C370.542 170.294 369.818 171.167 368.889 171.772C367.974 172.377 366.918 172.68 365.722 172.68ZM365.722 170.548C366.82 170.548 367.692 170.083 368.34 169.154C368.987 168.226 369.311 166.874 369.311 165.101C369.311 163.328 368.987 161.977 368.34 161.048C367.692 160.119 366.82 159.654 365.722 159.654C364.624 159.654 363.752 160.119 363.104 161.048C362.471 161.977 362.154 163.328 362.154 165.101C362.154 166.874 362.471 168.226 363.104 169.154C363.752 170.083 364.624 170.548 365.722 170.548ZM385.108 156.994H387.409V169.64H385.108V168.817H380.717V167.086H385.108V156.994ZM378.184 163.37C376.776 163.37 375.65 163.096 374.806 162.547C373.962 161.984 373.539 161.189 373.539 160.161C373.539 159.134 373.962 158.346 374.806 157.797C375.65 157.234 376.776 156.952 378.184 156.952C379.577 156.952 380.696 157.234 381.54 157.797C382.385 158.346 382.807 159.134 382.807 160.161C382.807 161.189 382.385 161.984 381.54 162.547C380.696 163.096 379.577 163.37 378.184 163.37ZM378.184 158.747C377.452 158.747 376.861 158.873 376.41 159.127C375.974 159.366 375.756 159.711 375.756 160.161C375.756 160.626 375.974 160.977 376.41 161.217C376.847 161.442 377.438 161.554 378.184 161.554C378.916 161.554 379.5 161.442 379.936 161.217C380.372 160.977 380.59 160.626 380.59 160.161C380.59 159.711 380.372 159.366 379.936 159.127C379.5 158.873 378.916 158.747 378.184 158.747ZM372.674 166.178V164.299H379.345C381.498 164.299 383.046 164.088 383.989 163.666V165.566C383.497 165.791 382.835 165.953 382.005 166.051C381.189 166.136 380.189 166.178 379.007 166.178V168.922H376.727V166.178H372.674ZM387.726 173.081H374.025V168.057H376.305V171.054H387.726V173.081Z" fill="black"/>
<rect x="0.794012" y="36.5484" width="401.813" height="163.93" rx="11.7093" stroke="#333333" stroke-width="1.23256"/>
<rect x="424.176" y="35.9321" width="403.045" height="165.162" rx="12.3256" fill="#01A69F"/>
<path d="M670.688 100.025V101.313H659.595V100.025H670.688ZM670.688 104.9V106.188H659.595V104.9H670.688Z" fill="white"/>
<path d="M674.385 159V160.287H663.292V159H674.385ZM674.385 163.875V165.163H663.292V163.875H674.385Z" fill="white"/>
<g clip-path="url(#clip3_6_5736)">
<path fill-rule="evenodd" clip-rule="evenodd" d="M601.383 128.569H603.177C603.163 123.196 605.164 118.041 608.097 113.652C611.41 108.699 615.927 104.708 620.066 102.49C615.927 100.268 611.41 96.2773 608.097 91.3247C605.164 86.9359 603.164 81.7806 603.178 76.4117H601.384C600.441 76.3937 599.543 76.0066 598.882 75.3333C598.222 74.6601 597.852 73.7546 597.852 72.8114C597.852 71.8683 598.222 70.9627 598.882 70.2895C599.543 69.6163 600.441 69.2291 601.384 69.2112H651.249C652.192 69.2291 653.09 69.6163 653.75 70.2895C654.411 70.9627 654.781 71.8683 654.781 72.8114C654.781 73.7546 654.411 74.6601 653.75 75.3333C653.09 76.0066 652.192 76.3937 651.249 76.4117H649.454C649.472 81.7805 647.468 86.9359 644.535 91.3247C641.222 96.2775 636.704 100.268 632.566 102.49C636.704 104.709 641.222 108.699 644.535 113.652C647.468 118.041 649.472 123.196 649.454 128.569H651.249C652.2 128.575 653.11 128.956 653.78 129.631C654.451 130.305 654.827 131.218 654.827 132.169C654.827 133.12 654.451 134.033 653.78 134.707C653.11 135.382 652.2 135.763 651.249 135.769H601.383C600.432 135.763 599.522 135.382 598.852 134.707C598.181 134.033 597.805 133.12 597.805 132.169C597.805 131.218 598.181 130.305 598.852 129.631C599.522 128.956 600.432 128.575 601.383 128.569ZM612.127 128.569C612.771 126.794 613.817 125.106 615.062 123.59C617.277 120.889 620.906 117.919 624.543 116.614L626.316 115.981L628.092 116.615C631.725 117.919 635.355 120.889 637.57 123.59C638.814 125.106 639.861 126.794 640.505 128.569H647.641C647.656 123.587 645.781 118.778 643.028 114.662C639.442 109.304 634.405 105.147 630.123 103.323C629.959 103.254 629.82 103.137 629.722 102.989C629.624 102.841 629.571 102.667 629.571 102.489C629.571 102.311 629.624 102.137 629.722 101.988C629.82 101.84 629.959 101.724 630.123 101.654C634.405 99.8341 639.442 95.6734 643.028 90.3154C645.781 86.203 647.656 81.3904 647.641 76.4121H604.991C604.976 81.3909 606.852 86.203 609.605 90.3154C613.19 95.6734 618.231 99.8337 622.509 101.654C622.673 101.724 622.813 101.84 622.911 101.988C623.009 102.137 623.061 102.311 623.061 102.489C623.061 102.667 623.009 102.841 622.911 102.989C622.813 103.137 622.673 103.254 622.509 103.323C618.231 105.147 613.19 109.304 609.605 114.662C606.852 118.778 604.977 123.587 604.991 128.569L612.127 128.569ZM622.631 96.3731C623.245 96.7205 623.753 97.2269 624.103 97.839C624.453 98.4511 624.632 99.1462 624.621 99.8512C624.591 107.265 627.985 106.871 628.011 99.9101C628.002 99.1945 628.188 98.49 628.548 97.8716C628.908 97.2532 629.43 96.744 630.056 96.3984C633.597 94.3901 636.313 91.8769 638.933 88.0814C618.039 87.4734 636.247 80.6857 610.338 81.1979C612.25 87.776 616.871 92.9829 622.631 96.3731ZM624.621 109.86C624.621 110.195 624.72 110.523 624.906 110.802C625.093 111.081 625.357 111.298 625.667 111.426C625.977 111.555 626.318 111.588 626.647 111.523C626.975 111.457 627.278 111.296 627.515 111.059C627.752 110.822 627.913 110.52 627.979 110.191C628.044 109.862 628.01 109.521 627.882 109.211C627.754 108.902 627.536 108.637 627.258 108.451C626.979 108.264 626.651 108.165 626.316 108.165C625.867 108.166 625.436 108.345 625.119 108.663C624.801 108.981 624.622 109.411 624.621 109.86Z" fill="white"/>
</g>
<path d="M608.095 168H606.828V157.4H604.095V156.333H608.095V168ZM621.083 168H612.883V167.15L617.716 162.383C618.327 161.783 618.739 161.267 618.95 160.833C619.161 160.4 619.266 159.956 619.266 159.5C619.266 158.822 619.033 158.289 618.566 157.9C618.1 157.511 617.433 157.317 616.566 157.317C615.2 157.317 614.155 157.761 613.433 158.65L612.516 157.983C612.961 157.417 613.533 156.983 614.233 156.683C614.944 156.372 615.755 156.217 616.666 156.217C617.844 156.217 618.783 156.506 619.483 157.083C620.194 157.65 620.55 158.422 620.55 159.4C620.55 160 620.411 160.578 620.133 161.133C619.866 161.678 619.366 162.306 618.633 163.017L614.716 166.917H621.083V168ZM634.138 168.567H632.971V162.2H630.671V168.35H629.521V155.833H630.671V161.017H632.971V155.767H634.138V168.567ZM627.821 156.267V159.633C627.821 161.233 627.61 162.644 627.188 163.867C626.777 165.089 626.193 166.039 625.438 166.717C624.682 167.394 623.81 167.733 622.821 167.733V166.55C623.599 166.539 624.277 166.244 624.855 165.667C625.432 165.089 625.877 164.289 626.188 163.267C626.51 162.233 626.671 161.044 626.671 159.7V157.417H622.821V156.267H627.821ZM639.903 160.25C638.825 160.25 637.964 160.05 637.319 159.65C636.686 159.25 636.369 158.711 636.369 158.033C636.369 157.356 636.686 156.817 637.319 156.417C637.964 156.017 638.825 155.817 639.903 155.817C640.969 155.817 641.819 156.017 642.453 156.417C643.097 156.817 643.419 157.356 643.419 158.033C643.419 158.711 643.097 159.25 642.453 159.65C641.819 160.05 640.969 160.25 639.903 160.25ZM644.086 158.683V157.55H645.886V155.767H647.086V162.717H645.886V158.683H644.086ZM639.903 156.783C639.192 156.783 638.619 156.9 638.186 157.133C637.764 157.356 637.553 157.656 637.553 158.033C637.553 158.422 637.764 158.733 638.186 158.967C638.619 159.189 639.192 159.3 639.903 159.3C640.614 159.3 641.181 159.189 641.603 158.967C642.036 158.733 642.253 158.422 642.253 158.033C642.253 157.656 642.036 157.356 641.603 157.133C641.169 156.9 640.603 156.783 639.903 156.783ZM647.419 168.367H636.869V165.5H645.886V164.367H636.836V163.467H639.203V162.167H635.719V161.183H640.636C642.603 161.183 643.986 161.011 644.786 160.667V161.65C644.408 161.817 643.853 161.944 643.119 162.033C642.386 162.122 641.542 162.167 640.586 162.167H640.403V163.467H647.086V166.317H638.053V167.467H647.419V168.367Z" fill="white"/>
<g clip-path="url(#clip4_6_5736)">
<path d="M486.883 126.291H512.299V129.606H486.883V126.291Z" fill="white"/>
<path d="M537.715 107.505C540.156 107.505 542.135 105.526 542.135 103.085C542.131 102.721 542.081 102.358 541.987 102.006C540.544 103.401 538.617 104.184 536.61 104.19H523.35V107.505H537.715Z" fill="white"/>
<path d="M486.883 120.766H512.299V124.081H486.883V120.766Z" fill="white"/>
<path d="M486.883 115.24H512.299V118.556H486.883V115.24Z" fill="white"/>
<path d="M512.299 99.7631V84.2991C510.149 86.2923 508.945 89.103 508.984 92.0344C508.964 94.96 510.166 97.7616 512.299 99.7631Z" fill="white"/>
<path d="M486.883 109.716H512.299V113.031H486.883V109.716Z" fill="white"/>
<path d="M523.35 84.2991V99.7698C525.485 97.7666 526.687 94.9622 526.665 92.0344C526.705 89.103 525.499 86.2915 523.35 84.2991Z" fill="white"/>
<path d="M533.295 82.0891H524.179C527.198 84.4995 528.932 88.171 528.875 92.0346C528.935 95.9 527.197 99.5737 524.172 101.98H536.61C538.251 101.974 539.805 101.24 540.854 99.9774C540.025 99.1375 538.895 98.6648 537.715 98.6648H534.4C533.79 98.6648 533.295 98.1703 533.295 97.5598V82.0891Z" fill="white"/>
<path d="M538.886 96.5653C538.92 96.5719 538.955 96.5753 538.987 96.5805C539.345 96.6532 539.695 96.7534 540.036 96.8827L540.174 96.9333C540.497 97.064 540.81 97.2198 541.109 97.4007L541.251 97.4869C541.541 97.6704 541.817 97.8773 542.075 98.1038C542.095 98.1201 542.117 98.1323 542.136 98.1488V69.9336C542.136 67.4926 540.157 65.5134 537.715 65.5134H535.505V96.4548H537.715C538.108 96.457 538.5 96.494 538.886 96.5653Z" fill="white"/>
<path d="M523.35 76.5637H533.295V79.8789H523.35V76.5637Z" fill="white"/>
<path d="M523.35 126.291H548.766V129.606H523.35V126.291Z" fill="white"/>
<path d="M523.35 115.24H548.766V118.556H523.35V115.24Z" fill="white"/>
<path d="M514.509 76.5637H521.14V107.505H514.509V76.5637Z" fill="white"/>
<path d="M523.35 120.766H548.766V124.081H523.35V120.766Z" fill="white"/>
<path d="M532.19 109.716H523.35V113.031H548.766V109.716H532.19Z" fill="white"/>
<path d="M544.345 76.5637V103.085C544.345 104.718 543.738 106.293 542.644 107.505H548.766V76.5637H544.345Z" fill="white"/>
<path d="M486.883 107.505H512.299V104.19H495.723C495.113 104.19 494.618 103.695 494.618 103.085C494.618 101.254 493.134 99.7698 491.303 99.7698C490.692 99.7698 490.198 99.2752 490.198 98.6647V85.4041C490.198 84.7936 490.692 84.2991 491.303 84.2991C493.134 84.2991 494.618 82.8144 494.618 80.9839C494.618 80.3734 495.113 79.8789 495.723 79.8789H512.299V76.5637H486.883V107.505Z" fill="white"/>
<path d="M511.471 82.0891H496.718C496.272 84.2578 494.577 85.9526 492.408 86.3988V97.6703C494.577 98.1165 496.272 99.8113 496.718 101.98H511.477C508.451 99.5737 506.713 95.9 506.774 92.0346C506.716 88.171 508.45 84.4981 511.471 82.0891ZM499.038 96.4547C496.597 96.4547 494.618 94.4756 494.618 92.0346C494.618 89.5935 496.597 87.6144 499.038 87.6144C501.48 87.6144 503.459 89.5935 503.459 92.0346C503.459 94.4756 501.48 96.4547 499.038 96.4547Z" fill="white"/>
<path d="M501.249 92.0348C501.249 93.2556 500.26 94.2449 499.039 94.2449C497.818 94.2449 496.829 93.2556 496.829 92.0348C496.829 90.814 497.818 89.8247 499.039 89.8247C500.26 89.8247 501.249 90.814 501.249 92.0348Z" fill="white"/>
<path d="M514.509 109.716H521.14V129.606H514.509V109.716Z" fill="white"/>
</g>
<path d="M469.938 170H459.15V168.353L465.061 162.632C465.751 161.957 466.215 161.38 466.454 160.901C466.708 160.423 466.834 159.944 466.834 159.466C466.834 158.734 466.588 158.171 466.095 157.777C465.603 157.369 464.885 157.164 463.942 157.164C462.408 157.164 461.233 157.685 460.416 158.727L458.601 157.502C459.178 156.728 459.938 156.123 460.881 155.687C461.838 155.25 462.929 155.032 464.153 155.032C465.729 155.032 466.989 155.412 467.932 156.172C468.875 156.918 469.346 157.931 469.346 159.212C469.346 160 469.178 160.746 468.84 161.45C468.516 162.14 467.876 162.942 466.919 163.857L462.718 167.931H469.938V170ZM473.385 166.939C473.849 166.939 474.229 167.094 474.525 167.403C474.82 167.699 474.968 168.072 474.968 168.522C474.968 168.747 474.94 168.973 474.884 169.198C474.827 169.409 474.715 169.74 474.546 170.19L473.49 173.167H471.907L472.752 169.958C472.456 169.845 472.217 169.662 472.034 169.409C471.865 169.156 471.78 168.86 471.78 168.522C471.78 168.058 471.928 167.678 472.224 167.382C472.533 167.087 472.92 166.939 473.385 166.939ZM482.213 170.19C481.031 170.19 479.975 169.887 479.047 169.282C478.118 168.677 477.393 167.804 476.872 166.664C476.351 165.524 476.091 164.173 476.091 162.611C476.091 161.049 476.351 159.698 476.872 158.558C477.393 157.418 478.118 156.545 479.047 155.94C479.975 155.335 481.031 155.032 482.213 155.032C483.41 155.032 484.465 155.335 485.38 155.94C486.309 156.545 487.034 157.418 487.554 158.558C488.075 159.698 488.335 161.049 488.335 162.611C488.335 164.173 488.075 165.524 487.554 166.664C487.034 167.804 486.309 168.677 485.38 169.282C484.465 169.887 483.41 170.19 482.213 170.19ZM482.213 168.058C483.311 168.058 484.184 167.593 484.831 166.664C485.478 165.736 485.802 164.384 485.802 162.611C485.802 160.838 485.478 159.487 484.831 158.558C484.184 157.629 483.311 157.164 482.213 157.164C481.115 157.164 480.243 157.629 479.595 158.558C478.962 159.487 478.645 160.838 478.645 162.611C478.645 164.384 478.962 165.736 479.595 166.664C480.243 167.593 481.115 168.058 482.213 168.058ZM495.794 160.943C496.751 160.943 497.609 161.133 498.369 161.513C499.129 161.879 499.728 162.407 500.164 163.097C500.6 163.772 500.818 164.56 500.818 165.461C500.818 166.404 500.586 167.234 500.122 167.952C499.657 168.67 499.017 169.226 498.201 169.62C497.384 170 496.476 170.19 495.477 170.19C493.479 170.19 491.916 169.55 490.791 168.269C489.679 166.988 489.123 165.18 489.123 162.843C489.123 161.183 489.418 159.768 490.009 158.6C490.615 157.432 491.459 156.545 492.543 155.94C493.626 155.335 494.879 155.032 496.301 155.032C497.032 155.032 497.729 155.11 498.391 155.264C499.066 155.419 499.643 155.644 500.122 155.94L499.172 157.819C498.44 157.34 497.497 157.101 496.343 157.101C495.048 157.101 493.999 157.474 493.197 158.22C492.395 158.952 491.923 160.021 491.783 161.429C491.741 161.696 491.719 162.013 491.719 162.379C491.719 162.632 491.726 162.822 491.741 162.949C492.121 162.301 492.662 161.809 493.366 161.471C494.07 161.119 494.879 160.943 495.794 160.943ZM495.351 168.29C496.251 168.29 496.976 168.044 497.525 167.551C498.088 167.059 498.369 166.397 498.369 165.567C498.369 164.736 498.088 164.075 497.525 163.582C496.962 163.09 496.209 162.843 495.266 162.843C494.351 162.843 493.598 163.104 493.007 163.624C492.416 164.145 492.121 164.8 492.121 165.588C492.121 166.348 492.409 166.988 492.986 167.509C493.563 168.03 494.351 168.29 495.351 168.29ZM507.559 170.19C506.377 170.19 505.321 169.887 504.392 169.282C503.463 168.677 502.739 167.804 502.218 166.664C501.697 165.524 501.437 164.173 501.437 162.611C501.437 161.049 501.697 159.698 502.218 158.558C502.739 157.418 503.463 156.545 504.392 155.94C505.321 155.335 506.377 155.032 507.559 155.032C508.755 155.032 509.811 155.335 510.726 155.94C511.654 156.545 512.379 157.418 512.9 158.558C513.421 159.698 513.681 161.049 513.681 162.611C513.681 164.173 513.421 165.524 512.9 166.664C512.379 167.804 511.654 168.677 510.726 169.282C509.811 169.887 508.755 170.19 507.559 170.19ZM507.559 168.058C508.657 168.058 509.529 167.593 510.177 166.664C510.824 165.736 511.148 164.384 511.148 162.611C511.148 160.838 510.824 159.487 510.177 158.558C509.529 157.629 508.657 157.164 507.559 157.164C506.461 157.164 505.589 157.629 504.941 158.558C504.308 159.487 503.991 160.838 503.991 162.611C503.991 164.384 504.308 165.736 504.941 166.664C505.589 167.593 506.461 168.058 507.559 168.058ZM516.432 166.939C516.896 166.939 517.276 167.094 517.572 167.403C517.867 167.699 518.015 168.072 518.015 168.522C518.015 168.747 517.987 168.973 517.931 169.198C517.874 169.409 517.762 169.74 517.593 170.19L516.537 173.167H514.954L515.798 169.958C515.503 169.845 515.264 169.662 515.081 169.409C514.912 169.156 514.827 168.86 514.827 168.522C514.827 168.058 514.975 167.678 515.271 167.382C515.58 167.087 515.967 166.939 516.432 166.939ZM530.855 156.869L525.028 170H522.283L527.983 157.291H521.756V159.867H519.497V155.222H530.855V156.869ZM542.155 166.517V170H539.706V166.517H531.557V164.807L538.925 155.222H541.606L534.597 164.448H539.77V161.344H542.155V164.448H544.836V166.517H542.155ZM550.606 170.19C549.424 170.19 548.368 169.887 547.439 169.282C546.51 168.677 545.785 167.804 545.265 166.664C544.744 165.524 544.484 164.173 544.484 162.611C544.484 161.049 544.744 159.698 545.265 158.558C545.785 157.418 546.51 156.545 547.439 155.94C548.368 155.335 549.424 155.032 550.606 155.032C551.802 155.032 552.858 155.335 553.772 155.94C554.701 156.545 555.426 157.418 555.947 158.558C556.468 159.698 556.728 161.049 556.728 162.611C556.728 164.173 556.468 165.524 555.947 166.664C555.426 167.804 554.701 168.677 553.772 169.282C552.858 169.887 551.802 170.19 550.606 170.19ZM550.606 168.058C551.704 168.058 552.576 167.593 553.224 166.664C553.871 165.736 554.195 164.384 554.195 162.611C554.195 160.838 553.871 159.487 553.224 158.558C552.576 157.629 551.704 157.164 550.606 157.164C549.508 157.164 548.635 157.629 547.988 158.558C547.355 159.487 547.038 160.838 547.038 162.611C547.038 164.384 547.355 165.736 547.988 166.664C548.635 167.593 549.508 168.058 550.606 168.058ZM569.992 154.504H572.293V167.15H569.992V166.327H565.601V164.596H569.992V154.504ZM563.068 160.88C561.66 160.88 560.534 160.606 559.69 160.057C558.845 159.494 558.423 158.699 558.423 157.671C558.423 156.644 558.845 155.856 559.69 155.307C560.534 154.744 561.66 154.462 563.068 154.462C564.461 154.462 565.58 154.744 566.424 155.307C567.269 155.856 567.691 156.644 567.691 157.671C567.691 158.699 567.269 159.494 566.424 160.057C565.58 160.606 564.461 160.88 563.068 160.88ZM563.068 156.257C562.336 156.257 561.745 156.383 561.294 156.637C560.858 156.876 560.64 157.221 560.64 157.671C560.64 158.136 560.858 158.487 561.294 158.727C561.73 158.952 562.322 159.064 563.068 159.064C563.799 159.064 564.383 158.952 564.82 158.727C565.256 158.487 565.474 158.136 565.474 157.671C565.474 157.221 565.256 156.876 564.82 156.637C564.383 156.383 563.799 156.257 563.068 156.257ZM557.558 163.688V161.809H564.229C566.382 161.809 567.93 161.598 568.873 161.176V163.076C568.38 163.301 567.719 163.463 566.889 163.561C566.072 163.646 565.073 163.688 563.891 163.688V166.432H561.611V163.688H557.558ZM572.61 170.591H558.909V165.567H561.189V168.564H572.61V170.591Z" fill="white"/>
<path d="M577.606 103.535L573.908 108.653H572.083L576.693 102.337L572.294 96.3271H574.166L577.63 101.093L581.117 96.3271H582.919L578.519 102.314L583.176 108.653H581.257L577.606 103.535Z" fill="white"/>
<path d="M588.709 162.325L586.655 165.395H585.641L588.202 161.606L585.758 158H586.798L588.723 160.86L590.66 158H591.661L589.217 161.592L591.804 165.395H590.738L588.709 162.325Z" fill="white"/>
<g clip-path="url(#clip5_6_5736)">
<path fill-rule="evenodd" clip-rule="evenodd" d="M769.153 140.699C763.844 140.699 759.877 138.519 759.877 136.581V132.208C760.242 132.461 760.624 132.688 761.021 132.887C763.222 134.025 766.108 134.643 769.152 134.643C772.196 134.643 775.084 134.025 777.285 132.887C777.681 132.688 778.063 132.462 778.427 132.208V136.581C778.427 138.519 774.461 140.699 769.152 140.699H769.153ZM769.153 123.705C774.462 123.705 778.427 125.873 778.427 127.823C778.427 129.762 774.462 131.93 769.153 131.93C763.844 131.93 759.877 129.761 759.877 127.823C759.877 125.873 763.844 123.705 769.152 123.705H769.153ZM781.141 136.314C784.453 135.551 786.379 133.964 786.379 132.644V111.169C786.028 111.399 785.649 111.629 785.236 111.847C783.037 112.973 780.147 113.603 777.104 113.603C774.062 113.603 771.173 112.973 768.972 111.847C768.558 111.629 768.179 111.399 767.83 111.169V121.028C768.267 121.004 768.708 120.992 769.154 120.992C772.199 120.992 775.085 121.61 777.286 122.748C779.773 124.02 781.142 125.825 781.142 127.823C781.142 127.86 781.138 127.896 781.136 127.933C781.14 127.965 781.142 127.997 781.142 128.029V136.314H781.141ZM786.379 106.771C786.379 108.709 782.411 110.89 777.104 110.89C771.796 110.89 767.829 108.709 767.829 106.771C767.829 104.833 771.793 102.665 777.104 102.665C782.414 102.665 786.379 104.833 786.379 106.771ZM751.033 83.358C750.339 82.9452 749.795 82.3213 749.481 81.5774C743.188 80.8627 736.401 80.8546 729.119 81.5532C728.96 81.8022 728.776 82.0336 728.568 82.2436C722.635 88.1909 717.696 94.1988 714.662 99.1647C708.529 109.654 705.974 124.456 714.089 133.892C715.843 135.933 718.008 137.582 720.443 138.73C722.877 139.878 725.527 140.499 728.218 140.554C736.187 140.748 743.928 140.748 751.89 140.554C754.027 140.509 756.141 140.107 758.146 139.367C757.52 138.572 757.174 137.592 757.165 136.581V128.029C757.165 127.993 757.167 127.969 757.17 127.933C757.172 127.896 757.165 127.86 757.165 127.823C757.165 125.825 758.534 124.02 761.022 122.748C762.314 122.099 763.693 121.638 765.116 121.38V106.99C765.116 106.953 765.118 106.917 765.12 106.893C765.119 106.844 765.116 106.808 765.116 106.772C765.116 105.294 765.878 103.913 767.3 102.774C763.54 94.4409 757.498 87.2219 751.033 83.358ZM722.675 63.8202C726.055 64.2199 731.621 65.6855 739.279 68.1807C739.466 68.2407 739.664 68.2598 739.859 68.2368C740.055 68.2138 740.243 68.1492 740.411 68.0474C751.231 61.3733 756.323 59.5929 758.712 59.3506C757.916 61.3249 755.679 66.2303 749.57 78.3069C749.488 78.4798 749.417 78.6578 749.357 78.8399C743.218 78.1736 736.641 78.1533 729.624 78.7792C729.559 78.4569 729.454 78.1438 729.314 77.8466C726.273 71.5238 724.048 66.8119 722.675 63.8202ZM720.26 113.446C720.26 108.254 722.323 103.275 725.994 99.6044C729.665 95.9335 734.643 93.8712 739.835 93.8712C745.026 93.8712 750.005 95.9335 753.676 99.6044C757.347 103.275 759.409 108.254 759.409 113.446C759.409 124.25 750.629 133.032 739.835 133.032C729.041 133.032 720.26 124.25 720.26 113.446ZM739.835 96.5849C743.171 96.5839 746.433 97.5725 749.208 99.4255C751.982 101.279 754.145 103.913 755.422 106.995C756.699 110.077 757.034 113.469 756.383 116.742C755.732 120.014 754.125 123.02 751.766 125.379C749.407 127.738 746.401 129.345 743.128 129.995C739.856 130.646 736.464 130.311 733.382 129.034C730.3 127.756 727.666 125.593 725.813 122.819C723.96 120.044 722.972 116.782 722.973 113.446C722.979 108.976 724.758 104.69 727.918 101.53C731.079 98.3689 735.365 96.5907 739.835 96.5849ZM735.597 118.618C735.597 120.289 736.805 121.719 738.478 122.227V114.681C735.294 114.088 732.885 111.447 732.885 108.286C732.885 105.124 735.294 102.484 738.478 101.89V99.9518C738.476 99.7724 738.509 99.5944 738.577 99.4281C738.644 99.2618 738.743 99.1105 738.87 98.983C738.996 98.8555 739.146 98.7542 739.312 98.6851C739.477 98.616 739.655 98.5804 739.834 98.5804C740.014 98.5804 740.191 98.616 740.357 98.6851C740.522 98.7542 740.673 98.8555 740.799 98.983C740.925 99.1105 741.024 99.2618 741.092 99.4281C741.159 99.5944 741.193 99.7724 741.191 99.9518V101.89C744.376 102.484 746.786 105.124 746.786 108.286C746.786 108.646 746.643 108.991 746.388 109.245C746.134 109.499 745.789 109.642 745.429 109.642C745.069 109.642 744.724 109.499 744.47 109.245C744.215 108.991 744.072 108.646 744.072 108.286C744.072 106.614 742.866 105.185 741.191 104.676V112.223C744.376 112.817 746.786 115.457 746.786 118.619C746.786 121.78 744.376 124.421 741.191 125.014V126.952C741.193 127.132 741.159 127.31 741.092 127.476C741.024 127.642 740.925 127.794 740.799 127.921C740.673 128.049 740.522 128.15 740.357 128.219C740.191 128.288 740.014 128.324 739.834 128.324C739.655 128.324 739.477 128.288 739.312 128.219C739.146 128.15 738.996 128.049 738.87 127.921C738.743 127.794 738.644 127.642 738.577 127.476C738.509 127.31 738.476 127.132 738.478 126.952V125.014C735.294 124.421 732.885 121.78 732.885 118.619C732.883 118.439 732.917 118.261 732.984 118.095C733.051 117.929 733.151 117.778 733.277 117.65C733.403 117.523 733.553 117.422 733.718 117.352C733.884 117.283 734.061 117.248 734.241 117.248C734.42 117.248 734.598 117.283 734.763 117.352C734.929 117.422 735.079 117.523 735.205 117.65C735.331 117.778 735.431 117.929 735.498 118.095C735.565 118.261 735.599 118.439 735.597 118.619L735.597 118.618ZM744.072 118.618C744.072 120.289 742.866 121.719 741.191 122.227V115.008C742.866 115.516 744.072 116.946 744.072 118.617V118.618ZM735.597 108.286C735.597 106.614 736.805 105.185 738.478 104.676V111.895C736.805 111.387 735.597 109.957 735.597 108.286ZM753.254 77.0344C758.77 76.2592 763.677 74.0184 768.428 71.8502C768.59 71.7761 768.764 71.7345 768.942 71.7279C769.119 71.7212 769.296 71.7496 769.463 71.8114C769.63 71.8732 769.782 71.9672 769.912 72.088C770.043 72.2088 770.148 72.3541 770.222 72.5156C770.296 72.677 770.338 72.8515 770.344 73.029C770.351 73.2065 770.322 73.3836 770.261 73.5501C770.199 73.7166 770.105 73.8694 769.984 73.9996C769.863 74.1298 769.718 74.235 769.557 74.309C764.889 76.4409 760.078 78.6455 754.578 79.5781C761.572 80.8136 767.921 82.9576 773.583 85.9978C773.899 86.1699 774.134 86.46 774.238 86.8049C774.341 87.1498 774.304 87.5215 774.134 87.839C774.019 88.0558 773.846 88.2371 773.636 88.3631C773.425 88.4891 773.184 88.5551 772.938 88.5539C772.713 88.5567 772.492 88.4981 772.298 88.3844C766.964 85.5137 760.975 83.4908 754.371 82.2917C753.331 81.6738 752.298 81.045 751.271 80.4051C751.978 79.31 752.638 78.1864 753.254 77.0344Z" fill="white"/>
</g>
<path d="M691.755 170H680.199V167.956L686.31 162.133C686.992 161.467 687.451 160.904 687.688 160.444C687.925 159.97 688.043 159.496 688.043 159.022C688.043 158.326 687.806 157.793 687.332 157.422C686.873 157.037 686.192 156.844 685.288 156.844C683.777 156.844 682.621 157.378 681.821 158.444L679.555 156.956C680.162 156.096 680.984 155.422 682.021 154.933C683.058 154.444 684.243 154.2 685.577 154.2C686.703 154.2 687.688 154.385 688.532 154.756C689.377 155.111 690.029 155.63 690.488 156.311C690.962 156.993 691.199 157.793 691.199 158.711C691.199 159.541 691.014 160.326 690.643 161.067C690.288 161.807 689.606 162.652 688.599 163.6L684.621 167.444H691.755V170ZM703.961 166.533V170H700.917V166.533H692.45V164.422L699.983 154.444H703.272L696.205 163.978H701.005V160.889H703.961V163.978H706.628V166.533H703.961ZM708.804 166.311C709.352 166.311 709.804 166.489 710.159 166.844C710.515 167.2 710.693 167.659 710.693 168.222C710.693 168.504 710.656 168.778 710.582 169.044C710.522 169.311 710.389 169.696 710.182 170.2L708.982 173.378H707.071L707.982 169.911C707.641 169.793 707.374 169.585 707.182 169.289C706.989 168.978 706.893 168.622 706.893 168.222C706.893 167.659 707.071 167.2 707.426 166.844C707.796 166.489 708.256 166.311 708.804 166.311ZM724.24 156.467L718.284 170H714.884L720.662 157H714.817V159.622H712.017V154.444H724.24V156.467ZM737.38 170H725.824V167.956L731.935 162.133C732.617 161.467 733.076 160.904 733.313 160.444C733.55 159.97 733.668 159.496 733.668 159.022C733.668 158.326 733.431 157.793 732.957 157.422C732.498 157.037 731.817 156.844 730.913 156.844C729.402 156.844 728.246 157.378 727.446 158.444L725.18 156.956C725.787 156.096 726.609 155.422 727.646 154.933C728.683 154.444 729.868 154.2 731.202 154.2C732.328 154.2 733.313 154.385 734.157 154.756C735.002 155.111 735.654 155.63 736.113 156.311C736.587 156.993 736.824 157.793 736.824 158.711C736.824 159.541 736.639 160.326 736.268 161.067C735.913 161.807 735.231 162.652 734.224 163.6L730.246 167.444H737.38V170ZM748.742 161.822C749.571 162.178 750.208 162.674 750.653 163.311C751.097 163.948 751.319 164.689 751.319 165.533C751.319 166.481 751.053 167.311 750.519 168.022C750.001 168.733 749.253 169.281 748.275 169.667C747.297 170.052 746.164 170.244 744.875 170.244C743.586 170.244 742.46 170.052 741.497 169.667C740.534 169.281 739.786 168.733 739.253 168.022C738.734 167.311 738.475 166.481 738.475 165.533C738.475 164.674 738.697 163.933 739.142 163.311C739.586 162.674 740.223 162.178 741.053 161.822C740.401 161.481 739.897 161.037 739.542 160.489C739.201 159.941 739.03 159.304 739.03 158.578C739.03 157.689 739.275 156.919 739.764 156.267C740.253 155.6 740.934 155.089 741.808 154.733C742.697 154.378 743.719 154.2 744.875 154.2C746.045 154.2 747.075 154.378 747.964 154.733C748.853 155.089 749.542 155.6 750.03 156.267C750.519 156.919 750.764 157.689 750.764 158.578C750.764 159.289 750.586 159.926 750.23 160.489C749.89 161.037 749.393 161.481 748.742 161.822ZM744.875 156.511C744.03 156.511 743.364 156.704 742.875 157.089C742.386 157.474 742.142 158.007 742.142 158.689C742.142 159.341 742.386 159.859 742.875 160.244C743.364 160.63 744.03 160.822 744.875 160.822C745.734 160.822 746.416 160.63 746.919 160.244C747.423 159.859 747.675 159.341 747.675 158.689C747.675 158.022 747.416 157.496 746.897 157.111C746.393 156.711 745.719 156.511 744.875 156.511ZM744.875 167.911C745.897 167.911 746.697 167.689 747.275 167.244C747.868 166.8 748.164 166.2 748.164 165.444C748.164 164.689 747.868 164.096 747.275 163.667C746.697 163.222 745.897 163 744.875 163C743.868 163 743.075 163.222 742.497 163.667C741.919 164.096 741.63 164.689 741.63 165.444C741.63 166.2 741.919 166.8 742.497 167.244C743.09 167.689 743.882 167.911 744.875 167.911ZM754.37 166.311C754.918 166.311 755.37 166.489 755.726 166.844C756.081 167.2 756.259 167.659 756.259 168.222C756.259 168.504 756.222 168.778 756.148 169.044C756.089 169.311 755.955 169.696 755.748 170.2L754.548 173.378H752.637L753.548 169.911C753.207 169.793 752.941 169.585 752.748 169.289C752.555 168.978 752.459 168.622 752.459 168.222C752.459 167.659 752.637 167.2 752.993 166.844C753.363 166.489 753.822 166.311 754.37 166.311ZM767.628 161.822C768.458 162.178 769.095 162.674 769.539 163.311C769.984 163.948 770.206 164.689 770.206 165.533C770.206 166.481 769.939 167.311 769.406 168.022C768.888 168.733 768.139 169.281 767.162 169.667C766.184 170.052 765.051 170.244 763.762 170.244C762.473 170.244 761.347 170.052 760.384 169.667C759.421 169.281 758.673 168.733 758.139 168.022C757.621 167.311 757.362 166.481 757.362 165.533C757.362 164.674 757.584 163.933 758.028 163.311C758.473 162.674 759.11 162.178 759.939 161.822C759.288 161.481 758.784 161.037 758.428 160.489C758.088 159.941 757.917 159.304 757.917 158.578C757.917 157.689 758.162 156.919 758.651 156.267C759.139 155.6 759.821 155.089 760.695 154.733C761.584 154.378 762.606 154.2 763.762 154.2C764.932 154.2 765.962 154.378 766.851 154.733C767.739 155.089 768.428 155.6 768.917 156.267C769.406 156.919 769.651 157.689 769.651 158.578C769.651 159.289 769.473 159.926 769.117 160.489C768.776 161.037 768.28 161.481 767.628 161.822ZM763.762 156.511C762.917 156.511 762.251 156.704 761.762 157.089C761.273 157.474 761.028 158.007 761.028 158.689C761.028 159.341 761.273 159.859 761.762 160.244C762.251 160.63 762.917 160.822 763.762 160.822C764.621 160.822 765.302 160.63 765.806 160.244C766.31 159.859 766.562 159.341 766.562 158.689C766.562 158.022 766.302 157.496 765.784 157.111C765.28 156.711 764.606 156.511 763.762 156.511ZM763.762 167.911C764.784 167.911 765.584 167.689 766.162 167.244C766.754 166.8 767.051 166.2 767.051 165.444C767.051 164.689 766.754 164.096 766.162 163.667C765.584 163.222 764.784 163 763.762 163C762.754 163 761.962 163.222 761.384 163.667C760.806 164.096 760.517 164.689 760.517 165.444C760.517 166.2 760.806 166.8 761.384 167.244C761.976 167.689 762.769 167.911 763.762 167.911ZM780.968 161.822C781.798 162.178 782.435 162.674 782.879 163.311C783.324 163.948 783.546 164.689 783.546 165.533C783.546 166.481 783.279 167.311 782.746 168.022C782.227 168.733 781.479 169.281 780.501 169.667C779.524 170.052 778.39 170.244 777.101 170.244C775.813 170.244 774.687 170.052 773.724 169.667C772.761 169.281 772.013 168.733 771.479 168.022C770.961 167.311 770.701 166.481 770.701 165.533C770.701 164.674 770.924 163.933 771.368 163.311C771.813 162.674 772.45 162.178 773.279 161.822C772.627 161.481 772.124 161.037 771.768 160.489C771.427 159.941 771.257 159.304 771.257 158.578C771.257 157.689 771.501 156.919 771.99 156.267C772.479 155.6 773.161 155.089 774.035 154.733C774.924 154.378 775.946 154.2 777.101 154.2C778.272 154.2 779.301 154.378 780.19 154.733C781.079 155.089 781.768 155.6 782.257 156.267C782.746 156.919 782.99 157.689 782.99 158.578C782.99 159.289 782.813 159.926 782.457 160.489C782.116 161.037 781.62 161.481 780.968 161.822ZM777.101 156.511C776.257 156.511 775.59 156.704 775.101 157.089C774.613 157.474 774.368 158.007 774.368 158.689C774.368 159.341 774.613 159.859 775.101 160.244C775.59 160.63 776.257 160.822 777.101 160.822C777.961 160.822 778.642 160.63 779.146 160.244C779.65 159.859 779.901 159.341 779.901 158.689C779.901 158.022 779.642 157.496 779.124 157.111C778.62 156.711 777.946 156.511 777.101 156.511ZM777.101 167.911C778.124 167.911 778.924 167.689 779.501 167.244C780.094 166.8 780.39 166.2 780.39 165.444C780.39 164.689 780.094 164.096 779.501 163.667C778.924 163.222 778.124 163 777.101 163C776.094 163 775.301 163.222 774.724 163.667C774.146 164.096 773.857 164.689 773.857 165.444C773.857 166.2 774.146 166.8 774.724 167.244C775.316 167.689 776.109 167.911 777.101 167.911ZM790.464 170.244C789.204 170.244 788.078 169.926 787.086 169.289C786.093 168.652 785.315 167.733 784.752 166.533C784.189 165.319 783.908 163.881 783.908 162.222C783.908 160.563 784.189 159.133 784.752 157.933C785.315 156.719 786.093 155.793 787.086 155.156C788.078 154.519 789.204 154.2 790.464 154.2C791.738 154.2 792.871 154.519 793.864 155.156C794.856 155.793 795.627 156.719 796.175 157.933C796.738 159.133 797.019 160.563 797.019 162.222C797.019 163.881 796.738 165.319 796.175 166.533C795.627 167.733 794.856 168.652 793.864 169.289C792.871 169.926 791.738 170.244 790.464 170.244ZM790.464 167.578C791.515 167.578 792.345 167.133 792.952 166.244C793.575 165.341 793.886 164 793.886 162.222C793.886 160.444 793.575 159.111 792.952 158.222C792.345 157.319 791.515 156.867 790.464 156.867C789.427 156.867 788.597 157.319 787.975 158.222C787.367 159.111 787.064 160.444 787.064 162.222C787.064 164 787.367 165.341 787.975 166.244C788.597 167.133 789.427 167.578 790.464 167.578ZM810.603 153.689H813.403V166.956H810.603V166.289H806.181V164.222H810.603V153.689ZM803.559 160.444C802.063 160.444 800.863 160.148 799.959 159.556C799.055 158.963 798.603 158.111 798.603 157C798.603 155.904 799.055 155.059 799.959 154.467C800.863 153.874 802.063 153.578 803.559 153.578C805.04 153.578 806.226 153.874 807.114 154.467C808.018 155.059 808.47 155.904 808.47 157C808.47 158.096 808.018 158.948 807.114 159.556C806.226 160.148 805.04 160.444 803.559 160.444ZM803.559 155.756C802.877 155.756 802.337 155.867 801.937 156.089C801.537 156.296 801.337 156.6 801.337 157C801.337 157.415 801.537 157.726 801.937 157.933C802.337 158.141 802.877 158.244 803.559 158.244C804.226 158.244 804.752 158.141 805.137 157.933C805.537 157.726 805.737 157.415 805.737 157C805.737 156.6 805.537 156.296 805.137 156.089C804.752 155.867 804.226 155.756 803.559 155.756ZM797.759 163.511V161.2H805.003C807.107 161.2 808.618 160.985 809.537 160.556V162.867C808.603 163.296 806.966 163.511 804.626 163.511V166.244H801.826V163.511H797.759ZM813.692 170.689H799.092V165.333H801.914V168.2H813.692V170.689Z" fill="#FAE100"/>
<rect x="423.692" y="100.025" width="23.7177" height="23.7177" transform="rotate(45 423.692 100.025)" fill="white"/>
<path d="M157.945 14.9788L827.222 14.9788" stroke="#01A69F" stroke-width="3.69766" stroke-linecap="round"/>
<path d="M17.9167 22.188H14V5.88243H9.94444V2.74354H17.9167V22.188ZM40.0915 17.6047V1.7991H43.6193V17.6047H40.0915ZM30.8137 1.88243C32.1285 1.88243 33.2767 2.15095 34.2581 2.68799C35.2581 3.20651 36.0267 3.94725 36.5637 4.91021C37.1192 5.87317 37.397 6.97503 37.397 8.21577C37.397 9.47502 37.1192 10.5861 36.5637 11.5491C36.0267 12.4935 35.2581 13.2343 34.2581 13.7713C33.2767 14.2898 32.1285 14.5491 30.8137 14.5491C29.4989 14.5491 28.3415 14.2898 27.3415 13.7713C26.3415 13.2343 25.5637 12.4935 25.0081 11.5491C24.4711 10.5861 24.2026 9.47502 24.2026 8.21577C24.2026 6.97503 24.4711 5.87317 25.0081 4.91021C25.5637 3.94725 26.3415 3.20651 27.3415 2.68799C28.3415 2.15095 29.4989 1.88243 30.8137 1.88243ZM30.8137 4.96577C29.8878 4.96577 29.1378 5.2528 28.5637 5.82688C28.0081 6.40095 27.7304 7.19725 27.7304 8.21577C27.7304 9.23428 28.0081 10.0306 28.5637 10.6047C29.1378 11.1787 29.8878 11.4658 30.8137 11.4658C31.7396 11.4658 32.4896 11.1787 33.0637 10.6047C33.6378 10.0121 33.9248 9.21577 33.9248 8.21577C33.9248 7.21577 33.6378 6.42873 33.0637 5.85465C32.4896 5.26206 31.7396 4.96577 30.8137 4.96577ZM43.9804 19.7435V23.0491H25.9804V15.7158H29.5637V19.7435H43.9804ZM67.5817 23.1324V1.7991H71.1095V23.1324H67.5817ZM64.1095 7.96577C64.1095 10.8176 63.6373 13.3084 62.6928 15.438C61.7484 17.5491 60.3965 19.1787 58.6373 20.3269C56.8965 21.4565 54.8595 22.0213 52.5262 22.0213V18.5213C54.2113 18.5213 55.6465 18.0954 56.8317 17.2435C58.0169 16.3917 58.915 15.1787 59.5262 13.6047C60.1558 12.0121 60.4706 10.1417 60.4706 7.99354V5.74354H52.5262V2.38243H64.1095V7.96577ZM83.4399 8.43799C82.3658 9.27132 81.0603 9.91947 79.5232 10.3824C77.9862 10.8269 76.3658 11.0676 74.6621 11.1047V8.07688C76.3103 8.03984 77.8473 7.74354 79.2732 7.18799C80.7177 6.61391 81.6806 5.8454 82.1621 4.88243H74.9121V1.88243H92.9121V4.88243H85.9399C85.8473 5.19725 85.7177 5.55836 85.551 5.96577L93.4677 8.2991L92.5232 11.2158L83.4399 8.43799ZM94.1343 15.3547H85.6621V18.4658H82.1343V15.3547H73.6899V12.2991H94.1343V15.3547ZM93.1621 19.9658V23.0491H74.9399V16.8269H78.5232V19.9658H93.1621ZM101.847 11.938V2.07688H105.236V4.10465H110.625V2.07688H114.069V5.21577H117.208V1.7991H120.708V12.4935H117.208V8.60465H114.069V11.938H101.847ZM110.625 6.91021H105.236V9.07688H110.625V6.91021ZM121.013 23.0491H102.847V17.0491H117.236V15.9102H102.819V13.3824H120.708V19.3824H106.347V20.5491H121.013V23.0491ZM138.733 8.96577V4.93799H124.427V1.88243H142.288V8.96577H138.733ZM123.177 12.9658V9.93799H143.622V12.9658H123.177ZM124.427 23.0491V14.5213H142.372V23.0491H124.427ZM138.872 17.438H127.899V20.1602H138.872V17.438Z" fill="#01A69F"/>
<defs>
<clipPath id="clip0_6_5736">
<rect width="64.0929" height="64.0929" fill="white" transform="translate(19.8984 64.281)"/>
</clipPath>
<clipPath id="clip1_6_5736">
<rect width="66.558" height="66.558" fill="white" transform="matrix(-1 0 0 1 214.642 63.0481)"/>
</clipPath>
<clipPath id="clip2_6_5736">
<rect width="64.0929" height="64.0929" fill="white" transform="translate(300.921 59.3506)"/>
</clipPath>
<clipPath id="clip3_6_5736">
<rect width="66.558" height="66.558" fill="white" transform="matrix(-1 0 0 1 659.595 69.2112)"/>
</clipPath>
<clipPath id="clip4_6_5736">
<rect width="64.0929" height="64.0929" fill="white" transform="translate(485.804 65.5134)"/>
</clipPath>
<clipPath id="clip5_6_5736">
<rect width="81.3486" height="81.3486" fill="white" transform="translate(707 59.3506)"/>
</clipPath>
</defs>
</svg>
