<svg width="715" height="114" viewBox="0 0 715 114" fill="none" xmlns="http://www.w3.org/2000/svg">
<rect x="0.875488" y="0.0012207" width="713.649" height="113.395" rx="24.6511" fill="#EBEBEB"/>
<g filter="url(#filter0_d_6_5741)">
<path d="M296.998 35.9167C299.035 36.0093 300.59 36.5556 301.664 37.5556C302.738 38.537 303.275 39.8241 303.275 41.4167C303.275 42.5278 303.007 43.5185 302.47 44.3889C301.933 45.2593 301.136 45.9444 300.081 46.4444C299.025 46.9444 297.738 47.1944 296.22 47.1944C294.812 47.1944 293.479 46.9722 292.22 46.5278C290.979 46.0648 289.988 45.4537 289.248 44.6944L290.164 43.1111C290.812 43.7778 291.664 44.3241 292.72 44.75C293.794 45.1574 294.942 45.3611 296.164 45.3611C297.775 45.3611 299.007 45.0093 299.859 44.3056C300.729 43.6019 301.164 42.6389 301.164 41.4167C301.164 40.1944 300.729 39.2407 299.859 38.5556C299.007 37.8704 297.701 37.5278 295.942 37.5278H294.553V36.1111L299.914 29.3333H289.998V27.5556H302.498V28.9722L296.998 35.9167ZM322.839 42.4722V26.6111H324.867V42.4722H322.839ZM312.672 26.8611C313.969 26.8611 315.098 27.1296 316.061 27.6667C317.024 28.1852 317.756 28.9167 318.256 29.8611C318.774 30.787 319.033 31.8426 319.033 33.0278C319.033 34.213 318.774 35.2778 318.256 36.2222C317.756 37.1481 317.024 37.8796 316.061 38.4167C315.098 38.9352 313.969 39.1944 312.672 39.1944C311.376 39.1944 310.246 38.9352 309.283 38.4167C308.32 37.8796 307.58 37.1481 307.061 36.2222C306.543 35.2778 306.283 34.213 306.283 33.0278C306.283 31.8426 306.543 30.787 307.061 29.8611C307.58 28.9167 308.32 28.1852 309.283 27.6667C310.246 27.1296 311.376 26.8611 312.672 26.8611ZM312.672 28.6389C311.357 28.6389 310.302 29.037 309.506 29.8333C308.709 30.6296 308.311 31.6944 308.311 33.0278C308.311 34.3611 308.709 35.4259 309.506 36.2222C310.302 37 311.357 37.3889 312.672 37.3889C313.987 37.3889 315.043 37 315.839 36.2222C316.635 35.4259 317.033 34.3611 317.033 33.0278C317.033 31.6944 316.635 30.6296 315.839 29.8333C315.043 29.037 313.987 28.6389 312.672 28.6389ZM325.45 45.6944V47.6111H308.061V40.7222H310.089V45.6944H325.45ZM350.329 47.9444V26.6111H352.357V47.9444H350.329ZM334.746 46.6111V27.4444H346.163V46.6111H334.746ZM344.135 29.4167H336.746V44.6389H344.135V29.4167ZM356.799 29.3889V27.4167H374.326V41.5H372.271V29.3889H356.799ZM375.743 46.8611H355.521V44.8889H363.271V35.1111H365.326V44.8889H375.743V46.8611ZM397.74 38.4722H377.518V36.75H382.101V33.8889C381.046 33.5741 380.221 33.1389 379.629 32.5833C379.036 32.0278 378.74 31.3519 378.74 30.5556C378.74 29.2037 379.573 28.1944 381.24 27.5278C382.907 26.8426 385.036 26.5 387.629 26.5C390.221 26.5 392.342 26.8426 393.99 27.5278C395.657 28.1944 396.49 29.2037 396.49 30.5556C396.49 31.3519 396.194 32.0278 395.601 32.5833C395.009 33.1389 394.184 33.5741 393.129 33.8889V36.75H397.74V38.4722ZM387.629 28.2222C385.666 28.2222 384.036 28.4167 382.74 28.8056C381.462 29.1944 380.823 29.7778 380.823 30.5556C380.823 31.3333 381.462 31.9167 382.74 32.3056C384.018 32.6944 385.647 32.8889 387.629 32.8889C389.592 32.8889 391.212 32.6944 392.49 32.3056C393.768 31.9167 394.407 31.3333 394.407 30.5556C394.407 29.7778 393.759 29.1944 392.462 28.8056C391.184 28.4167 389.573 28.2222 387.629 28.2222ZM391.129 36.75V34.3333C390.129 34.5185 388.962 34.6111 387.629 34.6111C386.314 34.6111 385.138 34.5185 384.101 34.3333V36.75H391.129ZM387.629 40.3333C390.259 40.3333 392.388 40.6296 394.018 41.2222C395.647 41.7963 396.462 42.7593 396.462 44.1111C396.462 45.463 395.647 46.4352 394.018 47.0278C392.388 47.6389 390.259 47.9444 387.629 47.9444C384.999 47.9444 382.86 47.6389 381.212 47.0278C379.583 46.4352 378.768 45.463 378.768 44.1111C378.768 42.7593 379.583 41.7963 381.212 41.2222C382.86 40.6296 384.999 40.3333 387.629 40.3333ZM387.629 46.25C389.555 46.25 391.157 46.0833 392.434 45.75C393.712 45.4167 394.351 44.8704 394.351 44.1111C394.351 43.3704 393.712 42.8426 392.434 42.5278C391.157 42.1944 389.555 42.0278 387.629 42.0278C385.703 42.0278 384.092 42.1944 382.796 42.5278C381.518 42.8426 380.879 43.3704 380.879 44.1111C380.879 44.8704 381.518 45.4167 382.796 45.75C384.092 46.0833 385.703 46.25 387.629 46.25ZM423.841 47.9444H421.814V26.6111H423.841V47.9444ZM413.952 27.2222C413.915 30.5926 413.628 33.5463 413.091 36.0833L419.786 45.3333L418.175 46.5556L412.452 38.5278C411.73 40.9537 410.767 42.8704 409.564 44.2778C408.378 45.6667 406.999 46.4444 405.425 46.6111V44.5278C406.795 44.287 407.962 43.3704 408.925 41.7778C409.888 40.1667 410.619 38.0926 411.119 35.5556C411.619 33.0185 411.878 30.2222 411.897 27.1667L413.952 27.2222Z" fill="black"/>
<path d="M65.3505 90H43.9728V86.2178L55.2783 75.4467C56.5391 74.2133 57.3887 73.1719 57.8272 72.3222C58.2657 71.4452 58.485 70.5681 58.485 69.6911C58.485 68.403 58.0465 67.4163 57.1694 66.7311C56.3198 66.0185 55.0591 65.6622 53.3872 65.6622C50.5916 65.6622 48.4539 66.6489 46.9739 68.6222L42.7805 65.8678C43.9042 64.2781 45.4254 63.0311 47.3439 62.1267C49.2624 61.2222 51.455 60.77 53.9216 60.77C56.0046 60.77 57.8272 61.1126 59.3894 61.7978C60.9517 62.4556 62.1576 63.4148 63.0072 64.6756C63.8842 65.9363 64.3228 67.4163 64.3228 69.1156C64.3228 70.6504 63.9802 72.103 63.295 73.4733C62.6372 74.8437 61.3765 76.4059 59.5128 78.16L52.1539 85.2722H65.3505V90ZM87.9326 83.5867V90H82.3004V83.5867H66.637V79.6811L80.5737 61.2222H86.6581L73.5848 78.8589H82.4648V73.1444H87.9326V78.8589H92.8659V83.5867H87.9326ZM96.8919 83.1756C97.906 83.1756 98.7419 83.5044 99.3997 84.1622C100.057 84.82 100.386 85.6696 100.386 86.7111C100.386 87.2319 100.318 87.7389 100.181 88.2322C100.071 88.7256 99.8245 89.4381 99.4408 90.37L97.2208 96.2489H93.6852L95.3708 89.8356C94.7404 89.6163 94.2471 89.2326 93.8908 88.6844C93.5345 88.1089 93.3564 87.4511 93.3564 86.7111C93.3564 85.6696 93.6852 84.82 94.343 84.1622C95.0282 83.5044 95.8778 83.1756 96.8919 83.1756ZM125.448 64.9633L114.43 90H108.14L118.829 65.95H108.017V70.8011H102.837V61.2222H125.448V64.9633ZM149.757 90H128.379V86.2178L139.685 75.4467C140.945 74.2133 141.795 73.1719 142.233 72.3222C142.672 71.4452 142.891 70.5681 142.891 69.6911C142.891 68.403 142.453 67.4163 141.576 66.7311C140.726 66.0185 139.465 65.6622 137.793 65.6622C134.998 65.6622 132.86 66.6489 131.38 68.6222L127.187 65.8678C128.31 64.2781 129.832 63.0311 131.75 62.1267C133.669 61.2222 135.861 60.77 138.328 60.77C140.411 60.77 142.233 61.1126 143.796 61.7978C145.358 62.4556 146.564 63.4148 147.413 64.6756C148.29 65.9363 148.729 67.4163 148.729 69.1156C148.729 70.6504 148.386 72.103 147.701 73.4733C147.043 74.8437 145.783 76.4059 143.919 78.16L136.56 85.2722H149.757V90ZM170.777 74.8711C172.311 75.5289 173.49 76.447 174.312 77.6256C175.134 78.8041 175.545 80.1744 175.545 81.7367C175.545 83.4907 175.052 85.0256 174.065 86.3411C173.106 87.6567 171.722 88.6707 169.913 89.3833C168.104 90.0959 166.008 90.4522 163.623 90.4522C161.239 90.4522 159.156 90.0959 157.374 89.3833C155.593 88.6707 154.209 87.6567 153.222 86.3411C152.263 85.0256 151.783 83.4907 151.783 81.7367C151.783 80.147 152.194 78.7767 153.017 77.6256C153.839 76.447 155.017 75.5289 156.552 74.8711C155.346 74.2407 154.414 73.4185 153.757 72.4044C153.126 71.3904 152.811 70.2119 152.811 68.8689C152.811 67.2244 153.263 65.7993 154.168 64.5933C155.072 63.36 156.333 62.4144 157.95 61.7567C159.594 61.0989 161.485 60.77 163.623 60.77C165.788 60.77 167.693 61.0989 169.338 61.7567C170.982 62.4144 172.257 63.36 173.161 64.5933C174.065 65.7993 174.518 67.2244 174.518 68.8689C174.518 70.1844 174.189 71.363 173.531 72.4044C172.901 73.4185 171.983 74.2407 170.777 74.8711ZM163.623 65.0456C162.061 65.0456 160.828 65.4019 159.923 66.1144C159.019 66.827 158.567 67.8137 158.567 69.0744C158.567 70.2804 159.019 71.2396 159.923 71.9522C160.828 72.6648 162.061 73.0211 163.623 73.0211C165.213 73.0211 166.474 72.6648 167.405 71.9522C168.337 71.2396 168.803 70.2804 168.803 69.0744C168.803 67.8411 168.324 66.8681 167.364 66.1556C166.433 65.4156 165.185 65.0456 163.623 65.0456ZM163.623 86.1356C165.514 86.1356 166.994 85.7244 168.063 84.9022C169.16 84.08 169.708 82.97 169.708 81.5722C169.708 80.1744 169.16 79.0781 168.063 78.2833C166.994 77.4611 165.514 77.05 163.623 77.05C161.76 77.05 160.293 77.4611 159.224 78.2833C158.155 79.0781 157.621 80.1744 157.621 81.5722C157.621 82.97 158.155 84.08 159.224 84.9022C160.321 85.7244 161.787 86.1356 163.623 86.1356ZM181.19 83.1756C182.204 83.1756 183.04 83.5044 183.698 84.1622C184.355 84.82 184.684 85.6696 184.684 86.7111C184.684 87.2319 184.616 87.7389 184.479 88.2322C184.369 88.7256 184.122 89.4381 183.739 90.37L181.519 96.2489H177.983L179.669 89.8356C179.038 89.6163 178.545 89.2326 178.189 88.6844C177.832 88.1089 177.654 87.4511 177.654 86.7111C177.654 85.6696 177.983 84.82 178.641 84.1622C179.326 83.5044 180.176 83.1756 181.19 83.1756ZM205.717 74.8711C207.252 75.5289 208.43 76.447 209.253 77.6256C210.075 78.8041 210.486 80.1744 210.486 81.7367C210.486 83.4907 209.993 85.0256 209.006 86.3411C208.047 87.6567 206.663 88.6707 204.854 89.3833C203.045 90.0959 200.948 90.4522 198.564 90.4522C196.179 90.4522 194.096 90.0959 192.315 89.3833C190.533 88.6707 189.149 87.6567 188.163 86.3411C187.203 85.0256 186.724 83.4907 186.724 81.7367C186.724 80.147 187.135 78.7767 187.957 77.6256C188.779 76.447 189.958 75.5289 191.493 74.8711C190.287 74.2407 189.355 73.4185 188.697 72.4044C188.067 71.3904 187.751 70.2119 187.751 68.8689C187.751 67.2244 188.204 65.7993 189.108 64.5933C190.013 63.36 191.273 62.4144 192.89 61.7567C194.535 61.0989 196.426 60.77 198.564 60.77C200.729 60.77 202.634 61.0989 204.278 61.7567C205.923 62.4144 207.197 63.36 208.101 64.5933C209.006 65.7993 209.458 67.2244 209.458 68.8689C209.458 70.1844 209.129 71.363 208.471 72.4044C207.841 73.4185 206.923 74.2407 205.717 74.8711ZM198.564 65.0456C197.001 65.0456 195.768 65.4019 194.864 66.1144C193.959 66.827 193.507 67.8137 193.507 69.0744C193.507 70.2804 193.959 71.2396 194.864 71.9522C195.768 72.6648 197.001 73.0211 198.564 73.0211C200.153 73.0211 201.414 72.6648 202.346 71.9522C203.278 71.2396 203.744 70.2804 203.744 69.0744C203.744 67.8411 203.264 66.8681 202.305 66.1556C201.373 65.4156 200.126 65.0456 198.564 65.0456ZM198.564 86.1356C200.455 86.1356 201.935 85.7244 203.004 84.9022C204.1 84.08 204.648 82.97 204.648 81.5722C204.648 80.1744 204.1 79.0781 203.004 78.2833C201.935 77.4611 200.455 77.05 198.564 77.05C196.7 77.05 195.234 77.4611 194.165 78.2833C193.096 79.0781 192.561 80.1744 192.561 81.5722C192.561 82.97 193.096 84.08 194.165 84.9022C195.261 85.7244 196.727 86.1356 198.564 86.1356ZM230.396 74.8711C231.931 75.5289 233.109 76.447 233.931 77.6256C234.754 78.8041 235.165 80.1744 235.165 81.7367C235.165 83.4907 234.671 85.0256 233.685 86.3411C232.725 87.6567 231.341 88.6707 229.532 89.3833C227.724 90.0959 225.627 90.4522 223.242 90.4522C220.858 90.4522 218.775 90.0959 216.994 89.3833C215.212 88.6707 213.828 87.6567 212.841 86.3411C211.882 85.0256 211.402 83.4907 211.402 81.7367C211.402 80.147 211.814 78.7767 212.636 77.6256C213.458 76.447 214.636 75.5289 216.171 74.8711C214.965 74.2407 214.034 73.4185 213.376 72.4044C212.745 71.3904 212.43 70.2119 212.43 68.8689C212.43 67.2244 212.882 65.7993 213.787 64.5933C214.691 63.36 215.952 62.4144 217.569 61.7567C219.214 61.0989 221.105 60.77 223.242 60.77C225.408 60.77 227.312 61.0989 228.957 61.7567C230.601 62.4144 231.876 63.36 232.78 64.5933C233.685 65.7993 234.137 67.2244 234.137 68.8689C234.137 70.1844 233.808 71.363 233.15 72.4044C232.52 73.4185 231.602 74.2407 230.396 74.8711ZM223.242 65.0456C221.68 65.0456 220.447 65.4019 219.542 66.1144C218.638 66.827 218.186 67.8137 218.186 69.0744C218.186 70.2804 218.638 71.2396 219.542 71.9522C220.447 72.6648 221.68 73.0211 223.242 73.0211C224.832 73.0211 226.093 72.6648 227.025 71.9522C227.956 71.2396 228.422 70.2804 228.422 69.0744C228.422 67.8411 227.943 66.8681 226.984 66.1556C226.052 65.4156 224.805 65.0456 223.242 65.0456ZM223.242 86.1356C225.134 86.1356 226.614 85.7244 227.682 84.9022C228.779 84.08 229.327 82.97 229.327 81.5722C229.327 80.1744 228.779 79.0781 227.682 78.2833C226.614 77.4611 225.134 77.05 223.242 77.05C221.379 77.05 219.912 77.4611 218.844 78.2833C217.775 79.0781 217.24 80.1744 217.24 81.5722C217.24 82.97 217.775 84.08 218.844 84.9022C219.94 85.7244 221.406 86.1356 223.242 86.1356ZM247.962 90.4522C245.633 90.4522 243.55 89.863 241.713 88.6844C239.877 87.5059 238.438 85.8067 237.397 83.5867C236.355 81.3393 235.834 78.6807 235.834 75.6111C235.834 72.5415 236.355 69.8967 237.397 67.6767C238.438 65.4293 239.877 63.7163 241.713 62.5378C243.55 61.3593 245.633 60.77 247.962 60.77C250.319 60.77 252.416 61.3593 254.252 62.5378C256.089 63.7163 257.514 65.4293 258.528 67.6767C259.569 69.8967 260.09 72.5415 260.09 75.6111C260.09 78.6807 259.569 81.3393 258.528 83.5867C257.514 85.8067 256.089 87.5059 254.252 88.6844C252.416 89.863 250.319 90.4522 247.962 90.4522ZM247.962 85.5189C249.908 85.5189 251.443 84.6967 252.567 83.0522C253.718 81.3804 254.293 78.9 254.293 75.6111C254.293 72.3222 253.718 69.8556 252.567 68.2111C251.443 66.5393 249.908 65.7033 247.962 65.7033C246.044 65.7033 244.509 66.5393 243.358 68.2111C242.234 69.8556 241.672 72.3222 241.672 75.6111C241.672 78.9 242.234 81.3804 243.358 83.0522C244.509 84.6967 246.044 85.5189 247.962 85.5189ZM285.221 59.8244H290.401V84.3678H285.221V83.1344H277.04V79.3111H285.221V59.8244ZM272.189 72.3222C269.421 72.3222 267.201 71.7741 265.529 70.6778C263.857 69.5815 263.021 68.0056 263.021 65.95C263.021 63.9219 263.857 62.3596 265.529 61.2633C267.201 60.167 269.421 59.6189 272.189 59.6189C274.929 59.6189 277.122 60.167 278.767 61.2633C280.438 62.3596 281.274 63.9219 281.274 65.95C281.274 67.9781 280.438 69.5541 278.767 70.6778C277.122 71.7741 274.929 72.3222 272.189 72.3222ZM272.189 63.6478C270.928 63.6478 269.928 63.8533 269.188 64.2644C268.448 64.6481 268.078 65.21 268.078 65.95C268.078 66.7174 268.448 67.293 269.188 67.6767C269.928 68.0604 270.928 68.2522 272.189 68.2522C273.422 68.2522 274.395 68.0604 275.108 67.6767C275.848 67.293 276.218 66.7174 276.218 65.95C276.218 65.21 275.848 64.6481 275.108 64.2644C274.395 63.8533 273.422 63.6478 272.189 63.6478ZM261.459 77.9956V73.72H274.861C278.753 73.72 281.548 73.3226 283.248 72.5278V76.8033C281.521 77.5981 278.492 77.9956 274.162 77.9956V83.0522H268.982V77.9956H261.459ZM290.935 91.2744H263.925V81.3667H269.147V86.67H290.935V91.2744ZM311.846 82.6822L306.666 90H300.911L308.969 78.8589L301.158 68.0056H307.16L312.011 74.9533L316.944 68.0056H322.618L314.806 78.7356L322.946 90H316.903L311.846 82.6822ZM345.501 73.1033C348.159 73.4322 350.187 74.3367 351.585 75.8167C352.983 77.2693 353.682 79.1056 353.682 81.3256C353.682 82.9974 353.257 84.5322 352.407 85.93C351.558 87.3004 350.256 88.3967 348.502 89.2189C346.775 90.0411 344.651 90.4522 342.129 90.4522C340.101 90.4522 338.128 90.1644 336.209 89.5889C334.291 89.0133 332.66 88.2185 331.317 87.2044L333.619 82.8056C334.688 83.6552 335.949 84.3267 337.402 84.82C338.882 85.3133 340.417 85.56 342.006 85.56C343.87 85.56 345.309 85.19 346.323 84.45C347.364 83.71 347.885 82.6685 347.885 81.3256C347.885 80.0374 347.392 79.037 346.405 78.3244C345.446 77.6119 343.952 77.2556 341.924 77.2556H339.128V73.4322L345.542 65.8678H332.674V61.2222H352.407V64.9633L345.501 73.1033ZM376.88 74.0078V69.3211H380.58V66.5256H376.88V61.8389H380.58V59.8244H385.678V77.2144H380.58V74.0078H376.88ZM357.764 75.7756V60.3178H375.318V75.7756H357.764ZM362.862 64.84V71.2533H370.22V64.84H362.862ZM372.44 77.8722C376.552 77.8722 379.827 78.4204 382.266 79.5167C384.733 80.613 385.966 82.3533 385.966 84.7378C385.966 87.1496 384.733 88.9037 382.266 90C379.827 91.0963 376.552 91.6444 372.44 91.6444C368.357 91.6444 365.095 91.0963 362.656 90C360.217 88.9037 358.997 87.1496 358.997 84.7378C358.997 82.3533 360.217 80.613 362.656 79.5167C365.095 78.4204 368.357 77.8722 372.44 77.8722ZM372.44 87.2867C374.797 87.2867 376.702 87.0811 378.155 86.67C379.635 86.2315 380.375 85.5874 380.375 84.7378C380.375 83.8881 379.635 83.2578 378.155 82.8467C376.702 82.4356 374.797 82.23 372.44 82.23C370.111 82.23 368.22 82.4356 366.767 82.8467C365.314 83.2578 364.588 83.8881 364.588 84.7378C364.588 85.5874 365.314 86.2315 366.767 86.67C368.22 87.0811 370.111 87.2867 372.44 87.2867ZM409.971 68.4167V72.7744H390.813V68.4167H409.971ZM409.971 78.4067V82.8056H390.813V78.4067H409.971Z" fill="black"/>
<path d="M444.176 64.9633L433.158 90H426.868L437.557 65.95H426.745V70.8011H421.565V61.2222H444.176V64.9633ZM466.388 83.5867V90H460.755V83.5867H445.092V79.6811L459.029 61.2222H465.113L452.04 78.8589H460.92V73.1444H466.388V78.8589H471.321V83.5867H466.388ZM475.347 83.1756C476.361 83.1756 477.197 83.5044 477.855 84.1622C478.513 84.82 478.841 85.6696 478.841 86.7111C478.841 87.2319 478.773 87.7389 478.636 88.2322C478.526 88.7256 478.28 89.4381 477.896 90.37L475.676 96.2489H472.14L473.826 89.8356C473.196 89.6163 472.702 89.2326 472.346 88.6844C471.99 88.1089 471.811 87.4511 471.811 86.7111C471.811 85.6696 472.14 84.82 472.798 84.1622C473.483 83.5044 474.333 83.1756 475.347 83.1756ZM496.955 90H491.159V65.8678H485.156V61.2222H496.955V90ZM524.553 74.8711C526.088 75.5289 527.266 76.447 528.089 77.6256C528.911 78.8041 529.322 80.1744 529.322 81.7367C529.322 83.4907 528.829 85.0256 527.842 86.3411C526.883 87.6567 525.499 88.6707 523.69 89.3833C521.881 90.0959 519.784 90.4522 517.4 90.4522C515.015 90.4522 512.932 90.0959 511.151 89.3833C509.369 88.6707 507.985 87.6567 506.999 86.3411C506.039 85.0256 505.56 83.4907 505.56 81.7367C505.56 80.147 505.971 78.7767 506.793 77.6256C507.615 76.447 508.794 75.5289 510.329 74.8711C509.123 74.2407 508.191 73.4185 507.533 72.4044C506.903 71.3904 506.587 70.2119 506.587 68.8689C506.587 67.2244 507.04 65.7993 507.944 64.5933C508.849 63.36 510.109 62.4144 511.726 61.7567C513.371 61.0989 515.262 60.77 517.4 60.77C519.565 60.77 521.47 61.0989 523.114 61.7567C524.759 62.4144 526.033 63.36 526.937 64.5933C527.842 65.7993 528.294 67.2244 528.294 68.8689C528.294 70.1844 527.965 71.363 527.307 72.4044C526.677 73.4185 525.759 74.2407 524.553 74.8711ZM517.4 65.0456C515.837 65.0456 514.604 65.4019 513.7 66.1144C512.795 66.827 512.343 67.8137 512.343 69.0744C512.343 70.2804 512.795 71.2396 513.7 71.9522C514.604 72.6648 515.837 73.0211 517.4 73.0211C518.989 73.0211 520.25 72.6648 521.182 71.9522C522.114 71.2396 522.58 70.2804 522.58 69.0744C522.58 67.8411 522.1 66.8681 521.141 66.1556C520.209 65.4156 518.962 65.0456 517.4 65.0456ZM517.4 86.1356C519.291 86.1356 520.771 85.7244 521.84 84.9022C522.936 84.08 523.484 82.97 523.484 81.5722C523.484 80.1744 522.936 79.0781 521.84 78.2833C520.771 77.4611 519.291 77.05 517.4 77.05C515.536 77.05 514.07 77.4611 513.001 78.2833C511.932 79.0781 511.397 80.1744 511.397 81.5722C511.397 82.97 511.932 84.08 513.001 84.9022C514.097 85.7244 515.563 86.1356 517.4 86.1356ZM544.052 72.1578C545.915 72.1578 547.587 72.5278 549.067 73.2678C550.575 74.0078 551.753 75.0493 552.603 76.3922C553.452 77.7352 553.877 79.2837 553.877 81.0378C553.877 82.9015 553.411 84.5459 552.479 85.9711C551.548 87.3963 550.273 88.5063 548.656 89.3011C547.067 90.0685 545.271 90.4522 543.271 90.4522C539.297 90.4522 536.199 89.2189 533.979 86.7522C531.759 84.2581 530.649 80.7226 530.649 76.1456C530.649 72.9115 531.239 70.1433 532.417 67.8411C533.623 65.5115 535.295 63.7574 537.433 62.5789C539.598 61.373 542.106 60.77 544.956 60.77C546.436 60.77 547.848 60.9344 549.191 61.2633C550.534 61.5922 551.698 62.0581 552.685 62.6611L550.506 66.9367C549.108 65.9774 547.299 65.4978 545.079 65.4978C542.805 65.4978 540.927 66.1144 539.447 67.3478C537.995 68.5811 537.09 70.3763 536.734 72.7333C536.597 73.6652 536.542 74.5559 536.569 75.4056C537.337 74.3367 538.365 73.5281 539.653 72.98C540.941 72.4319 542.407 72.1578 544.052 72.1578ZM542.942 86.0944C544.531 86.0944 545.819 85.6696 546.806 84.82C547.793 83.943 548.286 82.7781 548.286 81.3256C548.286 79.8456 547.793 78.6807 546.806 77.8311C545.819 76.9541 544.49 76.5156 542.818 76.5156C541.201 76.5156 539.872 76.9678 538.831 77.8722C537.789 78.7767 537.268 79.9278 537.268 81.3256C537.268 82.6959 537.775 83.8333 538.789 84.7378C539.804 85.6422 541.188 86.0944 542.942 86.0944ZM559.645 83.1756C560.659 83.1756 561.495 83.5044 562.153 84.1622C562.81 84.82 563.139 85.6696 563.139 86.7111C563.139 87.2319 563.071 87.7389 562.934 88.2322C562.824 88.7256 562.577 89.4381 562.194 90.37L559.974 96.2489H556.438L558.124 89.8356C557.493 89.6163 557 89.2326 556.644 88.6844C556.287 88.1089 556.109 87.4511 556.109 86.7111C556.109 85.6696 556.438 84.82 557.096 84.1622C557.781 83.5044 558.631 83.1756 559.645 83.1756ZM578.992 72.1578C580.856 72.1578 582.528 72.5278 584.008 73.2678C585.515 74.0078 586.694 75.0493 587.543 76.3922C588.393 77.7352 588.818 79.2837 588.818 81.0378C588.818 82.9015 588.352 84.5459 587.42 85.9711C586.488 87.3963 585.214 88.5063 583.597 89.3011C582.007 90.0685 580.212 90.4522 578.211 90.4522C574.237 90.4522 571.14 89.2189 568.92 86.7522C566.7 84.2581 565.59 80.7226 565.59 76.1456C565.59 72.9115 566.179 70.1433 567.358 67.8411C568.564 65.5115 570.235 63.7574 572.373 62.5789C574.538 61.373 577.046 60.77 579.897 60.77C581.377 60.77 582.788 60.9344 584.131 61.2633C585.474 61.5922 586.639 62.0581 587.625 62.6611L585.447 66.9367C584.049 65.9774 582.24 65.4978 580.02 65.4978C577.745 65.4978 575.868 66.1144 574.388 67.3478C572.935 68.5811 572.031 70.3763 571.674 72.7333C571.537 73.6652 571.482 74.5559 571.51 75.4056C572.277 74.3367 573.305 73.5281 574.593 72.98C575.881 72.4319 577.348 72.1578 578.992 72.1578ZM577.882 86.0944C579.472 86.0944 580.76 85.6696 581.747 84.82C582.733 83.943 583.227 82.7781 583.227 81.3256C583.227 79.8456 582.733 78.6807 581.747 77.8311C580.76 76.9541 579.431 76.5156 577.759 76.5156C576.142 76.5156 574.812 76.9678 573.771 77.8722C572.73 78.7767 572.209 79.9278 572.209 81.3256C572.209 82.6959 572.716 83.8333 573.73 84.7378C574.744 85.6422 576.128 86.0944 577.882 86.0944ZM610.413 83.5867V90H604.781V83.5867H589.117V79.6811L603.054 61.2222H609.139L596.065 78.8589H604.945V73.1444H610.413V78.8589H615.346V83.5867H610.413ZM626.417 90.4522C624.088 90.4522 622.005 89.863 620.168 88.6844C618.332 87.5059 616.893 85.8067 615.852 83.5867C614.81 81.3393 614.29 78.6807 614.29 75.6111C614.29 72.5415 614.81 69.8967 615.852 67.6767C616.893 65.4293 618.332 63.7163 620.168 62.5378C622.005 61.3593 624.088 60.77 626.417 60.77C628.774 60.77 630.871 61.3593 632.707 62.5378C634.544 63.7163 635.969 65.4293 636.983 67.6767C638.024 69.8967 638.545 72.5415 638.545 75.6111C638.545 78.6807 638.024 81.3393 636.983 83.5867C635.969 85.8067 634.544 87.5059 632.707 88.6844C630.871 89.863 628.774 90.4522 626.417 90.4522ZM626.417 85.5189C628.363 85.5189 629.898 84.6967 631.022 83.0522C632.173 81.3804 632.748 78.9 632.748 75.6111C632.748 72.3222 632.173 69.8556 631.022 68.2111C629.898 66.5393 628.363 65.7033 626.417 65.7033C624.499 65.7033 622.964 66.5393 621.813 68.2111C620.689 69.8556 620.127 72.3222 620.127 75.6111C620.127 78.9 620.689 81.3804 621.813 83.0522C622.964 84.6967 624.499 85.5189 626.417 85.5189ZM663.676 59.8244H668.856V84.3678H663.676V83.1344H655.495V79.3111H663.676V59.8244ZM650.644 72.3222C647.876 72.3222 645.656 71.7741 643.984 70.6778C642.312 69.5815 641.476 68.0056 641.476 65.95C641.476 63.9219 642.312 62.3596 643.984 61.2633C645.656 60.167 647.876 59.6189 650.644 59.6189C653.385 59.6189 655.577 60.167 657.222 61.2633C658.893 62.3596 659.729 63.9219 659.729 65.95C659.729 67.9781 658.893 69.5541 657.222 70.6778C655.577 71.7741 653.385 72.3222 650.644 72.3222ZM650.644 63.6478C649.383 63.6478 648.383 63.8533 647.643 64.2644C646.903 64.6481 646.533 65.21 646.533 65.95C646.533 66.7174 646.903 67.293 647.643 67.6767C648.383 68.0604 649.383 68.2522 650.644 68.2522C651.877 68.2522 652.85 68.0604 653.563 67.6767C654.303 67.293 654.673 66.7174 654.673 65.95C654.673 65.21 654.303 64.6481 653.563 64.2644C652.85 63.8533 651.877 63.6478 650.644 63.6478ZM639.914 77.9956V73.72H653.316C657.208 73.72 660.003 73.3226 661.703 72.5278V76.8033C659.976 77.5981 656.948 77.9956 652.617 77.9956V83.0522H647.437V77.9956H639.914ZM669.39 91.2744H642.38V81.3667H647.602V86.67H669.39V91.2744Z" fill="#01A69F"/>
</g>
<defs>
<filter id="filter0_d_6_5741" x="40.3157" y="26.5" width="631.54" height="74.679" filterUnits="userSpaceOnUse" color-interpolation-filters="sRGB">
<feFlood flood-opacity="0" result="BackgroundImageFix"/>
<feColorMatrix in="SourceAlpha" type="matrix" values="0 0 0 0 0 0 0 0 0 0 0 0 0 0 0 0 0 0 127 0" result="hardAlpha"/>
<feOffset dy="2.46511"/>
<feGaussianBlur stdDeviation="1.23256"/>
<feComposite in2="hardAlpha" operator="out"/>
<feColorMatrix type="matrix" values="0 0 0 0 0 0 0 0 0 0 0 0 0 0 0 0 0 0 0.25 0"/>
<feBlend mode="normal" in2="BackgroundImageFix" result="effect1_dropShadow_6_5741"/>
<feBlend mode="normal" in="SourceGraphic" in2="effect1_dropShadow_6_5741" result="shape"/>
</filter>
</defs>
</svg>
