<svg width="671" height="166" viewBox="0 0 671 166" fill="none" xmlns="http://www.w3.org/2000/svg">
<path d="M258.987 45.7H254.687V27.1H248.987V45.05H244.787V7.5H248.987V22.65H254.687V7.3H258.987V45.7ZM233.687 39.25C235.22 39.25 236.737 39.1333 238.237 38.9C239.77 38.6333 241.087 38.2667 242.187 37.8V41.95C241.087 42.4167 239.72 42.7833 238.087 43.05C236.487 43.3167 234.854 43.45 233.187 43.45H224.837V8.65H240.637V12.85H229.187V39.25H233.687ZM301.582 20.85H296.532V35.8H292.032V7.3H296.532V16.3H301.582V20.85ZM286.132 18.85C286.132 21.0167 285.665 22.95 284.732 24.65C283.798 26.35 282.465 27.6833 280.732 28.65C278.998 29.5833 276.982 30.05 274.682 30.05C272.382 30.05 270.365 29.5833 268.632 28.65C266.898 27.6833 265.565 26.35 264.632 24.65C263.698 22.95 263.232 21.0167 263.232 18.85C263.232 16.6833 263.698 14.75 264.632 13.05C265.565 11.35 266.898 10.0333 268.632 9.1C270.365 8.13333 272.382 7.65 274.682 7.65C276.982 7.65 278.998 8.13333 280.732 9.1C282.465 10.0333 283.798 11.35 284.732 13.05C285.665 14.75 286.132 16.6833 286.132 18.85ZM267.782 18.85C267.782 21.05 268.398 22.8 269.632 24.1C270.898 25.4 272.582 26.05 274.682 26.05C276.782 26.05 278.465 25.4 279.732 24.1C280.998 22.8 281.632 21.05 281.632 18.85C281.632 16.65 280.998 14.9 279.732 13.6C278.465 12.3 276.782 11.65 274.682 11.65C272.582 11.65 270.898 12.3 269.632 13.6C268.398 14.9 267.782 16.65 267.782 18.85ZM297.482 40.95V45.25H266.232V32.6H270.782V40.95H297.482ZM341.176 19.8H336.126V29.15H331.626V7.3H336.126V15.25H341.176V19.8ZM304.176 27V7.95H308.576V13.3H321.176V7.95H325.576V27H304.176ZM321.176 17.15H308.576V23.05H321.176V17.15ZM320.926 30.3C325.66 30.3 329.46 30.9333 332.326 32.2C335.193 33.4333 336.626 35.3833 336.626 38.05C336.626 40.7167 335.193 42.6667 332.326 43.9C329.46 45.1333 325.66 45.75 320.926 45.75C316.193 45.75 312.393 45.1333 309.526 43.9C306.66 42.6667 305.226 40.7167 305.226 38.05C305.226 35.3833 306.66 33.4333 309.526 32.2C312.393 30.9333 316.193 30.3 320.926 30.3ZM320.926 41.9C324.126 41.9 326.743 41.5833 328.776 40.95C330.81 40.2833 331.826 39.3167 331.826 38.05C331.826 36.75 330.81 35.7833 328.776 35.15C326.776 34.5167 324.16 34.2 320.926 34.2C317.66 34.2 315.01 34.5167 312.976 35.15C310.976 35.7833 309.976 36.75 309.976 38.05C309.976 39.3167 310.993 40.2833 313.026 40.95C315.06 41.5833 317.693 41.9 320.926 41.9ZM380.771 20.85H375.721V35.8H371.221V7.3H375.721V16.3H380.771V20.85ZM365.321 18.85C365.321 21.0167 364.855 22.95 363.921 24.65C362.988 26.35 361.655 27.6833 359.921 28.65C358.188 29.5833 356.171 30.05 353.871 30.05C351.571 30.05 349.555 29.5833 347.821 28.65C346.088 27.6833 344.755 26.35 343.821 24.65C342.888 22.95 342.421 21.0167 342.421 18.85C342.421 16.6833 342.888 14.75 343.821 13.05C344.755 11.35 346.088 10.0333 347.821 9.1C349.555 8.13333 351.571 7.65 353.871 7.65C356.171 7.65 358.188 8.13333 359.921 9.1C361.655 10.0333 362.988 11.35 363.921 13.05C364.855 14.75 365.321 16.6833 365.321 18.85ZM346.971 18.85C346.971 21.05 347.588 22.8 348.821 24.1C350.088 25.4 351.771 26.05 353.871 26.05C355.971 26.05 357.655 25.4 358.921 24.1C360.188 22.8 360.821 21.05 360.821 18.85C360.821 16.65 360.188 14.9 358.921 13.6C357.655 12.3 355.971 11.65 353.871 11.65C351.771 11.65 350.088 12.3 348.821 13.6C347.588 14.9 346.971 16.65 346.971 18.85ZM376.671 40.95V45.25H345.421V32.6H349.971V40.95H376.671ZM400.366 7C405.066 7 408.949 7.73333 412.016 9.2C415.083 10.6333 416.616 12.7167 416.616 15.45C416.616 18.1833 415.083 20.2833 412.016 21.75C408.949 23.1833 405.066 23.9 400.366 23.9C395.666 23.9 391.783 23.1833 388.716 21.75C385.649 20.2833 384.116 18.1833 384.116 15.45C384.116 12.7167 385.649 10.6333 388.716 9.2C391.783 7.73333 395.666 7 400.366 7ZM400.366 10.8C397.099 10.8 394.366 11.2167 392.166 12.05C389.966 12.8833 388.866 14.0167 388.866 15.45C388.866 16.8833 389.966 18.0167 392.166 18.85C394.366 19.65 397.099 20.05 400.366 20.05C403.633 20.05 406.349 19.65 408.516 18.85C410.716 18.0167 411.816 16.8833 411.816 15.45C411.816 14.0167 410.716 12.8833 408.516 12.05C406.349 11.2167 403.633 10.8 400.366 10.8ZM382.116 31.15V27.15H418.616V31.15H382.116ZM416.766 41.2V45.25H384.616V34.3H389.216V41.2H416.766ZM431.761 33.05C431.761 31.75 431.977 30.6 432.411 29.6C432.844 28.6 433.377 27.75 434.011 27.05C434.644 26.3167 435.477 25.5 436.511 24.6C437.844 23.4 438.827 22.35 439.461 21.45C440.127 20.55 440.461 19.45 440.461 18.15C440.461 16.4833 439.811 15.15 438.511 14.15C437.211 13.1167 435.411 12.6 433.111 12.6C429.311 12.6 426.344 13.9167 424.211 16.55L420.611 14.3C421.977 12.4667 423.744 11.0667 425.911 10.1C428.077 9.1 430.627 8.6 433.561 8.6C437.127 8.6 439.977 9.4 442.111 11C444.277 12.5667 445.361 14.7167 445.361 17.45C445.361 18.8167 445.127 20.0333 444.661 21.1C444.227 22.1333 443.677 23.0167 443.011 23.75C442.377 24.4833 441.527 25.3167 440.461 26.25C439.061 27.5167 438.027 28.6167 437.361 29.55C436.694 30.4833 436.361 31.65 436.361 33.05H431.761ZM434.061 44.25C433.127 44.25 432.361 43.9667 431.761 43.4C431.161 42.8 430.861 42.0667 430.861 41.2C430.861 40.3333 431.161 39.6167 431.761 39.05C432.361 38.45 433.127 38.15 434.061 38.15C434.994 38.15 435.761 38.45 436.361 39.05C436.994 39.6167 437.311 40.3333 437.311 41.2C437.311 42.0667 436.994 42.8 436.361 43.4C435.761 43.9667 434.994 44.25 434.061 44.25Z" fill="black"/>
<path d="M59.2355 154.238H47.7155V127.358H39.9555C39.4755 135.678 37.6621 141.891 34.5155 145.998C31.3688 150.051 27.2088 152.078 22.0355 152.078C16.3821 152.078 11.9288 149.651 8.67547 144.798C5.47547 139.944 3.87547 132.611 3.87547 122.798C3.87547 112.984 5.47547 105.651 8.67547 100.798C11.9288 95.9442 16.3821 93.5176 22.0355 93.5176C26.9955 93.5176 31.0221 95.3842 34.1155 99.1176C37.2088 102.798 39.1288 108.424 39.8755 115.998H47.7155V92.7976H59.2355V154.238ZM22.0355 140.958C26.4621 140.958 28.6755 134.904 28.6755 122.798C28.6755 110.691 26.4621 104.638 22.0355 104.638C17.5555 104.638 15.3155 110.691 15.3155 122.798C15.3155 134.904 17.5555 140.958 22.0355 140.958ZM95.387 115.278C87.1737 115.278 80.6937 114.344 75.947 112.478C71.2004 110.558 68.827 107.571 68.827 103.518C68.827 99.4642 71.2004 96.5042 75.947 94.6376C80.6937 92.7176 87.1737 91.7576 95.387 91.7576C103.6 91.7576 110.054 92.7176 114.747 94.6376C119.494 96.5042 121.867 99.4642 121.867 103.518C121.867 107.571 119.494 110.558 114.747 112.478C110.054 114.344 103.6 115.278 95.387 115.278ZM95.387 100.398C91.0137 100.398 87.5204 100.691 84.907 101.278C82.347 101.811 81.067 102.558 81.067 103.518C81.067 104.531 82.347 105.304 84.907 105.838C87.467 106.371 90.9604 106.638 95.387 106.638C99.8137 106.638 103.28 106.371 105.787 105.838C108.347 105.304 109.627 104.531 109.627 103.518C109.627 102.504 108.347 101.731 105.787 101.198C103.227 100.664 99.7604 100.398 95.387 100.398ZM101.147 128.238H121.547V144.398H80.667V146.558H122.107V154.238H69.307V137.998H110.187V135.838H69.147V128.238H89.627V125.518H65.787V116.718H124.907V125.518H101.147V128.238ZM174.099 128.638V92.7976H185.699V128.638H174.099ZM142.579 114.798V118.318H157.619C160.232 118.318 162.739 118.131 165.139 117.758C167.539 117.384 169.512 116.851 171.059 116.158V125.358C169.565 126.051 167.619 126.584 165.219 126.958C162.819 127.331 160.232 127.518 157.459 127.518H131.059V106.238H155.139V102.718H130.979V93.5176H166.579V114.798H142.579ZM133.459 154.238V130.798H185.699V154.238H133.459ZM174.179 140.318H144.899V144.798H174.179V140.318Z" fill="#01A69F"/>
<path d="M250.65 154.238H239.85V92.7976H250.65V154.238ZM235.85 93.0376V153.198H225.13V127.838H221.05C220.677 136.318 219.29 142.478 216.89 146.318C214.543 150.158 211.183 152.078 206.81 152.078C202.063 152.078 198.49 149.758 196.09 145.118C193.69 140.478 192.49 133.038 192.49 122.798C192.49 112.558 193.69 105.118 196.09 100.478C198.49 95.8376 202.063 93.5176 206.81 93.5176C211.023 93.5176 214.303 95.3309 216.65 98.9576C218.997 102.531 220.437 108.264 220.97 116.158H225.13V93.0376H235.85ZM206.81 141.118C208.09 141.118 208.997 139.678 209.53 136.798C210.117 133.864 210.41 129.198 210.41 122.798C210.41 116.398 210.117 111.758 209.53 108.878C208.997 105.944 208.09 104.478 206.81 104.478C205.53 104.478 204.597 105.944 204.01 108.878C203.477 111.758 203.21 116.398 203.21 122.798C203.21 129.198 203.477 133.864 204.01 136.798C204.597 139.678 205.53 141.118 206.81 141.118ZM312.642 154.238H301.122V123.998H288.802V112.638H301.122V92.7976H312.642V154.238ZM282.482 94.3976C282.482 102.398 281.948 109.811 280.882 116.638L297.842 144.798L287.842 151.278L276.882 131.838C274.535 138.078 271.548 142.878 267.922 146.238C264.295 149.598 260.268 151.304 255.842 151.358V138.718C258.775 138.344 261.362 136.238 263.602 132.398C265.895 128.558 267.655 123.331 268.882 116.718C270.108 110.051 270.722 102.478 270.722 93.9976L282.482 94.3976ZM338.294 104.798V93.5176H390.774V122.558H378.774V104.798H338.294ZM370.214 137.598V155.678H358.214V137.598H335.014V126.238H394.134V137.598H370.214ZM456.525 154.238H445.725V126.878H440.845V153.198H430.205V93.0376H440.845V115.358H445.725V92.7976H456.525V154.238ZM425.965 94.2376V151.358H399.485V94.2376H425.965ZM415.245 140.398V105.198H410.205V140.398H415.245ZM500.917 100.158V111.278H462.997V100.158H476.037V92.5576H487.877V100.158H500.917ZM516.597 127.038V154.238H505.077V92.7976H516.597V115.278H523.477V127.038H516.597ZM481.957 113.838C485.37 113.838 488.357 114.664 490.917 116.318C493.477 117.971 495.45 120.264 496.837 123.198C498.223 126.078 498.917 129.331 498.917 132.958C498.917 136.638 498.223 139.918 496.837 142.798C495.45 145.678 493.477 147.944 490.917 149.598C488.357 151.251 485.37 152.078 481.957 152.078C478.49 152.078 475.477 151.251 472.917 149.598C470.357 147.944 468.383 145.678 466.997 142.798C465.61 139.918 464.917 136.638 464.917 132.958C464.917 129.331 465.61 126.078 466.997 123.198C468.383 120.264 470.357 117.971 472.917 116.318C475.477 114.664 478.49 113.838 481.957 113.838ZM481.957 141.678C483.823 141.678 485.263 140.904 486.277 139.358C487.343 137.758 487.877 135.624 487.877 132.958C487.877 130.291 487.343 128.184 486.277 126.638C485.263 125.038 483.823 124.238 481.957 124.238C480.09 124.238 478.623 125.038 477.557 126.638C476.49 128.184 475.957 130.291 475.957 132.958C475.957 135.624 476.49 137.758 477.557 139.358C478.623 140.904 480.09 141.678 481.957 141.678ZM583.228 154.238H572.348V92.7976H583.228V154.238ZM567.868 93.0376V153.198H557.068V123.198H550.668V111.678H557.068V93.0376H567.868ZM546.348 94.3976C546.348 103.998 545.895 112.158 544.988 118.878L558.268 145.998L548.748 150.798L541.468 135.278C537.788 145.678 532.322 151.038 525.068 151.358V139.038C528.322 138.504 530.855 134.238 532.668 126.238C534.535 118.238 535.468 107.491 535.468 93.9976L546.348 94.3976ZM647.54 152.078H588.42V140.958H599.86V127.598C596.927 125.838 594.66 123.678 593.06 121.118C591.513 118.504 590.74 115.598 590.74 112.398C590.74 108.611 591.86 105.251 594.1 102.318C596.393 99.3309 599.593 97.0109 603.7 95.3576C607.86 93.7042 612.633 92.8776 618.02 92.8776C623.407 92.8776 628.153 93.7042 632.26 95.3576C636.42 97.0109 639.62 99.3309 641.86 102.318C644.153 105.251 645.3 108.611 645.3 112.398C645.3 115.598 644.5 118.504 642.9 121.118C641.3 123.678 639.033 125.838 636.1 127.598V140.958H647.54V152.078ZM618.02 103.758C613.593 103.758 609.967 104.558 607.14 106.158C604.367 107.758 602.98 109.838 602.98 112.398C602.98 114.958 604.367 117.038 607.14 118.638C609.967 120.238 613.593 121.038 618.02 121.038C622.447 121.038 626.047 120.238 628.82 118.638C631.647 117.038 633.06 114.958 633.06 112.398C633.06 109.838 631.647 107.758 628.82 106.158C626.047 104.558 622.447 103.758 618.02 103.758ZM624.58 140.958V131.518C622.873 131.784 620.687 131.918 618.02 131.918C615.407 131.918 613.22 131.784 611.46 131.518V140.958H624.58ZM660.171 152.158C657.985 152.158 656.145 151.411 654.651 149.918C653.158 148.424 652.411 146.558 652.411 144.318C652.411 142.024 653.158 140.184 654.651 138.798C656.145 137.358 657.985 136.638 660.171 136.638C662.358 136.638 664.198 137.358 665.691 138.798C667.185 140.184 667.931 142.024 667.931 144.318C667.931 146.558 667.185 148.424 665.691 149.918C664.198 151.411 662.358 152.158 660.171 152.158Z" fill="black"/>
<path d="M0.355469 160.478H190.41V164.078H0.355469V160.478Z" fill="#01A69F"/>
</svg>
