<svg width="815" height="156" viewBox="0 0 815 156" fill="none" xmlns="http://www.w3.org/2000/svg">
<path d="M197.129 65.8333H185.129V37.8333H177.045C176.545 46.5 174.657 52.9722 171.379 57.25C168.101 61.4722 163.768 63.5833 158.379 63.5833C152.49 63.5833 147.851 61.0556 144.462 56C141.129 50.9444 139.462 43.3056 139.462 33.0833C139.462 22.8611 141.129 15.2222 144.462 10.1667C147.851 5.11111 152.49 2.58333 158.379 2.58333C163.545 2.58333 167.74 4.52778 170.962 8.41667C174.184 12.25 176.184 18.1111 176.962 26H185.129V1.83333H197.129V65.8333ZM158.379 52C162.99 52 165.295 45.6944 165.295 33.0833C165.295 20.4722 162.99 14.1667 158.379 14.1667C153.712 14.1667 151.379 20.4722 151.379 33.0833C151.379 45.6944 153.712 52 158.379 52ZM234.787 25.25C226.231 25.25 219.481 24.2778 214.537 22.3333C209.592 20.3333 207.12 17.2222 207.12 13C207.12 8.77778 209.592 5.69444 214.537 3.75C219.481 1.75 226.231 0.749997 234.787 0.749997C243.342 0.749997 250.064 1.75 254.953 3.75C259.898 5.69444 262.37 8.77778 262.37 13C262.37 17.2222 259.898 20.3333 254.953 22.3333C250.064 24.2778 243.342 25.25 234.787 25.25ZM234.787 9.75C230.231 9.75 226.592 10.0556 223.87 10.6667C221.203 11.2222 219.87 12 219.87 13C219.87 14.0556 221.203 14.8611 223.87 15.4167C226.537 15.9722 230.176 16.25 234.787 16.25C239.398 16.25 243.009 15.9722 245.62 15.4167C248.287 14.8611 249.62 14.0556 249.62 13C249.62 11.9444 248.287 11.1389 245.62 10.5833C242.953 10.0278 239.342 9.75 234.787 9.75ZM240.787 38.75H262.037V55.5833H219.453V57.8333H262.62V65.8333H207.62V48.9167H250.203V46.6667H207.453V38.75H228.787V35.9167H203.953V26.75H265.537V35.9167H240.787V38.75ZM316.778 39.1667V1.83333H328.861V39.1667H316.778ZM283.944 24.75V28.4167H299.611C302.333 28.4167 304.944 28.2222 307.444 27.8333C309.944 27.4444 312 26.8889 313.611 26.1667V35.75C312.056 36.4722 310.028 37.0278 307.528 37.4167C305.028 37.8056 302.333 38 299.444 38H271.944V15.8333H297.028V12.1667H271.861V2.58333H308.945V24.75H283.944ZM274.444 65.8333V41.4167H328.861V65.8333H274.444ZM316.861 51.3333H286.361V56H316.861V51.3333ZM396.519 65.8333H385.269V1.83333H396.519V65.8333ZM381.102 2.08333V64.75H369.936V38.3333H365.686C365.297 47.1667 363.852 53.5833 361.352 57.5833C358.908 61.5833 355.408 63.5833 350.852 63.5833C345.908 63.5833 342.186 61.1667 339.686 56.3333C337.186 51.5 335.936 43.75 335.936 33.0833C335.936 22.4167 337.186 14.6667 339.686 9.83333C342.186 5 345.908 2.58333 350.852 2.58333C355.241 2.58333 358.658 4.47222 361.102 8.25C363.547 11.9722 365.047 17.9444 365.602 26.1667H369.936V2.08333H381.102ZM350.852 52.1667C352.186 52.1667 353.13 50.6667 353.686 47.6667C354.297 44.6111 354.602 39.75 354.602 33.0833C354.602 26.4167 354.297 21.5833 353.686 18.5833C353.13 15.5278 352.186 14 350.852 14C349.519 14 348.547 15.5278 347.936 18.5833C347.38 21.5833 347.102 26.4167 347.102 33.0833C347.102 39.75 347.38 44.6111 347.936 47.6667C348.547 50.6667 349.519 52.1667 350.852 52.1667ZM461.094 65.8333H449.094V34.3333H436.26V22.5H449.094V1.83333H461.094V65.8333ZM429.677 3.5C429.677 11.8333 429.121 19.5556 428.01 26.6667L445.677 56L435.26 62.75L423.844 42.5C421.399 49 418.288 54 414.51 57.5C410.732 61 406.538 62.7778 401.927 62.8333V49.6667C404.982 49.2778 407.677 47.0833 410.01 43.0833C412.399 39.0833 414.232 33.6389 415.51 26.75C416.788 19.8056 417.427 11.9167 417.427 3.08333L429.677 3.5ZM487.814 14.3333V2.58333H542.481V32.8333H529.981V14.3333H487.814ZM521.064 48.5V67.3333H508.564V48.5H484.398V36.6667H545.981V48.5H521.064ZM610.972 65.8333H599.722V37.3333H594.639V64.75H583.556V2.08333H594.639V25.3333H599.722V1.83333H610.972V65.8333ZM579.139 3.33333V62.8333H551.556V3.33333H579.139ZM567.972 51.4167V14.75H562.722V51.4167H567.972ZM675.297 65.8333H663.213V1.83333H675.297V65.8333ZM645.963 3.5C645.963 12.5556 645.158 21.0556 643.547 29L661.63 55.4167L651.797 62.75L639.297 43.6667C636.686 49.8333 633.463 54.5556 629.63 57.8333C625.852 61.1111 621.63 62.7778 616.963 62.8333V49.8333C620.186 49.4444 623.047 47.2222 625.547 43.1667C628.102 39.1111 630.074 33.6389 631.463 26.75C632.908 19.8056 633.63 11.9167 633.63 3.08333L645.963 3.5Z" fill="#333333"/>
<path d="M3.68343 102.333V90.5833H58.3501V120.833H45.8501V102.333H3.68343ZM36.9334 136.5V155.333H24.4334V136.5H0.266764V124.667H61.8501V136.5H36.9334ZM126.841 153.833H115.591V125.333H110.508V152.75H99.4246V90.0833H110.508V113.333H115.591V89.8333H126.841V153.833ZM95.008 91.3333V150.833H67.4246V91.3333H95.008ZM83.8413 139.417V102.75H78.5913V139.417H83.8413ZM177.833 111.083V100.25H135.833V89.8333H189.999V111.083H177.833ZM132.249 123.833V113.5H193.833V123.833H132.249ZM135.833 153.833V127.667H190.333V153.833H135.833ZM178.333 137.583H147.749V144H178.333V137.583ZM258.824 129.083H247.574V114.333H242.49V128.417H231.407V90.0833H242.49V102.5H247.574V89.8333H258.824V129.083ZM213.24 128.167C208.629 128.167 204.99 126.5 202.324 123.167C199.713 119.778 198.407 115.028 198.407 108.917C198.407 102.806 199.713 98.1111 202.324 94.8333C204.99 91.5 208.629 89.8333 213.24 89.8333C217.852 89.8333 221.463 91.5 224.074 94.8333C226.74 98.1111 228.074 102.806 228.074 108.917C228.074 115.028 226.74 119.778 224.074 123.167C221.463 126.5 217.852 128.167 213.24 128.167ZM213.24 100.083C210.685 100.083 209.407 103.028 209.407 108.917C209.407 114.861 210.685 117.833 213.24 117.833C215.74 117.833 216.99 114.861 216.99 108.917C216.99 105.917 216.685 103.694 216.074 102.25C215.463 100.806 214.518 100.083 213.24 100.083ZM258.824 131.333V154.583H246.99V142.083H203.24V131.333H258.824ZM477.214 124.417V90.5833H489.048V96.3333H519.881V90.5833H531.714V124.417H477.214ZM519.881 107.333H489.048V113.25H519.881V107.333ZM510.631 141V155.333H498.298V141H473.631V129.417H535.214V141H510.631ZM596.789 112.75V124.5H584.789V89.8333H596.789V100.5H603.956V112.75H596.789ZM581.956 120.25C580.4 120.972 578.289 121.528 575.622 121.917C573.011 122.306 570.261 122.5 567.372 122.5H540.956V90.5833H578.456V101H553.039V112.083H567.872C570.65 112.083 573.289 111.917 575.789 111.583C578.289 111.194 580.344 110.667 581.956 110V120.25ZM596.789 126.75V153.833H543.039V126.75H596.789ZM584.789 143.417V137.167H555.122V143.417H584.789ZM651.197 111.083V100.25H609.197V89.8333H663.363V111.083H651.197ZM605.613 123.833V113.5H667.197V123.833H605.613ZM609.197 153.833V127.667H663.697V153.833H609.197ZM651.697 137.583H621.113V144H651.697V137.583ZM745.251 112.75V124.5H733.251V89.8333H745.251V100.5H752.417V112.75H745.251ZM725.501 99.25C725.501 107.639 722.223 113.833 715.667 117.833C709.167 121.778 700.362 123.75 689.251 123.75V113.083C696.529 112.972 702.334 111.944 706.667 110C711.001 108 713.167 105.333 713.167 102V101.083H689.251V90.5833H725.501V99.25ZM745.251 126.75V153.833H691.501V126.75H745.251ZM733.251 143.417V137.167H703.584V143.417H733.251ZM794.992 121.833V110.667H801.409V105.667H794.992V94.5H801.409V89.8333H813.242V137.25H801.409V121.833H794.992ZM755.825 127V90.5833H792.075V127H755.825ZM767.659 101.25V116.25H780.242V101.25H767.659ZM814.075 153.833H758.825V131.417H771.075V142.5H814.075V153.833Z" fill="#333333"/>
<path d="M3.68343 102.333V90.5833H58.3501V120.833H45.8501V102.333H3.68343ZM36.9334 136.5V155.333H24.4334V136.5H0.266764V124.667H61.8501V136.5H36.9334ZM126.841 153.833H115.591V125.333H110.508V152.75H99.4246V90.0833H110.508V113.333H115.591V89.8333H126.841V153.833ZM95.008 91.3333V150.833H67.4246V91.3333H95.008ZM83.8413 139.417V102.75H78.5913V139.417H83.8413ZM177.833 111.083V100.25H135.833V89.8333H189.999V111.083H177.833ZM132.249 123.833V113.5H193.833V123.833H132.249ZM135.833 153.833V127.667H190.333V153.833H135.833ZM178.333 137.583H147.749V144H178.333V137.583ZM258.824 129.083H247.574V114.333H242.49V128.417H231.407V90.0833H242.49V102.5H247.574V89.8333H258.824V129.083ZM213.24 128.167C208.629 128.167 204.99 126.5 202.324 123.167C199.713 119.778 198.407 115.028 198.407 108.917C198.407 102.806 199.713 98.1111 202.324 94.8333C204.99 91.5 208.629 89.8333 213.24 89.8333C217.852 89.8333 221.463 91.5 224.074 94.8333C226.74 98.1111 228.074 102.806 228.074 108.917C228.074 115.028 226.74 119.778 224.074 123.167C221.463 126.5 217.852 128.167 213.24 128.167ZM213.24 100.083C210.685 100.083 209.407 103.028 209.407 108.917C209.407 114.861 210.685 117.833 213.24 117.833C215.74 117.833 216.99 114.861 216.99 108.917C216.99 105.917 216.685 103.694 216.074 102.25C215.463 100.806 214.518 100.083 213.24 100.083ZM258.824 131.333V154.583H246.99V142.083H203.24V131.333H258.824ZM477.214 124.417V90.5833H489.048V96.3333H519.881V90.5833H531.714V124.417H477.214ZM519.881 107.333H489.048V113.25H519.881V107.333ZM510.631 141V155.333H498.298V141H473.631V129.417H535.214V141H510.631ZM596.789 112.75V124.5H584.789V89.8333H596.789V100.5H603.956V112.75H596.789ZM581.956 120.25C580.4 120.972 578.289 121.528 575.622 121.917C573.011 122.306 570.261 122.5 567.372 122.5H540.956V90.5833H578.456V101H553.039V112.083H567.872C570.65 112.083 573.289 111.917 575.789 111.583C578.289 111.194 580.344 110.667 581.956 110V120.25ZM596.789 126.75V153.833H543.039V126.75H596.789ZM584.789 143.417V137.167H555.122V143.417H584.789ZM651.197 111.083V100.25H609.197V89.8333H663.363V111.083H651.197ZM605.613 123.833V113.5H667.197V123.833H605.613ZM609.197 153.833V127.667H663.697V153.833H609.197ZM651.697 137.583H621.113V144H651.697V137.583ZM745.251 112.75V124.5H733.251V89.8333H745.251V100.5H752.417V112.75H745.251ZM725.501 99.25C725.501 107.639 722.223 113.833 715.667 117.833C709.167 121.778 700.362 123.75 689.251 123.75V113.083C696.529 112.972 702.334 111.944 706.667 110C711.001 108 713.167 105.333 713.167 102V101.083H689.251V90.5833H725.501V99.25ZM745.251 126.75V153.833H691.501V126.75H745.251ZM733.251 143.417V137.167H703.584V143.417H733.251ZM794.992 121.833V110.667H801.409V105.667H794.992V94.5H801.409V89.8333H813.242V137.25H801.409V121.833H794.992ZM755.825 127V90.5833H792.075V127H755.825ZM767.659 101.25V116.25H780.242V101.25H767.659ZM814.075 153.833H758.825V131.417H771.075V142.5H814.075V153.833Z" fill="#01A69F"/>
<path d="M302.044 114.583C310.267 114.583 316.322 116.222 320.211 119.5C324.156 122.778 326.128 127.167 326.128 132.667C326.128 136.222 325.239 139.472 323.461 142.417C321.683 145.306 318.961 147.639 315.294 149.417C311.683 151.139 307.211 152 301.878 152C297.767 152 293.711 151.472 289.711 150.417C285.767 149.306 282.406 147.75 279.628 145.75L284.961 135.417C287.183 137.083 289.739 138.389 292.628 139.333C295.517 140.222 298.489 140.667 301.544 140.667C304.933 140.667 307.6 140 309.544 138.667C311.489 137.333 312.461 135.472 312.461 133.083C312.461 130.583 311.433 128.694 309.378 127.417C307.378 126.139 303.878 125.5 298.878 125.5H283.961L286.961 92.6667H322.544V103.5H298.211L297.294 114.583H302.044ZM353.569 152C348.736 152 344.43 150.806 340.652 148.417C336.874 146.028 333.902 142.583 331.736 138.083C329.624 133.528 328.569 128.111 328.569 121.833C328.569 115.556 329.624 110.167 331.736 105.667C333.902 101.111 336.874 97.6389 340.652 95.25C344.43 92.8611 348.736 91.6667 353.569 91.6667C358.402 91.6667 362.708 92.8611 366.486 95.25C370.263 97.6389 373.208 101.111 375.319 105.667C377.486 110.167 378.569 115.556 378.569 121.833C378.569 128.111 377.486 133.528 375.319 138.083C373.208 142.583 370.263 146.028 366.486 148.417C362.708 150.806 358.402 152 353.569 152ZM353.569 140.583C357.124 140.583 359.902 139.056 361.902 136C363.958 132.944 364.986 128.222 364.986 121.833C364.986 115.444 363.958 110.722 361.902 107.667C359.902 104.611 357.124 103.083 353.569 103.083C350.069 103.083 347.291 104.611 345.236 107.667C343.236 110.722 342.236 115.444 342.236 121.833C342.236 128.222 343.236 132.944 345.236 136C347.291 139.056 350.069 140.583 353.569 140.583ZM395.343 125.833C392.232 125.833 389.454 125.111 387.01 123.667C384.565 122.167 382.649 120.083 381.26 117.417C379.871 114.694 379.177 111.583 379.177 108.083C379.177 104.583 379.871 101.5 381.26 98.8333C382.649 96.1111 384.565 94.0278 387.01 92.5833C389.454 91.0833 392.232 90.3333 395.343 90.3333C398.454 90.3333 401.232 91.0556 403.677 92.5C406.121 93.9444 408.01 96.0278 409.343 98.75C410.732 101.417 411.427 104.528 411.427 108.083C411.427 111.639 410.732 114.778 409.343 117.5C408.01 120.167 406.121 122.222 403.677 123.667C401.232 125.111 398.454 125.833 395.343 125.833ZM444.843 91L402.76 152.667H388.76L430.843 91H444.843ZM395.343 115.667C396.732 115.667 397.815 115.056 398.593 113.833C399.371 112.556 399.76 110.639 399.76 108.083C399.76 105.528 399.371 103.639 398.593 102.417C397.815 101.139 396.732 100.5 395.343 100.5C394.01 100.5 392.927 101.139 392.093 102.417C391.315 103.639 390.927 105.528 390.927 108.083C390.927 110.639 391.315 112.556 392.093 113.833C392.927 115.056 394.01 115.667 395.343 115.667ZM438.26 153.333C435.149 153.333 432.371 152.583 429.927 151.083C427.482 149.639 425.565 147.583 424.177 144.917C422.843 142.194 422.177 139.083 422.177 135.583C422.177 132.083 422.843 129 424.177 126.333C425.565 123.611 427.482 121.528 429.927 120.083C432.371 118.583 435.149 117.833 438.26 117.833C441.371 117.833 444.149 118.583 446.593 120.083C449.038 121.528 450.954 123.611 452.343 126.333C453.732 129 454.427 132.083 454.427 135.583C454.427 139.083 453.732 142.194 452.343 144.917C450.954 147.583 449.038 149.639 446.593 151.083C444.149 152.583 441.371 153.333 438.26 153.333ZM438.26 143.167C439.593 143.167 440.649 142.556 441.427 141.333C442.26 140.056 442.677 138.139 442.677 135.583C442.677 133.028 442.26 131.139 441.427 129.917C440.649 128.639 439.593 128 438.26 128C436.927 128 435.843 128.639 435.01 129.917C434.232 131.139 433.843 133.028 433.843 135.583C433.843 138.139 434.232 140.056 435.01 141.333C435.843 142.556 436.927 143.167 438.26 143.167Z" fill="#333333"/>
<path d="M302.044 114.583C310.267 114.583 316.322 116.222 320.211 119.5C324.156 122.778 326.128 127.167 326.128 132.667C326.128 136.222 325.239 139.472 323.461 142.417C321.683 145.306 318.961 147.639 315.294 149.417C311.683 151.139 307.211 152 301.878 152C297.767 152 293.711 151.472 289.711 150.417C285.767 149.306 282.406 147.75 279.628 145.75L284.961 135.417C287.183 137.083 289.739 138.389 292.628 139.333C295.517 140.222 298.489 140.667 301.544 140.667C304.933 140.667 307.6 140 309.544 138.667C311.489 137.333 312.461 135.472 312.461 133.083C312.461 130.583 311.433 128.694 309.378 127.417C307.378 126.139 303.878 125.5 298.878 125.5H283.961L286.961 92.6667H322.544V103.5H298.211L297.294 114.583H302.044ZM353.569 152C348.736 152 344.43 150.806 340.652 148.417C336.874 146.028 333.902 142.583 331.736 138.083C329.624 133.528 328.569 128.111 328.569 121.833C328.569 115.556 329.624 110.167 331.736 105.667C333.902 101.111 336.874 97.6389 340.652 95.25C344.43 92.8611 348.736 91.6667 353.569 91.6667C358.402 91.6667 362.708 92.8611 366.486 95.25C370.263 97.6389 373.208 101.111 375.319 105.667C377.486 110.167 378.569 115.556 378.569 121.833C378.569 128.111 377.486 133.528 375.319 138.083C373.208 142.583 370.263 146.028 366.486 148.417C362.708 150.806 358.402 152 353.569 152ZM353.569 140.583C357.124 140.583 359.902 139.056 361.902 136C363.958 132.944 364.986 128.222 364.986 121.833C364.986 115.444 363.958 110.722 361.902 107.667C359.902 104.611 357.124 103.083 353.569 103.083C350.069 103.083 347.291 104.611 345.236 107.667C343.236 110.722 342.236 115.444 342.236 121.833C342.236 128.222 343.236 132.944 345.236 136C347.291 139.056 350.069 140.583 353.569 140.583ZM395.343 125.833C392.232 125.833 389.454 125.111 387.01 123.667C384.565 122.167 382.649 120.083 381.26 117.417C379.871 114.694 379.177 111.583 379.177 108.083C379.177 104.583 379.871 101.5 381.26 98.8333C382.649 96.1111 384.565 94.0278 387.01 92.5833C389.454 91.0833 392.232 90.3333 395.343 90.3333C398.454 90.3333 401.232 91.0556 403.677 92.5C406.121 93.9444 408.01 96.0278 409.343 98.75C410.732 101.417 411.427 104.528 411.427 108.083C411.427 111.639 410.732 114.778 409.343 117.5C408.01 120.167 406.121 122.222 403.677 123.667C401.232 125.111 398.454 125.833 395.343 125.833ZM444.843 91L402.76 152.667H388.76L430.843 91H444.843ZM395.343 115.667C396.732 115.667 397.815 115.056 398.593 113.833C399.371 112.556 399.76 110.639 399.76 108.083C399.76 105.528 399.371 103.639 398.593 102.417C397.815 101.139 396.732 100.5 395.343 100.5C394.01 100.5 392.927 101.139 392.093 102.417C391.315 103.639 390.927 105.528 390.927 108.083C390.927 110.639 391.315 112.556 392.093 113.833C392.927 115.056 394.01 115.667 395.343 115.667ZM438.26 153.333C435.149 153.333 432.371 152.583 429.927 151.083C427.482 149.639 425.565 147.583 424.177 144.917C422.843 142.194 422.177 139.083 422.177 135.583C422.177 132.083 422.843 129 424.177 126.333C425.565 123.611 427.482 121.528 429.927 120.083C432.371 118.583 435.149 117.833 438.26 117.833C441.371 117.833 444.149 118.583 446.593 120.083C449.038 121.528 450.954 123.611 452.343 126.333C453.732 129 454.427 132.083 454.427 135.583C454.427 139.083 453.732 142.194 452.343 144.917C450.954 147.583 449.038 149.639 446.593 151.083C444.149 152.583 441.371 153.333 438.26 153.333ZM438.26 143.167C439.593 143.167 440.649 142.556 441.427 141.333C442.26 140.056 442.677 138.139 442.677 135.583C442.677 133.028 442.26 131.139 441.427 129.917C440.649 128.639 439.593 128 438.26 128C436.927 128 435.843 128.639 435.01 129.917C434.232 131.139 433.843 133.028 433.843 135.583C433.843 138.139 434.232 140.056 435.01 141.333C435.843 142.556 436.927 143.167 438.26 143.167Z" fill="#01A69F"/>
<path d="M302.044 114.583C310.267 114.583 316.322 116.222 320.211 119.5C324.156 122.778 326.128 127.167 326.128 132.667C326.128 136.222 325.239 139.472 323.461 142.417C321.683 145.306 318.961 147.639 315.294 149.417C311.683 151.139 307.211 152 301.878 152C297.767 152 293.711 151.472 289.711 150.417C285.767 149.306 282.406 147.75 279.628 145.75L284.961 135.417C287.183 137.083 289.739 138.389 292.628 139.333C295.517 140.222 298.489 140.667 301.544 140.667C304.933 140.667 307.6 140 309.544 138.667C311.489 137.333 312.461 135.472 312.461 133.083C312.461 130.583 311.433 128.694 309.378 127.417C307.378 126.139 303.878 125.5 298.878 125.5H283.961L286.961 92.6667H322.544V103.5H298.211L297.294 114.583H302.044ZM353.569 152C348.736 152 344.43 150.806 340.652 148.417C336.874 146.028 333.902 142.583 331.736 138.083C329.624 133.528 328.569 128.111 328.569 121.833C328.569 115.556 329.624 110.167 331.736 105.667C333.902 101.111 336.874 97.6389 340.652 95.25C344.43 92.8611 348.736 91.6667 353.569 91.6667C358.402 91.6667 362.708 92.8611 366.486 95.25C370.263 97.6389 373.208 101.111 375.319 105.667C377.486 110.167 378.569 115.556 378.569 121.833C378.569 128.111 377.486 133.528 375.319 138.083C373.208 142.583 370.263 146.028 366.486 148.417C362.708 150.806 358.402 152 353.569 152ZM353.569 140.583C357.124 140.583 359.902 139.056 361.902 136C363.958 132.944 364.986 128.222 364.986 121.833C364.986 115.444 363.958 110.722 361.902 107.667C359.902 104.611 357.124 103.083 353.569 103.083C350.069 103.083 347.291 104.611 345.236 107.667C343.236 110.722 342.236 115.444 342.236 121.833C342.236 128.222 343.236 132.944 345.236 136C347.291 139.056 350.069 140.583 353.569 140.583ZM395.343 125.833C392.232 125.833 389.454 125.111 387.01 123.667C384.565 122.167 382.649 120.083 381.26 117.417C379.871 114.694 379.177 111.583 379.177 108.083C379.177 104.583 379.871 101.5 381.26 98.8333C382.649 96.1111 384.565 94.0278 387.01 92.5833C389.454 91.0833 392.232 90.3333 395.343 90.3333C398.454 90.3333 401.232 91.0556 403.677 92.5C406.121 93.9444 408.01 96.0278 409.343 98.75C410.732 101.417 411.427 104.528 411.427 108.083C411.427 111.639 410.732 114.778 409.343 117.5C408.01 120.167 406.121 122.222 403.677 123.667C401.232 125.111 398.454 125.833 395.343 125.833ZM444.843 91L402.76 152.667H388.76L430.843 91H444.843ZM395.343 115.667C396.732 115.667 397.815 115.056 398.593 113.833C399.371 112.556 399.76 110.639 399.76 108.083C399.76 105.528 399.371 103.639 398.593 102.417C397.815 101.139 396.732 100.5 395.343 100.5C394.01 100.5 392.927 101.139 392.093 102.417C391.315 103.639 390.927 105.528 390.927 108.083C390.927 110.639 391.315 112.556 392.093 113.833C392.927 115.056 394.01 115.667 395.343 115.667ZM438.26 153.333C435.149 153.333 432.371 152.583 429.927 151.083C427.482 149.639 425.565 147.583 424.177 144.917C422.843 142.194 422.177 139.083 422.177 135.583C422.177 132.083 422.843 129 424.177 126.333C425.565 123.611 427.482 121.528 429.927 120.083C432.371 118.583 435.149 117.833 438.26 117.833C441.371 117.833 444.149 118.583 446.593 120.083C449.038 121.528 450.954 123.611 452.343 126.333C453.732 129 454.427 132.083 454.427 135.583C454.427 139.083 453.732 142.194 452.343 144.917C450.954 147.583 449.038 149.639 446.593 151.083C444.149 152.583 441.371 153.333 438.26 153.333ZM438.26 143.167C439.593 143.167 440.649 142.556 441.427 141.333C442.26 140.056 442.677 138.139 442.677 135.583C442.677 133.028 442.26 131.139 441.427 129.917C440.649 128.639 439.593 128 438.26 128C436.927 128 435.843 128.639 435.01 129.917C434.232 131.139 433.843 133.028 433.843 135.583C433.843 138.139 434.232 140.056 435.01 141.333C435.843 142.556 436.927 143.167 438.26 143.167Z" fill="#FD3941"/>
</svg>
