<svg width="941" height="435" viewBox="0 0 941 435" fill="none" xmlns="http://www.w3.org/2000/svg">
<path d="M470.713 223.655C470.713 229.361 475.256 233.968 480.883 233.968C486.51 233.968 491.053 229.361 491.053 223.655C491.053 222.52 490.883 221.386 490.51 220.389L490.544 220.354C504.171 221.833 514.782 233.521 514.782 247.718H446.984C446.984 233.521 457.595 221.833 471.222 220.354L471.256 220.389C470.883 221.386 470.713 222.52 470.713 223.655Z" fill="#B4DD7F"/>
<path d="M491.053 223.654C491.053 229.361 486.51 233.967 480.883 233.967C475.256 233.967 470.713 229.361 470.713 223.654C470.713 222.52 470.883 221.386 471.256 220.389C471.493 219.632 471.832 218.91 472.239 218.257C474.849 219.529 477.798 220.217 480.883 220.217C483.968 220.217 486.917 219.529 489.527 218.257C489.934 218.91 490.273 219.632 490.51 220.389C490.883 221.386 491.053 222.52 491.053 223.654Z" fill="#F0D0B4"/>
<path d="M501.222 196.152V199.59C501.222 207.84 496.442 214.956 489.527 218.256C486.917 219.528 483.967 220.216 480.883 220.216C477.798 220.216 474.849 219.528 472.238 218.256C465.323 214.956 460.543 207.84 460.543 199.59V196.152C460.543 186.664 468.137 178.964 477.493 178.964H484.272C493.628 178.964 501.222 186.664 501.222 196.152Z" fill="#434A54"/>
<path d="M460.544 65.5217L457.256 66.3467C451.357 67.8593 447.188 73.1533 446.984 79.2724H443.594C440.984 79.2724 438.645 80.2693 436.849 81.9194L436.815 81.885C436.815 81.885 435.967 79.513 435.12 76.2816C434.272 73.0846 433.425 68.9594 433.425 65.5217C433.425 61.4309 435.289 57.6838 438.306 55.2087C439.73 54.0399 441.425 53.1805 443.289 52.6992L446.984 51.771C451.222 45.3426 458.34 41.458 466.001 41.458H474.984C482.239 41.458 488.781 44.4488 493.527 49.2615C498.273 54.0743 501.222 60.709 501.222 68.0656C501.222 70.9532 500.781 73.7721 499.866 76.4879L498.036 82.0913C496.239 80.3724 493.764 79.2724 491.052 79.2724H487.663C487.663 75.4909 484.612 72.397 480.883 72.397H467.323C465.459 72.397 463.764 71.6408 462.544 70.3688C461.289 69.1313 460.544 67.4124 460.544 65.5217Z" fill="#434A54"/>
<path d="M451.052 144.036L460.544 165.212H419.865V154.005C419.865 147.783 422.204 142.008 426.136 137.711C429.459 134.033 433.899 131.42 438.95 130.389L444.442 129.289L451.052 144.036Z" fill="#FCD770"/>
<path d="M514.781 154.005V165.212H474.103L483.595 144.036L490.205 129.289L495.696 130.389C506.781 132.657 514.781 142.524 514.781 154.005Z" fill="#FCD770"/>
<path d="M470.713 144.587L474.103 165.213H460.543L463.933 144.587H470.713Z" fill="#FF826E"/>
<path d="M473.561 135.889L470.713 144.587H463.933L461.086 135.889L467.323 130.836L473.561 135.889Z" fill="#FC6E51"/>
<path d="M463.934 144.587L460.544 165.213L451.052 144.037L461.086 135.89L463.934 144.587Z" fill="#B4DD7F"/>
<path d="M473.561 135.89L483.595 144.037L474.103 165.213L470.713 144.587L473.561 135.89Z" fill="#B4DD7F"/>
<path d="M453.798 123.996L467.323 130.837L461.086 135.89L451.052 144.037L444.442 129.29L447.12 128.74C449.967 128.155 452.34 126.402 453.798 123.996Z" fill="#A0D468"/>
<path d="M467.323 130.837L480.849 123.996C482.306 126.402 484.679 128.155 487.527 128.74L490.205 129.29L483.595 144.037L473.561 135.89L467.323 130.837Z" fill="#A0D468"/>
<path d="M480.849 123.996L467.323 130.837L453.798 123.996C454.408 122.999 454.849 121.864 455.086 120.661L457.018 110.829L457.052 110.795C460.069 112.617 463.561 113.648 467.323 113.648C471.086 113.648 474.578 112.617 477.595 110.795L477.629 110.829L479.561 120.661C479.798 121.864 480.239 122.999 480.849 123.996Z" fill="#F0D0B4"/>
<path d="M498.239 96.8733C496.408 98.7297 493.866 99.8985 491.052 99.8985H486.51C487.256 97.7328 487.662 95.4295 487.662 93.0231V79.2725H491.052C493.764 79.2725 496.239 80.3725 498.035 82.0913C500.001 83.9821 501.222 86.6291 501.222 89.5855C501.222 92.4387 500.069 95.017 498.239 96.8733Z" fill="#F0D0B4"/>
<path d="M487.663 79.2722V93.0228C487.663 95.4292 487.256 97.7325 486.51 99.8982C484.883 104.505 481.697 108.389 477.595 110.796C474.578 112.618 471.086 113.649 467.324 113.649C463.561 113.649 460.069 112.618 457.052 110.796C455.527 109.936 454.171 108.836 452.951 107.599C450.815 105.433 449.154 102.82 448.137 99.8982C447.391 97.7325 446.984 95.4292 446.984 93.0228V79.6847C446.984 79.5472 446.984 79.4097 446.984 79.2722C447.188 73.1531 451.357 67.8591 457.256 66.3465L460.544 65.5215C460.544 67.4122 461.29 69.131 462.544 70.3686C463.764 71.6405 465.459 72.3968 467.324 72.3968H480.883C484.612 72.3968 487.663 75.4907 487.663 79.2722Z" fill="#F0D0B4"/>
<path d="M446.984 93.0231C446.984 95.4295 447.391 97.7328 448.137 99.8985H443.594C440.781 99.8985 438.238 98.7297 436.408 96.8733C434.577 95.017 433.425 92.4387 433.425 89.5855C433.425 86.5259 434.747 83.7414 436.849 81.9195C438.645 80.2694 440.984 79.2725 443.594 79.2725H446.984V79.685V93.0231Z" fill="#F0D0B4"/>
<path d="M475.984 241.718H408.187C408.187 226.523 420.323 214.216 435.306 214.216H442.086H448.865C463.848 214.216 475.984 226.523 475.984 241.718Z" fill="#E6E9ED"/>
<path d="M408.187 241.718H340.39C340.39 234.12 343.441 227.245 348.322 222.26C353.237 217.31 360.017 214.216 367.509 214.216H374.288H381.068C396.051 214.216 408.187 226.523 408.187 241.718Z" fill="#B4DD7F"/>
<path d="M462.425 190.152V193.59C462.425 204.969 453.306 214.216 442.086 214.216C430.865 214.216 421.747 204.969 421.747 193.59V190.152C421.747 180.664 429.34 172.964 438.696 172.964H445.476C454.832 172.964 462.425 180.664 462.425 190.152Z" fill="#434A54"/>
<path d="M394.628 186.715V193.59C394.628 204.969 385.509 214.216 374.288 214.216C363.068 214.216 353.949 204.969 353.949 193.59V176.402C353.949 174.511 355.475 172.964 357.339 172.964H381.068C388.56 172.964 394.628 179.117 394.628 186.715Z" fill="#B27946"/>
<path d="M455.137 131.713C451.205 136.01 448.866 141.785 448.866 148.007V159.214H435.306L428.526 131.713H455.137Z" fill="#CF9E76"/>
<path d="M398.018 131.713L391.238 159.214H374.289L381.068 131.713H398.018Z" fill="#CF9E76"/>
<path d="M477.137 93.8977C478.154 96.8197 479.815 99.4324 481.95 101.598C483.171 102.836 484.527 103.936 486.052 104.795L486.018 104.83L484.086 114.661C483.849 115.864 483.408 116.999 482.798 117.996C481.34 120.402 478.967 122.155 476.12 122.74L473.442 123.29L467.95 124.39C462.899 125.421 458.458 128.034 455.136 131.712H428.526H398.017H381.068H347.169V49.208H467.306C464.289 51.6831 462.425 55.4302 462.425 59.521C462.425 62.9587 463.272 67.0839 464.12 70.2809C464.967 73.5123 465.814 75.8843 465.814 75.8843L465.848 75.9187C463.747 77.7407 462.425 80.5252 462.425 83.5847C462.425 86.438 463.577 89.0162 465.408 90.8726C467.238 92.7289 469.781 93.8977 472.594 93.8977H477.137Z" fill="#E6E9ED"/>
<path d="M448.865 69.8345V97.3358H421.747V83.5852H414.967V69.8345H448.865Z" fill="#FF826E"/>
<path d="M421.747 97.3356V117.962H381.068V97.3356H394.628V83.585H414.967H421.747V97.3356Z" fill="#FFEAA7"/>
<path d="M394.628 83.584V97.3347H381.068H360.729V62.958H394.628V83.584Z" fill="#FF826E"/>
<path d="M525.371 121.038L517.195 119.381C514.503 118.834 512.412 116.716 511.876 113.987L510.374 106.372C513.503 104.028 516.039 100.931 517.73 97.3382H520.052C527.53 97.3382 533.612 91.171 533.612 83.5875C533.612 80.4902 532.561 77.661 530.849 75.3612L532.09 71.5866C533.1 68.5065 533.612 65.3129 533.612 62.0746C533.612 45.5016 520.317 32.019 503.971 32.019H494.984C486.649 32.019 478.879 36.0033 473.94 42.7446L471.469 43.3737C469.547 43.8584 467.791 44.6903 466.225 45.7697H343.78V135.149H376.726L371.641 155.775H337V162.65H547.171V147.999C547.171 134.936 538.002 123.599 525.371 121.038ZM425.879 135.149L430.963 155.775H395.58L400.665 135.149H425.879ZM432.869 135.149H448.662C446.635 139.017 445.475 143.396 445.475 147.999V155.775H437.953L432.869 135.149ZM452.255 147.999C452.255 138.202 459.13 129.697 468.604 127.775L471.469 127.194L484.279 155.775H452.255V147.999ZM483.761 122.309L490.069 125.506L481.337 132.592L478.249 125.702C480.361 125.022 482.245 123.86 483.761 122.309ZM497.269 135.149H495.378L494.042 131.089L496.323 129.24L498.605 131.089L497.269 135.149ZM489.452 138.865L488.028 147.525L484.232 139.051L488.401 135.668L489.452 138.865ZM495.805 142.024H496.842L499.103 155.775H493.544L495.805 142.024ZM503.195 138.865L504.245 135.668L508.415 139.051L504.618 147.525L503.195 138.865ZM514.398 125.706L511.31 132.595L502.578 125.51L508.886 122.313C510.401 123.86 512.286 125.022 514.398 125.706ZM505.229 115.331C505.296 115.675 505.412 116.001 505.503 116.335L496.323 120.993L487.14 116.338C487.232 116.005 487.347 115.678 487.415 115.334L488.523 109.724C490.971 110.59 493.588 111.085 496.323 111.085C499.059 111.085 501.676 110.59 504.123 109.721L505.229 115.331ZM513.273 87.0218C513.273 96.4994 505.669 104.21 496.323 104.21C486.978 104.21 479.374 96.4994 479.374 87.0218V73.6939C479.374 68.9706 482.52 64.8694 487.028 63.7006C488.611 67.3102 492.181 69.8334 496.323 69.8334H509.883C511.751 69.8334 513.273 71.3735 513.273 73.2711V87.0218ZM520.052 90.4594H519.781C519.94 89.3319 520.052 88.1906 520.052 87.0218V76.7087C523.791 76.7087 526.832 79.7923 526.832 83.5841C526.832 87.3758 523.791 90.4594 520.052 90.4594ZM473.113 50.0393L478.076 48.7811L478.801 47.6776C482.418 42.1774 488.469 38.8944 494.984 38.8944H503.971C516.578 38.8944 526.832 49.2933 526.832 62.0746C526.832 64.5703 526.435 67.0351 525.659 69.4071L525.178 70.8681C523.595 70.2116 521.866 69.8334 520.052 69.8334H519.429C518.025 65.8423 514.296 62.9581 509.883 62.9581H496.323C494.456 62.9581 492.934 61.418 492.934 59.5204C492.934 57.6228 494.456 56.0827 496.323 56.0827H499.713V49.2074H496.323C491.666 49.2074 487.727 52.401 486.53 56.7393L485.432 57.0178C479.144 58.6129 474.486 63.6456 473.079 69.8334H472.594C470.889 69.8334 469.276 70.1909 467.774 70.7719C466.876 67.6058 465.815 63.1128 465.815 59.5204C465.815 55.0274 468.815 51.1325 473.113 50.0393ZM472.594 76.7087V87.0218C472.594 88.1906 472.706 89.3319 472.866 90.4594H472.594C468.855 90.4594 465.815 87.3758 465.815 83.5841C465.815 79.7923 468.855 76.7087 472.594 76.7087ZM350.559 52.6451H460.554C459.604 54.7592 459.035 57.0762 459.035 59.5204C459.035 65.0482 460.95 71.8513 461.987 75.124C460.167 77.465 459.035 80.3767 459.035 83.5841C459.035 91.1676 465.116 97.3348 472.594 97.3348H474.916C476.608 100.927 479.144 104.024 482.272 106.369L480.771 113.983C480.232 116.713 478.144 118.831 475.452 119.377L467.276 121.034C462.032 122.096 457.404 124.688 453.76 128.27H350.559V52.6451ZM383.716 135.149H393.675L388.59 155.775H378.631L383.716 135.149ZM540.392 155.775H508.368L521.178 127.194L524.042 127.775C533.517 129.697 540.392 138.205 540.392 147.999V155.775Z" fill="black"/>
<path d="M452.255 66.3958H411.577V80.1465H398.018V59.5205H357.339V100.773H377.679V121.399H425.137V100.773H452.255V66.3958ZM364.119 66.3958H391.238V93.8972H364.119V66.3958ZM418.357 114.523H384.458V100.773H398.018V87.0219H418.357V114.523ZM445.476 93.8972H425.137V80.1465H418.357V73.2712H445.476V93.8972Z" fill="black"/>
<path d="M525.1 211.988C530.385 207.474 533.612 200.761 533.612 193.59V190.152C533.612 178.777 524.49 169.526 513.273 169.526H506.493C495.276 169.526 486.154 178.777 486.154 190.152V193.59C486.154 200.764 489.384 207.481 494.662 211.988C486.449 214.363 479.744 220.08 475.96 227.561C472.147 220.087 465.428 214.391 457.32 212.012C462.506 207.595 465.815 200.977 465.815 193.59V190.152C465.815 178.777 456.693 169.526 445.475 169.526H438.696C427.479 169.526 418.357 178.777 418.357 190.152V193.59C418.357 200.977 421.665 207.595 426.852 212.012C418.733 214.394 412.011 220.097 408.201 227.585C404.394 220.097 397.665 214.377 389.546 211.991C394.719 207.574 398.017 200.967 398.017 193.59V186.714C398.017 177.237 390.414 169.526 381.068 169.526H357.339C353.6 169.526 350.559 172.609 350.559 176.401V193.59C350.559 200.977 353.868 207.595 359.054 212.012C346.336 215.742 337 227.633 337 241.717V245.155H547.171V241.717C547.171 227.667 537.985 215.714 525.1 211.988ZM516.663 217.653C516.663 221.445 513.622 224.529 509.883 224.529C506.144 224.529 503.103 221.445 503.103 217.653C503.103 217.309 503.188 216.99 503.235 216.66C505.374 217.292 507.615 217.653 509.883 217.653C512.151 217.653 514.395 217.292 516.53 216.66C516.578 216.99 516.663 217.309 516.663 217.653ZM492.934 193.59V190.152C492.934 182.568 499.015 176.401 506.493 176.401H513.273C520.751 176.401 526.832 182.568 526.832 190.152V193.59C526.832 200.214 523.005 206.319 517.056 209.155C512.71 211.276 507.083 211.29 502.683 209.142C496.761 206.319 492.934 200.214 492.934 193.59ZM425.136 193.59V190.152C425.136 182.568 431.218 176.401 438.696 176.401H445.475C452.954 176.401 459.035 182.568 459.035 190.152V193.59C459.035 203.067 451.431 210.778 442.086 210.778C432.74 210.778 425.136 203.067 425.136 193.59ZM435.306 217.653H448.865C460.794 217.653 470.669 226.639 472.323 238.279H411.848C413.502 226.639 423.377 217.653 435.306 217.653ZM357.339 193.59V176.401H381.068C386.675 176.401 391.238 181.028 391.238 186.714V193.59C391.238 203.067 383.634 210.778 374.288 210.778C364.943 210.778 357.339 203.067 357.339 193.59ZM344.02 238.279C345.671 226.632 355.573 217.653 367.509 217.653H381.068C393.004 217.653 402.906 226.632 404.556 238.279H344.02ZM479.638 238.279C480.954 228.919 487.53 221.246 496.418 218.623C496.92 225.746 502.734 231.404 509.883 231.404C517.029 231.404 522.842 225.749 523.344 218.63C532.236 221.253 538.839 228.919 540.151 238.279H479.638Z" fill="black"/>
<path d="M370.059 280.356V274.178H399.482V296.667H392.948V280.356H370.059ZM401.215 306.311H368.37V300.133H373.348V288.267H379.837V300.133H383.215V288.267H389.659V300.133H401.215V306.311ZM420.01 287.778C415.506 287.778 411.892 287.156 409.166 285.911C406.469 284.637 405.121 282.756 405.121 280.267C405.121 277.778 406.469 275.911 409.166 274.667C411.892 273.422 415.506 272.8 420.01 272.8C424.514 272.8 428.114 273.422 430.81 274.667C433.536 275.911 434.899 277.778 434.899 280.267C434.899 282.756 433.536 284.637 430.81 285.911C428.114 287.156 424.514 287.778 420.01 287.778ZM420.01 277.956C417.551 277.956 415.581 278.163 414.099 278.578C412.647 278.993 411.921 279.556 411.921 280.267C411.921 281.037 412.647 281.63 414.099 282.044C415.551 282.43 417.521 282.622 420.01 282.622C422.499 282.622 424.455 282.43 425.877 282.044C427.329 281.63 428.055 281.037 428.055 280.267C428.055 279.556 427.329 278.993 425.877 278.578C424.425 278.163 422.469 277.956 420.01 277.956ZM429.299 296.889H434.543V307.911H428.01V302.222H405.343V296.889H410.721V294.311H403.566V288.978H436.41V294.311H429.299V296.889ZM417.032 294.311V296.889H422.943V294.311H417.032ZM446.795 280.311V275.422H452.483V272.844H458.839V275.422H464.217V280.311H446.795ZM465.55 293.244V273.511H471.372V280.311H473.995V273.378H479.861V294.444H473.995V286.311H471.372V293.244H465.55ZM463.772 287.511C463.772 289.437 463.002 290.993 461.461 292.178C459.95 293.333 458.054 293.911 455.772 293.911C453.461 293.911 451.535 293.333 449.995 292.178C448.483 290.993 447.728 289.437 447.728 287.511C447.728 285.585 448.483 284.044 449.995 282.889C451.535 281.704 453.461 281.111 455.772 281.111C458.054 281.111 459.95 281.704 461.461 282.889C463.002 284.044 463.772 285.585 463.772 287.511ZM453.328 287.511C453.328 288.044 453.55 288.474 453.995 288.8C454.469 289.126 455.061 289.289 455.772 289.289C456.454 289.289 457.017 289.126 457.461 288.8C457.935 288.474 458.172 288.044 458.172 287.511C458.172 286.978 457.935 286.563 457.461 286.267C457.017 285.941 456.454 285.778 455.772 285.778C455.061 285.778 454.469 285.941 453.995 286.267C453.55 286.563 453.328 286.978 453.328 287.511ZM464.75 294.489C469.432 294.489 473.15 295.022 475.906 296.089C478.691 297.156 480.083 298.859 480.083 301.2C480.083 303.57 478.691 305.274 475.906 306.311C473.15 307.378 469.432 307.911 464.75 307.911C460.069 307.911 456.335 307.378 453.55 306.311C450.795 305.274 449.417 303.57 449.417 301.2C449.417 298.859 450.795 297.156 453.55 296.089C456.335 295.022 460.069 294.489 464.75 294.489ZM464.75 302.889C467.239 302.889 469.283 302.756 470.883 302.489C472.483 302.193 473.283 301.763 473.283 301.2C473.283 300.637 472.483 300.222 470.883 299.956C469.283 299.659 467.239 299.511 464.75 299.511C462.261 299.511 460.202 299.659 458.572 299.956C456.972 300.222 456.172 300.637 456.172 301.2C456.172 301.763 456.972 302.193 458.572 302.489C460.202 302.756 462.261 302.889 464.75 302.889ZM513.234 292.4V307.511H506.834V273.378H513.234V285.867H517.057V292.4H513.234ZM497.99 274.267C497.99 279.333 497.575 283.941 496.745 288.089L506.168 302L500.879 305.867L494.434 295.911C493.101 299.111 491.427 301.57 489.412 303.289C487.427 305.007 485.205 305.881 482.745 305.911V298.978C484.464 298.77 485.975 297.585 487.279 295.422C488.582 293.259 489.605 290.341 490.345 286.667C491.086 282.963 491.457 278.756 491.457 274.044L497.99 274.267Z" fill="#01A69F"/>
<path d="M392.366 361.014V343.947H393.989V361.014H392.366ZM388.655 348.614C388.655 350.881 388.292 352.866 387.566 354.569C386.841 356.258 385.804 357.569 384.455 358.503C383.122 359.436 381.544 359.903 379.722 359.903V358.303C381.218 358.303 382.515 357.91 383.611 357.125C384.707 356.34 385.544 355.229 386.122 353.792C386.715 352.34 387.011 350.636 387.011 348.681V346.147H379.722V344.614H388.655V348.614ZM411.697 352.836H410.097V349.058H406.564C406.401 350.11 405.89 350.955 405.031 351.592C404.172 352.229 403.06 352.547 401.697 352.547C400.69 352.547 399.809 352.369 399.053 352.014C398.312 351.658 397.735 351.162 397.32 350.525C396.92 349.888 396.72 349.162 396.72 348.347C396.72 347.547 396.92 346.829 397.32 346.192C397.735 345.555 398.312 345.058 399.053 344.703C399.809 344.347 400.69 344.169 401.697 344.169C403.016 344.169 404.105 344.473 404.964 345.081C405.823 345.688 406.349 346.495 406.542 347.503H410.097V343.947H411.697V352.836ZM401.697 351.125C402.705 351.125 403.52 350.881 404.142 350.392C404.764 349.888 405.075 349.206 405.075 348.347C405.075 347.503 404.764 346.836 404.142 346.347C403.52 345.843 402.705 345.592 401.697 345.592C400.69 345.592 399.875 345.843 399.253 346.347C398.631 346.836 398.32 347.503 398.32 348.347C398.32 349.206 398.631 349.888 399.253 350.392C399.875 350.881 400.69 351.125 401.697 351.125ZM411.697 353.614V360.747H398.231V353.614H399.809V355.636H410.12V353.614H411.697ZM410.12 357.014H399.809V359.347H410.12V357.014ZM429.628 361.014H428.095V343.947H429.628V361.014ZM425.717 344.036V360.725H424.184V352.792H421.851C421.806 355.295 421.473 357.155 420.851 358.369C420.228 359.569 419.317 360.169 418.117 360.169C416.888 360.169 415.954 359.532 415.317 358.258C414.695 356.969 414.384 354.977 414.384 352.281C414.384 347.021 415.628 344.392 418.117 344.392C420.443 344.392 421.68 346.651 421.828 351.169H424.184V344.036H425.717ZM418.117 358.636C418.858 358.636 419.406 358.118 419.762 357.081C420.132 356.029 420.317 354.429 420.317 352.281C420.317 350.132 420.132 348.54 419.762 347.503C419.406 346.451 418.858 345.925 418.117 345.925C417.377 345.925 416.821 346.451 416.451 347.503C416.095 348.54 415.917 350.132 415.917 352.281C415.917 354.429 416.095 356.029 416.451 357.081C416.821 358.118 417.377 358.636 418.117 358.636ZM446.893 361.014H445.293V351.836H440.959V350.258H445.293V343.947H446.893V361.014ZM438.382 344.436C438.352 346.851 438.189 348.992 437.893 350.858L443.048 359.058L441.737 359.992L437.404 352.969C436.871 355.073 436.137 356.732 435.204 357.947C434.271 359.147 433.167 359.814 431.893 359.947V358.258C432.945 358.066 433.834 357.332 434.559 356.058C435.285 354.784 435.826 353.14 436.182 351.125C436.552 349.095 436.745 346.851 436.759 344.392L438.382 344.436ZM467.152 352.547V343.947H468.774V352.547H467.152ZM465.885 351.014C465.366 351.266 464.633 351.466 463.685 351.614C462.752 351.747 461.663 351.814 460.418 351.814H453.907V350.458H456.129V345.769H453.952V344.414H465.152V345.769H462.952V350.347C464.181 350.214 465.159 349.969 465.885 349.614V351.014ZM459.729 350.458C460.5 350.458 461.063 350.443 461.418 350.414V345.769H457.663V350.458H459.729ZM469.218 360.747H455.152V356.569H467.174V354.836H455.129V353.547H468.774V357.725H456.752V359.481H469.218V360.747ZM487.483 360.147H471.305V358.592H475.149V353.725C474.186 353.295 473.446 352.718 472.927 351.992C472.409 351.251 472.149 350.399 472.149 349.436C472.149 348.399 472.446 347.495 473.038 346.725C473.631 345.955 474.475 345.362 475.572 344.947C476.668 344.518 477.942 344.303 479.394 344.303C480.846 344.303 482.12 344.518 483.216 344.947C484.312 345.362 485.157 345.955 485.749 346.725C486.342 347.495 486.638 348.399 486.638 349.436C486.638 350.399 486.379 351.251 485.86 351.992C485.342 352.718 484.601 353.295 483.638 353.725V358.592H487.483V360.147ZM479.394 345.836C478.283 345.836 477.305 345.984 476.46 346.281C475.616 346.577 474.964 346.999 474.505 347.547C474.046 348.095 473.816 348.725 473.816 349.436C473.816 350.147 474.046 350.777 474.505 351.325C474.964 351.873 475.616 352.295 476.46 352.592C477.305 352.888 478.283 353.036 479.394 353.036C480.505 353.036 481.483 352.888 482.327 352.592C483.172 352.295 483.823 351.873 484.283 351.325C484.742 350.777 484.972 350.147 484.972 349.436C484.972 348.725 484.742 348.095 484.283 347.547C483.823 346.999 483.172 346.577 482.327 346.281C481.483 345.984 480.505 345.836 479.394 345.836ZM482.038 358.592V354.281C481.194 354.473 480.312 354.569 479.394 354.569C478.401 354.569 477.52 354.473 476.749 354.281V358.592H482.038ZM488.88 347.058V345.658H493.569V343.636H495.191V345.658H499.88V347.058H488.88ZM505.858 350.369H503.503V356.747H501.903V343.947H503.503V348.769H505.858V350.369ZM494.391 355.103C492.999 355.103 491.851 354.792 490.947 354.169C490.058 353.547 489.614 352.695 489.614 351.614C489.614 350.532 490.058 349.681 490.947 349.058C491.851 348.436 492.999 348.125 494.391 348.125C495.784 348.125 496.925 348.436 497.814 349.058C498.703 349.681 499.147 350.532 499.147 351.614C499.147 352.695 498.703 353.547 497.814 354.169C496.925 354.792 495.784 355.103 494.391 355.103ZM494.391 349.436C493.414 349.436 492.628 349.643 492.036 350.058C491.458 350.458 491.169 350.977 491.169 351.614C491.169 352.251 491.458 352.777 492.036 353.192C492.628 353.592 493.414 353.792 494.391 353.792C495.354 353.792 496.125 353.592 496.703 353.192C497.295 352.777 497.591 352.251 497.591 351.614C497.591 350.977 497.295 350.458 496.703 350.058C496.125 349.643 495.354 349.436 494.391 349.436ZM503.991 359.258V360.747H490.058V356.192H491.68V359.258H503.991ZM371.53 379.481V384.147H369.93V373.947H371.53V377.858H373.885V379.481H371.53ZM366.663 376.325C366.663 378.725 365.841 380.525 364.197 381.725C362.567 382.91 360.3 383.503 357.397 383.503V381.969C359.826 381.955 361.708 381.503 363.041 380.614C364.389 379.71 365.063 378.362 365.063 376.569V375.881H357.397V374.414H366.663V376.325ZM371.53 385.147V390.969H369.908V386.636H357.93V385.147H371.53ZM382.239 377.992C381.468 378.732 380.461 379.318 379.216 379.747C377.987 380.162 376.713 380.384 375.394 380.414V379.014C376.342 378.984 377.283 378.829 378.216 378.547C379.165 378.266 379.979 377.873 380.661 377.369C381.357 376.851 381.794 376.251 381.972 375.569H375.683V374.192H389.55V375.569H383.705C383.631 376.043 383.483 376.473 383.261 376.858L389.994 379.147L389.55 380.481L382.239 377.992ZM390.705 383.369H374.528V381.992H381.816V379.792H383.416V381.992H390.705V383.369ZM382.616 384.925C384.72 384.925 386.424 385.162 387.728 385.636C389.046 386.095 389.705 386.866 389.705 387.947C389.705 389.029 389.046 389.814 387.728 390.303C386.424 390.792 384.72 391.036 382.616 391.036C380.513 391.036 378.802 390.792 377.483 390.303C376.179 389.814 375.528 389.029 375.528 387.947C375.528 386.866 376.179 386.095 377.483 385.636C378.802 385.162 380.513 384.925 382.616 384.925ZM382.616 389.681C384.142 389.681 385.416 389.547 386.439 389.281C387.476 388.999 387.994 388.555 387.994 387.947C387.994 387.355 387.483 386.932 386.461 386.681C385.439 386.414 384.157 386.281 382.616 386.281C381.076 386.281 379.787 386.414 378.75 386.681C377.728 386.932 377.216 387.355 377.216 387.947C377.216 388.555 377.735 388.999 378.772 389.281C379.809 389.547 381.09 389.681 382.616 389.681ZM411.12 382.614V391.014H409.52V373.947H411.12V381.014H413.475V382.614H411.12ZM403.764 388.414C404.535 388.414 405.305 388.34 406.075 388.192C406.846 388.029 407.475 387.821 407.964 387.569V389.125C407.49 389.377 406.86 389.577 406.075 389.725C405.29 389.873 404.497 389.947 403.697 389.947H397.342V374.614H406.697V376.147H398.964V388.414H403.764ZM428.717 379.814H431.073V381.258H428.717V383.392H427.117V373.947H428.717V375.703H431.073V377.169H428.717V379.814ZM419.206 382.769C418.199 382.769 417.317 382.592 416.562 382.236C415.821 381.866 415.243 381.355 414.828 380.703C414.428 380.051 414.228 379.303 414.228 378.458C414.228 377.614 414.428 376.866 414.828 376.214C415.243 375.562 415.821 375.058 416.562 374.703C417.317 374.332 418.199 374.147 419.206 374.147C420.214 374.147 421.088 374.332 421.828 374.703C422.584 375.058 423.162 375.562 423.562 376.214C423.962 376.866 424.162 377.614 424.162 378.458C424.162 379.303 423.962 380.051 423.562 380.703C423.162 381.355 422.584 381.866 421.828 382.236C421.088 382.592 420.214 382.769 419.206 382.769ZM419.206 375.547C418.184 375.547 417.362 375.806 416.74 376.325C416.132 376.843 415.828 377.555 415.828 378.458C415.828 379.362 416.132 380.073 416.74 380.592C417.362 381.11 418.184 381.369 419.206 381.369C420.214 381.369 421.021 381.11 421.628 380.592C422.251 380.073 422.562 379.362 422.562 378.458C422.562 377.555 422.251 376.843 421.628 376.325C421.021 375.806 420.214 375.547 419.206 375.547ZM422.184 384.014C424.214 384.014 425.851 384.303 427.095 384.881C428.34 385.458 428.962 386.332 428.962 387.503C428.962 388.673 428.34 389.547 427.095 390.125C425.851 390.688 424.214 390.969 422.184 390.969C420.169 390.969 418.532 390.688 417.273 390.125C416.028 389.547 415.406 388.673 415.406 387.503C415.406 386.332 416.028 385.458 417.273 384.881C418.532 384.303 420.169 384.014 422.184 384.014ZM422.184 389.569C423.68 389.569 424.903 389.392 425.851 389.036C426.799 388.681 427.273 388.169 427.273 387.503C427.273 386.821 426.799 386.303 425.851 385.947C424.903 385.592 423.68 385.414 422.184 385.414C420.688 385.414 419.466 385.592 418.517 385.947C417.569 386.303 417.095 386.821 417.095 387.503C417.095 388.169 417.569 388.681 418.517 389.036C419.466 389.392 420.688 389.569 422.184 389.569ZM431.693 377.058V375.658H436.382V373.636H438.004V375.658H442.693V377.058H431.693ZM448.671 380.369H446.315V386.747H444.715V373.947H446.315V378.769H448.671V380.369ZM437.204 385.103C435.811 385.103 434.663 384.792 433.759 384.169C432.871 383.547 432.426 382.695 432.426 381.614C432.426 380.532 432.871 379.681 433.759 379.058C434.663 378.436 435.811 378.125 437.204 378.125C438.596 378.125 439.737 378.436 440.626 379.058C441.515 379.681 441.959 380.532 441.959 381.614C441.959 382.695 441.515 383.547 440.626 384.169C439.737 384.792 438.596 385.103 437.204 385.103ZM437.204 379.436C436.226 379.436 435.441 379.643 434.848 380.058C434.271 380.458 433.982 380.977 433.982 381.614C433.982 382.251 434.271 382.777 434.848 383.192C435.441 383.592 436.226 383.792 437.204 383.792C438.167 383.792 438.937 383.592 439.515 383.192C440.108 382.777 440.404 382.251 440.404 381.614C440.404 380.977 440.108 380.458 439.515 380.058C438.937 379.643 438.167 379.436 437.204 379.436ZM446.804 389.258V390.747H432.871V386.192H434.493V389.258H446.804ZM454.707 376.147V374.592H468.796V385.858H467.174V376.147H454.707ZM469.885 390.147H453.707V388.592H457.018V381.547H458.618V388.592H462.129V381.547H463.729V388.592H469.885V390.147ZM479.394 380.903C477.32 380.903 475.609 380.606 474.26 380.014C472.912 379.421 472.238 378.54 472.238 377.369C472.238 376.214 472.912 375.34 474.26 374.747C475.609 374.155 477.32 373.858 479.394 373.858C481.453 373.858 483.157 374.155 484.505 374.747C485.853 375.34 486.527 376.214 486.527 377.369C486.527 378.54 485.853 379.421 484.505 380.014C483.172 380.606 481.468 380.903 479.394 380.903ZM479.394 375.236C477.853 375.236 476.557 375.421 475.505 375.792C474.453 376.162 473.927 376.688 473.927 377.369C473.927 378.051 474.446 378.584 475.483 378.969C476.534 379.34 477.838 379.525 479.394 379.525C480.934 379.525 482.223 379.34 483.26 378.969C484.312 378.584 484.838 378.051 484.838 377.369C484.838 376.688 484.312 376.162 483.26 375.792C482.223 375.421 480.934 375.236 479.394 375.236ZM483.26 386.081H486.305V390.992H484.705V387.481H472.327V386.081H475.527V383.769H471.305V382.347H487.483V383.769H483.26V386.081ZM477.127 383.769V386.081H481.66V383.769H477.127ZM506.741 386.636V373.947H508.364V386.636H506.741ZM499.141 379.969C498.593 381.095 497.853 382.006 496.919 382.703C496.001 383.399 494.941 383.829 493.741 383.992V382.436C495.149 382.199 496.282 381.503 497.141 380.347C498.001 379.192 498.467 377.71 498.541 375.903H493.941V374.436H504.43V375.903H500.141C500.127 376.866 499.993 377.747 499.741 378.547L504.897 382.614L504.008 383.858L499.141 379.969ZM508.83 390.747H494.741V385.436H496.364V389.214H508.83V390.747ZM510.628 376.858V375.525H514.228V373.703H515.806V375.525H519.25V376.858H510.628ZM520.539 383.925V374.036H522.028V378.058H524.895V373.947H526.406V384.525H524.895V379.569H522.028V383.925H520.539ZM518.828 381.014C518.828 381.962 518.465 382.725 517.739 383.303C517.028 383.866 516.132 384.147 515.05 384.147C513.954 384.147 513.05 383.866 512.339 383.303C511.628 382.74 511.272 381.977 511.272 381.014C511.272 380.066 511.628 379.31 512.339 378.747C513.05 378.169 513.954 377.881 515.05 377.881C516.132 377.881 517.028 378.169 517.739 378.747C518.465 379.31 518.828 380.066 518.828 381.014ZM512.739 381.014C512.739 381.547 512.947 381.992 513.361 382.347C513.791 382.703 514.354 382.881 515.05 382.881C515.747 382.881 516.302 382.703 516.717 382.347C517.147 381.992 517.361 381.547 517.361 381.014C517.361 380.481 517.147 380.036 516.717 379.681C516.302 379.325 515.747 379.147 515.05 379.147C514.354 379.147 513.791 379.325 513.361 379.681C512.947 380.036 512.739 380.481 512.739 381.014ZM519.45 384.925C521.584 384.925 523.31 385.169 524.628 385.658C525.947 386.147 526.606 386.91 526.606 387.947C526.606 388.999 525.947 389.769 524.628 390.258C523.324 390.732 521.598 390.969 519.45 390.969C517.302 390.969 515.569 390.732 514.25 390.258C512.947 389.769 512.295 388.999 512.295 387.947C512.295 386.91 512.954 386.147 514.272 385.658C515.591 385.169 517.317 384.925 519.45 384.925ZM519.45 389.636C521.05 389.636 522.361 389.495 523.384 389.214C524.406 388.932 524.917 388.51 524.917 387.947C524.917 387.399 524.398 386.984 523.361 386.703C522.339 386.421 521.035 386.281 519.45 386.281C517.85 386.281 516.532 386.421 515.495 386.703C514.472 386.984 513.961 387.399 513.961 387.947C513.961 388.51 514.472 388.932 515.495 389.214C516.532 389.495 517.85 389.636 519.45 389.636Z" fill="black"/>
<path d="M685.499 51.8599H862.605V180.824H685.499V51.8599Z" fill="#D6EFF8"/>
<path d="M685.499 137.836H698.618V180.824H685.499V137.836Z" fill="#75777A"/>
<path d="M849.486 137.836H862.605V180.824H849.486V137.836Z" fill="#75777A"/>
<path d="M698.618 151.063H849.486V164.29H698.618V151.063Z" fill="#AADFF1"/>
<path d="M721.576 51.8599C721.576 71.965 705.44 101.461 685.499 101.461V51.8599H721.576Z" fill="#AADFF1"/>
<path d="M685.499 131.222C721.74 131.222 751.094 88.3997 751.094 51.8599H734.695C734.695 79.2399 712.655 114.689 685.499 114.689" fill="#E44F50"/>
<path d="M685.499 114.689C712.655 114.689 734.695 79.2399 734.695 51.8599H721.576C721.576 71.965 705.44 101.461 685.499 101.461" fill="#EF9596"/>
<path d="M862.605 131.222C826.364 131.222 797.01 88.3997 797.01 51.8599H813.409C813.409 79.2399 835.449 114.689 862.605 114.689" fill="#E44F50"/>
<path d="M862.605 114.689C835.449 114.689 813.409 79.2399 813.409 51.8599H826.528C826.528 71.965 842.664 101.461 862.605 101.461" fill="#EF9596"/>
<path d="M783.891 38.6328H862.605C866.213 38.6328 869.165 41.6089 869.165 45.2464C869.165 47.0651 868.443 48.7185 867.229 49.9089C866.049 51.1324 864.409 51.8599 862.605 51.8599H685.499C681.892 51.8599 678.94 48.8838 678.94 45.2464C678.94 43.4276 679.661 41.7742 680.875 40.5838C682.056 39.3603 683.696 38.6328 685.499 38.6328H764.213" fill="#75777A"/>
<path d="M698.618 124.609H685.499C681.877 124.609 678.94 127.57 678.94 131.222C678.94 134.875 681.877 137.836 685.499 137.836H698.618C702.241 137.836 705.178 134.875 705.178 131.222C705.178 127.57 702.241 124.609 698.618 124.609Z" fill="#FAB349"/>
<path d="M862.605 124.609H849.486C845.863 124.609 842.926 127.57 842.926 131.222C842.926 134.875 845.863 137.836 849.486 137.836H862.605C866.227 137.836 869.164 134.875 869.164 131.222C869.164 127.57 866.227 124.609 862.605 124.609Z" fill="#FAB349"/>
<path d="M826.528 51.8599C826.528 71.965 842.664 101.461 862.605 101.461V51.8599H826.528Z" fill="#AADFF1"/>
<path d="M792.779 108.075H813.409V75.0071C813.409 71.3696 810.457 68.3936 806.849 68.3936C805.045 68.3936 803.405 69.121 802.225 70.3446C801.011 71.535 800.29 73.1884 800.29 75.0071V94.8477H785.301" fill="#FCD192"/>
<path d="M762.803 94.8477H747.814V75.0071C747.814 73.1884 747.093 71.535 745.879 70.3446C744.699 69.121 743.059 68.3936 741.255 68.3936C737.647 68.3936 734.695 71.3696 734.695 75.0071V108.075H755.325" fill="#FCD192"/>
<path d="M764.213 121.302L768.739 134.959C769.755 138.001 767.492 141.142 764.311 141.142C762.31 141.142 760.507 139.853 759.883 137.935L754.374 121.302" fill="#FAB349"/>
<path d="M790.451 121.302L794.977 134.959C795.993 138.001 793.73 141.142 790.549 141.142C788.548 141.142 786.744 139.853 786.121 137.935L780.611 121.302" fill="#FAB349"/>
<path d="M780.611 230.425C780.611 223.117 786.482 217.198 793.73 217.198C800.978 217.198 806.849 223.117 806.849 230.425" fill="#FAB349"/>
<path d="M741.255 230.425C741.255 223.117 747.126 217.198 754.374 217.198C761.622 217.198 767.493 223.117 767.493 230.425" fill="#FAB349"/>
<path d="M701.898 230.425C701.898 223.117 707.769 217.198 715.017 217.198C722.265 217.198 728.136 223.117 728.136 230.425" fill="#FAB349"/>
<path d="M819.968 230.425C819.968 223.117 825.839 217.198 833.087 217.198C840.335 217.198 846.206 223.117 846.206 230.425" fill="#FAB349"/>
<path d="M774.052 217.198C777.674 217.198 780.611 214.237 780.611 210.585C780.611 206.932 777.674 203.971 774.052 203.971C770.429 203.971 767.492 206.932 767.492 210.585C767.492 214.237 770.429 217.198 774.052 217.198Z" fill="#75777A"/>
<path d="M760.933 240.346C760.933 233.038 766.803 227.119 774.052 227.119C781.3 227.119 787.17 233.038 787.17 240.346" fill="#75777A"/>
<path d="M793.73 207.278C797.353 207.278 800.29 204.317 800.29 200.664C800.29 197.012 797.353 194.051 793.73 194.051C790.108 194.051 787.171 197.012 787.171 200.664C787.171 204.317 790.108 207.278 793.73 207.278Z" fill="#75777A"/>
<path d="M833.087 207.278C836.71 207.278 839.646 204.317 839.646 200.664C839.646 197.012 836.71 194.051 833.087 194.051C829.464 194.051 826.527 197.012 826.527 200.664C826.527 204.317 829.464 207.278 833.087 207.278Z" fill="#75777A"/>
<path d="M754.373 207.278C757.996 207.278 760.933 204.317 760.933 200.664C760.933 197.012 757.996 194.051 754.373 194.051C750.751 194.051 747.814 197.012 747.814 200.664C747.814 204.317 750.751 207.278 754.373 207.278Z" fill="#75777A"/>
<path d="M715.016 207.278C718.639 207.278 721.576 204.317 721.576 200.664C721.576 197.012 718.639 194.051 715.016 194.051C711.394 194.051 708.457 197.012 708.457 200.664C708.457 204.317 711.394 207.278 715.016 207.278Z" fill="#75777A"/>
<path d="M734.695 217.198C738.318 217.198 741.255 214.237 741.255 210.585C741.255 206.932 738.318 203.971 734.695 203.971C731.073 203.971 728.136 206.932 728.136 210.585C728.136 214.237 731.073 217.198 734.695 217.198Z" fill="#75777A"/>
<path d="M721.576 240.346C721.576 233.038 727.447 227.119 734.695 227.119C741.943 227.119 747.814 233.038 747.814 240.346" fill="#75777A"/>
<path d="M695.338 217.198C698.961 217.198 701.898 214.237 701.898 210.585C701.898 206.932 698.961 203.971 695.338 203.971C691.716 203.971 688.779 206.932 688.779 210.585C688.779 214.237 691.716 217.198 695.338 217.198Z" fill="#75777A"/>
<path d="M682.219 240.346C682.219 233.038 688.09 227.119 695.338 227.119C702.586 227.119 708.457 233.038 708.457 240.346" fill="#75777A"/>
<path d="M813.409 217.198C817.031 217.198 819.968 214.237 819.968 210.585C819.968 206.932 817.031 203.971 813.409 203.971C809.786 203.971 806.849 206.932 806.849 210.585C806.849 214.237 809.786 217.198 813.409 217.198Z" fill="#75777A"/>
<path d="M800.29 240.346C800.29 233.038 806.16 227.119 813.408 227.119C820.657 227.119 826.527 233.038 826.527 240.346" fill="#75777A"/>
<path d="M852.766 217.198C856.388 217.198 859.325 214.237 859.325 210.585C859.325 206.932 856.388 203.971 852.766 203.971C849.143 203.971 846.206 206.932 846.206 210.585C846.206 214.237 849.143 217.198 852.766 217.198Z" fill="#75777A"/>
<path d="M839.646 240.346C839.646 233.038 845.517 227.119 852.765 227.119C860.014 227.119 865.884 233.038 865.884 240.346" fill="#75777A"/>
<path d="M800.29 121.302H747.814L774.052 75.0073L800.29 121.302Z" fill="#EF9596"/>
<path d="M774.052 75.0074C777.675 75.0074 780.612 72.0464 780.612 68.3938C780.612 64.7413 777.675 61.7803 774.052 61.7803C770.429 61.7803 767.493 64.7413 767.493 68.3938C767.493 72.0464 770.429 75.0074 774.052 75.0074Z" fill="#FAB349"/>
<path d="M774.052 220.505C779.464 220.505 783.891 216.041 783.891 210.585C783.891 205.129 779.464 200.665 774.052 200.665C768.641 200.665 764.213 205.129 764.213 210.585C764.213 216.041 768.641 220.505 774.052 220.505ZM774.052 207.278C775.856 207.278 777.332 208.766 777.332 210.585C777.332 212.404 775.856 213.892 774.052 213.892C772.248 213.892 770.772 212.404 770.772 210.585C770.772 208.766 772.248 207.278 774.052 207.278Z" fill="black"/>
<path d="M793.73 190.744C788.319 190.744 783.891 195.208 783.891 200.664C783.891 206.121 788.319 210.585 793.73 210.585C799.142 210.585 803.57 206.121 803.57 200.664C803.57 195.208 799.142 190.744 793.73 190.744ZM793.73 203.971C791.926 203.971 790.451 202.483 790.451 200.664C790.451 198.846 791.926 197.358 793.73 197.358C795.534 197.358 797.01 198.846 797.01 200.664C797.01 202.483 795.534 203.971 793.73 203.971Z" fill="black"/>
<path d="M833.087 190.744C827.676 190.744 823.248 195.208 823.248 200.664C823.248 206.121 827.676 210.585 833.087 210.585C838.499 210.585 842.926 206.121 842.926 200.664C842.926 195.208 838.499 190.744 833.087 190.744ZM833.087 203.971C831.283 203.971 829.808 202.483 829.808 200.664C829.808 198.846 831.283 197.358 833.087 197.358C834.891 197.358 836.367 198.846 836.367 200.664C836.367 202.483 834.891 203.971 833.087 203.971Z" fill="black"/>
<path d="M754.373 190.744C748.962 190.744 744.534 195.208 744.534 200.664C744.534 206.121 748.962 210.585 754.373 210.585C759.785 210.585 764.213 206.121 764.213 200.664C764.213 195.208 759.785 190.744 754.373 190.744ZM754.373 203.971C752.57 203.971 751.094 202.483 751.094 200.664C751.094 198.846 752.57 197.358 754.373 197.358C756.177 197.358 757.653 198.846 757.653 200.664C757.653 202.483 756.177 203.971 754.373 203.971Z" fill="black"/>
<path d="M715.017 190.744C709.605 190.744 705.178 195.208 705.178 200.664C705.178 206.121 709.605 210.585 715.017 210.585C720.428 210.585 724.856 206.121 724.856 200.664C724.856 195.208 720.428 190.744 715.017 190.744ZM715.017 203.971C713.213 203.971 711.737 202.483 711.737 200.664C711.737 198.846 713.213 197.358 715.017 197.358C716.821 197.358 718.297 198.846 718.297 200.664C718.297 202.483 716.821 203.971 715.017 203.971Z" fill="black"/>
<path d="M734.695 220.505C740.107 220.505 744.534 216.041 744.534 210.585C744.534 205.129 740.107 200.665 734.695 200.665C729.284 200.665 724.856 205.129 724.856 210.585C724.856 216.041 729.284 220.505 734.695 220.505ZM734.695 207.278C736.499 207.278 737.975 208.766 737.975 210.585C737.975 212.404 736.499 213.892 734.695 213.892C732.891 213.892 731.415 212.404 731.415 210.585C731.415 208.766 732.891 207.278 734.695 207.278Z" fill="black"/>
<path d="M705.177 210.585C705.177 205.129 700.75 200.665 695.338 200.665C689.927 200.665 685.499 205.129 685.499 210.585C685.499 216.041 689.927 220.505 695.338 220.505C700.75 220.505 705.177 216.041 705.177 210.585ZM692.058 210.585C692.058 208.766 693.534 207.278 695.338 207.278C697.142 207.278 698.618 208.766 698.618 210.585C698.618 212.404 697.142 213.892 695.338 213.892C693.534 213.892 692.058 212.404 692.058 210.585Z" fill="black"/>
<path d="M813.409 220.505C818.821 220.505 823.248 216.041 823.248 210.585C823.248 205.129 818.821 200.665 813.409 200.665C807.997 200.665 803.57 205.129 803.57 210.585C803.57 216.041 807.997 220.505 813.409 220.505ZM813.409 207.278C815.213 207.278 816.689 208.766 816.689 210.585C816.689 212.404 815.213 213.892 813.409 213.892C811.605 213.892 810.129 212.404 810.129 210.585C810.129 208.766 811.605 207.278 813.409 207.278Z" fill="black"/>
<path d="M852.765 220.505C858.177 220.505 862.605 216.041 862.605 210.585C862.605 205.129 858.177 200.665 852.765 200.665C847.354 200.665 842.926 205.129 842.926 210.585C842.926 216.041 847.354 220.505 852.765 220.505ZM852.765 207.278C854.569 207.278 856.045 208.766 856.045 210.585C856.045 212.404 854.569 213.892 852.765 213.892C850.962 213.892 849.486 212.404 849.486 210.585C849.486 208.766 850.962 207.278 852.765 207.278Z" fill="black"/>
<path d="M852.766 223.812C851.224 223.812 849.749 224.11 848.338 224.506C845.977 218.257 840.04 213.892 833.087 213.892C826.134 213.892 820.198 218.257 817.837 224.506C816.426 224.11 814.951 223.812 813.409 223.812C811.868 223.812 810.392 224.11 808.981 224.506C806.62 218.257 800.684 213.892 793.731 213.892C786.778 213.892 780.841 218.257 778.48 224.506C777.07 224.11 775.594 223.812 774.052 223.812C772.511 223.812 771.035 224.11 769.625 224.506C767.263 218.257 761.327 213.892 754.374 213.892C747.421 213.892 741.484 218.257 739.123 224.506C737.713 224.11 736.237 223.812 734.695 223.812C733.154 223.812 731.678 224.11 730.268 224.506C727.906 218.257 721.97 213.892 715.017 213.892C708.064 213.892 702.128 218.257 699.766 224.506C698.356 224.11 696.88 223.812 695.339 223.812C686.287 223.812 678.94 231.219 678.94 240.346H685.499C685.499 234.89 689.927 230.425 695.339 230.425C700.75 230.425 705.178 234.89 705.178 240.346H711.737C711.737 235.154 709.31 230.591 705.604 227.549C706.818 223.415 710.589 220.505 715.017 220.505C719.445 220.505 723.216 223.448 724.43 227.549C720.724 230.591 718.297 235.154 718.297 240.346H724.856C724.856 234.89 729.284 230.425 734.695 230.425C740.107 230.425 744.535 234.89 744.535 240.346H751.094C751.094 235.154 748.667 230.591 744.961 227.549C746.174 223.415 749.946 220.505 754.374 220.505C758.801 220.505 762.573 223.448 763.787 227.549C760.081 230.591 757.654 235.154 757.654 240.346H764.213C764.213 234.89 768.641 230.425 774.052 230.425C779.464 230.425 783.891 234.89 783.891 240.346H790.451C790.451 235.154 788.024 230.591 784.318 227.549C785.531 223.415 789.303 220.505 793.731 220.505C798.158 220.505 801.93 223.448 803.143 227.549C799.437 230.591 797.01 235.154 797.01 240.346H803.57C803.57 234.89 807.997 230.425 813.409 230.425C818.821 230.425 823.248 234.89 823.248 240.346H829.808C829.808 235.154 827.381 230.591 823.675 227.549C824.888 223.415 828.66 220.505 833.087 220.505C837.515 220.505 841.287 223.448 842.5 227.549C838.794 230.591 836.367 235.154 836.367 240.346H842.927C842.927 234.89 847.354 230.425 852.766 230.425C858.177 230.425 862.605 234.89 862.605 240.346H869.165C869.165 231.219 861.818 223.812 852.766 223.812Z" fill="black"/>
<path d="M869.525 52.2899C871.395 50.4381 872.444 47.925 872.444 45.2465C872.444 39.7903 868.017 35.3262 862.605 35.3262H783.891V41.9397H862.605C864.409 41.9397 865.885 43.4278 865.885 45.2465C865.885 46.1393 865.557 46.9329 864.868 47.5943C864.278 48.1895 863.458 48.5533 862.605 48.5533H685.499C683.696 48.5533 682.22 47.0652 682.22 45.2465C682.22 44.3537 682.548 43.56 683.236 42.8987C683.827 42.3035 684.647 41.9397 685.499 41.9397H764.213V35.3262H685.499C682.843 35.3262 680.35 36.3843 678.579 38.2031C676.71 40.0549 675.66 42.568 675.66 45.2465C675.66 49.5453 678.415 53.1827 682.22 54.5716V121.897C678.415 123.253 675.66 126.891 675.66 131.223C675.66 135.554 678.415 139.159 682.22 140.548V180.824H688.779V141.143H695.339V180.824H701.898V167.597H846.206V180.824H852.766V141.143H859.325V180.824H865.885V140.548C869.689 139.192 872.444 135.554 872.444 131.223C872.444 126.891 869.689 123.286 865.885 121.897V54.5716C867.262 54.0756 868.509 53.315 869.525 52.2899ZM859.325 55.1668V97.8572C843.779 94.9803 831.448 72.1636 829.972 55.1668H859.325ZM688.779 55.1668H718.133C716.657 72.1636 704.292 94.9473 688.779 97.8572V55.1668ZM698.618 134.529H685.499C683.696 134.529 682.22 133.041 682.22 131.223C682.22 129.404 683.696 127.916 685.499 127.916H698.618C700.422 127.916 701.898 129.404 701.898 131.223C701.898 133.041 700.422 134.529 698.618 134.529ZM846.206 160.983H701.898V154.37H846.206V160.983ZM846.206 147.756H701.898V140.548C705.703 139.192 708.457 135.554 708.457 131.223C708.457 125.766 704.03 121.302 698.618 121.302H688.779V104.504C708.457 101.759 723.184 74.809 724.725 55.1668H823.412C824.954 74.809 839.68 101.759 859.358 104.504V121.302H849.519C844.107 121.302 839.68 125.766 839.68 131.223C839.68 135.521 842.435 139.159 846.239 140.548V147.756H846.206ZM862.605 134.529H849.486C847.682 134.529 846.206 133.041 846.206 131.223C846.206 129.404 847.682 127.916 849.486 127.916H862.605C864.409 127.916 865.885 129.404 865.885 131.223C865.885 133.041 864.409 134.529 862.605 134.529Z" fill="black"/>
<path d="M770.772 35.3262H777.332V41.9397H770.772V35.3262Z" fill="black"/>
<path d="M715.017 134.529H721.576V141.142H715.017V134.529Z" fill="black"/>
<path d="M728.136 124.609H734.695V131.222H728.136V124.609Z" fill="black"/>
<path d="M826.528 134.529H833.087V141.142H826.528V134.529Z" fill="black"/>
<path d="M813.409 124.609H819.968V131.222H813.409V124.609Z" fill="black"/>
<path d="M798.453 111.381H813.409C815.213 111.381 816.689 109.893 816.689 108.075V75.007C816.689 69.5508 812.261 65.0867 806.849 65.0867C804.193 65.0867 801.7 66.1449 799.929 67.9636C798.06 69.8154 797.01 72.3285 797.01 75.007V91.5409H787.204L778.939 76.958C781.891 75.2385 783.891 72.064 783.891 68.3935C783.891 62.9373 779.464 58.4731 774.052 58.4731C768.641 58.4731 764.213 62.9373 764.213 68.3935C764.213 72.064 766.214 75.2385 769.165 76.958L760.9 91.5409H751.094V75.007C751.094 72.3285 750.044 69.8154 748.241 68.0297C746.404 66.1118 743.911 65.0867 741.255 65.0867C735.843 65.0867 731.416 69.5508 731.416 75.007V108.075C731.416 109.893 732.891 111.381 734.695 111.381H749.651L744.961 119.648C744.37 120.674 744.37 121.93 744.961 122.955C745.551 123.98 746.633 124.609 747.781 124.609H751.979L756.735 138.96C757.817 142.234 760.835 144.449 764.278 144.449C766.837 144.449 769.231 143.193 770.74 141.109C772.248 139.026 772.642 136.315 771.822 133.901L768.739 124.609H778.217L782.973 138.96C784.055 142.234 787.073 144.449 790.516 144.449C793.075 144.449 795.469 143.193 796.977 141.109C798.486 139.026 798.88 136.315 798.06 133.901L794.977 124.609H800.257C801.438 124.609 802.52 123.98 803.078 122.955C803.668 121.93 803.668 120.674 803.078 119.648L798.388 111.381H798.453ZM774.052 65.0867C775.856 65.0867 777.332 66.5747 777.332 68.3935C777.332 70.2122 775.856 71.7002 774.052 71.7002C772.248 71.7002 770.772 70.2122 770.772 68.3935C770.772 66.5747 772.248 65.0867 774.052 65.0867ZM737.975 104.768V75.007C737.975 73.1883 739.451 71.7002 741.255 71.7002C742.14 71.7002 742.927 72.0309 743.583 72.7253C744.206 73.3206 744.534 74.1472 744.534 75.007V94.8476C744.534 96.6664 746.01 98.1544 747.814 98.1544H757.161L753.423 104.768H737.975ZM765.426 137.24C765.262 137.472 764.934 137.836 764.311 137.836C763.688 137.836 763.196 137.439 762.999 136.877L758.932 124.609H761.851L765.623 135.984C765.82 136.579 765.59 137.042 765.426 137.24ZM791.664 137.24C791.5 137.472 791.172 137.836 790.549 137.836C789.926 137.836 789.434 137.439 789.237 136.877L785.17 124.609H788.089L791.861 135.984C792.058 136.579 791.828 137.042 791.664 137.24ZM753.455 117.995L774.052 81.6867L794.649 117.995H753.488H753.455ZM794.682 104.768L790.943 98.1544H800.29C802.094 98.1544 803.57 96.6664 803.57 94.8476V75.007C803.57 74.1142 803.898 73.3205 804.586 72.6592C805.177 72.064 805.997 71.7002 806.849 71.7002C808.653 71.7002 810.129 73.1883 810.129 75.007V104.768H794.682Z" fill="black"/>
<path d="M770.772 104.768H764.213C764.213 110.224 768.641 114.688 774.052 114.688C779.464 114.688 783.891 110.224 783.891 104.768H777.332C777.332 106.587 775.856 108.075 774.052 108.075C772.248 108.075 770.772 106.587 770.772 104.768Z" fill="black"/>
<path d="M730.243 304.511V270.378H736.687V304.511H730.243ZM725.265 280.422C725.265 284.985 724.495 288.97 722.954 292.378C721.413 295.756 719.235 298.363 716.42 300.2C713.606 302.007 710.317 302.911 706.554 302.911V296.511C710.435 296.481 713.413 295.044 715.487 292.2C717.591 289.356 718.643 285.43 718.643 280.422V277.311H706.554V271.178H725.265V280.422ZM772.016 288.067H765.616V282.289H760.638C759.986 284.067 758.786 285.474 757.038 286.511C755.32 287.519 753.231 288.022 750.771 288.022C748.727 288.022 746.905 287.667 745.305 286.956C743.734 286.215 742.505 285.178 741.616 283.844C740.757 282.511 740.327 280.97 740.327 279.222C740.327 277.474 740.757 275.933 741.616 274.6C742.505 273.267 743.734 272.244 745.305 271.533C746.905 270.793 748.727 270.422 750.771 270.422C753.201 270.422 755.275 270.911 756.994 271.889C758.712 272.867 759.912 274.23 760.594 275.978H765.616V270.378H772.016V288.067ZM750.771 282.556C752.016 282.556 752.994 282.259 753.705 281.667C754.416 281.074 754.771 280.259 754.771 279.222C754.771 278.185 754.416 277.37 753.705 276.778C752.994 276.156 752.016 275.844 750.771 275.844C749.557 275.844 748.579 276.156 747.838 276.778C747.127 277.37 746.771 278.185 746.771 279.222C746.771 280.23 747.127 281.044 747.838 281.667C748.579 282.259 749.557 282.556 750.771 282.556ZM772.016 289.267V304.511H743.394V289.267H749.66V291.489H765.705V289.267H772.016ZM765.705 296.733H749.66V299.178H765.705V296.733ZM774.9 277.311V272.422H780.589V269.844H786.944V272.422H792.322V277.311H774.9ZM793.656 290.244V270.511H799.478V277.311H802.1V270.378H807.967V291.444H802.1V283.311H799.478V290.244H793.656ZM791.878 284.511C791.878 286.437 791.107 287.993 789.567 289.178C788.056 290.333 786.159 290.911 783.878 290.911C781.567 290.911 779.641 290.333 778.1 289.178C776.589 287.993 775.833 286.437 775.833 284.511C775.833 282.585 776.589 281.044 778.1 279.889C779.641 278.704 781.567 278.111 783.878 278.111C786.159 278.111 788.056 278.704 789.567 279.889C791.107 281.044 791.878 282.585 791.878 284.511ZM781.433 284.511C781.433 285.044 781.656 285.474 782.1 285.8C782.574 286.126 783.167 286.289 783.878 286.289C784.559 286.289 785.122 286.126 785.567 285.8C786.041 285.474 786.278 285.044 786.278 284.511C786.278 283.978 786.041 283.563 785.567 283.267C785.122 282.941 784.559 282.778 783.878 282.778C783.167 282.778 782.574 282.941 782.1 283.267C781.656 283.563 781.433 283.978 781.433 284.511ZM792.856 291.489C797.537 291.489 801.256 292.022 804.011 293.089C806.796 294.156 808.189 295.859 808.189 298.2C808.189 300.57 806.796 302.274 804.011 303.311C801.256 304.378 797.537 304.911 792.856 304.911C788.174 304.911 784.441 304.378 781.656 303.311C778.9 302.274 777.522 300.57 777.522 298.2C777.522 295.859 778.9 294.156 781.656 293.089C784.441 292.022 788.174 291.489 792.856 291.489ZM792.856 299.889C795.344 299.889 797.389 299.756 798.989 299.489C800.589 299.193 801.389 298.763 801.389 298.2C801.389 297.637 800.589 297.222 798.989 296.956C797.389 296.659 795.344 296.511 792.856 296.511C790.367 296.511 788.307 296.659 786.678 296.956C785.078 297.222 784.278 297.637 784.278 298.2C784.278 298.763 785.078 299.193 786.678 299.489C788.307 299.756 790.367 299.889 792.856 299.889ZM841.34 289.4V304.511H834.94V270.378H841.34V282.867H845.162V289.4H841.34ZM826.095 271.267C826.095 276.333 825.68 280.941 824.851 285.089L834.273 299L828.984 302.867L822.54 292.911C821.206 296.111 819.532 298.57 817.518 300.289C815.532 302.007 813.31 302.881 810.851 302.911V295.978C812.569 295.77 814.08 294.585 815.384 292.422C816.688 290.259 817.71 287.341 818.451 283.667C819.192 279.963 819.562 275.756 819.562 271.044L826.095 271.267Z" fill="#01A69F"/>
<path d="M679.214 346.569C678.444 347.414 677.436 348.066 676.192 348.525C674.962 348.984 673.681 349.229 672.347 349.258V347.814C673.325 347.784 674.295 347.606 675.258 347.281C676.221 346.94 677.044 346.458 677.725 345.836C678.421 345.214 678.844 344.481 678.992 343.636H672.636V342.192H686.503V343.636H680.681C680.592 344.273 680.414 344.851 680.147 345.369L686.925 347.992L686.414 349.347L679.214 346.569ZM687.658 352.258H680.37V355.325H678.77V352.258H671.481V350.814H687.658V352.258ZM686.792 357.303V358.769H672.658V353.947H674.281V357.303H686.792ZM690.189 343.636V342.192H704.034V347.992H702.434V343.636H690.189ZM705.256 350.703H689.078V349.281H695.323V345.792H696.945V349.281H705.256V350.703ZM697.167 352.436C699.226 352.436 700.915 352.71 702.234 353.258C703.567 353.792 704.234 354.606 704.234 355.703C704.234 356.814 703.567 357.643 702.234 358.192C700.915 358.725 699.226 358.992 697.167 358.992C695.108 358.992 693.412 358.725 692.078 358.192C690.745 357.643 690.078 356.814 690.078 355.703C690.078 354.562 690.738 353.732 692.056 353.214C693.375 352.695 695.078 352.436 697.167 352.436ZM697.167 357.614C698.649 357.614 699.915 357.451 700.967 357.125C702.019 356.799 702.545 356.325 702.545 355.703C702.545 355.095 702.012 354.629 700.945 354.303C699.893 353.977 698.634 353.814 697.167 353.814C695.656 353.814 694.375 353.969 693.323 354.281C692.286 354.592 691.767 355.066 691.767 355.703C691.767 356.325 692.293 356.799 693.345 357.125C694.412 357.451 695.686 357.614 697.167 357.614ZM721.743 352.147H720.12V341.947H721.743V352.147ZM712.32 347.636C711.728 348.703 710.972 349.584 710.054 350.281C709.135 350.977 708.098 351.414 706.943 351.592V350.036C707.98 349.829 708.883 349.347 709.654 348.592C710.439 347.821 711.039 346.873 711.454 345.747C711.869 344.621 712.083 343.414 712.098 342.125L713.698 342.214C713.698 343.666 713.461 345.014 712.987 346.258L718.276 350.125L717.343 351.369L712.32 347.636ZM721.743 353.147V358.969H720.12V354.636H707.965V353.147H721.743ZM725.94 355.947C726.296 355.947 726.585 356.066 726.807 356.303C727.029 356.525 727.14 356.806 727.14 357.147C727.14 357.325 727.118 357.503 727.074 357.681C727.044 357.858 726.97 358.11 726.851 358.436L725.896 361.481H724.785L725.563 358.258C725.311 358.184 725.111 358.051 724.963 357.858C724.814 357.666 724.74 357.429 724.74 357.147C724.74 356.806 724.851 356.525 725.074 356.303C725.311 356.066 725.6 355.947 725.94 355.947ZM742.464 359.014V341.947H744.086V359.014H742.464ZM738.753 346.614C738.753 348.881 738.39 350.866 737.664 352.569C736.938 354.258 735.901 355.569 734.553 356.503C733.22 357.436 731.642 357.903 729.82 357.903V356.303C731.316 356.303 732.612 355.91 733.709 355.125C734.805 354.34 735.642 353.229 736.22 351.792C736.812 350.34 737.109 348.636 737.109 346.681V344.147H729.82V342.614H738.753V346.614ZM747.728 343.636V342.192H761.573V347.992H759.973V343.636H747.728ZM762.795 350.703H746.617V349.281H752.862V345.792H754.484V349.281H762.795V350.703ZM754.706 352.436C756.766 352.436 758.454 352.71 759.773 353.258C761.106 353.792 761.773 354.606 761.773 355.703C761.773 356.814 761.106 357.643 759.773 358.192C758.454 358.725 756.766 358.992 754.706 358.992C752.647 358.992 750.951 358.725 749.617 358.192C748.284 357.643 747.617 356.814 747.617 355.703C747.617 354.562 748.277 353.732 749.595 353.214C750.914 352.695 752.617 352.436 754.706 352.436ZM754.706 357.614C756.188 357.614 757.454 357.451 758.506 357.125C759.558 356.799 760.084 356.325 760.084 355.703C760.084 355.095 759.551 354.629 758.484 354.303C757.432 353.977 756.173 353.814 754.706 353.814C753.195 353.814 751.914 353.969 750.862 354.281C749.825 354.592 749.306 355.066 749.306 355.703C749.306 356.325 749.832 356.799 750.884 357.125C751.951 357.451 753.225 357.614 754.706 357.614ZM779.282 352.147H777.659V341.947H779.282V352.147ZM769.859 347.636C769.267 348.703 768.511 349.584 767.593 350.281C766.674 350.977 765.637 351.414 764.482 351.592V350.036C765.519 349.829 766.422 349.347 767.193 348.592C767.978 347.821 768.578 346.873 768.993 345.747C769.408 344.621 769.622 343.414 769.637 342.125L771.237 342.214C771.237 343.666 771 345.014 770.526 346.258L775.815 350.125L774.882 351.369L769.859 347.636ZM779.282 353.147V358.969H777.659V354.636H765.504V353.147H779.282ZM783.479 355.947C783.835 355.947 784.124 356.066 784.346 356.303C784.568 356.525 784.679 356.806 784.679 357.147C784.679 357.325 784.657 357.503 784.613 357.681C784.583 357.858 784.509 358.11 784.39 358.436L783.435 361.481H782.324L783.102 358.258C782.85 358.184 782.65 358.051 782.502 357.858C782.353 357.666 782.279 357.429 782.279 357.147C782.279 356.806 782.39 356.525 782.613 356.303C782.85 356.066 783.139 355.947 783.479 355.947ZM791.492 346.125C791.477 347.488 791.396 348.799 791.248 350.058L795.203 356.992L793.937 357.769L790.825 352.236C790.47 353.925 789.944 355.251 789.248 356.214C788.551 357.177 787.692 357.755 786.67 357.947V356.347C787.737 356.066 788.537 355.029 789.07 353.236C789.618 351.443 789.907 349.073 789.937 346.125H786.825V344.614H789.937V341.903H791.492V344.614H794.559V346.125H791.492ZM802.07 359.014H800.537V341.947H802.07V359.014ZM797.825 342.036V358.725H796.314V350.525H793.937V348.947H796.314V342.036H797.825ZM812.245 348.903C810.171 348.903 808.46 348.606 807.112 348.014C805.764 347.421 805.09 346.54 805.09 345.369C805.09 344.214 805.764 343.34 807.112 342.747C808.46 342.155 810.171 341.858 812.245 341.858C814.305 341.858 816.008 342.155 817.356 342.747C818.705 343.34 819.379 344.214 819.379 345.369C819.379 346.54 818.705 347.421 817.356 348.014C816.023 348.606 814.319 348.903 812.245 348.903ZM812.245 343.236C810.705 343.236 809.408 343.421 808.356 343.792C807.305 344.162 806.779 344.688 806.779 345.369C806.779 346.051 807.297 346.584 808.334 346.969C809.386 347.34 810.69 347.525 812.245 347.525C813.786 347.525 815.075 347.34 816.112 346.969C817.164 346.584 817.69 346.051 817.69 345.369C817.69 344.688 817.164 344.162 816.112 343.792C815.075 343.421 813.786 343.236 812.245 343.236ZM816.112 354.081H819.156V358.992H817.556V355.481H805.179V354.081H808.379V351.769H804.156V350.347H820.334V351.769H816.112V354.081ZM809.979 351.769V354.081H814.512V351.769H809.979ZM837.265 359.014H835.732V350.525H832.799V358.725H831.287V342.036H832.799V348.947H835.732V341.947H837.265V359.014ZM826.221 356.436C826.917 356.436 827.599 356.377 828.265 356.258C828.932 356.14 829.51 355.977 829.999 355.769V357.258C829.51 357.481 828.917 357.651 828.221 357.769C827.524 357.888 826.791 357.947 826.021 357.947H822.31V342.614H829.31V344.125H823.865V356.436H826.221ZM839.463 345.525V344.036H844.196V341.747H845.841V344.036H850.618V345.525H839.463ZM854.441 359.014H852.841V341.947H854.441V359.014ZM845.841 356.458C848.463 356.458 850.315 356.199 851.396 355.681V357.214C850.878 357.451 850.137 357.636 849.174 357.769C848.211 357.888 847.107 357.947 845.863 357.947H839.352V356.458H844.241V353.681C843.026 353.577 842.07 353.214 841.374 352.592C840.692 351.969 840.352 351.177 840.352 350.214C840.352 349.132 840.767 348.273 841.596 347.636C842.441 346.999 843.596 346.681 845.063 346.681C846.5 346.681 847.641 346.999 848.485 347.636C849.33 348.273 849.752 349.132 849.752 350.214C849.752 351.192 849.404 351.992 848.707 352.614C848.026 353.221 847.07 353.577 845.841 353.681V356.458ZM841.885 350.214C841.885 350.836 842.159 351.347 842.707 351.747C843.255 352.132 844.041 352.325 845.063 352.325C846.085 352.325 846.863 352.132 847.396 351.747C847.944 351.347 848.218 350.836 848.218 350.214C848.218 349.592 847.944 349.081 847.396 348.681C846.863 348.281 846.085 348.081 845.063 348.081C844.041 348.081 843.255 348.281 842.707 348.681C842.159 349.081 841.885 349.592 841.885 350.214ZM864.166 343.569V346.592H876.499V347.969H862.566V342.192H876.322V343.569H864.166ZM861.344 351.192V349.814H877.522V351.192H861.344ZM869.433 352.881C871.537 352.881 873.24 353.125 874.544 353.614C875.862 354.088 876.522 354.866 876.522 355.947C876.522 357.029 875.862 357.814 874.544 358.303C873.24 358.792 871.537 359.036 869.433 359.036C867.329 359.036 865.618 358.792 864.299 358.303C862.996 357.814 862.344 357.029 862.344 355.947C862.344 354.866 862.996 354.088 864.299 353.614C865.618 353.125 867.329 352.881 869.433 352.881ZM869.433 354.236C867.907 354.236 866.618 354.377 865.566 354.658C864.529 354.925 864.011 355.355 864.011 355.947C864.011 356.555 864.529 356.999 865.566 357.281C866.603 357.547 867.892 357.681 869.433 357.681C870.959 357.681 872.24 357.547 873.277 357.281C874.314 356.999 874.833 356.555 874.833 355.947C874.833 355.355 874.314 354.925 873.277 354.658C872.24 354.377 870.959 354.236 869.433 354.236ZM731.468 389.014V371.947H733.09V389.014H731.468ZM727.757 376.614C727.757 378.881 727.394 380.866 726.668 382.569C725.942 384.258 724.905 385.569 723.557 386.503C722.224 387.436 720.646 387.903 718.824 387.903V386.303C720.32 386.303 721.616 385.91 722.713 385.125C723.809 384.34 724.646 383.229 725.224 381.792C725.816 380.34 726.112 378.636 726.112 376.681V374.147H718.824V372.614H727.757V376.614ZM750.799 380.836H749.199V377.058H745.666C745.503 378.11 744.992 378.955 744.132 379.592C743.273 380.229 742.162 380.547 740.799 380.547C739.792 380.547 738.91 380.369 738.155 380.014C737.414 379.658 736.836 379.162 736.421 378.525C736.021 377.888 735.821 377.162 735.821 376.347C735.821 375.547 736.021 374.829 736.421 374.192C736.836 373.555 737.414 373.058 738.155 372.703C738.91 372.347 739.792 372.169 740.799 372.169C742.118 372.169 743.206 372.473 744.066 373.081C744.925 373.688 745.451 374.495 745.643 375.503H749.199V371.947H750.799V380.836ZM740.799 379.125C741.806 379.125 742.621 378.881 743.243 378.392C743.866 377.888 744.177 377.206 744.177 376.347C744.177 375.503 743.866 374.836 743.243 374.347C742.621 373.843 741.806 373.592 740.799 373.592C739.792 373.592 738.977 373.843 738.355 374.347C737.732 374.836 737.421 375.503 737.421 376.347C737.421 377.206 737.732 377.888 738.355 378.392C738.977 378.881 739.792 379.125 740.799 379.125ZM750.799 381.614V388.747H737.332V381.614H738.91V383.636H749.221V381.614H750.799ZM749.221 385.014H738.91V387.347H749.221V385.014ZM757.347 374.858V373.525H760.947V371.703H762.525V373.525H765.969V374.858H757.347ZM767.258 381.925V372.036H768.747V376.058H771.613V371.947H773.125V382.525H771.613V377.569H768.747V381.925H767.258ZM765.547 379.014C765.547 379.962 765.184 380.725 764.458 381.303C763.747 381.866 762.85 382.147 761.769 382.147C760.673 382.147 759.769 381.866 759.058 381.303C758.347 380.74 757.991 379.977 757.991 379.014C757.991 378.066 758.347 377.31 759.058 376.747C759.769 376.169 760.673 375.881 761.769 375.881C762.85 375.881 763.747 376.169 764.458 376.747C765.184 377.31 765.547 378.066 765.547 379.014ZM759.458 379.014C759.458 379.547 759.665 379.992 760.08 380.347C760.51 380.703 761.073 380.881 761.769 380.881C762.465 380.881 763.021 380.703 763.436 380.347C763.865 379.992 764.08 379.547 764.08 379.014C764.08 378.481 763.865 378.036 763.436 377.681C763.021 377.325 762.465 377.147 761.769 377.147C761.073 377.147 760.51 377.325 760.08 377.681C759.665 378.036 759.458 378.481 759.458 379.014ZM766.169 382.925C768.302 382.925 770.028 383.169 771.347 383.658C772.665 384.147 773.325 384.91 773.325 385.947C773.325 386.999 772.665 387.769 771.347 388.258C770.043 388.732 768.317 388.969 766.169 388.969C764.021 388.969 762.288 388.732 760.969 388.258C759.665 387.769 759.013 386.999 759.013 385.947C759.013 384.91 759.673 384.147 760.991 383.658C762.31 383.169 764.036 382.925 766.169 382.925ZM766.169 387.636C767.769 387.636 769.08 387.495 770.102 387.214C771.125 386.932 771.636 386.51 771.636 385.947C771.636 385.399 771.117 384.984 770.08 384.703C769.058 384.421 767.754 384.281 766.169 384.281C764.569 384.281 763.25 384.421 762.213 384.703C761.191 384.984 760.68 385.399 760.68 385.947C760.68 386.51 761.191 386.932 762.213 387.214C763.25 387.495 764.569 387.636 766.169 387.636ZM789.811 380.614V389.014H788.211V371.947H789.811V379.014H792.167V380.614H789.811ZM782.1 372.436C782.07 375.221 781.856 377.606 781.456 379.592L786.678 386.947L785.367 387.903L780.922 381.569C780.374 383.481 779.626 384.992 778.678 386.103C777.73 387.199 776.633 387.814 775.389 387.947V386.281C776.47 386.088 777.389 385.355 778.144 384.081C778.915 382.806 779.493 381.155 779.878 379.125C780.263 377.095 780.463 374.851 780.478 372.392L782.1 372.436ZM810.648 384.636V371.947H812.27V384.636H810.648ZM803.048 377.969C802.5 379.095 801.759 380.006 800.826 380.703C799.907 381.399 798.848 381.829 797.648 381.992V380.436C799.055 380.199 800.188 379.503 801.048 378.347C801.907 377.192 802.374 375.71 802.448 373.903H797.848V372.436H808.337V373.903H804.048C804.033 374.866 803.9 375.747 803.648 376.547L808.803 380.614L807.914 381.858L803.048 377.969ZM812.737 388.747H798.648V383.436H800.27V387.214H812.737V388.747ZM814.534 374.858V373.525H818.134V371.703H819.712V373.525H823.157V374.858H814.534ZM824.445 381.925V372.036H825.934V376.058H828.801V371.947H830.312V382.525H828.801V377.569H825.934V381.925H824.445ZM822.734 379.014C822.734 379.962 822.371 380.725 821.645 381.303C820.934 381.866 820.038 382.147 818.957 382.147C817.86 382.147 816.957 381.866 816.245 381.303C815.534 380.74 815.179 379.977 815.179 379.014C815.179 378.066 815.534 377.31 816.245 376.747C816.957 376.169 817.86 375.881 818.957 375.881C820.038 375.881 820.934 376.169 821.645 376.747C822.371 377.31 822.734 378.066 822.734 379.014ZM816.645 379.014C816.645 379.547 816.853 379.992 817.268 380.347C817.697 380.703 818.26 380.881 818.957 380.881C819.653 380.881 820.208 380.703 820.623 380.347C821.053 379.992 821.268 379.547 821.268 379.014C821.268 378.481 821.053 378.036 820.623 377.681C820.208 377.325 819.653 377.147 818.957 377.147C818.26 377.147 817.697 377.325 817.268 377.681C816.853 378.036 816.645 378.481 816.645 379.014ZM823.357 382.925C825.49 382.925 827.216 383.169 828.534 383.658C829.853 384.147 830.512 384.91 830.512 385.947C830.512 386.999 829.853 387.769 828.534 388.258C827.231 388.732 825.505 388.969 823.357 388.969C821.208 388.969 819.475 388.732 818.157 388.258C816.853 387.769 816.201 386.999 816.201 385.947C816.201 384.91 816.86 384.147 818.179 383.658C819.497 383.169 821.223 382.925 823.357 382.925ZM823.357 387.636C824.957 387.636 826.268 387.495 827.29 387.214C828.312 386.932 828.823 386.51 828.823 385.947C828.823 385.399 828.305 384.984 827.268 384.703C826.245 384.421 824.942 384.281 823.357 384.281C821.757 384.281 820.438 384.421 819.401 384.703C818.379 384.984 817.868 385.399 817.868 385.947C817.868 386.51 818.379 386.932 819.401 387.214C820.438 387.495 821.757 387.636 823.357 387.636Z" fill="black"/>
<path d="M594 2V433" stroke="#333333" stroke-width="2.98229" stroke-linecap="round"/>
<path d="M290 2V433" stroke="#333333" stroke-width="2.98229" stroke-linecap="round"/>
<path d="M46.6418 292.133V273.511H52.5973V278.711H55.4862V273.378H61.4862V293.244H55.4862V284.889H52.5973V292.133H46.6418ZM38.2418 286.622C37.1751 288.519 35.8418 290 34.2418 291.067C32.6714 292.133 30.9529 292.681 29.0862 292.711V286.667C30.2121 286.489 31.2195 285.867 32.1084 284.8C33.0269 283.704 33.738 282.207 34.2418 280.311C34.7751 278.385 35.0418 276.163 35.0418 273.644L41.1306 273.867C41.1306 276.119 40.9084 278.385 40.464 280.667L47.4418 287.511L43.3529 291.778L38.2418 286.622ZM46.5529 293.289C51.1751 293.289 54.864 293.881 57.6195 295.067C60.4047 296.222 61.7973 298.074 61.7973 300.622C61.7973 303.17 60.4047 305.022 57.6195 306.178C54.864 307.333 51.1751 307.911 46.5529 307.911C41.9603 307.911 38.2714 307.333 35.4862 306.178C32.7306 305.022 31.3529 303.17 31.3529 300.622C31.3529 298.074 32.7306 296.222 35.4862 295.067C38.2418 293.881 41.9306 293.289 46.5529 293.289ZM46.5529 302.622C49.0714 302.622 51.101 302.474 52.6418 302.178C54.1825 301.852 54.9529 301.333 54.9529 300.622C54.9529 299.911 54.1825 299.407 52.6418 299.111C51.101 298.785 49.0714 298.622 46.5529 298.622C44.0343 298.622 42.0047 298.785 40.464 299.111C38.9529 299.407 38.1973 299.911 38.1973 300.622C38.1973 301.333 38.9529 301.852 40.464 302.178C42.0047 302.474 44.0343 302.622 46.5529 302.622ZM98.6815 286.356H94.8593V298.667H88.4593V273.378H94.8593V279.822H98.6815V286.356ZM75.7037 286.933C74.3111 289.037 72.6371 290.711 70.6815 291.956C68.7556 293.2 66.6519 293.881 64.3704 294V287.733C66.0593 287.526 67.5408 286.77 68.8148 285.467C70.1185 284.163 71.126 282.474 71.8371 280.4C72.5778 278.326 72.963 276.03 72.9926 273.511L79.4371 273.911C79.4371 276.696 79.0519 279.244 78.2815 281.556L87.4815 288.8L83.6593 293.511L75.7037 286.933ZM95.3482 301.467V307.511H66.1926V295.556H72.726V301.467H95.3482ZM101.566 285.378V273.378H130.455V285.378H101.566ZM107.877 278.222V280.533H124.099V278.222H107.877ZM119.21 293.067H130.543V302.044H107.832V303.244H130.855V307.511H101.521V298.489H124.232V297.289H101.432V293.067H112.81V291.556H99.5657V286.667H132.41V291.556H119.21V293.067ZM136.45 287.067V282H141.428V278.444H136.805V273.378H165.605V278.444H160.939V282H165.917V287.067H136.45ZM154.583 282V278.444H147.828V282H154.583ZM154.405 295.556H165.739V307.511H136.672V295.556H148.005V293.778H134.761V288.667H167.605V293.778H154.405V295.556ZM143.028 300.533V302.578H159.339V300.533H143.028ZM180.568 280.044V273.778H209.723V289.911H203.057V280.044H180.568ZM198.301 298.267V308.311H191.634V298.267H178.745V291.956H211.59V298.267H198.301ZM246.252 307.511H240.252V292.311H237.541V306.933H231.63V273.511H237.541V285.911H240.252V273.378H246.252V307.511ZM229.274 274.178V305.911H214.563V274.178H229.274ZM223.318 299.822V280.267H220.518V299.822H223.318Z" fill="#01A69F"/>
<path d="M88.3665 361.014V343.947H89.9887V361.014H88.3665ZM84.6554 348.614C84.6554 350.881 84.2924 352.866 83.5665 354.569C82.8406 356.258 81.8035 357.569 80.4554 358.503C79.122 359.436 77.5443 359.903 75.722 359.903V358.303C77.2183 358.303 78.5146 357.91 79.6109 357.125C80.7072 356.34 81.5443 355.229 82.122 353.792C82.7146 352.34 83.0109 350.636 83.0109 348.681V346.147H75.722V344.614H84.6554V348.614ZM107.697 352.836H106.097V349.058H102.564C102.401 350.11 101.89 350.955 101.031 351.592C100.172 352.229 99.0604 352.547 97.6975 352.547C96.6901 352.547 95.8086 352.369 95.053 352.014C94.3123 351.658 93.7345 351.162 93.3197 350.525C92.9197 349.888 92.7197 349.162 92.7197 348.347C92.7197 347.547 92.9197 346.829 93.3197 346.192C93.7345 345.555 94.3123 345.058 95.053 344.703C95.8086 344.347 96.6901 344.169 97.6975 344.169C99.016 344.169 100.105 344.473 100.964 345.081C101.823 345.688 102.349 346.495 102.542 347.503H106.097V343.947H107.697V352.836ZM97.6975 351.125C98.7049 351.125 99.5197 350.881 100.142 350.392C100.764 349.888 101.075 349.206 101.075 348.347C101.075 347.503 100.764 346.836 100.142 346.347C99.5197 345.843 98.7049 345.592 97.6975 345.592C96.6901 345.592 95.8753 345.843 95.253 346.347C94.6308 346.836 94.3197 347.503 94.3197 348.347C94.3197 349.206 94.6308 349.888 95.253 350.392C95.8753 350.881 96.6901 351.125 97.6975 351.125ZM107.697 353.614V360.747H94.2308V353.614H95.8086V355.636H106.12V353.614H107.697ZM106.12 357.014H95.8086V359.347H106.12V357.014ZM125.628 361.014H124.095V343.947H125.628V361.014ZM121.717 344.036V360.725H120.184V352.792H117.851C117.806 355.295 117.473 357.155 116.851 358.369C116.228 359.569 115.317 360.169 114.117 360.169C112.888 360.169 111.954 359.532 111.317 358.258C110.695 356.969 110.384 354.977 110.384 352.281C110.384 347.021 111.628 344.392 114.117 344.392C116.443 344.392 117.68 346.651 117.828 351.169H120.184V344.036H121.717ZM114.117 358.636C114.858 358.636 115.406 358.118 115.762 357.081C116.132 356.029 116.317 354.429 116.317 352.281C116.317 350.132 116.132 348.54 115.762 347.503C115.406 346.451 114.858 345.925 114.117 345.925C113.377 345.925 112.821 346.451 112.451 347.503C112.095 348.54 111.917 350.132 111.917 352.281C111.917 354.429 112.095 356.029 112.451 357.081C112.821 358.118 113.377 358.636 114.117 358.636ZM142.893 361.014H141.293V351.836H136.959V350.258H141.293V343.947H142.893V361.014ZM134.382 344.436C134.352 346.851 134.189 348.992 133.893 350.858L139.048 359.058L137.737 359.992L133.404 352.969C132.871 355.073 132.137 356.732 131.204 357.947C130.271 359.147 129.167 359.814 127.893 359.947V358.258C128.945 358.066 129.834 357.332 130.559 356.058C131.285 354.784 131.826 353.14 132.182 351.125C132.552 349.095 132.745 346.851 132.759 344.392L134.382 344.436ZM163.152 352.547V343.947H164.774V352.547H163.152ZM161.885 351.014C161.366 351.266 160.633 351.466 159.685 351.614C158.752 351.747 157.663 351.814 156.418 351.814H149.907V350.458H152.129V345.769H149.952V344.414H161.152V345.769H158.952V350.347C160.181 350.214 161.159 349.969 161.885 349.614V351.014ZM155.729 350.458C156.5 350.458 157.063 350.443 157.418 350.414V345.769H153.663V350.458H155.729ZM165.218 360.747H151.152V356.569H163.174V354.836H151.129V353.547H164.774V357.725H152.752V359.481H165.218V360.747ZM183.483 360.147H167.305V358.592H171.149V353.725C170.186 353.295 169.446 352.718 168.927 351.992C168.409 351.251 168.149 350.399 168.149 349.436C168.149 348.399 168.446 347.495 169.038 346.725C169.631 345.955 170.475 345.362 171.572 344.947C172.668 344.518 173.942 344.303 175.394 344.303C176.846 344.303 178.12 344.518 179.216 344.947C180.312 345.362 181.157 345.955 181.749 346.725C182.342 347.495 182.638 348.399 182.638 349.436C182.638 350.399 182.379 351.251 181.86 351.992C181.342 352.718 180.601 353.295 179.638 353.725V358.592H183.483V360.147ZM175.394 345.836C174.283 345.836 173.305 345.984 172.46 346.281C171.616 346.577 170.964 346.999 170.505 347.547C170.046 348.095 169.816 348.725 169.816 349.436C169.816 350.147 170.046 350.777 170.505 351.325C170.964 351.873 171.616 352.295 172.46 352.592C173.305 352.888 174.283 353.036 175.394 353.036C176.505 353.036 177.483 352.888 178.327 352.592C179.172 352.295 179.823 351.873 180.283 351.325C180.742 350.777 180.972 350.147 180.972 349.436C180.972 348.725 180.742 348.095 180.283 347.547C179.823 346.999 179.172 346.577 178.327 346.281C177.483 345.984 176.505 345.836 175.394 345.836ZM178.038 358.592V354.281C177.194 354.473 176.312 354.569 175.394 354.569C174.401 354.569 173.52 354.473 172.749 354.281V358.592H178.038ZM184.88 347.058V345.658H189.569V343.636H191.191V345.658H195.88V347.058H184.88ZM201.858 350.369H199.503V356.747H197.903V343.947H199.503V348.769H201.858V350.369ZM190.391 355.103C188.999 355.103 187.851 354.792 186.947 354.169C186.058 353.547 185.614 352.695 185.614 351.614C185.614 350.532 186.058 349.681 186.947 349.058C187.851 348.436 188.999 348.125 190.391 348.125C191.784 348.125 192.925 348.436 193.814 349.058C194.703 349.681 195.147 350.532 195.147 351.614C195.147 352.695 194.703 353.547 193.814 354.169C192.925 354.792 191.784 355.103 190.391 355.103ZM190.391 349.436C189.414 349.436 188.628 349.643 188.036 350.058C187.458 350.458 187.169 350.977 187.169 351.614C187.169 352.251 187.458 352.777 188.036 353.192C188.628 353.592 189.414 353.792 190.391 353.792C191.354 353.792 192.125 353.592 192.703 353.192C193.295 352.777 193.591 352.251 193.591 351.614C193.591 350.977 193.295 350.458 192.703 350.058C192.125 349.643 191.354 349.436 190.391 349.436ZM199.991 359.258V360.747H186.058V356.192H187.68V359.258H199.991ZM52.1295 379.481V384.147H50.5295V373.947H52.1295V377.858H54.485V379.481H52.1295ZM47.2628 376.325C47.2628 378.725 46.4406 380.525 44.7961 381.725C43.1665 382.91 40.8998 383.503 37.9961 383.503V381.969C40.4258 381.955 42.3072 381.503 43.6406 380.614C44.9887 379.71 45.6628 378.362 45.6628 376.569V375.881H37.9961V374.414H47.2628V376.325ZM52.1295 385.147V390.969H50.5072V386.636H38.5295V385.147H52.1295ZM62.8382 377.992C62.0679 378.732 61.0605 379.318 59.816 379.747C58.5864 380.162 57.3123 380.384 55.9938 380.414V379.014C56.9419 378.984 57.8827 378.829 58.816 378.547C59.7642 378.266 60.579 377.873 61.2605 377.369C61.9568 376.851 62.3938 376.251 62.5716 375.569H56.2827V374.192H70.1493V375.569H64.3049C64.2308 376.043 64.0827 376.473 63.8605 376.858L70.5938 379.147L70.1493 380.481L62.8382 377.992ZM71.3049 383.369H55.1271V381.992H62.416V379.792H64.016V381.992H71.3049V383.369ZM63.216 384.925C65.3197 384.925 67.0234 385.162 68.3271 385.636C69.6456 386.095 70.3049 386.866 70.3049 387.947C70.3049 389.029 69.6456 389.814 68.3271 390.303C67.0234 390.792 65.3197 391.036 63.216 391.036C61.1123 391.036 59.4012 390.792 58.0827 390.303C56.779 389.814 56.1271 389.029 56.1271 387.947C56.1271 386.866 56.779 386.095 58.0827 385.636C59.4012 385.162 61.1123 384.925 63.216 384.925ZM63.216 389.681C64.7419 389.681 66.016 389.547 67.0382 389.281C68.0753 388.999 68.5938 388.555 68.5938 387.947C68.5938 387.355 68.0827 386.932 67.0605 386.681C66.0382 386.414 64.7568 386.281 63.216 386.281C61.6753 386.281 60.3864 386.414 59.3493 386.681C58.3271 386.932 57.816 387.355 57.816 387.947C57.816 388.555 58.3345 388.999 59.3716 389.281C60.4086 389.547 61.6901 389.681 63.216 389.681ZM91.7193 382.614V391.014H90.1193V373.947H91.7193V381.014H94.0749V382.614H91.7193ZM84.3638 388.414C85.1341 388.414 85.9045 388.34 86.6749 388.192C87.4452 388.029 88.0749 387.821 88.5638 387.569V389.125C88.0897 389.377 87.4601 389.577 86.6749 389.725C85.8897 389.873 85.0971 389.947 84.2971 389.947H77.9415V374.614H87.2971V376.147H79.5638V388.414H84.3638ZM109.317 379.814H111.673V381.258H109.317V383.392H107.717V373.947H109.317V375.703H111.673V377.169H109.317V379.814ZM99.8059 382.769C98.7985 382.769 97.917 382.592 97.1614 382.236C96.4207 381.866 95.8429 381.355 95.4281 380.703C95.0281 380.051 94.8281 379.303 94.8281 378.458C94.8281 377.614 95.0281 376.866 95.4281 376.214C95.8429 375.562 96.4207 375.058 97.1614 374.703C97.917 374.332 98.7985 374.147 99.8059 374.147C100.813 374.147 101.687 374.332 102.428 374.703C103.184 375.058 103.761 375.562 104.161 376.214C104.561 376.866 104.761 377.614 104.761 378.458C104.761 379.303 104.561 380.051 104.161 380.703C103.761 381.355 103.184 381.866 102.428 382.236C101.687 382.592 100.813 382.769 99.8059 382.769ZM99.8059 375.547C98.7836 375.547 97.9614 375.806 97.3392 376.325C96.7318 376.843 96.4281 377.555 96.4281 378.458C96.4281 379.362 96.7318 380.073 97.3392 380.592C97.9614 381.11 98.7836 381.369 99.8059 381.369C100.813 381.369 101.621 381.11 102.228 380.592C102.85 380.073 103.161 379.362 103.161 378.458C103.161 377.555 102.85 376.843 102.228 376.325C101.621 375.806 100.813 375.547 99.8059 375.547ZM102.784 384.014C104.813 384.014 106.45 384.303 107.695 384.881C108.939 385.458 109.561 386.332 109.561 387.503C109.561 388.673 108.939 389.547 107.695 390.125C106.45 390.688 104.813 390.969 102.784 390.969C100.769 390.969 99.1318 390.688 97.8725 390.125C96.6281 389.547 96.0059 388.673 96.0059 387.503C96.0059 386.332 96.6281 385.458 97.8725 384.881C99.1318 384.303 100.769 384.014 102.784 384.014ZM102.784 389.569C104.28 389.569 105.502 389.392 106.45 389.036C107.398 388.681 107.873 388.169 107.873 387.503C107.873 386.821 107.398 386.303 106.45 385.947C105.502 385.592 104.28 385.414 102.784 385.414C101.287 385.414 100.065 385.592 99.117 385.947C98.1688 386.303 97.6947 386.821 97.6947 387.503C97.6947 388.169 98.1688 388.681 99.117 389.036C100.065 389.392 101.287 389.569 102.784 389.569ZM112.292 377.058V375.658H116.981V373.636H118.604V375.658H123.292V377.058H112.292ZM129.27 380.369H126.915V386.747H125.315V373.947H126.915V378.769H129.27V380.369ZM117.804 385.103C116.411 385.103 115.263 384.792 114.359 384.169C113.47 383.547 113.026 382.695 113.026 381.614C113.026 380.532 113.47 379.681 114.359 379.058C115.263 378.436 116.411 378.125 117.804 378.125C119.196 378.125 120.337 378.436 121.226 379.058C122.115 379.681 122.559 380.532 122.559 381.614C122.559 382.695 122.115 383.547 121.226 384.169C120.337 384.792 119.196 385.103 117.804 385.103ZM117.804 379.436C116.826 379.436 116.041 379.643 115.448 380.058C114.87 380.458 114.581 380.977 114.581 381.614C114.581 382.251 114.87 382.777 115.448 383.192C116.041 383.592 116.826 383.792 117.804 383.792C118.766 383.792 119.537 383.592 120.115 383.192C120.707 382.777 121.004 382.251 121.004 381.614C121.004 380.977 120.707 380.458 120.115 380.058C119.537 379.643 118.766 379.436 117.804 379.436ZM127.404 389.258V390.747H113.47V386.192H115.092V389.258H127.404ZM143.729 383.369V374.036H145.24V377.281H148.285V373.947H149.818V383.925H148.285V378.836H145.24V383.369H143.729ZM138.64 379.481C137.781 381.614 136.344 382.91 134.329 383.369V381.814C136.744 381.073 137.951 378.518 137.951 374.147L139.507 374.192C139.507 375.54 139.396 376.769 139.173 377.881L143.062 381.769L142.018 382.881L138.64 379.481ZM142.885 384.325C144.988 384.325 146.707 384.592 148.04 385.125C149.388 385.658 150.062 386.503 150.062 387.658C150.062 388.814 149.396 389.658 148.062 390.192C146.729 390.71 145.003 390.969 142.885 390.969C140.766 390.969 139.04 390.71 137.707 390.192C136.388 389.658 135.729 388.814 135.729 387.658C135.729 386.503 136.396 385.658 137.729 385.125C139.062 384.592 140.781 384.325 142.885 384.325ZM142.885 389.569C144.44 389.569 145.744 389.421 146.796 389.125C147.848 388.814 148.373 388.325 148.373 387.658C148.373 386.992 147.848 386.51 146.796 386.214C145.744 385.903 144.44 385.747 142.885 385.747C141.329 385.747 140.025 385.903 138.973 386.214C137.936 386.51 137.418 386.992 137.418 387.658C137.418 388.325 137.936 388.814 138.973 389.125C140.025 389.421 141.329 389.569 142.885 389.569ZM168.86 379.569H166.504V386.636H164.904V373.947H166.504V377.947H168.86V379.569ZM157.282 379.858C156.704 380.984 155.964 381.91 155.06 382.636C154.156 383.362 153.127 383.814 151.971 383.992V382.414C152.993 382.206 153.882 381.703 154.638 380.903C155.408 380.103 155.993 379.11 156.393 377.925C156.793 376.74 156.993 375.473 156.993 374.125L158.616 374.214C158.616 375.74 158.393 377.14 157.949 378.414L163.171 382.614L162.193 383.836L157.282 379.858ZM166.993 389.214V390.747H153.06V385.436H154.682V389.214H166.993ZM170.724 379.703V374.192H184.48V379.703H170.724ZM172.302 375.503V378.392H182.88V375.503H172.302ZM178.391 384.169H184.524V387.992H172.235V389.547H184.813V390.769H170.68V386.903H182.947V385.392H170.635V384.169H176.791V382.458H169.502V381.147H185.68V382.458H178.391V384.169ZM188.055 380.481V379.125H191.033V375.547H188.233V374.192H202.144V375.547H199.344V379.125H202.3V380.481H188.055ZM197.744 379.125V375.547H192.633V379.125H197.744ZM195.989 385.458H202.1V390.769H188.278V385.458H194.389V383.503H187.1V382.147H203.278V383.503H195.989V385.458ZM189.878 386.792V389.436H200.522V386.792H189.878ZM205.809 375.969V374.392H219.675V382.103H218.009V375.969H205.809ZM213.497 385.258V391.414H211.875V385.258H204.697V383.636H220.875V385.258H213.497ZM237.806 391.014H236.273V382.547H233.34V390.725H231.828V374.036H233.34V380.947H236.273V373.947H237.806V391.014ZM229.717 374.614V389.947H222.851V374.614H229.717ZM228.184 388.414V376.147H224.362V388.414H228.184Z" fill="black"/>
<path fill-rule="evenodd" clip-rule="evenodd" d="M156.056 56.2817C165.281 58.3694 173.923 62.0078 181.69 66.918L196.082 52.5265C206.181 59.5355 214.963 68.3175 221.973 78.4172L207.581 92.7968C212.479 100.564 216.118 109.206 218.205 118.443H238.556C239.629 124.379 240.189 130.501 240.189 136.741C240.189 142.992 239.629 149.103 238.556 155.051H218.217C216.421 162.935 213.505 170.399 209.633 177.256H172.768C184.116 167.437 191.288 152.929 191.288 136.741C191.288 107.177 167.322 83.199 137.746 83.199C108.182 83.199 84.204 107.177 84.204 136.741C84.204 152.929 91.3882 167.437 102.735 177.256H65.8593C61.9991 170.399 59.0717 162.935 57.2876 155.051H36.9366C35.8634 149.103 35.3037 142.992 35.3037 136.741C35.3037 130.501 35.8634 124.378 36.9366 118.442H57.2876C59.3753 109.205 63.0136 100.564 67.9239 92.7964L53.5323 78.4168C60.5414 68.3171 69.3234 59.5355 79.4231 52.526L93.8026 66.9176C101.57 62.0078 110.212 58.369 119.448 56.2813V35.9307C125.385 34.858 131.507 34.2979 137.747 34.2979C143.998 34.2979 150.109 34.8576 156.057 35.9307V56.2817H156.056Z" fill="#00D3B3"/>
<path fill-rule="evenodd" clip-rule="evenodd" d="M218.217 155.051H207.313C205.528 162.935 202.601 170.399 198.741 177.256H209.634C213.506 170.399 216.421 162.935 218.217 155.051ZM145.152 56.2823C154.389 58.37 163.03 62.0083 170.798 66.9186L174.728 62.9766C168.874 60.0375 162.611 57.7636 156.057 56.2823V35.9313C152.476 35.2898 148.849 34.8234 145.152 34.5669L145.152 56.2823ZM191.405 57.2034C198.916 63.3029 205.54 70.452 211.068 78.4173L196.688 92.7969C201.587 100.564 205.225 109.206 207.313 118.443H218.205C216.118 109.206 212.479 100.564 207.581 92.7969L221.973 78.4173C214.964 68.3176 206.182 59.5361 196.082 52.5266L191.405 57.2034ZM227.664 118.443C228.736 124.379 229.297 130.502 229.297 136.741C229.297 142.992 228.737 149.103 227.664 155.051H238.556C239.629 149.103 240.189 142.992 240.189 136.741C240.189 130.502 239.63 124.379 238.556 118.443H227.664Z" fill="#00A585"/>
<path fill-rule="evenodd" clip-rule="evenodd" d="M137.746 90.9775L101.254 112.052V154.188L137.746 175.262L174.238 154.188V112.052L137.746 90.9775Z" fill="#EDA558"/>
<path fill-rule="evenodd" clip-rule="evenodd" d="M101.254 154.13V154.188L105.546 156.66V156.602L101.254 154.13ZM137.746 175.262L174.238 154.188V112.052L170.156 109.685V151.763L137.746 170.481V175.262Z" fill="#CA8E56"/>
<path fill-rule="evenodd" clip-rule="evenodd" d="M101.313 112.017L137.746 90.9775L162.074 105.031L174.18 112.017L137.746 133.055L125.641 126.058L113.477 119.037L101.313 112.017Z" fill="#C48958"/>
<path fill-rule="evenodd" clip-rule="evenodd" d="M133.723 93.3102L137.747 90.9775L162.074 105.031L174.18 112.017L170.156 114.337L133.723 93.3102Z" fill="#AB703F"/>
<path fill-rule="evenodd" clip-rule="evenodd" d="M125.641 126.059L137.746 133.056V175.262L113.419 161.209L101.254 154.188V112.052L101.313 112.017L113.477 119.038L125.641 126.059Z" fill="#FFC06C"/>
<path fill-rule="evenodd" clip-rule="evenodd" d="M162.062 118.979C149.898 111.959 137.723 104.938 125.559 97.917L113.395 104.938C125.559 111.958 137.723 118.979 149.899 126.011V147.074L162.062 140.053V118.979Z" fill="#FF4C4C"/>
<path fill-rule="evenodd" clip-rule="evenodd" d="M125.641 126.059L137.746 133.056V175.262L113.419 161.209L101.254 154.188V112.052L101.313 112.017L113.477 119.038L125.641 126.059Z" fill="#FFC06C"/>
<path fill-rule="evenodd" clip-rule="evenodd" d="M162.074 119.072C149.91 112.052 137.747 105.031 125.582 97.9985L113.418 105.031C125.582 112.052 137.746 119.073 149.91 126.093V147.167L162.074 140.147V119.072Z" fill="#FF4C4C"/>
<path fill-rule="evenodd" clip-rule="evenodd" d="M174.25 154.188L137.746 175.262V217.398L174.25 238.472L210.741 217.398V175.262L174.25 154.188Z" fill="#EDA558"/>
<path fill-rule="evenodd" clip-rule="evenodd" d="M137.746 217.34V217.398L142.038 219.87V219.812L137.746 217.34ZM174.25 238.472L210.741 217.399V175.262L206.648 172.906V214.973L174.25 233.691V238.472Z" fill="#CA8E56"/>
<path fill-rule="evenodd" clip-rule="evenodd" d="M137.805 175.227L174.25 154.188L198.578 168.241L210.683 175.227L174.25 196.266L162.144 189.268L149.981 182.248L137.805 175.227Z" fill="#C48958"/>
<path fill-rule="evenodd" clip-rule="evenodd" d="M170.215 156.521L174.25 154.188L198.578 168.241L210.683 175.227L206.648 177.548L170.215 156.521Z" fill="#AB703F"/>
<path fill-rule="evenodd" clip-rule="evenodd" d="M162.144 189.268L174.25 196.266V238.472L149.91 224.419L137.746 217.398V175.262L137.804 175.227L149.98 182.248L162.144 189.268Z" fill="#FFC06C"/>
<path fill-rule="evenodd" clip-rule="evenodd" d="M198.554 182.19C186.39 175.169 174.227 168.148 162.062 161.127L149.898 168.148C162.062 175.169 174.226 182.19 186.39 189.222V210.284L198.554 203.264V182.19Z" fill="#FF4C4C"/>
<path fill-rule="evenodd" clip-rule="evenodd" d="M162.144 189.268L174.25 196.266V238.472L149.91 224.419L137.746 217.398V175.262L137.804 175.227L149.98 182.248L162.144 189.268Z" fill="#FFC06C"/>
<path fill-rule="evenodd" clip-rule="evenodd" d="M198.577 182.283C186.414 175.262 174.25 168.241 162.074 161.209L149.91 168.242C162.074 175.262 174.25 182.283 186.414 189.304V210.378L198.577 203.357V182.283Z" fill="#FF4C4C"/>
<path fill-rule="evenodd" clip-rule="evenodd" d="M101.255 154.188L64.7632 175.262V217.398L101.255 238.472L137.747 217.398V175.262L101.255 154.188Z" fill="#EDA558"/>
<path fill-rule="evenodd" clip-rule="evenodd" d="M64.8213 175.227L101.255 154.188L125.583 168.241L137.688 175.227L101.255 196.266L89.149 189.268L76.9851 182.248L64.8213 175.227Z" fill="#C48958"/>
<path fill-rule="evenodd" clip-rule="evenodd" d="M89.1491 189.268L101.255 196.266V238.472L76.927 224.419L64.7632 217.398V175.262L64.8214 175.227L76.9853 182.248L89.1491 189.268Z" fill="#FFC06C"/>
<path fill-rule="evenodd" clip-rule="evenodd" d="M125.582 182.283C113.419 175.262 101.255 168.241 89.0906 161.209L76.9268 168.242C89.0906 175.262 101.254 182.283 113.419 189.304V210.378L125.582 203.357V182.283Z" fill="#FF4C4C"/>
<path d="M241.807 117.852C241.558 116.476 240.36 115.474 238.961 115.474H220.808C218.8 107.591 215.683 100.067 211.517 93.0513L224.345 80.2133C225.334 79.2236 225.473 77.6692 224.675 76.52C217.415 66.0576 208.428 57.0712 197.966 49.8105C196.817 49.0137 195.261 49.1517 194.272 50.1414L181.435 62.9777C174.429 58.8094 166.91 55.689 159.023 53.6777V35.5239C159.023 34.1244 158.021 32.9261 156.644 32.6774C144.243 30.4402 131.229 30.4414 118.861 32.6778C117.484 32.9269 116.483 34.1248 116.483 35.5239V53.6769C108.592 55.6869 101.068 58.8077 94.0592 62.9777L81.2229 50.141C80.2332 49.1513 78.6771 49.0133 77.5275 49.8109C67.0544 57.0877 58.0684 66.0737 50.8189 76.5196C50.0212 77.6687 50.1604 79.2236 51.1489 80.2129L63.977 93.0509C59.8115 100.067 56.6945 107.589 54.6865 115.474H36.5319C35.1328 115.474 33.9344 116.475 33.6858 117.852C32.5672 124.041 32 130.395 32 136.738C32 143.077 32.5672 149.435 33.6853 155.635C33.934 157.012 35.1324 158.014 36.5319 158.014H54.6853C56.2789 164.262 58.5967 170.322 61.5779 176.074V217.719C61.5779 218.752 62.1293 219.707 63.0236 220.224L99.6618 241.383C100.11 241.641 100.609 241.77 101.108 241.77C101.608 241.77 102.107 241.641 102.555 241.383L137.746 221.059L172.938 241.383C173.385 241.641 173.885 241.77 174.384 241.77C174.884 241.77 175.383 241.641 175.83 241.383L212.481 220.224C213.375 219.707 213.927 218.752 213.927 217.719V176.073C216.904 170.309 219.217 164.25 220.807 158.014H238.961C240.36 158.014 241.559 157.012 241.807 155.635C242.925 149.437 243.493 143.079 243.493 136.738C243.493 130.393 242.926 124.039 241.807 117.852ZM98.216 233.868L67.3626 216.05V180.355C77.6457 186.289 87.9345 192.229 98.216 198.171V233.868ZM101.108 193.163C90.8459 187.232 80.5768 181.303 70.3136 175.38L76.6795 171.703C86.9444 177.623 97.2164 183.552 107.483 189.481L101.108 193.163ZM188.044 187.008C177.279 180.789 166.513 174.573 155.74 168.363L162.171 164.649C170.251 169.317 178.33 173.979 186.413 178.643L195.929 184.134V201.951L189.489 205.665V189.512C189.49 188.479 188.939 187.525 188.044 187.008ZM142.635 111.059C148.184 114.262 153.731 117.464 159.279 120.669V138.488L152.851 142.198V126.048C152.851 125.015 152.3 124.06 151.406 123.544C145.477 120.119 139.546 116.694 133.615 113.27C128.779 110.478 123.945 107.686 119.111 104.894L125.533 101.185C131.234 104.478 136.934 107.769 142.635 111.059ZM131.316 97.845L137.746 94.131L168.543 111.917L162.115 115.627C156.586 112.433 151.057 109.241 145.527 106.05C140.79 103.315 136.053 100.58 131.316 97.845ZM148.513 149.711C148.961 149.969 149.46 150.099 149.959 150.099C150.458 150.099 150.958 149.969 151.405 149.711L163.617 142.662C164.513 142.146 165.064 141.191 165.064 140.158V120.604L171.492 116.894V152.586L140.639 170.404V134.708L147.068 130.995V147.207C147.067 148.239 147.619 149.194 148.513 149.711ZM189.304 173.632C182.186 169.525 175.07 165.418 167.955 161.309L174.385 157.595L205.19 175.38L198.759 179.088L189.304 173.632ZM184.522 156.769L177.277 152.586V111.95C177.277 110.917 176.726 109.962 175.831 109.446L139.193 88.2869C138.298 87.7705 137.196 87.7705 136.3 88.2869L99.6622 109.446C98.7679 109.963 98.2164 110.918 98.2164 111.95V152.586L90.9777 156.766C88.2592 150.458 86.882 143.736 86.882 136.739C86.882 108.692 109.699 85.8737 137.747 85.8737C165.794 85.8737 188.612 108.691 188.612 136.739C188.611 143.729 187.237 150.453 184.522 156.769ZM101.108 157.595L131.905 175.381L125.477 179.091C119.948 175.897 114.418 172.705 108.889 169.514C104.152 166.779 99.4147 164.044 94.6776 161.309L101.108 157.595ZM88.8945 164.649C94.5954 167.942 100.297 171.233 105.997 174.523C111.546 177.726 117.093 180.928 122.642 184.132V201.952L116.213 205.662V189.512C116.213 188.479 115.662 187.524 114.768 187.007C104.003 180.789 93.2298 174.573 82.4634 168.362L88.8945 164.649ZM134.855 216.05L104.001 233.868V198.172L110.429 194.458V210.67C110.429 211.703 110.981 212.659 111.876 213.175C112.323 213.433 112.822 213.562 113.322 213.562C113.821 213.562 114.32 213.433 114.768 213.175L126.98 206.126C127.875 205.609 128.427 204.654 128.427 203.621V184.067L134.855 180.356V216.05H134.855ZM134.855 170.404L104.001 152.586V116.892C114.284 122.826 124.573 128.765 134.855 134.707V170.404ZM137.746 129.698C127.484 123.768 117.215 117.839 106.952 111.916L113.328 108.233C119.125 111.582 124.924 114.931 130.723 118.279C135.19 120.858 139.656 123.437 144.121 126.016L137.746 129.698ZM171.492 233.868L140.639 216.05V180.355C150.928 186.289 161.212 192.229 171.492 198.172V233.868ZM174.385 193.163C164.123 187.232 153.859 181.303 143.59 175.38L149.956 171.703C160.231 177.624 170.497 183.553 180.762 189.482L174.385 193.163ZM208.142 216.05L177.277 233.869V198.173L183.705 194.463V210.671C183.705 211.704 184.256 212.659 185.151 213.175C185.598 213.434 186.097 213.563 186.597 213.563C187.096 213.563 187.595 213.434 188.042 213.176L200.266 206.127C201.162 205.611 201.714 204.656 201.714 203.622V184.062L208.142 180.355V216.05H208.142ZM236.514 152.23H218.528C217.177 152.23 216.005 153.167 215.707 154.485C214.395 160.296 212.412 165.961 209.812 171.369L189.56 159.677C192.767 152.457 194.396 144.755 194.396 136.739C194.396 105.502 168.983 80.089 137.746 80.089C106.51 80.089 81.0973 105.502 81.0973 136.739C81.0973 144.762 82.729 152.463 85.9415 159.675L65.6896 171.37C63.0864 165.973 61.1012 160.307 59.7859 154.485C59.4881 153.167 58.3166 152.23 56.965 152.23H38.9789C38.1858 147.126 37.7847 141.926 37.7847 136.739C37.7847 131.549 38.1858 126.353 38.9785 121.259H56.9646C58.3162 121.259 59.4873 120.323 59.7855 119.004C61.7778 110.19 65.2406 101.832 70.0777 94.1604C70.7985 93.0178 70.6321 91.5291 69.6774 90.5732L56.9675 77.8534C63.0955 69.4576 70.4449 62.109 78.8618 55.9612L91.5808 68.6802C92.537 69.6365 94.0295 69.8026 95.1712 69.0797C102.832 64.2372 111.189 60.7711 120.012 58.7772C121.33 58.4793 122.267 57.3078 122.267 55.9563V37.9701C132.45 36.3856 143.03 36.3847 153.238 37.971V55.9563C153.238 57.3074 154.174 58.4785 155.491 58.7772C164.309 60.7727 172.663 64.2393 180.321 69.0797C181.464 69.8026 182.955 69.6369 183.911 68.6802L196.632 55.9604C205.039 62.0962 212.389 69.4457 218.525 77.8534L205.815 90.5732C204.86 91.5287 204.694 93.0178 205.414 94.1604C210.252 101.832 213.715 110.191 215.707 119.004C216.004 120.323 217.176 121.259 218.528 121.259H236.514C237.306 126.352 237.707 131.548 237.707 136.739C237.708 141.928 237.307 147.127 236.514 152.23Z" fill="black"/>
</svg>
