<svg width="1123" height="237" viewBox="0 0 1123 237" fill="none" xmlns="http://www.w3.org/2000/svg">
<path d="M289.109 19.1778V26.6889H282.709V6.37778H289.109V12.6H292.932V19.1778H289.109ZM278.576 11.7111C278.576 16.5111 276.813 20.1111 273.287 22.5111C269.791 24.8815 265.109 26.0667 259.243 26.0667V20.2C263.154 20.1407 266.25 19.5037 268.532 18.2889C270.843 17.0444 271.998 15.2963 271.998 13.0444V12.5111H259.243V6.77778H278.576V11.7111ZM289.109 27.8889V40.9111H282.576V33.6667H260.309V27.8889H289.109ZM309.282 16.2889C307.505 17.3259 305.401 18.1407 302.971 18.7333C300.542 19.2963 297.993 19.6074 295.327 19.6667V14.4222C297.668 14.363 299.89 14.0815 301.993 13.5778C304.127 13.0741 305.668 12.3926 306.616 11.5333H295.682V6.37778H324.838V11.5333H313.771C313.623 11.8593 313.519 12.0519 313.46 12.1111L325.638 14.7778L324.171 19.8L309.282 16.2889ZM326.66 26.2889H293.816V21.0889H307.06V18.1556H313.46V21.0889H326.66V26.2889ZM310.26 27.4889C314.912 27.4889 318.556 28.037 321.193 29.1333C323.831 30.2 325.149 31.9037 325.149 34.2444C325.149 36.5852 323.831 38.2889 321.193 39.3556C318.556 40.4519 314.912 41 310.26 41C305.579 41 301.919 40.4519 299.282 39.3556C296.675 38.2889 295.371 36.5852 295.371 34.2444C295.371 31.9037 296.675 30.2 299.282 29.1333C301.919 28.037 305.579 27.4889 310.26 27.4889ZM310.26 35.9778C312.749 35.9778 314.705 35.8444 316.127 35.5778C317.579 35.2815 318.305 34.837 318.305 34.2444C318.305 33.6519 317.579 33.2222 316.127 32.9556C314.675 32.6593 312.719 32.5111 310.26 32.5111C307.771 32.5111 305.801 32.6593 304.349 32.9556C302.897 33.2222 302.171 33.6519 302.171 34.2444C302.171 34.837 302.882 35.2815 304.305 35.5778C305.756 35.8444 307.742 35.9778 310.26 35.9778ZM337.045 13.3111V8.42222H342.733V5.84444H349.089V8.42222H354.467V13.3111H337.045ZM355.8 26.2444V6.51111H361.622V13.3111H364.245V6.37778H370.111V27.4444H364.245V19.3111H361.622V26.2444H355.8ZM354.022 20.5111C354.022 22.437 353.252 23.9926 351.711 25.1778C350.2 26.3333 348.304 26.9111 346.022 26.9111C343.711 26.9111 341.785 26.3333 340.245 25.1778C338.733 23.9926 337.978 22.437 337.978 20.5111C337.978 18.5852 338.733 17.0444 340.245 15.8889C341.785 14.7037 343.711 14.1111 346.022 14.1111C348.304 14.1111 350.2 14.7037 351.711 15.8889C353.252 17.0444 354.022 18.5852 354.022 20.5111ZM343.578 20.5111C343.578 21.0444 343.8 21.4741 344.245 21.8C344.719 22.1259 345.311 22.2889 346.022 22.2889C346.704 22.2889 347.267 22.1259 347.711 21.8C348.185 21.4741 348.422 21.0444 348.422 20.5111C348.422 19.9778 348.185 19.563 347.711 19.2667C347.267 18.9407 346.704 18.7778 346.022 18.7778C345.311 18.7778 344.719 18.9407 344.245 19.2667C343.8 19.563 343.578 19.9778 343.578 20.5111ZM355 27.4889C359.682 27.4889 363.4 28.0222 366.156 29.0889C368.941 30.1556 370.333 31.8593 370.333 34.2C370.333 36.5704 368.941 38.2741 366.156 39.3111C363.4 40.3778 359.682 40.9111 355 40.9111C350.319 40.9111 346.585 40.3778 343.8 39.3111C341.045 38.2741 339.667 36.5704 339.667 34.2C339.667 31.8593 341.045 30.1556 343.8 29.0889C346.585 28.0222 350.319 27.4889 355 27.4889ZM355 35.8889C357.489 35.8889 359.533 35.7556 361.133 35.4889C362.733 35.1926 363.533 34.763 363.533 34.2C363.533 33.637 362.733 33.2222 361.133 32.9556C359.533 32.6593 357.489 32.5111 355 32.5111C352.511 32.5111 350.452 32.6593 348.822 32.9556C347.222 33.2222 346.422 33.637 346.422 34.2C346.422 34.763 347.222 35.1926 348.822 35.4889C350.452 35.7556 352.511 35.8889 355 35.8889ZM403.484 25.4V40.5111H397.084V6.37778H403.484V18.8667H407.307V25.4H403.484ZM388.24 7.26667C388.24 12.3333 387.825 16.9407 386.995 21.0889L396.418 35L391.129 38.8667L384.684 28.9111C383.351 32.1111 381.677 34.5704 379.662 36.2889C377.677 38.0074 375.455 38.8815 372.995 38.9111V31.9778C374.714 31.7704 376.225 30.5852 377.529 28.4222C378.832 26.2593 379.855 23.3407 380.595 19.6667C381.336 15.963 381.707 11.7556 381.707 7.04444L388.24 7.26667ZM438.768 25.0889V40.5111H432.368V6.37778H438.768V18.5111H442.502V25.0889H438.768ZM422.146 32.6C423.746 32.6 425.287 32.4963 426.768 32.2889C428.28 32.0519 429.524 31.7111 430.502 31.2667V37.5778C429.524 38.0222 428.28 38.363 426.768 38.6C425.257 38.8074 423.657 38.9111 421.968 38.9111H408.191V32.6H415.702V27.6222C413.598 26.9704 411.924 25.7259 410.68 23.8889C409.435 22.0519 408.813 19.8593 408.813 17.3111C408.813 15.2074 409.243 13.3556 410.102 11.7556C410.961 10.1259 412.161 8.86667 413.702 7.97778C415.243 7.05926 416.991 6.6 418.946 6.6C420.902 6.6 422.65 7.05926 424.191 7.97778C425.731 8.86667 426.946 10.1259 427.835 11.7556C428.724 13.3556 429.168 15.2074 429.168 17.3111C429.168 19.8593 428.531 22.0519 427.257 23.8889C425.983 25.7259 424.28 26.9704 422.146 27.6222V32.6ZM418.946 12.6444C417.731 12.6444 416.754 13.0889 416.013 13.9778C415.302 14.837 414.946 15.9481 414.946 17.3111C414.946 18.7037 415.302 19.8444 416.013 20.7333C416.754 21.5926 417.731 22.0222 418.946 22.0222C420.161 22.0222 421.139 21.5778 421.88 20.6889C422.65 19.8 423.035 18.6741 423.035 17.3111C423.035 15.9778 422.65 14.8667 421.88 13.9778C421.139 13.0889 420.161 12.6444 418.946 12.6444ZM453.864 13.3556V7.17778H483.286V29.6667H476.753V13.3556H453.864ZM485.02 39.3111H452.175V33.1333H457.153V21.2667H463.642V33.1333H467.02V21.2667H473.464V33.1333H485.02V39.3111ZM503.815 20.7778C499.311 20.7778 495.696 20.1556 492.97 18.9111C490.274 17.637 488.926 15.7556 488.926 13.2667C488.926 10.7778 490.274 8.91111 492.97 7.66667C495.696 6.42222 499.311 5.8 503.815 5.8C508.319 5.8 511.919 6.42222 514.615 7.66667C517.341 8.91111 518.704 10.7778 518.704 13.2667C518.704 15.7556 517.341 17.637 514.615 18.9111C511.919 20.1556 508.319 20.7778 503.815 20.7778ZM503.815 10.9556C501.356 10.9556 499.385 11.163 497.904 11.5778C496.452 11.9926 495.726 12.5556 495.726 13.2667C495.726 14.037 496.452 14.6296 497.904 15.0444C499.356 15.4296 501.326 15.6222 503.815 15.6222C506.304 15.6222 508.259 15.4296 509.682 15.0444C511.133 14.6296 511.859 14.037 511.859 13.2667C511.859 12.5556 511.133 11.9926 509.682 11.5778C508.23 11.163 506.274 10.9556 503.815 10.9556ZM513.104 29.8889H518.348V40.9111H511.815V35.2222H489.148V29.8889H494.526V27.3111H487.37V21.9778H520.215V27.3111H513.104V29.8889ZM500.837 27.3111V29.8889H506.748V27.3111H500.837ZM553.232 25.4V40.5111H546.966V6.37778H553.232V18.8667H556.877V25.4H553.232ZM533.01 7.17778V15.3556C533.01 22.7333 532.21 28.2889 530.61 32.0222C529.01 35.7556 526.492 37.6519 523.055 37.7111V31.4889C524.388 31.1037 525.351 29.6815 525.943 27.2222C526.536 24.763 526.832 21.0148 526.832 15.9778V13.2667H523.055V7.17778H533.01ZM543.943 7.17778V15.6667C543.943 23.0741 543.025 28.7778 541.188 32.7778C539.381 36.7481 536.595 38.7926 532.832 38.9111V32.6889C536.121 31.9778 537.766 26.5111 537.766 16.2889V13.2667H534.166V7.17778H543.943ZM589.183 40.5111H582.739V6.37778H589.183V40.5111ZM573.05 13.3556C572.961 16.7037 572.694 19.5481 572.25 21.8889L581.672 34.7778L576.605 38.7778L570.072 29.4C568.768 32.4519 567.109 34.7926 565.094 36.4222C563.08 38.0519 560.843 38.8815 558.383 38.9111V32.1111C559.954 31.9333 561.346 31.0593 562.561 29.4889C563.776 27.8889 564.739 25.7111 565.45 22.9556C566.161 20.1704 566.546 16.9704 566.605 13.3556H559.272V7.17778H580.028V13.3556H573.05ZM634.59 39.3111H601.745V33H614.945V27.4889H603.523V7.17778H632.812V27.4889H621.434V33H634.59V39.3111ZM626.412 21.2222V13.4889H609.968V21.2222H626.412ZM645.385 11.7556V15.4889H668.185V20.8667H638.941V6.37778H667.83V11.7556H645.385ZM636.941 28.5556V23H669.785V28.5556H636.941ZM668.274 34.8667V40.5111H638.852V30.3778H645.385V34.8667H668.274ZM712.481 40.5111H706.081V23.7111H699.236V17.4H706.081V6.37778H712.481V40.5111ZM695.725 7.26667C695.725 11.7111 695.429 15.8296 694.836 19.6222L704.258 35.2667L698.703 38.8667L692.614 28.0667C691.31 31.5333 689.651 34.2 687.636 36.0667C685.621 37.9333 683.384 38.8815 680.925 38.9111V31.8889C682.555 31.6815 683.992 30.5111 685.236 28.3778C686.51 26.2444 687.488 23.3407 688.17 19.6667C688.851 15.963 689.192 11.7556 689.192 7.04444L695.725 7.26667ZM747.498 40.5111H741.098V6.37778H747.498V40.5111ZM736.832 7.17778V38.9111H717.587V7.17778H723.898V17.2222H730.476V7.17778H736.832ZM730.476 23.3556H723.898V32.7333H730.476V23.3556ZM767.538 19.3556C765.612 22.0815 763.301 24.2296 760.605 25.8C757.908 27.3407 755.034 28.1259 751.982 28.1556V21.7556C754.116 21.7556 756.16 21.0889 758.116 19.7556C760.071 18.4222 761.716 16.5852 763.049 14.2444C764.382 11.9037 765.242 9.23704 765.627 6.24444L772.16 7.31111C771.834 9.77037 771.242 12.0222 770.382 14.0667L784.205 22.8667L780.827 28.3333L767.538 19.3556ZM784.16 33V39.3111H751.316V33H784.16ZM825.789 25.4V40.5111H819.389V6.37778H825.789V18.8667H829.611V25.4H825.789ZM814.589 7.17778V16.4222C814.589 21.0148 813.833 25 812.322 28.3778C810.841 31.7556 808.722 34.363 805.967 36.2C803.211 38.0074 799.967 38.9111 796.233 38.9111V32.5111C800.085 32.4815 803.019 31.0593 805.033 28.2444C807.048 25.4296 808.056 21.4889 808.056 16.4222V13.3111H796.233V7.17778H814.589ZM861.74 13.7111V18.8667H832.495V6.15555H838.895V13.7111H861.74ZM830.495 26.0222V20.8222H863.34V26.0222H830.495ZM846.94 27.4889C856.807 27.4889 861.74 29.7259 861.74 34.2C861.74 38.6741 856.807 40.9111 846.94 40.9111C837.044 40.9111 832.095 38.6741 832.095 34.2C832.095 29.7259 837.044 27.4889 846.94 27.4889ZM846.94 32.5111C844.451 32.5111 842.495 32.6593 841.073 32.9556C839.651 33.2222 838.94 33.637 838.94 34.2C838.94 35.3259 841.607 35.8889 846.94 35.8889C852.244 35.8889 854.895 35.3259 854.895 34.2C854.895 33.637 854.184 33.2222 852.762 32.9556C851.369 32.6593 849.429 32.5111 846.94 32.5111Z" fill="#333333"/>
<path d="M317.633 136.833H305.633V108.833H297.55C297.05 117.5 295.161 123.972 291.883 128.25C288.605 132.472 284.272 134.583 278.883 134.583C272.994 134.583 268.355 132.056 264.966 127C261.633 121.944 259.966 114.306 259.966 104.083C259.966 93.8611 261.633 86.2222 264.966 81.1667C268.355 76.1111 272.994 73.5833 278.883 73.5833C284.05 73.5833 288.244 75.5278 291.466 79.4167C294.689 83.25 296.689 89.1111 297.466 97H305.633V72.8333H317.633V136.833ZM278.883 123C283.494 123 285.8 116.694 285.8 104.083C285.8 91.4722 283.494 85.1667 278.883 85.1667C274.216 85.1667 271.883 91.4722 271.883 104.083C271.883 116.694 274.216 123 278.883 123ZM355.291 96.25C346.735 96.25 339.985 95.2778 335.041 93.3333C330.097 91.3333 327.624 88.2222 327.624 84C327.624 79.7778 330.097 76.6944 335.041 74.75C339.985 72.75 346.735 71.75 355.291 71.75C363.847 71.75 370.569 72.75 375.458 74.75C380.402 76.6944 382.874 79.7778 382.874 84C382.874 88.2222 380.402 91.3333 375.458 93.3333C370.569 95.2778 363.847 96.25 355.291 96.25ZM355.291 80.75C350.735 80.75 347.097 81.0556 344.374 81.6667C341.708 82.2222 340.374 83 340.374 84C340.374 85.0556 341.708 85.8611 344.374 86.4167C347.041 86.9722 350.68 87.25 355.291 87.25C359.902 87.25 363.513 86.9722 366.124 86.4167C368.791 85.8611 370.124 85.0556 370.124 84C370.124 82.9444 368.791 82.1389 366.124 81.5833C363.458 81.0278 359.847 80.75 355.291 80.75ZM361.291 109.75H382.541V126.583H339.958V128.833H383.124V136.833H328.124V119.917H370.708V117.667H327.958V109.75H349.291V106.917H324.458V97.75H386.041V106.917H361.291V109.75ZM437.282 110.167V72.8333H449.366V110.167H437.282ZM404.449 95.75V99.4167H420.116C422.838 99.4167 425.449 99.2222 427.949 98.8333C430.449 98.4444 432.504 97.8889 434.116 97.1667V106.75C432.56 107.472 430.532 108.028 428.032 108.417C425.532 108.806 422.838 109 419.949 109H392.449V86.8333H417.532V83.1667H392.366V73.5833H429.449V95.75H404.449ZM394.949 136.833V112.417H449.366V136.833H394.949ZM437.366 122.333H406.866V127H437.366V122.333ZM517.023 136.833H505.773V72.8333H517.023V136.833ZM501.607 73.0833V135.75H490.44V109.333H486.19C485.801 118.167 484.357 124.583 481.857 128.583C479.412 132.583 475.912 134.583 471.357 134.583C466.412 134.583 462.69 132.167 460.19 127.333C457.69 122.5 456.44 114.75 456.44 104.083C456.44 93.4167 457.69 85.6667 460.19 80.8333C462.69 76 466.412 73.5833 471.357 73.5833C475.746 73.5833 479.162 75.4722 481.607 79.25C484.051 82.9722 485.551 88.9444 486.107 97.1667H490.44V73.0833H501.607ZM471.357 123.167C472.69 123.167 473.635 121.667 474.19 118.667C474.801 115.611 475.107 110.75 475.107 104.083C475.107 97.4167 474.801 92.5833 474.19 89.5833C473.635 86.5278 472.69 85 471.357 85C470.023 85 469.051 86.5278 468.44 89.5833C467.885 92.5833 467.607 97.4167 467.607 104.083C467.607 110.75 467.885 115.611 468.44 118.667C469.051 121.667 470.023 123.167 471.357 123.167ZM581.598 136.833H569.598V105.333H556.765V93.5H569.598V72.8333H581.598V136.833ZM550.181 74.5C550.181 82.8333 549.626 90.5556 548.515 97.6667L566.181 127L555.765 133.75L544.348 113.5C541.904 120 538.792 125 535.015 128.5C531.237 132 527.042 133.778 522.431 133.833V120.667C525.487 120.278 528.181 118.083 530.515 114.083C532.904 110.083 534.737 104.639 536.015 97.75C537.292 90.8056 537.931 82.9167 537.931 74.0833L550.181 74.5ZM608.319 85.3333V73.5833H662.985V103.833H650.485V85.3333H608.319ZM641.569 119.5V138.333H629.069V119.5H604.902V107.667H666.485V119.5H641.569ZM731.477 136.833H720.227V108.333H715.143V135.75H704.06V73.0833H715.143V96.3333H720.227V72.8333H731.477V136.833ZM699.643 74.3333V133.833H672.06V74.3333H699.643ZM688.477 122.417V85.75H683.227V122.417H688.477ZM778.134 82.5V89.75H738.718V82.5H754.551V72.5833H762.218V82.5H778.134ZM792.634 106.083V136.833H785.134V72.8333H792.634V98.5H801.051V106.083H792.634ZM758.384 94.6667C761.662 94.6667 764.579 95.5 767.134 97.1667C769.746 98.7778 771.773 101.083 773.218 104.083C774.662 107.028 775.384 110.417 775.384 114.25C775.384 118.083 774.662 121.5 773.218 124.5C771.773 127.444 769.746 129.75 767.134 131.417C764.579 133.028 761.662 133.833 758.384 133.833C755.107 133.833 752.162 133.028 749.551 131.417C746.996 129.75 744.996 127.444 743.551 124.5C742.107 121.5 741.384 118.083 741.384 114.25C741.384 110.417 742.107 107.028 743.551 104.083C744.996 101.083 746.996 98.7778 749.551 97.1667C752.162 95.5 755.107 94.6667 758.384 94.6667ZM758.384 126.917C761.218 126.917 763.551 125.75 765.384 123.417C767.218 121.083 768.134 118.028 768.134 114.25C768.134 110.417 767.218 107.333 765.384 105C763.551 102.667 761.218 101.5 758.384 101.5C755.551 101.5 753.218 102.667 751.384 105C749.551 107.333 748.634 110.417 748.634 114.25C748.634 118.028 749.551 121.083 751.384 123.417C753.218 125.75 755.551 126.917 758.384 126.917ZM806.959 82.3333V75H860.126V117.25H852.376V82.3333H806.959ZM864.126 133.833H803.292V126.417H825.709V98.1667H833.459V126.417H864.126V133.833Z" fill="#333333"/>
<path d="M6.04818 173.333V161.583H60.7148V191.833H48.2148V173.333H6.04818ZM39.2982 207.5V226.333H26.7982V207.5H2.63151V195.667H64.2148V207.5H39.2982ZM129.206 224.833H117.956V196.333H112.873V223.75H101.789V161.083H112.873V184.333H117.956V160.833H129.206V224.833ZM97.3727 162.333V221.833H69.7894V162.333H97.3727ZM86.2061 210.417V173.75H80.9561V210.417H86.2061ZM180.197 182.083V171.25H138.197V160.833H192.364V182.083H180.197ZM134.614 194.833V184.5H196.197V194.833H134.614ZM138.197 224.833V198.667H192.697V224.833H138.197ZM180.697 208.583H150.114V215H180.697V208.583ZM261.188 200.083H249.938V185.333H244.855V199.417H233.772V161.083H244.855V173.5H249.938V160.833H261.188V200.083ZM215.605 199.167C210.994 199.167 207.355 197.5 204.688 194.167C202.077 190.778 200.772 186.028 200.772 179.917C200.772 173.806 202.077 169.111 204.688 165.833C207.355 162.5 210.994 160.833 215.605 160.833C220.216 160.833 223.827 162.5 226.438 165.833C229.105 169.111 230.438 173.806 230.438 179.917C230.438 186.028 229.105 190.778 226.438 194.167C223.827 197.5 220.216 199.167 215.605 199.167ZM215.605 171.083C213.05 171.083 211.772 174.028 211.772 179.917C211.772 185.861 213.05 188.833 215.605 188.833C218.105 188.833 219.355 185.861 219.355 179.917C219.355 176.917 219.05 174.694 218.438 173.25C217.827 171.806 216.883 171.083 215.605 171.083ZM261.188 202.333V225.583H249.355V213.083H205.605V202.333H261.188ZM479.579 195.417V161.583H491.412V167.333H522.246V161.583H534.079V195.417H479.579ZM522.246 178.333H491.412V184.25H522.246V178.333ZM512.996 212V226.333H500.662V212H475.996V200.417H537.579V212H512.996ZM599.154 183.75V195.5H587.154V160.833H599.154V171.5H606.32V183.75H599.154ZM584.32 191.25C582.765 191.972 580.654 192.528 577.987 192.917C575.376 193.306 572.626 193.5 569.737 193.5H543.32V161.583H580.82V172H555.404V183.083H570.237C573.015 183.083 575.654 182.917 578.154 182.583C580.654 182.194 582.709 181.667 584.32 181V191.25ZM599.154 197.75V224.833H545.404V197.75H599.154ZM587.154 214.417V208.167H557.487V214.417H587.154ZM653.562 182.083V171.25H611.562V160.833H665.728V182.083H653.562ZM607.978 194.833V184.5H669.562V194.833H607.978ZM611.562 224.833V198.667H666.062V224.833H611.562ZM654.062 208.583H623.478V215H654.062V208.583ZM747.616 183.75V195.5H735.616V160.833H747.616V171.5H754.782V183.75H747.616ZM727.866 170.25C727.866 178.639 724.588 184.833 718.032 188.833C711.532 192.778 702.727 194.75 691.616 194.75V184.083C698.893 183.972 704.699 182.944 709.032 181C713.366 179 715.532 176.333 715.532 173V172.083H691.616V161.583H727.866V170.25ZM747.616 197.75V224.833H693.866V197.75H747.616ZM735.616 214.417V208.167H705.949V214.417H735.616ZM797.357 192.833V181.667H803.773V176.667H797.357V165.5H803.773V160.833H815.607V208.25H803.773V192.833H797.357ZM758.19 198V161.583H794.44V198H758.19ZM770.023 172.25V187.25H782.607V172.25H770.023ZM816.44 224.833H761.19V202.417H773.44V213.5H816.44V224.833ZM903.244 184H896.077V196.833H884.077V160.833H896.077V171.667H903.244V184ZM840.244 194.833V161.583H851.994V168.083H865.744V161.583H877.411V194.833H840.244ZM865.744 178H851.994V184.667H865.744V178ZM896.744 214.583V224.833H842.327V199.083H896.077V209.333H854.494V214.583H896.744ZM935.735 161.333C941.346 161.333 946.291 162.222 950.569 164C954.846 165.778 958.152 168.278 960.485 171.5C962.819 174.667 963.985 178.333 963.985 182.5C963.985 186.667 962.819 190.361 960.485 193.583C958.152 196.75 954.846 199.222 950.569 201C946.291 202.778 941.346 203.667 935.735 203.667C930.124 203.667 925.18 202.778 920.902 201C916.624 199.222 913.319 196.75 910.985 193.583C908.652 190.361 907.485 186.667 907.485 182.5C907.485 178.333 908.652 174.667 910.985 171.5C913.319 168.278 916.624 165.778 920.902 164C925.18 162.222 930.124 161.333 935.735 161.333ZM935.735 172.833C931.124 172.833 927.374 173.722 924.485 175.5C921.652 177.278 920.235 179.611 920.235 182.5C920.235 185.389 921.652 187.722 924.485 189.5C927.374 191.278 931.124 192.167 935.735 192.167C940.346 192.167 944.069 191.278 946.902 189.5C949.791 187.722 951.235 185.389 951.235 182.5C951.235 179.611 949.791 177.278 946.902 175.5C944.069 173.722 940.346 172.833 935.735 172.833ZM904.902 222.583V210.75H966.485V222.583H904.902ZM1031.48 224.833H1020.14V160.833H1031.48V224.833ZM1015.48 161.083V223.75H1004.23V192.5H997.56V180.5H1004.23V161.083H1015.48ZM993.06 162.5C993.06 172.5 992.588 181 991.643 188L1005.48 216.25L995.56 221.25L987.977 205.083C984.143 215.917 978.449 221.5 970.893 221.833V209C974.282 208.444 976.921 204 978.81 195.667C980.754 187.333 981.727 176.139 981.727 162.083L993.06 162.5ZM1098.47 222.583H1036.88V211H1048.8V197.083C1045.75 195.25 1043.38 193 1041.72 190.333C1040.11 187.611 1039.3 184.583 1039.3 181.25C1039.3 177.306 1040.47 173.806 1042.8 170.75C1045.19 167.639 1048.52 165.222 1052.8 163.5C1057.13 161.778 1062.11 160.917 1067.72 160.917C1073.33 160.917 1078.27 161.778 1082.55 163.5C1086.88 165.222 1090.22 167.639 1092.55 170.75C1094.94 173.806 1096.13 177.306 1096.13 181.25C1096.13 184.583 1095.3 187.611 1093.63 190.333C1091.97 193 1089.61 195.25 1086.55 197.083V211H1098.47V222.583ZM1067.72 172.25C1063.11 172.25 1059.33 173.083 1056.38 174.75C1053.5 176.417 1052.05 178.583 1052.05 181.25C1052.05 183.917 1053.5 186.083 1056.38 187.75C1059.33 189.417 1063.11 190.25 1067.72 190.25C1072.33 190.25 1076.08 189.417 1078.97 187.75C1081.91 186.083 1083.38 183.917 1083.38 181.25C1083.38 178.583 1081.91 176.417 1078.97 174.75C1076.08 173.083 1072.33 172.25 1067.72 172.25ZM1074.55 211V201.167C1072.77 201.444 1070.5 201.583 1067.72 201.583C1065 201.583 1062.72 201.444 1060.88 201.167V211H1074.55ZM1111.63 222.667C1109.35 222.667 1107.43 221.889 1105.88 220.333C1104.32 218.778 1103.54 216.833 1103.54 214.5C1103.54 212.111 1104.32 210.194 1105.88 208.75C1107.43 207.25 1109.35 206.5 1111.63 206.5C1113.9 206.5 1115.82 207.25 1117.38 208.75C1118.93 210.194 1119.71 212.111 1119.71 214.5C1119.71 216.833 1118.93 218.778 1117.38 220.333C1115.82 221.889 1113.9 222.667 1111.63 222.667Z" fill="#333333"/>
<path d="M6.04818 173.333V161.583H60.7148V191.833H48.2148V173.333H6.04818ZM39.2982 207.5V226.333H26.7982V207.5H2.63151V195.667H64.2148V207.5H39.2982ZM129.206 224.833H117.956V196.333H112.873V223.75H101.789V161.083H112.873V184.333H117.956V160.833H129.206V224.833ZM97.3727 162.333V221.833H69.7894V162.333H97.3727ZM86.2061 210.417V173.75H80.9561V210.417H86.2061ZM180.197 182.083V171.25H138.197V160.833H192.364V182.083H180.197ZM134.614 194.833V184.5H196.197V194.833H134.614ZM138.197 224.833V198.667H192.697V224.833H138.197ZM180.697 208.583H150.114V215H180.697V208.583ZM261.188 200.083H249.938V185.333H244.855V199.417H233.772V161.083H244.855V173.5H249.938V160.833H261.188V200.083ZM215.605 199.167C210.994 199.167 207.355 197.5 204.688 194.167C202.077 190.778 200.772 186.028 200.772 179.917C200.772 173.806 202.077 169.111 204.688 165.833C207.355 162.5 210.994 160.833 215.605 160.833C220.216 160.833 223.827 162.5 226.438 165.833C229.105 169.111 230.438 173.806 230.438 179.917C230.438 186.028 229.105 190.778 226.438 194.167C223.827 197.5 220.216 199.167 215.605 199.167ZM215.605 171.083C213.05 171.083 211.772 174.028 211.772 179.917C211.772 185.861 213.05 188.833 215.605 188.833C218.105 188.833 219.355 185.861 219.355 179.917C219.355 176.917 219.05 174.694 218.438 173.25C217.827 171.806 216.883 171.083 215.605 171.083ZM261.188 202.333V225.583H249.355V213.083H205.605V202.333H261.188ZM479.579 195.417V161.583H491.412V167.333H522.246V161.583H534.079V195.417H479.579ZM522.246 178.333H491.412V184.25H522.246V178.333ZM512.996 212V226.333H500.662V212H475.996V200.417H537.579V212H512.996ZM599.154 183.75V195.5H587.154V160.833H599.154V171.5H606.32V183.75H599.154ZM584.32 191.25C582.765 191.972 580.654 192.528 577.987 192.917C575.376 193.306 572.626 193.5 569.737 193.5H543.32V161.583H580.82V172H555.404V183.083H570.237C573.015 183.083 575.654 182.917 578.154 182.583C580.654 182.194 582.709 181.667 584.32 181V191.25ZM599.154 197.75V224.833H545.404V197.75H599.154ZM587.154 214.417V208.167H557.487V214.417H587.154ZM653.562 182.083V171.25H611.562V160.833H665.728V182.083H653.562ZM607.978 194.833V184.5H669.562V194.833H607.978ZM611.562 224.833V198.667H666.062V224.833H611.562ZM654.062 208.583H623.478V215H654.062V208.583ZM747.616 183.75V195.5H735.616V160.833H747.616V171.5H754.782V183.75H747.616ZM727.866 170.25C727.866 178.639 724.588 184.833 718.032 188.833C711.532 192.778 702.727 194.75 691.616 194.75V184.083C698.893 183.972 704.699 182.944 709.032 181C713.366 179 715.532 176.333 715.532 173V172.083H691.616V161.583H727.866V170.25ZM747.616 197.75V224.833H693.866V197.75H747.616ZM735.616 214.417V208.167H705.949V214.417H735.616ZM797.357 192.833V181.667H803.773V176.667H797.357V165.5H803.773V160.833H815.607V208.25H803.773V192.833H797.357ZM758.19 198V161.583H794.44V198H758.19ZM770.023 172.25V187.25H782.607V172.25H770.023ZM816.44 224.833H761.19V202.417H773.44V213.5H816.44V224.833ZM903.244 184H896.077V196.833H884.077V160.833H896.077V171.667H903.244V184ZM840.244 194.833V161.583H851.994V168.083H865.744V161.583H877.411V194.833H840.244ZM865.744 178H851.994V184.667H865.744V178ZM896.744 214.583V224.833H842.327V199.083H896.077V209.333H854.494V214.583H896.744ZM935.735 161.333C941.346 161.333 946.291 162.222 950.569 164C954.846 165.778 958.152 168.278 960.485 171.5C962.819 174.667 963.985 178.333 963.985 182.5C963.985 186.667 962.819 190.361 960.485 193.583C958.152 196.75 954.846 199.222 950.569 201C946.291 202.778 941.346 203.667 935.735 203.667C930.124 203.667 925.18 202.778 920.902 201C916.624 199.222 913.319 196.75 910.985 193.583C908.652 190.361 907.485 186.667 907.485 182.5C907.485 178.333 908.652 174.667 910.985 171.5C913.319 168.278 916.624 165.778 920.902 164C925.18 162.222 930.124 161.333 935.735 161.333ZM935.735 172.833C931.124 172.833 927.374 173.722 924.485 175.5C921.652 177.278 920.235 179.611 920.235 182.5C920.235 185.389 921.652 187.722 924.485 189.5C927.374 191.278 931.124 192.167 935.735 192.167C940.346 192.167 944.069 191.278 946.902 189.5C949.791 187.722 951.235 185.389 951.235 182.5C951.235 179.611 949.791 177.278 946.902 175.5C944.069 173.722 940.346 172.833 935.735 172.833ZM904.902 222.583V210.75H966.485V222.583H904.902ZM1031.48 224.833H1020.14V160.833H1031.48V224.833ZM1015.48 161.083V223.75H1004.23V192.5H997.56V180.5H1004.23V161.083H1015.48ZM993.06 162.5C993.06 172.5 992.588 181 991.643 188L1005.48 216.25L995.56 221.25L987.977 205.083C984.143 215.917 978.449 221.5 970.893 221.833V209C974.282 208.444 976.921 204 978.81 195.667C980.754 187.333 981.727 176.139 981.727 162.083L993.06 162.5ZM1098.47 222.583H1036.88V211H1048.8V197.083C1045.75 195.25 1043.38 193 1041.72 190.333C1040.11 187.611 1039.3 184.583 1039.3 181.25C1039.3 177.306 1040.47 173.806 1042.8 170.75C1045.19 167.639 1048.52 165.222 1052.8 163.5C1057.13 161.778 1062.11 160.917 1067.72 160.917C1073.33 160.917 1078.27 161.778 1082.55 163.5C1086.88 165.222 1090.22 167.639 1092.55 170.75C1094.94 173.806 1096.13 177.306 1096.13 181.25C1096.13 184.583 1095.3 187.611 1093.63 190.333C1091.97 193 1089.61 195.25 1086.55 197.083V211H1098.47V222.583ZM1067.72 172.25C1063.11 172.25 1059.33 173.083 1056.38 174.75C1053.5 176.417 1052.05 178.583 1052.05 181.25C1052.05 183.917 1053.5 186.083 1056.38 187.75C1059.33 189.417 1063.11 190.25 1067.72 190.25C1072.33 190.25 1076.08 189.417 1078.97 187.75C1081.91 186.083 1083.38 183.917 1083.38 181.25C1083.38 178.583 1081.91 176.417 1078.97 174.75C1076.08 173.083 1072.33 172.25 1067.72 172.25ZM1074.55 211V201.167C1072.77 201.444 1070.5 201.583 1067.72 201.583C1065 201.583 1062.72 201.444 1060.88 201.167V211H1074.55ZM1111.63 222.667C1109.35 222.667 1107.43 221.889 1105.88 220.333C1104.32 218.778 1103.54 216.833 1103.54 214.5C1103.54 212.111 1104.32 210.194 1105.88 208.75C1107.43 207.25 1109.35 206.5 1111.63 206.5C1113.9 206.5 1115.82 207.25 1117.38 208.75C1118.93 210.194 1119.71 212.111 1119.71 214.5C1119.71 216.833 1118.93 218.778 1117.38 220.333C1115.82 221.889 1113.9 222.667 1111.63 222.667Z" fill="#01A69F"/>
<path d="M304.409 185.583C312.631 185.583 318.687 187.222 322.576 190.5C326.52 193.778 328.493 198.167 328.493 203.667C328.493 207.222 327.604 210.472 325.826 213.417C324.048 216.306 321.326 218.639 317.659 220.417C314.048 222.139 309.576 223 304.243 223C300.131 223 296.076 222.472 292.076 221.417C288.131 220.306 284.77 218.75 281.993 216.75L287.326 206.417C289.548 208.083 292.104 209.389 294.993 210.333C297.881 211.222 300.854 211.667 303.909 211.667C307.298 211.667 309.965 211 311.909 209.667C313.854 208.333 314.826 206.472 314.826 204.083C314.826 201.583 313.798 199.694 311.743 198.417C309.743 197.139 306.243 196.5 301.243 196.5H286.326L289.326 163.667H324.909V174.5H300.576L299.659 185.583H304.409ZM355.934 223C351.1 223 346.795 221.806 343.017 219.417C339.239 217.028 336.267 213.583 334.1 209.083C331.989 204.528 330.934 199.111 330.934 192.833C330.934 186.556 331.989 181.167 334.1 176.667C336.267 172.111 339.239 168.639 343.017 166.25C346.795 163.861 351.1 162.667 355.934 162.667C360.767 162.667 365.072 163.861 368.85 166.25C372.628 168.639 375.572 172.111 377.684 176.667C379.85 181.167 380.934 186.556 380.934 192.833C380.934 199.111 379.85 204.528 377.684 209.083C375.572 213.583 372.628 217.028 368.85 219.417C365.072 221.806 360.767 223 355.934 223ZM355.934 211.583C359.489 211.583 362.267 210.056 364.267 207C366.322 203.944 367.35 199.222 367.35 192.833C367.35 186.444 366.322 181.722 364.267 178.667C362.267 175.611 359.489 174.083 355.934 174.083C352.434 174.083 349.656 175.611 347.6 178.667C345.6 181.722 344.6 186.444 344.6 192.833C344.6 199.222 345.6 203.944 347.6 207C349.656 210.056 352.434 211.583 355.934 211.583ZM397.708 196.833C394.597 196.833 391.819 196.111 389.375 194.667C386.93 193.167 385.014 191.083 383.625 188.417C382.236 185.694 381.541 182.583 381.541 179.083C381.541 175.583 382.236 172.5 383.625 169.833C385.014 167.111 386.93 165.028 389.375 163.583C391.819 162.083 394.597 161.333 397.708 161.333C400.819 161.333 403.597 162.056 406.041 163.5C408.486 164.944 410.375 167.028 411.708 169.75C413.097 172.417 413.791 175.528 413.791 179.083C413.791 182.639 413.097 185.778 411.708 188.5C410.375 191.167 408.486 193.222 406.041 194.667C403.597 196.111 400.819 196.833 397.708 196.833ZM447.208 162L405.125 223.667H391.125L433.208 162H447.208ZM397.708 186.667C399.097 186.667 400.18 186.056 400.958 184.833C401.736 183.556 402.125 181.639 402.125 179.083C402.125 176.528 401.736 174.639 400.958 173.417C400.18 172.139 399.097 171.5 397.708 171.5C396.375 171.5 395.291 172.139 394.458 173.417C393.68 174.639 393.291 176.528 393.291 179.083C393.291 181.639 393.68 183.556 394.458 184.833C395.291 186.056 396.375 186.667 397.708 186.667ZM440.625 224.333C437.514 224.333 434.736 223.583 432.291 222.083C429.847 220.639 427.93 218.583 426.541 215.917C425.208 213.194 424.541 210.083 424.541 206.583C424.541 203.083 425.208 200 426.541 197.333C427.93 194.611 429.847 192.528 432.291 191.083C434.736 189.583 437.514 188.833 440.625 188.833C443.736 188.833 446.514 189.583 448.958 191.083C451.402 192.528 453.319 194.611 454.708 197.333C456.097 200 456.791 203.083 456.791 206.583C456.791 210.083 456.097 213.194 454.708 215.917C453.319 218.583 451.402 220.639 448.958 222.083C446.514 223.583 443.736 224.333 440.625 224.333ZM440.625 214.167C441.958 214.167 443.014 213.556 443.791 212.333C444.625 211.056 445.041 209.139 445.041 206.583C445.041 204.028 444.625 202.139 443.791 200.917C443.014 199.639 441.958 199 440.625 199C439.291 199 438.208 199.639 437.375 200.917C436.597 202.139 436.208 204.028 436.208 206.583C436.208 209.139 436.597 211.056 437.375 212.333C438.208 213.556 439.291 214.167 440.625 214.167Z" fill="#333333"/>
<path d="M304.409 185.583C312.631 185.583 318.687 187.222 322.576 190.5C326.52 193.778 328.493 198.167 328.493 203.667C328.493 207.222 327.604 210.472 325.826 213.417C324.048 216.306 321.326 218.639 317.659 220.417C314.048 222.139 309.576 223 304.243 223C300.131 223 296.076 222.472 292.076 221.417C288.131 220.306 284.77 218.75 281.993 216.75L287.326 206.417C289.548 208.083 292.104 209.389 294.993 210.333C297.881 211.222 300.854 211.667 303.909 211.667C307.298 211.667 309.965 211 311.909 209.667C313.854 208.333 314.826 206.472 314.826 204.083C314.826 201.583 313.798 199.694 311.743 198.417C309.743 197.139 306.243 196.5 301.243 196.5H286.326L289.326 163.667H324.909V174.5H300.576L299.659 185.583H304.409ZM355.934 223C351.1 223 346.795 221.806 343.017 219.417C339.239 217.028 336.267 213.583 334.1 209.083C331.989 204.528 330.934 199.111 330.934 192.833C330.934 186.556 331.989 181.167 334.1 176.667C336.267 172.111 339.239 168.639 343.017 166.25C346.795 163.861 351.1 162.667 355.934 162.667C360.767 162.667 365.072 163.861 368.85 166.25C372.628 168.639 375.572 172.111 377.684 176.667C379.85 181.167 380.934 186.556 380.934 192.833C380.934 199.111 379.85 204.528 377.684 209.083C375.572 213.583 372.628 217.028 368.85 219.417C365.072 221.806 360.767 223 355.934 223ZM355.934 211.583C359.489 211.583 362.267 210.056 364.267 207C366.322 203.944 367.35 199.222 367.35 192.833C367.35 186.444 366.322 181.722 364.267 178.667C362.267 175.611 359.489 174.083 355.934 174.083C352.434 174.083 349.656 175.611 347.6 178.667C345.6 181.722 344.6 186.444 344.6 192.833C344.6 199.222 345.6 203.944 347.6 207C349.656 210.056 352.434 211.583 355.934 211.583ZM397.708 196.833C394.597 196.833 391.819 196.111 389.375 194.667C386.93 193.167 385.014 191.083 383.625 188.417C382.236 185.694 381.541 182.583 381.541 179.083C381.541 175.583 382.236 172.5 383.625 169.833C385.014 167.111 386.93 165.028 389.375 163.583C391.819 162.083 394.597 161.333 397.708 161.333C400.819 161.333 403.597 162.056 406.041 163.5C408.486 164.944 410.375 167.028 411.708 169.75C413.097 172.417 413.791 175.528 413.791 179.083C413.791 182.639 413.097 185.778 411.708 188.5C410.375 191.167 408.486 193.222 406.041 194.667C403.597 196.111 400.819 196.833 397.708 196.833ZM447.208 162L405.125 223.667H391.125L433.208 162H447.208ZM397.708 186.667C399.097 186.667 400.18 186.056 400.958 184.833C401.736 183.556 402.125 181.639 402.125 179.083C402.125 176.528 401.736 174.639 400.958 173.417C400.18 172.139 399.097 171.5 397.708 171.5C396.375 171.5 395.291 172.139 394.458 173.417C393.68 174.639 393.291 176.528 393.291 179.083C393.291 181.639 393.68 183.556 394.458 184.833C395.291 186.056 396.375 186.667 397.708 186.667ZM440.625 224.333C437.514 224.333 434.736 223.583 432.291 222.083C429.847 220.639 427.93 218.583 426.541 215.917C425.208 213.194 424.541 210.083 424.541 206.583C424.541 203.083 425.208 200 426.541 197.333C427.93 194.611 429.847 192.528 432.291 191.083C434.736 189.583 437.514 188.833 440.625 188.833C443.736 188.833 446.514 189.583 448.958 191.083C451.402 192.528 453.319 194.611 454.708 197.333C456.097 200 456.791 203.083 456.791 206.583C456.791 210.083 456.097 213.194 454.708 215.917C453.319 218.583 451.402 220.639 448.958 222.083C446.514 223.583 443.736 224.333 440.625 224.333ZM440.625 214.167C441.958 214.167 443.014 213.556 443.791 212.333C444.625 211.056 445.041 209.139 445.041 206.583C445.041 204.028 444.625 202.139 443.791 200.917C443.014 199.639 441.958 199 440.625 199C439.291 199 438.208 199.639 437.375 200.917C436.597 202.139 436.208 204.028 436.208 206.583C436.208 209.139 436.597 211.056 437.375 212.333C438.208 213.556 439.291 214.167 440.625 214.167Z" fill="#01A69F"/>
<path d="M304.409 185.583C312.631 185.583 318.687 187.222 322.576 190.5C326.52 193.778 328.493 198.167 328.493 203.667C328.493 207.222 327.604 210.472 325.826 213.417C324.048 216.306 321.326 218.639 317.659 220.417C314.048 222.139 309.576 223 304.243 223C300.131 223 296.076 222.472 292.076 221.417C288.131 220.306 284.77 218.75 281.993 216.75L287.326 206.417C289.548 208.083 292.104 209.389 294.993 210.333C297.881 211.222 300.854 211.667 303.909 211.667C307.298 211.667 309.965 211 311.909 209.667C313.854 208.333 314.826 206.472 314.826 204.083C314.826 201.583 313.798 199.694 311.743 198.417C309.743 197.139 306.243 196.5 301.243 196.5H286.326L289.326 163.667H324.909V174.5H300.576L299.659 185.583H304.409ZM355.934 223C351.1 223 346.795 221.806 343.017 219.417C339.239 217.028 336.267 213.583 334.1 209.083C331.989 204.528 330.934 199.111 330.934 192.833C330.934 186.556 331.989 181.167 334.1 176.667C336.267 172.111 339.239 168.639 343.017 166.25C346.795 163.861 351.1 162.667 355.934 162.667C360.767 162.667 365.072 163.861 368.85 166.25C372.628 168.639 375.572 172.111 377.684 176.667C379.85 181.167 380.934 186.556 380.934 192.833C380.934 199.111 379.85 204.528 377.684 209.083C375.572 213.583 372.628 217.028 368.85 219.417C365.072 221.806 360.767 223 355.934 223ZM355.934 211.583C359.489 211.583 362.267 210.056 364.267 207C366.322 203.944 367.35 199.222 367.35 192.833C367.35 186.444 366.322 181.722 364.267 178.667C362.267 175.611 359.489 174.083 355.934 174.083C352.434 174.083 349.656 175.611 347.6 178.667C345.6 181.722 344.6 186.444 344.6 192.833C344.6 199.222 345.6 203.944 347.6 207C349.656 210.056 352.434 211.583 355.934 211.583ZM397.708 196.833C394.597 196.833 391.819 196.111 389.375 194.667C386.93 193.167 385.014 191.083 383.625 188.417C382.236 185.694 381.541 182.583 381.541 179.083C381.541 175.583 382.236 172.5 383.625 169.833C385.014 167.111 386.93 165.028 389.375 163.583C391.819 162.083 394.597 161.333 397.708 161.333C400.819 161.333 403.597 162.056 406.041 163.5C408.486 164.944 410.375 167.028 411.708 169.75C413.097 172.417 413.791 175.528 413.791 179.083C413.791 182.639 413.097 185.778 411.708 188.5C410.375 191.167 408.486 193.222 406.041 194.667C403.597 196.111 400.819 196.833 397.708 196.833ZM447.208 162L405.125 223.667H391.125L433.208 162H447.208ZM397.708 186.667C399.097 186.667 400.18 186.056 400.958 184.833C401.736 183.556 402.125 181.639 402.125 179.083C402.125 176.528 401.736 174.639 400.958 173.417C400.18 172.139 399.097 171.5 397.708 171.5C396.375 171.5 395.291 172.139 394.458 173.417C393.68 174.639 393.291 176.528 393.291 179.083C393.291 181.639 393.68 183.556 394.458 184.833C395.291 186.056 396.375 186.667 397.708 186.667ZM440.625 224.333C437.514 224.333 434.736 223.583 432.291 222.083C429.847 220.639 427.93 218.583 426.541 215.917C425.208 213.194 424.541 210.083 424.541 206.583C424.541 203.083 425.208 200 426.541 197.333C427.93 194.611 429.847 192.528 432.291 191.083C434.736 189.583 437.514 188.833 440.625 188.833C443.736 188.833 446.514 189.583 448.958 191.083C451.402 192.528 453.319 194.611 454.708 197.333C456.097 200 456.791 203.083 456.791 206.583C456.791 210.083 456.097 213.194 454.708 215.917C453.319 218.583 451.402 220.639 448.958 222.083C446.514 223.583 443.736 224.333 440.625 224.333ZM440.625 214.167C441.958 214.167 443.014 213.556 443.791 212.333C444.625 211.056 445.041 209.139 445.041 206.583C445.041 204.028 444.625 202.139 443.791 200.917C443.014 199.639 441.958 199 440.625 199C439.291 199 438.208 199.639 437.375 200.917C436.597 202.139 436.208 204.028 436.208 206.583C436.208 209.139 436.597 211.056 437.375 212.333C438.208 213.556 439.291 214.167 440.625 214.167Z" fill="#FD3941"/>
</svg>
