<svg width="606" height="155" viewBox="0 0 606 155" fill="none" xmlns="http://www.w3.org/2000/svg">
<path d="M165.86 64.8333H153.86V36.8333H145.776C145.276 45.5 143.387 51.9722 140.11 56.25C136.832 60.4722 132.499 62.5833 127.11 62.5833C121.221 62.5833 116.582 60.0556 113.193 55C109.86 49.9444 108.193 42.3056 108.193 32.0833C108.193 21.8611 109.86 14.2222 113.193 9.16666C116.582 4.11111 121.221 1.58333 127.11 1.58333C132.276 1.58333 136.471 3.52778 139.693 7.41667C142.915 11.25 144.915 17.1111 145.693 25H153.86V0.833332H165.86V64.8333ZM127.11 51C131.721 51 134.026 44.6944 134.026 32.0833C134.026 19.4722 131.721 13.1667 127.11 13.1667C122.443 13.1667 120.11 19.4722 120.11 32.0833C120.11 44.6944 122.443 51 127.11 51ZM220.434 0.833332H232.268V48.4167H220.434V25.3333H212.268V14.5833H220.434V0.833332ZM192.518 38.6667C191.351 39.0556 189.823 39.3889 187.934 39.6667C186.045 39.8889 184.156 40 182.268 40H173.768V1.58333H192.434V11.8333H185.101V29.6667H185.851C187.073 29.6667 188.295 29.5833 189.518 29.4167C190.795 29.25 191.795 29.0278 192.518 28.75V38.6667ZM215.184 38.25C212.462 39.4167 208.74 40 204.018 40H194.684V1.58333H213.684V11.8333H206.101V29.6667H206.768C210.101 29.6667 212.906 29.1389 215.184 28.0833V38.25ZM233.018 64.8333H177.434V43.75H189.684V53.6667H233.018V64.8333ZM303.009 22.75H295.842V36.0833H283.842V0.833332H295.842V10.6667H303.009V22.75ZM260.259 23.5C257.648 27.1111 254.481 30 250.759 32.1667C247.092 34.3333 243.064 35.5278 238.675 35.75V24.4167C241.842 24.0278 244.62 22.8056 247.009 20.75C249.453 18.6389 251.342 15.8889 252.675 12.5C254.064 9.11111 254.787 5.30555 254.842 1.08333L266.925 1.83333C266.925 6.16667 266.314 10.1944 265.092 13.9167L281.592 25L275.509 34.0833L260.259 23.5ZM269.009 37C277.342 37 283.981 38.1389 288.925 40.4167C293.925 42.6389 296.425 46.25 296.425 51.25C296.425 56.25 293.925 59.8889 288.925 62.1667C283.981 64.4444 277.342 65.5833 269.009 65.5833C260.675 65.5833 254.009 64.4444 249.009 62.1667C244.064 59.8889 241.592 56.25 241.592 51.25C241.592 46.25 244.064 42.6389 249.009 40.4167C254.009 38.1389 260.675 37 269.009 37ZM269.009 55.5C273.342 55.5 276.814 55.1667 279.425 54.5C282.092 53.7778 283.425 52.6944 283.425 51.25C283.425 49.8056 282.092 48.75 279.425 48.0833C276.814 47.4167 273.342 47.0833 269.009 47.0833C264.675 47.0833 261.175 47.4167 258.509 48.0833C255.842 48.75 254.509 49.8056 254.509 51.25C254.509 52.6944 255.842 53.7778 258.509 54.5C261.175 55.1667 264.675 55.5 269.009 55.5ZM307.833 26.5V17H317.167V10.3333H308.5V0.833332H362.5V10.3333H353.75V17H363.083V26.5H307.833ZM341.833 17V10.3333H329.167V17H341.833ZM341.5 42.4167H362.75V64.8333H308.25V42.4167H329.5V39.0833H304.667V29.5H366.25V39.0833H341.5V42.4167ZM320.167 51.75V55.5833H350.75V51.75H320.167ZM417.491 64.8333V0.833332H429.575V64.8333H417.491ZM391.658 1.58333C397.602 1.58333 402.269 4.11111 405.658 9.16666C409.047 14.2222 410.741 21.8611 410.741 32.0833C410.741 42.3056 409.047 49.9444 405.658 55C402.269 60.0556 397.602 62.5833 391.658 62.5833C385.658 62.5833 380.963 60.0556 377.575 55C374.186 49.9444 372.491 42.3056 372.491 32.0833C372.491 21.8611 374.186 14.2222 377.575 9.16666C380.963 4.11111 385.658 1.58333 391.658 1.58333ZM391.658 13.1667C386.825 13.1667 384.408 19.4722 384.408 32.0833C384.408 44.6944 386.825 51 391.658 51C396.491 51 398.908 44.6944 398.908 32.0833C398.908 25.3611 398.241 20.5278 396.908 17.5833C395.63 14.6389 393.88 13.1667 391.658 13.1667ZM452.482 10.9167V17.9167H495.232V28H440.399V0.833332H494.566V10.9167H452.482ZM436.649 42.4167V32H498.232V42.4167H436.649ZM495.399 54.25V64.8333H440.232V45.8333H452.482V54.25H495.399Z" fill="#333333"/>
<path d="M58.6331 152.833H46.6331V124.833H38.5498C38.0498 133.5 36.1609 139.972 32.8831 144.25C29.6054 148.472 25.272 150.583 19.8831 150.583C13.9942 150.583 9.35536 148.056 5.96647 143C2.63314 137.944 0.966472 130.306 0.966472 120.083C0.966472 109.861 2.63314 102.222 5.96647 97.1667C9.35536 92.1111 13.9942 89.5833 19.8831 89.5833C25.0498 89.5833 29.2443 91.5278 32.4665 95.4167C35.6887 99.25 37.6887 105.111 38.4665 113H46.6331V88.8333H58.6331V152.833ZM19.8831 139C24.4943 139 26.7998 132.694 26.7998 120.083C26.7998 107.472 24.4943 101.167 19.8831 101.167C15.2165 101.167 12.8831 107.472 12.8831 120.083C12.8831 132.694 15.2165 139 19.8831 139ZM96.291 112.25C87.7355 112.25 80.9855 111.278 76.041 109.333C71.0966 107.333 68.6243 104.222 68.6243 100C68.6243 95.7778 71.0966 92.6944 76.041 90.75C80.9855 88.75 87.7355 87.75 96.291 87.75C104.847 87.75 111.569 88.75 116.458 90.75C121.402 92.6944 123.874 95.7778 123.874 100C123.874 104.222 121.402 107.333 116.458 109.333C111.569 111.278 104.847 112.25 96.291 112.25ZM96.291 96.75C91.7355 96.75 88.0966 97.0556 85.3743 97.6667C82.7077 98.2222 81.3743 99 81.3743 100C81.3743 101.056 82.7077 101.861 85.3743 102.417C88.041 102.972 91.6799 103.25 96.291 103.25C100.902 103.25 104.513 102.972 107.124 102.417C109.791 101.861 111.124 101.056 111.124 100C111.124 98.9444 109.791 98.1389 107.124 97.5833C104.458 97.0278 100.847 96.75 96.291 96.75ZM102.291 125.75H123.541V142.583H80.9577V144.833H124.124V152.833H69.1243V135.917H111.708V133.667H68.9577V125.75H90.291V122.917H65.4577V113.75H127.041V122.917H102.291V125.75ZM178.282 126.167V88.8333H190.366V126.167H178.282ZM145.449 111.75V115.417H161.116C163.838 115.417 166.449 115.222 168.949 114.833C171.449 114.444 173.504 113.889 175.116 113.167V122.75C173.56 123.472 171.532 124.028 169.032 124.417C166.532 124.806 163.838 125 160.949 125H133.449V102.833H158.532V99.1667H133.366V89.5833H170.449V111.75H145.449ZM135.949 152.833V128.417H190.366V152.833H135.949ZM178.366 138.333H147.866V143H178.366V138.333ZM258.023 152.833H246.773V88.8333H258.023V152.833ZM242.607 89.0833V151.75H231.44V125.333H227.19C226.801 134.167 225.357 140.583 222.857 144.583C220.412 148.583 216.912 150.583 212.357 150.583C207.412 150.583 203.69 148.167 201.19 143.333C198.69 138.5 197.44 130.75 197.44 120.083C197.44 109.417 198.69 101.667 201.19 96.8333C203.69 92 207.412 89.5833 212.357 89.5833C216.746 89.5833 220.162 91.4722 222.607 95.25C225.051 98.9722 226.551 104.944 227.107 113.167H231.44V89.0833H242.607ZM212.357 139.167C213.69 139.167 214.635 137.667 215.19 134.667C215.801 131.611 216.107 126.75 216.107 120.083C216.107 113.417 215.801 108.583 215.19 105.583C214.635 102.528 213.69 101 212.357 101C211.023 101 210.051 102.528 209.44 105.583C208.885 108.583 208.607 113.417 208.607 120.083C208.607 126.75 208.885 131.611 209.44 134.667C210.051 137.667 211.023 139.167 212.357 139.167ZM322.598 152.833H310.598V121.333H297.765V109.5H310.598V88.8333H322.598V152.833ZM291.181 90.5C291.181 98.8333 290.626 106.556 289.515 113.667L307.181 143L296.765 149.75L285.348 129.5C282.904 136 279.792 141 276.015 144.5C272.237 148 268.042 149.778 263.431 149.833V136.667C266.487 136.278 269.181 134.083 271.515 130.083C273.904 126.083 275.737 120.639 277.015 113.75C278.292 106.806 278.931 98.9167 278.931 90.0833L291.181 90.5ZM349.319 101.333V89.5833H403.985V119.833H391.485V101.333H349.319ZM382.569 135.5V154.333H370.069V135.5H345.902V123.667H407.485V135.5H382.569ZM472.477 152.833H461.227V124.333H456.143V151.75H445.06V89.0833H456.143V112.333H461.227V88.8333H472.477V152.833ZM440.643 90.3333V149.833H413.06V90.3333H440.643ZM429.477 138.417V101.75H424.227V138.417H429.477ZM535.051 124.5V152.833H523.051V88.8333H535.051V112.25H542.218V124.5H535.051ZM514.051 90.3333V107.667C514.051 116.278 512.634 123.75 509.801 130.083C507.023 136.417 503.051 141.306 497.884 144.75C492.718 148.139 486.634 149.833 479.634 149.833V137.833C486.857 137.778 492.357 135.111 496.134 129.833C499.912 124.556 501.801 117.167 501.801 107.667V101.833H479.634V90.3333H514.051ZM602.459 102.583V112.25H547.626V88.4167H559.626V102.583H602.459ZM543.876 125.667V115.917H605.459V125.667H543.876ZM574.709 128.417C593.209 128.417 602.459 132.611 602.459 141C602.459 149.389 593.209 153.583 574.709 153.583C556.153 153.583 546.876 149.389 546.876 141C546.876 132.611 556.153 128.417 574.709 128.417ZM574.709 137.833C570.042 137.833 566.376 138.111 563.709 138.667C561.042 139.167 559.709 139.944 559.709 141C559.709 143.111 564.709 144.167 574.709 144.167C584.653 144.167 589.626 143.111 589.626 141C589.626 139.944 588.292 139.167 585.626 138.667C583.015 138.111 579.376 137.833 574.709 137.833Z" fill="#333333"/>
<path d="M58.6331 152.833H46.6331V124.833H38.5498C38.0498 133.5 36.1609 139.972 32.8831 144.25C29.6054 148.472 25.272 150.583 19.8831 150.583C13.9942 150.583 9.35536 148.056 5.96647 143C2.63314 137.944 0.966472 130.306 0.966472 120.083C0.966472 109.861 2.63314 102.222 5.96647 97.1667C9.35536 92.1111 13.9942 89.5833 19.8831 89.5833C25.0498 89.5833 29.2443 91.5278 32.4665 95.4167C35.6887 99.25 37.6887 105.111 38.4665 113H46.6331V88.8333H58.6331V152.833ZM19.8831 139C24.4943 139 26.7998 132.694 26.7998 120.083C26.7998 107.472 24.4943 101.167 19.8831 101.167C15.2165 101.167 12.8831 107.472 12.8831 120.083C12.8831 132.694 15.2165 139 19.8831 139ZM96.291 112.25C87.7355 112.25 80.9855 111.278 76.041 109.333C71.0966 107.333 68.6243 104.222 68.6243 100C68.6243 95.7778 71.0966 92.6944 76.041 90.75C80.9855 88.75 87.7355 87.75 96.291 87.75C104.847 87.75 111.569 88.75 116.458 90.75C121.402 92.6944 123.874 95.7778 123.874 100C123.874 104.222 121.402 107.333 116.458 109.333C111.569 111.278 104.847 112.25 96.291 112.25ZM96.291 96.75C91.7355 96.75 88.0966 97.0556 85.3743 97.6667C82.7077 98.2222 81.3743 99 81.3743 100C81.3743 101.056 82.7077 101.861 85.3743 102.417C88.041 102.972 91.6799 103.25 96.291 103.25C100.902 103.25 104.513 102.972 107.124 102.417C109.791 101.861 111.124 101.056 111.124 100C111.124 98.9444 109.791 98.1389 107.124 97.5833C104.458 97.0278 100.847 96.75 96.291 96.75ZM102.291 125.75H123.541V142.583H80.9577V144.833H124.124V152.833H69.1243V135.917H111.708V133.667H68.9577V125.75H90.291V122.917H65.4577V113.75H127.041V122.917H102.291V125.75ZM178.282 126.167V88.8333H190.366V126.167H178.282ZM145.449 111.75V115.417H161.116C163.838 115.417 166.449 115.222 168.949 114.833C171.449 114.444 173.504 113.889 175.116 113.167V122.75C173.56 123.472 171.532 124.028 169.032 124.417C166.532 124.806 163.838 125 160.949 125H133.449V102.833H158.532V99.1667H133.366V89.5833H170.449V111.75H145.449ZM135.949 152.833V128.417H190.366V152.833H135.949ZM178.366 138.333H147.866V143H178.366V138.333ZM258.023 152.833H246.773V88.8333H258.023V152.833ZM242.607 89.0833V151.75H231.44V125.333H227.19C226.801 134.167 225.357 140.583 222.857 144.583C220.412 148.583 216.912 150.583 212.357 150.583C207.412 150.583 203.69 148.167 201.19 143.333C198.69 138.5 197.44 130.75 197.44 120.083C197.44 109.417 198.69 101.667 201.19 96.8333C203.69 92 207.412 89.5833 212.357 89.5833C216.746 89.5833 220.162 91.4722 222.607 95.25C225.051 98.9722 226.551 104.944 227.107 113.167H231.44V89.0833H242.607ZM212.357 139.167C213.69 139.167 214.635 137.667 215.19 134.667C215.801 131.611 216.107 126.75 216.107 120.083C216.107 113.417 215.801 108.583 215.19 105.583C214.635 102.528 213.69 101 212.357 101C211.023 101 210.051 102.528 209.44 105.583C208.885 108.583 208.607 113.417 208.607 120.083C208.607 126.75 208.885 131.611 209.44 134.667C210.051 137.667 211.023 139.167 212.357 139.167ZM322.598 152.833H310.598V121.333H297.765V109.5H310.598V88.8333H322.598V152.833ZM291.181 90.5C291.181 98.8333 290.626 106.556 289.515 113.667L307.181 143L296.765 149.75L285.348 129.5C282.904 136 279.792 141 276.015 144.5C272.237 148 268.042 149.778 263.431 149.833V136.667C266.487 136.278 269.181 134.083 271.515 130.083C273.904 126.083 275.737 120.639 277.015 113.75C278.292 106.806 278.931 98.9167 278.931 90.0833L291.181 90.5ZM349.319 101.333V89.5833H403.985V119.833H391.485V101.333H349.319ZM382.569 135.5V154.333H370.069V135.5H345.902V123.667H407.485V135.5H382.569ZM472.477 152.833H461.227V124.333H456.143V151.75H445.06V89.0833H456.143V112.333H461.227V88.8333H472.477V152.833ZM440.643 90.3333V149.833H413.06V90.3333H440.643ZM429.477 138.417V101.75H424.227V138.417H429.477ZM535.051 124.5V152.833H523.051V88.8333H535.051V112.25H542.218V124.5H535.051ZM514.051 90.3333V107.667C514.051 116.278 512.634 123.75 509.801 130.083C507.023 136.417 503.051 141.306 497.884 144.75C492.718 148.139 486.634 149.833 479.634 149.833V137.833C486.857 137.778 492.357 135.111 496.134 129.833C499.912 124.556 501.801 117.167 501.801 107.667V101.833H479.634V90.3333H514.051ZM602.459 102.583V112.25H547.626V88.4167H559.626V102.583H602.459ZM543.876 125.667V115.917H605.459V125.667H543.876ZM574.709 128.417C593.209 128.417 602.459 132.611 602.459 141C602.459 149.389 593.209 153.583 574.709 153.583C556.153 153.583 546.876 149.389 546.876 141C546.876 132.611 556.153 128.417 574.709 128.417ZM574.709 137.833C570.042 137.833 566.376 138.111 563.709 138.667C561.042 139.167 559.709 139.944 559.709 141C559.709 143.111 564.709 144.167 574.709 144.167C584.653 144.167 589.626 143.111 589.626 141C589.626 139.944 588.292 139.167 585.626 138.667C583.015 138.111 579.376 137.833 574.709 137.833Z" fill="#01A69F"/>
</svg>
