<svg width="905" height="313" viewBox="0 0 905 313" fill="none" xmlns="http://www.w3.org/2000/svg">
<path d="M201.873 84.8644L167.947 40.7931C166.691 39.1632 164.401 38.7611 162.664 39.8653L140.76 53.7958H112.192C111.822 53.7958 111.454 53.8747 111.098 53.9783L88.9484 60.3544L65.9648 54.068L43.6323 39.8653C41.925 38.7796 39.6764 39.1477 38.4068 40.722L0.881716 87.2026C-0.466804 88.8728 -0.244113 91.3116 1.38277 92.7112L21.0507 109.637L38.6959 133.416C33.5354 138.913 33.6359 147.584 39.0052 152.955C41.3853 155.334 44.4117 156.678 47.5247 156.99C47.4165 157.695 47.3608 158.411 47.3608 159.138C47.3608 162.89 48.8222 166.417 51.4744 169.07C54.1281 171.723 57.6556 173.185 61.4074 173.185C61.4584 173.185 61.5079 173.182 61.5574 173.18C61.5558 173.276 61.5512 173.37 61.5512 173.466C61.5512 177.218 63.0126 180.745 65.6648 183.399C68.3185 186.051 71.846 187.513 75.5978 187.513C76.3385 187.513 77.0715 187.452 77.7906 187.341C78.0953 190.465 79.4423 193.505 81.83 195.893C84.5673 198.632 88.1643 200 91.7614 200C95.3585 200 98.9556 198.632 101.694 195.893L103.842 193.745L104.744 194.472C107.46 197.102 110.986 198.417 114.512 198.417C118.109 198.417 121.706 197.048 124.443 194.309C127.237 191.515 128.606 187.827 128.549 184.157C132.217 184.213 135.907 182.845 138.701 180.053C141.493 177.26 142.861 173.574 142.807 169.906C146.629 169.967 150.253 168.499 152.958 165.794C155.753 163 157.121 159.311 157.064 155.642C160.735 155.697 164.422 154.33 167.217 151.536C171.986 146.766 172.6 139.394 169.063 133.952L181.947 106.97L201.316 90.3018C202.917 88.9239 203.161 86.5361 201.873 84.8644ZM42.3611 48.4775L58.4196 58.6889L23.4864 101.248L9.48781 89.1991L42.3611 48.4775ZM44.6266 138.711L49.4733 133.864C49.6202 133.717 49.7748 133.578 49.9326 133.448C50.8806 132.675 52.028 132.214 53.2436 132.104C53.2776 132.101 53.3132 132.101 53.3472 132.1C53.5204 132.086 53.6936 132.076 53.8683 132.078C55.5292 132.101 57.0726 132.78 58.217 133.988C60.4625 136.362 60.3419 140.24 57.9479 142.634L53.2482 147.334C50.8713 149.711 47.0036 149.711 44.6266 147.334C42.2497 144.955 42.2497 141.088 44.6266 138.711ZM57.0958 163.448C55.9437 162.298 55.3096 160.767 55.3096 159.138C55.3096 157.51 55.9437 155.979 57.0958 154.827L66.4937 145.429C68.2938 143.629 71.1238 143.135 73.425 144.232C75.7973 145.362 77.1319 147.937 76.7839 150.527C76.5983 151.91 75.955 153.212 74.9683 154.2L65.7189 163.448C64.5668 164.6 63.0358 165.234 61.4074 165.234C59.7789 165.234 58.2479 164.6 57.0958 163.448ZM71.2862 177.776C70.1341 176.626 69.5 175.095 69.5 173.466C69.5 171.838 70.1341 170.307 71.2862 169.155L80.6825 159.757C82.6079 157.833 85.6962 157.418 88.053 158.79C90.2057 160.043 91.3331 162.502 90.9635 164.951C90.7609 166.298 90.1206 167.565 89.1572 168.528L79.9093 177.776C78.7572 178.928 77.2262 179.562 75.5978 179.562C73.9693 179.562 72.4383 178.928 71.2862 177.776ZM87.4499 190.272C85.073 187.895 85.073 184.027 87.4499 181.65L92.2965 176.803C92.4434 176.657 92.5965 176.519 92.7543 176.389C92.7589 176.386 92.762 176.383 92.7651 176.38C93.5538 175.739 94.4801 175.311 95.4683 175.124C95.4915 175.121 95.5147 175.118 95.5379 175.115C95.708 175.084 95.8812 175.059 96.0544 175.044C96.124 175.037 96.1936 175.037 96.2647 175.033C96.407 175.025 96.5478 175.016 96.6916 175.017C98.3509 175.04 99.8959 175.718 101.04 176.927C101.181 177.076 101.312 177.23 101.433 177.39C103.261 179.779 103.015 183.328 100.746 185.598L96.0714 190.273C93.6945 192.65 89.8268 192.649 87.4499 190.272ZM161.595 145.914C159.218 148.293 155.351 148.291 152.974 145.914C152.887 145.828 152.796 145.747 152.703 145.672L127.146 119.845C125.601 118.285 123.085 118.273 121.525 119.818C119.964 121.361 119.952 123.877 121.495 125.438L147.329 151.54C147.332 151.543 147.335 151.547 147.338 151.55C149.715 153.927 149.715 157.796 147.338 160.173C146.186 161.325 144.655 161.959 143.027 161.959C141.397 161.959 139.866 161.325 138.715 160.173L121.434 142.712C119.89 141.151 117.374 141.139 115.814 142.682C114.253 144.227 114.241 146.743 115.784 148.304L132.802 165.497C132.888 165.605 132.981 165.709 133.08 165.808C135.457 168.185 135.457 172.054 133.08 174.431C130.701 176.808 126.832 176.807 124.455 174.43L115.023 164.899C113.478 163.338 110.962 163.324 109.402 164.869C107.842 166.413 107.829 168.929 109.373 170.489L118.542 179.753C118.628 179.861 118.721 179.966 118.822 180.065C121.198 182.442 121.198 186.311 118.822 188.688C116.445 191.067 112.577 191.065 110.2 188.688C109.926 188.414 109.605 188.204 109.298 187.969C109.039 187.771 108.971 187.633 109.1 187.318C109.232 186.998 109.428 186.709 109.56 186.387C109.705 186.028 109.823 185.659 109.937 185.287C110.546 183.323 110.726 181.211 110.452 179.173C109.926 175.262 107.775 171.733 104.515 169.499C102.754 168.295 100.715 167.505 98.603 167.208C99.6268 162.692 98.3973 157.796 95.1992 154.417C92.5672 151.636 89.0118 150.076 85.1874 150.023C85.0482 150.022 84.909 150.022 84.7683 150.023C84.8534 146.374 83.5265 142.747 81.0104 140.089C78.3768 137.308 74.8214 135.748 70.9986 135.695C69.8619 135.68 68.7144 135.8 67.6072 136.056C67.1339 132.763 65.4746 129.717 62.9616 127.538C60.464 125.376 57.3231 124.176 53.9781 124.129C50.4568 124.078 46.9974 125.377 44.3823 127.739L29.0182 107.036L65.7746 62.2566L77.4891 65.4608L62.1899 92.4575C60.3403 95.7221 59.8733 99.511 60.8738 103.127C61.8744 106.744 64.2219 109.753 67.4865 111.603C67.6907 111.719 67.8963 111.829 68.1051 111.934C68.1206 111.941 68.1361 111.949 68.1531 111.957C68.7021 112.231 69.2665 112.466 69.8387 112.664C72.5033 113.587 75.3813 113.687 78.1572 112.92C81.7728 111.92 84.7822 109.571 86.6318 106.308L96.574 88.763L114.326 90.0218L161.597 137.291C163.972 139.67 163.972 143.537 161.595 145.914ZM163.242 127.695L118.897 83.3519C118.814 83.2669 118.726 83.1865 118.634 83.1107C117.996 82.5787 117.204 82.257 116.369 82.1983L94.6332 80.6564C93.1301 80.5528 91.6362 81.3523 90.8939 82.6622L79.716 102.389C78.9134 103.806 77.6066 104.825 76.037 105.259C74.4688 105.694 72.8234 105.49 71.4053 104.687C69.9887 103.884 68.9696 102.578 68.535 101.008C68.1005 99.4383 68.3031 97.7928 69.1072 96.3763L84.0291 70.0415L90.0758 68.3017C90.116 68.2893 90.1547 68.2739 90.1949 68.2615L112.762 61.7447H140.03L174.071 105.018L163.242 127.695ZM179.278 98.7795L147.798 58.7399L163.864 48.5224L193.279 86.731L179.278 98.7795Z" fill="#01A69F"/>
<path d="M122.801 46.3321C123.818 46.3321 124.836 45.944 125.612 45.1676L152.762 18.0178C154.315 16.4652 154.315 13.9491 152.762 12.3964C151.209 10.8438 148.693 10.8438 147.14 12.3964L119.991 39.5462C118.438 41.0989 118.438 43.615 119.991 45.1676C120.767 45.944 121.785 46.3321 122.801 46.3321Z" fill="#01A69F"/>
<path d="M77.0872 45.1676C77.8636 45.944 78.8811 46.3321 79.8987 46.3321C80.9147 46.3321 81.9323 45.944 82.7086 45.1676C84.2613 43.615 84.2613 41.0989 82.7086 39.5462L55.5588 12.3964C54.0062 10.8438 51.4901 10.8438 49.9374 12.3964C48.3848 13.9491 48.3848 16.4652 49.9374 18.0178L77.0872 45.1676Z" fill="#01A69F"/>
<path d="M101.349 46.332C103.544 46.332 105.324 44.552 105.324 42.3576V19.889C105.324 17.6945 103.544 15.9146 101.349 15.9146C99.155 15.9146 97.375 17.6945 97.375 19.889V42.3576C97.375 44.552 99.155 46.332 101.349 46.332Z" fill="#01A69F"/>
<path d="M97.6814 5.48374C98.3124 7.0132 99.8851 8.01686 101.544 7.93025C103.184 7.8452 104.623 6.73793 105.131 5.17754C105.64 3.60478 105.086 1.81243 103.768 0.810315C102.424 -0.213447 100.55 -0.270667 99.1444 0.658761C97.5762 1.69489 96.9685 3.75788 97.6814 5.48374Z" fill="#01A69F"/>
<path d="M68.307 266.5V247.533H73.1404V266.5H68.307ZM58.3737 257.8C57.3293 259.333 56.0737 260.567 54.607 261.5C53.1404 262.411 51.5737 262.911 49.907 263V258.3C51.1737 258.144 52.2959 257.578 53.2737 256.6C54.2737 255.622 55.0515 254.356 55.607 252.8C56.1848 251.222 56.4848 249.5 56.507 247.633L61.3737 247.933C61.3737 249.933 61.0404 251.9 60.3737 253.833L67.407 259.033L64.607 262.633L58.3737 257.8ZM73.4737 273.133H51.3737V264.167H56.2737V268.6H73.4737V273.133ZM99.5702 273.133H94.7702V247.533H99.5702V273.133ZM87.0702 267.367C88.2702 267.367 89.4368 267.289 90.5702 267.133C91.7035 266.956 92.6368 266.689 93.3702 266.333V270.933C92.6368 271.267 91.7035 271.522 90.5702 271.7C89.4591 271.856 88.2702 271.933 87.0035 271.933H75.9702V267.367H81.9702V264.633H77.1035V254.433H87.0368V252.567H77.0702V248.267H91.7035V258.467H81.7368V260.333H92.0035V264.633H86.7368V267.367H87.0702ZM121.1 273.133V247.533H125.933V273.133H121.1ZM117.367 255.067C117.367 258.489 116.789 261.478 115.633 264.033C114.478 266.567 112.844 268.522 110.733 269.9C108.622 271.256 106.156 271.933 103.333 271.933V267.133C106.244 267.111 108.478 266.033 110.033 263.9C111.611 261.767 112.4 258.822 112.4 255.067V252.733H103.333V248.133H117.367V255.067ZM154.496 257.633H151.63V266.5H146.83V247.533H151.63V252.7H154.496V257.633ZM129.296 262.8V247.833H134.03V251.067H139.463V247.833H144.163V262.8H129.296ZM139.463 255.2H134.03V258.567H139.463V255.2ZM151.996 268.6V273.133H130.13V264.3H135.03V268.6H151.996ZM47.7778 291.533V282.533H69.4445V291.533H47.7778ZM52.5111 286.167V287.9H64.6778V286.167H52.5111ZM61.0111 297.3H69.5111V304.033H52.4778V304.933H69.7445V308.133H47.7445V301.367H64.7778V300.467H47.6778V297.3H56.2111V296.167H46.2778V292.5H70.9111V296.167H61.0111V297.3ZM86.2743 292.5C85.141 294.278 83.441 295.622 81.1743 296.533C78.9076 297.444 76.2632 297.9 73.241 297.9V293.433C75.1298 293.433 76.7965 293.2 78.241 292.733C79.6854 292.267 80.8076 291.611 81.6076 290.767C82.4298 289.9 82.841 288.9 82.841 287.767V287.2H73.241V282.833H87.7743V286.933C87.7743 287.333 87.7632 287.633 87.741 287.833H91.541V282.533H96.341V301.5H91.541V292.5H86.2743ZM96.6743 308.133H74.5743V299.167H79.4743V303.6H96.6743V308.133ZM118.763 296.6V282.633H123.229V286.533H125.396V282.533H129.896V297.433H125.396V291.167H123.229V296.6H118.763ZM112.463 292.467C111.663 293.889 110.663 295 109.463 295.8C108.285 296.6 106.996 297.011 105.596 297.033V292.5C106.44 292.367 107.196 291.9 107.863 291.1C108.551 290.278 109.085 289.156 109.463 287.733C109.863 286.289 110.063 284.622 110.063 282.733L114.629 282.9C114.629 284.589 114.463 286.289 114.129 288L119.363 293.133L116.296 296.333L112.463 292.467ZM118.696 297.467C122.163 297.467 124.929 297.911 126.996 298.8C129.085 299.667 130.129 301.056 130.129 302.967C130.129 304.878 129.085 306.267 126.996 307.133C124.929 308 122.163 308.433 118.696 308.433C115.251 308.433 112.485 308 110.396 307.133C108.329 306.267 107.296 304.878 107.296 302.967C107.296 301.056 108.329 299.667 110.396 298.8C112.463 297.911 115.229 297.467 118.696 297.467ZM118.696 304.467C120.585 304.467 122.107 304.356 123.263 304.133C124.418 303.889 124.996 303.5 124.996 302.967C124.996 302.433 124.418 302.056 123.263 301.833C122.107 301.589 120.585 301.467 118.696 301.467C116.807 301.467 115.285 301.589 114.129 301.833C112.996 302.056 112.429 302.433 112.429 302.967C112.429 303.5 112.996 303.889 114.129 304.133C115.285 304.356 116.807 304.467 118.696 304.467ZM157.792 292.267H154.926V301.5H150.126V282.533H154.926V287.367H157.792V292.267ZM140.559 292.7C139.515 294.278 138.259 295.533 136.792 296.467C135.348 297.4 133.77 297.911 132.059 298V293.3C133.326 293.144 134.437 292.578 135.392 291.6C136.37 290.622 137.126 289.356 137.659 287.8C138.215 286.244 138.503 284.522 138.526 282.633L143.359 282.933C143.359 285.022 143.07 286.933 142.492 288.667L149.392 294.1L146.526 297.633L140.559 292.7ZM155.292 303.6V308.133H133.426V299.167H138.326V303.6H155.292Z" fill="#333333"/>
<path d="M455 29.0322C446.068 29.0322 437.337 31.6809 429.91 36.6433C422.483 41.6057 416.695 48.6589 413.277 56.911C409.858 65.1632 408.964 74.2436 410.707 83.004C412.449 91.7645 416.75 99.8114 423.066 106.127C429.382 112.443 437.429 116.744 446.19 118.487C454.95 120.23 464.03 119.335 472.283 115.917C480.535 112.499 487.588 106.711 492.55 99.2838C497.513 91.857 500.161 83.1256 500.161 74.1935C500.149 62.2199 495.386 50.7404 486.92 42.2738C478.453 33.8072 466.974 29.045 455 29.0322ZM455 112.903C447.344 112.903 439.86 110.633 433.494 106.379C427.128 102.126 422.167 96.0803 419.237 89.0071C416.307 81.9338 415.541 74.1506 417.034 66.6416C418.528 59.1327 422.215 52.2353 427.628 46.8216C433.042 41.408 439.939 37.7213 447.448 36.2276C454.957 34.734 462.74 35.5006 469.814 38.4304C476.887 41.3603 482.933 46.3218 487.186 52.6876C491.44 59.0533 493.71 66.5375 493.71 74.1935C493.699 84.4565 489.617 94.2961 482.36 101.553C475.103 108.81 465.263 112.892 455 112.903Z" fill="#01A69F"/>
<path d="M474.355 64.516H467.903V61.2902C467.898 57.0141 466.197 52.9145 463.174 49.8909C460.15 46.8672 456.05 45.1663 451.774 45.1611C450.919 45.1611 450.098 45.501 449.493 46.106C448.888 46.7109 448.548 47.5314 448.548 48.3869V62.7902L445.323 64.9418V64.516C445.323 63.6604 444.983 62.8399 444.378 62.235C443.773 61.63 442.952 61.2902 442.097 61.2902H429.194C428.338 61.2902 427.518 61.63 426.913 62.235C426.308 62.8399 425.968 63.6604 425.968 64.516V90.3224C425.968 91.178 426.308 91.9985 426.913 92.6034C427.518 93.2084 428.338 93.5482 429.194 93.5482H442.097C442.952 93.5482 443.773 93.2084 444.378 92.6034C444.983 91.9985 445.323 91.178 445.323 90.3224V89.8966L449.984 93.0063C450.515 93.3587 451.137 93.5472 451.774 93.5482H474.355C476.921 93.5482 479.383 92.5286 481.198 90.7138C483.013 88.8989 484.032 86.4374 484.032 83.8708V74.1934C484.032 71.6268 483.013 69.1653 481.198 67.3504C479.383 65.5356 476.921 64.516 474.355 64.516ZM438.871 87.0966H432.419V67.7418H438.871V87.0966ZM477.581 83.8708C477.581 84.7263 477.241 85.5468 476.636 86.1518C476.031 86.7568 475.21 87.0966 474.355 87.0966H452.742L445.323 82.145V72.6934L453.565 67.2095C454.008 66.9139 454.371 66.5133 454.621 66.0433C454.871 65.5733 455.002 65.0485 455 64.516V52.1644C456.886 52.834 458.518 54.0705 459.673 55.7043C460.828 57.3381 461.449 59.2893 461.452 61.2902V67.7418C461.452 68.5973 461.792 69.4178 462.396 70.0228C463.001 70.6277 463.822 70.9676 464.677 70.9676H474.355C475.21 70.9676 476.031 71.3074 476.636 71.9124C477.241 72.5174 477.581 73.3379 477.581 74.1934V83.8708Z" fill="#01A69F"/>
<path d="M455 12.9034C442.718 12.8857 430.715 16.5636 420.551 23.4589C410.387 30.3541 402.533 40.1478 398.01 51.5665C393.487 62.9852 392.504 75.5006 395.189 87.4854C397.874 99.4703 404.102 110.37 413.064 118.768V187.097C413.064 187.735 413.253 188.359 413.608 188.889C413.962 189.42 414.465 189.833 415.055 190.078C415.446 190.241 415.866 190.324 416.29 190.323C417.146 190.323 417.966 189.983 418.571 189.378L425.968 181.981V196.774C425.968 197.412 426.157 198.036 426.512 198.566C426.866 199.096 427.37 199.51 427.959 199.754C428.548 199.998 429.197 200.062 429.823 199.937C430.448 199.813 431.023 199.506 431.474 199.055L455 175.529L478.526 199.055C479.131 199.66 479.951 200 480.806 200C481.23 200.001 481.65 199.918 482.042 199.755C482.631 199.511 483.135 199.097 483.489 198.567C483.843 198.036 484.032 197.412 484.032 196.774V181.981L491.429 189.378C492.034 189.983 492.854 190.323 493.71 190.323C494.134 190.324 494.554 190.241 494.945 190.078C495.534 189.833 496.038 189.42 496.392 188.889C496.747 188.359 496.936 187.735 496.935 187.097V118.768C505.898 110.37 512.126 99.4703 514.811 87.4854C517.496 75.5006 516.513 62.9852 511.99 51.5665C507.466 40.1478 499.612 30.3541 489.449 23.4589C479.285 16.5636 467.282 12.8857 455 12.9034ZM419.516 179.31V124.074C421.579 125.567 423.734 126.929 425.968 128.152V172.858L419.516 179.31ZM457.281 168.687C456.676 168.082 455.855 167.743 455 167.743C454.145 167.743 453.324 168.082 452.719 168.687L432.419 188.987V131.119C446.911 136.939 463.089 136.939 477.581 131.119V188.987L457.281 168.687ZM490.484 179.31L484.032 172.858V128.152C486.266 126.929 488.421 125.567 490.484 124.074V179.31ZM455 129.032C444.154 129.032 433.551 125.816 424.533 119.79C415.515 113.765 408.486 105.2 404.336 95.1796C400.185 85.1591 399.099 74.1329 401.215 63.4952C403.331 52.8575 408.554 43.0862 416.223 35.4169C423.892 27.7476 433.664 22.5247 444.301 20.4087C454.939 18.2927 465.965 19.3787 475.986 23.5293C486.006 27.68 494.571 34.7088 500.597 43.7269C506.622 52.7451 509.839 63.3476 509.839 74.1937C509.822 88.7328 504.04 102.672 493.759 112.953C483.478 123.233 469.539 129.016 455 129.032Z" fill="#01A69F"/>
<path d="M551.774 12.9032C549.207 12.9032 546.746 11.8836 544.931 10.0688C543.116 8.25391 542.097 5.79242 542.097 3.22581C542.097 2.37027 541.757 1.54977 541.152 0.944817C540.547 0.339861 539.726 0 538.871 0C538.015 0 537.195 0.339861 536.59 0.944817C535.985 1.54977 535.645 2.37027 535.645 3.22581C535.645 5.79242 534.625 8.25391 532.81 10.0688C530.996 11.8836 528.534 12.9032 525.968 12.9032C525.112 12.9032 524.291 13.2431 523.687 13.848C523.082 14.453 522.742 15.2735 522.742 16.129C522.742 16.9846 523.082 17.8051 523.687 18.41C524.291 19.015 525.112 19.3548 525.968 19.3548C528.534 19.3548 530.996 20.3744 532.81 22.1893C534.625 24.0042 535.645 26.4656 535.645 29.0323C535.645 29.8878 535.985 30.7083 536.59 31.3132C537.195 31.9182 538.015 32.2581 538.871 32.2581C539.726 32.2581 540.547 31.9182 541.152 31.3132C541.757 30.7083 542.097 29.8878 542.097 29.0323C542.097 26.4656 543.116 24.0042 544.931 22.1893C546.746 20.3744 549.207 19.3548 551.774 19.3548C552.629 19.3548 553.45 19.015 554.055 18.41C554.66 17.8051 555 16.9846 555 16.129C555 15.2735 554.66 14.453 554.055 13.848C553.45 13.2431 552.629 12.9032 551.774 12.9032ZM538.871 19.3548C537.951 18.1341 536.866 17.0483 535.645 16.129C536.866 15.2097 537.951 14.1239 538.871 12.9032C539.79 14.1239 540.876 15.2097 542.097 16.129C540.876 17.0483 539.79 18.1341 538.871 19.3548Z" fill="#01A69F"/>
<path d="M384.032 48.3871C381.466 48.3871 379.004 47.3675 377.189 45.5527C375.374 43.7378 374.355 41.2763 374.355 38.7097C374.355 37.8542 374.015 37.0337 373.41 36.4287C372.805 35.8237 371.985 35.4839 371.129 35.4839C370.273 35.4839 369.453 35.8237 368.848 36.4287C368.243 37.0337 367.903 37.8542 367.903 38.7097C367.903 41.2763 366.884 43.7378 365.069 45.5527C363.254 47.3675 360.792 48.3871 358.226 48.3871C357.37 48.3871 356.55 48.727 355.945 49.3319C355.34 49.9369 355 50.7574 355 51.6129C355 52.4685 355.34 53.289 355.945 53.8939C356.55 54.4989 357.37 54.8387 358.226 54.8387C360.792 54.8387 363.254 55.8583 365.069 57.6732C366.884 59.488 367.903 61.9495 367.903 64.5161C367.903 65.3717 368.243 66.1922 368.848 66.7971C369.453 67.4021 370.273 67.7419 371.129 67.7419C371.985 67.7419 372.805 67.4021 373.41 66.7971C374.015 66.1922 374.355 65.3717 374.355 64.5161C374.355 61.9495 375.374 59.488 377.189 57.6732C379.004 55.8583 381.466 54.8387 384.032 54.8387C384.888 54.8387 385.708 54.4989 386.313 53.8939C386.918 53.289 387.258 52.4685 387.258 51.6129C387.258 50.7574 386.918 49.9369 386.313 49.3319C385.708 48.727 384.888 48.3871 384.032 48.3871ZM371.129 54.8387C370.21 53.618 369.124 52.5322 367.903 51.6129C369.124 50.6936 370.21 49.6078 371.129 48.3871C372.048 49.6078 373.134 50.6936 374.355 51.6129C373.134 52.5322 372.048 53.618 371.129 54.8387Z" fill="#01A69F"/>
<path d="M411.744 254.3C410.433 254.967 408.878 255.489 407.078 255.867C405.278 256.244 403.389 256.456 401.411 256.5V252.833C403.078 252.789 404.667 252.622 406.178 252.333C407.711 252.022 408.878 251.622 409.678 251.133H401.678V247.533H423.544V251.133H415.211L415.011 251.467L424.144 253.1L423.178 256.6L411.744 254.3ZM424.911 260.867H400.278V257.267H410.211V255.667H415.011V257.267H424.911V260.867ZM423.678 262.3V265.6H401.511V262.3H410.178V261.467H415.011V262.3H423.678ZM412.611 266.2C415.967 266.2 418.5 266.478 420.211 267.033C421.922 267.567 422.778 268.489 422.778 269.8C422.778 271.133 421.922 272.067 420.211 272.6C418.522 273.156 415.989 273.433 412.611 273.433C409.233 273.433 406.689 273.156 404.978 272.6C403.289 272.067 402.444 271.133 402.444 269.8C402.444 268.489 403.3 267.567 405.011 267.033C406.722 266.478 409.256 266.2 412.611 266.2ZM412.611 270.3C414.411 270.3 415.744 270.267 416.611 270.2C417.478 270.133 417.911 270 417.911 269.8C417.911 269.444 416.144 269.267 412.611 269.267C409.078 269.267 407.311 269.444 407.311 269.8C407.311 270 407.744 270.133 408.611 270.2C409.478 270.267 410.811 270.3 412.611 270.3ZM439.008 247.1C442.363 247.1 445.063 247.6 447.108 248.6C449.152 249.6 450.174 251.067 450.174 253C450.174 254.911 449.152 256.367 447.108 257.367C445.063 258.367 442.363 258.867 439.008 258.867C435.652 258.867 432.952 258.367 430.908 257.367C428.863 256.367 427.841 254.911 427.841 253C427.841 251.067 428.863 249.6 430.908 248.6C432.952 247.6 435.652 247.1 439.008 247.1ZM439.008 251.033C437.163 251.033 435.685 251.211 434.574 251.567C433.485 251.922 432.941 252.4 432.941 253C432.941 253.6 433.485 254.078 434.574 254.433C435.685 254.767 437.163 254.933 439.008 254.933C440.852 254.933 442.319 254.767 443.408 254.433C444.497 254.078 445.041 253.6 445.041 253C445.041 252.4 444.497 251.922 443.408 251.567C442.319 251.211 440.852 251.033 439.008 251.033ZM426.674 264.233V260.067H451.308V264.233H426.674ZM450.174 268.9V273.133H428.108V265.567H433.008V268.9H450.174ZM460.929 257.8V254H464.663V251.333H461.196V247.533H482.796V251.333H479.296V254H483.029V257.8H460.929ZM474.529 254V251.333H469.463V254H474.529ZM474.396 264.167H482.896V273.133H461.096V264.167H469.596V262.833H459.663V259H484.296V262.833H474.396V264.167ZM465.863 267.9V269.433H478.096V267.9H465.863ZM504.792 260.067V247.533H509.626V260.067H504.792ZM494.826 256.567C493.826 257.611 492.615 258.456 491.192 259.1C489.77 259.744 488.237 260.089 486.592 260.133V255.933C488.081 255.844 489.337 255.411 490.359 254.633C491.381 253.833 492.059 252.9 492.392 251.833H486.959V247.833H502.692V251.833H497.292C497.248 252.167 497.137 252.589 496.959 253.1L503.359 256.1L501.459 259.833L494.826 256.567ZM509.892 273.133H487.859V265.567H504.859V264.6H487.826V260.967H509.626V268.6H492.626V269.5H509.892V273.133ZM411.911 290.167C410.556 290.878 408.933 291.433 407.044 291.833C405.156 292.233 403.178 292.456 401.111 292.5V288.9C402.978 288.856 404.733 288.644 406.378 288.267C408.044 287.889 409.233 287.4 409.944 286.8H401.544V283.3H410.178V281.5H415.044V283.3H423.644V286.8H415.311C415.289 286.956 415.222 287.122 415.111 287.3L424.144 289.1L423.244 292.6L411.911 290.167ZM415.044 297.767H423.511V304.233H406.478V305.1H423.744V308.133H401.744V301.633H418.778V300.767H401.678V297.767H410.178V296.7H400.278V293.167H424.911V296.7H415.044V297.767ZM443.008 285.6V290.233H427.208V285.6H432.641V282.433H437.574V285.6H443.008ZM449.541 296.8V308.133H444.741V282.533H449.541V291.9H452.408V296.8H449.541ZM435.108 291.3C436.53 291.3 437.774 291.644 438.841 292.333C439.908 293.022 440.73 293.978 441.308 295.2C441.885 296.4 442.174 297.756 442.174 299.267C442.174 300.8 441.885 302.167 441.308 303.367C440.73 304.567 439.908 305.511 438.841 306.2C437.774 306.889 436.53 307.233 435.108 307.233C433.663 307.233 432.408 306.889 431.341 306.2C430.274 305.511 429.452 304.567 428.874 303.367C428.297 302.167 428.008 300.8 428.008 299.267C428.008 297.756 428.297 296.4 428.874 295.2C429.452 293.978 430.274 293.022 431.341 292.333C432.408 291.644 433.663 291.3 435.108 291.3ZM435.108 302.9C435.885 302.9 436.485 302.578 436.908 301.933C437.352 301.267 437.574 300.378 437.574 299.267C437.574 298.156 437.352 297.278 436.908 296.633C436.485 295.967 435.885 295.633 435.108 295.633C434.33 295.633 433.719 295.967 433.274 296.633C432.83 297.278 432.608 298.156 432.608 299.267C432.608 300.378 432.83 301.267 433.274 301.933C433.719 302.578 434.33 302.9 435.108 302.9ZM478.563 282.533H483.396V302.4H478.563V301.7H472.296V298.2H478.563V282.533ZM468.363 292.7C466.096 292.7 464.274 292.256 462.896 291.367C461.54 290.456 460.863 289.156 460.863 287.467C460.863 285.778 461.54 284.489 462.896 283.6C464.274 282.711 466.096 282.267 468.363 282.267C470.629 282.267 472.44 282.711 473.796 283.6C475.151 284.489 475.829 285.778 475.829 287.467C475.829 289.156 475.151 290.456 473.796 291.367C472.44 292.256 470.629 292.7 468.363 292.7ZM468.363 285.967C467.474 285.967 466.774 286.1 466.263 286.367C465.774 286.611 465.529 286.978 465.529 287.467C465.529 287.978 465.774 288.356 466.263 288.6C466.774 288.844 467.474 288.967 468.363 288.967C469.251 288.967 469.94 288.844 470.429 288.6C470.918 288.356 471.163 287.978 471.163 287.467C471.163 286.978 470.907 286.611 470.396 286.367C469.907 286.1 469.229 285.967 468.363 285.967ZM459.663 297.467V293.567H470.896C473.74 293.567 475.84 293.256 477.196 292.633V296.533C476.44 296.889 475.507 297.133 474.396 297.267C473.307 297.4 471.94 297.467 470.296 297.467V301.333H465.496V297.467H459.663ZM483.729 308.133H461.596V300H466.429V303.9H483.729V308.133ZM494.826 294C493.826 295.178 492.615 296.133 491.192 296.867C489.792 297.578 488.259 297.944 486.592 297.967V293.633C488.081 293.522 489.326 293.022 490.326 292.133C491.326 291.222 491.981 290.122 492.292 288.833H486.892V284.667H492.359V282.067H497.292V284.667H502.759V288.833H497.259C497.126 289.5 497.003 289.967 496.892 290.233L503.492 294L501.259 297.767L494.826 294ZM509.626 298.2H504.792V282.533H509.626V298.2ZM509.626 299.1V308.433H504.726V303.367H487.726V299.1H509.626Z" fill="#333333"/>
<path d="M763.313 256.3H760.446V261.633H755.646V247.533H760.446V251.467H763.313V256.3ZM746.28 257.233C745.28 258.478 744.046 259.489 742.58 260.267C741.135 261.044 739.568 261.444 737.88 261.467V257.033C739.368 256.944 740.624 256.411 741.646 255.433C742.691 254.456 743.335 253.322 743.58 252.033H738.213V247.833H753.746V252.033H748.446C748.424 252.367 748.346 252.844 748.213 253.467L754.58 257.2L752.313 260.933L746.28 257.233ZM749.713 262C753.046 262 755.702 262.456 757.68 263.367C759.68 264.256 760.68 265.7 760.68 267.7C760.68 269.7 759.68 271.156 757.68 272.067C755.702 272.978 753.046 273.433 749.713 273.433C746.38 273.433 743.713 272.978 741.713 272.067C739.735 271.156 738.746 269.7 738.746 267.7C738.746 265.7 739.735 264.256 741.713 263.367C743.713 262.456 746.38 262 749.713 262ZM749.713 269.4C751.446 269.4 752.835 269.267 753.88 269C754.946 268.711 755.48 268.278 755.48 267.7C755.48 267.122 754.946 266.7 753.88 266.433C752.835 266.167 751.446 266.033 749.713 266.033C747.98 266.033 746.58 266.167 745.513 266.433C744.446 266.7 743.913 267.122 743.913 267.7C743.913 268.278 744.446 268.711 745.513 269C746.58 269.267 747.98 269.4 749.713 269.4ZM788.209 273.133H783.709V261.733H781.676V272.7H777.243V247.633H781.676V256.933H783.709V247.533H788.209V273.133ZM769.943 247.833C771.92 247.833 773.409 248.8 774.409 250.733C775.409 252.667 775.909 255.767 775.909 260.033C775.909 264.3 775.409 267.4 774.409 269.333C773.409 271.267 771.92 272.233 769.943 272.233C767.965 272.233 766.476 271.267 765.476 269.333C764.476 267.4 763.976 264.3 763.976 260.033C763.976 255.767 764.476 252.667 765.476 250.733C766.476 248.8 767.965 247.833 769.943 247.833ZM769.943 267.667C770.476 267.667 770.854 267.067 771.076 265.867C771.32 264.644 771.443 262.7 771.443 260.033C771.443 257.367 771.32 255.433 771.076 254.233C770.854 253.011 770.476 252.4 769.943 252.4C769.409 252.4 769.02 253.011 768.776 254.233C768.554 255.433 768.443 257.367 768.443 260.033C768.443 262.7 768.554 264.644 768.776 265.867C769.02 267.067 769.409 267.667 769.943 267.667ZM809.106 266.5V247.533H813.939V266.5H809.106ZM798.306 247.567C799.884 247.567 801.273 247.889 802.473 248.533C803.695 249.156 804.639 250.044 805.306 251.2C805.973 252.356 806.306 253.7 806.306 255.233C806.306 256.767 805.973 258.111 805.306 259.267C804.639 260.422 803.695 261.322 802.473 261.967C801.273 262.589 799.884 262.9 798.306 262.9C796.728 262.9 795.328 262.589 794.106 261.967C792.906 261.322 791.961 260.422 791.273 259.267C790.606 258.111 790.273 256.767 790.273 255.233C790.273 253.7 790.606 252.356 791.273 251.2C791.961 250.044 792.906 249.156 794.106 248.533C795.328 247.889 796.728 247.567 798.306 247.567ZM798.306 251.8C797.35 251.8 796.573 252.1 795.973 252.7C795.395 253.3 795.106 254.144 795.106 255.233C795.106 256.322 795.395 257.178 795.973 257.8C796.573 258.4 797.35 258.7 798.306 258.7C799.261 258.7 800.039 258.4 800.639 257.8C801.239 257.178 801.539 256.322 801.539 255.233C801.539 254.144 801.239 253.3 800.639 252.7C800.039 252.1 799.261 251.8 798.306 251.8ZM814.273 268.6V273.133H792.439V264.167H797.339V268.6H814.273ZM824.661 252.833V248.133H846.661V265H841.627V252.833H824.661ZM847.994 272.233H823.361V267.5H831.294V257.5H836.294V267.5H847.994V272.233ZM874.391 262.567H849.757V258.7H854.291V256.333C852.068 255.444 850.957 254.1 850.957 252.3C850.957 250.522 851.957 249.211 853.957 248.367C855.98 247.522 858.691 247.1 862.091 247.1C865.491 247.1 868.191 247.522 870.191 248.367C872.191 249.211 873.191 250.522 873.191 252.3C873.191 254.078 872.091 255.422 869.891 256.333V258.7H874.391V262.567ZM862.091 250.9C860.202 250.9 858.724 251.022 857.657 251.267C856.613 251.489 856.091 251.833 856.091 252.3C856.091 253.233 858.091 253.7 862.091 253.7C866.068 253.7 868.057 253.233 868.057 252.3C868.057 251.833 867.535 251.489 866.491 251.267C865.446 251.022 863.98 250.9 862.091 250.9ZM865.091 258.7V257.367C864.291 257.456 863.291 257.5 862.091 257.5C860.891 257.5 859.891 257.456 859.091 257.367V258.7H865.091ZM862.091 263.433C869.491 263.433 873.191 265.1 873.191 268.433C873.191 271.767 869.491 273.433 862.091 273.433C854.668 273.433 850.957 271.767 850.957 268.433C850.957 265.1 854.668 263.433 862.091 263.433ZM862.091 269.667C866.068 269.667 868.057 269.256 868.057 268.433C868.057 267.611 866.068 267.2 862.091 267.2C858.091 267.2 856.091 267.611 856.091 268.433C856.091 269.256 858.091 269.667 862.091 269.667ZM730.754 296.8V308.133H725.954V282.533H730.754V291.9H733.621V296.8H730.754ZM719.321 283.2C719.321 287 719.009 290.456 718.387 293.567L725.454 304L721.487 306.9L716.654 299.433C715.654 301.833 714.398 303.678 712.887 304.967C711.398 306.256 709.732 306.911 707.887 306.933V301.733C709.176 301.578 710.309 300.689 711.287 299.067C712.265 297.444 713.032 295.256 713.587 292.5C714.143 289.722 714.421 286.567 714.421 283.033L719.321 283.2ZM734.384 289.067V284.733H740.184V282.333H745.15V284.733H751.017V289.067H734.384ZM757.884 308.133H753.084V282.533H757.884V308.133ZM745.084 302.467C748.061 302.467 750.261 302.133 751.684 301.467V305.933C750.95 306.267 750.017 306.522 748.884 306.7C747.773 306.856 746.584 306.933 745.317 306.933H734.284V302.467H740.284V300.3C738.75 299.989 737.539 299.4 736.65 298.533C735.761 297.667 735.317 296.556 735.317 295.2C735.317 293.489 735.995 292.167 737.35 291.233C738.728 290.3 740.528 289.833 742.75 289.833C744.95 289.833 746.728 290.3 748.084 291.233C749.461 292.167 750.15 293.489 750.15 295.2C750.15 296.556 749.695 297.678 748.784 298.567C747.895 299.433 746.661 300.011 745.084 300.3V302.467ZM739.817 295.2C739.817 295.644 740.084 295.978 740.617 296.2C741.15 296.422 741.861 296.533 742.75 296.533C743.639 296.533 744.339 296.422 744.85 296.2C745.384 295.978 745.65 295.644 745.65 295.2C745.65 294.756 745.384 294.422 744.85 294.2C744.317 293.956 743.617 293.833 742.75 293.833C741.861 293.833 741.15 293.956 740.617 294.2C740.084 294.422 739.817 294.756 739.817 295.2ZM784.313 298.067H779.513V292.2H776.28V287.833H779.513V282.533H784.313V298.067ZM769.347 293.3C768.347 294.611 767.147 295.667 765.747 296.467C764.347 297.244 762.813 297.656 761.147 297.7V293.133C762.68 293.022 763.958 292.389 764.98 291.233C766.025 290.078 766.658 288.7 766.88 287.1H761.447V282.833H776.98V287.1H771.713C771.691 287.678 771.558 288.433 771.313 289.367L777.947 293.833L775.413 297.5L769.347 293.3ZM784.313 298.967V308.433H779.413V303.3H762.447V298.967H784.313ZM795.168 291.067V287.533H812.035V286.167H795.168V282.533H816.835V292.533H812.035V291.067H795.168ZM818.302 296.1H793.668V292.467H818.302V296.1ZM817.135 305.033V308.133H795.135V301.3H812.168V300.3H795.068V297.233H816.902V304.033H799.868V305.033H817.135ZM838.798 301.567V282.533H843.632V301.567H838.798ZM825.665 292.5V294.533H831.932C833.02 294.533 834.065 294.456 835.065 294.3C836.065 294.144 836.887 293.922 837.532 293.633V297.6C836.909 297.889 836.087 298.111 835.065 298.267C834.065 298.422 832.998 298.5 831.865 298.5H820.865V288.8H830.898V286.8H820.832V282.833H835.665V292.5H825.665ZM843.965 303.667V308.133H821.865V300.1H826.765V303.667H843.965ZM871.787 308.133V282.533H876.62V308.133H871.787ZM868.053 290.067C868.053 293.489 867.475 296.478 866.32 299.033C865.164 301.567 863.531 303.522 861.42 304.9C859.309 306.256 856.842 306.933 854.02 306.933V302.133C856.931 302.111 859.164 301.033 860.72 298.9C862.298 296.767 863.087 293.822 863.087 290.067V287.733H854.02V283.133H868.053V290.067ZM903.116 295.8H898.316V291.467H894.583C894.094 292.8 893.194 293.856 891.883 294.633C890.594 295.389 889.027 295.767 887.183 295.767C885.65 295.767 884.283 295.5 883.083 294.967C881.905 294.411 880.983 293.633 880.316 292.633C879.672 291.633 879.35 290.478 879.35 289.167C879.35 287.856 879.672 286.7 880.316 285.7C880.983 284.7 881.905 283.933 883.083 283.4C884.283 282.844 885.65 282.567 887.183 282.567C889.005 282.567 890.561 282.933 891.85 283.667C893.139 284.4 894.039 285.422 894.55 286.733H898.316V282.533H903.116V295.8ZM887.183 291.667C888.116 291.667 888.85 291.444 889.383 291C889.916 290.556 890.183 289.944 890.183 289.167C890.183 288.389 889.916 287.778 889.383 287.333C888.85 286.867 888.116 286.633 887.183 286.633C886.272 286.633 885.539 286.867 884.983 287.333C884.45 287.778 884.183 288.389 884.183 289.167C884.183 289.922 884.45 290.533 884.983 291C885.539 291.444 886.272 291.667 887.183 291.667ZM903.116 296.7V308.133H881.65V296.7H886.35V298.367H898.383V296.7H903.116ZM898.383 302.3H886.35V304.133H898.383V302.3Z" fill="#333333"/>
<path fill-rule="evenodd" clip-rule="evenodd" d="M775.838 90.7777C775.838 101.907 784.861 110.93 795.99 110.93C807.12 110.93 816.142 101.907 816.142 90.7777C816.142 82.937 811.664 76.1475 805.139 72.8181C803.698 72.0827 801.933 72.6549 801.198 74.0962C800.463 75.5374 801.035 77.3019 802.476 78.0373C807.116 80.4049 810.283 85.2239 810.283 90.7777C810.283 98.671 803.884 105.07 795.99 105.07C788.097 105.07 781.698 98.671 781.698 90.7777C781.698 84.2398 786.09 78.7202 792.09 77.023C793.647 76.5826 794.553 74.9635 794.112 73.4065C793.672 71.8496 792.053 70.9444 790.496 71.3848C782.039 73.7767 775.838 81.5493 775.838 90.7777Z" fill="#01A69F"/>
<path fill-rule="evenodd" clip-rule="evenodd" d="M819.677 101.737C819.677 106.814 823.792 110.93 828.869 110.93C833.946 110.93 838.061 106.814 838.061 101.737C838.061 96.6609 833.946 92.5453 828.869 92.5453C823.792 92.5453 819.677 96.661 819.677 101.737ZM828.869 105.07C827.028 105.07 825.536 103.578 825.536 101.737C825.536 99.8968 827.028 98.4047 828.869 98.4047C830.71 98.4047 832.202 99.8969 832.202 101.737C832.202 103.578 830.71 105.07 828.869 105.07Z" fill="#01A69F"/>
<path fill-rule="evenodd" clip-rule="evenodd" d="M828.869 98.4043C830.487 98.4043 831.799 97.0926 831.799 95.4746V86.0805C831.799 81.0037 827.683 76.8883 822.606 76.8883H810.081C808.463 76.8883 807.151 78.1999 807.151 79.818C807.151 81.436 808.463 82.7477 810.081 82.7477H822.606C824.447 82.7477 825.939 84.24 825.939 86.0805V95.4746C825.939 97.0926 827.251 98.4043 828.869 98.4043Z" fill="#01A69F"/>
<path fill-rule="evenodd" clip-rule="evenodd" d="M788.364 82.949C788.364 88.0258 792.479 92.1416 797.556 92.1416C802.633 92.1416 806.748 88.0259 806.748 82.949V67.2924C806.748 65.6744 805.436 64.3627 803.818 64.3627C802.2 64.3627 800.889 65.6744 800.889 67.2924V82.949C800.889 84.7901 799.396 86.2822 797.556 86.2822C795.715 86.2822 794.223 84.7902 794.223 82.949V67.2924C794.223 61.9932 798.519 57.6971 803.818 57.6971C809.118 57.6971 813.414 61.9932 813.414 67.2924V79.8178C813.414 81.4358 814.725 82.7475 816.343 82.7475C817.961 82.7475 819.273 81.4358 819.273 79.8178V67.2924C819.273 58.7572 812.354 51.8377 803.818 51.8377C795.283 51.8377 788.364 58.7572 788.364 67.2924V82.949Z" fill="#01A69F"/>
<path fill-rule="evenodd" clip-rule="evenodd" d="M797.758 48.5056C797.758 53.5821 801.873 57.6978 806.95 57.6978C812.027 57.6978 816.142 53.5822 816.142 48.5056C816.142 43.4289 812.027 39.3134 806.95 39.3134C801.873 39.3134 797.758 43.4291 797.758 48.5056ZM806.95 51.8384C805.109 51.8384 803.617 50.3463 803.617 48.5056C803.617 46.6649 805.109 45.1728 806.95 45.1728C808.791 45.1728 810.283 46.665 810.283 48.5056C810.283 50.3461 808.791 51.8384 806.95 51.8384Z" fill="#01A69F"/>
<path fill-rule="evenodd" clip-rule="evenodd" d="M790.546 132.159C791.487 130.842 791.181 129.013 789.865 128.073C779.31 120.536 766.237 109.793 755.829 96.8132C745.406 83.8143 737.859 68.8302 737.859 52.747C737.859 31.2698 755.27 13.8591 776.748 13.8591C787.795 13.8591 797.745 18.4859 804.832 25.8976C805.385 26.4756 806.15 26.8025 806.95 26.8025C807.749 26.8025 808.514 26.4756 809.067 25.8977C816.155 18.4859 826.104 13.8591 837.152 13.8591C858.629 13.8591 876.04 31.2698 876.04 52.747C876.04 68.8302 868.493 83.8143 858.07 96.8132C847.662 109.793 834.59 120.536 824.035 128.073C822.718 129.013 822.413 130.842 823.353 132.159C824.293 133.476 826.123 133.781 827.44 132.841C838.224 125.141 851.768 114.039 862.641 100.479C873.5 86.937 881.899 70.6846 881.899 52.747C881.899 28.0337 861.865 7.99977 837.152 7.99977C825.495 7.99977 814.903 12.4791 806.95 19.7742C798.997 12.4791 788.404 7.99977 776.748 7.99977C752.034 7.99977 732 28.0337 732 52.747C732 70.6846 740.4 86.937 751.258 100.479C762.132 114.039 775.675 125.141 786.46 132.841C787.776 133.781 789.606 133.476 790.546 132.159Z" fill="#01A69F"/>
<path fill-rule="evenodd" clip-rule="evenodd" d="M797.758 129.919C797.758 134.996 801.873 139.111 806.95 139.111C812.027 139.111 816.142 134.996 816.142 129.919C816.142 124.843 812.027 120.727 806.95 120.727C801.873 120.727 797.758 124.843 797.758 129.919ZM806.95 133.252C805.109 133.252 803.617 131.76 803.617 129.919C803.617 128.078 805.109 126.586 806.95 126.586C808.791 126.586 810.283 128.079 810.283 129.919C810.283 131.76 808.791 133.252 806.95 133.252Z" fill="#01A69F"/>
<path fill-rule="evenodd" clip-rule="evenodd" d="M794.425 186.484C790.855 186.484 787.96 183.59 787.96 180.02V154.97C787.96 150.058 791.651 146.008 796.41 145.442L798.236 147.268C803.048 152.08 810.851 152.08 815.664 147.268L817.489 145.442C822.249 146.008 825.939 150.058 825.939 154.97V180.02C825.939 183.59 823.045 186.484 819.475 186.484C817.856 186.484 816.545 187.796 816.545 189.414C816.545 191.032 817.856 192.344 819.475 192.344C826.281 192.344 831.798 186.826 831.798 180.02V154.97C831.798 146.434 824.879 139.515 816.344 139.515C815.567 139.515 814.821 139.823 814.272 140.373L811.52 143.124C808.996 145.649 804.903 145.649 802.379 143.124L799.627 140.373C799.078 139.823 798.333 139.515 797.556 139.515C789.02 139.515 782.101 146.434 782.101 154.97V180.02C782.101 186.826 787.619 192.344 794.425 192.344H794.426C796.044 192.344 797.355 191.032 797.355 189.414C797.355 187.796 796.044 186.484 794.426 186.484H794.425Z" fill="#01A69F"/>
<path fill-rule="evenodd" clip-rule="evenodd" d="M794.424 208C796.042 208 797.354 206.688 797.354 205.07V154.97C797.354 153.352 796.042 152.04 794.424 152.04C792.806 152.04 791.495 153.352 791.495 154.97V205.07C791.495 206.688 792.806 208 794.424 208Z" fill="#01A69F"/>
<path fill-rule="evenodd" clip-rule="evenodd" d="M819.475 208C821.093 208 822.405 206.688 822.405 205.07V154.97C822.405 153.352 821.093 152.04 819.475 152.04C817.857 152.04 816.545 153.352 816.545 154.97V205.07C816.545 206.688 817.857 208 819.475 208Z" fill="#01A69F"/>
<path fill-rule="evenodd" clip-rule="evenodd" d="M806.95 208C808.568 208 809.879 206.688 809.879 205.07V192.545C809.879 190.927 808.568 189.616 806.95 189.616C805.332 189.616 804.02 190.927 804.02 192.545V205.07C804.02 206.688 805.332 208 806.95 208Z" fill="#01A69F"/>
<path fill-rule="evenodd" clip-rule="evenodd" d="M791.495 180.02C791.495 181.638 792.806 182.949 794.424 182.949H819.475C821.093 182.949 822.404 181.638 822.404 180.02C822.404 178.402 821.093 177.09 819.475 177.09H794.424C792.806 177.09 791.495 178.402 791.495 180.02Z" fill="#01A69F"/>
<path fill-rule="evenodd" clip-rule="evenodd" d="M844.727 136.182C844.727 141.258 848.843 145.374 853.919 145.374C858.996 145.374 863.112 141.259 863.112 136.182C863.112 131.105 858.996 126.99 853.919 126.99C848.843 126.99 844.727 131.105 844.727 136.182ZM853.919 139.515C852.079 139.515 850.586 138.022 850.586 136.182C850.586 134.341 852.079 132.849 853.919 132.849C855.76 132.849 857.252 134.341 857.252 136.182C857.252 138.022 855.76 139.515 853.919 139.515Z" fill="#01A69F"/>
<path fill-rule="evenodd" clip-rule="evenodd" d="M841.394 208C843.012 208 844.324 206.688 844.324 205.07V161.232C844.324 159.614 843.012 158.302 841.394 158.302C839.776 158.302 838.464 159.614 838.464 161.232V205.07C838.464 206.688 839.776 208 841.394 208Z" fill="#01A69F"/>
<path fill-rule="evenodd" clip-rule="evenodd" d="M866.444 208C868.062 208 869.374 206.688 869.374 205.07V161.232C869.374 159.614 868.062 158.302 866.444 158.302C864.826 158.302 863.515 159.614 863.515 161.232V205.07C863.515 206.688 864.826 208 866.444 208Z" fill="#01A69F"/>
<path fill-rule="evenodd" clip-rule="evenodd" d="M853.919 208C855.537 208 856.849 206.688 856.849 205.07V198.808C856.849 197.19 855.537 195.878 853.919 195.878C852.301 195.878 850.989 197.19 850.989 198.808V205.07C850.989 206.688 852.301 208 853.919 208Z" fill="#01A69F"/>
<path fill-rule="evenodd" clip-rule="evenodd" d="M838.464 186.282C838.464 187.9 839.776 189.212 841.394 189.212H866.444C868.062 189.212 869.374 187.9 869.374 186.282C869.374 184.664 868.062 183.353 866.444 183.353H841.394C839.776 183.353 838.464 184.664 838.464 186.282Z" fill="#01A69F"/>
<path fill-rule="evenodd" clip-rule="evenodd" d="M863.514 195.677C863.514 197.295 864.826 198.606 866.444 198.606C873.25 198.606 878.768 193.089 878.768 186.283V161.233C878.768 152.697 871.849 145.778 863.313 145.778C862.536 145.778 861.791 146.086 861.242 146.636L858.49 149.387C855.966 151.911 851.873 151.911 849.349 149.387L846.597 146.636C846.048 146.086 845.302 145.778 844.525 145.778C843.197 145.778 841.903 145.946 840.666 146.264C839.099 146.667 838.155 148.264 838.558 149.831C838.962 151.398 840.559 152.342 842.126 151.939C842.533 151.834 842.951 151.755 843.379 151.704L845.205 153.53C850.018 158.343 857.821 158.343 862.633 153.53L864.459 151.705C869.219 152.271 872.909 156.321 872.909 161.233V186.283C872.909 189.853 870.015 192.747 866.444 192.747C864.826 192.747 863.514 194.059 863.514 195.677Z" fill="#01A69F"/>
<path fill-rule="evenodd" clip-rule="evenodd" d="M759.98 139.515C758.139 139.515 756.647 138.022 756.647 136.182C756.647 134.341 758.139 132.849 759.98 132.849C761.821 132.849 763.313 134.341 763.313 136.182C763.313 138.022 761.821 139.515 759.98 139.515ZM750.788 136.182C750.788 141.259 754.903 145.374 759.98 145.374C765.057 145.374 769.172 141.258 769.172 136.182C769.172 131.105 765.057 126.99 759.98 126.99C754.903 126.99 750.788 131.105 750.788 136.182Z" fill="#01A69F"/>
<path fill-rule="evenodd" clip-rule="evenodd" d="M772.505 208C774.123 208 775.435 206.688 775.435 205.07V161.232C775.435 159.614 774.123 158.302 772.505 158.302C770.887 158.302 769.576 159.614 769.576 161.232V205.07C769.576 206.688 770.887 208 772.505 208Z" fill="#01A69F"/>
<path fill-rule="evenodd" clip-rule="evenodd" d="M747.455 208C749.073 208 750.385 206.688 750.385 205.07V161.232C750.385 159.614 749.073 158.302 747.455 158.302C745.837 158.302 744.525 159.614 744.525 161.232V205.07C744.525 206.688 745.837 208 747.455 208Z" fill="#01A69F"/>
<path fill-rule="evenodd" clip-rule="evenodd" d="M759.98 208C761.598 208 762.91 206.688 762.91 205.07V198.808C762.91 197.19 761.598 195.878 759.98 195.878C758.362 195.878 757.051 197.19 757.051 198.808V205.07C757.051 206.688 758.362 208 759.98 208Z" fill="#01A69F"/>
<path fill-rule="evenodd" clip-rule="evenodd" d="M744.525 186.282C744.525 187.9 745.837 189.212 747.455 189.212H772.505C774.123 189.212 775.435 187.9 775.435 186.282C775.435 184.664 774.123 183.353 772.505 183.353H747.455C745.837 183.353 744.525 184.664 744.525 186.282Z" fill="#01A69F"/>
<path fill-rule="evenodd" clip-rule="evenodd" d="M735.131 186.283C735.131 193.089 740.649 198.606 747.455 198.606C749.073 198.606 750.385 197.295 750.385 195.677C750.385 194.059 749.073 192.747 747.455 192.747C743.885 192.747 740.991 189.853 740.991 186.283V161.233C740.991 156.321 744.681 152.271 749.44 151.705L751.266 153.53C756.078 158.343 763.881 158.343 768.694 153.53L770.52 151.704C770.948 151.755 771.367 151.834 771.774 151.939C773.341 152.342 774.938 151.398 775.341 149.831C775.744 148.264 774.801 146.667 773.234 146.264C771.996 145.946 770.702 145.778 769.374 145.778C768.597 145.778 767.852 146.086 767.302 146.636L764.551 149.387C762.027 151.911 757.933 151.911 755.409 149.387L752.658 146.636C752.108 146.086 751.363 145.778 750.586 145.778C742.051 145.778 735.131 152.697 735.131 161.233V186.283Z" fill="#01A69F"/>
</svg>
