<svg width="613" height="36" viewBox="0 0 613 36" fill="none" xmlns="http://www.w3.org/2000/svg">
<path d="M25.6783 35.5111V1.37778H28.9227V35.5111H25.6783ZM18.2561 10.7111C18.2561 15.2444 17.5302 19.2148 16.0783 22.6222C14.6264 26 12.5524 28.6222 9.85608 30.4889C7.18941 32.3556 4.03385 33.2889 0.38941 33.2889V30.0889C3.382 30.0889 5.9746 29.3037 8.16719 27.7333C10.3598 26.163 12.0339 23.9407 13.1894 21.0667C14.3746 18.163 14.9672 14.7556 14.9672 10.8444V5.77778H0.38941V2.71111H18.2561V10.7111ZM64.3403 19.1556H61.1403V11.6H54.0736C53.7477 13.7037 52.7255 15.3926 51.0069 16.6667C49.2884 17.9407 47.0662 18.5778 44.3403 18.5778C42.3255 18.5778 40.5625 18.2222 39.0514 17.5111C37.5699 16.8 36.4144 15.8074 35.5847 14.5333C34.7847 13.2593 34.3847 11.8074 34.3847 10.1778C34.3847 8.57778 34.7847 7.14074 35.5847 5.86666C36.4144 4.59259 37.5699 3.6 39.0514 2.88889C40.5625 2.17778 42.3255 1.82222 44.3403 1.82222C46.9773 1.82222 49.1551 2.42963 50.8736 3.64444C52.5921 4.85926 53.644 6.47407 54.0292 8.48889H61.1403V1.37778H64.3403V19.1556ZM44.3403 15.7333C46.3551 15.7333 47.9847 15.2444 49.2292 14.2667C50.4736 13.2593 51.0958 11.8963 51.0958 10.1778C51.0958 8.48889 50.4736 7.15556 49.2292 6.17778C47.9847 5.17037 46.3551 4.66667 44.3403 4.66667C42.3255 4.66667 40.6958 5.17037 39.4514 6.17778C38.2069 7.15556 37.5847 8.48889 37.5847 10.1778C37.5847 11.8963 38.2069 13.2593 39.4514 14.2667C40.6958 15.2444 42.3255 15.7333 44.3403 15.7333ZM64.3403 20.7111V34.9778H37.4069V20.7111H40.5625V24.7556H61.1847V20.7111H64.3403ZM61.1847 27.5111H40.5625V32.1778H61.1847V27.5111ZM98.4689 18.4V35.5111H95.2689V1.37778H98.4689V15.1556H103.091V18.4H98.4689ZM70.4245 5.91111V2.75556H88.8689V24.5778H85.6245V5.91111H70.4245ZM81.2689 30.2222C86.4837 30.2222 90.1726 29.7333 92.3356 28.7556V31.9111C90.0837 32.8889 86.4097 33.3778 81.3134 33.3778H69.18V30.2222H75.2245V15.2889H78.4245V30.2222H81.2689ZM147.076 11.3333H142.364V20.2667H139.164V1.37778H142.364V8.17778H147.076V11.3333ZM124.409 12.0889C123.342 14.1037 121.876 15.763 120.009 17.0667C118.172 18.3407 116.053 19.1407 113.653 19.4667V16.4C116.409 15.9852 118.616 14.7852 120.276 12.8C121.935 10.7852 122.868 8.26667 123.076 5.24444H114.053V2.35556H134.764V5.24444H126.32C126.231 6.81481 125.994 8.22222 125.609 9.46667L135.787 16.1778L134.187 18.7111L124.409 12.0889ZM129.12 21.5111C133.238 21.5111 136.557 22.0889 139.076 23.2444C141.594 24.3704 142.853 26.1185 142.853 28.4889C142.853 30.8593 141.594 32.6074 139.076 33.7333C136.557 34.8593 133.238 35.4222 129.12 35.4222C125.001 35.4222 121.683 34.8593 119.164 33.7333C116.646 32.6074 115.387 30.8593 115.387 28.4889C115.387 26.1185 116.646 24.3704 119.164 23.2444C121.683 22.0889 125.001 21.5111 129.12 21.5111ZM129.12 32.6222C132.172 32.6222 134.661 32.2667 136.587 31.5556C138.513 30.8444 139.476 29.8222 139.476 28.4889C139.476 27.1259 138.513 26.0889 136.587 25.3778C134.661 24.6667 132.172 24.3111 129.12 24.3111C126.068 24.3111 123.579 24.6667 121.653 25.3778C119.727 26.0889 118.764 27.1259 118.764 28.4889C118.764 29.8222 119.727 30.8444 121.653 31.5556C123.579 32.2667 126.068 32.6222 129.12 32.6222ZM179.382 35.5111H176.315V18.5778H170.449V34.9333H167.426V1.55555H170.449V15.3778H176.315V1.37778H179.382V35.5111ZM156.36 2.26667C158.849 2.26667 160.715 3.55556 161.96 6.13333C163.204 8.71111 163.826 12.6815 163.826 18.0444C163.826 23.437 163.204 27.4222 161.96 30C160.715 32.5481 158.849 33.8222 156.36 33.8222C153.9 33.8222 152.034 32.5481 150.76 30C149.515 27.4222 148.893 23.437 148.893 18.0444C148.893 7.52593 151.382 2.26667 156.36 2.26667ZM156.36 30.7556C157.841 30.7556 158.938 29.7185 159.649 27.6444C160.389 25.5407 160.76 22.3407 160.76 18.0444C160.76 13.7481 160.389 10.563 159.649 8.48889C158.938 6.38518 157.841 5.33333 156.36 5.33333C154.878 5.33333 153.767 6.38518 153.026 8.48889C152.315 10.563 151.96 13.7481 151.96 18.0444C151.96 22.3407 152.315 25.5407 153.026 27.6444C153.767 29.7185 154.878 30.7556 156.36 30.7556ZM210.444 26.7556V1.37778H213.688V26.7556H210.444ZM194.177 1.77778C196.251 1.77778 198.059 2.20741 199.599 3.06667C201.14 3.8963 202.311 5.06667 203.111 6.57778C203.94 8.05926 204.355 9.74815 204.355 11.6444C204.355 13.5407 203.94 15.2444 203.111 16.7556C202.311 18.237 201.14 19.4074 199.599 20.2667C198.059 21.0963 196.251 21.5111 194.177 21.5111C192.103 21.5111 190.296 21.0963 188.755 20.2667C187.214 19.4074 186.029 18.237 185.199 16.7556C184.37 15.2444 183.955 13.5407 183.955 11.6444C183.955 9.74815 184.37 8.05926 185.199 6.57778C186.029 5.06667 187.214 3.8963 188.755 3.06667C190.296 2.20741 192.103 1.77778 194.177 1.77778ZM194.177 4.62222C192.074 4.62222 190.385 5.25926 189.111 6.53333C187.837 7.80741 187.199 9.51111 187.199 11.6444C187.199 13.7778 187.837 15.4815 189.111 16.7556C190.385 18 192.074 18.6222 194.177 18.6222C196.281 18.6222 197.97 18 199.244 16.7556C200.518 15.4815 201.155 13.7778 201.155 11.6444C201.155 9.51111 200.518 7.80741 199.244 6.53333C197.97 5.25926 196.281 4.62222 194.177 4.62222ZM214.622 31.9111V34.9778H186.799V23.9556H190.044V31.9111H214.622ZM245.639 35.5111V1.37778H248.884V35.5111H245.639ZM229.995 2.26667C232.958 2.26667 235.313 3.6 237.061 6.26667C238.839 8.93333 239.728 12.8593 239.728 18.0444C239.728 23.2296 238.839 27.1556 237.061 29.8222C235.313 32.4889 232.958 33.8222 229.995 33.8222C227.032 33.8222 224.661 32.4889 222.884 29.8222C221.136 27.1556 220.261 23.2296 220.261 18.0444C220.261 12.8593 221.136 8.93333 222.884 6.26667C224.661 3.6 227.032 2.26667 229.995 2.26667ZM229.995 5.33333C228.01 5.33333 226.424 6.4 225.239 8.53333C224.054 10.637 223.461 13.8074 223.461 18.0444C223.461 22.3111 224.054 25.4963 225.239 27.6C226.424 29.7037 228.01 30.7556 229.995 30.7556C231.921 30.7556 233.491 29.7037 234.706 27.6C235.921 25.4667 236.528 22.2815 236.528 18.0444C236.528 13.837 235.921 10.6667 234.706 8.53333C233.491 6.4 231.921 5.33333 229.995 5.33333ZM296.646 11.3333H291.935V20.2667H288.735V1.37778H291.935V8.17778H296.646V11.3333ZM273.668 11.7778C272.513 13.8815 271.016 15.6 269.179 16.9333C267.342 18.237 265.238 19.0815 262.868 19.4667V16.4C264.942 15.9852 266.735 15.0815 268.246 13.6889C269.757 12.2963 270.913 10.563 271.713 8.48889C272.513 6.41481 272.913 4.16296 272.913 1.73333L276.157 1.91111C276.157 4.48889 275.757 6.87407 274.957 9.06667L285.268 16.1778L283.624 18.6667L273.668 11.7778ZM278.69 21.5111C282.809 21.5111 286.127 22.0889 288.646 23.2444C291.164 24.3704 292.424 26.1185 292.424 28.4889C292.424 30.8593 291.164 32.6074 288.646 33.7333C286.127 34.8593 282.809 35.4222 278.69 35.4222C274.572 35.4222 271.253 34.8593 268.735 33.7333C266.216 32.6074 264.957 30.8593 264.957 28.4889C264.957 26.1185 266.216 24.3704 268.735 23.2444C271.253 22.0889 274.572 21.5111 278.69 21.5111ZM278.69 32.6222C281.742 32.6222 284.231 32.2667 286.157 31.5556C288.083 30.8444 289.046 29.8222 289.046 28.4889C289.046 27.1259 288.083 26.0889 286.157 25.3778C284.231 24.6667 281.742 24.3111 278.69 24.3111C275.638 24.3111 273.15 24.6667 271.224 25.3778C269.298 26.0889 268.335 27.1259 268.335 28.4889C268.335 29.8222 269.298 30.8444 271.224 31.5556C273.15 32.2667 275.638 32.6222 278.69 32.6222ZM316.774 20.2222V1.55555H319.797V8.04444H325.886V1.37778H328.952V21.3333H325.886V11.1556H319.797V20.2222H316.774ZM306.597 12.4444C304.878 16.7111 302.004 19.3037 297.974 20.2222V17.1111C302.804 15.6296 305.219 10.5185 305.219 1.77778L308.33 1.86667C308.33 4.56296 308.108 7.02222 307.663 9.24444L315.441 17.0222L313.352 19.2444L306.597 12.4444ZM315.086 22.1333C319.293 22.1333 322.73 22.6667 325.397 23.7333C328.093 24.8 329.441 26.4889 329.441 28.8C329.441 31.1111 328.108 32.8 325.441 33.8667C322.774 34.9037 319.323 35.4222 315.086 35.4222C310.849 35.4222 307.397 34.9037 304.73 33.8667C302.093 32.8 300.774 31.1111 300.774 28.8C300.774 26.4889 302.108 24.8 304.774 23.7333C307.441 22.6667 310.878 22.1333 315.086 22.1333ZM315.086 32.6222C318.197 32.6222 320.804 32.3259 322.908 31.7333C325.012 31.1111 326.063 30.1333 326.063 28.8C326.063 27.4667 325.012 26.5037 322.908 25.9111C320.804 25.2889 318.197 24.9778 315.086 24.9778C311.974 24.9778 309.367 25.2889 307.263 25.9111C305.189 26.5037 304.152 27.4667 304.152 28.8C304.152 30.1333 305.189 31.1111 307.263 31.7333C309.367 32.3259 311.974 32.6222 315.086 32.6222ZM354.948 6.93333V10H333.881V6.93333H342.77V1.28889H346.014V6.93333H354.948ZM362.325 18.7111V35.5111H359.125V1.37778H362.325V15.5111H367.036V18.7111H362.325ZM344.414 13.0222C346.103 13.0222 347.629 13.4519 348.992 14.3111C350.355 15.1704 351.422 16.3852 352.192 17.9556C352.962 19.5259 353.348 21.3333 353.348 23.3778C353.348 25.4222 352.962 27.2444 352.192 28.8444C351.422 30.4148 350.355 31.6296 348.992 32.4889C347.629 33.3481 346.103 33.7778 344.414 33.7778C342.696 33.7778 341.155 33.3481 339.792 32.4889C338.429 31.6296 337.362 30.4148 336.592 28.8444C335.822 27.2444 335.436 25.4222 335.436 23.3778C335.436 21.3333 335.822 19.5259 336.592 17.9556C337.362 16.3852 338.429 15.1704 339.792 14.3111C341.155 13.4519 342.696 13.0222 344.414 13.0222ZM344.414 30.8C345.481 30.8 346.444 30.5037 347.303 29.9111C348.192 29.2889 348.888 28.4148 349.392 27.2889C349.925 26.163 350.192 24.8593 350.192 23.3778C350.192 21.8963 349.925 20.5926 349.392 19.4667C348.888 18.3407 348.192 17.4815 347.303 16.8889C346.444 16.2667 345.481 15.9556 344.414 15.9556C343.318 15.9556 342.325 16.2667 341.436 16.8889C340.577 17.4815 339.881 18.3407 339.348 19.4667C338.844 20.5926 338.592 21.8963 338.592 23.3778C338.592 24.8593 338.844 26.163 339.348 27.2889C339.881 28.4148 340.577 29.2889 341.436 29.9111C342.325 30.5037 343.318 30.8 344.414 30.8ZM398.632 11.5556V14.4889H370.765V1.42222H373.965V11.5556H398.632ZM368.321 21.6V18.7111H400.676V21.6H368.321ZM398.943 32.0889V35.0222H370.676V24.9333H373.921V32.0889H398.943ZM439.194 35.5111V1.37778H442.438V35.5111H439.194ZM431.772 10.7111C431.772 15.2444 431.046 19.2148 429.594 22.6222C428.142 26 426.068 28.6222 423.372 30.4889C420.705 32.3556 417.549 33.2889 413.905 33.2889V30.0889C416.898 30.0889 419.49 29.3037 421.683 27.7333C423.875 26.163 425.549 23.9407 426.705 21.0667C427.89 18.163 428.483 14.7556 428.483 10.8444V5.77778H413.905V2.71111H431.772V10.7111ZM477.856 19.1556H474.656V11.6H467.589C467.263 13.7037 466.241 15.3926 464.523 16.6667C462.804 17.9407 460.582 18.5778 457.856 18.5778C455.841 18.5778 454.078 18.2222 452.567 17.5111C451.086 16.8 449.93 15.8074 449.1 14.5333C448.3 13.2593 447.9 11.8074 447.9 10.1778C447.9 8.57778 448.3 7.14074 449.1 5.86666C449.93 4.59259 451.086 3.6 452.567 2.88889C454.078 2.17778 455.841 1.82222 457.856 1.82222C460.493 1.82222 462.671 2.42963 464.389 3.64444C466.108 4.85926 467.16 6.47407 467.545 8.48889H474.656V1.37778H477.856V19.1556ZM457.856 15.7333C459.871 15.7333 461.5 15.2444 462.745 14.2667C463.989 13.2593 464.611 11.8963 464.611 10.1778C464.611 8.48889 463.989 7.15556 462.745 6.17778C461.5 5.17037 459.871 4.66667 457.856 4.66667C455.841 4.66667 454.211 5.17037 452.967 6.17778C451.723 7.15556 451.1 8.48889 451.1 10.1778C451.1 11.8963 451.723 13.2593 452.967 14.2667C454.211 15.2444 455.841 15.7333 457.856 15.7333ZM477.856 20.7111V34.9778H450.923V20.7111H454.078V24.7556H474.7V20.7111H477.856ZM474.7 27.5111H454.078V32.1778H474.7V27.5111ZM495.574 7.46667C496.077 7.61481 496.477 7.8963 496.774 8.31111C497.07 8.6963 497.218 9.15555 497.218 9.68889C497.218 10.4 496.981 10.9778 496.507 11.4222C496.063 11.8667 495.5 12.0889 494.818 12.0889C494.107 12.0889 493.529 11.8667 493.085 11.4222C492.64 10.9481 492.418 10.3704 492.418 9.68889C492.418 9.3037 492.448 8.93333 492.507 8.57778C492.596 8.22222 492.759 7.74815 492.996 7.15556L494.907 1.02222H497.129L495.574 7.46667ZM531.332 35.5111H528.132V18.9778H521.466C521.347 23.8667 520.429 27.5704 518.71 30.0889C516.992 32.5778 514.725 33.8222 511.91 33.8222C508.977 33.8222 506.636 32.4889 504.888 29.8222C503.17 27.1556 502.31 23.2296 502.31 18.0444C502.31 12.8593 503.17 8.93333 504.888 6.26667C506.636 3.6 508.977 2.26667 511.91 2.26667C514.607 2.26667 516.799 3.40741 518.488 5.68889C520.177 7.97037 521.155 11.3481 521.421 15.8222H528.132V1.37778H531.332V35.5111ZM511.91 30.7556C513.836 30.7556 515.377 29.7037 516.532 27.6C517.688 25.4963 518.266 22.3111 518.266 18.0444C518.266 13.8074 517.688 10.637 516.532 8.53333C515.377 6.4 513.836 5.33333 511.91 5.33333C509.984 5.33333 508.429 6.4 507.244 8.53333C506.088 10.637 505.51 13.8074 505.51 18.0444C505.51 22.3111 506.088 25.4963 507.244 27.6C508.429 29.7037 509.984 30.7556 511.91 30.7556ZM552.35 13.6444C548.172 13.6444 544.765 13.1407 542.128 12.1333C539.491 11.1259 538.172 9.57037 538.172 7.46667C538.172 5.36296 539.476 3.82222 542.083 2.84444C544.72 1.83704 548.143 1.33333 552.35 1.33333C556.557 1.33333 559.965 1.83704 562.572 2.84444C565.18 3.82222 566.483 5.36296 566.483 7.46667C566.483 9.57037 565.165 11.1259 562.528 12.1333C559.92 13.1407 556.528 13.6444 552.35 13.6444ZM552.35 3.95555C549.209 3.95555 546.617 4.25185 544.572 4.84444C542.528 5.40741 541.506 6.28148 541.506 7.46667C541.506 8.65185 542.513 9.54074 544.528 10.1333C546.572 10.6963 549.18 10.9778 552.35 10.9778C555.491 10.9778 558.069 10.6963 560.083 10.1333C562.128 9.54074 563.15 8.65185 563.15 7.46667C563.15 6.28148 562.128 5.40741 560.083 4.84444C558.069 4.25185 555.491 3.95555 552.35 3.95555ZM553.95 21.8222H566.217V29.4667H541.639V32.5778H566.794V35.0222H538.528V27.2889H563.061V24.2667H538.439V21.8222H550.75V18.4H536.172V15.7778H568.528V18.4H553.95V21.8222ZM598.256 21.3778V1.37778H601.501V21.3778H598.256ZM576.168 12.4444V17.2889H584.745C587.116 17.2889 589.234 17.1556 591.101 16.8889C592.997 16.5926 594.464 16.1926 595.501 15.6889V18.4444C594.464 18.9481 592.982 19.3481 591.056 19.6444C589.13 19.9111 586.968 20.0444 584.568 20.0444H572.968V9.86667H588.834V5.02222H572.879V2.31111H592.034V12.4444H576.168ZM574.256 34.9778V23.3778H601.501V34.9778H574.256ZM598.301 26.1778H577.412V32.1778H598.301V26.1778ZM609.896 0.799998C610.607 0.799998 611.185 1.03704 611.63 1.51111C612.074 1.95555 612.296 2.51852 612.296 3.2C612.296 3.58518 612.252 3.95555 612.163 4.31111C612.104 4.66667 611.97 5.15555 611.763 5.77778L609.807 11.9111H607.585L609.141 5.42222C608.637 5.27407 608.237 5.00741 607.941 4.62222C607.644 4.23704 607.496 3.76296 607.496 3.2C607.496 2.48889 607.718 1.91111 608.163 1.46667C608.637 1.02222 609.215 0.799998 609.896 0.799998Z" fill="black"/>
</svg>
