<svg width="661" height="279" viewBox="0 0 661 279" fill="none" xmlns="http://www.w3.org/2000/svg">
<path d="M53.2586 27.6H47.5253V38.2667H37.9253V10.0667H47.5253V17.9333H53.2586V27.6ZM19.1919 29.4667C17.1919 31.9556 14.7253 33.9778 11.7919 35.5333C8.90304 37.0889 5.7697 37.8889 2.39193 37.9333V29.0667C5.36971 28.8889 7.88082 27.8222 9.92526 25.8667C12.0141 23.9111 13.303 21.6444 13.7919 19.0667H3.05859V10.6667H34.1253V19.0667H23.5253C23.4808 19.7333 23.3253 20.6889 23.0586 21.9333L35.7919 29.4L31.2586 36.8667L19.1919 29.4667ZM26.0586 39C32.7253 39 38.0364 39.9111 41.9919 41.7333C45.9919 43.5111 47.9919 46.4 47.9919 50.4C47.9919 54.4 45.9919 57.3111 41.9919 59.1333C38.0364 60.9556 32.7253 61.8667 26.0586 61.8667C19.3919 61.8667 14.0586 60.9556 10.0586 59.1333C6.10304 57.3111 4.12526 54.4 4.12526 50.4C4.12526 46.4 6.10304 43.5111 10.0586 41.7333C14.0586 39.9111 19.3919 39 26.0586 39ZM26.0586 53.8C29.5253 53.8 32.303 53.5333 34.3919 53C36.5253 52.4222 37.5919 51.5556 37.5919 50.4C37.5919 49.2444 36.5253 48.4 34.3919 47.8667C32.303 47.3333 29.5253 47.0667 26.0586 47.0667C22.5919 47.0667 19.7919 47.3333 17.6586 47.8667C15.5253 48.4 14.4586 49.2444 14.4586 50.4C14.4586 51.5556 15.5253 52.4222 17.6586 53C19.7919 53.5333 22.5919 53.8 26.0586 53.8ZM103.052 61.2667H94.0516V38.4667H89.9849V60.4H81.1182V10.2667H89.9849V28.8667H94.0516V10.0667H103.052V61.2667ZM66.5182 10.6667C70.4738 10.6667 73.4516 12.6 75.4516 16.4667C77.4516 20.3333 78.4516 26.5333 78.4516 35.0667C78.4516 43.6 77.4516 49.8 75.4516 53.6667C73.4516 57.5333 70.4738 59.4667 66.5182 59.4667C62.5627 59.4667 59.5849 57.5333 57.5849 53.6667C55.5849 49.8 54.5849 43.6 54.5849 35.0667C54.5849 26.5333 55.5849 20.3333 57.5849 16.4667C59.5849 12.6 62.5627 10.6667 66.5182 10.6667ZM66.5182 50.3333C67.5849 50.3333 68.3405 49.1333 68.7849 46.7333C69.2738 44.2889 69.5182 40.4 69.5182 35.0667C69.5182 29.7333 69.2738 25.8667 68.7849 23.4667C68.3405 21.0222 67.5849 19.8 66.5182 19.8C65.4516 19.8 64.6738 21.0222 64.1849 23.4667C63.7405 25.8667 63.5182 29.7333 63.5182 35.0667C63.5182 40.4 63.7405 44.2889 64.1849 46.7333C64.6738 49.1333 65.4516 50.3333 66.5182 50.3333ZM144.845 48V10.0667H154.511V48H144.845ZM123.245 10.1333C126.4 10.1333 129.178 10.7778 131.578 12.0667C134.022 13.3111 135.911 15.0889 137.245 17.4C138.578 19.7111 139.245 22.4 139.245 25.4667C139.245 28.5333 138.578 31.2222 137.245 33.5333C135.911 35.8444 134.022 37.6444 131.578 38.9333C129.178 40.1778 126.4 40.8 123.245 40.8C120.089 40.8 117.289 40.1778 114.845 38.9333C112.445 37.6444 110.556 35.8444 109.178 33.5333C107.845 31.2222 107.178 28.5333 107.178 25.4667C107.178 22.4 107.845 19.7111 109.178 17.4C110.556 15.0889 112.445 13.3111 114.845 12.0667C117.289 10.7778 120.089 10.1333 123.245 10.1333ZM123.245 18.6C121.333 18.6 119.778 19.2 118.578 20.4C117.422 21.6 116.845 23.2889 116.845 25.4667C116.845 27.6444 117.422 29.3556 118.578 30.6C119.778 31.8 121.333 32.4 123.245 32.4C125.156 32.4 126.711 31.8 127.911 30.6C129.111 29.3556 129.711 27.6444 129.711 25.4667C129.711 23.2889 129.111 21.6 127.911 20.4C126.711 19.2 125.156 18.6 123.245 18.6ZM155.178 52.2V61.2667H111.511V43.3333H121.311V52.2H155.178ZM222.621 59.4667H173.354V50.2667H183.888V41.8H175.621V32.6H183.021V20.4667H176.088V11.2667H219.954V20.4667H213.021V32.6H220.421V41.8H212.154V50.2667H222.621V59.4667ZM203.421 32.6V20.4667H192.621V32.6H203.421ZM202.488 50.2667V41.8H193.488V50.2667H202.488ZM249.614 26.6667C246.947 28.4889 243.77 29.9111 240.081 30.9333C236.392 31.9111 232.503 32.4444 228.414 32.5333V24.2667C232.147 24.1778 235.636 23.6222 238.881 22.6C242.17 21.5333 244.481 20.0889 245.814 18.2667H228.947V10.0667H272.681V18.2667H256.147L255.481 20L274.014 24.8667L271.547 32.8L249.614 26.6667ZM275.414 43.1333H255.614V50.0667H245.947V43.1333H226.147V34.8H275.414V43.1333ZM273.147 52.8667V61.2667H229.014V46.1333H238.814V52.8667H273.147ZM324.674 38.6V61.2667H315.074V10.0667H324.674V28.8H330.407V38.6H324.674ZM301.807 11.4C301.807 19 301.185 25.9111 299.94 32.1333L314.074 53L306.14 58.8L296.474 43.8667C294.474 48.6667 291.963 52.3556 288.94 54.9333C285.963 57.5111 282.629 58.8222 278.94 58.8667V48.4667C281.518 48.1556 283.785 46.3778 285.74 43.1333C287.696 39.8889 289.229 35.5111 290.34 30C291.451 24.4444 292.007 18.1333 292.007 11.0667L301.807 11.4ZM379.067 36.6H369.467V27.9333H362C361.022 30.6 359.222 32.7111 356.6 34.2667C354.022 35.7778 350.889 36.5333 347.2 36.5333C344.133 36.5333 341.4 36 339 34.9333C336.644 33.8222 334.8 32.2667 333.467 30.2667C332.178 28.2667 331.533 25.9556 331.533 23.3333C331.533 20.7111 332.178 18.4 333.467 16.4C334.8 14.4 336.644 12.8667 339 11.8C341.4 10.6889 344.133 10.1333 347.2 10.1333C350.844 10.1333 353.956 10.8667 356.533 12.3333C359.111 13.8 360.911 15.8444 361.933 18.4667H369.467V10.0667H379.067V36.6ZM347.2 28.3333C349.067 28.3333 350.533 27.8889 351.6 27C352.667 26.1111 353.2 24.8889 353.2 23.3333C353.2 21.7778 352.667 20.5556 351.6 19.6667C350.533 18.7333 349.067 18.2667 347.2 18.2667C345.378 18.2667 343.911 18.7333 342.8 19.6667C341.733 20.5556 341.2 21.7778 341.2 23.3333C341.2 24.8444 341.733 26.0667 342.8 27C343.911 27.8889 345.378 28.3333 347.2 28.3333ZM379.067 38.4V61.2667H336.133V38.4H345.533V41.7333H369.6V38.4H379.067ZM369.6 49.6H345.533V53.2667H369.6V49.6ZM435.993 27.6H430.26V38.2667H420.66V10.0667H430.26V17.9333H435.993V27.6ZM401.926 29.4667C399.926 31.9556 397.46 33.9778 394.526 35.5333C391.637 37.0889 388.504 37.8889 385.126 37.9333V29.0667C388.104 28.8889 390.615 27.8222 392.66 25.8667C394.749 23.9111 396.037 21.6444 396.526 19.0667H385.793V10.6667H416.86V19.0667H406.26C406.215 19.7333 406.06 20.6889 405.793 21.9333L418.526 29.4L413.993 36.8667L401.926 29.4667ZM408.793 39C415.46 39 420.771 39.9111 424.726 41.7333C428.726 43.5111 430.726 46.4 430.726 50.4C430.726 54.4 428.726 57.3111 424.726 59.1333C420.771 60.9556 415.46 61.8667 408.793 61.8667C402.126 61.8667 396.793 60.9556 392.793 59.1333C388.837 57.3111 386.86 54.4 386.86 50.4C386.86 46.4 388.837 43.5111 392.793 41.7333C396.793 39.9111 402.126 39 408.793 39ZM408.793 53.8C412.26 53.8 415.037 53.5333 417.126 53C419.26 52.4222 420.326 51.5556 420.326 50.4C420.326 49.2444 419.26 48.4 417.126 47.8667C415.037 47.3333 412.26 47.0667 408.793 47.0667C405.326 47.0667 402.526 47.3333 400.393 47.8667C398.26 48.4 397.193 49.2444 397.193 50.4C397.193 51.5556 398.26 52.4222 400.393 53C402.526 53.5333 405.326 53.8 408.793 53.8ZM487.97 48V10.0667H497.636V48H487.97ZM466.37 10.1333C469.525 10.1333 472.303 10.7778 474.703 12.0667C477.147 13.3111 479.036 15.0889 480.37 17.4C481.703 19.7111 482.37 22.4 482.37 25.4667C482.37 28.5333 481.703 31.2222 480.37 33.5333C479.036 35.8444 477.147 37.6444 474.703 38.9333C472.303 40.1778 469.525 40.8 466.37 40.8C463.214 40.8 460.414 40.1778 457.97 38.9333C455.57 37.6444 453.681 35.8444 452.303 33.5333C450.97 31.2222 450.303 28.5333 450.303 25.4667C450.303 22.4 450.97 19.7111 452.303 17.4C453.681 15.0889 455.57 13.3111 457.97 12.0667C460.414 10.7778 463.214 10.1333 466.37 10.1333ZM466.37 18.6C464.458 18.6 462.903 19.2 461.703 20.4C460.547 21.6 459.97 23.2889 459.97 25.4667C459.97 27.6444 460.547 29.3556 461.703 30.6C462.903 31.8 464.458 32.4 466.37 32.4C468.281 32.4 469.836 31.8 471.036 30.6C472.236 29.3556 472.836 27.6444 472.836 25.4667C472.836 23.2889 472.236 21.6 471.036 20.4C469.836 19.2 468.281 18.6 466.37 18.6ZM498.303 52.2V61.2667H454.636V43.3333H464.436V52.2H498.303ZM526.629 25.2C524.007 26.6667 520.851 27.8222 517.163 28.6667C513.518 29.4667 509.651 29.9111 505.563 30V22.1333C509.074 22.0444 512.429 21.6222 515.629 20.8667C518.829 20.0667 521.163 19.0444 522.629 17.8H506.096V10.0667H549.829V17.8H533.429C533.385 18.0667 533.229 18.4667 532.963 19L551.029 22.6667L548.896 30.2L526.629 25.2ZM552.563 39.8H503.296V32H552.563V39.8ZM527.962 41.8667C542.763 41.8667 550.163 45.2 550.163 51.8667C550.163 58.5333 542.763 61.8667 527.962 61.8667C513.118 61.8667 505.696 58.5333 505.696 51.8667C505.696 45.2 513.118 41.8667 527.962 41.8667ZM527.962 54.3333C535.918 54.3333 539.896 53.5111 539.896 51.8667C539.896 50.2222 535.918 49.4 527.962 49.4C519.963 49.4 515.963 50.2222 515.963 51.8667C515.963 53.5111 519.963 54.3333 527.962 54.3333ZM556.289 23.1333V14.4667H567.889V9.66667H577.822V14.4667H589.555V23.1333H556.289ZM603.289 61.2667H593.689V10.0667H603.289V61.2667ZM577.689 49.9333C583.644 49.9333 588.044 49.2667 590.889 47.9333V56.8667C589.422 57.5333 587.555 58.0444 585.289 58.4C583.067 58.7111 580.689 58.8667 578.155 58.8667H556.089V49.9333H568.089V45.6C565.022 44.9778 562.6 43.8 560.822 42.0667C559.044 40.3333 558.155 38.1111 558.155 35.4C558.155 31.9778 559.511 29.3333 562.222 27.4667C564.978 25.6 568.578 24.6667 573.022 24.6667C577.422 24.6667 580.978 25.6 583.689 27.4667C586.444 29.3333 587.822 31.9778 587.822 35.4C587.822 38.1111 586.911 40.3556 585.089 42.1333C583.311 43.8667 580.844 45.0222 577.689 45.6V49.9333ZM567.155 35.4C567.155 36.2889 567.689 36.9556 568.755 37.4C569.822 37.8444 571.244 38.0667 573.022 38.0667C574.8 38.0667 576.2 37.8444 577.222 37.4C578.289 36.9556 578.822 36.2889 578.822 35.4C578.822 34.5111 578.289 33.8444 577.222 33.4C576.155 32.9111 574.755 32.6667 573.022 32.6667C571.244 32.6667 569.822 32.9111 568.755 33.4C567.689 33.8444 567.155 34.5111 567.155 35.4ZM654.615 38.6V61.2667H645.015V10.0667H654.615V28.8H660.348V38.6H654.615ZM631.748 11.4C631.748 19 631.126 25.9111 629.882 32.1333L644.015 53L636.082 58.8L626.415 43.8667C624.415 48.6667 621.904 52.3556 618.882 54.9333C615.904 57.5111 612.571 58.8222 608.882 58.8667V48.4667C611.46 48.1556 613.726 46.3778 615.682 43.1333C617.637 39.8889 619.171 35.5111 620.282 30C621.393 24.4444 621.948 18.1333 621.948 11.0667L631.748 11.4Z" fill="#01A69F"/>
<g clip-path="url(#clip0_166_8316)">
<path d="M310.885 183.635H349.445C375.099 183.635 385.298 173.698 385.298 159.611C385.298 145.524 375.116 135.412 349.462 135.412H310.902C285.404 135.412 275.205 145.35 275.205 159.593C275.205 173.837 285.404 183.618 310.902 183.618L310.885 183.635ZM310.087 151.434H350.416C361.101 151.434 363.963 155.27 363.963 159.611C363.963 163.952 361.101 167.944 350.416 167.944H310.087C299.09 167.944 296.384 163.934 296.384 159.611C296.384 155.287 299.09 151.434 310.087 151.434Z" fill="#01A69F"/>
<path d="M519 145.995C519 140.333 514.434 135.744 508.801 135.744C503.168 135.744 498.602 140.333 498.602 145.995V206.073C498.602 211.735 503.168 216.324 508.801 216.324C514.434 216.324 519 211.735 519 206.073V145.995Z" fill="#01A69F"/>
<path d="M410.155 209.106C413.659 212.785 416.365 214.075 422.106 214.075H471.837C476.589 214.075 480.44 210.205 480.44 205.428V205.271C480.44 200.494 476.589 196.624 471.837 196.624H427.535C426.738 196.624 426.096 196.31 425.298 195.665L423.546 194.061C422.904 193.102 422.748 192.3 422.748 191.341V183.653H460.042C467.847 183.653 472.947 178.213 472.947 170.193V143.101C472.947 139.997 470.449 137.487 467.361 137.487H411.265C406.512 137.487 402.662 141.357 402.662 146.134C402.662 150.911 406.512 154.782 411.265 154.782H452.86V164.719C452.86 166.131 451.716 167.282 450.311 167.282H408.23C404.24 167.282 402.332 169.2 402.332 172.896V193.241C402.332 199.483 403.13 201.732 406.478 205.253L410.138 209.106H410.155Z" fill="#01A69F"/>
<path d="M503.944 221.049H429.513C422.193 221.049 416.226 227.046 416.226 234.403V249.013C416.226 253.686 420.007 257.486 424.656 257.486C429.305 257.486 433.086 253.686 433.086 249.013V237.995H500.353V262.054H301.865C299.471 262.054 296.835 259.352 295.603 256.144H370.711C379.436 256.144 384.258 246.677 384.258 240.122V229.208C384.258 221.694 378.187 215.592 370.711 215.592H340.043V206.369H382.766C387.172 206.369 390.728 202.778 390.728 198.367C390.728 193.956 387.154 190.365 382.766 190.365H276.141C271.735 190.365 268.18 193.956 268.18 198.367C268.18 202.778 271.753 206.369 276.141 206.369H319.488V215.592H260.756C257.928 215.592 255.621 213.273 255.621 210.431V142.473C255.621 137.801 251.84 134 247.191 134C242.542 134 238.761 137.801 238.761 142.473V190.853H212.656C212.343 190.853 212.048 190.905 211.754 190.94V175.929C211.754 151.591 199.646 135.412 176.056 135.412C152.466 135.412 141 151.591 141 175.947V222.722C141 246.904 152.639 262.926 176.056 262.926C199.473 262.926 211.754 246.904 211.754 222.722V207.712C212.048 207.747 212.343 207.799 212.656 207.799H238.761V210.431C238.761 222.618 248.631 232.538 260.756 232.538H367.398V239.198H291.301C283.982 239.198 278.015 245.195 278.015 252.552C278.015 265.053 287.815 279 301.865 279H503.926C511.246 279 517.213 273.003 517.213 265.645V234.403C517.213 227.046 511.246 221.049 503.926 221.049H503.944ZM191.199 222.722C191.199 238.413 185.145 245.143 176.056 245.143C166.967 245.143 161.243 238.413 161.243 222.722V175.947C161.243 160.256 167.452 153.526 176.056 153.526C185.145 153.526 191.199 160.256 191.199 175.947V222.722Z" fill="#01A69F"/>
</g>
<defs>
<clipPath id="clip0_166_8316">
<rect width="378" height="145" fill="white" transform="translate(141 134)"/>
</clipPath>
</defs>
</svg>
