<svg width="988" height="155" viewBox="0 0 988 155" fill="none" xmlns="http://www.w3.org/2000/svg">
<path d="M422.351 65.8333H410.351V37.8333H402.268C401.768 46.5 399.879 52.9722 396.601 57.25C393.323 61.4722 388.99 63.5833 383.601 63.5833C377.712 63.5833 373.073 61.0556 369.684 56C366.351 50.9444 364.684 43.3056 364.684 33.0833C364.684 22.8611 366.351 15.2222 369.684 10.1667C373.073 5.11111 377.712 2.58333 383.601 2.58333C388.768 2.58333 392.962 4.52778 396.184 8.41667C399.406 12.25 401.406 18.1111 402.184 26H410.351V1.83333H422.351V65.8333ZM383.601 52C388.212 52 390.518 45.6944 390.518 33.0833C390.518 20.4722 388.212 14.1667 383.601 14.1667C378.934 14.1667 376.601 20.4722 376.601 33.0833C376.601 45.6944 378.934 52 383.601 52ZM460.009 25.25C451.453 25.25 444.703 24.2778 439.759 22.3333C434.814 20.3333 432.342 17.2222 432.342 13C432.342 8.77778 434.814 5.69444 439.759 3.75C444.703 1.75 451.453 0.749997 460.009 0.749997C468.564 0.749997 475.287 1.75 480.175 3.75C485.12 5.69444 487.592 8.77778 487.592 13C487.592 17.2222 485.12 20.3333 480.175 22.3333C475.287 24.2778 468.564 25.25 460.009 25.25ZM460.009 9.75C455.453 9.75 451.814 10.0556 449.092 10.6667C446.425 11.2222 445.092 12 445.092 13C445.092 14.0556 446.425 14.8611 449.092 15.4167C451.759 15.9722 455.398 16.25 460.009 16.25C464.62 16.25 468.231 15.9722 470.842 15.4167C473.509 14.8611 474.842 14.0556 474.842 13C474.842 11.9444 473.509 11.1389 470.842 10.5833C468.175 10.0278 464.564 9.75 460.009 9.75ZM466.009 38.75H487.259V55.5833H444.675V57.8333H487.842V65.8333H432.842V48.9167H475.425V46.6667H432.675V38.75H454.009V35.9167H429.175V26.75H490.759V35.9167H466.009V38.75ZM542 39.1667V1.83333H554.083V39.1667H542ZM509.167 24.75V28.4167H524.833C527.556 28.4167 530.167 28.2222 532.667 27.8333C535.167 27.4444 537.222 26.8889 538.833 26.1667V35.75C537.278 36.4722 535.25 37.0278 532.75 37.4167C530.25 37.8056 527.556 38 524.667 38H497.167V15.8333H522.25V12.1667H497.083V2.58333H534.167V24.75H509.167ZM499.667 65.8333V41.4167H554.083V65.8333H499.667ZM542.083 51.3333H511.583V56H542.083V51.3333ZM591.991 0.749997C600.38 0.749997 607.13 2 612.241 4.5C617.352 7 619.908 10.6667 619.908 15.5C619.908 20.2778 617.352 23.9167 612.241 26.4167C607.13 28.9167 600.38 30.1667 591.991 30.1667C583.602 30.1667 576.852 28.9167 571.741 26.4167C566.63 23.9167 564.075 20.2778 564.075 15.5C564.075 10.6667 566.63 7 571.741 4.5C576.852 2 583.602 0.749997 591.991 0.749997ZM591.991 10.5833C587.38 10.5833 583.686 11.0278 580.908 11.9167C578.186 12.8056 576.825 14 576.825 15.5C576.825 17 578.186 18.1944 580.908 19.0833C583.686 19.9167 587.38 20.3333 591.991 20.3333C596.602 20.3333 600.269 19.9167 602.991 19.0833C605.713 18.1944 607.075 17 607.075 15.5C607.075 14 605.713 12.8056 602.991 11.9167C600.269 11.0278 596.602 10.5833 591.991 10.5833ZM561.158 43.5833V33.1667H622.741V43.5833H561.158ZM619.908 55.25V65.8333H564.741V46.9167H576.991V55.25H619.908ZM44.4292 153.833V89.8333H56.5125V153.833H44.4292ZM35.0959 108.667C35.0959 117.222 33.6514 124.694 30.7625 131.083C27.8736 137.417 23.7903 142.306 18.5125 145.75C13.2348 149.139 7.06809 150.833 0.0125326 150.833V138.833C7.29031 138.778 12.8736 136.083 16.7625 130.75C20.707 125.417 22.6792 118.056 22.6792 108.667V102.833H0.0125326V91.3333H35.0959V108.667ZM122.754 123H110.754V112.167H101.42C100.198 115.5 97.9482 118.139 94.6704 120.083C91.4482 121.972 87.5315 122.917 82.9204 122.917C79.0871 122.917 75.6704 122.25 72.6704 120.917C69.726 119.528 67.4204 117.583 65.7537 115.083C64.1426 112.583 63.3371 109.694 63.3371 106.417C63.3371 103.139 64.1426 100.25 65.7537 97.75C67.4204 95.25 69.726 93.3333 72.6704 92C75.6704 90.6111 79.0871 89.9167 82.9204 89.9167C87.476 89.9167 91.3649 90.8333 94.5871 92.6667C97.8093 94.5 100.059 97.0556 101.337 100.333H110.754V89.8333H122.754V123ZM82.9204 112.667C85.2537 112.667 87.0871 112.111 88.4204 111C89.7537 109.889 90.4204 108.361 90.4204 106.417C90.4204 104.472 89.7537 102.944 88.4204 101.833C87.0871 100.667 85.2537 100.083 82.9204 100.083C80.6426 100.083 78.8093 100.667 77.4204 101.833C76.0871 102.944 75.4204 104.472 75.4204 106.417C75.4204 108.306 76.0871 109.833 77.4204 111C78.8093 112.111 80.6426 112.667 82.9204 112.667ZM122.754 125.25V153.833H69.0871V125.25H80.8371V129.417H110.92V125.25H122.754ZM110.92 139.25H80.8371V143.833H110.92V139.25ZM176.412 153.833V89.8333H188.495V153.833H176.412ZM150.578 90.5833C156.523 90.5833 161.189 93.1111 164.578 98.1667C167.967 103.222 169.662 110.861 169.662 121.083C169.662 131.306 167.967 138.944 164.578 144C161.189 149.056 156.523 151.583 150.578 151.583C144.578 151.583 139.884 149.056 136.495 144C133.106 138.944 131.412 131.306 131.412 121.083C131.412 110.861 133.106 103.222 136.495 98.1667C139.884 93.1111 144.578 90.5833 150.578 90.5833ZM150.578 102.167C145.745 102.167 143.328 108.472 143.328 121.083C143.328 133.694 145.745 140 150.578 140C155.412 140 157.828 133.694 157.828 121.083C157.828 114.361 157.162 109.528 155.828 106.583C154.551 103.639 152.801 102.167 150.578 102.167ZM258.882 121.917V89.8333H270.966V121.917H258.882ZM256.132 118.333C254.577 119 252.355 119.556 249.466 120C246.577 120.389 243.632 120.583 240.632 120.583H212.799V111H218.549V100.25H213.299V90.5833H254.216V100.25H248.799V110.583C251.632 110.25 254.077 109.667 256.132 108.833V118.333ZM237.466 111V100.25H229.882V111H233.216H237.466ZM271.632 153.833H216.549V135.25H259.049V132.75H216.466V124.167H270.966V142.75H228.466V145.25H271.632V153.833ZM339.624 151.583H278.04V140H289.957V126.083C286.901 124.25 284.54 122 282.874 119.333C281.262 116.611 280.457 113.583 280.457 110.25C280.457 106.306 281.624 102.806 283.957 99.75C286.346 96.6389 289.679 94.2222 293.957 92.5C298.29 90.7778 303.262 89.9167 308.874 89.9167C314.485 89.9167 319.429 90.7778 323.707 92.5C328.04 94.2222 331.374 96.6389 333.707 99.75C336.096 102.806 337.29 106.306 337.29 110.25C337.29 113.583 336.457 116.611 334.79 119.333C333.124 122 330.762 124.25 327.707 126.083V140H339.624V151.583ZM308.874 101.25C304.262 101.25 300.485 102.083 297.54 103.75C294.651 105.417 293.207 107.583 293.207 110.25C293.207 112.917 294.651 115.083 297.54 116.75C300.485 118.417 304.262 119.25 308.874 119.25C313.485 119.25 317.235 118.417 320.124 116.75C323.068 115.083 324.54 112.917 324.54 110.25C324.54 107.583 323.068 105.417 320.124 103.75C317.235 102.083 313.485 101.25 308.874 101.25ZM315.707 140V130.167C313.929 130.444 311.651 130.583 308.874 130.583C306.151 130.583 303.874 130.444 302.04 130.167V140H315.707ZM343.531 104.083V94.1667H358.115V88.6667H370.448V94.1667H385.115V104.083H343.531ZM408.365 117H401.198V137.583H389.198V89.8333H401.198V104.667H408.365V117ZM364.365 132.25C359.031 132.25 354.559 131.111 350.948 128.833C347.393 126.5 345.615 123.25 345.615 119.083C345.615 114.861 347.393 111.611 350.948 109.333C354.559 107 359.031 105.833 364.365 105.833C369.698 105.833 374.143 107 377.698 109.333C381.254 111.667 383.031 114.917 383.031 119.083C383.031 123.25 381.254 126.5 377.698 128.833C374.143 131.111 369.698 132.25 364.365 132.25ZM364.365 115C362.198 115 360.448 115.389 359.115 116.167C357.781 116.944 357.115 117.917 357.115 119.083C357.115 120.25 357.781 121.222 359.115 122C360.448 122.722 362.198 123.083 364.365 123.083C366.476 123.083 368.198 122.722 369.531 122C370.865 121.222 371.531 120.25 371.531 119.083C371.531 117.917 370.865 116.944 369.531 116.167C368.198 115.389 366.476 115 364.365 115ZM402.115 142.833V153.833H347.448V134.167H359.698V142.833H402.115ZM430.252 112.333V89.8333H484.419V112.333H430.252ZM442.085 98.9167V103.25H472.502V98.9167H442.085ZM463.335 126.75H484.585V143.583H442.002V145.833H485.169V153.833H430.169V136.917H472.752V134.667H430.002V126.75H451.335V123.917H426.502V114.75H488.085V123.917H463.335V126.75ZM495.66 115.5V106H504.993V99.3333H496.327V89.8333H550.327V99.3333H541.577V106H550.91V115.5H495.66ZM529.66 106V99.3333H516.993V106H529.66ZM529.327 131.417H550.577V153.833H496.077V131.417H517.327V128.083H492.493V118.5H554.077V128.083H529.327V131.417ZM507.993 140.75V144.583H538.577V140.75H507.993ZM622.818 114.833H615.651V137.25H603.651V89.8333H615.651V102.583H622.818V114.833ZM559.818 127V90.5833H596.985V127H559.818ZM571.818 101.25V116.25H585.151V101.25H571.818ZM616.568 142.5V153.833H561.901V131.417H574.151V142.5H616.568ZM673.705 125V90.0833H684.872V99.8333H690.289V89.8333H701.539V127.083H690.289V111.417H684.872V125H673.705ZM657.955 114.667C655.955 118.222 653.455 121 650.455 123C647.511 125 644.289 126.028 640.789 126.083V114.75C642.9 114.417 644.789 113.25 646.455 111.25C648.177 109.194 649.511 106.389 650.455 102.833C651.455 99.2222 651.955 95.0556 651.955 90.3333L663.372 90.75C663.372 94.9722 662.955 99.2222 662.122 103.5L675.205 116.333L667.539 124.333L657.955 114.667ZM673.539 127.167C682.205 127.167 689.122 128.278 694.289 130.5C699.511 132.667 702.122 136.139 702.122 140.917C702.122 145.694 699.511 149.167 694.289 151.333C689.122 153.5 682.205 154.583 673.539 154.583C664.927 154.583 658.011 153.5 652.789 151.333C647.622 149.167 645.039 145.694 645.039 140.917C645.039 136.139 647.622 132.667 652.789 130.5C657.955 128.278 664.872 127.167 673.539 127.167ZM673.539 144.667C678.261 144.667 682.066 144.389 684.955 143.833C687.844 143.222 689.289 142.25 689.289 140.917C689.289 139.583 687.844 138.639 684.955 138.083C682.066 137.472 678.261 137.167 673.539 137.167C668.816 137.167 665.011 137.472 662.122 138.083C659.289 138.639 657.872 139.583 657.872 140.917C657.872 142.25 659.289 143.222 662.122 143.833C665.011 144.389 668.816 144.667 673.539 144.667ZM771.28 114.167H764.113V137.25H752.113V89.8333H764.113V101.917H771.28V114.167ZM728.196 115.25C725.585 119.194 722.446 122.333 718.78 124.667C715.169 127 711.224 128.278 706.946 128.5V116.75C710.113 116.361 712.891 114.944 715.28 112.5C717.724 110.056 719.613 106.889 720.946 103C722.335 99.1111 723.058 94.8056 723.113 90.0833L735.196 90.8333C735.196 96.0556 734.474 100.833 733.03 105.167L750.28 118.75L743.113 127.583L728.196 115.25ZM765.03 142.5V153.833H710.363V131.417H722.613V142.5H765.03ZM772.438 102.75V93.5833H787.021V88.6667H799.354V93.5833H814.021V102.75H772.438ZM830.104 112.5V126H818.104V89.8333H830.104V100.667H837.271V112.5H830.104ZM793.271 127.083C787.993 127.083 783.577 126.083 780.021 124.083C776.465 122.083 774.688 119.278 774.688 115.667C774.688 112.056 776.465 109.25 780.021 107.25C783.577 105.25 787.993 104.25 793.271 104.25C798.549 104.25 802.938 105.25 806.438 107.25C809.938 109.25 811.688 112.056 811.688 115.667C811.688 119.278 809.938 122.083 806.438 124.083C802.938 126.083 798.549 127.083 793.271 127.083ZM793.271 112.917C791.049 112.917 789.271 113.167 787.938 113.667C786.66 114.111 786.021 114.778 786.021 115.667C786.021 116.556 786.66 117.25 787.938 117.75C789.271 118.25 791.049 118.5 793.271 118.5C795.493 118.5 797.243 118.25 798.521 117.75C799.799 117.25 800.438 116.556 800.438 115.667C800.438 114.778 799.799 114.111 798.521 113.667C797.243 113.167 795.493 112.917 793.271 112.917ZM830.104 128.25V153.833H776.354V128.25H788.104V131.917H818.438V128.25H830.104ZM818.438 140.833H788.104V144.417H818.438V140.833ZM885.762 153.833V89.8333H897.846V153.833H885.762ZM866.846 139.333C869.679 139.333 872.54 139.056 875.429 138.5C878.318 137.944 880.707 137.194 882.596 136.25V147.75C880.762 148.75 878.429 149.528 875.596 150.083C872.762 150.583 869.846 150.833 866.846 150.833H841.679V90.9167H854.096V139.333H866.846ZM962.087 125.5V153.833H950.087V89.8333H962.087V113.25H969.253V125.5H962.087ZM931.503 139.417C934.448 139.417 937.337 139.167 940.17 138.667C943.059 138.111 945.42 137.389 947.253 136.5V147.833C945.476 148.778 943.031 149.528 939.92 150.083C936.809 150.583 933.698 150.833 930.587 150.833H907.003V91.3333H942.503V102.75H919.253V139.417H931.503ZM979.661 151.667C977.384 151.667 975.467 150.889 973.911 149.333C972.356 147.778 971.578 145.833 971.578 143.5C971.578 141.111 972.356 139.194 973.911 137.75C975.467 136.25 977.384 135.5 979.661 135.5C981.939 135.5 983.856 136.25 985.411 137.75C986.967 139.194 987.745 141.111 987.745 143.5C987.745 145.833 986.967 147.778 985.411 149.333C983.856 150.889 981.939 151.667 979.661 151.667Z" fill="#333333"/>
</svg>
