<svg width="1063" height="162" viewBox="0 0 1063 162" fill="none" xmlns="http://www.w3.org/2000/svg">
<g filter="url(#filter0_d_65_9180)">
<path d="M459.101 64.8333H451.601V34.5833H440.184C439.906 43.5833 438.129 50.3889 434.851 55C431.629 59.6111 427.351 61.9167 422.018 61.9167C416.462 61.9167 412.045 59.4167 408.768 54.4167C405.49 49.4167 403.851 41.9722 403.851 32.0833C403.851 22.1944 405.49 14.75 408.768 9.75C412.045 4.75 416.462 2.25 422.018 2.25C427.129 2.25 431.268 4.33333 434.434 8.5C437.656 12.6667 439.545 18.8889 440.101 27.1667H451.601V0.833332H459.101V64.8333ZM422.018 54.6667C425.295 54.6667 427.906 52.8333 429.851 49.1667C431.795 45.4444 432.768 39.75 432.768 32.0833C432.768 24.4167 431.795 18.75 429.851 15.0833C427.906 11.3611 425.295 9.5 422.018 9.5C418.795 9.5 416.212 11.3611 414.268 15.0833C412.323 18.75 411.351 24.4167 411.351 32.0833C411.351 39.75 412.323 45.4444 414.268 49.1667C416.212 52.8333 418.795 54.6667 422.018 54.6667ZM498.009 23.9167C489.953 23.9167 483.453 22.9722 478.509 21.0833C473.62 19.1944 471.175 16.2222 471.175 12.1667C471.175 8.16666 473.62 5.22222 478.509 3.33333C483.453 1.44444 489.953 0.500001 498.009 0.500001C506.009 0.500001 512.453 1.44444 517.342 3.33333C522.287 5.22222 524.759 8.16666 524.759 12.1667C524.759 16.2222 522.314 19.1944 517.425 21.0833C512.537 22.9722 506.064 23.9167 498.009 23.9167ZM498.009 6.41667C492.453 6.41667 487.898 6.91667 484.342 7.91667C480.842 8.86111 479.092 10.2778 479.092 12.1667C479.092 14.1111 480.842 15.5556 484.342 16.5C487.842 17.4444 492.398 17.9167 498.009 17.9167C503.62 17.9167 508.175 17.4444 511.675 16.5C515.175 15.5556 516.925 14.1111 516.925 12.1667C516.925 10.2778 515.148 8.86111 511.592 7.91667C508.092 6.91667 503.564 6.41667 498.009 6.41667ZM501.759 38.75H524.342V53.75H479.175V58.6667H525.342V64.0833H471.759V49H516.925V44.1667H471.592V38.75H494.259V33.25H467.592V27.25H528.425V33.25H501.759V38.75ZM583.083 38.25V0.833332H590.667V38.25H583.083ZM543.833 22.0833V29.8333H559.75C563.806 29.8333 567.472 29.5833 570.75 29.0833C574.028 28.5833 576.583 27.8889 578.417 27V33.25C576.583 34.1389 574.028 34.8333 570.75 35.3333C567.472 35.8333 563.722 36.0833 559.5 36.0833H536.333V16.25H564.917V8.5H536.167V2.33333H572.333V22.0833H543.833ZM538.75 64.0833V41.6667H590.667V64.0833H538.75ZM583.167 48.0833H546.167V57.6667H583.167V48.0833ZM629.991 0.333333C637.825 0.333333 644.297 1.55555 649.408 4C654.519 6.38889 657.075 9.86111 657.075 14.4167C657.075 18.9722 654.519 22.4722 649.408 24.9167C644.297 27.3056 637.825 28.5 629.991 28.5C622.158 28.5 615.686 27.3056 610.575 24.9167C605.463 22.4722 602.908 18.9722 602.908 14.4167C602.908 9.86111 605.463 6.38889 610.575 4C615.686 1.55555 622.158 0.333333 629.991 0.333333ZM629.991 6.66667C624.547 6.66667 619.991 7.36111 616.325 8.75C612.658 10.1389 610.825 12.0278 610.825 14.4167C610.825 16.8056 612.658 18.6944 616.325 20.0833C619.991 21.4167 624.547 22.0833 629.991 22.0833C635.436 22.0833 639.963 21.4167 643.575 20.0833C647.241 18.6944 649.075 16.8056 649.075 14.4167C649.075 12.0278 647.241 10.1389 643.575 8.75C639.963 7.36111 635.436 6.66667 629.991 6.66667ZM599.575 40.5833V33.9167H660.408V40.5833H599.575ZM657.325 57.3333V64.0833H603.741V45.8333H611.408V57.3333H657.325Z" fill="#333333"/>
<path d="M59.7669 124.5V152.833H47.7669V88.8333H59.7669V112.25H66.9336V124.5H59.7669ZM29.1836 138.417C32.128 138.417 35.0169 138.167 37.8503 137.667C40.7392 137.111 43.1003 136.389 44.9336 135.5V146.833C43.1558 147.778 40.7114 148.528 37.6003 149.083C34.4892 149.583 31.378 149.833 28.2669 149.833H4.68359V90.3333H40.1836V101.75H16.9336V138.417H29.1836ZM125.758 107.75H132.925V118.333H125.758V124.083H113.758V88.8333H125.758V92.75H132.925V103.333H125.758V107.75ZM87.5915 122.667C83.7581 122.667 80.3415 121.972 77.3415 120.583C74.397 119.194 72.1192 117.222 70.5081 114.667C68.897 112.111 68.0915 109.139 68.0915 105.75C68.0915 102.417 68.897 99.4722 70.5081 96.9167C72.1748 94.3611 74.4804 92.3889 77.4248 91C80.3692 89.6111 83.7581 88.9167 87.5915 88.9167C91.4248 88.9167 94.8137 89.6111 97.7581 91C100.703 92.3889 102.98 94.3611 104.591 96.9167C106.258 99.4722 107.091 102.417 107.091 105.75C107.091 109.139 106.286 112.111 104.675 114.667C103.064 117.222 100.758 119.194 97.7581 120.583C94.8137 121.972 91.4248 122.667 87.5915 122.667ZM87.5915 99.1667C85.2581 99.1667 83.397 99.7778 82.0081 101C80.6748 102.167 80.0081 103.75 80.0081 105.75C80.0081 107.806 80.6748 109.417 82.0081 110.583C83.397 111.75 85.2581 112.333 87.5915 112.333C89.9248 112.333 91.7581 111.75 93.0915 110.583C94.4804 109.417 95.1748 107.806 95.1748 105.75C95.1748 103.75 94.4804 102.167 93.0915 101C91.7026 99.7778 89.8692 99.1667 87.5915 99.1667ZM99.2581 125C107.48 125 114.036 126.139 118.925 128.417C123.869 130.639 126.341 134.25 126.341 139.25C126.341 144.25 123.869 147.889 118.925 150.167C114.036 152.444 107.48 153.583 99.2581 153.583C91.0359 153.583 84.4526 152.444 79.5081 150.167C74.6192 147.889 72.1748 144.25 72.1748 139.25C72.1748 134.25 74.6192 130.639 79.5081 128.417C84.4526 126.139 91.0359 125 99.2581 125ZM99.2581 143.5C103.48 143.5 106.869 143.167 109.425 142.5C112.036 141.778 113.341 140.694 113.341 139.25C113.341 137.806 112.036 136.75 109.425 136.083C106.869 135.417 103.48 135.083 99.2581 135.083C95.0359 135.083 91.6193 135.417 89.0081 136.083C86.4526 136.75 85.1748 137.806 85.1748 139.25C85.1748 140.694 86.4526 141.778 89.0081 142.5C91.6193 143.167 95.0359 143.5 99.2581 143.5ZM134.083 103.083V93.1667H148.666V87.6667H160.999V93.1667H175.666V103.083H134.083ZM198.916 116H191.749V136.583H179.749V88.8333H191.749V103.667H198.916V116ZM154.916 131.25C149.583 131.25 145.11 130.111 141.499 127.833C137.944 125.5 136.166 122.25 136.166 118.083C136.166 113.861 137.944 110.611 141.499 108.333C145.11 106 149.583 104.833 154.916 104.833C160.249 104.833 164.694 106 168.249 108.333C171.805 110.667 173.583 113.917 173.583 118.083C173.583 122.25 171.805 125.5 168.249 127.833C164.694 130.111 160.249 131.25 154.916 131.25ZM154.916 114C152.749 114 150.999 114.389 149.666 115.167C148.333 115.944 147.666 116.917 147.666 118.083C147.666 119.25 148.333 120.222 149.666 121C150.999 121.722 152.749 122.083 154.916 122.083C157.027 122.083 158.749 121.722 160.083 121C161.416 120.222 162.083 119.25 162.083 118.083C162.083 116.917 161.416 115.944 160.083 115.167C158.749 114.389 157.027 114 154.916 114ZM192.666 141.833V152.833H137.999V133.167H150.249V141.833H192.666ZM247.47 112.833C243.914 117.778 239.581 121.667 234.47 124.5C229.414 127.278 224.026 128.667 218.303 128.667V116.667C222.303 116.667 226.137 115.5 229.803 113.167C233.47 110.778 236.553 107.472 239.053 103.25C241.553 98.9722 243.164 94.0833 243.887 88.5833L256.137 90.5833C255.526 95.1944 254.47 99.2778 252.97 102.833L278.637 118.583L272.387 128.917L247.47 112.833ZM278.637 138.75V150.583H217.053V138.75H241.803V124.583H253.97V138.75H278.637ZM344.628 150.583H283.045V138.75H307.795V128.417H286.378V90.3333H341.295V128.417H319.961V138.75H344.628V150.583ZM329.295 116.667V102.167H298.461V116.667H329.295ZM352.202 114.5V105H361.536V98.3333H352.869V88.8333H406.869V98.3333H398.119V105H407.452V114.5H352.202ZM386.202 105V98.3333H373.536V105H386.202ZM385.869 130.417H407.119V152.833H352.619V130.417H373.869V127.083H349.036V117.5H410.619V127.083H385.869V130.417ZM364.536 139.75V143.583H395.119V139.75H364.536ZM461.86 152.833V88.8333H473.944V152.833H461.86ZM436.027 89.5833C441.971 89.5833 446.638 92.1111 450.027 97.1667C453.416 102.222 455.11 109.861 455.11 120.083C455.11 130.306 453.416 137.944 450.027 143C446.638 148.056 441.971 150.583 436.027 150.583C430.027 150.583 425.333 148.056 421.944 143C418.555 137.944 416.86 130.306 416.86 120.083C416.86 109.861 418.555 102.222 421.944 97.1667C425.333 92.1111 430.027 89.5833 436.027 89.5833ZM436.027 101.167C431.194 101.167 428.777 107.472 428.777 120.083C428.777 132.694 431.194 139 436.027 139C440.86 139 443.277 132.694 443.277 120.083C443.277 113.361 442.61 108.528 441.277 105.583C439.999 102.639 438.249 101.167 436.027 101.167ZM526.831 109.583C523.498 111.861 519.526 113.639 514.914 114.917C510.303 116.139 505.442 116.806 500.331 116.917V106.583C504.998 106.472 509.359 105.778 513.414 104.5C517.526 103.167 520.414 101.361 522.081 99.0833H500.998V88.8333H555.664V99.0833H534.998L534.164 101.25L557.331 107.333L554.248 117.25L526.831 109.583ZM559.081 130.167H534.331V138.833H522.248V130.167H497.498V119.75H559.081V130.167ZM556.248 142.333V152.833H501.081V133.917H513.331V142.333H556.248ZM622.322 152.833H610.322V88.8333H622.322V152.833ZM602.322 90.3333V149.833H566.239V90.3333H578.072V109.167H590.406V90.3333H602.322ZM590.406 120.667H578.072V138.25H590.406V120.667ZM688.48 152.833H676.48V88.8333H688.48V152.833ZM657.23 138C660.23 138 663.147 137.806 665.98 137.417C668.813 136.972 671.147 136.333 672.98 135.5V147.333C671.147 148.167 668.813 148.806 665.98 149.25C663.202 149.639 660.23 149.833 657.063 149.833H629.48V138H644.48V127.25H632.313V90.6667H668.48V102.333H644.23V115.667H669.147V127.25H656.397V138H657.23ZM754.638 152.833H742.638V124.833H734.555C734.055 133.5 732.166 139.972 728.888 144.25C725.61 148.472 721.277 150.583 715.888 150.583C709.999 150.583 705.36 148.056 701.971 143C698.638 137.944 696.971 130.306 696.971 120.083C696.971 109.861 698.638 102.222 701.971 97.1667C705.36 92.1111 709.999 89.5833 715.888 89.5833C721.055 89.5833 725.249 91.5278 728.471 95.4167C731.694 99.25 733.694 105.111 734.471 113H742.638V88.8333H754.638V152.833ZM715.888 139C720.499 139 722.805 132.694 722.805 120.083C722.805 107.472 720.499 101.167 715.888 101.167C711.221 101.167 708.888 107.472 708.888 120.083C708.888 132.694 711.221 139 715.888 139ZM824.775 124.25V88.8333H836.859V124.25H824.775ZM817.609 106.167C817.609 109.611 816.775 112.639 815.109 115.25C813.498 117.861 811.192 119.889 808.192 121.333C805.192 122.722 801.748 123.417 797.859 123.417C793.97 123.417 790.525 122.722 787.525 121.333C784.525 119.889 782.192 117.861 780.525 115.25C778.859 112.639 778.025 109.611 778.025 106.167C778.025 102.722 778.859 99.6944 780.525 97.0833C782.192 94.4722 784.525 92.4722 787.525 91.0833C790.525 89.6389 793.97 88.9167 797.859 88.9167C801.748 88.9167 805.192 89.6389 808.192 91.0833C811.192 92.4722 813.498 94.4722 815.109 97.0833C816.775 99.6944 817.609 102.722 817.609 106.167ZM790.025 106.167C790.025 108.222 790.748 109.889 792.192 111.167C793.637 112.389 795.525 113 797.859 113C800.248 113 802.137 112.389 803.525 111.167C804.97 109.889 805.692 108.222 805.692 106.167C805.692 104.056 804.97 102.389 803.525 101.167C802.137 99.8889 800.248 99.25 797.859 99.25C795.525 99.25 793.637 99.8889 792.192 101.167C790.748 102.389 790.025 104.056 790.025 106.167ZM824.192 145.083C822.081 147.583 819.609 149.5 816.775 150.833C813.942 152.167 810.942 152.833 807.775 152.833L798.525 145.167C796.359 147.611 793.887 149.5 791.109 150.833C788.331 152.167 785.442 152.833 782.442 152.833V141.417C784.331 141.417 786.109 140.75 787.775 139.417C789.498 138.083 790.914 136.25 792.025 133.917C793.137 131.583 793.831 129.028 794.109 126.25L805.775 128.25C805.442 130.917 804.831 133.528 803.942 136.083L810.525 140.833C812.859 140.056 814.859 138.333 816.525 135.667C818.192 132.944 819.22 129.806 819.609 126.25L831.192 128.25C830.859 130.972 830.275 133.556 829.442 136L841.109 144.5L834.359 153.5L824.192 145.083ZM874.517 102.833C871.017 105.833 866.767 108.194 861.767 109.917C856.767 111.583 851.433 112.472 845.767 112.583V102.5C849.711 102.333 853.489 101.611 857.1 100.333C860.711 99 863.739 97.1944 866.183 94.9167C868.628 92.6389 870.155 90 870.767 87L882.933 89.1667C882.544 91.1111 881.878 93.0278 880.933 94.9167L904.683 103.25L900.767 112.667L874.517 102.833ZM905.517 124.75H843.933V115.083H905.517V124.75ZM902.017 127.75V152.833H847.517V127.75H859.35V131.083H890.183V127.75H902.017ZM890.183 140.083H859.35V143.75H890.183V140.083ZM956.758 152.833V88.8333H968.841V152.833H956.758ZM937.841 138.333C940.674 138.333 943.536 138.056 946.424 137.5C949.313 136.944 951.702 136.194 953.591 135.25V146.75C951.758 147.75 949.424 148.528 946.591 149.083C943.758 149.583 940.841 149.833 937.841 149.833H912.674V89.9167H925.091V138.333H937.841ZM1033.08 124.5V152.833H1021.08V88.8333H1033.08V112.25H1040.25V124.5H1033.08ZM1002.5 138.417C1005.44 138.417 1008.33 138.167 1011.17 137.667C1014.05 137.111 1016.42 136.389 1018.25 135.5V146.833C1016.47 147.778 1014.03 148.528 1010.92 149.083C1007.8 149.583 1004.69 149.833 1001.58 149.833H977.999V90.3333H1013.5V101.75H990.249V138.417H1002.5ZM1050.66 150.667C1048.38 150.667 1046.46 149.889 1044.91 148.333C1043.35 146.778 1042.57 144.833 1042.57 142.5C1042.57 140.111 1043.35 138.194 1044.91 136.75C1046.46 135.25 1048.38 134.5 1050.66 134.5C1052.93 134.5 1054.85 135.25 1056.41 136.75C1057.96 138.194 1058.74 140.111 1058.74 142.5C1058.74 144.833 1057.96 146.778 1056.41 148.333C1054.85 149.889 1052.93 150.667 1050.66 150.667Z" fill="#333333"/>
<path d="M59.7669 124.5V152.833H47.7669V88.8333H59.7669V112.25H66.9336V124.5H59.7669ZM29.1836 138.417C32.128 138.417 35.0169 138.167 37.8503 137.667C40.7392 137.111 43.1003 136.389 44.9336 135.5V146.833C43.1558 147.778 40.7114 148.528 37.6003 149.083C34.4892 149.583 31.378 149.833 28.2669 149.833H4.68359V90.3333H40.1836V101.75H16.9336V138.417H29.1836ZM125.758 107.75H132.925V118.333H125.758V124.083H113.758V88.8333H125.758V92.75H132.925V103.333H125.758V107.75ZM87.5915 122.667C83.7581 122.667 80.3415 121.972 77.3415 120.583C74.397 119.194 72.1192 117.222 70.5081 114.667C68.897 112.111 68.0915 109.139 68.0915 105.75C68.0915 102.417 68.897 99.4722 70.5081 96.9167C72.1748 94.3611 74.4804 92.3889 77.4248 91C80.3692 89.6111 83.7581 88.9167 87.5915 88.9167C91.4248 88.9167 94.8137 89.6111 97.7581 91C100.703 92.3889 102.98 94.3611 104.591 96.9167C106.258 99.4722 107.091 102.417 107.091 105.75C107.091 109.139 106.286 112.111 104.675 114.667C103.064 117.222 100.758 119.194 97.7581 120.583C94.8137 121.972 91.4248 122.667 87.5915 122.667ZM87.5915 99.1667C85.2581 99.1667 83.397 99.7778 82.0081 101C80.6748 102.167 80.0081 103.75 80.0081 105.75C80.0081 107.806 80.6748 109.417 82.0081 110.583C83.397 111.75 85.2581 112.333 87.5915 112.333C89.9248 112.333 91.7581 111.75 93.0915 110.583C94.4804 109.417 95.1748 107.806 95.1748 105.75C95.1748 103.75 94.4804 102.167 93.0915 101C91.7026 99.7778 89.8692 99.1667 87.5915 99.1667ZM99.2581 125C107.48 125 114.036 126.139 118.925 128.417C123.869 130.639 126.341 134.25 126.341 139.25C126.341 144.25 123.869 147.889 118.925 150.167C114.036 152.444 107.48 153.583 99.2581 153.583C91.0359 153.583 84.4526 152.444 79.5081 150.167C74.6192 147.889 72.1748 144.25 72.1748 139.25C72.1748 134.25 74.6192 130.639 79.5081 128.417C84.4526 126.139 91.0359 125 99.2581 125ZM99.2581 143.5C103.48 143.5 106.869 143.167 109.425 142.5C112.036 141.778 113.341 140.694 113.341 139.25C113.341 137.806 112.036 136.75 109.425 136.083C106.869 135.417 103.48 135.083 99.2581 135.083C95.0359 135.083 91.6193 135.417 89.0081 136.083C86.4526 136.75 85.1748 137.806 85.1748 139.25C85.1748 140.694 86.4526 141.778 89.0081 142.5C91.6193 143.167 95.0359 143.5 99.2581 143.5ZM134.083 103.083V93.1667H148.666V87.6667H160.999V93.1667H175.666V103.083H134.083ZM198.916 116H191.749V136.583H179.749V88.8333H191.749V103.667H198.916V116ZM154.916 131.25C149.583 131.25 145.11 130.111 141.499 127.833C137.944 125.5 136.166 122.25 136.166 118.083C136.166 113.861 137.944 110.611 141.499 108.333C145.11 106 149.583 104.833 154.916 104.833C160.249 104.833 164.694 106 168.249 108.333C171.805 110.667 173.583 113.917 173.583 118.083C173.583 122.25 171.805 125.5 168.249 127.833C164.694 130.111 160.249 131.25 154.916 131.25ZM154.916 114C152.749 114 150.999 114.389 149.666 115.167C148.333 115.944 147.666 116.917 147.666 118.083C147.666 119.25 148.333 120.222 149.666 121C150.999 121.722 152.749 122.083 154.916 122.083C157.027 122.083 158.749 121.722 160.083 121C161.416 120.222 162.083 119.25 162.083 118.083C162.083 116.917 161.416 115.944 160.083 115.167C158.749 114.389 157.027 114 154.916 114ZM192.666 141.833V152.833H137.999V133.167H150.249V141.833H192.666ZM247.47 112.833C243.914 117.778 239.581 121.667 234.47 124.5C229.414 127.278 224.026 128.667 218.303 128.667V116.667C222.303 116.667 226.137 115.5 229.803 113.167C233.47 110.778 236.553 107.472 239.053 103.25C241.553 98.9722 243.164 94.0833 243.887 88.5833L256.137 90.5833C255.526 95.1944 254.47 99.2778 252.97 102.833L278.637 118.583L272.387 128.917L247.47 112.833ZM278.637 138.75V150.583H217.053V138.75H241.803V124.583H253.97V138.75H278.637ZM344.628 150.583H283.045V138.75H307.795V128.417H286.378V90.3333H341.295V128.417H319.961V138.75H344.628V150.583ZM329.295 116.667V102.167H298.461V116.667H329.295ZM352.202 114.5V105H361.536V98.3333H352.869V88.8333H406.869V98.3333H398.119V105H407.452V114.5H352.202ZM386.202 105V98.3333H373.536V105H386.202ZM385.869 130.417H407.119V152.833H352.619V130.417H373.869V127.083H349.036V117.5H410.619V127.083H385.869V130.417ZM364.536 139.75V143.583H395.119V139.75H364.536ZM461.86 152.833V88.8333H473.944V152.833H461.86ZM436.027 89.5833C441.971 89.5833 446.638 92.1111 450.027 97.1667C453.416 102.222 455.11 109.861 455.11 120.083C455.11 130.306 453.416 137.944 450.027 143C446.638 148.056 441.971 150.583 436.027 150.583C430.027 150.583 425.333 148.056 421.944 143C418.555 137.944 416.86 130.306 416.86 120.083C416.86 109.861 418.555 102.222 421.944 97.1667C425.333 92.1111 430.027 89.5833 436.027 89.5833ZM436.027 101.167C431.194 101.167 428.777 107.472 428.777 120.083C428.777 132.694 431.194 139 436.027 139C440.86 139 443.277 132.694 443.277 120.083C443.277 113.361 442.61 108.528 441.277 105.583C439.999 102.639 438.249 101.167 436.027 101.167ZM526.831 109.583C523.498 111.861 519.526 113.639 514.914 114.917C510.303 116.139 505.442 116.806 500.331 116.917V106.583C504.998 106.472 509.359 105.778 513.414 104.5C517.526 103.167 520.414 101.361 522.081 99.0833H500.998V88.8333H555.664V99.0833H534.998L534.164 101.25L557.331 107.333L554.248 117.25L526.831 109.583ZM559.081 130.167H534.331V138.833H522.248V130.167H497.498V119.75H559.081V130.167ZM556.248 142.333V152.833H501.081V133.917H513.331V142.333H556.248ZM622.322 152.833H610.322V88.8333H622.322V152.833ZM602.322 90.3333V149.833H566.239V90.3333H578.072V109.167H590.406V90.3333H602.322ZM590.406 120.667H578.072V138.25H590.406V120.667ZM688.48 152.833H676.48V88.8333H688.48V152.833ZM657.23 138C660.23 138 663.147 137.806 665.98 137.417C668.813 136.972 671.147 136.333 672.98 135.5V147.333C671.147 148.167 668.813 148.806 665.98 149.25C663.202 149.639 660.23 149.833 657.063 149.833H629.48V138H644.48V127.25H632.313V90.6667H668.48V102.333H644.23V115.667H669.147V127.25H656.397V138H657.23ZM754.638 152.833H742.638V124.833H734.555C734.055 133.5 732.166 139.972 728.888 144.25C725.61 148.472 721.277 150.583 715.888 150.583C709.999 150.583 705.36 148.056 701.971 143C698.638 137.944 696.971 130.306 696.971 120.083C696.971 109.861 698.638 102.222 701.971 97.1667C705.36 92.1111 709.999 89.5833 715.888 89.5833C721.055 89.5833 725.249 91.5278 728.471 95.4167C731.694 99.25 733.694 105.111 734.471 113H742.638V88.8333H754.638V152.833ZM715.888 139C720.499 139 722.805 132.694 722.805 120.083C722.805 107.472 720.499 101.167 715.888 101.167C711.221 101.167 708.888 107.472 708.888 120.083C708.888 132.694 711.221 139 715.888 139ZM824.775 124.25V88.8333H836.859V124.25H824.775ZM817.609 106.167C817.609 109.611 816.775 112.639 815.109 115.25C813.498 117.861 811.192 119.889 808.192 121.333C805.192 122.722 801.748 123.417 797.859 123.417C793.97 123.417 790.525 122.722 787.525 121.333C784.525 119.889 782.192 117.861 780.525 115.25C778.859 112.639 778.025 109.611 778.025 106.167C778.025 102.722 778.859 99.6944 780.525 97.0833C782.192 94.4722 784.525 92.4722 787.525 91.0833C790.525 89.6389 793.97 88.9167 797.859 88.9167C801.748 88.9167 805.192 89.6389 808.192 91.0833C811.192 92.4722 813.498 94.4722 815.109 97.0833C816.775 99.6944 817.609 102.722 817.609 106.167ZM790.025 106.167C790.025 108.222 790.748 109.889 792.192 111.167C793.637 112.389 795.525 113 797.859 113C800.248 113 802.137 112.389 803.525 111.167C804.97 109.889 805.692 108.222 805.692 106.167C805.692 104.056 804.97 102.389 803.525 101.167C802.137 99.8889 800.248 99.25 797.859 99.25C795.525 99.25 793.637 99.8889 792.192 101.167C790.748 102.389 790.025 104.056 790.025 106.167ZM824.192 145.083C822.081 147.583 819.609 149.5 816.775 150.833C813.942 152.167 810.942 152.833 807.775 152.833L798.525 145.167C796.359 147.611 793.887 149.5 791.109 150.833C788.331 152.167 785.442 152.833 782.442 152.833V141.417C784.331 141.417 786.109 140.75 787.775 139.417C789.498 138.083 790.914 136.25 792.025 133.917C793.137 131.583 793.831 129.028 794.109 126.25L805.775 128.25C805.442 130.917 804.831 133.528 803.942 136.083L810.525 140.833C812.859 140.056 814.859 138.333 816.525 135.667C818.192 132.944 819.22 129.806 819.609 126.25L831.192 128.25C830.859 130.972 830.275 133.556 829.442 136L841.109 144.5L834.359 153.5L824.192 145.083ZM874.517 102.833C871.017 105.833 866.767 108.194 861.767 109.917C856.767 111.583 851.433 112.472 845.767 112.583V102.5C849.711 102.333 853.489 101.611 857.1 100.333C860.711 99 863.739 97.1944 866.183 94.9167C868.628 92.6389 870.155 90 870.767 87L882.933 89.1667C882.544 91.1111 881.878 93.0278 880.933 94.9167L904.683 103.25L900.767 112.667L874.517 102.833ZM905.517 124.75H843.933V115.083H905.517V124.75ZM902.017 127.75V152.833H847.517V127.75H859.35V131.083H890.183V127.75H902.017ZM890.183 140.083H859.35V143.75H890.183V140.083ZM956.758 152.833V88.8333H968.841V152.833H956.758ZM937.841 138.333C940.674 138.333 943.536 138.056 946.424 137.5C949.313 136.944 951.702 136.194 953.591 135.25V146.75C951.758 147.75 949.424 148.528 946.591 149.083C943.758 149.583 940.841 149.833 937.841 149.833H912.674V89.9167H925.091V138.333H937.841ZM1033.08 124.5V152.833H1021.08V88.8333H1033.08V112.25H1040.25V124.5H1033.08ZM1002.5 138.417C1005.44 138.417 1008.33 138.167 1011.17 137.667C1014.05 137.111 1016.42 136.389 1018.25 135.5V146.833C1016.47 147.778 1014.03 148.528 1010.92 149.083C1007.8 149.583 1004.69 149.833 1001.58 149.833H977.999V90.3333H1013.5V101.75H990.249V138.417H1002.5ZM1050.66 150.667C1048.38 150.667 1046.46 149.889 1044.91 148.333C1043.35 146.778 1042.57 144.833 1042.57 142.5C1042.57 140.111 1043.35 138.194 1044.91 136.75C1046.46 135.25 1048.38 134.5 1050.66 134.5C1052.93 134.5 1054.85 135.25 1056.41 136.75C1057.96 138.194 1058.74 140.111 1058.74 142.5C1058.74 144.833 1057.96 146.778 1056.41 148.333C1054.85 149.889 1052.93 150.667 1050.66 150.667Z" fill="#01A69F"/>
</g>
<defs>
<filter id="filter0_d_65_9180" x="0.683594" y="0.333008" width="1062.06" height="161.25" filterUnits="userSpaceOnUse" color-interpolation-filters="sRGB">
<feFlood flood-opacity="0" result="BackgroundImageFix"/>
<feColorMatrix in="SourceAlpha" type="matrix" values="0 0 0 0 0 0 0 0 0 0 0 0 0 0 0 0 0 0 127 0" result="hardAlpha"/>
<feOffset dy="4"/>
<feGaussianBlur stdDeviation="2"/>
<feComposite in2="hardAlpha" operator="out"/>
<feColorMatrix type="matrix" values="0 0 0 0 0 0 0 0 0 0 0 0 0 0 0 0 0 0 0.25 0"/>
<feBlend mode="normal" in2="BackgroundImageFix" result="effect1_dropShadow_65_9180"/>
<feBlend mode="normal" in="SourceGraphic" in2="effect1_dropShadow_65_9180" result="shape"/>
</filter>
</defs>
</svg>
