<svg width="1137" height="111" viewBox="0 0 1137 111" fill="none" xmlns="http://www.w3.org/2000/svg">
<g filter="url(#filter0_d_65_9202)">
<path d="M479.185 19V0.444442H483.63V5.72222H491.463V0.444442H495.741V19H479.185ZM498.352 19V0.444442H502.574V5.72222H510.407V0.444442H514.852V19H498.352ZM491.463 9.55555H483.63V15H491.463V9.55555ZM510.407 9.55555H502.574V15H510.407V9.55555ZM517.296 27.2778H499.519V33.6667H494.519V27.2778H476.741V22.8333H517.296V27.2778ZM515.241 38V42.3889H479.519V30.8889H484.63V38H515.241ZM563.235 15.2778H557.624V31.8889H552.624V0.222221H557.624V10.2222H563.235V15.2778ZM522.124 24.3333V1.22222H545.902V24.3333H522.124ZM527.124 5.72222V19.7778H540.957V5.72222H527.124ZM558.679 37.6111V42.3889H523.457V28.4444H528.568V37.6111H558.679ZM612.604 22.3889V42.8889H607.604V0.222221H612.604V17.3333H618.215V22.3889H612.604ZM589.104 1.16667C592.845 1.16667 595.789 2.83333 597.938 6.16667C600.123 9.5 601.215 14.463 601.215 21.0556C601.215 27.6481 600.123 32.6111 597.938 35.9444C595.789 39.2778 592.845 40.9444 589.104 40.9444C585.401 40.9444 582.456 39.2778 580.271 35.9444C578.086 32.6111 576.993 27.6481 576.993 21.0556C576.993 14.463 578.086 9.5 580.271 6.16667C582.456 2.83333 585.401 1.16667 589.104 1.16667ZM589.104 36.1111C591.252 36.1111 592.975 34.8889 594.271 32.4444C595.567 29.963 596.215 26.1667 596.215 21.0556C596.215 15.9444 595.567 12.1667 594.271 9.72222C592.975 7.24074 591.252 6 589.104 6C586.919 6 585.178 7.24074 583.882 9.72222C582.586 12.1667 581.938 15.9444 581.938 21.0556C581.938 26.1667 582.586 29.963 583.882 32.4444C585.178 34.8889 586.919 36.1111 589.104 36.1111ZM652.71 31.8889V0.222221H657.765V31.8889H652.71ZM637.376 19.2778C640.043 19.2778 642.469 19.1111 644.654 18.7778C646.839 18.4444 648.58 17.9815 649.876 17.3889V22C648.654 22.5926 646.913 23.0556 644.654 23.3889C642.432 23.7222 639.95 23.8889 637.21 23.8889H621.543V0.944445H626.598V19.2778H637.376ZM658.765 37.6111V42.3889H623.154V27.9444H628.21V37.6111H658.765ZM41.3925 101.889H36.3925V81.7222H28.7814C28.5962 87.7222 27.411 92.2593 25.2258 95.3333C23.0777 98.4074 20.2258 99.9444 16.6702 99.9444C12.9665 99.9444 10.0221 98.2778 7.83691 94.9444C5.65173 91.6111 4.55914 86.6481 4.55914 80.0556C4.55914 73.463 5.65173 68.5 7.83691 65.1667C10.0221 61.8333 12.9665 60.1667 16.6702 60.1667C20.0777 60.1667 22.8369 61.5556 24.948 64.3333C27.0962 67.1111 28.3554 71.2593 28.7258 76.7778H36.3925V59.2222H41.3925V101.889ZM16.6702 95.1111C18.8554 95.1111 20.5962 93.8889 21.8925 91.4444C23.1888 88.963 23.8369 85.1667 23.8369 80.0556C23.8369 74.9444 23.1888 71.1667 21.8925 68.7222C20.5962 66.2407 18.8554 65 16.6702 65C14.5221 65 12.7999 66.2407 11.5036 68.7222C10.2073 71.1667 9.55914 74.9444 9.55914 80.0556C9.55914 85.1667 10.2073 88.963 11.5036 91.4444C12.7999 93.8889 14.5221 95.1111 16.6702 95.1111ZM67.3311 74.6111C61.9607 74.6111 57.6274 73.9815 54.3311 72.7222C51.0718 71.463 49.4422 69.4815 49.4422 66.7778C49.4422 64.1111 51.0718 62.1481 54.3311 60.8889C57.6274 59.6296 61.9607 59 67.3311 59C72.6644 59 76.9607 59.6296 80.2199 60.8889C83.5162 62.1481 85.1644 64.1111 85.1644 66.7778C85.1644 69.4815 83.5348 71.463 80.2755 72.7222C77.0162 73.9815 72.7014 74.6111 67.3311 74.6111ZM67.3311 62.9444C63.6274 62.9444 60.5903 63.2778 58.2199 63.9444C55.8866 64.5741 54.7199 65.5185 54.7199 66.7778C54.7199 68.0741 55.8866 69.037 58.2199 69.6667C60.5533 70.2963 63.5903 70.6111 67.3311 70.6111C71.0718 70.6111 74.1088 70.2963 76.4422 69.6667C78.7755 69.037 79.9422 68.0741 79.9422 66.7778C79.9422 65.5185 78.757 64.5741 76.3866 63.9444C74.0533 63.2778 71.0348 62.9444 67.3311 62.9444ZM69.8311 84.5H84.8866V94.5H54.7755V97.7778H85.5533V101.389H49.8311V91.3333H79.9422V88.1111H49.7199V84.5H64.8311V80.8333H47.0533V76.8333H87.6088V80.8333H69.8311V84.5ZM124.047 84.1667V59.2222H129.103V84.1667H124.047ZM97.8808 73.3889V78.5556H108.492C111.196 78.5556 113.64 78.3889 115.825 78.0556C118.01 77.7222 119.714 77.2593 120.936 76.6667V80.8333C119.714 81.4259 118.01 81.8889 115.825 82.2222C113.64 82.5556 111.14 82.7222 108.325 82.7222H92.8808V69.5H111.936V64.3333H92.7696V60.2222H116.881V73.3889H97.8808ZM94.4919 101.389V86.4444H129.103V101.389H94.4919ZM124.103 90.7222H99.4363V97.1111H124.103V90.7222ZM155.319 58.8889C160.542 58.8889 164.856 59.7037 168.264 61.3333C171.671 62.9259 173.375 65.2407 173.375 68.2778C173.375 71.3148 171.671 73.6481 168.264 75.2778C164.856 76.8704 160.542 77.6667 155.319 77.6667C150.097 77.6667 145.782 76.8704 142.375 75.2778C138.967 73.6481 137.264 71.3148 137.264 68.2778C137.264 65.2407 138.967 62.9259 142.375 61.3333C145.782 59.7037 150.097 58.8889 155.319 58.8889ZM155.319 63.1111C151.69 63.1111 148.653 63.5741 146.208 64.5C143.764 65.4259 142.542 66.6852 142.542 68.2778C142.542 69.8704 143.764 71.1296 146.208 72.0556C148.653 72.9444 151.69 73.3889 155.319 73.3889C158.949 73.3889 161.967 72.9444 164.375 72.0556C166.819 71.1296 168.042 69.8704 168.042 68.2778C168.042 66.6852 166.819 65.4259 164.375 64.5C161.967 63.5741 158.949 63.1111 155.319 63.1111ZM135.042 85.7222V81.2778H175.597V85.7222H135.042ZM173.542 96.8889V101.389H137.819V89.2222H142.93V96.8889H173.542ZM877.108 65.6667V70.5H850.83V65.6667H861.385V59.0556H866.496V65.6667H877.108ZM886.774 81.3889V101.889H881.774V59.2222H886.774V76.3333H892.385V81.3889H886.774ZM863.941 73.7778C866.126 73.7778 868.07 74.3333 869.774 75.4444C871.515 76.5185 872.867 78.0556 873.83 80.0556C874.793 82.0185 875.274 84.2778 875.274 86.8333C875.274 89.3889 874.793 91.6667 873.83 93.6667C872.867 95.6296 871.515 97.1667 869.774 98.2778C868.07 99.3519 866.126 99.8889 863.941 99.8889C861.756 99.8889 859.793 99.3519 858.052 98.2778C856.348 97.1667 855.015 95.6296 854.052 93.6667C853.089 91.6667 852.608 89.3889 852.608 86.8333C852.608 84.2778 853.089 82.0185 854.052 80.0556C855.015 78.0556 856.348 76.5185 858.052 75.4444C859.793 74.3333 861.756 73.7778 863.941 73.7778ZM863.941 95.2778C865.83 95.2778 867.385 94.5 868.608 92.9444C869.83 91.3889 870.441 89.3519 870.441 86.8333C870.441 84.2778 869.83 82.2222 868.608 80.6667C867.385 79.1111 865.83 78.3333 863.941 78.3333C862.052 78.3333 860.496 79.1111 859.274 80.6667C858.052 82.2222 857.441 84.2778 857.441 86.8333C857.441 89.3519 858.052 91.3889 859.274 92.9444C860.496 94.5 862.052 95.2778 863.941 95.2778ZM896.324 65.5556V60.6667H931.768V88.8333H926.602V65.5556H896.324ZM934.435 99.8889H893.879V94.9444H908.824V76.1111H913.991V94.9444H934.435V99.8889ZM981.86 82.9444V59.2222H986.915V82.9444H981.86ZM974.915 70.7222C974.915 72.9444 974.397 74.9074 973.36 76.6111C972.323 78.2778 970.841 79.5741 968.915 80.5C966.99 81.4259 964.73 81.8889 962.138 81.8889C959.582 81.8889 957.341 81.4259 955.415 80.5C953.49 79.5741 952.008 78.2778 950.971 76.6111C949.934 74.9074 949.415 72.9444 949.415 70.7222C949.415 68.537 949.934 66.6111 950.971 64.9444C952.008 63.2407 953.49 61.9259 955.415 61C957.341 60.0741 959.582 59.6111 962.138 59.6111C964.73 59.6111 966.99 60.0741 968.915 61C970.841 61.9259 972.323 63.2407 973.36 64.9444C974.397 66.6111 974.915 68.537 974.915 70.7222ZM954.415 70.7222C954.415 72.8333 955.119 74.5 956.527 75.7222C957.934 76.9074 959.804 77.5 962.138 77.5C964.471 77.5 966.341 76.9074 967.749 75.7222C969.193 74.5 969.915 72.8333 969.915 70.7222C969.915 68.6481 969.193 67 967.749 65.7778C966.341 64.5556 964.471 63.9444 962.138 63.9444C959.841 63.9444 957.971 64.5556 956.527 65.7778C955.119 67 954.415 68.6481 954.415 70.7222ZM979.415 94.8333C978.193 96.7593 976.693 98.2963 974.915 99.4444C973.138 100.593 971.23 101.241 969.193 101.389L962.249 95C960.99 96.8889 959.49 98.3889 957.749 99.5C956.045 100.611 954.212 101.241 952.249 101.389V96.6111C953.693 96.5 955.064 95.8704 956.36 94.7222C957.656 93.5741 958.712 92.0741 959.527 90.2222C960.378 88.3704 960.878 86.3704 961.027 84.2222L965.86 84.9444C965.712 86.9815 965.267 89.0185 964.527 91.0556L970.471 96.3333C972.434 95.7778 974.119 94.3704 975.527 92.1111C976.934 89.8148 977.749 87.1852 977.971 84.2222L982.804 85C982.545 87.2593 982.119 89.2222 981.527 90.8889L990.082 97.8889L987.138 101.611L979.415 94.8333ZM1012.8 67.1667C1010.58 69.4259 1007.8 71.2222 1004.47 72.5556C1001.17 73.8889 997.78 74.5926 994.299 74.6667V70.3333C996.965 70.2222 999.595 69.6481 1002.19 68.6111C1004.78 67.5741 1007 66.1481 1008.85 64.3333C1010.71 62.5185 1011.87 60.463 1012.35 58.1667L1017.35 59.0556C1017.02 60.7593 1016.41 62.3148 1015.52 63.7222L1032.24 70.7778L1030.52 74.7222L1012.8 67.1667ZM1033.41 82.0556H992.854V77.8889H1033.41V82.0556ZM1030.63 85.1667V101.389H995.632V85.1667H1000.58V89.0556H1025.74V85.1667H1030.63ZM1025.74 93.0556H1000.58V97.3889H1025.74V93.0556ZM1069.85 101.889V59.2222H1074.9V101.889H1069.85ZM1055.79 94.5556C1057.72 94.5556 1059.63 94.3704 1061.51 94C1063.44 93.5926 1065.03 93.0741 1066.29 92.4444V97.2778C1065.07 97.9444 1063.5 98.463 1061.57 98.8333C1059.68 99.2037 1057.76 99.3889 1055.79 99.3889H1039.13V60.4444H1044.29V94.5556H1055.79ZM1117.73 81.3889V101.889H1112.73V59.2222H1117.73V76.3333H1123.34V81.3889H1117.73ZM1098.84 94.6111C1100.77 94.6111 1102.69 94.4259 1104.62 94.0556C1106.55 93.6852 1108.12 93.1852 1109.34 92.5556V97.3333C1108.16 97.963 1106.56 98.463 1104.56 98.8333C1102.6 99.2037 1100.6 99.3889 1098.56 99.3889H1082.73V60.7222H1106.18V65.5H1087.79V94.6111H1098.84ZM1129.39 100.278C1128.39 100.278 1127.54 99.9444 1126.84 99.2778C1126.13 98.5741 1125.78 97.7037 1125.78 96.6667C1125.78 95.6296 1126.13 94.7778 1126.84 94.1111C1127.54 93.4074 1128.39 93.0556 1129.39 93.0556C1130.39 93.0556 1131.24 93.4074 1131.95 94.1111C1132.65 94.7778 1133 95.6296 1133 96.6667C1133 97.7037 1132.65 98.5741 1131.95 99.2778C1131.24 99.9444 1130.39 100.278 1129.39 100.278Z" fill="#333333"/>
<path d="M192.411 65.5V60.6667H228.022V88.8333H222.911V65.5H192.411ZM230.578 99.8889H190.022V95.0556H197.744V78.1111H202.8V95.0556H210.411V78.1111H215.466V95.0556H230.578V99.8889ZM254.294 76.7222C248.998 76.7222 244.664 75.9815 241.294 74.5C237.924 72.9815 236.238 70.7407 236.238 67.7778C236.238 64.8519 237.924 62.6481 241.294 61.1667C244.664 59.6481 248.998 58.8889 254.294 58.8889C259.59 58.8889 263.924 59.6481 267.294 61.1667C270.664 62.6481 272.35 64.8519 272.35 67.7778C272.35 70.7407 270.664 72.9815 267.294 74.5C263.924 75.9815 259.59 76.7222 254.294 76.7222ZM254.294 63.0556C250.627 63.0556 247.572 63.4815 245.127 64.3333C242.72 65.1481 241.516 66.2963 241.516 67.7778C241.516 69.3333 242.72 70.5185 245.127 71.3333C247.572 72.1481 250.627 72.5556 254.294 72.5556C257.961 72.5556 260.998 72.1481 263.405 71.3333C265.812 70.5185 267.016 69.3333 267.016 67.7778C267.016 66.2963 265.812 65.1481 263.405 64.3333C260.998 63.4815 257.961 63.0556 254.294 63.0556ZM264.461 89.2778H271.794V101.944H266.738V93.6111H236.461V89.2778H244.183V84.1667H234.016V79.8333H274.572V84.1667H264.461V89.2778ZM249.127 84.1667V89.2778H259.461V84.1667H249.127ZM315.01 81V101.889H310.01V59.2222H315.01V75.9444H320.51V81H315.01ZM279.51 65.7222V60.8333H302.733V87.9444H297.733V65.7222H279.51ZM293.677 94.4444C299.714 94.4444 304.047 93.8519 306.677 92.6667V97.6111C303.936 98.7963 299.603 99.3889 293.677 99.3889H278.01V94.4444H284.955V76.6111H290.01V94.4444H293.677ZM369.88 73.5556V84.6667H364.88V59.2222H369.88V68.5H375.491V73.5556H369.88ZM357.491 65.3333C357.491 71.3333 355.398 75.8333 351.213 78.8333C347.065 81.7963 341.343 83.2778 334.046 83.2778V78.5556C339.824 78.5185 344.324 77.4815 347.546 75.4444C350.769 73.3704 352.38 70.2963 352.38 66.2222V64.7778H334.046V60.2222H357.491V65.3333ZM369.88 86.9444V101.944H364.769V91.5H335.38V86.9444H369.88ZM396.263 69.8889C394.263 71.5926 391.726 72.9444 388.652 73.9444C385.578 74.9074 382.392 75.4259 379.096 75.5V71.2222C382.615 71.1481 385.929 70.4444 389.04 69.1111C392.152 67.7778 394.115 66.037 394.929 63.8889H379.707V59.6667H414.818V63.8889H400.429C400.244 64.7778 399.929 65.6296 399.485 66.4444L415.929 71.5556L414.596 75.6667L396.263 69.8889ZM417.54 83.1111H376.985V78.8889H394.763V73.8333H399.763V78.8889H417.54V83.1111ZM397.263 86.3889C402.67 86.3889 407.003 87 410.263 88.2222C413.559 89.4444 415.207 91.4259 415.207 94.1667C415.207 96.9444 413.559 98.9444 410.263 100.167C407.003 101.426 402.67 102.056 397.263 102.056C391.855 102.056 387.503 101.426 384.207 100.167C380.948 98.9444 379.318 96.9444 379.318 94.1667C379.318 91.4259 380.948 89.4444 384.207 88.2222C387.503 87 391.855 86.3889 397.263 86.3889ZM397.263 97.9444C400.892 97.9444 403.892 97.6481 406.263 97.0556C408.67 96.463 409.874 95.5 409.874 94.1667C409.874 92.8704 408.689 91.9444 406.318 91.3889C403.948 90.7963 400.929 90.5 397.263 90.5C393.596 90.5 390.559 90.7963 388.152 91.3889C385.781 91.9444 384.596 92.8704 384.596 94.1667C384.596 95.5 385.781 96.463 388.152 97.0556C390.559 97.6481 393.596 97.9444 397.263 97.9444ZM420.257 66.8333V62.8333H428.757V58.5556H433.701V62.8333H441.868V66.8333H420.257ZM444.646 84.1111V59.4444H449.312V69.0556H455.479V59.2222H460.146V85.6111H455.479V73.7778H449.312V84.1111H444.646ZM440.924 76.8889C440.924 79.2963 440.016 81.2222 438.201 82.6667C436.386 84.0741 434.09 84.7778 431.312 84.7778C428.535 84.7778 426.238 84.0741 424.424 82.6667C422.609 81.2222 421.701 79.2963 421.701 76.8889C421.701 74.4815 422.609 72.5741 424.424 71.1667C426.238 69.7222 428.535 69 431.312 69C434.09 69 436.386 69.7222 438.201 71.1667C440.016 72.5741 440.924 74.4815 440.924 76.8889ZM426.201 76.8889C426.201 78.037 426.664 79 427.59 79.7778C428.553 80.5556 429.794 80.9444 431.312 80.9444C432.831 80.9444 434.053 80.5556 434.979 79.7778C435.942 79 436.424 78.037 436.424 76.8889C436.424 75.7407 435.942 74.7778 434.979 74C434.053 73.2222 432.831 72.8333 431.312 72.8333C429.794 72.8333 428.553 73.2222 427.59 74C426.664 74.7778 426.201 75.7407 426.201 76.8889ZM442.368 86.3889C447.849 86.3889 452.257 87.0185 455.59 88.2778C458.924 89.5 460.59 91.463 460.59 94.1667C460.59 96.8704 458.924 98.8333 455.59 100.056C452.257 101.315 447.849 101.944 442.368 101.944C436.886 101.944 432.479 101.315 429.146 100.056C425.849 98.8333 424.201 96.8704 424.201 94.1667C424.201 91.463 425.849 89.5 429.146 88.2778C432.479 87.0185 436.886 86.3889 442.368 86.3889ZM442.368 97.8333C446.146 97.8333 449.238 97.537 451.646 96.9444C454.09 96.3148 455.312 95.3889 455.312 94.1667C455.312 92.9444 454.09 92.037 451.646 91.4444C449.238 90.8148 446.146 90.5 442.368 90.5C438.59 90.5 435.479 90.8148 433.035 91.4444C430.627 92.037 429.424 92.9444 429.424 94.1667C429.424 95.3889 430.627 96.3148 433.035 96.9444C435.479 97.537 438.59 97.8333 442.368 97.8333ZM501.862 81.3889V101.889H496.862V59.2222H501.862V76.3333H507.473V81.3889H501.862ZM482.64 60.3889C482.566 67.2778 482.029 73.2037 481.029 78.1667L493.751 96.2778L489.695 99.2778L479.307 84.2778C477.862 88.8704 475.936 92.4815 473.529 95.1111C471.158 97.7037 468.418 99.1296 465.307 99.3889V94.0556C467.862 93.6111 470.047 91.8704 471.862 88.8333C473.714 85.7593 475.103 81.7407 476.029 76.7778C476.992 71.8148 477.492 66.2963 477.529 60.2222L482.64 60.3889ZM559.12 101.889H554.343V81.2222H548.009V101.167H543.343V59.4444H548.009V76.2778H554.343V59.2222H559.12V101.889ZM531.009 94.7222C532.713 94.7222 534.398 94.5926 536.065 94.3333C537.768 94.037 539.231 93.6296 540.454 93.1111V97.7222C539.231 98.2407 537.713 98.6481 535.898 98.9444C534.12 99.2407 532.306 99.3889 530.454 99.3889H521.176V60.7222H538.731V65.3889H526.009V94.7222H531.009ZM563.226 66.8333V62.8333H571.726V58.5556H576.67V62.8333H584.837V66.8333H563.226ZM587.614 84.1111V59.4444H592.281V69.0556H598.448V59.2222H603.114V85.6111H598.448V73.7778H592.281V84.1111H587.614ZM583.892 76.8889C583.892 79.2963 582.985 81.2222 581.17 82.6667C579.355 84.0741 577.059 84.7778 574.281 84.7778C571.503 84.7778 569.207 84.0741 567.392 82.6667C565.577 81.2222 564.67 79.2963 564.67 76.8889C564.67 74.4815 565.577 72.5741 567.392 71.1667C569.207 69.7222 571.503 69 574.281 69C577.059 69 579.355 69.7222 581.17 71.1667C582.985 72.5741 583.892 74.4815 583.892 76.8889ZM569.17 76.8889C569.17 78.037 569.633 79 570.559 79.7778C571.522 80.5556 572.763 80.9444 574.281 80.9444C575.8 80.9444 577.022 80.5556 577.948 79.7778C578.911 79 579.392 78.037 579.392 76.8889C579.392 75.7407 578.911 74.7778 577.948 74C577.022 73.2222 575.8 72.8333 574.281 72.8333C572.763 72.8333 571.522 73.2222 570.559 74C569.633 74.7778 569.17 75.7407 569.17 76.8889ZM585.337 86.3889C590.818 86.3889 595.226 87.0185 598.559 88.2778C601.892 89.5 603.559 91.463 603.559 94.1667C603.559 96.8704 601.892 98.8333 598.559 100.056C595.226 101.315 590.818 101.944 585.337 101.944C579.855 101.944 575.448 101.315 572.114 100.056C568.818 98.8333 567.17 96.8704 567.17 94.1667C567.17 91.463 568.818 89.5 572.114 88.2778C575.448 87.0185 579.855 86.3889 585.337 86.3889ZM585.337 97.8333C589.114 97.8333 592.207 97.537 594.614 96.9444C597.059 96.3148 598.281 95.3889 598.281 94.1667C598.281 92.9444 597.059 92.037 594.614 91.4444C592.207 90.8148 589.114 90.5 585.337 90.5C581.559 90.5 578.448 90.8148 576.003 91.4444C573.596 92.037 572.392 92.9444 572.392 94.1667C572.392 95.3889 573.596 96.3148 576.003 96.9444C578.448 97.537 581.559 97.8333 585.337 97.8333ZM648.498 99.8889H607.942V95H625.664V84.9444H610.609V60.7222H645.886V65.6111H615.664V80.0556H646.331V84.9444H630.72V95H648.498V99.8889ZM662.811 66.7778V62.7222H673.978V58.4444H679.089V62.7222H690.367V66.7778H662.811ZM699.811 74.3333V84.6111H694.811V59.2222H699.811V69.3889H705.422V74.3333H699.811ZM676.589 84.3333C673.108 84.3333 670.237 83.6667 667.978 82.3333C665.719 80.963 664.589 79.0926 664.589 76.7222C664.589 74.2778 665.719 72.3704 667.978 71C670.237 69.5926 673.108 68.8889 676.589 68.8889C680.034 68.8889 682.885 69.5926 685.145 71C687.404 72.3704 688.534 74.2778 688.534 76.7222C688.534 79.0556 687.404 80.9074 685.145 82.2778C682.885 83.6481 680.034 84.3333 676.589 84.3333ZM676.589 72.7778C674.404 72.7778 672.645 73.1481 671.311 73.8889C670.015 74.5926 669.367 75.537 669.367 76.7222C669.367 77.8333 670.015 78.7407 671.311 79.4444C672.645 80.1481 674.404 80.5 676.589 80.5C678.737 80.5 680.459 80.1481 681.756 79.4444C683.089 78.7407 683.756 77.8333 683.756 76.7222C683.756 75.537 683.108 74.5926 681.811 73.8889C680.515 73.1481 678.774 72.7778 676.589 72.7778ZM699.811 86.8889V101.389H665.645V86.8889H699.811ZM694.867 97.2222V91.0556H670.645V97.2222H694.867ZM746.361 101.889H741.861V59.2222H746.361V101.889ZM737.528 59.4444V101.167H733.083V80.6111H727.861C727.417 86.5 726.398 91 724.805 94.1111C723.213 97.1852 720.805 98.9074 717.583 99.2778V94.7778C719.88 94.3333 721.491 92.2593 722.417 88.5556C723.342 84.8519 723.805 79.3889 723.805 72.1667V65.1111H718.972V60.7222H728.194V71.6667L728.139 75.7778H733.083V59.4444H737.528ZM717.028 71.0556C717.028 79.5 716.324 85.963 714.917 90.4444C713.546 94.8889 711.028 97.3333 707.361 97.7778V93.2778C709.435 92.8704 710.842 90.8519 711.583 87.2222C712.324 83.5556 712.694 78.3333 712.694 71.5556V65.1111H707.361V60.7222H717.028V71.0556ZM794.897 90.8889V59.2222H799.953V90.8889H794.897ZM776.564 75C775.119 77.7037 773.23 79.8889 770.897 81.5556C768.564 83.1852 765.916 84.1667 762.953 84.5V79.6667C766.249 79.1852 768.916 77.6111 770.953 74.9444C772.99 72.2407 774.138 68.8519 774.397 64.7778H763.453V60.2222H789.73V64.7778H779.453C779.416 66.8519 779.101 68.8148 778.508 70.6667L791.008 80.2778L788.23 84.1667L776.564 75ZM800.953 101.389H765.341V87.6667H770.397V96.6111H800.953V101.389ZM805.169 66.8333V62.8333H813.669V58.5556H818.613V62.8333H826.78V66.8333H805.169ZM829.558 84.1111V59.4444H834.225V69.0556H840.391V59.2222H845.058V85.6111H840.391V73.7778H834.225V84.1111H829.558ZM825.836 76.8889C825.836 79.2963 824.928 81.2222 823.113 82.6667C821.299 84.0741 819.002 84.7778 816.225 84.7778C813.447 84.7778 811.15 84.0741 809.336 82.6667C807.521 81.2222 806.613 79.2963 806.613 76.8889C806.613 74.4815 807.521 72.5741 809.336 71.1667C811.15 69.7222 813.447 69 816.225 69C819.002 69 821.299 69.7222 823.113 71.1667C824.928 72.5741 825.836 74.4815 825.836 76.8889ZM811.113 76.8889C811.113 78.037 811.576 79 812.502 79.7778C813.465 80.5556 814.706 80.9444 816.225 80.9444C817.743 80.9444 818.965 80.5556 819.891 79.7778C820.854 79 821.336 78.037 821.336 76.8889C821.336 75.7407 820.854 74.7778 819.891 74C818.965 73.2222 817.743 72.8333 816.225 72.8333C814.706 72.8333 813.465 73.2222 812.502 74C811.576 74.7778 811.113 75.7407 811.113 76.8889ZM827.28 86.3889C832.762 86.3889 837.169 87.0185 840.502 88.2778C843.836 89.5 845.502 91.463 845.502 94.1667C845.502 96.8704 843.836 98.8333 840.502 100.056C837.169 101.315 832.762 101.944 827.28 101.944C821.799 101.944 817.391 101.315 814.058 100.056C810.762 98.8333 809.113 96.8704 809.113 94.1667C809.113 91.463 810.762 89.5 814.058 88.2778C817.391 87.0185 821.799 86.3889 827.28 86.3889ZM827.28 97.8333C831.058 97.8333 834.15 97.537 836.558 96.9444C839.002 96.3148 840.225 95.3889 840.225 94.1667C840.225 92.9444 839.002 92.037 836.558 91.4444C834.15 90.8148 831.058 90.5 827.28 90.5C823.502 90.5 820.391 90.8148 817.947 91.4444C815.539 92.037 814.336 92.9444 814.336 94.1667C814.336 95.3889 815.539 96.3148 817.947 96.9444C820.391 97.537 823.502 97.8333 827.28 97.8333Z" fill="#01A69F"/>
</g>
<defs>
<filter id="filter0_d_65_9202" x="0.559082" y="0.222656" width="1136.44" height="109.833" filterUnits="userSpaceOnUse" color-interpolation-filters="sRGB">
<feFlood flood-opacity="0" result="BackgroundImageFix"/>
<feColorMatrix in="SourceAlpha" type="matrix" values="0 0 0 0 0 0 0 0 0 0 0 0 0 0 0 0 0 0 127 0" result="hardAlpha"/>
<feOffset dy="4"/>
<feGaussianBlur stdDeviation="2"/>
<feComposite in2="hardAlpha" operator="out"/>
<feColorMatrix type="matrix" values="0 0 0 0 0 0 0 0 0 0 0 0 0 0 0 0 0 0 0.25 0"/>
<feBlend mode="normal" in2="BackgroundImageFix" result="effect1_dropShadow_65_9202"/>
<feBlend mode="normal" in="SourceGraphic" in2="effect1_dropShadow_65_9202" result="shape"/>
</filter>
</defs>
</svg>
