<svg width="778" height="156" viewBox="0 0 778 156" fill="none" xmlns="http://www.w3.org/2000/svg">
<g filter="url(#filter0_d_166_8319)">
<path d="M93.7568 30.2222V9.38889H128.757V30.2222H93.7568ZM98.7568 14.2222V25.3889H123.757V14.2222H98.7568ZM113.812 40.2222V51.8889H108.701V40.2222H90.9791V35.2222H131.535V40.2222H113.812ZM160.251 22.5C159.844 25.4259 158.529 27.8148 156.307 29.6667C154.121 31.4815 151.325 32.3889 147.918 32.3889C145.399 32.3889 143.177 31.8889 141.251 30.8889C139.325 29.8519 137.844 28.4259 136.807 26.6111C135.769 24.7963 135.251 22.7593 135.251 20.5C135.251 18.2407 135.769 16.2037 136.807 14.3889C137.844 12.5741 139.325 11.1667 141.251 10.1667C143.177 9.12963 145.399 8.61111 147.918 8.61111C151.103 8.61111 153.788 9.44444 155.973 11.1111C158.158 12.7407 159.529 14.8889 160.084 17.5556H168.307V8.22222H173.307V37.4444H168.307V22.5H160.251ZM140.307 20.5C140.307 22.7963 140.992 24.6296 142.362 26C143.769 27.3333 145.621 28 147.918 28C150.177 28 151.992 27.3333 153.362 26C154.769 24.6296 155.473 22.7963 155.473 20.5C155.473 18.2037 154.769 16.3889 153.362 15.0556C151.992 13.6852 150.177 13 147.918 13C145.621 13 143.769 13.6852 142.362 15.0556C140.992 16.3889 140.307 18.2037 140.307 20.5ZM155.862 42.8333C153.788 45.2037 151.214 47.0556 148.14 48.3889C145.103 49.6852 141.936 50.3519 138.64 50.3889V45.4444C141.195 45.4074 143.64 44.9074 145.973 43.9444C148.307 42.9815 150.288 41.6296 151.918 39.8889C153.547 38.1111 154.621 36.037 155.14 33.6667L160.251 34.6111C159.807 36.3148 159.269 37.7778 158.64 39L175.084 46.2778L173.14 50.8889L155.862 42.8333ZM211.967 50.8889V8.22222H217.023V50.8889H211.967ZM193.023 9.16667C196.801 9.16667 199.782 10.8333 201.967 14.1667C204.19 17.5 205.301 22.463 205.301 29.0556C205.301 35.6481 204.19 40.6111 201.967 43.9444C199.782 47.2778 196.801 48.9444 193.023 48.9444C189.245 48.9444 186.245 47.2778 184.023 43.9444C181.801 40.6111 180.69 35.6481 180.69 29.0556C180.69 22.463 181.801 17.5 184.023 14.1667C186.245 10.8333 189.245 9.16667 193.023 9.16667ZM193.023 14C190.764 14 188.967 15.2407 187.634 17.7222C186.301 20.1667 185.634 23.9444 185.634 29.0556C185.634 34.1667 186.301 37.963 187.634 40.4444C188.967 42.8889 190.764 44.1111 193.023 44.1111C195.208 44.1111 196.967 42.8704 198.301 40.3889C199.634 37.9074 200.301 34.1296 200.301 29.0556C200.301 23.9815 199.634 20.2037 198.301 17.7222C196.967 15.2407 195.208 14 193.023 14ZM230.906 13V21.3889H261.128V25.7222H225.85V8.66667H260.684V13H230.906ZM222.961 34.6111V30.1667H263.517V34.6111H222.961ZM261.461 45.8889V50.3889H225.739V37.9444H230.85V45.8889H261.461ZM290.775 25.7222C296.368 25.7222 300.442 26.7593 302.998 28.8333C305.59 30.8704 306.886 33.7222 306.886 37.3889C306.886 39.6481 306.331 41.6852 305.22 43.5C304.146 45.3148 302.498 46.7593 300.275 47.8333C298.09 48.9074 295.405 49.4444 292.22 49.4444C289.479 49.4444 286.831 49.0185 284.275 48.1667C281.72 47.2778 279.646 46.1111 278.053 44.6667L280.386 40.5556C281.683 41.8148 283.368 42.8333 285.442 43.6111C287.553 44.3889 289.775 44.7778 292.109 44.7778C295.072 44.7778 297.349 44.1296 298.942 42.8333C300.572 41.5 301.386 39.7222 301.386 37.5C301.386 35.0926 300.498 33.2778 298.72 32.0556C296.942 30.8333 293.886 30.2222 289.553 30.2222H280.775L282.831 10.1111H304.72V14.5556H287.331L286.22 25.7222H290.775ZM326.236 49.4444C323.162 49.4444 320.421 48.6481 318.014 47.0556C315.643 45.4259 313.773 43.1111 312.403 40.1111C311.069 37.1111 310.403 33.5926 310.403 29.5556C310.403 25.4815 311.069 21.9444 312.403 18.9444C313.773 15.9444 315.643 13.6481 318.014 12.0556C320.421 10.463 323.162 9.66667 326.236 9.66667C329.347 9.66667 332.088 10.463 334.458 12.0556C336.866 13.6481 338.736 15.9444 340.069 18.9444C341.403 21.9444 342.069 25.4815 342.069 29.5556C342.069 33.6296 341.403 37.1667 340.069 40.1667C338.736 43.1667 336.866 45.463 334.458 47.0556C332.051 48.6481 329.31 49.4444 326.236 49.4444ZM326.236 44.7778C329.384 44.7778 331.903 43.463 333.792 40.8333C335.68 38.2037 336.625 34.4444 336.625 29.5556C336.625 24.6667 335.68 20.9074 333.792 18.2778C331.903 15.6481 329.384 14.3333 326.236 14.3333C323.088 14.3333 320.569 15.6481 318.68 18.2778C316.829 20.9074 315.903 24.6667 315.903 29.5556C315.903 34.4444 316.829 38.2037 318.68 40.8333C320.569 43.463 323.088 44.7778 326.236 44.7778ZM354.03 31.6111C352.141 31.6111 350.456 31.1481 348.975 30.2222C347.53 29.2963 346.4 27.9815 345.586 26.2778C344.771 24.5741 344.363 22.6111 344.363 20.3889C344.363 18.1296 344.771 16.1481 345.586 14.4444C346.4 12.7407 347.53 11.4259 348.975 10.5C350.456 9.57407 352.141 9.11111 354.03 9.11111C355.919 9.11111 357.586 9.57407 359.03 10.5C360.512 11.4259 361.66 12.7407 362.475 14.4444C363.289 16.1481 363.697 18.1296 363.697 20.3889C363.697 22.6481 363.289 24.6296 362.475 26.3333C361.66 28 360.512 29.2963 359.03 30.2222C357.586 31.1481 355.919 31.6111 354.03 31.6111ZM383.53 9.44444L356.03 49.6667H350.252L377.697 9.44444H383.53ZM354.03 27.3333C355.512 27.3333 356.678 26.7407 357.53 25.5556C358.419 24.3333 358.863 22.6111 358.863 20.3889C358.863 18.1667 358.419 16.463 357.53 15.2778C356.678 14.0556 355.512 13.4444 354.03 13.4444C352.586 13.4444 351.419 14.0556 350.53 15.2778C349.678 16.463 349.252 18.1667 349.252 20.3889C349.252 22.6111 349.678 24.3333 350.53 25.5556C351.419 26.7407 352.586 27.3333 354.03 27.3333ZM379.697 49.9444C377.845 49.9444 376.178 49.4815 374.697 48.5556C373.252 47.6296 372.104 46.3148 371.252 44.6111C370.437 42.9074 370.03 40.9444 370.03 38.7222C370.03 36.5 370.437 34.537 371.252 32.8333C372.104 31.0926 373.252 29.7593 374.697 28.8333C376.178 27.9074 377.845 27.4444 379.697 27.4444C381.586 27.4444 383.252 27.9074 384.697 28.8333C386.178 29.7593 387.326 31.0741 388.141 32.7778C388.993 34.4815 389.419 36.463 389.419 38.7222C389.419 40.9444 388.993 42.9074 388.141 44.6111C387.326 46.3148 386.178 47.6296 384.697 48.5556C383.252 49.4815 381.586 49.9444 379.697 49.9444ZM379.697 45.6667C381.141 45.6667 382.308 45.0556 383.197 43.8333C384.086 42.6111 384.53 40.9074 384.53 38.7222C384.53 36.5 384.086 34.7963 383.197 33.6111C382.308 32.3889 381.141 31.7778 379.697 31.7778C378.252 31.7778 377.086 32.3889 376.197 33.6111C375.345 34.7963 374.919 36.5 374.919 38.7222C374.919 40.9444 375.345 42.6667 376.197 43.8889C377.086 45.0741 378.252 45.6667 379.697 45.6667ZM440.417 21.8333V31.3889H435.417V8.22222H440.417V16.7778H446.028V21.8333H440.417ZM428.028 13.9444C428.028 19.537 425.954 23.6667 421.806 26.3333C417.695 28.963 411.954 30.2778 404.583 30.2778V25.7222C410.361 25.6852 414.861 24.7778 418.083 23C421.306 21.1852 422.917 18.4815 422.917 14.8889V13.6667H404.583V9.22222H428.028V13.9444ZM440.417 33.6667V50.3889H406.25V33.6667H440.417ZM435.417 45.9444V38.1111H411.306V45.9444H435.417ZM474.466 28.2778V23.6111H480.911V17.5H474.466V12.7778H480.911V8.22222H485.855V39.9444H480.911V28.2778H474.466ZM449.189 32.3889V9.22222H472.133V32.3889H449.189ZM454.133 13.7222V27.8333H467.189V13.7222H454.133ZM486.689 50.3889H451.133V36.4444H456.244V45.6111H486.689V50.3889ZM505.169 14.0556V9.16667H540.225V28.6667H535.058V14.0556H505.169ZM525.114 37.1667V51.8889H519.947V37.1667H502.502V32.1667H543.058V37.1667H525.114ZM585.663 50.8889H580.886V30.2222H574.552V50.1667H569.886V8.44444H574.552V25.2778H580.886V8.22222H585.663V50.8889ZM565.219 9.72222V48.3889H547.719V9.72222H565.219ZM560.441 43.6111V14.5H552.441V43.6111H560.441ZM638.366 30.3889V50.8889H633.366V8.22222H638.366V25.3333H643.977V30.3889H638.366ZM625.088 9.72222V20.1111C625.088 25.7778 624.199 30.7407 622.422 35C620.644 39.2222 618.088 42.5 614.755 44.8333C611.422 47.1296 607.477 48.2778 602.922 48.2778V43.2778C606.514 43.2778 609.588 42.3519 612.144 40.5C614.736 38.6111 616.699 35.9444 618.033 32.5C619.366 29.0185 620.033 24.9259 620.033 20.2222V14.5H602.922V9.72222H625.088ZM683.638 19.0556V23.2778H648.36V8.16667H653.36V19.0556H683.638ZM645.471 31.6111V27.3889H686.027V31.6111H645.471ZM665.749 35.2778C671.119 35.2778 675.434 35.9074 678.693 37.1667C681.99 38.3889 683.638 40.3704 683.638 43.1111C683.638 45.8889 681.99 47.8889 678.693 49.1111C675.434 50.3704 671.119 51 665.749 51C660.379 51 656.045 50.3704 652.749 49.1111C649.49 47.8889 647.86 45.8889 647.86 43.1111C647.86 40.3704 649.49 38.3889 652.749 37.1667C656.045 35.9074 660.379 35.2778 665.749 35.2778ZM665.749 39.3889C662.119 39.3889 659.101 39.6852 656.693 40.2778C654.323 40.8704 653.138 41.8148 653.138 43.1111C653.138 44.4444 654.323 45.4074 656.693 46C659.101 46.5926 662.119 46.8889 665.749 46.8889C669.379 46.8889 672.379 46.5926 674.749 46C677.156 45.4074 678.36 44.4444 678.36 43.1111C678.36 41.8148 677.156 40.8704 674.749 40.2778C672.379 39.6852 669.379 39.3889 665.749 39.3889Z" fill="#333333"/>
</g>
<g filter="url(#filter1_d_166_8319)">
<path d="M58.2458 113.083V143.833H50.7458V79.8333H58.2458V105.5H66.6624V113.083H58.2458ZM22.9958 81.25C28.6069 81.25 33.0235 83.75 36.2458 88.75C39.5235 93.75 41.1624 101.194 41.1624 111.083C41.1624 120.972 39.5235 128.417 36.2458 133.417C33.0235 138.417 28.6069 140.917 22.9958 140.917C17.4402 140.917 13.0235 138.417 9.74577 133.417C6.46799 128.417 4.8291 120.972 4.8291 111.083C4.8291 101.194 6.46799 93.75 9.74577 88.75C13.0235 83.75 17.4402 81.25 22.9958 81.25ZM22.9958 133.667C26.218 133.667 28.8013 131.833 30.7458 128.167C32.6902 124.444 33.6624 118.75 33.6624 111.083C33.6624 103.417 32.6902 97.75 30.7458 94.0833C28.8013 90.3611 26.218 88.5 22.9958 88.5C19.718 88.5 17.1069 90.3611 15.1624 94.0833C13.218 97.75 12.2458 103.417 12.2458 111.083C12.2458 118.75 13.218 124.444 15.1624 128.167C17.1069 131.833 19.718 133.667 22.9958 133.667ZM127.654 143.833H120.487V112.833H110.987V142.75H103.987V80.1667H110.987V105.417H120.487V79.8333H127.654V143.833ZM82.4036 133.25C89.6814 133.25 95.4314 132.25 99.6536 130.25V137.25C97.7092 138.139 95.2092 138.833 92.1536 139.333C89.1536 139.833 85.8481 140.083 82.237 140.083H70.737V107.25H88.487V88.9167H70.737V82.0833H95.5703V114H77.737V133.25H82.4036ZM155.624 98.5833V92.75H200.458V86.3333H155.624V80.3333H207.958V104.333H200.458V98.5833H155.624ZM212.208 112.417H151.374V106.5H212.208V112.417ZM209.124 137.833V143.083H155.541V127.917H200.708V122.917H155.374V117.667H208.124V132.667H162.958V137.833H209.124ZM266.866 119.833V79.8333H274.449V119.833H266.866ZM227.616 102.25V110.917H243.532C247.532 110.917 251.171 110.667 254.449 110.167C257.727 109.667 260.31 108.972 262.199 108.083V114.417C260.366 115.306 257.782 116 254.449 116.5C251.116 117 247.393 117.25 243.282 117.25H220.116V96.25H248.699V87.5833H219.949V81.3333H256.116V102.25H227.616ZM266.782 143.417V129.917H222.199V123.25H274.449V143.417H266.782ZM340.44 143.833H332.857V79.8333H340.44V143.833ZM310.857 81.5833C310.746 91.4722 309.912 100.25 308.357 107.917L327.94 135.333L321.857 139.917L305.857 117.083C303.579 124.139 300.607 129.639 296.94 133.583C293.329 137.528 289.162 139.694 284.44 140.083V132.083C288.329 131.417 291.662 128.806 294.44 124.25C297.273 119.639 299.412 113.611 300.857 106.167C302.357 98.6667 303.135 90.3889 303.19 81.3333L310.857 81.5833ZM369.827 88.5833V81.25H422.411V110.5H414.661V88.5833H369.827ZM399.744 123.25V145.333H391.994V123.25H365.827V115.75H426.661V123.25H399.744ZM490.569 143.833H483.402V112.833H473.902V142.75H466.902V80.1667H473.902V105.417H483.402V79.8333H490.569V143.833ZM459.902 82.0833V140.083H433.652V82.0833H459.902ZM452.735 132.917V89.25H440.735V132.917H452.735ZM561.56 99.3333H553.143V115.167H545.643V79.8333H553.143V91.8333H561.56V99.3333ZM518.56 100.083C516.282 103.917 513.393 107.056 509.893 109.5C506.393 111.889 502.421 113.389 497.977 114V106.833C501.699 106.167 504.921 104.611 507.643 102.167C510.365 99.6667 512.449 96.5278 513.893 92.75C515.338 88.9722 516.088 84.8333 516.143 80.3333L523.727 80.8333C523.727 85.3889 523.004 89.75 521.56 93.9167L540.227 106.667L536.393 112.417L518.56 100.083ZM527.81 117.167C535.699 117.167 542.032 118.25 546.81 120.417C551.588 122.583 553.977 125.944 553.977 130.5C553.977 135.111 551.588 138.5 546.81 140.667C542.032 142.833 535.699 143.917 527.81 143.917C519.921 143.917 513.588 142.833 508.81 140.667C504.032 138.5 501.643 135.111 501.643 130.5C501.643 125.944 504.032 122.583 508.81 120.417C513.588 118.25 519.921 117.167 527.81 117.167ZM527.81 137.417C533.143 137.417 537.504 136.833 540.893 135.667C544.282 134.5 545.977 132.778 545.977 130.5C545.977 128.222 544.282 126.528 540.893 125.417C537.56 124.25 533.199 123.667 527.81 123.667C522.421 123.667 518.032 124.25 514.643 125.417C511.31 126.528 509.643 128.222 509.643 130.5C509.643 132.778 511.31 134.5 514.643 135.667C518.032 136.833 522.421 137.417 527.81 137.417ZM619.134 100.25V114.583H611.634V79.8333H619.134V92.6667H627.551V100.25H619.134ZM607.301 108.75C605.468 109.639 602.857 110.333 599.468 110.833C596.079 111.333 592.329 111.583 588.218 111.583H565.884V81.3333H603.051V88H573.384V104.917H588.634C592.634 104.917 596.273 104.694 599.551 104.25C602.829 103.75 605.412 103.056 607.301 102.167V108.75ZM619.134 118V143.083H567.884V118H619.134ZM611.634 136.417V124.667H575.468V136.417H611.634ZM701.605 113.083V143.833H694.105V79.8333H701.605V105.5H710.022V113.083H701.605ZM681.688 82.0833V97.6667C681.688 106.167 680.355 113.611 677.688 120C675.022 126.333 671.188 131.25 666.188 134.75C661.188 138.194 655.272 139.917 648.438 139.917V132.417C653.827 132.417 658.438 131.028 662.272 128.25C666.161 125.417 669.105 121.417 671.105 116.25C673.105 111.028 674.105 104.889 674.105 97.8333V89.25H648.438V82.0833H681.688ZM769.513 96.0833V102.417H716.596V79.75H724.096V96.0833H769.513ZM712.263 114.917V108.583H773.096V114.917H712.263ZM742.68 120.417C750.735 120.417 757.207 121.361 762.096 123.25C767.041 125.083 769.513 128.056 769.513 132.167C769.513 136.333 767.041 139.333 762.096 141.167C757.207 143.056 750.735 144 742.68 144C734.624 144 728.124 143.056 723.18 141.167C718.291 139.333 715.846 136.333 715.846 132.167C715.846 128.056 718.291 125.083 723.18 123.25C728.124 121.361 734.624 120.417 742.68 120.417ZM742.68 126.583C737.235 126.583 732.707 127.028 729.096 127.917C725.541 128.806 723.763 130.222 723.763 132.167C723.763 134.167 725.541 135.611 729.096 136.5C732.707 137.389 737.235 137.833 742.68 137.833C748.124 137.833 752.624 137.389 756.18 136.5C759.791 135.611 761.596 134.167 761.596 132.167C761.596 130.222 759.791 128.806 756.18 127.917C752.624 127.028 748.124 126.583 742.68 126.583Z" fill="#01A69F"/>
</g>
<defs>
<filter id="filter0_d_166_8319" x="86.979" y="8.16699" width="603.048" height="51.7217" filterUnits="userSpaceOnUse" color-interpolation-filters="sRGB">
<feFlood flood-opacity="0" result="BackgroundImageFix"/>
<feColorMatrix in="SourceAlpha" type="matrix" values="0 0 0 0 0 0 0 0 0 0 0 0 0 0 0 0 0 0 127 0" result="hardAlpha"/>
<feOffset dy="4"/>
<feGaussianBlur stdDeviation="2"/>
<feComposite in2="hardAlpha" operator="out"/>
<feColorMatrix type="matrix" values="0 0 0 0 0 0 0 0 0 0 0 0 0 0 0 0 0 0 0.25 0"/>
<feBlend mode="normal" in2="BackgroundImageFix" result="effect1_dropShadow_166_8319"/>
<feBlend mode="normal" in="SourceGraphic" in2="effect1_dropShadow_166_8319" result="shape"/>
</filter>
<filter id="filter1_d_166_8319" x="0.829102" y="79.75" width="776.267" height="73.583" filterUnits="userSpaceOnUse" color-interpolation-filters="sRGB">
<feFlood flood-opacity="0" result="BackgroundImageFix"/>
<feColorMatrix in="SourceAlpha" type="matrix" values="0 0 0 0 0 0 0 0 0 0 0 0 0 0 0 0 0 0 127 0" result="hardAlpha"/>
<feOffset dy="4"/>
<feGaussianBlur stdDeviation="2"/>
<feComposite in2="hardAlpha" operator="out"/>
<feColorMatrix type="matrix" values="0 0 0 0 0 0 0 0 0 0 0 0 0 0 0 0 0 0 0.25 0"/>
<feBlend mode="normal" in2="BackgroundImageFix" result="effect1_dropShadow_166_8319"/>
<feBlend mode="normal" in="SourceGraphic" in2="effect1_dropShadow_166_8319" result="shape"/>
</filter>
</defs>
</svg>
