<svg width="800" height="100" viewBox="0 0 800 100" fill="none" xmlns="http://www.w3.org/2000/svg">
<rect width="800" height="100" rx="50" fill="#5DDFDE"/>
<g filter="url(#filter0_d_65_9271)">
<path d="M171.218 75.2667H161.552V24.0667H171.218V75.2667ZM147.018 34.5333C146.885 39.5556 146.485 43.8222 145.818 47.3333L159.952 66.6667L152.352 72.6667L142.552 58.6C140.596 63.1778 138.107 66.6889 135.085 69.1333C132.063 71.5778 128.707 72.8222 125.018 72.8667V62.6667C127.374 62.4 129.463 61.0889 131.285 58.7333C133.107 56.3333 134.552 53.0667 135.618 48.9333C136.685 44.7556 137.263 39.9556 137.352 34.5333H126.352V25.2667H157.485V34.5333H147.018ZM213.345 41.0667V32.4H179.745V24.0667H223.078V41.0667H213.345ZM176.878 51.2667V43H226.145V51.2667H176.878ZM179.745 75.2667V54.3333H223.345V75.2667H179.745ZM213.745 62.2667H189.278V67.4H213.745V62.2667ZM275.404 52.6V75.2667H265.804V24.0667H275.404V42.8H281.138V52.6H275.404ZM259.738 25.2667V72.8667H231.338V25.2667H240.871V40.3333H250.204V25.2667H259.738ZM250.204 49.5333H240.871V63.6H250.204V49.5333ZM331.73 73.4667H282.464V64.2667H302.264V58.4667H285.197V37.6H319.53V34.1333H285.13V25.2667H329.064V46.0667H294.797V49.6H329.597V58.4667H311.997V64.2667H331.73V73.4667ZM399.907 41.6H394.174V52.2667H384.574V24.0667H394.174V31.9333H399.907V41.6ZM365.707 42.2C363.618 45.0889 361.085 47.4 358.107 49.1333C355.174 50.8667 351.951 51.8222 348.44 52V42.9333C350.974 42.6222 353.196 41.6444 355.107 40C357.063 38.3111 358.574 36.1111 359.64 33.4C360.751 30.6889 361.329 27.6444 361.374 24.2667L371.04 24.8667C371.04 28.3333 370.551 31.5556 369.574 34.5333L382.774 43.4L377.907 50.6667L365.707 42.2ZM372.707 53C379.374 53 384.685 53.9111 388.64 55.7333C392.64 57.5111 394.64 60.4 394.64 64.4C394.64 68.4 392.64 71.3111 388.64 73.1333C384.685 74.9556 379.374 75.8667 372.707 75.8667C366.04 75.8667 360.707 74.9556 356.707 73.1333C352.751 71.3111 350.774 68.4 350.774 64.4C350.774 60.4 352.751 57.5111 356.707 55.7333C360.707 53.9111 366.04 53 372.707 53ZM372.707 67.8C376.174 67.8 378.951 67.5333 381.04 67C383.174 66.4222 384.24 65.5556 384.24 64.4C384.24 63.2444 383.174 62.4 381.04 61.8667C378.951 61.3333 376.174 61.0667 372.707 61.0667C369.24 61.0667 366.44 61.3333 364.307 61.8667C362.174 62.4 361.107 63.2444 361.107 64.4C361.107 65.5556 362.174 66.4222 364.307 67C366.44 67.5333 369.24 67.8 372.707 67.8ZM446.967 42.4V51.8H437.367V24.0667H446.967V32.6H452.7V42.4H446.967ZM435.1 48.4C433.856 48.9778 432.167 49.4222 430.033 49.7333C427.944 50.0444 425.744 50.2 423.433 50.2H402.3V24.6667H432.3V33H411.967V41.8667H423.833C426.056 41.8667 428.167 41.7333 430.167 41.4667C432.167 41.1556 433.811 40.7333 435.1 40.2V48.4ZM446.967 53.6V75.2667H403.967V53.6H446.967ZM437.367 66.9333V61.9333H413.633V66.9333H437.367ZM470.21 45.8V24.0667H513.543V45.8H470.21ZM479.743 32V37.8H503.943V32H479.743ZM516.477 57.1333H496.677V64.0667H487.01V57.1333H467.21V48.8H516.477V57.1333ZM514.21 66.8667V75.2667H470.077V60.1333H479.877V66.8667H514.21ZM557.603 75.2667V24.0667H567.203V75.2667H557.603ZM536.936 24.4C539.914 24.4 542.581 25.0889 544.936 26.4667C547.292 27.8444 549.114 29.8 550.403 32.3333C551.736 34.8222 552.403 37.7111 552.403 41C552.403 44.2889 551.736 47.2 550.403 49.7333C549.114 52.2667 547.292 54.2222 544.936 55.6C542.581 56.9778 539.914 57.6667 536.936 57.6667C533.914 57.6667 531.225 56.9778 528.87 55.6C526.514 54.2222 524.67 52.2667 523.336 49.7333C522.003 47.2 521.336 44.2889 521.336 41C521.336 37.7111 522.003 34.8222 523.336 32.3333C524.67 29.8 526.514 27.8444 528.87 26.4667C531.225 25.0889 533.914 24.4 536.936 24.4ZM536.936 33.4667C535.025 33.4667 533.492 34.1778 532.336 35.6C531.225 37.0222 530.67 38.8222 530.67 41C530.67 43.2667 531.225 45.1111 532.336 46.5333C533.492 47.9111 535.025 48.6 536.936 48.6C538.803 48.6 540.314 47.8889 541.47 46.4667C542.625 45.0444 543.203 43.2222 543.203 41C543.203 38.8222 542.625 37.0222 541.47 35.6C540.314 34.1778 538.803 33.4667 536.936 33.4667ZM554.803 70.7333C553.336 71.4444 551.425 71.9778 549.07 72.3333C546.758 72.6889 544.336 72.8667 541.803 72.8667H520.003V63.4H542.203C544.603 63.4 546.936 63.2444 549.203 62.9333C551.47 62.5778 553.336 62.0667 554.803 61.4V70.7333ZM605.462 30.2V39.4667H573.863V30.2H584.729V23.8667H594.596V30.2H605.462ZM618.529 52.6V75.2667H608.929V24.0667H618.529V42.8H624.263V52.6H618.529ZM589.663 41.6C592.507 41.6 594.996 42.2889 597.129 43.6667C599.263 45.0444 600.907 46.9556 602.062 49.4C603.218 51.8 603.796 54.5111 603.796 57.5333C603.796 60.6 603.218 63.3333 602.062 65.7333C600.907 68.1333 599.263 70.0222 597.129 71.4C594.996 72.7778 592.507 73.4667 589.663 73.4667C586.774 73.4667 584.263 72.7778 582.129 71.4C579.996 70.0222 578.351 68.1333 577.196 65.7333C576.04 63.3333 575.463 60.6 575.463 57.5333C575.463 54.5111 576.04 51.8 577.196 49.4C578.351 46.9556 579.996 45.0444 582.129 43.6667C584.263 42.2889 586.774 41.6 589.663 41.6ZM589.663 64.8C591.218 64.8 592.418 64.1556 593.263 62.8667C594.151 61.5333 594.596 59.7556 594.596 57.5333C594.596 55.3111 594.151 53.5556 593.263 52.2667C592.418 50.9333 591.218 50.2667 589.663 50.2667C588.107 50.2667 586.885 50.9333 585.996 52.2667C585.107 53.5556 584.663 55.3111 584.663 57.5333C584.663 59.7556 585.107 61.5333 585.996 62.8667C586.885 64.1556 588.107 64.8 589.663 64.8ZM663.055 75.2667V24.0667H672.722V75.2667H663.055ZM655.589 39.1333C655.589 45.9778 654.433 51.9556 652.122 57.0667C649.811 62.1333 646.544 66.0444 642.322 68.8C638.1 71.5111 633.167 72.8667 627.522 72.8667V63.2667C633.344 63.2222 637.811 61.0667 640.922 56.8C644.078 52.5333 645.655 46.6444 645.655 39.1333V34.4667H627.522V25.2667H655.589V39.1333Z" fill="#3E3E3E"/>
</g>
<defs>
<filter id="filter0_d_65_9271" x="121.018" y="23.8662" width="555.704" height="60" filterUnits="userSpaceOnUse" color-interpolation-filters="sRGB">
<feFlood flood-opacity="0" result="BackgroundImageFix"/>
<feColorMatrix in="SourceAlpha" type="matrix" values="0 0 0 0 0 0 0 0 0 0 0 0 0 0 0 0 0 0 127 0" result="hardAlpha"/>
<feOffset dy="4"/>
<feGaussianBlur stdDeviation="2"/>
<feComposite in2="hardAlpha" operator="out"/>
<feColorMatrix type="matrix" values="0 0 0 0 1 0 0 0 0 1 0 0 0 0 1 0 0 0 1 0"/>
<feBlend mode="normal" in2="BackgroundImageFix" result="effect1_dropShadow_65_9271"/>
<feBlend mode="normal" in="SourceGraphic" in2="effect1_dropShadow_65_9271" result="shape"/>
</filter>
</defs>
</svg>
