<svg width="588" height="113" viewBox="0 0 588 113" fill="none" xmlns="http://www.w3.org/2000/svg">
<rect width="588" height="113" rx="20" fill="#01A69F"/>
<path d="M98.015 47.5167H92.3028V58.3483H88.4228V35.4456H92.3028V43.6906H98.015V47.5167ZM70.5317 48.4328C69.2383 50.8757 67.46 52.8876 65.1967 54.4683C62.9693 56.0131 60.4006 56.9831 57.4906 57.3783V53.66C60.8317 53.157 63.5082 51.702 65.52 49.295C67.5319 46.852 68.6635 43.7983 68.915 40.1339H57.9756V36.6311H83.0878V40.1339H72.8489C72.7411 42.038 72.4537 43.7444 71.9867 45.2533L84.3272 53.3906L82.3872 56.4622L70.5317 48.4328ZM76.2439 59.8572C81.2376 59.8572 85.2613 60.5578 88.315 61.9589C91.3687 63.3241 92.8956 65.4437 92.8956 68.3178C92.8956 71.1919 91.3687 73.3115 88.315 74.6767C85.2613 76.0419 81.2376 76.7244 76.2439 76.7244C71.2502 76.7244 67.2265 76.0419 64.1728 74.6767C61.1191 73.3115 59.5922 71.1919 59.5922 68.3178C59.5922 65.4437 61.1191 63.3241 64.1728 61.9589C67.2265 60.5578 71.2502 59.8572 76.2439 59.8572ZM76.2439 73.3294C79.9443 73.3294 82.962 72.8983 85.2972 72.0361C87.6324 71.1739 88.8 69.9344 88.8 68.3178C88.8 66.6652 87.6324 65.4078 85.2972 64.5456C82.962 63.6833 79.9443 63.2522 76.2439 63.2522C72.5435 63.2522 69.5257 63.6833 67.1906 64.5456C64.8554 65.4078 63.6878 66.6652 63.6878 68.3178C63.6878 69.9344 64.8554 71.1739 67.1906 72.0361C69.5257 72.8983 72.5435 73.3294 76.2439 73.3294ZM137.187 76.8322H133.468V56.3006H126.355V76.1317H122.69V35.6611H126.355V52.4206H133.468V35.4456H137.187V76.8322ZM109.272 36.5233C112.29 36.5233 114.553 38.0861 116.062 41.2117C117.571 44.3372 118.325 49.1513 118.325 55.6539C118.325 62.1924 117.571 67.0244 116.062 70.15C114.553 73.2396 112.29 74.7844 109.272 74.7844C106.29 74.7844 104.027 73.2396 102.482 70.15C100.973 67.0244 100.219 62.1924 100.219 55.6539C100.219 42.9002 103.237 36.5233 109.272 36.5233ZM109.272 71.0661C111.068 71.0661 112.398 69.8087 113.26 67.2939C114.158 64.7431 114.607 60.8631 114.607 55.6539C114.607 50.4446 114.158 46.5826 113.26 44.0678C112.398 41.517 111.068 40.2417 109.272 40.2417C107.476 40.2417 106.129 41.517 105.23 44.0678C104.368 46.5826 103.937 50.4446 103.937 55.6539C103.937 60.8631 104.368 64.7431 105.23 67.2939C106.129 69.8087 107.476 71.0661 109.272 71.0661ZM174.849 66.2161V35.4456H178.783V66.2161H174.849ZM155.126 35.9306C157.641 35.9306 159.832 36.4515 161.7 37.4933C163.568 38.4993 164.988 39.9183 165.958 41.7506C166.963 43.5469 167.466 45.5946 167.466 47.8939C167.466 50.1931 166.963 52.2589 165.958 54.0911C164.988 55.8874 163.568 57.3065 161.7 58.3483C159.832 59.3543 157.641 59.8572 155.126 59.8572C152.611 59.8572 150.42 59.3543 148.551 58.3483C146.683 57.3065 145.246 55.8874 144.24 54.0911C143.234 52.2589 142.731 50.1931 142.731 47.8939C142.731 45.5946 143.234 43.5469 144.24 41.7506C145.246 39.9183 146.683 38.4993 148.551 37.4933C150.42 36.4515 152.611 35.9306 155.126 35.9306ZM155.126 39.3794C152.575 39.3794 150.527 40.1519 148.983 41.6967C147.438 43.2415 146.665 45.3072 146.665 47.8939C146.665 50.4806 147.438 52.5463 148.983 54.0911C150.527 55.6 152.575 56.3544 155.126 56.3544C157.677 56.3544 159.724 55.6 161.269 54.0911C162.814 52.5463 163.586 50.4806 163.586 47.8939C163.586 45.3072 162.814 43.2415 161.269 41.6967C159.724 40.1519 157.677 39.3794 155.126 39.3794ZM179.915 72.4672V76.1856H146.18V62.8211H150.114V72.4672H179.915ZM234.809 74.7306H195.577V71.0122H205.655V60.6656H197.679V56.9472H204.846V41.1039H198.056V37.3856H232.276V41.1039H225.54V56.9472H232.707V60.6656H224.731V71.0122H234.809V74.7306ZM221.66 56.9472V41.1039H208.726V56.9472H221.66ZM220.797 71.0122V60.6656H209.535V71.0122H220.797ZM257.005 46.6544C255.137 48.7022 252.694 50.283 249.676 51.3967C246.694 52.5104 243.587 53.1031 240.353 53.175V49.6722C242.725 49.6004 245.078 49.1693 247.413 48.3789C249.748 47.5526 251.742 46.385 253.395 44.8761C255.083 43.3672 256.107 41.5889 256.466 39.5411H241.054V36.0383H274.681V39.5411H260.562C260.346 41.0859 259.915 42.487 259.268 43.7444L275.705 50.1033L274.465 53.3906L257.005 46.6544ZM277.483 60.45H259.807V67.8867H255.927V60.45H238.252V56.9472H277.483V60.45ZM275.381 72.6828V76.2394H241.108V64.5456H245.042V72.6828H275.381ZM326.988 56.4622V76.8322H323.108V35.4456H326.988V52.5822H332.7V56.4622H326.988ZM308.288 36.6311C308.217 43.3852 307.696 49.1693 306.726 53.9833L319.39 71.8206L316.21 74.1378L305.432 58.7794C304.103 63.4139 302.289 67.0783 299.99 69.7728C297.69 72.4313 295.032 73.9222 292.014 74.2456V70.2039C294.637 69.7369 296.864 67.9585 298.696 64.8689C300.564 61.7793 301.965 57.7735 302.9 52.8517C303.834 47.9298 304.319 42.487 304.355 36.5233L308.288 36.6311ZM371.063 57.0011H367.183V47.84H358.615C358.22 50.3907 356.98 52.4385 354.897 53.9833C352.813 55.5281 350.118 56.3006 346.813 56.3006C344.37 56.3006 342.233 55.8694 340.4 55.0072C338.604 54.145 337.203 52.9415 336.197 51.3967C335.227 49.8519 334.742 48.0915 334.742 46.1156C334.742 44.1756 335.227 42.4331 336.197 40.8883C337.203 39.3435 338.604 38.14 340.4 37.2778C342.233 36.4156 344.37 35.9844 346.813 35.9844C350.011 35.9844 352.651 36.7209 354.735 38.1939C356.819 39.6669 358.094 41.6248 358.561 44.0678H367.183V35.4456H371.063V57.0011ZM346.813 52.8517C349.256 52.8517 351.232 52.2589 352.741 51.0733C354.25 49.8519 355.004 48.1993 355.004 46.1156C355.004 44.0678 354.25 42.4511 352.741 41.2656C351.232 40.0441 349.256 39.4333 346.813 39.4333C344.37 39.4333 342.394 40.0441 340.885 41.2656C339.377 42.4511 338.622 44.0678 338.622 46.1156C338.622 48.1993 339.377 49.8519 340.885 51.0733C342.394 52.2589 344.37 52.8517 346.813 52.8517ZM371.063 58.8872V76.1856H338.407V58.8872H342.233V63.7911H367.237V58.8872H371.063ZM367.237 67.1322H342.233V72.7906H367.237V67.1322ZM418.049 47.5167H412.336V58.3483H408.456V35.4456H412.336V43.6906H418.049V47.5167ZM390.565 48.4328C389.272 50.8757 387.494 52.8876 385.23 54.4683C383.003 56.0131 380.434 56.9831 377.524 57.3783V53.66C380.865 53.157 383.542 51.702 385.554 49.295C387.566 46.852 388.697 43.7983 388.949 40.1339H378.009V36.6311H403.121V40.1339H392.883C392.775 42.038 392.487 43.7444 392.02 45.2533L404.361 53.3906L402.421 56.4622L390.565 48.4328ZM396.278 59.8572C401.271 59.8572 405.295 60.5578 408.349 61.9589C411.402 63.3241 412.929 65.4437 412.929 68.3178C412.929 71.1919 411.402 73.3115 408.349 74.6767C405.295 76.0419 401.271 76.7244 396.278 76.7244C391.284 76.7244 387.26 76.0419 384.206 74.6767C381.153 73.3115 379.626 71.1919 379.626 68.3178C379.626 65.4437 381.153 63.3241 384.206 61.9589C387.26 60.5578 391.284 59.8572 396.278 59.8572ZM396.278 73.3294C399.978 73.3294 402.996 72.8983 405.331 72.0361C407.666 71.1739 408.834 69.9344 408.834 68.3178C408.834 66.6652 407.666 65.4078 405.331 64.5456C402.996 63.6833 399.978 63.2522 396.278 63.2522C392.577 63.2522 389.559 63.6833 387.224 64.5456C384.889 65.4078 383.721 66.6652 383.721 68.3178C383.721 69.9344 384.889 71.1739 387.224 72.0361C389.559 72.8983 392.577 73.3294 396.278 73.3294ZM452.209 76.8322V35.4456H456.142V76.8322H452.209ZM433.24 36.5233C436.832 36.5233 439.688 38.14 441.808 41.3733C443.964 44.6067 445.041 49.3669 445.041 55.6539C445.041 61.9409 443.964 66.7011 441.808 69.9344C439.688 73.1678 436.832 74.7844 433.24 74.7844C429.647 74.7844 426.773 73.1678 424.617 69.9344C422.498 66.7011 421.438 61.9409 421.438 55.6539C421.438 49.3669 422.498 44.6067 424.617 41.3733C426.773 38.14 429.647 36.5233 433.24 36.5233ZM433.24 40.2417C430.833 40.2417 428.911 41.535 427.474 44.1217C426.037 46.6724 425.318 50.5165 425.318 55.6539C425.318 60.8272 426.037 64.6893 427.474 67.24C428.911 69.7907 430.833 71.0661 433.24 71.0661C435.575 71.0661 437.479 69.7907 438.952 67.24C440.425 64.6533 441.161 60.7913 441.161 55.6539C441.161 50.5524 440.425 46.7083 438.952 44.1217C437.479 41.535 435.575 40.2417 433.24 40.2417ZM503.397 50.4806H497.685V66.3778H493.805V35.4456H497.685V46.6006H503.397V50.4806ZM482.704 39.9183H463.681V36.5772H486.53V50.1033H467.669V57.1089H477.585C480.423 57.1089 482.973 56.9472 485.237 56.6239C487.536 56.2646 489.35 55.7796 490.68 55.1689V58.51C489.422 59.1207 487.626 59.6057 485.291 59.965C482.955 60.2883 480.315 60.45 477.369 60.45H463.789V46.9239H482.704V39.9183ZM498.871 72.5211V76.1856H465.082V64.4917H469.016V72.5211H498.871ZM515.948 63.6833C515.948 62.2463 516.181 60.9709 516.648 59.8572C517.151 58.7435 517.744 57.8094 518.427 57.055C519.109 56.3006 520.025 55.4024 521.175 54.3606C522.217 53.3906 523.025 52.6002 523.6 51.9894C524.175 51.3428 524.66 50.6063 525.055 49.78C525.45 48.9178 525.648 47.9478 525.648 46.87C525.648 44.8941 524.893 43.3133 523.384 42.1278C521.876 40.9422 519.756 40.3494 517.026 40.3494C512.643 40.3494 509.266 41.8044 506.894 44.7144L503.877 42.7206C506.894 38.8406 511.403 36.9006 517.403 36.9006C521.175 36.9006 524.175 37.7628 526.402 39.4872C528.666 41.1757 529.797 43.457 529.797 46.3311C529.797 47.8041 529.546 49.1154 529.043 50.265C528.576 51.3787 527.983 52.3307 527.264 53.1211C526.582 53.9115 525.666 54.8276 524.516 55.8694C522.971 57.2346 521.804 58.4741 521.013 59.5878C520.259 60.7015 519.882 62.0667 519.882 63.6833H515.948ZM517.942 75.2694C517.115 75.2694 516.433 75 515.894 74.4611C515.355 73.9222 515.086 73.2576 515.086 72.4672C515.086 71.6769 515.355 71.0122 515.894 70.4733C516.433 69.9344 517.115 69.665 517.942 69.665C518.768 69.665 519.451 69.9344 519.989 70.4733C520.564 71.0122 520.852 71.6769 520.852 72.4672C520.852 73.2576 520.564 73.9222 519.989 74.4611C519.451 75 518.768 75.2694 517.942 75.2694Z" fill="white"/>
</svg>
